  0
SECTION
  2
HEADER
  9
$ACADVER
  1
AC1024
  9
$ACADMAINTVER
 70
6
  9
$DWGCODEPAGE
  3
ANSI_1252
  9
$LASTSAVEDBY
  1
ezdxf
  9
$INSBASE
 10
0.0
 20
0.0
 30
0.0
  9
$EXTMIN
 10
1e+20
 20
1e+20
 30
1e+20
  9
$EXTMAX
 10
-1e+20
 20
-1e+20
 30
-1e+20
  9
$LIMMIN
 10
0.0
 20
0.0
  9
$LIMMAX
 10
420.0
 20
297.0
  9
$ORTHOMODE
 70
0
  9
$REGENMODE
 70
1
  9
$FILLMODE
 70
1
  9
$QTEXTMODE
 70
0
  9
$MIRRTEXT
 70
1
  9
$LTSCALE
 40
1.0
  9
$ATTMODE
 70
1
  9
$TEXTSIZE
 40
2.5
  9
$TRACEWID
 40
1.0
  9
$TEXTSTYLE
  7
Standard
  9
$CLAYER
  8
0
  9
$CELTYPE
  6
ByLayer
  9
$CECOLOR
 62
256
  9
$CELTSCALE
 40
1.0
  9
$DISPSILH
 70
0
  9
$DIMSCALE
 40
1.0
  9
$DIMASZ
 40
2.5
  9
$DIMEXO
 40
0.625
  9
$DIMDLI
 40
3.75
  9
$DIMRND
 40
0.0
  9
$DIMDLE
 40
0.0
  9
$DIMEXE
 40
1.25
  9
$DIMTP
 40
0.0
  9
$DIMTM
 40
0.0
  9
$DIMTXT
 40
2.5
  9
$DIMCEN
 40
2.5
  9
$DIMTSZ
 40
0.0
  9
$DIMTOL
 70
0
  9
$DIMLIM
 70
0
  9
$DIMTIH
 70
0
  9
$DIMTOH
 70
0
  9
$DIMSE1
 70
0
  9
$DIMSE2
 70
0
  9
$DIMTAD
 70
1
  9
$DIMZIN
 70
8
  9
$DIMBLK
  1

  9
$DIMASO
 70
1
  9
$DIMSHO
 70
1
  9
$DIMPOST
  1

  9
$DIMAPOST
  1

  9
$DIMALT
 70
0
  9
$DIMALTD
 70
3
  9
$DIMALTF
 40
0.03937007874
  9
$DIMLFAC
 40
1.0
  9
$DIMTOFL
 70
1
  9
$DIMTVP
 40
0.0
  9
$DIMTIX
 70
0
  9
$DIMSOXD
 70
0
  9
$DIMSAH
 70
0
  9
$DIMBLK1
  1

  9
$DIMBLK2
  1

  9
$DIMSTYLE
  2
ISO-25
  9
$DIMCLRD
 70
0
  9
$DIMCLRE
 70
0
  9
$DIMCLRT
 70
0
  9
$DIMTFAC
 40
1.0
  9
$DIMGAP
 40
0.625
  9
$DIMJUST
 70
0
  9
$DIMSD1
 70
0
  9
$DIMSD2
 70
0
  9
$DIMTOLJ
 70
0
  9
$DIMTZIN
 70
8
  9
$DIMALTZ
 70
0
  9
$DIMALTTZ
 70
0
  9
$DIMUPT
 70
0
  9
$DIMDEC
 70
2
  9
$DIMTDEC
 70
2
  9
$DIMALTU
 70
2
  9
$DIMALTTD
 70
3
  9
$DIMTXSTY
  7
Standard
  9
$DIMAUNIT
 70
0
  9
$DIMADEC
 70
0
  9
$DIMALTRND
 40
0.0
  9
$DIMAZIN
 70
0
  9
$DIMDSEP
 70
44
  9
$DIMATFIT
 70
3
  9
$DIMFRAC
 70
0
  9
$DIMLDRBLK
  1

  9
$DIMLUNIT
 70
2
  9
$DIMLWD
 70
-2
  9
$DIMLWE
 70
-2
  9
$DIMTMOVE
 70
0
  9
$DIMFXL
 40
1.0
  9
$DIMFXLON
 70
0
  9
$DIMJOGANG
 40
0.785398163397
  9
$DIMTFILL
 70
0
  9
$DIMTFILLCLR
 70
0
  9
$DIMARCSYM
 70
0
  9
$DIMLTYPE
  6

  9
$DIMLTEX1
  6

  9
$DIMLTEX2
  6

  9
$DIMTXTDIRECTION
 70
0
  9
$LUNITS
 70
2
  9
$LUPREC
 70
4
  9
$SKETCHINC
 40
1.0
  9
$FILLETRAD
 40
10.0
  9
$AUNITS
 70
0
  9
$AUPREC
 70
2
  9
$MENU
  1
.
  9
$ELEVATION
 40
0.0
  9
$PELEVATION
 40
0.0
  9
$THICKNESS
 40
0.0
  9
$LIMCHECK
 70
0
  9
$CHAMFERA
 40
0.0
  9
$CHAMFERB
 40
0.0
  9
$CHAMFERC
 40
0.0
  9
$CHAMFERD
 40
0.0
  9
$SKPOLY
 70
0
  9
$TDCREATE
 40
2461195.5157175926
  9
$TDUCREATE
 40
2458532.153996898
  9
$TDUPDATE
 40
2461195.5157175926
  9
$TDUUPDATE
 40
2458532.1544311
  9
$TDINDWG
 40
0.0
  9
$TDUSRTIMER
 40
0.0
  9
$USRTIMER
 70
1
  9
$ANGBASE
 50
0.0
  9
$ANGDIR
 70
0
  9
$PDMODE
 70
0
  9
$PDSIZE
 40
0.0
  9
$PLINEWID
 40
0.0
  9
$SPLFRAME
 70
0
  9
$SPLINETYPE
 70
6
  9
$SPLINESEGS
 70
8
  9
$HANDSEED
  5
431
  9
$SURFTAB1
 70
6
  9
$SURFTAB2
 70
6
  9
$SURFTYPE
 70
6
  9
$SURFU
 70
6
  9
$SURFV
 70
6
  9
$UCSBASE
  2

  9
$UCSNAME
  2

  9
$UCSORG
 10
0.0
 20
0.0
 30
0.0
  9
$UCSXDIR
 10
1.0
 20
0.0
 30
0.0
  9
$UCSYDIR
 10
0.0
 20
1.0
 30
0.0
  9
$UCSORTHOREF
  2

  9
$UCSORTHOVIEW
 70
0
  9
$UCSORGTOP
 10
0.0
 20
0.0
 30
0.0
  9
$UCSORGBOTTOM
 10
0.0
 20
0.0
 30
0.0
  9
$UCSORGLEFT
 10
0.0
 20
0.0
 30
0.0
  9
$UCSORGRIGHT
 10
0.0
 20
0.0
 30
0.0
  9
$UCSORGFRONT
 10
0.0
 20
0.0
 30
0.0
  9
$UCSORGBACK
 10
0.0
 20
0.0
 30
0.0
  9
$PUCSBASE
  2

  9
$PUCSNAME
  2

  9
$PUCSORG
 10
0.0
 20
0.0
 30
0.0
  9
$PUCSXDIR
 10
1.0
 20
0.0
 30
0.0
  9
$PUCSYDIR
 10
0.0
 20
1.0
 30
0.0
  9
$PUCSORTHOREF
  2

  9
$PUCSORTHOVIEW
 70
0
  9
$PUCSORGTOP
 10
0.0
 20
0.0
 30
0.0
  9
$PUCSORGBOTTOM
 10
0.0
 20
0.0
 30
0.0
  9
$PUCSORGLEFT
 10
0.0
 20
0.0
 30
0.0
  9
$PUCSORGRIGHT
 10
0.0
 20
0.0
 30
0.0
  9
$PUCSORGFRONT
 10
0.0
 20
0.0
 30
0.0
  9
$PUCSORGBACK
 10
0.0
 20
0.0
 30
0.0
  9
$USERI1
 70
0
  9
$USERI2
 70
0
  9
$USERI3
 70
0
  9
$USERI4
 70
0
  9
$USERI5
 70
0
  9
$USERR1
 40
0.0
  9
$USERR2
 40
0.0
  9
$USERR3
 40
0.0
  9
$USERR4
 40
0.0
  9
$USERR5
 40
0.0
  9
$WORLDVIEW
 70
1
  9
$SHADEDGE
 70
3
  9
$SHADEDIF
 70
70
  9
$TILEMODE
 70
1
  9
$MAXACTVP
 70
64
  9
$PINSBASE
 10
0.0
 20
0.0
 30
0.0
  9
$PLIMCHECK
 70
0
  9
$PEXTMIN
 10
1e+20
 20
1e+20
 30
1e+20
  9
$PEXTMAX
 10
-1e+20
 20
-1e+20
 30
-1e+20
  9
$PLIMMIN
 10
0.0
 20
0.0
  9
$PLIMMAX
 10
420.0
 20
297.0
  9
$UNITMODE
 70
0
  9
$VISRETAIN
 70
1
  9
$PLINEGEN
 70
0
  9
$PSLTSCALE
 70
1
  9
$TREEDEPTH
 70
3020
  9
$CMLSTYLE
  2
Standard
  9
$CMLJUST
 70
0
  9
$CMLSCALE
 40
20.0
  9
$PROXYGRAPHICS
 70
1
  9
$MEASUREMENT
 70
1
  9
$CELWEIGHT
370
-1
  9
$ENDCAPS
280
0
  9
$JOINSTYLE
280
0
  9
$LWDISPLAY
290
0
  9
$INSUNITS
 70
6
  9
$HYPERLINKBASE
  1

  9
$STYLESHEET
  1

  9
$XEDIT
290
1
  9
$CEPSNTYPE
380
0
  9
$PSTYLEMODE
290
1
  9
$FINGERPRINTGUID
  2
{1196BDE1-91C4-4FC2-9FF0-D830048B713F}
  9
$VERSIONGUID
  2
{01E725F8-9172-422F-9B11-15A1E447EC36}
  9
$EXTNAMES
290
1
  9
$PSVPSCALE
 40
0.0
  9
$OLESTARTUP
290
0
  9
$SORTENTS
280
127
  9
$INDEXCTL
280
0
  9
$HIDETEXT
280
1
  9
$XCLIPFRAME
280
1
  9
$HALOGAP
280
0
  9
$OBSCOLOR
 70
257
  9
$OBSLTYPE
280
0
  9
$INTERSECTIONDISPLAY
280
0
  9
$INTERSECTIONCOLOR
 70
257
  9
$DIMASSOC
280
2
  9
$PROJECTNAME
  1

  9
$CAMERADISPLAY
290
0
  9
$LENSLENGTH
 40
50.0
  9
$CAMERAHEIGHT
 40
0.0
  9
$STEPSPERSEC
 40
24.0
  9
$STEPSIZE
 40
100.0
  9
$3DDWFPREC
 40
2.0
  9
$PSOLWIDTH
 40
0.005
  9
$PSOLHEIGHT
 40
0.08
  9
$LOFTANG1
 40
1.570796326795
  9
$LOFTANG2
 40
1.570796326795
  9
$LOFTMAG1
 40
0.0
  9
$LOFTMAG2
 40
0.0
  9
$LOFTPARAM
 70
7
  9
$LOFTNORMALS
280
1
  9
$LATITUDE
 40
37.795
  9
$LONGITUDE
 40
-122.394
  9
$NORTHDIRECTION
 40
0.0
  9
$TIMEZONE
 70
-8000
  9
$LIGHTGLYPHDISPLAY
280
1
  9
$TILEMODELIGHTSYNCH
280
1
  9
$CMATERIAL
347
20
  9
$SOLIDHIST
280
0
  9
$SHOWHIST
280
1
  9
$DWFFRAME
280
2
  9
$DGNFRAME
280
2
  9
$REALWORLDSCALE
290
1
  9
$INTERFERECOLOR
 62
256
  9
$CSHADOW
280
0
  9
$SHADOWPLANELOCATION
 40
0.0
  0
ENDSEC
  0
SECTION
  2
CLASSES
  0
CLASS
  1
ACDBDICTIONARYWDFLT
  2
AcDbDictionaryWithDefault
  3
ObjectDBX Classes
 90
0
 91
0
280
0
281
0
  0
CLASS
  1
SUN
  2
AcDbSun
  3
SCENEOE
 90
1153
 91
0
280
0
281
0
  0
CLASS
  1
VISUALSTYLE
  2
AcDbVisualStyle
  3
ObjectDBX Classes
 90
4095
 91
0
280
0
281
0
  0
CLASS
  1
MATERIAL
  2
AcDbMaterial
  3
ObjectDBX Classes
 90
1153
 91
0
280
0
281
0
  0
CLASS
  1
SCALE
  2
AcDbScale
  3
ObjectDBX Classes
 90
1153
 91
0
280
0
281
0
  0
CLASS
  1
TABLESTYLE
  2
AcDbTableStyle
  3
ObjectDBX Classes
 90
4095
 91
0
280
0
281
0
  0
CLASS
  1
MLEADERSTYLE
  2
AcDbMLeaderStyle
  3
ACDB_MLEADERSTYLE_CLASS
 90
4095
 91
0
280
0
281
0
  0
CLASS
  1
DICTIONARYVAR
  2
AcDbDictionaryVar
  3
ObjectDBX Classes
 90
0
 91
0
280
0
281
0
  0
CLASS
  1
CELLSTYLEMAP
  2
AcDbCellStyleMap
  3
ObjectDBX Classes
 90
1152
 91
0
280
0
281
0
  0
CLASS
  1
MENTALRAYRENDERSETTINGS
  2
AcDbMentalRayRenderSettings
  3
SCENEOE
 90
1024
 91
0
280
0
281
0
  0
CLASS
  1
ACDBDETAILVIEWSTYLE
  2
AcDbDetailViewStyle
  3
ObjectDBX Classes
 90
1025
 91
0
280
0
281
0
  0
CLASS
  1
ACDBSECTIONVIEWSTYLE
  2
AcDbSectionViewStyle
  3
ObjectDBX Classes
 90
1025
 91
0
280
0
281
0
  0
CLASS
  1
RASTERVARIABLES
  2
AcDbRasterVariables
  3
ISM
 90
0
 91
0
280
0
281
0
  0
CLASS
  1
ACDBPLACEHOLDER
  2
AcDbPlaceHolder
  3
ObjectDBX Classes
 90
0
 91
0
280
0
281
0
  0
CLASS
  1
LAYOUT
  2
AcDbLayout
  3
ObjectDBX Classes
 90
0
 91
0
280
0
281
0
  0
ENDSEC
  0
SECTION
  2
TABLES
  0
TABLE
  2
VPORT
  5
8
330
0
100
AcDbSymbolTable
 70
1
  0
VPORT
  5
23
330
8
100
AcDbSymbolTableRecord
100
AcDbViewportTableRecord
  2
*Active
 70
0
 10
0.0
 20
0.0
 11
1.0
 21
1.0
 12
0.0
 22
0.0
 13
0.0
 23
0.0
 14
0.5
 24
0.5
 15
0.5
 25
0.5
 16
0.0
 26
0.0
 36
1.0
 17
0.0
 27
0.0
 37
0.0
 40
1000.0
 41
1.34
 42
50.0
 43
0.0
 44
0.0
 50
0.0
 51
0.0
 71
0
 72
1000
 73
1
 74
3
 75
0
 76
0
 77
0
 78
0
281
0
 65
0
146
0.0
  0
ENDTAB
  0
TABLE
  2
LTYPE
  5
2
330
0
100
AcDbSymbolTable
 70
3
  0
LTYPE
  5
24
330
2
100
AcDbSymbolTableRecord
100
AcDbLinetypeTableRecord
  2
ByBlock
 70
0
  3

 72
65
 73
0
 40
0.0
  0
LTYPE
  5
25
330
2
100
AcDbSymbolTableRecord
100
AcDbLinetypeTableRecord
  2
ByLayer
 70
0
  3

 72
65
 73
0
 40
0.0
  0
LTYPE
  5
26
330
2
100
AcDbSymbolTableRecord
100
AcDbLinetypeTableRecord
  2
Continuous
 70
0
  3

 72
65
 73
0
 40
0.0
  0
ENDTAB
  0
TABLE
  2
LAYER
  5
1
330
0
100
AcDbSymbolTable
 70
9
  0
LAYER
  5
27
330
1
100
AcDbSymbolTableRecord
100
AcDbLayerTableRecord
  2
0
 70
0
 62
7
  6
Continuous
370
-3
390
13
347
21
  0
LAYER
  5
28
330
1
100
AcDbSymbolTableRecord
100
AcDbLayerTableRecord
  2
Defpoints
 70
0
 62
7
  6
Continuous
290
0
370
-3
390
13
347
21
  0
LAYER
  5
2F
330
1
100
AcDbSymbolTableRecord
100
AcDbLayerTableRecord
  2
SIMBOLOS_DGE
 70
0
 62
2
  6
Continuous
370
25
390
13
347
21
  0
LAYER
  5
30
330
1
100
AcDbSymbolTableRecord
100
AcDbLayerTableRecord
  2
TEXTOS_CODIGOS
 70
0
 62
1
  6
Continuous
370
18
390
13
347
21
  0
LAYER
  5
31
330
1
100
AcDbSymbolTableRecord
100
AcDbLayerTableRecord
  2
TEXTOS_NOMBRES
 70
0
 62
7
  6
Continuous
370
13
390
13
347
21
  0
LAYER
  5
32
330
1
100
AcDbSymbolTableRecord
100
AcDbLayerTableRecord
  2
CELDAS_GUIA
 70
0
 62
8
  6
Continuous
370
9
390
13
347
21
  0
LAYER
  5
33
330
1
100
AcDbSymbolTableRecord
100
AcDbLayerTableRecord
  2
OBSERVACIONES
 70
0
 62
9
  6
Continuous
370
9
390
13
347
21
  0
LAYER
  5
34
330
1
100
AcDbSymbolTableRecord
100
AcDbLayerTableRecord
  2
TITULOS
 70
0
 62
4
  6
Continuous
370
30
390
13
347
21
  0
LAYER
  5
35
330
1
100
AcDbSymbolTableRecord
100
AcDbLayerTableRecord
  2
MARCOS
 70
0
 62
7
  6
Continuous
370
35
390
13
347
21
  0
ENDTAB
  0
TABLE
  2
STYLE
  5
5
330
0
100
AcDbSymbolTable
 70
1
  0
STYLE
  5
29
330
5
100
AcDbSymbolTableRecord
100
AcDbTextStyleTableRecord
  2
Standard
 70
0
 40
0.0
 41
1.0
 50
0.0
 71
0
 42
2.5
  3
txt
  4

  0
ENDTAB
  0
TABLE
  2
VIEW
  5
7
330
0
100
AcDbSymbolTable
 70
0
  0
ENDTAB
  0
TABLE
  2
UCS
  5
6
330
0
100
AcDbSymbolTable
 70
0
  0
ENDTAB
  0
TABLE
  2
APPID
  5
3
330
0
100
AcDbSymbolTable
 70
3
  0
APPID
  5
2A
330
3
100
AcDbSymbolTableRecord
100
AcDbRegAppTableRecord
  2
ACAD
 70
0
  0
APPID
  5
42E
330
3
100
AcDbSymbolTableRecord
100
AcDbRegAppTableRecord
  2
HATCHBACKGROUNDCOLOR
 70
0
  0
APPID
  5
42F
330
3
100
AcDbSymbolTableRecord
100
AcDbRegAppTableRecord
  2
EZDXF
 70
0
  0
ENDTAB
  0
TABLE
  2
DIMSTYLE
  5
4
330
0
100
AcDbSymbolTable
 70
1
100
AcDbDimStyleTable
  0
DIMSTYLE
105
2B
330
4
100
AcDbSymbolTableRecord
100
AcDbDimStyleTableRecord
  2
Standard
 70
0
 40
1.0
 41
2.5
 42
0.625
 43
3.75
 44
1.25
 45
0.0
 46
0.0
 47
0.0
 48
0.0
 49
2.5
140
2.5
141
2.5
142
0.0
143
0.03937007874
144
1.0
145
0.0
146
1.0
147
0.625
148
0.0
 69
0
 70
0
 71
0
 72
0
 73
0
 74
0
 75
0
 76
0
 77
1
 78
8
 79
3
170
0
171
3
172
1
173
0
174
0
175
0
176
0
177
0
178
0
179
2
271
2
272
2
273
2
274
3
275
0
276
0
277
2
278
44
279
0
280
0
281
0
282
0
283
0
284
8
285
0
286
0
288
0
289
3
290
0
371
-2
372
-2
  0
ENDTAB
  0
TABLE
  2
BLOCK_RECORD
  5
9
330
0
100
AcDbSymbolTable
 70
72
  0
BLOCK_RECORD
  5
17
330
9
100
AcDbSymbolTableRecord
100
AcDbBlockTableRecord
  2
*Model_Space
340
1A
 70
0
280
1
281
0
  0
BLOCK_RECORD
  5
1B
330
9
100
AcDbSymbolTableRecord
100
AcDbBlockTableRecord
  2
*Paper_Space
340
1E
 70
0
280
1
281
0
  0
BLOCK_RECORD
  5
38
330
9
100
AcDbSymbolTableRecord
100
AcDbBlockTableRecord
  2
DGE_09_90_04_CENTRAL_HIDROELECTRICA
340
0
 70
0
280
1
281
0
  0
BLOCK_RECORD
  5
4B
330
9
100
AcDbSymbolTableRecord
100
AcDbBlockTableRecord
  2
DGE_09_90_06_CENTRAL_TERMOELECTRICA
340
0
 70
0
280
1
281
0
  0
BLOCK_RECORD
  5
5C
330
9
100
AcDbSymbolTableRecord
100
AcDbBlockTableRecord
  2
DGE_09_90_08_CENTRAL_NUCLEAR
340
0
 70
0
280
1
281
0
  0
BLOCK_RECORD
  5
6D
330
9
100
AcDbSymbolTableRecord
100
AcDbBlockTableRecord
  2
DGE_09_90_10_SUBESTACION_DE_CASETA
340
0
 70
0
280
1
281
0
  0
BLOCK_RECORD
  5
7D
330
9
100
AcDbSymbolTableRecord
100
AcDbBlockTableRecord
  2
DGE_09_90_12_SUBESTACION_MONOPOSTE
340
0
 70
0
280
1
281
0
  0
BLOCK_RECORD
  5
8F
330
9
100
AcDbSymbolTableRecord
100
AcDbBlockTableRecord
  2
DGE_09_90_14_SUBESTACION_BIPOSTE
340
0
 70
0
280
1
281
0
  0
BLOCK_RECORD
  5
A2
330
9
100
AcDbSymbolTableRecord
100
AcDbBlockTableRecord
  2
DGE_09_90_22_CENTRAL_SOLAR
340
0
 70
0
280
1
281
0
  0
BLOCK_RECORD
  5
B8
330
9
100
AcDbSymbolTableRecord
100
AcDbBlockTableRecord
  2
DGE_09_90_24_CENTRAL_EOLICA
340
0
 70
0
280
1
281
0
  0
BLOCK_RECORD
  5
C8
330
9
100
AcDbSymbolTableRecord
100
AcDbBlockTableRecord
  2
DGE_09_91_01_LINEA_EN_CONDUCTO
340
0
 70
0
280
1
281
0
  0
BLOCK_RECORD
  5
D4
330
9
100
AcDbSymbolTableRecord
100
AcDbBlockTableRecord
  2
DGE_09_91_03_LINEA_GENERAL
340
0
 70
0
280
1
281
0
  0
BLOCK_RECORD
  5
DF
330
9
100
AcDbSymbolTableRecord
100
AcDbBlockTableRecord
  2
DGE_09_91_04_LINEA_SUBTERRANEA
340
0
 70
0
280
1
281
0
  0
BLOCK_RECORD
  5
EC
330
9
100
AcDbSymbolTableRecord
100
AcDbBlockTableRecord
  2
DGE_09_91_05_LINEA_PASANTE_CAMARA
340
0
 70
0
280
1
281
0
  0
BLOCK_RECORD
  5
F8
330
9
100
AcDbSymbolTableRecord
100
AcDbBlockTableRecord
  2
DGE_09_91_07_LINEA_CON_VALVULA
340
0
 70
0
280
1
281
0
  0
BLOCK_RECORD
  5
109
330
9
100
AcDbSymbolTableRecord
100
AcDbBlockTableRecord
  2
DGE_09_91_15_ANODO_PROTECCION
340
0
 70
0
280
1
281
0
  0
BLOCK_RECORD
  5
118
330
9
100
AcDbSymbolTableRecord
100
AcDbBlockTableRecord
  2
DGE_09_91_18_RETENIDA_INCLINADA
340
0
 70
0
280
1
281
0
  0
BLOCK_RECORD
  5
125
330
9
100
AcDbSymbolTableRecord
100
AcDbBlockTableRecord
  2
DGE_09_91_19_RETENIDA_VERTICAL
340
0
 70
0
280
1
281
0
  0
BLOCK_RECORD
  5
131
330
9
100
AcDbSymbolTableRecord
100
AcDbBlockTableRecord
  2
DGE_09_91_20_POSTE_CONCRETO
340
0
 70
0
280
1
281
0
  0
BLOCK_RECORD
  5
13C
330
9
100
AcDbSymbolTableRecord
100
AcDbBlockTableRecord
  2
DGE_09_91_21_POSTE_MADERA
340
0
 70
0
280
1
281
0
  0
BLOCK_RECORD
  5
149
330
9
100
AcDbSymbolTableRecord
100
AcDbBlockTableRecord
  2
DGE_09_91_22_POSTE_METALICO
340
0
 70
0
280
1
281
0
  0
BLOCK_RECORD
  5
159
330
9
100
AcDbSymbolTableRecord
100
AcDbBlockTableRecord
  2
DGE_09_91_23_TORRE_ELECTRICA
340
0
 70
0
280
1
281
0
  0
BLOCK_RECORD
  5
166
330
9
100
AcDbSymbolTableRecord
100
AcDbBlockTableRecord
  2
DGE_09_91_16_PANEL_DISTRIBUCION
340
0
 70
0
280
1
281
0
  0
BLOCK_RECORD
  5
176
330
9
100
AcDbSymbolTableRecord
100
AcDbBlockTableRecord
  2
DGE_09_91_17_TABLERO_EMPOTRADO
340
0
 70
0
280
1
281
0
  0
BLOCK_RECORD
  5
187
330
9
100
AcDbSymbolTableRecord
100
AcDbBlockTableRecord
  2
DGE_09_93_08_CAJA_PASO
340
0
 70
0
280
1
281
0
  0
BLOCK_RECORD
  5
191
330
9
100
AcDbSymbolTableRecord
100
AcDbBlockTableRecord
  2
DGE_09_93_09_CAJA_DERIVACION
340
0
 70
0
280
1
281
0
  0
BLOCK_RECORD
  5
19E
330
9
100
AcDbSymbolTableRecord
100
AcDbBlockTableRecord
  2
DGE_09_93_11_CENTRO_DISTRIBUCION
340
0
 70
0
280
1
281
0
  0
BLOCK_RECORD
  5
1B0
330
9
100
AcDbSymbolTableRecord
100
AcDbBlockTableRecord
  2
DGE_09_92_01_ATENUADOR
340
0
 70
0
280
1
281
0
  0
BLOCK_RECORD
  5
1BF
330
9
100
AcDbSymbolTableRecord
100
AcDbBlockTableRecord
  2
DGE_09_93_01_NEUTRO
340
0
 70
0
280
1
281
0
  0
BLOCK_RECORD
  5
1CB
330
9
100
AcDbSymbolTableRecord
100
AcDbBlockTableRecord
  2
DGE_09_93_02_TIERRA_CONDUCTOR
340
0
 70
0
280
1
281
0
  0
BLOCK_RECORD
  5
1D7
330
9
100
AcDbSymbolTableRecord
100
AcDbBlockTableRecord
  2
DGE_09_93_03_CONDUCTOR_COMBINADO
340
0
 70
0
280
1
281
0
  0
BLOCK_RECORD
  5
1E6
330
9
100
AcDbSymbolTableRecord
100
AcDbBlockTableRecord
  2
DGE_09_93_05_CANALIZACION_SUBE
340
0
 70
0
280
1
281
0
  0
BLOCK_RECORD
  5
1F4
330
9
100
AcDbSymbolTableRecord
100
AcDbBlockTableRecord
  2
DGE_09_93_06_CANALIZACION_BAJA
340
0
 70
0
280
1
281
0
  0
BLOCK_RECORD
  5
203
330
9
100
AcDbSymbolTableRecord
100
AcDbBlockTableRecord
  2
DGE_09_93_13_TOMACORRIENTE_MONOFASICO
340
0
 70
0
280
1
281
0
  0
BLOCK_RECORD
  5
20F
330
9
100
AcDbSymbolTableRecord
100
AcDbBlockTableRecord
  2
DGE_09_93_14_TOMACORRIENTE_PISO
340
0
 70
0
280
1
281
0
  0
BLOCK_RECORD
  5
21D
330
9
100
AcDbSymbolTableRecord
100
AcDbBlockTableRecord
  2
DGE_09_93_15_TOMACORRIENTE_TRIFASICO
340
0
 70
0
280
1
281
0
  0
BLOCK_RECORD
  5
22A
330
9
100
AcDbSymbolTableRecord
100
AcDbBlockTableRecord
  2
DGE_09_93_17_TOMACORRIENTE_TIERRA
340
0
 70
0
280
1
281
0
  0
BLOCK_RECORD
  5
238
330
9
100
AcDbSymbolTableRecord
100
AcDbBlockTableRecord
  2
DGE_09_93_18_SALIDA_COCINA
340
0
 70
0
280
1
281
0
  0
BLOCK_RECORD
  5
246
330
9
100
AcDbSymbolTableRecord
100
AcDbBlockTableRecord
  2
DGE_09_93_19_TOMACORRIENTE_AGUA
340
0
 70
0
280
1
281
0
  0
BLOCK_RECORD
  5
254
330
9
100
AcDbSymbolTableRecord
100
AcDbBlockTableRecord
  2
DGE_09_93_20_TOMACORRIENTE_MULTIPLE
340
0
 70
0
280
1
281
0
  0
BLOCK_RECORD
  5
263
330
9
100
AcDbSymbolTableRecord
100
AcDbBlockTableRecord
  2
DGE_09_93_22_TOMACORRIENTE_PROTECCION
340
0
 70
0
280
1
281
0
  0
BLOCK_RECORD
  5
271
330
9
100
AcDbSymbolTableRecord
100
AcDbBlockTableRecord
  2
DGE_09_93_24_TOMACORRIENTE_INTERRUPTOR
340
0
 70
0
280
1
281
0
  0
BLOCK_RECORD
  5
27F
330
9
100
AcDbSymbolTableRecord
100
AcDbBlockTableRecord
  2
DGE_09_93_26_TOMACORRIENTE_TRANSFORMADOR
340
0
 70
0
280
1
281
0
  0
BLOCK_RECORD
  5
28F
330
9
100
AcDbSymbolTableRecord
100
AcDbBlockTableRecord
  2
DGE_09_93_27_TELEFONO
340
0
 70
0
280
1
281
0
  0
BLOCK_RECORD
  5
29E
330
9
100
AcDbSymbolTableRecord
100
AcDbBlockTableRecord
  2
DGE_09_93_27_TV
340
0
 70
0
280
1
281
0
  0
BLOCK_RECORD
  5
2AD
330
9
100
AcDbSymbolTableRecord
100
AcDbBlockTableRecord
  2
DGE_09_93_73_INTERFONO
340
0
 70
0
280
1
281
0
  0
BLOCK_RECORD
  5
2BF
330
9
100
AcDbSymbolTableRecord
100
AcDbBlockTableRecord
  2
DGE_09_93_28_INTERRUPTOR
340
0
 70
0
280
1
281
0
  0
BLOCK_RECORD
  5
2CB
330
9
100
AcDbSymbolTableRecord
100
AcDbBlockTableRecord
  2
DGE_09_93_29_INTERRUPTOR_PILOTO
340
0
 70
0
280
1
281
0
  0
BLOCK_RECORD
  5
2D8
330
9
100
AcDbSymbolTableRecord
100
AcDbBlockTableRecord
  2
DGE_09_93_30_INTERRUPTOR_UNIPOLAR
340
0
 70
0
280
1
281
0
  0
BLOCK_RECORD
  5
2E5
330
9
100
AcDbSymbolTableRecord
100
AcDbBlockTableRecord
  2
DGE_09_93_31_INTERRUPTOR_BIPOLAR
340
0
 70
0
280
1
281
0
  0
BLOCK_RECORD
  5
2F2
330
9
100
AcDbSymbolTableRecord
100
AcDbBlockTableRecord
  2
DGE_09_93_32_INTERRUPTOR_CONMUTADO
340
0
 70
0
280
1
281
0
  0
BLOCK_RECORD
  5
2FF
330
9
100
AcDbSymbolTableRecord
100
AcDbBlockTableRecord
  2
DGE_09_93_34_CONMUTADOR_UNIPOLAR
340
0
 70
0
280
1
281
0
  0
BLOCK_RECORD
  5
30C
330
9
100
AcDbSymbolTableRecord
100
AcDbBlockTableRecord
  2
DGE_09_93_36_CONMUTADOR_INTERMEDIO
340
0
 70
0
280
1
281
0
  0
BLOCK_RECORD
  5
31F
330
9
100
AcDbSymbolTableRecord
100
AcDbBlockTableRecord
  2
DGE_09_93_37_DIMMER
340
0
 70
0
280
1
281
0
  0
BLOCK_RECORD
  5
32C
330
9
100
AcDbSymbolTableRecord
100
AcDbBlockTableRecord
  2
DGE_09_93_38_INTERRUPTOR_TIRADOR
340
0
 70
0
280
1
281
0
  0
BLOCK_RECORD
  5
33B
330
9
100
AcDbSymbolTableRecord
100
AcDbBlockTableRecord
  2
DGE_09_93_47_INTERRUPTOR_HORARIO
340
0
 70
0
280
1
281
0
  0
BLOCK_RECORD
  5
34E
330
9
100
AcDbSymbolTableRecord
100
AcDbBlockTableRecord
  2
DGE_09_93_49_TOMA_ILUMINACION_TECHO
340
0
 70
0
280
1
281
0
  0
BLOCK_RECORD
  5
35B
330
9
100
AcDbSymbolTableRecord
100
AcDbBlockTableRecord
  2
DGE_09_93_50_TOMA_ILUMINACION_PARED
340
0
 70
0
280
1
281
0
  0
BLOCK_RECORD
  5
368
330
9
100
AcDbSymbolTableRecord
100
AcDbBlockTableRecord
  2
DGE_09_93_51_SALIDA_TECHO
340
0
 70
0
280
1
281
0
  0
BLOCK_RECORD
  5
379
330
9
100
AcDbSymbolTableRecord
100
AcDbBlockTableRecord
  2
DGE_09_93_52_SALIDA_PARED
340
0
 70
0
280
1
281
0
  0
BLOCK_RECORD
  5
38C
330
9
100
AcDbSymbolTableRecord
100
AcDbBlockTableRecord
  2
DGE_09_93_53_SPOT_EMPOTRADO
340
0
 70
0
280
1
281
0
  0
BLOCK_RECORD
  5
39B
330
9
100
AcDbSymbolTableRecord
100
AcDbBlockTableRecord
  2
DGE_09_93_55_FLUORESCENTE_TECHO
340
0
 70
0
280
1
281
0
  0
BLOCK_RECORD
  5
3A7
330
9
100
AcDbSymbolTableRecord
100
AcDbBlockTableRecord
  2
DGE_09_93_56_FLUORESCENTE_EMPOTRADO
340
0
 70
0
280
1
281
0
  0
BLOCK_RECORD
  5
3B4
330
9
100
AcDbSymbolTableRecord
100
AcDbBlockTableRecord
  2
DGE_09_93_59_LAMPARA
340
0
 70
0
280
1
281
0
  0
BLOCK_RECORD
  5
3C0
330
9
100
AcDbSymbolTableRecord
100
AcDbBlockTableRecord
  2
DGE_09_93_60_LUMINARIA_G
340
0
 70
0
280
1
281
0
  0
BLOCK_RECORD
  5
3CC
330
9
100
AcDbSymbolTableRecord
100
AcDbBlockTableRecord
  2
DGE_09_93_61_LUMINARIA_TRIPLE
340
0
 70
0
280
1
281
0
  0
BLOCK_RECORD
  5
3DB
330
9
100
AcDbSymbolTableRecord
100
AcDbBlockTableRecord
  2
DGE_09_93_63_REFLECTOR
340
0
 70
0
280
1
281
0
  0
BLOCK_RECORD
  5
3E8
330
9
100
AcDbSymbolTableRecord
100
AcDbBlockTableRecord
  2
DGE_09_93_67_LUZ_EMERGENCIA
340
0
 70
0
280
1
281
0
  0
BLOCK_RECORD
  5
3F4
330
9
100
AcDbSymbolTableRecord
100
AcDbBlockTableRecord
  2
DGE_09_93_68_BLOQUE_EMERGENCIA
340
0
 70
0
280
1
281
0
  0
BLOCK_RECORD
  5
402
330
9
100
AcDbSymbolTableRecord
100
AcDbBlockTableRecord
  2
DGE_09_93_69_TERMA
340
0
 70
0
280
1
281
0
  0
BLOCK_RECORD
  5
412
330
9
100
AcDbSymbolTableRecord
100
AcDbBlockTableRecord
  2
DGE_09_93_70_VENTILADOR
340
0
 70
0
280
1
281
0
  0
BLOCK_RECORD
  5
41E
330
9
100
AcDbSymbolTableRecord
100
AcDbBlockTableRecord
  2
DGE_09_93_72_CERRADURA
340
0
 70
0
280
1
281
0
  0
ENDTAB
  0
ENDSEC
  0
SECTION
  2
BLOCKS
  0
BLOCK
  5
18
330
17
100
AcDbEntity
  8
0
100
AcDbBlockBegin
  2
*Model_Space
 70
0
 10
0.0
 20
0.0
 30
0.0
  3
*Model_Space
  1

  0
ENDBLK
  5
19
330
17
100
AcDbEntity
  8
0
100
AcDbBlockEnd
  0
BLOCK
  5
1C
330
1B
100
AcDbEntity
  8
0
100
AcDbBlockBegin
  2
*Paper_Space
 70
0
 10
0.0
 20
0.0
 30
0.0
  3
*Paper_Space
  1

  0
ENDBLK
  5
1D
330
1B
100
AcDbEntity
  8
0
100
AcDbBlockEnd
  0
BLOCK
  5
39
330
38
100
AcDbEntity
  8
0
100
AcDbBlockBegin
  2
DGE_09_90_04_CENTRAL_HIDROELECTRICA
 70
0
 10
0.0
 20
0.0
 30
0.0
  3
DGE_09_90_04_CENTRAL_HIDROELECTRICA
  1

  0
LWPOLYLINE
  5
3B
330
38
100
AcDbEntity
  8
SIMBOLOS_DGE
100
AcDbPolyline
 90
5
 70
0
 10
-0.2
 20
-0.2
 10
0.2
 20
-0.2
 10
0.2
 20
0.2
 10
-0.2
 20
0.2
 10
-0.2
 20
-0.2
  0
LINE
  5
3C
330
38
100
AcDbEntity
  8
SIMBOLOS_DGE
100
AcDbLine
 10
-0.2
 20
-0.2
 30
0.0
 11
0.2
 21
0.2
 31
0.0
  0
LINE
  5
3D
330
38
100
AcDbEntity
  8
SIMBOLOS_DGE
100
AcDbLine
 10
-0.2
 20
-0.15
 30
0.0
 11
-0.15
 21
-0.15
 31
0.0
  0
LINE
  5
3E
330
38
100
AcDbEntity
  8
SIMBOLOS_DGE
100
AcDbLine
 10
-0.2
 20
-0.1
 30
0.0
 11
-0.1
 21
-0.1
 31
0.0
  0
LINE
  5
3F
330
38
100
AcDbEntity
  8
SIMBOLOS_DGE
100
AcDbLine
 10
-0.2
 20
-0.05
 30
0.0
 11
-0.05
 21
-0.05
 31
0.0
  0
LINE
  5
40
330
38
100
AcDbEntity
  8
SIMBOLOS_DGE
100
AcDbLine
 10
-0.2
 20
0.0
 30
0.0
 11
0.0
 21
0.0
 31
0.0
  0
LINE
  5
41
330
38
100
AcDbEntity
  8
SIMBOLOS_DGE
100
AcDbLine
 10
-0.2
 20
0.05
 30
0.0
 11
0.05
 21
0.05
 31
0.0
  0
LINE
  5
42
330
38
100
AcDbEntity
  8
SIMBOLOS_DGE
100
AcDbLine
 10
-0.2
 20
0.1
 30
0.0
 11
0.1
 21
0.1
 31
0.0
  0
LINE
  5
43
330
38
100
AcDbEntity
  8
SIMBOLOS_DGE
100
AcDbLine
 10
-0.2
 20
0.15
 30
0.0
 11
0.15
 21
0.15
 31
0.0
  0
ENDBLK
  5
3A
330
38
100
AcDbEntity
  8
0
100
AcDbBlockEnd
  0
BLOCK
  5
4C
330
4B
100
AcDbEntity
  8
0
100
AcDbBlockBegin
  2
DGE_09_90_06_CENTRAL_TERMOELECTRICA
 70
0
 10
0.0
 20
0.0
 30
0.0
  3
DGE_09_90_06_CENTRAL_TERMOELECTRICA
  1

  0
LWPOLYLINE
  5
4E
330
4B
100
AcDbEntity
  8
SIMBOLOS_DGE
100
AcDbPolyline
 90
5
 70
0
 10
-0.2
 20
-0.2
 10
0.2
 20
-0.2
 10
0.2
 20
0.2
 10
-0.2
 20
0.2
 10
-0.2
 20
-0.2
  0
LINE
  5
4F
330
4B
100
AcDbEntity
  8
SIMBOLOS_DGE
100
AcDbLine
 10
-0.2
 20
0.0
 30
0.0
 11
0.2
 21
0.0
 31
0.0
  0
LINE
  5
50
330
4B
100
AcDbEntity
  8
SIMBOLOS_DGE
100
AcDbLine
 10
-0.2
 20
-0.2
 30
0.0
 11
0.0
 21
0.0
 31
0.0
  0
LINE
  5
51
330
4B
100
AcDbEntity
  8
SIMBOLOS_DGE
100
AcDbLine
 10
-0.1
 20
-0.2
 30
0.0
 11
0.1
 21
0.0
 31
0.0
  0
LINE
  5
52
330
4B
100
AcDbEntity
  8
SIMBOLOS_DGE
100
AcDbLine
 10
0.0
 20
-0.2
 30
0.0
 11
0.2
 21
0.0
 31
0.0
  0
LINE
  5
53
330
4B
100
AcDbEntity
  8
SIMBOLOS_DGE
100
AcDbLine
 10
0.1
 20
-0.2
 30
0.0
 11
0.2
 21
-0.1
 31
0.0
  0
LINE
  5
54
330
4B
100
AcDbEntity
  8
SIMBOLOS_DGE
100
AcDbLine
 10
-0.2
 20
-0.1
 30
0.0
 11
-0.1
 21
0.0
 31
0.0
  0
ENDBLK
  5
4D
330
4B
100
AcDbEntity
  8
0
100
AcDbBlockEnd
  0
BLOCK
  5
5D
330
5C
100
AcDbEntity
  8
0
100
AcDbBlockBegin
  2
DGE_09_90_08_CENTRAL_NUCLEAR
 70
0
 10
0.0
 20
0.0
 30
0.0
  3
DGE_09_90_08_CENTRAL_NUCLEAR
  1

  0
LWPOLYLINE
  5
5F
330
5C
100
AcDbEntity
  8
SIMBOLOS_DGE
100
AcDbPolyline
 90
5
 70
0
 10
-0.2
 20
-0.2
 10
0.2
 20
-0.2
 10
0.2
 20
0.2
 10
-0.2
 20
0.2
 10
-0.2
 20
-0.2
  0
CIRCLE
  5
60
330
5C
100
AcDbEntity
  8
SIMBOLOS_DGE
100
AcDbCircle
 10
0.0
 20
0.0
 30
0.0
 40
0.14
  0
LINE
  5
61
330
5C
100
AcDbEntity
  8
SIMBOLOS_DGE
100
AcDbLine
 10
-0.1
 20
-0.1
 30
0.0
 11
0.1
 21
0.1
 31
0.0
  0
LINE
  5
62
330
5C
100
AcDbEntity
  8
SIMBOLOS_DGE
100
AcDbLine
 10
-0.12
 20
-0.05
 30
0.0
 11
0.05
 21
0.12
 31
0.0
  0
LINE
  5
63
330
5C
100
AcDbEntity
  8
SIMBOLOS_DGE
100
AcDbLine
 10
-0.05
 20
-0.12
 30
0.0
 11
0.12
 21
0.05
 31
0.0
  0
LINE
  5
64
330
5C
100
AcDbEntity
  8
SIMBOLOS_DGE
100
AcDbLine
 10
-0.12
 20
0.05
 30
0.0
 11
-0.05
 21
0.12
 31
0.0
  0
LINE
  5
65
330
5C
100
AcDbEntity
  8
SIMBOLOS_DGE
100
AcDbLine
 10
0.05
 20
-0.12
 30
0.0
 11
0.12
 21
-0.05
 31
0.0
  0
ENDBLK
  5
5E
330
5C
100
AcDbEntity
  8
0
100
AcDbBlockEnd
  0
BLOCK
  5
6E
330
6D
100
AcDbEntity
  8
0
100
AcDbBlockBegin
  2
DGE_09_90_10_SUBESTACION_DE_CASETA
 70
0
 10
0.0
 20
0.0
 30
0.0
  3
DGE_09_90_10_SUBESTACION_DE_CASETA
  1

  0
LWPOLYLINE
  5
70
330
6D
100
AcDbEntity
  8
SIMBOLOS_DGE
100
AcDbPolyline
 90
5
 70
0
 10
-0.2
 20
-0.2
 10
0.2
 20
-0.2
 10
0.2
 20
0.2
 10
-0.2
 20
0.2
 10
-0.2
 20
-0.2
  0
LINE
  5
71
330
6D
100
AcDbEntity
  8
SIMBOLOS_DGE
100
AcDbLine
 10
-0.2
 20
0.2
 30
0.0
 11
0.2
 21
-0.2
 31
0.0
  0
LINE
  5
72
330
6D
100
AcDbEntity
  8
SIMBOLOS_DGE
100
AcDbLine
 10
-0.1
 20
-0.1
 30
0.0
 11
0.2
 21
0.2
 31
0.0
  0
LINE
  5
73
330
6D
100
AcDbEntity
  8
SIMBOLOS_DGE
100
AcDbLine
 10
0.0
 20
-0.2
 30
0.0
 11
0.2
 21
0.0
 31
0.0
  0
LINE
  5
74
330
6D
100
AcDbEntity
  8
SIMBOLOS_DGE
100
AcDbLine
 10
0.1
 20
-0.2
 30
0.0
 11
0.2
 21
-0.1
 31
0.0
  0
LINE
  5
75
330
6D
100
AcDbEntity
  8
SIMBOLOS_DGE
100
AcDbLine
 10
-0.1
 20
-0.2
 30
0.0
 11
0.2
 21
0.1
 31
0.0
  0
ENDBLK
  5
6F
330
6D
100
AcDbEntity
  8
0
100
AcDbBlockEnd
  0
BLOCK
  5
7E
330
7D
100
AcDbEntity
  8
0
100
AcDbBlockBegin
  2
DGE_09_90_12_SUBESTACION_MONOPOSTE
 70
0
 10
0.0
 20
0.0
 30
0.0
  3
DGE_09_90_12_SUBESTACION_MONOPOSTE
  1

  0
LINE
  5
80
330
7D
100
AcDbEntity
  8
SIMBOLOS_DGE
100
AcDbLine
 10
-0.2
 20
-0.05
 30
0.0
 11
0.2
 21
-0.05
 31
0.0
  0
LINE
  5
81
330
7D
100
AcDbEntity
  8
SIMBOLOS_DGE
100
AcDbLine
 10
-0.2
 20
-0.05
 30
0.0
 11
0.0
 21
0.25
 31
0.0
  0
LINE
  5
82
330
7D
100
AcDbEntity
  8
SIMBOLOS_DGE
100
AcDbLine
 10
0.0
 20
0.25
 30
0.0
 11
0.2
 21
-0.05
 31
0.0
  0
CIRCLE
  5
83
330
7D
100
AcDbEntity
  8
SIMBOLOS_DGE
100
AcDbCircle
 10
0.0
 20
-0.12
 30
0.0
 40
0.07
  0
LINE
  5
84
330
7D
100
AcDbEntity
  8
SIMBOLOS_DGE
100
AcDbLine
 10
-0.15
 20
0.0
 30
0.0
 11
0.15
 21
0.0
 31
0.0
  0
LINE
  5
85
330
7D
100
AcDbEntity
  8
SIMBOLOS_DGE
100
AcDbLine
 10
-0.1
 20
0.05
 30
0.0
 11
0.1
 21
0.05
 31
0.0
  0
LINE
  5
86
330
7D
100
AcDbEntity
  8
SIMBOLOS_DGE
100
AcDbLine
 10
-0.05
 20
0.1
 30
0.0
 11
0.05
 21
0.1
 31
0.0
  0
LINE
  5
87
330
7D
100
AcDbEntity
  8
SIMBOLOS_DGE
100
AcDbLine
 10
-0.02
 20
0.15
 30
0.0
 11
0.02
 21
0.15
 31
0.0
  0
ENDBLK
  5
7F
330
7D
100
AcDbEntity
  8
0
100
AcDbBlockEnd
  0
BLOCK
  5
90
330
8F
100
AcDbEntity
  8
0
100
AcDbBlockBegin
  2
DGE_09_90_14_SUBESTACION_BIPOSTE
 70
0
 10
0.0
 20
0.0
 30
0.0
  3
DGE_09_90_14_SUBESTACION_BIPOSTE
  1

  0
LINE
  5
92
330
8F
100
AcDbEntity
  8
SIMBOLOS_DGE
100
AcDbLine
 10
-0.2
 20
-0.05
 30
0.0
 11
0.2
 21
-0.05
 31
0.0
  0
LINE
  5
93
330
8F
100
AcDbEntity
  8
SIMBOLOS_DGE
100
AcDbLine
 10
-0.2
 20
-0.05
 30
0.0
 11
0.0
 21
0.25
 31
0.0
  0
LINE
  5
94
330
8F
100
AcDbEntity
  8
SIMBOLOS_DGE
100
AcDbLine
 10
0.0
 20
0.25
 30
0.0
 11
0.2
 21
-0.05
 31
0.0
  0
CIRCLE
  5
95
330
8F
100
AcDbEntity
  8
SIMBOLOS_DGE
100
AcDbCircle
 10
-0.09
 20
-0.12
 30
0.0
 40
0.07
  0
CIRCLE
  5
96
330
8F
100
AcDbEntity
  8
SIMBOLOS_DGE
100
AcDbCircle
 10
0.09
 20
-0.12
 30
0.0
 40
0.07
  0
LINE
  5
97
330
8F
100
AcDbEntity
  8
SIMBOLOS_DGE
100
AcDbLine
 10
-0.15
 20
0.0
 30
0.0
 11
0.15
 21
0.0
 31
0.0
  0
LINE
  5
98
330
8F
100
AcDbEntity
  8
SIMBOLOS_DGE
100
AcDbLine
 10
-0.1
 20
0.05
 30
0.0
 11
0.1
 21
0.05
 31
0.0
  0
LINE
  5
99
330
8F
100
AcDbEntity
  8
SIMBOLOS_DGE
100
AcDbLine
 10
-0.05
 20
0.1
 30
0.0
 11
0.05
 21
0.1
 31
0.0
  0
LINE
  5
9A
330
8F
100
AcDbEntity
  8
SIMBOLOS_DGE
100
AcDbLine
 10
-0.02
 20
0.15
 30
0.0
 11
0.02
 21
0.15
 31
0.0
  0
ENDBLK
  5
91
330
8F
100
AcDbEntity
  8
0
100
AcDbBlockEnd
  0
BLOCK
  5
A3
330
A2
100
AcDbEntity
  8
0
100
AcDbBlockBegin
  2
DGE_09_90_22_CENTRAL_SOLAR
 70
0
 10
0.0
 20
0.0
 30
0.0
  3
DGE_09_90_22_CENTRAL_SOLAR
  1

  0
LWPOLYLINE
  5
A5
330
A2
100
AcDbEntity
  8
SIMBOLOS_DGE
100
AcDbPolyline
 90
5
 70
0
 10
-0.2
 20
-0.2
 10
0.2
 20
-0.2
 10
0.2
 20
0.2
 10
-0.2
 20
0.2
 10
-0.2
 20
-0.2
  0
LINE
  5
A6
330
A2
100
AcDbEntity
  8
SIMBOLOS_DGE
100
AcDbLine
 10
-0.2
 20
0.0
 30
0.0
 11
0.2
 21
0.0
 31
0.0
  0
LINE
  5
A7
330
A2
100
AcDbEntity
  8
SIMBOLOS_DGE
100
AcDbLine
 10
-0.2
 20
-0.2
 30
0.0
 11
0.0
 21
0.0
 31
0.0
  0
LINE
  5
A8
330
A2
100
AcDbEntity
  8
SIMBOLOS_DGE
100
AcDbLine
 10
-0.1
 20
-0.2
 30
0.0
 11
0.1
 21
0.0
 31
0.0
  0
LINE
  5
A9
330
A2
100
AcDbEntity
  8
SIMBOLOS_DGE
100
AcDbLine
 10
0.0
 20
-0.2
 30
0.0
 11
0.2
 21
0.0
 31
0.0
  0
LINE
  5
AA
330
A2
100
AcDbEntity
  8
SIMBOLOS_DGE
100
AcDbLine
 10
0.1
 20
-0.2
 30
0.0
 11
0.2
 21
-0.1
 31
0.0
  0
LINE
  5
AB
330
A2
100
AcDbEntity
  8
SIMBOLOS_DGE
100
AcDbLine
 10
-0.2
 20
-0.1
 30
0.0
 11
-0.1
 21
0.0
 31
0.0
  0
LINE
  5
AC
330
A2
100
AcDbEntity
  8
SIMBOLOS_DGE
100
AcDbLine
 10
-0.1
 20
0.15
 30
0.0
 11
0.0
 21
0.05
 31
0.0
  0
LINE
  5
AD
330
A2
100
AcDbEntity
  8
SIMBOLOS_DGE
100
AcDbLine
 10
-0.05
 20
0.05
 30
0.0
 11
0.0
 21
0.05
 31
0.0
  0
LINE
  5
AE
330
A2
100
AcDbEntity
  8
SIMBOLOS_DGE
100
AcDbLine
 10
0.0
 20
0.1
 30
0.0
 11
0.0
 21
0.05
 31
0.0
  0
LINE
  5
AF
330
A2
100
AcDbEntity
  8
SIMBOLOS_DGE
100
AcDbLine
 10
0.02
 20
0.15
 30
0.0
 11
0.12
 21
0.05
 31
0.0
  0
LINE
  5
B0
330
A2
100
AcDbEntity
  8
SIMBOLOS_DGE
100
AcDbLine
 10
0.07
 20
0.05
 30
0.0
 11
0.12
 21
0.05
 31
0.0
  0
LINE
  5
B1
330
A2
100
AcDbEntity
  8
SIMBOLOS_DGE
100
AcDbLine
 10
0.12
 20
0.1
 30
0.0
 11
0.12
 21
0.05
 31
0.0
  0
ENDBLK
  5
A4
330
A2
100
AcDbEntity
  8
0
100
AcDbBlockEnd
  0
BLOCK
  5
B9
330
B8
100
AcDbEntity
  8
0
100
AcDbBlockBegin
  2
DGE_09_90_24_CENTRAL_EOLICA
 70
0
 10
0.0
 20
0.0
 30
0.0
  3
DGE_09_90_24_CENTRAL_EOLICA
  1

  0
LWPOLYLINE
  5
BB
330
B8
100
AcDbEntity
  8
SIMBOLOS_DGE
100
AcDbPolyline
 90
5
 70
0
 10
-0.2
 20
-0.2
 10
0.2
 20
-0.2
 10
0.2
 20
0.2
 10
-0.2
 20
0.2
 10
-0.2
 20
-0.2
  0
LINE
  5
BC
330
B8
100
AcDbEntity
  8
SIMBOLOS_DGE
100
AcDbLine
 10
-0.2
 20
-0.2
 30
0.0
 11
0.2
 21
0.2
 31
0.0
  0
LINE
  5
BD
330
B8
100
AcDbEntity
  8
SIMBOLOS_DGE
100
AcDbLine
 10
-0.2
 20
0.2
 30
0.0
 11
0.2
 21
-0.2
 31
0.0
  0
LINE
  5
BE
330
B8
100
AcDbEntity
  8
SIMBOLOS_DGE
100
AcDbLine
 10
0.0
 20
-0.2
 30
0.0
 11
0.0
 21
0.2
 31
0.0
  0
LINE
  5
BF
330
B8
100
AcDbEntity
  8
SIMBOLOS_DGE
100
AcDbLine
 10
-0.08
 20
-0.15
 30
0.0
 11
-0.08
 21
0.15
 31
0.0
  0
LINE
  5
C0
330
B8
100
AcDbEntity
  8
SIMBOLOS_DGE
100
AcDbLine
 10
0.08
 20
-0.15
 30
0.0
 11
0.08
 21
0.15
 31
0.0
  0
ENDBLK
  5
BA
330
B8
100
AcDbEntity
  8
0
100
AcDbBlockEnd
  0
BLOCK
  5
C9
330
C8
100
AcDbEntity
  8
0
100
AcDbBlockBegin
  2
DGE_09_91_01_LINEA_EN_CONDUCTO
 70
0
 10
0.0
 20
0.0
 30
0.0
  3
DGE_09_91_01_LINEA_EN_CONDUCTO
  1

  0
LINE
  5
CB
330
C8
100
AcDbEntity
  8
SIMBOLOS_DGE
100
AcDbLine
 10
-0.3
 20
0.0
 30
0.0
 11
0.3
 21
0.0
 31
0.0
  0
CIRCLE
  5
CC
330
C8
100
AcDbEntity
  8
SIMBOLOS_DGE
100
AcDbCircle
 10
0.0
 20
0.0
 30
0.0
 40
0.07
  0
ENDBLK
  5
CA
330
C8
100
AcDbEntity
  8
0
100
AcDbBlockEnd
  0
BLOCK
  5
D5
330
D4
100
AcDbEntity
  8
0
100
AcDbBlockBegin
  2
DGE_09_91_03_LINEA_GENERAL
 70
0
 10
0.0
 20
0.0
 30
0.0
  3
DGE_09_91_03_LINEA_GENERAL
  1

  0
LINE
  5
D7
330
D4
100
AcDbEntity
  8
SIMBOLOS_DGE
100
AcDbLine
 10
-0.3
 20
0.0
 30
0.0
 11
0.3
 21
0.0
 31
0.0
  0
ENDBLK
  5
D6
330
D4
100
AcDbEntity
  8
0
100
AcDbBlockEnd
  0
BLOCK
  5
E0
330
DF
100
AcDbEntity
  8
0
100
AcDbBlockBegin
  2
DGE_09_91_04_LINEA_SUBTERRANEA
 70
0
 10
0.0
 20
0.0
 30
0.0
  3
DGE_09_91_04_LINEA_SUBTERRANEA
  1

  0
LINE
  5
E2
330
DF
100
AcDbEntity
  8
SIMBOLOS_DGE
100
AcDbLine
 10
-0.3
 20
0.0
 30
0.0
 11
-0.2
 21
0.0
 31
0.0
  0
LINE
  5
E3
330
DF
100
AcDbEntity
  8
SIMBOLOS_DGE
100
AcDbLine
 10
-0.12
 20
0.0
 30
0.0
 11
-0.02
 21
0.0
 31
0.0
  0
LINE
  5
E4
330
DF
100
AcDbEntity
  8
SIMBOLOS_DGE
100
AcDbLine
 10
0.06
 20
0.0
 30
0.0
 11
0.16
 21
0.0
 31
0.0
  0
LINE
  5
E5
330
DF
100
AcDbEntity
  8
SIMBOLOS_DGE
100
AcDbLine
 10
0.22
 20
0.0
 30
0.0
 11
0.3
 21
0.0
 31
0.0
  0
ENDBLK
  5
E1
330
DF
100
AcDbEntity
  8
0
100
AcDbBlockEnd
  0
BLOCK
  5
ED
330
EC
100
AcDbEntity
  8
0
100
AcDbBlockBegin
  2
DGE_09_91_05_LINEA_PASANTE_CAMARA
 70
0
 10
0.0
 20
0.0
 30
0.0
  3
DGE_09_91_05_LINEA_PASANTE_CAMARA
  1

  0
LWPOLYLINE
  5
EF
330
EC
100
AcDbEntity
  8
SIMBOLOS_DGE
100
AcDbPolyline
 90
5
 70
0
 10
-0.1
 20
-0.15
 10
0.1
 20
-0.15
 10
0.1
 20
0.15
 10
-0.1
 20
0.15
 10
-0.1
 20
-0.15
  0
LINE
  5
F0
330
EC
100
AcDbEntity
  8
SIMBOLOS_DGE
100
AcDbLine
 10
-0.3
 20
0.0
 30
0.0
 11
0.3
 21
0.0
 31
0.0
  0
ENDBLK
  5
EE
330
EC
100
AcDbEntity
  8
0
100
AcDbBlockEnd
  0
BLOCK
  5
F9
330
F8
100
AcDbEntity
  8
0
100
AcDbBlockBegin
  2
DGE_09_91_07_LINEA_CON_VALVULA
 70
0
 10
0.0
 20
0.0
 30
0.0
  3
DGE_09_91_07_LINEA_CON_VALVULA
  1

  0
LINE
  5
FB
330
F8
100
AcDbEntity
  8
SIMBOLOS_DGE
100
AcDbLine
 10
-0.3
 20
0.0
 30
0.0
 11
0.3
 21
0.0
 31
0.0
  0
LINE
  5
FC
330
F8
100
AcDbEntity
  8
SIMBOLOS_DGE
100
AcDbLine
 10
-0.08
 20
0.06
 30
0.0
 11
-0.08
 21
-0.06
 31
0.0
  0
LINE
  5
FD
330
F8
100
AcDbEntity
  8
SIMBOLOS_DGE
100
AcDbLine
 10
-0.08
 20
0.06
 30
0.0
 11
0.0
 21
0.0
 31
0.0
  0
LINE
  5
FE
330
F8
100
AcDbEntity
  8
SIMBOLOS_DGE
100
AcDbLine
 10
-0.08
 20
-0.06
 30
0.0
 11
0.0
 21
0.0
 31
0.0
  0
LINE
  5
FF
330
F8
100
AcDbEntity
  8
SIMBOLOS_DGE
100
AcDbLine
 10
0.08
 20
0.06
 30
0.0
 11
0.08
 21
-0.06
 31
0.0
  0
LINE
  5
100
330
F8
100
AcDbEntity
  8
SIMBOLOS_DGE
100
AcDbLine
 10
0.08
 20
0.06
 30
0.0
 11
0.0
 21
0.0
 31
0.0
  0
LINE
  5
101
330
F8
100
AcDbEntity
  8
SIMBOLOS_DGE
100
AcDbLine
 10
0.08
 20
-0.06
 30
0.0
 11
0.0
 21
0.0
 31
0.0
  0
ENDBLK
  5
FA
330
F8
100
AcDbEntity
  8
0
100
AcDbBlockEnd
  0
BLOCK
  5
10A
330
109
100
AcDbEntity
  8
0
100
AcDbBlockBegin
  2
DGE_09_91_15_ANODO_PROTECCION
 70
0
 10
0.0
 20
0.0
 30
0.0
  3
DGE_09_91_15_ANODO_PROTECCION
  1

  0
LINE
  5
10C
330
109
100
AcDbEntity
  8
SIMBOLOS_DGE
100
AcDbLine
 10
0.0
 20
0.2
 30
0.0
 11
0.0
 21
-0.05
 31
0.0
  0
LINE
  5
10D
330
109
100
AcDbEntity
  8
SIMBOLOS_DGE
100
AcDbLine
 10
-0.15
 20
-0.05
 30
0.0
 11
0.15
 21
-0.05
 31
0.0
  0
LINE
  5
10E
330
109
100
AcDbEntity
  8
SIMBOLOS_DGE
100
AcDbLine
 10
-0.15
 20
-0.05
 30
0.0
 11
0.0
 21
-0.2
 31
0.0
  0
LINE
  5
10F
330
109
100
AcDbEntity
  8
SIMBOLOS_DGE
100
AcDbLine
 10
0.0
 20
-0.2
 30
0.0
 11
0.15
 21
-0.05
 31
0.0
  0
LINE
  5
110
330
109
100
AcDbEntity
  8
SIMBOLOS_DGE
100
AcDbLine
 10
-0.1
 20
-0.09
 30
0.0
 11
0.1
 21
-0.09
 31
0.0
  0
LINE
  5
111
330
109
100
AcDbEntity
  8
SIMBOLOS_DGE
100
AcDbLine
 10
-0.05
 20
-0.13
 30
0.0
 11
0.05
 21
-0.13
 31
0.0
  0
ENDBLK
  5
10B
330
109
100
AcDbEntity
  8
0
100
AcDbBlockEnd
  0
BLOCK
  5
119
330
118
100
AcDbEntity
  8
0
100
AcDbBlockBegin
  2
DGE_09_91_18_RETENIDA_INCLINADA
 70
0
 10
0.0
 20
0.0
 30
0.0
  3
DGE_09_91_18_RETENIDA_INCLINADA
  1

  0
LINE
  5
11B
330
118
100
AcDbEntity
  8
SIMBOLOS_DGE
100
AcDbLine
 10
-0.2
 20
0.0
 30
0.0
 11
0.2
 21
0.0
 31
0.0
  0
LINE
  5
11C
330
118
100
AcDbEntity
  8
SIMBOLOS_DGE
100
AcDbLine
 10
-0.2
 20
-0.1
 30
0.0
 11
-0.2
 21
0.1
 31
0.0
  0
LINE
  5
11D
330
118
100
AcDbEntity
  8
SIMBOLOS_DGE
100
AcDbLine
 10
0.12
 20
0.06
 30
0.0
 11
0.2
 21
0.0
 31
0.0
  0
LINE
  5
11E
330
118
100
AcDbEntity
  8
SIMBOLOS_DGE
100
AcDbLine
 10
0.12
 20
-0.06
 30
0.0
 11
0.2
 21
0.0
 31
0.0
  0
ENDBLK
  5
11A
330
118
100
AcDbEntity
  8
0
100
AcDbBlockEnd
  0
BLOCK
  5
126
330
125
100
AcDbEntity
  8
0
100
AcDbBlockBegin
  2
DGE_09_91_19_RETENIDA_VERTICAL
 70
0
 10
0.0
 20
0.0
 30
0.0
  3
DGE_09_91_19_RETENIDA_VERTICAL
  1

  0
LINE
  5
128
330
125
100
AcDbEntity
  8
SIMBOLOS_DGE
100
AcDbLine
 10
-0.2
 20
0.0
 30
0.0
 11
0.2
 21
0.0
 31
0.0
  0
LINE
  5
129
330
125
100
AcDbEntity
  8
SIMBOLOS_DGE
100
AcDbLine
 10
-0.2
 20
-0.1
 30
0.0
 11
-0.2
 21
0.1
 31
0.0
  0
LINE
  5
12A
330
125
100
AcDbEntity
  8
SIMBOLOS_DGE
100
AcDbLine
 10
0.2
 20
-0.1
 30
0.0
 11
0.2
 21
0.1
 31
0.0
  0
ENDBLK
  5
127
330
125
100
AcDbEntity
  8
0
100
AcDbBlockEnd
  0
BLOCK
  5
132
330
131
100
AcDbEntity
  8
0
100
AcDbBlockBegin
  2
DGE_09_91_20_POSTE_CONCRETO
 70
0
 10
0.0
 20
0.0
 30
0.0
  3
DGE_09_91_20_POSTE_CONCRETO
  1

  0
CIRCLE
  5
134
330
131
100
AcDbEntity
  8
SIMBOLOS_DGE
100
AcDbCircle
 10
0.0
 20
0.0
 30
0.0
 40
0.15
  0
ENDBLK
  5
133
330
131
100
AcDbEntity
  8
0
100
AcDbBlockEnd
  0
BLOCK
  5
13D
330
13C
100
AcDbEntity
  8
0
100
AcDbBlockBegin
  2
DGE_09_91_21_POSTE_MADERA
 70
0
 10
0.0
 20
0.0
 30
0.0
  3
DGE_09_91_21_POSTE_MADERA
  1

  0
CIRCLE
  5
13F
330
13C
100
AcDbEntity
  8
SIMBOLOS_DGE
100
AcDbCircle
 10
0.0
 20
0.0
 30
0.0
 40
0.15
  0
LINE
  5
140
330
13C
100
AcDbEntity
  8
SIMBOLOS_DGE
100
AcDbLine
 10
-0.15
 20
0.0
 30
0.0
 11
0.15
 21
0.0
 31
0.0
  0
LINE
  5
141
330
13C
100
AcDbEntity
  8
SIMBOLOS_DGE
100
AcDbLine
 10
0.0
 20
-0.15
 30
0.0
 11
0.0
 21
0.15
 31
0.0
  0
ENDBLK
  5
13E
330
13C
100
AcDbEntity
  8
0
100
AcDbBlockEnd
  0
BLOCK
  5
14A
330
149
100
AcDbEntity
  8
0
100
AcDbBlockBegin
  2
DGE_09_91_22_POSTE_METALICO
 70
0
 10
0.0
 20
0.0
 30
0.0
  3
DGE_09_91_22_POSTE_METALICO
  1

  0
CIRCLE
  5
14C
330
149
100
AcDbEntity
  8
SIMBOLOS_DGE
100
AcDbCircle
 10
0.0
 20
0.0
 30
0.0
 40
0.15
  0
LINE
  5
14D
330
149
100
AcDbEntity
  8
SIMBOLOS_DGE
100
AcDbLine
 10
0.0
 20
-0.15
 30
0.0
 11
0.0
 21
0.15
 31
0.0
  0
LINE
  5
14E
330
149
100
AcDbEntity
  8
SIMBOLOS_DGE
100
AcDbLine
 10
-0.1
 20
-0.1
 30
0.0
 11
0.0
 21
0.0
 31
0.0
  0
LINE
  5
14F
330
149
100
AcDbEntity
  8
SIMBOLOS_DGE
100
AcDbLine
 10
-0.14
 20
-0.05
 30
0.0
 11
0.0
 21
0.05
 31
0.0
  0
LINE
  5
150
330
149
100
AcDbEntity
  8
SIMBOLOS_DGE
100
AcDbLine
 10
-0.14
 20
0.05
 30
0.0
 11
0.0
 21
-0.05
 31
0.0
  0
LINE
  5
151
330
149
100
AcDbEntity
  8
SIMBOLOS_DGE
100
AcDbLine
 10
-0.1
 20
0.1
 30
0.0
 11
0.0
 21
0.0
 31
0.0
  0
ENDBLK
  5
14B
330
149
100
AcDbEntity
  8
0
100
AcDbBlockEnd
  0
BLOCK
  5
15A
330
159
100
AcDbEntity
  8
0
100
AcDbBlockBegin
  2
DGE_09_91_23_TORRE_ELECTRICA
 70
0
 10
0.0
 20
0.0
 30
0.0
  3
DGE_09_91_23_TORRE_ELECTRICA
  1

  0
LWPOLYLINE
  5
15C
330
159
100
AcDbEntity
  8
SIMBOLOS_DGE
100
AcDbPolyline
 90
5
 70
0
 10
-0.15
 20
-0.15
 10
0.15
 20
-0.15
 10
0.15
 20
0.15
 10
-0.15
 20
0.15
 10
-0.15
 20
-0.15
  0
LINE
  5
15D
330
159
100
AcDbEntity
  8
SIMBOLOS_DGE
100
AcDbLine
 10
-0.15
 20
-0.15
 30
0.0
 11
0.15
 21
0.15
 31
0.0
  0
LINE
  5
15E
330
159
100
AcDbEntity
  8
SIMBOLOS_DGE
100
AcDbLine
 10
-0.15
 20
0.15
 30
0.0
 11
0.15
 21
-0.15
 31
0.0
  0
ENDBLK
  5
15B
330
159
100
AcDbEntity
  8
0
100
AcDbBlockEnd
  0
BLOCK
  5
167
330
166
100
AcDbEntity
  8
0
100
AcDbBlockBegin
  2
DGE_09_91_16_PANEL_DISTRIBUCION
 70
0
 10
0.0
 20
0.0
 30
0.0
  3
DGE_09_91_16_PANEL_DISTRIBUCION
  1

  0
LWPOLYLINE
  5
169
330
166
100
AcDbEntity
  8
SIMBOLOS_DGE
100
AcDbPolyline
 90
5
 70
0
 10
-0.3
 20
-0.15
 10
0.3
 20
-0.15
 10
0.3
 20
0.15
 10
-0.3
 20
0.15
 10
-0.3
 20
-0.15
  0
LINE
  5
16A
330
166
100
AcDbEntity
  8
SIMBOLOS_DGE
100
AcDbLine
 10
-0.3
 20
-0.15
 30
0.0
 11
0.0
 21
0.15
 31
0.0
  0
LINE
  5
16B
330
166
100
AcDbEntity
  8
SIMBOLOS_DGE
100
AcDbLine
 10
-0.15
 20
-0.15
 30
0.0
 11
0.15
 21
0.15
 31
0.0
  0
LINE
  5
16C
330
166
100
AcDbEntity
  8
SIMBOLOS_DGE
100
AcDbLine
 10
0.0
 20
-0.15
 30
0.0
 11
0.3
 21
0.15
 31
0.0
  0
LINE
  5
16D
330
166
100
AcDbEntity
  8
SIMBOLOS_DGE
100
AcDbLine
 10
0.15
 20
-0.15
 30
0.0
 11
0.3
 21
0.0
 31
0.0
  0
LINE
  5
16E
330
166
100
AcDbEntity
  8
SIMBOLOS_DGE
100
AcDbLine
 10
-0.3
 20
0.0
 30
0.0
 11
-0.15
 21
0.15
 31
0.0
  0
ENDBLK
  5
168
330
166
100
AcDbEntity
  8
0
100
AcDbBlockEnd
  0
BLOCK
  5
177
330
176
100
AcDbEntity
  8
0
100
AcDbBlockBegin
  2
DGE_09_91_17_TABLERO_EMPOTRADO
 70
0
 10
0.0
 20
0.0
 30
0.0
  3
DGE_09_91_17_TABLERO_EMPOTRADO
  1

  0
LWPOLYLINE
  5
179
330
176
100
AcDbEntity
  8
SIMBOLOS_DGE
100
AcDbPolyline
 90
5
 70
0
 10
-0.25
 20
-0.15
 10
0.25
 20
-0.15
 10
0.25
 20
0.15
 10
-0.25
 20
0.15
 10
-0.25
 20
-0.15
  0
LINE
  5
17A
330
176
100
AcDbEntity
  8
SIMBOLOS_DGE
100
AcDbLine
 10
-0.25
 20
-0.15
 30
0.0
 11
0.25
 21
0.15
 31
0.0
  0
LINE
  5
17B
330
176
100
AcDbEntity
  8
SIMBOLOS_DGE
100
AcDbLine
 10
-0.25
 20
-0.15
 30
0.0
 11
0.25
 21
-0.15
 31
0.0
  0
LINE
  5
17C
330
176
100
AcDbEntity
  8
SIMBOLOS_DGE
100
AcDbLine
 10
0.25
 20
-0.15
 30
0.0
 11
0.25
 21
0.15
 31
0.0
  0
LINE
  5
17D
330
176
100
AcDbEntity
  8
SIMBOLOS_DGE
100
AcDbLine
 10
-0.15
 20
-0.15
 30
0.0
 11
0.25
 21
0.09
 31
0.0
  0
LINE
  5
17E
330
176
100
AcDbEntity
  8
SIMBOLOS_DGE
100
AcDbLine
 10
-0.05
 20
-0.15
 30
0.0
 11
0.25
 21
0.03
 31
0.0
  0
LINE
  5
17F
330
176
100
AcDbEntity
  8
SIMBOLOS_DGE
100
AcDbLine
 10
0.05
 20
-0.15
 30
0.0
 11
0.25
 21
-0.03
 31
0.0
  0
LINE
  5
180
330
176
100
AcDbEntity
  8
SIMBOLOS_DGE
100
AcDbLine
 10
0.15
 20
-0.15
 30
0.0
 11
0.25
 21
-0.09
 31
0.0
  0
ENDBLK
  5
178
330
176
100
AcDbEntity
  8
0
100
AcDbBlockEnd
  0
BLOCK
  5
188
330
187
100
AcDbEntity
  8
0
100
AcDbBlockBegin
  2
DGE_09_93_08_CAJA_PASO
 70
0
 10
0.0
 20
0.0
 30
0.0
  3
DGE_09_93_08_CAJA_PASO
  1

  0
CIRCLE
  5
18A
330
187
100
AcDbEntity
  8
SIMBOLOS_DGE
100
AcDbCircle
 10
0.0
 20
0.0
 30
0.0
 40
0.14
  0
ENDBLK
  5
189
330
187
100
AcDbEntity
  8
0
100
AcDbBlockEnd
  0
BLOCK
  5
192
330
191
100
AcDbEntity
  8
0
100
AcDbBlockBegin
  2
DGE_09_93_09_CAJA_DERIVACION
 70
0
 10
0.0
 20
0.0
 30
0.0
  3
DGE_09_93_09_CAJA_DERIVACION
  1

  0
CIRCLE
  5
194
330
191
100
AcDbEntity
  8
SIMBOLOS_DGE
100
AcDbCircle
 10
0.0
 20
0.0
 30
0.0
 40
0.14
  0
CIRCLE
  5
195
330
191
100
AcDbEntity
  8
SIMBOLOS_DGE
100
AcDbCircle
 10
0.0
 20
0.0
 30
0.0
 40
0.035
  0
HATCH
  5
196
330
191
100
AcDbEntity
  8
SIMBOLOS_DGE
 62
7
100
AcDbHatch
 10
0.0
 20
0.0
 30
0.0
210
0.0
220
0.0
230
1.0
  2
SOLID
 70
1
 71
0
 91
1
 92
1
 93
1
 72
2
 10
0.0
 20
0.0
 40
0.035
 50
0
 51
360
 73
1
 97
0
 75
1
 76
1
 98
0
  0
ENDBLK
  5
193
330
191
100
AcDbEntity
  8
0
100
AcDbBlockEnd
  0
BLOCK
  5
19F
330
19E
100
AcDbEntity
  8
0
100
AcDbBlockBegin
  2
DGE_09_93_11_CENTRO_DISTRIBUCION
 70
0
 10
0.0
 20
0.0
 30
0.0
  3
DGE_09_93_11_CENTRO_DISTRIBUCION
  1

  0
LWPOLYLINE
  5
1A1
330
19E
100
AcDbEntity
  8
SIMBOLOS_DGE
100
AcDbPolyline
 90
5
 70
0
 10
-0.22
 20
-0.12
 10
0.22
 20
-0.12
 10
0.22
 20
0.12
 10
-0.22
 20
0.12
 10
-0.22
 20
-0.12
  0
LINE
  5
1A2
330
19E
100
AcDbEntity
  8
SIMBOLOS_DGE
100
AcDbLine
 10
-0.16
 20
0.12
 30
0.0
 11
-0.16
 21
0.3
 31
0.0
  0
LINE
  5
1A3
330
19E
100
AcDbEntity
  8
SIMBOLOS_DGE
100
AcDbLine
 10
-0.08
 20
0.12
 30
0.0
 11
-0.08
 21
0.3
 31
0.0
  0
LINE
  5
1A4
330
19E
100
AcDbEntity
  8
SIMBOLOS_DGE
100
AcDbLine
 10
0.0
 20
0.12
 30
0.0
 11
0.0
 21
0.3
 31
0.0
  0
LINE
  5
1A5
330
19E
100
AcDbEntity
  8
SIMBOLOS_DGE
100
AcDbLine
 10
0.08
 20
0.12
 30
0.0
 11
0.08
 21
0.3
 31
0.0
  0
LINE
  5
1A6
330
19E
100
AcDbEntity
  8
SIMBOLOS_DGE
100
AcDbLine
 10
0.16
 20
0.12
 30
0.0
 11
0.16
 21
0.3
 31
0.0
  0
LINE
  5
1A7
330
19E
100
AcDbEntity
  8
SIMBOLOS_DGE
100
AcDbLine
 10
0.0
 20
-0.12
 30
0.0
 11
0.0
 21
-0.3
 31
0.0
  0
ENDBLK
  5
1A0
330
19E
100
AcDbEntity
  8
0
100
AcDbBlockEnd
  0
BLOCK
  5
1B1
330
1B0
100
AcDbEntity
  8
0
100
AcDbBlockBegin
  2
DGE_09_92_01_ATENUADOR
 70
0
 10
0.0
 20
0.0
 30
0.0
  3
DGE_09_92_01_ATENUADOR
  1

  0
LWPOLYLINE
  5
1B3
330
1B0
100
AcDbEntity
  8
SIMBOLOS_DGE
100
AcDbPolyline
 90
5
 70
0
 10
-0.2
 20
-0.15
 10
0.2
 20
-0.15
 10
0.2
 20
0.15
 10
-0.2
 20
0.15
 10
-0.2
 20
-0.15
  0
LINE
  5
1B4
330
1B0
100
AcDbEntity
  8
SIMBOLOS_DGE
100
AcDbLine
 10
-0.3
 20
0.0
 30
0.0
 11
0.3
 21
0.0
 31
0.0
  0
LINE
  5
1B5
330
1B0
100
AcDbEntity
  8
SIMBOLOS_DGE
100
AcDbLine
 10
0.0
 20
0.1
 30
0.0
 11
-0.05
 21
0.05
 31
0.0
  0
LINE
  5
1B6
330
1B0
100
AcDbEntity
  8
SIMBOLOS_DGE
100
AcDbLine
 10
-0.05
 20
0.05
 30
0.0
 11
0.05
 21
-0.05
 31
0.0
  0
LINE
  5
1B7
330
1B0
100
AcDbEntity
  8
SIMBOLOS_DGE
100
AcDbLine
 10
0.05
 20
-0.05
 30
0.0
 11
0.0
 21
-0.1
 31
0.0
  0
ENDBLK
  5
1B2
330
1B0
100
AcDbEntity
  8
0
100
AcDbBlockEnd
  0
BLOCK
  5
1C0
330
1BF
100
AcDbEntity
  8
0
100
AcDbBlockBegin
  2
DGE_09_93_01_NEUTRO
 70
0
 10
0.0
 20
0.0
 30
0.0
  3
DGE_09_93_01_NEUTRO
  1

  0
LINE
  5
1C2
330
1BF
100
AcDbEntity
  8
SIMBOLOS_DGE
100
AcDbLine
 10
-0.05
 20
-0.08
 30
0.0
 11
0.05
 21
0.08
 31
0.0
  0
CIRCLE
  5
1C3
330
1BF
100
AcDbEntity
  8
SIMBOLOS_DGE
100
AcDbCircle
 10
0.05
 20
0.08
 30
0.0
 40
0.02
  0
HATCH
  5
1C4
330
1BF
100
AcDbEntity
  8
SIMBOLOS_DGE
 62
7
100
AcDbHatch
 10
0.0
 20
0.0
 30
0.0
210
0.0
220
0.0
230
1.0
  2
SOLID
 70
1
 71
0
 91
1
 92
1
 93
1
 72
2
 10
0.05
 20
0.08
 40
0.02
 50
0
 51
360
 73
1
 97
0
 75
1
 76
1
 98
0
  0
ENDBLK
  5
1C1
330
1BF
100
AcDbEntity
  8
0
100
AcDbBlockEnd
  0
BLOCK
  5
1CC
330
1CB
100
AcDbEntity
  8
0
100
AcDbBlockBegin
  2
DGE_09_93_02_TIERRA_CONDUCTOR
 70
0
 10
0.0
 20
0.0
 30
0.0
  3
DGE_09_93_02_TIERRA_CONDUCTOR
  1

  0
LINE
  5
1CE
330
1CB
100
AcDbEntity
  8
SIMBOLOS_DGE
100
AcDbLine
 10
-0.05
 20
-0.08
 30
0.0
 11
0.05
 21
0.08
 31
0.0
  0
LINE
  5
1CF
330
1CB
100
AcDbEntity
  8
SIMBOLOS_DGE
100
AcDbLine
 10
0.015
 20
0.1
 30
0.0
 11
0.085
 21
0.06
 31
0.0
  0
ENDBLK
  5
1CD
330
1CB
100
AcDbEntity
  8
0
100
AcDbBlockEnd
  0
BLOCK
  5
1D8
330
1D7
100
AcDbEntity
  8
0
100
AcDbBlockBegin
  2
DGE_09_93_03_CONDUCTOR_COMBINADO
 70
0
 10
0.0
 20
0.0
 30
0.0
  3
DGE_09_93_03_CONDUCTOR_COMBINADO
  1

  0
LINE
  5
1DA
330
1D7
100
AcDbEntity
  8
SIMBOLOS_DGE
100
AcDbLine
 10
-0.05
 20
-0.08
 30
0.0
 11
0.05
 21
0.08
 31
0.0
  0
CIRCLE
  5
1DB
330
1D7
100
AcDbEntity
  8
SIMBOLOS_DGE
100
AcDbCircle
 10
0.0
 20
0.0
 30
0.0
 40
0.018
  0
HATCH
  5
1DC
330
1D7
100
AcDbEntity
  8
SIMBOLOS_DGE
 62
7
100
AcDbHatch
 10
0.0
 20
0.0
 30
0.0
210
0.0
220
0.0
230
1.0
  2
SOLID
 70
1
 71
0
 91
1
 92
1
 93
1
 72
2
 10
0.0
 20
0.0
 40
0.018
 50
0
 51
360
 73
1
 97
0
 75
1
 76
1
 98
0
  0
LINE
  5
1DD
330
1D7
100
AcDbEntity
  8
SIMBOLOS_DGE
100
AcDbLine
 10
0.015
 20
0.1
 30
0.0
 11
0.085
 21
0.06
 31
0.0
  0
ENDBLK
  5
1D9
330
1D7
100
AcDbEntity
  8
0
100
AcDbBlockEnd
  0
BLOCK
  5
1E7
330
1E6
100
AcDbEntity
  8
0
100
AcDbBlockBegin
  2
DGE_09_93_05_CANALIZACION_SUBE
 70
0
 10
0.0
 20
0.0
 30
0.0
  3
DGE_09_93_05_CANALIZACION_SUBE
  1

  0
LINE
  5
1E9
330
1E6
100
AcDbEntity
  8
SIMBOLOS_DGE
100
AcDbLine
 10
-0.2
 20
0.0
 30
0.0
 11
0.08
 21
0.0
 31
0.0
  0
LINE
  5
1EA
330
1E6
100
AcDbEntity
  8
SIMBOLOS_DGE
100
AcDbLine
 10
0.08
 20
0.0
 30
0.0
 11
0.22
 21
0.14
 31
0.0
  0
LINE
  5
1EB
330
1E6
100
AcDbEntity
  8
SIMBOLOS_DGE
100
AcDbLine
 10
0.14
 20
0.14
 30
0.0
 11
0.22
 21
0.14
 31
0.0
  0
LINE
  5
1EC
330
1E6
100
AcDbEntity
  8
SIMBOLOS_DGE
100
AcDbLine
 10
0.22
 20
0.06
 30
0.0
 11
0.22
 21
0.14
 31
0.0
  0
ENDBLK
  5
1E8
330
1E6
100
AcDbEntity
  8
0
100
AcDbBlockEnd
  0
BLOCK
  5
1F5
330
1F4
100
AcDbEntity
  8
0
100
AcDbBlockBegin
  2
DGE_09_93_06_CANALIZACION_BAJA
 70
0
 10
0.0
 20
0.0
 30
0.0
  3
DGE_09_93_06_CANALIZACION_BAJA
  1

  0
LINE
  5
1F7
330
1F4
100
AcDbEntity
  8
SIMBOLOS_DGE
100
AcDbLine
 10
-0.2
 20
0.0
 30
0.0
 11
0.08
 21
0.0
 31
0.0
  0
LINE
  5
1F8
330
1F4
100
AcDbEntity
  8
SIMBOLOS_DGE
100
AcDbLine
 10
0.08
 20
0.0
 30
0.0
 11
0.22
 21
-0.14
 31
0.0
  0
LINE
  5
1F9
330
1F4
100
AcDbEntity
  8
SIMBOLOS_DGE
100
AcDbLine
 10
0.14
 20
-0.14
 30
0.0
 11
0.22
 21
-0.14
 31
0.0
  0
LINE
  5
1FA
330
1F4
100
AcDbEntity
  8
SIMBOLOS_DGE
100
AcDbLine
 10
0.22
 20
-0.06
 30
0.0
 11
0.22
 21
-0.14
 31
0.0
  0
ENDBLK
  5
1F6
330
1F4
100
AcDbEntity
  8
0
100
AcDbBlockEnd
  0
BLOCK
  5
204
330
203
100
AcDbEntity
  8
0
100
AcDbBlockBegin
  2
DGE_09_93_13_TOMACORRIENTE_MONOFASICO
 70
0
 10
0.0
 20
0.0
 30
0.0
  3
DGE_09_93_13_TOMACORRIENTE_MONOFASICO
  1

  0
CIRCLE
  5
206
330
203
100
AcDbEntity
  8
SIMBOLOS_DGE
100
AcDbCircle
 10
0.0
 20
0.0
 30
0.0
 40
0.13
  0
LINE
  5
207
330
203
100
AcDbEntity
  8
SIMBOLOS_DGE
100
AcDbLine
 10
-0.09
 20
-0.04
 30
0.0
 11
0.09
 21
-0.04
 31
0.0
  0
LINE
  5
208
330
203
100
AcDbEntity
  8
SIMBOLOS_DGE
100
AcDbLine
 10
-0.09
 20
0.04
 30
0.0
 11
0.09
 21
0.04
 31
0.0
  0
ENDBLK
  5
205
330
203
100
AcDbEntity
  8
0
100
AcDbBlockEnd
  0
BLOCK
  5
210
330
20F
100
AcDbEntity
  8
0
100
AcDbBlockBegin
  2
DGE_09_93_14_TOMACORRIENTE_PISO
 70
0
 10
0.0
 20
0.0
 30
0.0
  3
DGE_09_93_14_TOMACORRIENTE_PISO
  1

  0
LWPOLYLINE
  5
212
330
20F
100
AcDbEntity
  8
SIMBOLOS_DGE
100
AcDbPolyline
 90
5
 70
0
 10
-0.16
 20
-0.16
 10
0.16
 20
-0.16
 10
0.16
 20
0.16
 10
-0.16
 20
0.16
 10
-0.16
 20
-0.16
  0
CIRCLE
  5
213
330
20F
100
AcDbEntity
  8
SIMBOLOS_DGE
100
AcDbCircle
 10
0.0
 20
0.0
 30
0.0
 40
0.13
  0
LINE
  5
214
330
20F
100
AcDbEntity
  8
SIMBOLOS_DGE
100
AcDbLine
 10
-0.09
 20
-0.04
 30
0.0
 11
0.09
 21
-0.04
 31
0.0
  0
LINE
  5
215
330
20F
100
AcDbEntity
  8
SIMBOLOS_DGE
100
AcDbLine
 10
-0.09
 20
0.04
 30
0.0
 11
0.09
 21
0.04
 31
0.0
  0
ENDBLK
  5
211
330
20F
100
AcDbEntity
  8
0
100
AcDbBlockEnd
  0
BLOCK
  5
21E
330
21D
100
AcDbEntity
  8
0
100
AcDbBlockBegin
  2
DGE_09_93_15_TOMACORRIENTE_TRIFASICO
 70
0
 10
0.0
 20
0.0
 30
0.0
  3
DGE_09_93_15_TOMACORRIENTE_TRIFASICO
  1

  0
CIRCLE
  5
220
330
21D
100
AcDbEntity
  8
SIMBOLOS_DGE
100
AcDbCircle
 10
0.0
 20
0.0
 30
0.0
 40
0.13
  0
LINE
  5
221
330
21D
100
AcDbEntity
  8
SIMBOLOS_DGE
100
AcDbLine
 10
-0.09
 20
-0.05
 30
0.0
 11
0.09
 21
-0.05
 31
0.0
  0
LINE
  5
222
330
21D
100
AcDbEntity
  8
SIMBOLOS_DGE
100
AcDbLine
 10
-0.09
 20
0.0
 30
0.0
 11
0.09
 21
0.0
 31
0.0
  0
LINE
  5
223
330
21D
100
AcDbEntity
  8
SIMBOLOS_DGE
100
AcDbLine
 10
-0.09
 20
0.05
 30
0.0
 11
0.09
 21
0.05
 31
0.0
  0
ENDBLK
  5
21F
330
21D
100
AcDbEntity
  8
0
100
AcDbBlockEnd
  0
BLOCK
  5
22B
330
22A
100
AcDbEntity
  8
0
100
AcDbBlockBegin
  2
DGE_09_93_17_TOMACORRIENTE_TIERRA
 70
0
 10
0.0
 20
0.0
 30
0.0
  3
DGE_09_93_17_TOMACORRIENTE_TIERRA
  1

  0
CIRCLE
  5
22D
330
22A
100
AcDbEntity
  8
SIMBOLOS_DGE
100
AcDbCircle
 10
0.0
 20
0.0
 30
0.0
 40
0.13
  0
LINE
  5
22E
330
22A
100
AcDbEntity
  8
SIMBOLOS_DGE
100
AcDbLine
 10
-0.09
 20
-0.04
 30
0.0
 11
0.09
 21
-0.04
 31
0.0
  0
LINE
  5
22F
330
22A
100
AcDbEntity
  8
SIMBOLOS_DGE
100
AcDbLine
 10
-0.09
 20
0.04
 30
0.0
 11
0.09
 21
0.04
 31
0.0
  0
TEXT
  5
230
330
22A
100
AcDbEntity
  8
SIMBOLOS_DGE
100
AcDbText
 10
0.22
 20
-0.15
 30
0.0
 40
0.14
  1
T
 72
1
 11
0.22
 21
-0.15
 31
0.0
100
AcDbText
 73
2
  0
ENDBLK
  5
22C
330
22A
100
AcDbEntity
  8
0
100
AcDbBlockEnd
  0
BLOCK
  5
239
330
238
100
AcDbEntity
  8
0
100
AcDbBlockBegin
  2
DGE_09_93_18_SALIDA_COCINA
 70
0
 10
0.0
 20
0.0
 30
0.0
  3
DGE_09_93_18_SALIDA_COCINA
  1

  0
CIRCLE
  5
23B
330
238
100
AcDbEntity
  8
SIMBOLOS_DGE
100
AcDbCircle
 10
0.0
 20
0.0
 30
0.0
 40
0.13
  0
LINE
  5
23C
330
238
100
AcDbEntity
  8
SIMBOLOS_DGE
100
AcDbLine
 10
-0.09
 20
-0.05
 30
0.0
 11
0.09
 21
-0.05
 31
0.0
  0
LINE
  5
23D
330
238
100
AcDbEntity
  8
SIMBOLOS_DGE
100
AcDbLine
 10
-0.09
 20
0.0
 30
0.0
 11
0.09
 21
0.0
 31
0.0
  0
LINE
  5
23E
330
238
100
AcDbEntity
  8
SIMBOLOS_DGE
100
AcDbLine
 10
-0.09
 20
0.05
 30
0.0
 11
0.09
 21
0.05
 31
0.0
  0
TEXT
  5
23F
330
238
100
AcDbEntity
  8
SIMBOLOS_DGE
100
AcDbText
 10
0.22
 20
-0.15
 30
0.0
 40
0.14
  1
C
 72
1
 11
0.22
 21
-0.15
 31
0.0
100
AcDbText
 73
2
  0
ENDBLK
  5
23A
330
238
100
AcDbEntity
  8
0
100
AcDbBlockEnd
  0
BLOCK
  5
247
330
246
100
AcDbEntity
  8
0
100
AcDbBlockBegin
  2
DGE_09_93_19_TOMACORRIENTE_AGUA
 70
0
 10
0.0
 20
0.0
 30
0.0
  3
DGE_09_93_19_TOMACORRIENTE_AGUA
  1

  0
CIRCLE
  5
249
330
246
100
AcDbEntity
  8
SIMBOLOS_DGE
100
AcDbCircle
 10
0.0
 20
0.0
 30
0.0
 40
0.13
  0
LINE
  5
24A
330
246
100
AcDbEntity
  8
SIMBOLOS_DGE
100
AcDbLine
 10
-0.09
 20
-0.04
 30
0.0
 11
0.09
 21
-0.04
 31
0.0
  0
LINE
  5
24B
330
246
100
AcDbEntity
  8
SIMBOLOS_DGE
100
AcDbLine
 10
-0.09
 20
0.04
 30
0.0
 11
0.09
 21
0.04
 31
0.0
  0
TEXT
  5
24C
330
246
100
AcDbEntity
  8
SIMBOLOS_DGE
100
AcDbText
 10
0.24
 20
-0.15
 30
0.0
 40
0.13
  1
PA
 72
1
 11
0.24
 21
-0.15
 31
0.0
100
AcDbText
 73
2
  0
ENDBLK
  5
248
330
246
100
AcDbEntity
  8
0
100
AcDbBlockEnd
  0
BLOCK
  5
255
330
254
100
AcDbEntity
  8
0
100
AcDbBlockBegin
  2
DGE_09_93_20_TOMACORRIENTE_MULTIPLE
 70
0
 10
0.0
 20
0.0
 30
0.0
  3
DGE_09_93_20_TOMACORRIENTE_MULTIPLE
  1

  0
LINE
  5
257
330
254
100
AcDbEntity
  8
SIMBOLOS_DGE
100
AcDbLine
 10
-0.2
 20
0.0
 30
0.0
 11
0.2
 21
0.0
 31
0.0
  0
ARC
  5
258
330
254
100
AcDbEntity
  8
SIMBOLOS_DGE
100
AcDbCircle
 10
0.0
 20
0.0
 30
0.0
 40
0.1
100
AcDbArc
 50
0.0
 51
180.0
  0
LINE
  5
259
330
254
100
AcDbEntity
  8
SIMBOLOS_DGE
100
AcDbLine
 10
0.0
 20
0.1
 30
0.0
 11
0.0
 21
0.22
 31
0.0
  0
LINE
  5
25A
330
254
100
AcDbEntity
  8
SIMBOLOS_DGE
100
AcDbLine
 10
0.0
 20
0.22
 30
0.0
 11
-0.08
 21
0.22
 31
0.0
  0
TEXT
  5
25B
330
254
100
AcDbEntity
  8
SIMBOLOS_DGE
100
AcDbText
 10
0.1
 20
0.2
 30
0.0
 40
0.12
  1
3
 72
1
 11
0.1
 21
0.2
 31
0.0
100
AcDbText
 73
2
  0
ENDBLK
  5
256
330
254
100
AcDbEntity
  8
0
100
AcDbBlockEnd
  0
BLOCK
  5
264
330
263
100
AcDbEntity
  8
0
100
AcDbBlockBegin
  2
DGE_09_93_22_TOMACORRIENTE_PROTECCION
 70
0
 10
0.0
 20
0.0
 30
0.0
  3
DGE_09_93_22_TOMACORRIENTE_PROTECCION
  1

  0
LINE
  5
266
330
263
100
AcDbEntity
  8
SIMBOLOS_DGE
100
AcDbLine
 10
-0.2
 20
0.0
 30
0.0
 11
0.2
 21
0.0
 31
0.0
  0
ARC
  5
267
330
263
100
AcDbEntity
  8
SIMBOLOS_DGE
100
AcDbCircle
 10
0.0
 20
0.0
 30
0.0
 40
0.1
100
AcDbArc
 50
0.0
 51
180.0
  0
LINE
  5
268
330
263
100
AcDbEntity
  8
SIMBOLOS_DGE
100
AcDbLine
 10
0.0
 20
0.1
 30
0.0
 11
0.0
 21
0.22
 31
0.0
  0
LINE
  5
269
330
263
100
AcDbEntity
  8
SIMBOLOS_DGE
100
AcDbLine
 10
-0.06
 20
0.22
 30
0.0
 11
0.06
 21
0.22
 31
0.0
  0
ENDBLK
  5
265
330
263
100
AcDbEntity
  8
0
100
AcDbBlockEnd
  0
BLOCK
  5
272
330
271
100
AcDbEntity
  8
0
100
AcDbBlockBegin
  2
DGE_09_93_24_TOMACORRIENTE_INTERRUPTOR
 70
0
 10
0.0
 20
0.0
 30
0.0
  3
DGE_09_93_24_TOMACORRIENTE_INTERRUPTOR
  1

  0
LINE
  5
274
330
271
100
AcDbEntity
  8
SIMBOLOS_DGE
100
AcDbLine
 10
-0.2
 20
0.0
 30
0.0
 11
0.2
 21
0.0
 31
0.0
  0
ARC
  5
275
330
271
100
AcDbEntity
  8
SIMBOLOS_DGE
100
AcDbCircle
 10
0.0
 20
0.0
 30
0.0
 40
0.1
100
AcDbArc
 50
0.0
 51
180.0
  0
LINE
  5
276
330
271
100
AcDbEntity
  8
SIMBOLOS_DGE
100
AcDbLine
 10
0.0
 20
0.1
 30
0.0
 11
0.1
 21
0.24
 31
0.0
  0
LINE
  5
277
330
271
100
AcDbEntity
  8
SIMBOLOS_DGE
100
AcDbLine
 10
0.1
 20
0.24
 30
0.0
 11
0.16
 21
0.18
 31
0.0
  0
ENDBLK
  5
273
330
271
100
AcDbEntity
  8
0
100
AcDbBlockEnd
  0
BLOCK
  5
280
330
27F
100
AcDbEntity
  8
0
100
AcDbBlockBegin
  2
DGE_09_93_26_TOMACORRIENTE_TRANSFORMADOR
 70
0
 10
0.0
 20
0.0
 30
0.0
  3
DGE_09_93_26_TOMACORRIENTE_TRANSFORMADOR
  1

  0
LINE
  5
282
330
27F
100
AcDbEntity
  8
SIMBOLOS_DGE
100
AcDbLine
 10
-0.2
 20
0.0
 30
0.0
 11
0.2
 21
0.0
 31
0.0
  0
ARC
  5
283
330
27F
100
AcDbEntity
  8
SIMBOLOS_DGE
100
AcDbCircle
 10
0.0
 20
0.0
 30
0.0
 40
0.1
100
AcDbArc
 50
0.0
 51
180.0
  0
LINE
  5
284
330
27F
100
AcDbEntity
  8
SIMBOLOS_DGE
100
AcDbLine
 10
0.0
 20
0.1
 30
0.0
 11
0.0
 21
0.2
 31
0.0
  0
CIRCLE
  5
285
330
27F
100
AcDbEntity
  8
SIMBOLOS_DGE
100
AcDbCircle
 10
0.0
 20
0.29
 30
0.0
 40
0.09
  0
CIRCLE
  5
286
330
27F
100
AcDbEntity
  8
SIMBOLOS_DGE
100
AcDbCircle
 10
0.0
 20
0.43
 30
0.0
 40
0.09
  0
ENDBLK
  5
281
330
27F
100
AcDbEntity
  8
0
100
AcDbBlockEnd
  0
BLOCK
  5
290
330
28F
100
AcDbEntity
  8
0
100
AcDbBlockBegin
  2
DGE_09_93_27_TELEFONO
 70
0
 10
0.0
 20
0.0
 30
0.0
  3
DGE_09_93_27_TELEFONO
  1

  0
LINE
  5
292
330
28F
100
AcDbEntity
  8
SIMBOLOS_DGE
100
AcDbLine
 10
-0.2
 20
0.0
 30
0.0
 11
0.2
 21
0.0
 31
0.0
  0
LINE
  5
293
330
28F
100
AcDbEntity
  8
SIMBOLOS_DGE
100
AcDbLine
 10
0.0
 20
0.0
 30
0.0
 11
0.0
 21
0.16
 31
0.0
  0
LINE
  5
294
330
28F
100
AcDbEntity
  8
SIMBOLOS_DGE
100
AcDbLine
 10
0.0
 20
0.16
 30
0.0
 11
-0.1
 21
0.16
 31
0.0
  0
LINE
  5
295
330
28F
100
AcDbEntity
  8
SIMBOLOS_DGE
100
AcDbLine
 10
-0.1
 20
0.16
 30
0.0
 11
-0.1
 21
0.06
 31
0.0
  0
TEXT
  5
296
330
28F
100
AcDbEntity
  8
SIMBOLOS_DGE
100
AcDbText
 10
0.18
 20
0.12
 30
0.0
 40
0.12
  1
TP
 72
1
 11
0.18
 21
0.12
 31
0.0
100
AcDbText
 73
2
  0
ENDBLK
  5
291
330
28F
100
AcDbEntity
  8
0
100
AcDbBlockEnd
  0
BLOCK
  5
29F
330
29E
100
AcDbEntity
  8
0
100
AcDbBlockBegin
  2
DGE_09_93_27_TV
 70
0
 10
0.0
 20
0.0
 30
0.0
  3
DGE_09_93_27_TV
  1

  0
LINE
  5
2A1
330
29E
100
AcDbEntity
  8
SIMBOLOS_DGE
100
AcDbLine
 10
-0.2
 20
0.0
 30
0.0
 11
0.2
 21
0.0
 31
0.0
  0
LINE
  5
2A2
330
29E
100
AcDbEntity
  8
SIMBOLOS_DGE
100
AcDbLine
 10
0.0
 20
0.0
 30
0.0
 11
0.0
 21
0.16
 31
0.0
  0
LINE
  5
2A3
330
29E
100
AcDbEntity
  8
SIMBOLOS_DGE
100
AcDbLine
 10
0.0
 20
0.16
 30
0.0
 11
-0.1
 21
0.16
 31
0.0
  0
LINE
  5
2A4
330
29E
100
AcDbEntity
  8
SIMBOLOS_DGE
100
AcDbLine
 10
-0.1
 20
0.16
 30
0.0
 11
-0.1
 21
0.06
 31
0.0
  0
TEXT
  5
2A5
330
29E
100
AcDbEntity
  8
SIMBOLOS_DGE
100
AcDbText
 10
0.18
 20
0.12
 30
0.0
 40
0.12
  1
TV
 72
1
 11
0.18
 21
0.12
 31
0.0
100
AcDbText
 73
2
  0
ENDBLK
  5
2A0
330
29E
100
AcDbEntity
  8
0
100
AcDbBlockEnd
  0
BLOCK
  5
2AE
330
2AD
100
AcDbEntity
  8
0
100
AcDbBlockBegin
  2
DGE_09_93_73_INTERFONO
 70
0
 10
0.0
 20
0.0
 30
0.0
  3
DGE_09_93_73_INTERFONO
  1

  0
LWPOLYLINE
  5
2B0
330
2AD
100
AcDbEntity
  8
SIMBOLOS_DGE
100
AcDbPolyline
 90
5
 70
0
 10
-0.15
 20
-0.2
 10
0.15
 20
-0.2
 10
0.15
 20
0.2
 10
-0.15
 20
0.2
 10
-0.15
 20
-0.2
  0
LINE
  5
2B1
330
2AD
100
AcDbEntity
  8
SIMBOLOS_DGE
100
AcDbLine
 10
-0.05
 20
-0.2
 30
0.0
 11
-0.05
 21
0.2
 31
0.0
  0
LWPOLYLINE
  5
2B2
330
2AD
100
AcDbEntity
  8
SIMBOLOS_DGE
100
AcDbPolyline
 90
5
 70
0
 10
0.0
 20
-0.1
 10
0.1
 20
-0.1
 10
0.1
 20
0.1
 10
0.0
 20
0.1
 10
0.0
 20
-0.1
  0
LINE
  5
2B3
330
2AD
100
AcDbEntity
  8
SIMBOLOS_DGE
100
AcDbLine
 10
0.1
 20
0.0
 30
0.0
 11
0.24
 21
0.0
 31
0.0
  0
LINE
  5
2B4
330
2AD
100
AcDbEntity
  8
SIMBOLOS_DGE
100
AcDbLine
 10
0.18
 20
0.06
 30
0.0
 11
0.24
 21
0.0
 31
0.0
  0
LINE
  5
2B5
330
2AD
100
AcDbEntity
  8
SIMBOLOS_DGE
100
AcDbLine
 10
0.18
 20
-0.06
 30
0.0
 11
0.24
 21
0.0
 31
0.0
  0
LINE
  5
2B6
330
2AD
100
AcDbEntity
  8
SIMBOLOS_DGE
100
AcDbLine
 10
0.16
 20
0.0
 30
0.0
 11
0.1
 21
0.06
 31
0.0
  0
LINE
  5
2B7
330
2AD
100
AcDbEntity
  8
SIMBOLOS_DGE
100
AcDbLine
 10
0.16
 20
0.0
 30
0.0
 11
0.1
 21
-0.06
 31
0.0
  0
ENDBLK
  5
2AF
330
2AD
100
AcDbEntity
  8
0
100
AcDbBlockEnd
  0
BLOCK
  5
2C0
330
2BF
100
AcDbEntity
  8
0
100
AcDbBlockBegin
  2
DGE_09_93_28_INTERRUPTOR
 70
0
 10
0.0
 20
0.0
 30
0.0
  3
DGE_09_93_28_INTERRUPTOR
  1

  0
CIRCLE
  5
2C2
330
2BF
100
AcDbEntity
  8
SIMBOLOS_DGE
100
AcDbCircle
 10
0.0
 20
0.0
 30
0.0
 40
0.09
  0
LINE
  5
2C3
330
2BF
100
AcDbEntity
  8
SIMBOLOS_DGE
100
AcDbLine
 10
0.06
 20
0.06
 30
0.0
 11
0.18
 21
0.18
 31
0.0
  0
ENDBLK
  5
2C1
330
2BF
100
AcDbEntity
  8
0
100
AcDbBlockEnd
  0
BLOCK
  5
2CC
330
2CB
100
AcDbEntity
  8
0
100
AcDbBlockBegin
  2
DGE_09_93_29_INTERRUPTOR_PILOTO
 70
0
 10
0.0
 20
0.0
 30
0.0
  3
DGE_09_93_29_INTERRUPTOR_PILOTO
  1

  0
CIRCLE
  5
2CE
330
2CB
100
AcDbEntity
  8
SIMBOLOS_DGE
100
AcDbCircle
 10
0.0
 20
0.0
 30
0.0
 40
0.09
  0
LINE
  5
2CF
330
2CB
100
AcDbEntity
  8
SIMBOLOS_DGE
100
AcDbLine
 10
0.06
 20
0.06
 30
0.0
 11
0.18
 21
0.18
 31
0.0
  0
LINE
  5
2D0
330
2CB
100
AcDbEntity
  8
SIMBOLOS_DGE
100
AcDbLine
 10
-0.063
 20
-0.063
 30
0.0
 11
0.063
 21
0.063
 31
0.0
  0
LINE
  5
2D1
330
2CB
100
AcDbEntity
  8
SIMBOLOS_DGE
100
AcDbLine
 10
-0.063
 20
0.063
 30
0.0
 11
0.063
 21
-0.063
 31
0.0
  0
ENDBLK
  5
2CD
330
2CB
100
AcDbEntity
  8
0
100
AcDbBlockEnd
  0
BLOCK
  5
2D9
330
2D8
100
AcDbEntity
  8
0
100
AcDbBlockBegin
  2
DGE_09_93_30_INTERRUPTOR_UNIPOLAR
 70
0
 10
0.0
 20
0.0
 30
0.0
  3
DGE_09_93_30_INTERRUPTOR_UNIPOLAR
  1

  0
CIRCLE
  5
2DB
330
2D8
100
AcDbEntity
  8
SIMBOLOS_DGE
100
AcDbCircle
 10
0.0
 20
0.0
 30
0.0
 40
0.09
  0
LINE
  5
2DC
330
2D8
100
AcDbEntity
  8
SIMBOLOS_DGE
100
AcDbLine
 10
0.06
 20
0.06
 30
0.0
 11
0.18
 21
0.18
 31
0.0
  0
TEXT
  5
2DD
330
2D8
100
AcDbEntity
  8
SIMBOLOS_DGE
100
AcDbText
 10
-0.05
 20
-0.24
 30
0.0
 40
0.13
  1
S
 72
1
 11
-0.05
 21
-0.24
 31
0.0
100
AcDbText
 73
2
  0
ENDBLK
  5
2DA
330
2D8
100
AcDbEntity
  8
0
100
AcDbBlockEnd
  0
BLOCK
  5
2E6
330
2E5
100
AcDbEntity
  8
0
100
AcDbBlockBegin
  2
DGE_09_93_31_INTERRUPTOR_BIPOLAR
 70
0
 10
0.0
 20
0.0
 30
0.0
  3
DGE_09_93_31_INTERRUPTOR_BIPOLAR
  1

  0
CIRCLE
  5
2E8
330
2E5
100
AcDbEntity
  8
SIMBOLOS_DGE
100
AcDbCircle
 10
0.0
 20
0.0
 30
0.0
 40
0.09
  0
LINE
  5
2E9
330
2E5
100
AcDbEntity
  8
SIMBOLOS_DGE
100
AcDbLine
 10
0.06
 20
0.06
 30
0.0
 11
0.18
 21
0.18
 31
0.0
  0
LINE
  5
2EA
330
2E5
100
AcDbEntity
  8
SIMBOLOS_DGE
100
AcDbLine
 10
0.18
 20
0.18
 30
0.0
 11
0.24
 21
0.1
 31
0.0
  0
TEXT
  5
2EB
330
2E5
100
AcDbEntity
  8
SIMBOLOS_DGE
100
AcDbText
 10
-0.05
 20
-0.24
 30
0.0
 40
0.13
  1
S2
 72
1
 11
-0.05
 21
-0.24
 31
0.0
100
AcDbText
 73
2
  0
ENDBLK
  5
2E7
330
2E5
100
AcDbEntity
  8
0
100
AcDbBlockEnd
  0
BLOCK
  5
2F3
330
2F2
100
AcDbEntity
  8
0
100
AcDbBlockBegin
  2
DGE_09_93_32_INTERRUPTOR_CONMUTADO
 70
0
 10
0.0
 20
0.0
 30
0.0
  3
DGE_09_93_32_INTERRUPTOR_CONMUTADO
  1

  0
CIRCLE
  5
2F5
330
2F2
100
AcDbEntity
  8
SIMBOLOS_DGE
100
AcDbCircle
 10
0.0
 20
0.0
 30
0.0
 40
0.09
  0
LINE
  5
2F6
330
2F2
100
AcDbEntity
  8
SIMBOLOS_DGE
100
AcDbLine
 10
0.06
 20
0.06
 30
0.0
 11
0.18
 21
0.18
 31
0.0
  0
TEXT
  5
2F7
330
2F2
100
AcDbEntity
  8
SIMBOLOS_DGE
100
AcDbText
 10
-0.05
 20
-0.24
 30
0.0
 40
0.13
  1
S3
 72
1
 11
-0.05
 21
-0.24
 31
0.0
100
AcDbText
 73
2
  0
ENDBLK
  5
2F4
330
2F2
100
AcDbEntity
  8
0
100
AcDbBlockEnd
  0
BLOCK
  5
300
330
2FF
100
AcDbEntity
  8
0
100
AcDbBlockBegin
  2
DGE_09_93_34_CONMUTADOR_UNIPOLAR
 70
0
 10
0.0
 20
0.0
 30
0.0
  3
DGE_09_93_34_CONMUTADOR_UNIPOLAR
  1

  0
CIRCLE
  5
302
330
2FF
100
AcDbEntity
  8
SIMBOLOS_DGE
100
AcDbCircle
 10
0.0
 20
0.0
 30
0.0
 40
0.09
  0
LINE
  5
303
330
2FF
100
AcDbEntity
  8
SIMBOLOS_DGE
100
AcDbLine
 10
0.05
 20
0.07
 30
0.0
 11
0.14
 21
0.2
 31
0.0
  0
LINE
  5
304
330
2FF
100
AcDbEntity
  8
SIMBOLOS_DGE
100
AcDbLine
 10
-0.05
 20
0.07
 30
0.0
 11
-0.14
 21
0.2
 31
0.0
  0
ENDBLK
  5
301
330
2FF
100
AcDbEntity
  8
0
100
AcDbBlockEnd
  0
BLOCK
  5
30D
330
30C
100
AcDbEntity
  8
0
100
AcDbBlockBegin
  2
DGE_09_93_36_CONMUTADOR_INTERMEDIO
 70
0
 10
0.0
 20
0.0
 30
0.0
  3
DGE_09_93_36_CONMUTADOR_INTERMEDIO
  1

  0
CIRCLE
  5
30F
330
30C
100
AcDbEntity
  8
SIMBOLOS_DGE
100
AcDbCircle
 10
0.0
 20
0.0
 30
0.0
 40
0.09
  0
LINE
  5
310
330
30C
100
AcDbEntity
  8
SIMBOLOS_DGE
100
AcDbLine
 10
0.06
 20
0.06
 30
0.0
 11
0.16
 21
0.16
 31
0.0
  0
LINE
  5
311
330
30C
100
AcDbEntity
  8
SIMBOLOS_DGE
100
AcDbLine
 10
0.16
 20
0.16
 30
0.0
 11
0.22
 21
0.1
 31
0.0
  0
LINE
  5
312
330
30C
100
AcDbEntity
  8
SIMBOLOS_DGE
100
AcDbLine
 10
-0.06
 20
0.06
 30
0.0
 11
-0.16
 21
0.16
 31
0.0
  0
LINE
  5
313
330
30C
100
AcDbEntity
  8
SIMBOLOS_DGE
100
AcDbLine
 10
-0.16
 20
0.16
 30
0.0
 11
-0.22
 21
0.1
 31
0.0
  0
LINE
  5
314
330
30C
100
AcDbEntity
  8
SIMBOLOS_DGE
100
AcDbLine
 10
-0.06
 20
-0.06
 30
0.0
 11
-0.16
 21
-0.16
 31
0.0
  0
LINE
  5
315
330
30C
100
AcDbEntity
  8
SIMBOLOS_DGE
100
AcDbLine
 10
-0.16
 20
-0.16
 30
0.0
 11
-0.22
 21
-0.1
 31
0.0
  0
LINE
  5
316
330
30C
100
AcDbEntity
  8
SIMBOLOS_DGE
100
AcDbLine
 10
0.06
 20
-0.06
 30
0.0
 11
0.16
 21
-0.16
 31
0.0
  0
LINE
  5
317
330
30C
100
AcDbEntity
  8
SIMBOLOS_DGE
100
AcDbLine
 10
0.16
 20
-0.16
 30
0.0
 11
0.22
 21
-0.1
 31
0.0
  0
ENDBLK
  5
30E
330
30C
100
AcDbEntity
  8
0
100
AcDbBlockEnd
  0
BLOCK
  5
320
330
31F
100
AcDbEntity
  8
0
100
AcDbBlockBegin
  2
DGE_09_93_37_DIMMER
 70
0
 10
0.0
 20
0.0
 30
0.0
  3
DGE_09_93_37_DIMMER
  1

  0
CIRCLE
  5
322
330
31F
100
AcDbEntity
  8
SIMBOLOS_DGE
100
AcDbCircle
 10
0.0
 20
0.0
 30
0.0
 40
0.09
  0
LINE
  5
323
330
31F
100
AcDbEntity
  8
SIMBOLOS_DGE
100
AcDbLine
 10
0.06
 20
0.06
 30
0.0
 11
0.18
 21
0.18
 31
0.0
  0
LINE
  5
324
330
31F
100
AcDbEntity
  8
SIMBOLOS_DGE
100
AcDbLine
 10
0.12
 20
0.24
 30
0.0
 11
0.24
 21
0.12
 31
0.0
  0
ENDBLK
  5
321
330
31F
100
AcDbEntity
  8
0
100
AcDbBlockEnd
  0
BLOCK
  5
32D
330
32C
100
AcDbEntity
  8
0
100
AcDbBlockBegin
  2
DGE_09_93_38_INTERRUPTOR_TIRADOR
 70
0
 10
0.0
 20
0.0
 30
0.0
  3
DGE_09_93_38_INTERRUPTOR_TIRADOR
  1

  0
CIRCLE
  5
32F
330
32C
100
AcDbEntity
  8
SIMBOLOS_DGE
100
AcDbCircle
 10
0.0
 20
0.0
 30
0.0
 40
0.09
  0
LINE
  5
330
330
32C
100
AcDbEntity
  8
SIMBOLOS_DGE
100
AcDbLine
 10
0.06
 20
0.06
 30
0.0
 11
0.18
 21
0.18
 31
0.0
  0
LINE
  5
331
330
32C
100
AcDbEntity
  8
SIMBOLOS_DGE
100
AcDbLine
 10
0.14
 20
0.18
 30
0.0
 11
0.18
 21
0.18
 31
0.0
  0
LINE
  5
332
330
32C
100
AcDbEntity
  8
SIMBOLOS_DGE
100
AcDbLine
 10
0.18
 20
0.14
 30
0.0
 11
0.18
 21
0.18
 31
0.0
  0
TEXT
  5
333
330
32C
100
AcDbEntity
  8
SIMBOLOS_DGE
100
AcDbText
 10
-0.05
 20
-0.24
 30
0.0
 40
0.13
  1
ST
 72
1
 11
-0.05
 21
-0.24
 31
0.0
100
AcDbText
 73
2
  0
ENDBLK
  5
32E
330
32C
100
AcDbEntity
  8
0
100
AcDbBlockEnd
  0
BLOCK
  5
33C
330
33B
100
AcDbEntity
  8
0
100
AcDbBlockBegin
  2
DGE_09_93_47_INTERRUPTOR_HORARIO
 70
0
 10
0.0
 20
0.0
 30
0.0
  3
DGE_09_93_47_INTERRUPTOR_HORARIO
  1

  0
LWPOLYLINE
  5
33E
330
33B
100
AcDbEntity
  8
SIMBOLOS_DGE
100
AcDbPolyline
 90
5
 70
0
 10
-0.26
 20
-0.15
 10
0.26
 20
-0.15
 10
0.26
 20
0.15
 10
-0.26
 20
0.15
 10
-0.26
 20
-0.15
  0
CIRCLE
  5
33F
330
33B
100
AcDbEntity
  8
SIMBOLOS_DGE
100
AcDbCircle
 10
-0.13
 20
0.0
 30
0.0
 40
0.08
  0
LINE
  5
340
330
33B
100
AcDbEntity
  8
SIMBOLOS_DGE
100
AcDbLine
 10
-0.13
 20
0.0
 30
0.0
 11
-0.13
 21
0.04
 31
0.0
  0
LINE
  5
341
330
33B
100
AcDbEntity
  8
SIMBOLOS_DGE
100
AcDbLine
 10
-0.13
 20
0.0
 30
0.0
 11
-0.09
 21
-0.02
 31
0.0
  0
LINE
  5
342
330
33B
100
AcDbEntity
  8
SIMBOLOS_DGE
100
AcDbLine
 10
0.02
 20
0.0
 30
0.0
 11
0.1
 21
0.0
 31
0.0
  0
LINE
  5
343
330
33B
100
AcDbEntity
  8
SIMBOLOS_DGE
100
AcDbLine
 10
0.1
 20
0.0
 30
0.0
 11
0.2
 21
0.08
 31
0.0
  0
LINE
  5
344
330
33B
100
AcDbEntity
  8
SIMBOLOS_DGE
100
AcDbLine
 10
0.2
 20
0.0
 30
0.0
 11
0.24
 21
0.0
 31
0.0
  0
TEXT
  5
345
330
33B
100
AcDbEntity
  8
SIMBOLOS_DGE
100
AcDbText
 10
0.0
 20
-0.32
 30
0.0
 40
0.13
  1
St
 72
1
 11
0.0
 21
-0.32
 31
0.0
100
AcDbText
 73
2
  0
ENDBLK
  5
33D
330
33B
100
AcDbEntity
  8
0
100
AcDbBlockEnd
  0
BLOCK
  5
34F
330
34E
100
AcDbEntity
  8
0
100
AcDbBlockBegin
  2
DGE_09_93_49_TOMA_ILUMINACION_TECHO
 70
0
 10
0.0
 20
0.0
 30
0.0
  3
DGE_09_93_49_TOMA_ILUMINACION_TECHO
  1

  0
LINE
  5
351
330
34E
100
AcDbEntity
  8
SIMBOLOS_DGE
100
AcDbLine
 10
-0.25
 20
0.0
 30
0.0
 11
0.25
 21
0.0
 31
0.0
  0
LINE
  5
352
330
34E
100
AcDbEntity
  8
SIMBOLOS_DGE
100
AcDbLine
 10
-0.08
 20
-0.08
 30
0.0
 11
0.08
 21
0.08
 31
0.0
  0
LINE
  5
353
330
34E
100
AcDbEntity
  8
SIMBOLOS_DGE
100
AcDbLine
 10
-0.08
 20
0.08
 30
0.0
 11
0.08
 21
-0.08
 31
0.0
  0
ENDBLK
  5
350
330
34E
100
AcDbEntity
  8
0
100
AcDbBlockEnd
  0
BLOCK
  5
35C
330
35B
100
AcDbEntity
  8
0
100
AcDbBlockBegin
  2
DGE_09_93_50_TOMA_ILUMINACION_PARED
 70
0
 10
0.0
 20
0.0
 30
0.0
  3
DGE_09_93_50_TOMA_ILUMINACION_PARED
  1

  0
LINE
  5
35E
330
35B
100
AcDbEntity
  8
SIMBOLOS_DGE
100
AcDbLine
 10
-0.2
 20
-0.15
 30
0.0
 11
-0.2
 21
0.15
 31
0.0
  0
LINE
  5
35F
330
35B
100
AcDbEntity
  8
SIMBOLOS_DGE
100
AcDbLine
 10
-0.2
 20
0.0
 30
0.0
 11
0.15
 21
0.0
 31
0.0
  0
LINE
  5
360
330
35B
100
AcDbEntity
  8
SIMBOLOS_DGE
100
AcDbLine
 10
0.09
 20
-0.06
 30
0.0
 11
0.21
 21
0.06
 31
0.0
  0
LINE
  5
361
330
35B
100
AcDbEntity
  8
SIMBOLOS_DGE
100
AcDbLine
 10
0.09
 20
0.06
 30
0.0
 11
0.21
 21
-0.06
 31
0.0
  0
ENDBLK
  5
35D
330
35B
100
AcDbEntity
  8
0
100
AcDbBlockEnd
  0
BLOCK
  5
369
330
368
100
AcDbEntity
  8
0
100
AcDbBlockBegin
  2
DGE_09_93_51_SALIDA_TECHO
 70
0
 10
0.0
 20
0.0
 30
0.0
  3
DGE_09_93_51_SALIDA_TECHO
  1

  0
CIRCLE
  5
36B
330
368
100
AcDbEntity
  8
SIMBOLOS_DGE
100
AcDbCircle
 10
0.0
 20
0.0
 30
0.0
 40
0.1
  0
LINE
  5
36C
330
368
100
AcDbEntity
  8
SIMBOLOS_DGE
100
AcDbLine
 10
0.0
 20
0.1
 30
0.0
 11
0.0
 21
0.18
 31
0.0
  0
LINE
  5
36D
330
368
100
AcDbEntity
  8
SIMBOLOS_DGE
100
AcDbLine
 10
0.0
 20
-0.1
 30
0.0
 11
0.0
 21
-0.18
 31
0.0
  0
LINE
  5
36E
330
368
100
AcDbEntity
  8
SIMBOLOS_DGE
100
AcDbLine
 10
0.1
 20
0.0
 30
0.0
 11
0.18
 21
0.0
 31
0.0
  0
LINE
  5
36F
330
368
100
AcDbEntity
  8
SIMBOLOS_DGE
100
AcDbLine
 10
-0.1
 20
0.0
 30
0.0
 11
-0.18
 21
0.0
 31
0.0
  0
CIRCLE
  5
370
330
368
100
AcDbEntity
  8
SIMBOLOS_DGE
100
AcDbCircle
 10
0.0
 20
0.0
 30
0.0
 40
0.02
  0
HATCH
  5
371
330
368
100
AcDbEntity
  8
SIMBOLOS_DGE
 62
7
100
AcDbHatch
 10
0.0
 20
0.0
 30
0.0
210
0.0
220
0.0
230
1.0
  2
SOLID
 70
1
 71
0
 91
1
 92
1
 93
1
 72
2
 10
0.0
 20
0.0
 40
0.02
 50
0
 51
360
 73
1
 97
0
 75
1
 76
1
 98
0
  0
ENDBLK
  5
36A
330
368
100
AcDbEntity
  8
0
100
AcDbBlockEnd
  0
BLOCK
  5
37A
330
379
100
AcDbEntity
  8
0
100
AcDbBlockBegin
  2
DGE_09_93_52_SALIDA_PARED
 70
0
 10
0.0
 20
0.0
 30
0.0
  3
DGE_09_93_52_SALIDA_PARED
  1

  0
LINE
  5
37C
330
379
100
AcDbEntity
  8
SIMBOLOS_DGE
100
AcDbLine
 10
-0.22
 20
-0.15
 30
0.0
 11
-0.22
 21
0.15
 31
0.0
  0
LINE
  5
37D
330
379
100
AcDbEntity
  8
SIMBOLOS_DGE
100
AcDbLine
 10
-0.22
 20
0.0
 30
0.0
 11
-0.1
 21
0.0
 31
0.0
  0
CIRCLE
  5
37E
330
379
100
AcDbEntity
  8
SIMBOLOS_DGE
100
AcDbCircle
 10
0.0
 20
0.0
 30
0.0
 40
0.1
  0
LINE
  5
37F
330
379
100
AcDbEntity
  8
SIMBOLOS_DGE
100
AcDbLine
 10
0.0
 20
0.1
 30
0.0
 11
0.0
 21
0.18
 31
0.0
  0
LINE
  5
380
330
379
100
AcDbEntity
  8
SIMBOLOS_DGE
100
AcDbLine
 10
0.0
 20
-0.1
 30
0.0
 11
0.0
 21
-0.18
 31
0.0
  0
LINE
  5
381
330
379
100
AcDbEntity
  8
SIMBOLOS_DGE
100
AcDbLine
 10
0.1
 20
0.0
 30
0.0
 11
0.18
 21
0.0
 31
0.0
  0
LINE
  5
382
330
379
100
AcDbEntity
  8
SIMBOLOS_DGE
100
AcDbLine
 10
-0.1
 20
0.0
 30
0.0
 11
-0.18
 21
0.0
 31
0.0
  0
CIRCLE
  5
383
330
379
100
AcDbEntity
  8
SIMBOLOS_DGE
100
AcDbCircle
 10
0.0
 20
0.0
 30
0.0
 40
0.02
  0
HATCH
  5
384
330
379
100
AcDbEntity
  8
SIMBOLOS_DGE
 62
7
100
AcDbHatch
 10
0.0
 20
0.0
 30
0.0
210
0.0
220
0.0
230
1.0
  2
SOLID
 70
1
 71
0
 91
1
 92
1
 93
1
 72
2
 10
0.0
 20
0.0
 40
0.02
 50
0
 51
360
 73
1
 97
0
 75
1
 76
1
 98
0
  0
ENDBLK
  5
37B
330
379
100
AcDbEntity
  8
0
100
AcDbBlockEnd
  0
BLOCK
  5
38D
330
38C
100
AcDbEntity
  8
0
100
AcDbBlockBegin
  2
DGE_09_93_53_SPOT_EMPOTRADO
 70
0
 10
0.0
 20
0.0
 30
0.0
  3
DGE_09_93_53_SPOT_EMPOTRADO
  1

  0
CIRCLE
  5
38F
330
38C
100
AcDbEntity
  8
SIMBOLOS_DGE
100
AcDbCircle
 10
0.0
 20
0.0
 30
0.0
 40
0.1
  0
HATCH
  5
390
330
38C
100
AcDbEntity
  8
SIMBOLOS_DGE
 62
7
100
AcDbHatch
 10
0.0
 20
0.0
 30
0.0
210
0.0
220
0.0
230
1.0
  2
SOLID
 70
1
 71
0
 91
1
 92
1
 93
1
 72
2
 10
0.0
 20
0.0
 40
0.1
 50
0
 51
360
 73
1
 97
0
 75
1
 76
1
 98
0
  0
LINE
  5
391
330
38C
100
AcDbEntity
  8
SIMBOLOS_DGE
100
AcDbLine
 10
0.0
 20
0.1
 30
0.0
 11
0.0
 21
0.18
 31
0.0
  0
LINE
  5
392
330
38C
100
AcDbEntity
  8
SIMBOLOS_DGE
100
AcDbLine
 10
0.0
 20
-0.1
 30
0.0
 11
0.0
 21
-0.18
 31
0.0
  0
LINE
  5
393
330
38C
100
AcDbEntity
  8
SIMBOLOS_DGE
100
AcDbLine
 10
0.1
 20
0.0
 30
0.0
 11
0.18
 21
0.0
 31
0.0
  0
LINE
  5
394
330
38C
100
AcDbEntity
  8
SIMBOLOS_DGE
100
AcDbLine
 10
-0.1
 20
0.0
 30
0.0
 11
-0.18
 21
0.0
 31
0.0
  0
ENDBLK
  5
38E
330
38C
100
AcDbEntity
  8
0
100
AcDbBlockEnd
  0
BLOCK
  5
39C
330
39B
100
AcDbEntity
  8
0
100
AcDbBlockBegin
  2
DGE_09_93_55_FLUORESCENTE_TECHO
 70
0
 10
0.0
 20
0.0
 30
0.0
  3
DGE_09_93_55_FLUORESCENTE_TECHO
  1

  0
LWPOLYLINE
  5
39E
330
39B
100
AcDbEntity
  8
SIMBOLOS_DGE
100
AcDbPolyline
 90
5
 70
0
 10
-0.36
 20
-0.09
 10
0.36
 20
-0.09
 10
0.36
 20
0.09
 10
-0.36
 20
0.09
 10
-0.36
 20
-0.09
  0
CIRCLE
  5
39F
330
39B
100
AcDbEntity
  8
SIMBOLOS_DGE
100
AcDbCircle
 10
0.0
 20
0.0
 30
0.0
 40
0.05
  0
ENDBLK
  5
39D
330
39B
100
AcDbEntity
  8
0
100
AcDbBlockEnd
  0
BLOCK
  5
3A8
330
3A7
100
AcDbEntity
  8
0
100
AcDbBlockBegin
  2
DGE_09_93_56_FLUORESCENTE_EMPOTRADO
 70
0
 10
0.0
 20
0.0
 30
0.0
  3
DGE_09_93_56_FLUORESCENTE_EMPOTRADO
  1

  0
LWPOLYLINE
  5
3AA
330
3A7
100
AcDbEntity
  8
SIMBOLOS_DGE
100
AcDbPolyline
 90
5
 70
0
 10
-0.36
 20
-0.09
 10
0.36
 20
-0.09
 10
0.36
 20
0.09
 10
-0.36
 20
0.09
 10
-0.36
 20
-0.09
  0
CIRCLE
  5
3AB
330
3A7
100
AcDbEntity
  8
SIMBOLOS_DGE
100
AcDbCircle
 10
0.0
 20
0.0
 30
0.0
 40
0.05
  0
HATCH
  5
3AC
330
3A7
100
AcDbEntity
  8
SIMBOLOS_DGE
 62
7
100
AcDbHatch
 10
0.0
 20
0.0
 30
0.0
210
0.0
220
0.0
230
1.0
  2
SOLID
 70
1
 71
0
 91
1
 92
1
 93
1
 72
2
 10
0.0
 20
0.0
 40
0.05
 50
0
 51
360
 73
1
 97
0
 75
1
 76
1
 98
0
  0
ENDBLK
  5
3A9
330
3A7
100
AcDbEntity
  8
0
100
AcDbBlockEnd
  0
BLOCK
  5
3B5
330
3B4
100
AcDbEntity
  8
0
100
AcDbBlockBegin
  2
DGE_09_93_59_LAMPARA
 70
0
 10
0.0
 20
0.0
 30
0.0
  3
DGE_09_93_59_LAMPARA
  1

  0
CIRCLE
  5
3B7
330
3B4
100
AcDbEntity
  8
SIMBOLOS_DGE
100
AcDbCircle
 10
0.0
 20
0.0
 30
0.0
 40
0.15
  0
LINE
  5
3B8
330
3B4
100
AcDbEntity
  8
SIMBOLOS_DGE
100
AcDbLine
 10
-0.106
 20
-0.106
 30
0.0
 11
0.106
 21
0.106
 31
0.0
  0
LINE
  5
3B9
330
3B4
100
AcDbEntity
  8
SIMBOLOS_DGE
100
AcDbLine
 10
-0.106
 20
0.106
 30
0.0
 11
0.106
 21
-0.106
 31
0.0
  0
ENDBLK
  5
3B6
330
3B4
100
AcDbEntity
  8
0
100
AcDbBlockEnd
  0
BLOCK
  5
3C1
330
3C0
100
AcDbEntity
  8
0
100
AcDbBlockBegin
  2
DGE_09_93_60_LUMINARIA_G
 70
0
 10
0.0
 20
0.0
 30
0.0
  3
DGE_09_93_60_LUMINARIA_G
  1

  0
LINE
  5
3C3
330
3C0
100
AcDbEntity
  8
SIMBOLOS_DGE
100
AcDbLine
 10
-0.24
 20
0.0
 30
0.0
 11
0.24
 21
0.0
 31
0.0
  0
LINE
  5
3C4
330
3C0
100
AcDbEntity
  8
SIMBOLOS_DGE
100
AcDbLine
 10
-0.24
 20
-0.08
 30
0.0
 11
-0.24
 21
0.08
 31
0.0
  0
LINE
  5
3C5
330
3C0
100
AcDbEntity
  8
SIMBOLOS_DGE
100
AcDbLine
 10
0.24
 20
-0.08
 30
0.0
 11
0.24
 21
0.08
 31
0.0
  0
ENDBLK
  5
3C2
330
3C0
100
AcDbEntity
  8
0
100
AcDbBlockEnd
  0
BLOCK
  5
3CD
330
3CC
100
AcDbEntity
  8
0
100
AcDbBlockBegin
  2
DGE_09_93_61_LUMINARIA_TRIPLE
 70
0
 10
0.0
 20
0.0
 30
0.0
  3
DGE_09_93_61_LUMINARIA_TRIPLE
  1

  0
LINE
  5
3CF
330
3CC
100
AcDbEntity
  8
SIMBOLOS_DGE
100
AcDbLine
 10
-0.24
 20
0.06
 30
0.0
 11
0.24
 21
0.06
 31
0.0
  0
LINE
  5
3D0
330
3CC
100
AcDbEntity
  8
SIMBOLOS_DGE
100
AcDbLine
 10
-0.24
 20
0.0
 30
0.0
 11
0.24
 21
0.0
 31
0.0
  0
LINE
  5
3D1
330
3CC
100
AcDbEntity
  8
SIMBOLOS_DGE
100
AcDbLine
 10
-0.24
 20
-0.06
 30
0.0
 11
0.24
 21
-0.06
 31
0.0
  0
LINE
  5
3D2
330
3CC
100
AcDbEntity
  8
SIMBOLOS_DGE
100
AcDbLine
 10
-0.24
 20
-0.08
 30
0.0
 11
-0.24
 21
0.08
 31
0.0
  0
LINE
  5
3D3
330
3CC
100
AcDbEntity
  8
SIMBOLOS_DGE
100
AcDbLine
 10
0.24
 20
-0.08
 30
0.0
 11
0.24
 21
0.08
 31
0.0
  0
ENDBLK
  5
3CE
330
3CC
100
AcDbEntity
  8
0
100
AcDbBlockEnd
  0
BLOCK
  5
3DC
330
3DB
100
AcDbEntity
  8
0
100
AcDbBlockBegin
  2
DGE_09_93_63_REFLECTOR
 70
0
 10
0.0
 20
0.0
 30
0.0
  3
DGE_09_93_63_REFLECTOR
  1

  0
CIRCLE
  5
3DE
330
3DB
100
AcDbEntity
  8
SIMBOLOS_DGE
100
AcDbCircle
 10
0.0
 20
0.0
 30
0.0
 40
0.12
  0
LINE
  5
3DF
330
3DB
100
AcDbEntity
  8
SIMBOLOS_DGE
100
AcDbLine
 10
-0.085
 20
-0.085
 30
0.0
 11
0.085
 21
0.085
 31
0.0
  0
LINE
  5
3E0
330
3DB
100
AcDbEntity
  8
SIMBOLOS_DGE
100
AcDbLine
 10
-0.085
 20
0.085
 30
0.0
 11
0.085
 21
-0.085
 31
0.0
  0
ARC
  5
3E1
330
3DB
100
AcDbEntity
  8
SIMBOLOS_DGE
100
AcDbCircle
 10
0.0
 20
0.0
 30
0.0
 40
0.18
100
AcDbArc
 50
120.0
 51
240.0
  0
ENDBLK
  5
3DD
330
3DB
100
AcDbEntity
  8
0
100
AcDbBlockEnd
  0
BLOCK
  5
3E9
330
3E8
100
AcDbEntity
  8
0
100
AcDbBlockBegin
  2
DGE_09_93_67_LUZ_EMERGENCIA
 70
0
 10
0.0
 20
0.0
 30
0.0
  3
DGE_09_93_67_LUZ_EMERGENCIA
  1

  0
LINE
  5
3EB
330
3E8
100
AcDbEntity
  8
SIMBOLOS_DGE
100
AcDbLine
 10
-0.16
 20
-0.16
 30
0.0
 11
0.16
 21
0.16
 31
0.0
  0
LINE
  5
3EC
330
3E8
100
AcDbEntity
  8
SIMBOLOS_DGE
100
AcDbLine
 10
-0.16
 20
0.16
 30
0.0
 11
0.16
 21
-0.16
 31
0.0
  0
ENDBLK
  5
3EA
330
3E8
100
AcDbEntity
  8
0
100
AcDbBlockEnd
  0
BLOCK
  5
3F5
330
3F4
100
AcDbEntity
  8
0
100
AcDbBlockBegin
  2
DGE_09_93_68_BLOQUE_EMERGENCIA
 70
0
 10
0.0
 20
0.0
 30
0.0
  3
DGE_09_93_68_BLOQUE_EMERGENCIA
  1

  0
LWPOLYLINE
  5
3F7
330
3F4
100
AcDbEntity
  8
SIMBOLOS_DGE
100
AcDbPolyline
 90
5
 70
0
 10
-0.22
 20
-0.16
 10
0.22
 20
-0.16
 10
0.22
 20
0.16
 10
-0.22
 20
0.16
 10
-0.22
 20
-0.16
  0
LINE
  5
3F8
330
3F4
100
AcDbEntity
  8
SIMBOLOS_DGE
100
AcDbLine
 10
-0.22
 20
-0.16
 30
0.0
 11
0.22
 21
0.16
 31
0.0
  0
LINE
  5
3F9
330
3F4
100
AcDbEntity
  8
SIMBOLOS_DGE
100
AcDbLine
 10
-0.22
 20
0.16
 30
0.0
 11
0.22
 21
-0.16
 31
0.0
  0
ENDBLK
  5
3F6
330
3F4
100
AcDbEntity
  8
0
100
AcDbBlockEnd
  0
BLOCK
  5
403
330
402
100
AcDbEntity
  8
0
100
AcDbBlockBegin
  2
DGE_09_93_69_TERMA
 70
0
 10
0.0
 20
0.0
 30
0.0
  3
DGE_09_93_69_TERMA
  1

  0
CIRCLE
  5
405
330
402
100
AcDbEntity
  8
SIMBOLOS_DGE
100
AcDbCircle
 10
0.0
 20
0.0
 30
0.0
 40
0.2
  0
LINE
  5
406
330
402
100
AcDbEntity
  8
SIMBOLOS_DGE
100
AcDbLine
 10
-0.12
 20
-0.16
 30
0.0
 11
-0.12
 21
0.16
 31
0.0
  0
LINE
  5
407
330
402
100
AcDbEntity
  8
SIMBOLOS_DGE
100
AcDbLine
 10
-0.06
 20
-0.19
 30
0.0
 11
-0.06
 21
0.19
 31
0.0
  0
LINE
  5
408
330
402
100
AcDbEntity
  8
SIMBOLOS_DGE
100
AcDbLine
 10
0.0
 20
-0.2
 30
0.0
 11
0.0
 21
0.2
 31
0.0
  0
LINE
  5
409
330
402
100
AcDbEntity
  8
SIMBOLOS_DGE
100
AcDbLine
 10
0.06
 20
-0.19
 30
0.0
 11
0.06
 21
0.19
 31
0.0
  0
LINE
  5
40A
330
402
100
AcDbEntity
  8
SIMBOLOS_DGE
100
AcDbLine
 10
0.12
 20
-0.16
 30
0.0
 11
0.12
 21
0.16
 31
0.0
  0
ENDBLK
  5
404
330
402
100
AcDbEntity
  8
0
100
AcDbBlockEnd
  0
BLOCK
  5
413
330
412
100
AcDbEntity
  8
0
100
AcDbBlockBegin
  2
DGE_09_93_70_VENTILADOR
 70
0
 10
0.0
 20
0.0
 30
0.0
  3
DGE_09_93_70_VENTILADOR
  1

  0
LWPOLYLINE
  5
415
330
412
100
AcDbEntity
  8
SIMBOLOS_DGE
100
AcDbPolyline
 90
5
 70
0
 10
-0.2
 20
-0.2
 10
0.2
 20
-0.2
 10
0.2
 20
0.2
 10
-0.2
 20
0.2
 10
-0.2
 20
-0.2
  0
ARC
  5
416
330
412
100
AcDbEntity
  8
SIMBOLOS_DGE
100
AcDbCircle
 10
-0.075
 20
0.0
 30
0.0
 40
0.075
100
AcDbArc
 50
0.0
 51
360.0
  0
ARC
  5
417
330
412
100
AcDbEntity
  8
SIMBOLOS_DGE
100
AcDbCircle
 10
0.075
 20
0.0
 30
0.0
 40
0.075
100
AcDbArc
 50
0.0
 51
360.0
  0
ENDBLK
  5
414
330
412
100
AcDbEntity
  8
0
100
AcDbBlockEnd
  0
BLOCK
  5
41F
330
41E
100
AcDbEntity
  8
0
100
AcDbBlockBegin
  2
DGE_09_93_72_CERRADURA
 70
0
 10
0.0
 20
0.0
 30
0.0
  3
DGE_09_93_72_CERRADURA
  1

  0
LINE
  5
421
330
41E
100
AcDbEntity
  8
SIMBOLOS_DGE
100
AcDbLine
 10
-0.2
 20
-0.15
 30
0.0
 11
0.2
 21
-0.15
 31
0.0
  0
LINE
  5
422
330
41E
100
AcDbEntity
  8
SIMBOLOS_DGE
100
AcDbLine
 10
-0.2
 20
-0.15
 30
0.0
 11
0.2
 21
0.15
 31
0.0
  0
LINE
  5
423
330
41E
100
AcDbEntity
  8
SIMBOLOS_DGE
100
AcDbLine
 10
0.2
 20
-0.15
 30
0.0
 11
0.2
 21
0.15
 31
0.0
  0
ARC
  5
424
330
41E
100
AcDbEntity
  8
SIMBOLOS_DGE
100
AcDbCircle
 10
-0.08
 20
-0.1
 30
0.0
 40
0.04
100
AcDbArc
 50
0.0
 51
180.0
  0
ARC
  5
425
330
41E
100
AcDbEntity
  8
SIMBOLOS_DGE
100
AcDbCircle
 10
0.0
 20
-0.1
 30
0.0
 40
0.04
100
AcDbArc
 50
0.0
 51
180.0
  0
ARC
  5
426
330
41E
100
AcDbEntity
  8
SIMBOLOS_DGE
100
AcDbCircle
 10
0.08
 20
-0.1
 30
0.0
 40
0.04
100
AcDbArc
 50
0.0
 51
180.0
  0
ENDBLK
  5
420
330
41E
100
AcDbEntity
  8
0
100
AcDbBlockEnd
  0
ENDSEC
  0
SECTION
  2
ENTITIES
  0
TEXT
  5
36
330
17
100
AcDbEntity
  8
TITULOS
100
AcDbText
 10
0.0
 20
-10.0
 30
0.0
 40
3.5
  1
=== CATEGORIA: ESTACIONES Y SUBESTACIONES ===
 11
0.0
 21
-10.0
 31
0.0
100
AcDbText
 73
2
  0
LWPOLYLINE
  5
37
330
17
100
AcDbEntity
  8
CELDAS_GUIA
100
AcDbPolyline
 90
5
 70
0
 10
0.0
 20
-22.0
 10
60.0
 20
-22.0
 10
60.0
 20
-57.0
 10
0.0
 20
-57.0
 10
0.0
 20
-22.0
  0
INSERT
  5
44
330
17
100
AcDbEntity
  8
SIMBOLOS_DGE
100
AcDbBlockReference
  2
DGE_09_90_04_CENTRAL_HIDROELECTRICA
 10
15.0
 20
-39.5
 30
0.0
 41
45.0
 42
45.0
 43
45.0
  0
TEXT
  5
46
330
17
100
AcDbEntity
  8
TEXTOS_CODIGOS
100
AcDbText
 10
30.0
 20
-30.0
 30
0.0
 40
1.8
  1
COD: 09-90-04
 11
30.0
 21
-30.0
 31
0.0
100
AcDbText
 73
2
  0
TEXT
  5
47
330
17
100
AcDbEntity
  8
TEXTOS_NOMBRES
100
AcDbText
 10
30.0
 20
-37.0
 30
0.0
 40
1.4
  1
Central hidroelectrica
 11
30.0
 21
-37.0
 31
0.0
100
AcDbText
 73
2
  0
TEXT
  5
48
330
17
100
AcDbEntity
  8
TEXTOS_NOMBRES
100
AcDbText
 10
30.0
 20
-42.0
 30
0.0
 40
1.4
  1
(En servicio)
 11
30.0
 21
-42.0
 31
0.0
100
AcDbText
 73
2
  0
TEXT
  5
49
330
17
100
AcDbEntity
  8
OBSERVACIONES
100
AcDbText
 10
30.0
 20
-48.0
 30
0.0
 40
1.0
  1
* Simbolo de infraestructura d...
 11
30.0
 21
-48.0
 31
0.0
100
AcDbText
 73
2
  0
LWPOLYLINE
  5
4A
330
17
100
AcDbEntity
  8
CELDAS_GUIA
100
AcDbPolyline
 90
5
 70
0
 10
70.0
 20
-22.0
 10
130.0
 20
-22.0
 10
130.0
 20
-57.0
 10
70.0
 20
-57.0
 10
70.0
 20
-22.0
  0
INSERT
  5
55
330
17
100
AcDbEntity
  8
SIMBOLOS_DGE
100
AcDbBlockReference
  2
DGE_09_90_06_CENTRAL_TERMOELECTRICA
 10
85.0
 20
-39.5
 30
0.0
 41
45.0
 42
45.0
 43
45.0
  0
TEXT
  5
57
330
17
100
AcDbEntity
  8
TEXTOS_CODIGOS
100
AcDbText
 10
100.0
 20
-30.0
 30
0.0
 40
1.8
  1
COD: 09-90-06
 11
100.0
 21
-30.0
 31
0.0
100
AcDbText
 73
2
  0
TEXT
  5
58
330
17
100
AcDbEntity
  8
TEXTOS_NOMBRES
100
AcDbText
 10
100.0
 20
-37.0
 30
0.0
 40
1.4
  1
Central termoelectrica
 11
100.0
 21
-37.0
 31
0.0
100
AcDbText
 73
2
  0
TEXT
  5
59
330
17
100
AcDbEntity
  8
TEXTOS_NOMBRES
100
AcDbText
 10
100.0
 20
-42.0
 30
0.0
 40
1.4
  1
(En servicio)
 11
100.0
 21
-42.0
 31
0.0
100
AcDbText
 73
2
  0
TEXT
  5
5A
330
17
100
AcDbEntity
  8
OBSERVACIONES
100
AcDbText
 10
100.0
 20
-48.0
 30
0.0
 40
1.0
  1
* Simbolo de generacion termica.
 11
100.0
 21
-48.0
 31
0.0
100
AcDbText
 73
2
  0
LWPOLYLINE
  5
5B
330
17
100
AcDbEntity
  8
CELDAS_GUIA
100
AcDbPolyline
 90
5
 70
0
 10
140.0
 20
-22.0
 10
200.0
 20
-22.0
 10
200.0
 20
-57.0
 10
140.0
 20
-57.0
 10
140.0
 20
-22.0
  0
INSERT
  5
66
330
17
100
AcDbEntity
  8
SIMBOLOS_DGE
100
AcDbBlockReference
  2
DGE_09_90_08_CENTRAL_NUCLEAR
 10
155.0
 20
-39.5
 30
0.0
 41
45.0
 42
45.0
 43
45.0
  0
TEXT
  5
68
330
17
100
AcDbEntity
  8
TEXTOS_CODIGOS
100
AcDbText
 10
170.0
 20
-30.0
 30
0.0
 40
1.8
  1
COD: 09-90-08
 11
170.0
 21
-30.0
 31
0.0
100
AcDbText
 73
2
  0
TEXT
  5
69
330
17
100
AcDbEntity
  8
TEXTOS_NOMBRES
100
AcDbText
 10
170.0
 20
-37.0
 30
0.0
 40
1.4
  1
Central nuclear
 11
170.0
 21
-37.0
 31
0.0
100
AcDbText
 73
2
  0
TEXT
  5
6A
330
17
100
AcDbEntity
  8
TEXTOS_NOMBRES
100
AcDbText
 10
170.0
 20
-42.0
 30
0.0
 40
1.4
  1
(En servicio)
 11
170.0
 21
-42.0
 31
0.0
100
AcDbText
 73
2
  0
TEXT
  5
6B
330
17
100
AcDbEntity
  8
OBSERVACIONES
100
AcDbText
 10
170.0
 20
-48.0
 30
0.0
 40
1.0
  1
* Simbolo normativo general.
 11
170.0
 21
-48.0
 31
0.0
100
AcDbText
 73
2
  0
LWPOLYLINE
  5
6C
330
17
100
AcDbEntity
  8
CELDAS_GUIA
100
AcDbPolyline
 90
5
 70
0
 10
0.0
 20
-67.0
 10
60.0
 20
-67.0
 10
60.0
 20
-102.0
 10
0.0
 20
-102.0
 10
0.0
 20
-67.0
  0
INSERT
  5
76
330
17
100
AcDbEntity
  8
SIMBOLOS_DGE
100
AcDbBlockReference
  2
DGE_09_90_10_SUBESTACION_DE_CASETA
 10
15.0
 20
-84.5
 30
0.0
 41
45.0
 42
45.0
 43
45.0
  0
TEXT
  5
78
330
17
100
AcDbEntity
  8
TEXTOS_CODIGOS
100
AcDbText
 10
30.0
 20
-75.0
 30
0.0
 40
1.8
  1
COD: 09-90-10
 11
30.0
 21
-75.0
 31
0.0
100
AcDbText
 73
2
  0
TEXT
  5
79
330
17
100
AcDbEntity
  8
TEXTOS_NOMBRES
100
AcDbText
 10
30.0
 20
-82.0
 30
0.0
 40
1.4
  1
Subestacion de caseta
 11
30.0
 21
-82.0
 31
0.0
100
AcDbText
 73
2
  0
TEXT
  5
7A
330
17
100
AcDbEntity
  8
TEXTOS_NOMBRES
100
AcDbText
 10
30.0
 20
-87.0
 30
0.0
 40
1.4
  1
o intemperie (En servicio)
 11
30.0
 21
-87.0
 31
0.0
100
AcDbText
 73
2
  0
TEXT
  5
7B
330
17
100
AcDbEntity
  8
OBSERVACIONES
100
AcDbText
 10
30.0
 20
-93.0
 30
0.0
 40
1.0
  1
* Representa una caseta de tra...
 11
30.0
 21
-93.0
 31
0.0
100
AcDbText
 73
2
  0
LWPOLYLINE
  5
7C
330
17
100
AcDbEntity
  8
CELDAS_GUIA
100
AcDbPolyline
 90
5
 70
0
 10
70.0
 20
-67.0
 10
130.0
 20
-67.0
 10
130.0
 20
-102.0
 10
70.0
 20
-102.0
 10
70.0
 20
-67.0
  0
INSERT
  5
88
330
17
100
AcDbEntity
  8
SIMBOLOS_DGE
100
AcDbBlockReference
  2
DGE_09_90_12_SUBESTACION_MONOPOSTE
 10
85.0
 20
-84.5
 30
0.0
 41
45.0
 42
45.0
 43
45.0
  0
TEXT
  5
8A
330
17
100
AcDbEntity
  8
TEXTOS_CODIGOS
100
AcDbText
 10
100.0
 20
-75.0
 30
0.0
 40
1.8
  1
COD: 09-90-12
 11
100.0
 21
-75.0
 31
0.0
100
AcDbText
 73
2
  0
TEXT
  5
8B
330
17
100
AcDbEntity
  8
TEXTOS_NOMBRES
100
AcDbText
 10
100.0
 20
-82.0
 30
0.0
 40
1.4
  1
Subestacion aerea
 11
100.0
 21
-82.0
 31
0.0
100
AcDbText
 73
2
  0
TEXT
  5
8C
330
17
100
AcDbEntity
  8
TEXTOS_NOMBRES
100
AcDbText
 10
100.0
 20
-87.0
 30
0.0
 40
1.4
  1
monoposte (En servicio)
 11
100.0
 21
-87.0
 31
0.0
100
AcDbText
 73
2
  0
TEXT
  5
8D
330
17
100
AcDbEntity
  8
OBSERVACIONES
100
AcDbText
 10
100.0
 20
-93.0
 30
0.0
 40
1.0
  1
* Representa un transformador ...
 11
100.0
 21
-93.0
 31
0.0
100
AcDbText
 73
2
  0
LWPOLYLINE
  5
8E
330
17
100
AcDbEntity
  8
CELDAS_GUIA
100
AcDbPolyline
 90
5
 70
0
 10
140.0
 20
-67.0
 10
200.0
 20
-67.0
 10
200.0
 20
-102.0
 10
140.0
 20
-102.0
 10
140.0
 20
-67.0
  0
INSERT
  5
9B
330
17
100
AcDbEntity
  8
SIMBOLOS_DGE
100
AcDbBlockReference
  2
DGE_09_90_14_SUBESTACION_BIPOSTE
 10
155.0
 20
-84.5
 30
0.0
 41
45.0
 42
45.0
 43
45.0
  0
TEXT
  5
9D
330
17
100
AcDbEntity
  8
TEXTOS_CODIGOS
100
AcDbText
 10
170.0
 20
-75.0
 30
0.0
 40
1.8
  1
COD: 09-90-14
 11
170.0
 21
-75.0
 31
0.0
100
AcDbText
 73
2
  0
TEXT
  5
9E
330
17
100
AcDbEntity
  8
TEXTOS_NOMBRES
100
AcDbText
 10
170.0
 20
-82.0
 30
0.0
 40
1.4
  1
Subestacion aerea
 11
170.0
 21
-82.0
 31
0.0
100
AcDbText
 73
2
  0
TEXT
  5
9F
330
17
100
AcDbEntity
  8
TEXTOS_NOMBRES
100
AcDbText
 10
170.0
 20
-87.0
 30
0.0
 40
1.4
  1
biposte (En servicio)
 11
170.0
 21
-87.0
 31
0.0
100
AcDbText
 73
2
  0
TEXT
  5
A0
330
17
100
AcDbEntity
  8
OBSERVACIONES
100
AcDbText
 10
170.0
 20
-93.0
 30
0.0
 40
1.0
  1
* Representa transformador de ...
 11
170.0
 21
-93.0
 31
0.0
100
AcDbText
 73
2
  0
LWPOLYLINE
  5
A1
330
17
100
AcDbEntity
  8
CELDAS_GUIA
100
AcDbPolyline
 90
5
 70
0
 10
0.0
 20
-112.0
 10
60.0
 20
-112.0
 10
60.0
 20
-147.0
 10
0.0
 20
-147.0
 10
0.0
 20
-112.0
  0
INSERT
  5
B2
330
17
100
AcDbEntity
  8
SIMBOLOS_DGE
100
AcDbBlockReference
  2
DGE_09_90_22_CENTRAL_SOLAR
 10
15.0
 20
-129.5
 30
0.0
 41
45.0
 42
45.0
 43
45.0
  0
TEXT
  5
B4
330
17
100
AcDbEntity
  8
TEXTOS_CODIGOS
100
AcDbText
 10
30.0
 20
-120.0
 30
0.0
 40
1.8
  1
COD: 09-90-22
 11
30.0
 21
-120.0
 31
0.0
100
AcDbText
 73
2
  0
TEXT
  5
B5
330
17
100
AcDbEntity
  8
TEXTOS_NOMBRES
100
AcDbText
 10
30.0
 20
-128.0
 30
0.0
 40
1.5
  1
Central solar (En servicio)
 11
30.0
 21
-128.0
 31
0.0
100
AcDbText
 73
2
  0
TEXT
  5
B6
330
17
100
AcDbEntity
  8
OBSERVACIONES
100
AcDbText
 10
30.0
 20
-136.0
 30
0.0
 40
1.0
  1
* Indica aprovechamiento de ra...
 11
30.0
 21
-136.0
 31
0.0
100
AcDbText
 73
2
  0
LWPOLYLINE
  5
B7
330
17
100
AcDbEntity
  8
CELDAS_GUIA
100
AcDbPolyline
 90
5
 70
0
 10
70.0
 20
-112.0
 10
130.0
 20
-112.0
 10
130.0
 20
-147.0
 10
70.0
 20
-147.0
 10
70.0
 20
-112.0
  0
INSERT
  5
C1
330
17
100
AcDbEntity
  8
SIMBOLOS_DGE
100
AcDbBlockReference
  2
DGE_09_90_24_CENTRAL_EOLICA
 10
85.0
 20
-129.5
 30
0.0
 41
45.0
 42
45.0
 43
45.0
  0
TEXT
  5
C3
330
17
100
AcDbEntity
  8
TEXTOS_CODIGOS
100
AcDbText
 10
100.0
 20
-120.0
 30
0.0
 40
1.8
  1
COD: 09-90-24
 11
100.0
 21
-120.0
 31
0.0
100
AcDbText
 73
2
  0
TEXT
  5
C4
330
17
100
AcDbEntity
  8
TEXTOS_NOMBRES
100
AcDbText
 10
100.0
 20
-128.0
 30
0.0
 40
1.5
  1
Central eolica (En servicio)
 11
100.0
 21
-128.0
 31
0.0
100
AcDbText
 73
2
  0
TEXT
  5
C5
330
17
100
AcDbEntity
  8
OBSERVACIONES
100
AcDbText
 10
100.0
 20
-136.0
 30
0.0
 40
1.0
  1
* Representa visualmente un ae...
 11
100.0
 21
-136.0
 31
0.0
100
AcDbText
 73
2
  0
TEXT
  5
C6
330
17
100
AcDbEntity
  8
TITULOS
100
AcDbText
 10
0.0
 20
-182.0
 30
0.0
 40
3.5
  1
=== CATEGORIA: LINEAS Y REDES DE DISTRIBUCION ===
 11
0.0
 21
-182.0
 31
0.0
100
AcDbText
 73
2
  0
LWPOLYLINE
  5
C7
330
17
100
AcDbEntity
  8
CELDAS_GUIA
100
AcDbPolyline
 90
5
 70
0
 10
0.0
 20
-194.0
 10
60.0
 20
-194.0
 10
60.0
 20
-229.0
 10
0.0
 20
-229.0
 10
0.0
 20
-194.0
  0
INSERT
  5
CD
330
17
100
AcDbEntity
  8
SIMBOLOS_DGE
100
AcDbBlockReference
  2
DGE_09_91_01_LINEA_EN_CONDUCTO
 10
15.0
 20
-211.5
 30
0.0
 41
45.0
 42
45.0
 43
45.0
  0
TEXT
  5
CF
330
17
100
AcDbEntity
  8
TEXTOS_CODIGOS
100
AcDbText
 10
30.0
 20
-202.0
 30
0.0
 40
1.8
  1
COD: 09-91-01
 11
30.0
 21
-202.0
 31
0.0
100
AcDbText
 73
2
  0
TEXT
  5
D0
330
17
100
AcDbEntity
  8
TEXTOS_NOMBRES
100
AcDbText
 10
30.0
 20
-209.0
 30
0.0
 40
1.4
  1
Linea dentro de
 11
30.0
 21
-209.0
 31
0.0
100
AcDbText
 73
2
  0
TEXT
  5
D1
330
17
100
AcDbEntity
  8
TEXTOS_NOMBRES
100
AcDbText
 10
30.0
 20
-214.0
 30
0.0
 40
1.4
  1
conducto o tuberia
 11
30.0
 21
-214.0
 31
0.0
100
AcDbText
 73
2
  0
TEXT
  5
D2
330
17
100
AcDbEntity
  8
OBSERVACIONES
100
AcDbText
 10
30.0
 20
-220.0
 30
0.0
 40
1.0
  1
* Indica proteccion mecanica d...
 11
30.0
 21
-220.0
 31
0.0
100
AcDbText
 73
2
  0
LWPOLYLINE
  5
D3
330
17
100
AcDbEntity
  8
CELDAS_GUIA
100
AcDbPolyline
 90
5
 70
0
 10
70.0
 20
-194.0
 10
130.0
 20
-194.0
 10
130.0
 20
-229.0
 10
70.0
 20
-229.0
 10
70.0
 20
-194.0
  0
INSERT
  5
D8
330
17
100
AcDbEntity
  8
SIMBOLOS_DGE
100
AcDbBlockReference
  2
DGE_09_91_03_LINEA_GENERAL
 10
85.0
 20
-211.5
 30
0.0
 41
45.0
 42
45.0
 43
45.0
  0
TEXT
  5
DA
330
17
100
AcDbEntity
  8
TEXTOS_CODIGOS
100
AcDbText
 10
100.0
 20
-202.0
 30
0.0
 40
1.8
  1
COD: 09-91-03
 11
100.0
 21
-202.0
 31
0.0
100
AcDbText
 73
2
  0
TEXT
  5
DB
330
17
100
AcDbEntity
  8
TEXTOS_NOMBRES
100
AcDbText
 10
100.0
 20
-209.0
 30
0.0
 40
1.4
  1
Linea general
 11
100.0
 21
-209.0
 31
0.0
100
AcDbText
 73
2
  0
TEXT
  5
DC
330
17
100
AcDbEntity
  8
TEXTOS_NOMBRES
100
AcDbText
 10
100.0
 20
-214.0
 30
0.0
 40
1.4
  1
(Aerea o subterranea)
 11
100.0
 21
-214.0
 31
0.0
100
AcDbText
 73
2
  0
TEXT
  5
DD
330
17
100
AcDbEntity
  8
OBSERVACIONES
100
AcDbText
 10
100.0
 20
-220.0
 30
0.0
 40
1.0
  1
* Símbolo fundamental y el más...
 11
100.0
 21
-220.0
 31
0.0
100
AcDbText
 73
2
  0
LWPOLYLINE
  5
DE
330
17
100
AcDbEntity
  8
CELDAS_GUIA
100
AcDbPolyline
 90
5
 70
0
 10
140.0
 20
-194.0
 10
200.0
 20
-194.0
 10
200.0
 20
-229.0
 10
140.0
 20
-229.0
 10
140.0
 20
-194.0
  0
INSERT
  5
E6
330
17
100
AcDbEntity
  8
SIMBOLOS_DGE
100
AcDbBlockReference
  2
DGE_09_91_04_LINEA_SUBTERRANEA
 10
155.0
 20
-211.5
 30
0.0
 41
45.0
 42
45.0
 43
45.0
  0
TEXT
  5
E8
330
17
100
AcDbEntity
  8
TEXTOS_CODIGOS
100
AcDbText
 10
170.0
 20
-202.0
 30
0.0
 40
1.8
  1
COD: 09-91-04
 11
170.0
 21
-202.0
 31
0.0
100
AcDbText
 73
2
  0
TEXT
  5
E9
330
17
100
AcDbEntity
  8
TEXTOS_NOMBRES
100
AcDbText
 10
170.0
 20
-210.0
 30
0.0
 40
1.5
  1
Linea subterranea
 11
170.0
 21
-210.0
 31
0.0
100
AcDbText
 73
2
  0
TEXT
  5
EA
330
17
100
AcDbEntity
  8
OBSERVACIONES
100
AcDbText
 10
170.0
 20
-218.0
 30
0.0
 40
1.0
  1
* Indica cable soterrado.
 11
170.0
 21
-218.0
 31
0.0
100
AcDbText
 73
2
  0
LWPOLYLINE
  5
EB
330
17
100
AcDbEntity
  8
CELDAS_GUIA
100
AcDbPolyline
 90
5
 70
0
 10
0.0
 20
-239.0
 10
60.0
 20
-239.0
 10
60.0
 20
-274.0
 10
0.0
 20
-274.0
 10
0.0
 20
-239.0
  0
INSERT
  5
F1
330
17
100
AcDbEntity
  8
SIMBOLOS_DGE
100
AcDbBlockReference
  2
DGE_09_91_05_LINEA_PASANTE_CAMARA
 10
15.0
 20
-256.5
 30
0.0
 41
45.0
 42
45.0
 43
45.0
  0
TEXT
  5
F3
330
17
100
AcDbEntity
  8
TEXTOS_CODIGOS
100
AcDbText
 10
30.0
 20
-247.0
 30
0.0
 40
1.8
  1
COD: 09-91-05
 11
30.0
 21
-247.0
 31
0.0
100
AcDbText
 73
2
  0
TEXT
  5
F4
330
17
100
AcDbEntity
  8
TEXTOS_NOMBRES
100
AcDbText
 10
30.0
 20
-254.0
 30
0.0
 40
1.4
  1
Linea pasante a traves
 11
30.0
 21
-254.0
 31
0.0
100
AcDbText
 73
2
  0
TEXT
  5
F5
330
17
100
AcDbEntity
  8
TEXTOS_NOMBRES
100
AcDbText
 10
30.0
 20
-259.0
 30
0.0
 40
1.4
  1
de una camara de acceso
 11
30.0
 21
-259.0
 31
0.0
100
AcDbText
 73
2
  0
TEXT
  5
F6
330
17
100
AcDbEntity
  8
OBSERVACIONES
100
AcDbText
 10
30.0
 20
-265.0
 30
0.0
 40
1.0
  1
* Usado para tendidos subterra...
 11
30.0
 21
-265.0
 31
0.0
100
AcDbText
 73
2
  0
LWPOLYLINE
  5
F7
330
17
100
AcDbEntity
  8
CELDAS_GUIA
100
AcDbPolyline
 90
5
 70
0
 10
70.0
 20
-239.0
 10
130.0
 20
-239.0
 10
130.0
 20
-274.0
 10
70.0
 20
-274.0
 10
70.0
 20
-239.0
  0
INSERT
  5
102
330
17
100
AcDbEntity
  8
SIMBOLOS_DGE
100
AcDbBlockReference
  2
DGE_09_91_07_LINEA_CON_VALVULA
 10
85.0
 20
-256.5
 30
0.0
 41
45.0
 42
45.0
 43
45.0
  0
TEXT
  5
104
330
17
100
AcDbEntity
  8
TEXTOS_CODIGOS
100
AcDbText
 10
100.0
 20
-247.0
 30
0.0
 40
1.8
  1
COD: 09-91-07
 11
100.0
 21
-247.0
 31
0.0
100
AcDbText
 73
2
  0
TEXT
  5
105
330
17
100
AcDbEntity
  8
TEXTOS_NOMBRES
100
AcDbText
 10
100.0
 20
-254.0
 30
0.0
 40
1.4
  1
Linea con valvula de
 11
100.0
 21
-254.0
 31
0.0
100
AcDbText
 73
2
  0
TEXT
  5
106
330
17
100
AcDbEntity
  8
TEXTOS_NOMBRES
100
AcDbText
 10
100.0
 20
-259.0
 30
0.0
 40
1.4
  1
detencion de gas o aceite
 11
100.0
 21
-259.0
 31
0.0
100
AcDbText
 73
2
  0
TEXT
  5
107
330
17
100
AcDbEntity
  8
OBSERVACIONES
100
AcDbText
 10
100.0
 20
-265.0
 30
0.0
 40
1.0
  1
* Simbolo especial industrial.
 11
100.0
 21
-265.0
 31
0.0
100
AcDbText
 73
2
  0
LWPOLYLINE
  5
108
330
17
100
AcDbEntity
  8
CELDAS_GUIA
100
AcDbPolyline
 90
5
 70
0
 10
140.0
 20
-239.0
 10
200.0
 20
-239.0
 10
200.0
 20
-274.0
 10
140.0
 20
-274.0
 10
140.0
 20
-239.0
  0
INSERT
  5
112
330
17
100
AcDbEntity
  8
SIMBOLOS_DGE
100
AcDbBlockReference
  2
DGE_09_91_15_ANODO_PROTECCION
 10
155.0
 20
-256.5
 30
0.0
 41
45.0
 42
45.0
 43
45.0
  0
TEXT
  5
114
330
17
100
AcDbEntity
  8
TEXTOS_CODIGOS
100
AcDbText
 10
170.0
 20
-247.0
 30
0.0
 40
1.8
  1
COD: 09-91-15
 11
170.0
 21
-247.0
 31
0.0
100
AcDbText
 73
2
  0
TEXT
  5
115
330
17
100
AcDbEntity
  8
TEXTOS_NOMBRES
100
AcDbText
 10
170.0
 20
-255.0
 30
0.0
 40
1.5
  1
Anodo de proteccion
 11
170.0
 21
-255.0
 31
0.0
100
AcDbText
 73
2
  0
TEXT
  5
116
330
17
100
AcDbEntity
  8
OBSERVACIONES
100
AcDbText
 10
170.0
 20
-263.0
 30
0.0
 40
1.0
  1
* Indica proteccion contra cor...
 11
170.0
 21
-263.0
 31
0.0
100
AcDbText
 73
2
  0
LWPOLYLINE
  5
117
330
17
100
AcDbEntity
  8
CELDAS_GUIA
100
AcDbPolyline
 90
5
 70
0
 10
0.0
 20
-284.0
 10
60.0
 20
-284.0
 10
60.0
 20
-319.0
 10
0.0
 20
-319.0
 10
0.0
 20
-284.0
  0
INSERT
  5
11F
330
17
100
AcDbEntity
  8
SIMBOLOS_DGE
100
AcDbBlockReference
  2
DGE_09_91_18_RETENIDA_INCLINADA
 10
15.0
 20
-301.5
 30
0.0
 41
45.0
 42
45.0
 43
45.0
  0
TEXT
  5
121
330
17
100
AcDbEntity
  8
TEXTOS_CODIGOS
100
AcDbText
 10
30.0
 20
-292.0
 30
0.0
 40
1.8
  1
COD: 09-91-18
 11
30.0
 21
-292.0
 31
0.0
100
AcDbText
 73
2
  0
TEXT
  5
122
330
17
100
AcDbEntity
  8
TEXTOS_NOMBRES
100
AcDbText
 10
30.0
 20
-300.0
 30
0.0
 40
1.5
  1
Retenida inclinada (Viento)
 11
30.0
 21
-300.0
 31
0.0
100
AcDbText
 73
2
  0
TEXT
  5
123
330
17
100
AcDbEntity
  8
OBSERVACIONES
100
AcDbText
 10
30.0
 20
-308.0
 30
0.0
 40
1.0
  1
* Indica cable tensor.
 11
30.0
 21
-308.0
 31
0.0
100
AcDbText
 73
2
  0
LWPOLYLINE
  5
124
330
17
100
AcDbEntity
  8
CELDAS_GUIA
100
AcDbPolyline
 90
5
 70
0
 10
70.0
 20
-284.0
 10
130.0
 20
-284.0
 10
130.0
 20
-319.0
 10
70.0
 20
-319.0
 10
70.0
 20
-284.0
  0
INSERT
  5
12B
330
17
100
AcDbEntity
  8
SIMBOLOS_DGE
100
AcDbBlockReference
  2
DGE_09_91_19_RETENIDA_VERTICAL
 10
85.0
 20
-301.5
 30
0.0
 41
45.0
 42
45.0
 43
45.0
  0
TEXT
  5
12D
330
17
100
AcDbEntity
  8
TEXTOS_CODIGOS
100
AcDbText
 10
100.0
 20
-292.0
 30
0.0
 40
1.8
  1
COD: 09-91-19
 11
100.0
 21
-292.0
 31
0.0
100
AcDbText
 73
2
  0
TEXT
  5
12E
330
17
100
AcDbEntity
  8
TEXTOS_NOMBRES
100
AcDbText
 10
100.0
 20
-300.0
 30
0.0
 40
1.5
  1
Retenida vertical
 11
100.0
 21
-300.0
 31
0.0
100
AcDbText
 73
2
  0
TEXT
  5
12F
330
17
100
AcDbEntity
  8
OBSERVACIONES
100
AcDbText
 10
100.0
 20
-308.0
 30
0.0
 40
1.0
  1
* Indica sujecion vertical.
 11
100.0
 21
-308.0
 31
0.0
100
AcDbText
 73
2
  0
LWPOLYLINE
  5
130
330
17
100
AcDbEntity
  8
CELDAS_GUIA
100
AcDbPolyline
 90
5
 70
0
 10
140.0
 20
-284.0
 10
200.0
 20
-284.0
 10
200.0
 20
-319.0
 10
140.0
 20
-319.0
 10
140.0
 20
-284.0
  0
INSERT
  5
135
330
17
100
AcDbEntity
  8
SIMBOLOS_DGE
100
AcDbBlockReference
  2
DGE_09_91_20_POSTE_CONCRETO
 10
155.0
 20
-301.5
 30
0.0
 41
45.0
 42
45.0
 43
45.0
  0
TEXT
  5
137
330
17
100
AcDbEntity
  8
TEXTOS_CODIGOS
100
AcDbText
 10
170.0
 20
-292.0
 30
0.0
 40
1.8
  1
COD: 09-91-20
 11
170.0
 21
-292.0
 31
0.0
100
AcDbText
 73
2
  0
TEXT
  5
138
330
17
100
AcDbEntity
  8
TEXTOS_NOMBRES
100
AcDbText
 10
170.0
 20
-299.0
 30
0.0
 40
1.4
  1
Soporte para linea aerea
 11
170.0
 21
-299.0
 31
0.0
100
AcDbText
 73
2
  0
TEXT
  5
139
330
17
100
AcDbEntity
  8
TEXTOS_NOMBRES
100
AcDbText
 10
170.0
 20
-304.0
 30
0.0
 40
1.4
  1
- Concreto (Poste de concreto)
 11
170.0
 21
-304.0
 31
0.0
100
AcDbText
 73
2
  0
TEXT
  5
13A
330
17
100
AcDbEntity
  8
OBSERVACIONES
100
AcDbText
 10
170.0
 20
-310.0
 30
0.0
 40
1.0
  1
* Soporte general de lineas ae...
 11
170.0
 21
-310.0
 31
0.0
100
AcDbText
 73
2
  0
LWPOLYLINE
  5
13B
330
17
100
AcDbEntity
  8
CELDAS_GUIA
100
AcDbPolyline
 90
5
 70
0
 10
0.0
 20
-329.0
 10
60.0
 20
-329.0
 10
60.0
 20
-364.0
 10
0.0
 20
-364.0
 10
0.0
 20
-329.0
  0
INSERT
  5
142
330
17
100
AcDbEntity
  8
SIMBOLOS_DGE
100
AcDbBlockReference
  2
DGE_09_91_21_POSTE_MADERA
 10
15.0
 20
-346.5
 30
0.0
 41
45.0
 42
45.0
 43
45.0
  0
TEXT
  5
144
330
17
100
AcDbEntity
  8
TEXTOS_CODIGOS
100
AcDbText
 10
30.0
 20
-337.0
 30
0.0
 40
1.8
  1
COD: 09-91-21
 11
30.0
 21
-337.0
 31
0.0
100
AcDbText
 73
2
  0
TEXT
  5
145
330
17
100
AcDbEntity
  8
TEXTOS_NOMBRES
100
AcDbText
 10
30.0
 20
-344.0
 30
0.0
 40
1.4
  1
Soporte de madera
 11
30.0
 21
-344.0
 31
0.0
100
AcDbText
 73
2
  0
TEXT
  5
146
330
17
100
AcDbEntity
  8
TEXTOS_NOMBRES
100
AcDbText
 10
30.0
 20
-349.0
 30
0.0
 40
1.4
  1
(Poste de madera)
 11
30.0
 21
-349.0
 31
0.0
100
AcDbText
 73
2
  0
TEXT
  5
147
330
17
100
AcDbEntity
  8
OBSERVACIONES
100
AcDbText
 10
30.0
 20
-355.0
 30
0.0
 40
1.0
  1
* Indica poste de madera.
 11
30.0
 21
-355.0
 31
0.0
100
AcDbText
 73
2
  0
LWPOLYLINE
  5
148
330
17
100
AcDbEntity
  8
CELDAS_GUIA
100
AcDbPolyline
 90
5
 70
0
 10
70.0
 20
-329.0
 10
130.0
 20
-329.0
 10
130.0
 20
-364.0
 10
70.0
 20
-364.0
 10
70.0
 20
-329.0
  0
INSERT
  5
152
330
17
100
AcDbEntity
  8
SIMBOLOS_DGE
100
AcDbBlockReference
  2
DGE_09_91_22_POSTE_METALICO
 10
85.0
 20
-346.5
 30
0.0
 41
45.0
 42
45.0
 43
45.0
  0
TEXT
  5
154
330
17
100
AcDbEntity
  8
TEXTOS_CODIGOS
100
AcDbText
 10
100.0
 20
-337.0
 30
0.0
 40
1.8
  1
COD: 09-91-22
 11
100.0
 21
-337.0
 31
0.0
100
AcDbText
 73
2
  0
TEXT
  5
155
330
17
100
AcDbEntity
  8
TEXTOS_NOMBRES
100
AcDbText
 10
100.0
 20
-344.0
 30
0.0
 40
1.4
  1
Soporte metalico
 11
100.0
 21
-344.0
 31
0.0
100
AcDbText
 73
2
  0
TEXT
  5
156
330
17
100
AcDbEntity
  8
TEXTOS_NOMBRES
100
AcDbText
 10
100.0
 20
-349.0
 30
0.0
 40
1.4
  1
(Poste metalico)
 11
100.0
 21
-349.0
 31
0.0
100
AcDbText
 73
2
  0
TEXT
  5
157
330
17
100
AcDbEntity
  8
OBSERVACIONES
100
AcDbText
 10
100.0
 20
-355.0
 30
0.0
 40
1.0
  1
* Indica metal/acero.
 11
100.0
 21
-355.0
 31
0.0
100
AcDbText
 73
2
  0
LWPOLYLINE
  5
158
330
17
100
AcDbEntity
  8
CELDAS_GUIA
100
AcDbPolyline
 90
5
 70
0
 10
140.0
 20
-329.0
 10
200.0
 20
-329.0
 10
200.0
 20
-364.0
 10
140.0
 20
-364.0
 10
140.0
 20
-329.0
  0
INSERT
  5
15F
330
17
100
AcDbEntity
  8
SIMBOLOS_DGE
100
AcDbBlockReference
  2
DGE_09_91_23_TORRE_ELECTRICA
 10
155.0
 20
-346.5
 30
0.0
 41
45.0
 42
45.0
 43
45.0
  0
TEXT
  5
161
330
17
100
AcDbEntity
  8
TEXTOS_CODIGOS
100
AcDbText
 10
170.0
 20
-337.0
 30
0.0
 40
1.8
  1
COD: 09-91-23
 11
170.0
 21
-337.0
 31
0.0
100
AcDbText
 73
2
  0
TEXT
  5
162
330
17
100
AcDbEntity
  8
TEXTOS_NOMBRES
100
AcDbText
 10
170.0
 20
-345.0
 30
0.0
 40
1.5
  1
Torre
 11
170.0
 21
-345.0
 31
0.0
100
AcDbText
 73
2
  0
TEXT
  5
163
330
17
100
AcDbEntity
  8
OBSERVACIONES
100
AcDbText
 10
170.0
 20
-353.0
 30
0.0
 40
1.0
  1
* Representa torre de transmis...
 11
170.0
 21
-353.0
 31
0.0
100
AcDbText
 73
2
  0
TEXT
  5
164
330
17
100
AcDbEntity
  8
TITULOS
100
AcDbText
 10
0.0
 20
-399.0
 30
0.0
 40
3.5
  1
=== CATEGORIA: CAJAS Y TABLEROS ===
 11
0.0
 21
-399.0
 31
0.0
100
AcDbText
 73
2
  0
LWPOLYLINE
  5
165
330
17
100
AcDbEntity
  8
CELDAS_GUIA
100
AcDbPolyline
 90
5
 70
0
 10
0.0
 20
-411.0
 10
60.0
 20
-411.0
 10
60.0
 20
-446.0
 10
0.0
 20
-446.0
 10
0.0
 20
-411.0
  0
INSERT
  5
16F
330
17
100
AcDbEntity
  8
SIMBOLOS_DGE
100
AcDbBlockReference
  2
DGE_09_91_16_PANEL_DISTRIBUCION
 10
15.0
 20
-428.5
 30
0.0
 41
45.0
 42
45.0
 43
45.0
  0
TEXT
  5
171
330
17
100
AcDbEntity
  8
TEXTOS_CODIGOS
100
AcDbText
 10
30.0
 20
-419.0
 30
0.0
 40
1.8
  1
COD: 09-91-16
 11
30.0
 21
-419.0
 31
0.0
100
AcDbText
 73
2
  0
TEXT
  5
172
330
17
100
AcDbEntity
  8
TEXTOS_NOMBRES
100
AcDbText
 10
30.0
 20
-426.0
 30
0.0
 40
1.4
  1
Panel de distribucion
 11
30.0
 21
-426.0
 31
0.0
100
AcDbText
 73
2
  0
TEXT
  5
173
330
17
100
AcDbEntity
  8
TEXTOS_NOMBRES
100
AcDbText
 10
30.0
 20
-431.0
 30
0.0
 40
1.4
  1
o centro de control
 11
30.0
 21
-431.0
 31
0.0
100
AcDbText
 73
2
  0
TEXT
  5
174
330
17
100
AcDbEntity
  8
OBSERVACIONES
100
AcDbText
 10
30.0
 20
-437.0
 30
0.0
 40
1.0
  1
* Difiere del tablero empotrado.
 11
30.0
 21
-437.0
 31
0.0
100
AcDbText
 73
2
  0
LWPOLYLINE
  5
175
330
17
100
AcDbEntity
  8
CELDAS_GUIA
100
AcDbPolyline
 90
5
 70
0
 10
70.0
 20
-411.0
 10
130.0
 20
-411.0
 10
130.0
 20
-446.0
 10
70.0
 20
-446.0
 10
70.0
 20
-411.0
  0
INSERT
  5
181
330
17
100
AcDbEntity
  8
SIMBOLOS_DGE
100
AcDbBlockReference
  2
DGE_09_91_17_TABLERO_EMPOTRADO
 10
85.0
 20
-428.5
 30
0.0
 41
45.0
 42
45.0
 43
45.0
  0
TEXT
  5
183
330
17
100
AcDbEntity
  8
TEXTOS_CODIGOS
100
AcDbText
 10
100.0
 20
-419.0
 30
0.0
 40
1.8
  1
COD: 09-91-17
 11
100.0
 21
-419.0
 31
0.0
100
AcDbText
 73
2
  0
TEXT
  5
184
330
17
100
AcDbEntity
  8
TEXTOS_NOMBRES
100
AcDbText
 10
100.0
 20
-427.0
 30
0.0
 40
1.5
  1
Tablero empotrado
 11
100.0
 21
-427.0
 31
0.0
100
AcDbText
 73
2
  0
TEXT
  5
185
330
17
100
AcDbEntity
  8
OBSERVACIONES
100
AcDbText
 10
100.0
 20
-435.0
 30
0.0
 40
1.0
  1
* Simbolo residencial estandar.
 11
100.0
 21
-435.0
 31
0.0
100
AcDbText
 73
2
  0
LWPOLYLINE
  5
186
330
17
100
AcDbEntity
  8
CELDAS_GUIA
100
AcDbPolyline
 90
5
 70
0
 10
140.0
 20
-411.0
 10
200.0
 20
-411.0
 10
200.0
 20
-446.0
 10
140.0
 20
-446.0
 10
140.0
 20
-411.0
  0
INSERT
  5
18B
330
17
100
AcDbEntity
  8
SIMBOLOS_DGE
100
AcDbBlockReference
  2
DGE_09_93_08_CAJA_PASO
 10
155.0
 20
-428.5
 30
0.0
 41
45.0
 42
45.0
 43
45.0
  0
TEXT
  5
18D
330
17
100
AcDbEntity
  8
TEXTOS_CODIGOS
100
AcDbText
 10
170.0
 20
-419.0
 30
0.0
 40
1.8
  1
COD: 09-93-08
 11
170.0
 21
-419.0
 31
0.0
100
AcDbText
 73
2
  0
TEXT
  5
18E
330
17
100
AcDbEntity
  8
TEXTOS_NOMBRES
100
AcDbText
 10
170.0
 20
-427.0
 30
0.0
 40
1.5
  1
Caja (Simbolo general)
 11
170.0
 21
-427.0
 31
0.0
100
AcDbText
 73
2
  0
TEXT
  5
18F
330
17
100
AcDbEntity
  8
OBSERVACIONES
100
AcDbText
 10
170.0
 20
-435.0
 30
0.0
 40
1.0
  1
* Basico para distribucion.
 11
170.0
 21
-435.0
 31
0.0
100
AcDbText
 73
2
  0
LWPOLYLINE
  5
190
330
17
100
AcDbEntity
  8
CELDAS_GUIA
100
AcDbPolyline
 90
5
 70
0
 10
0.0
 20
-456.0
 10
60.0
 20
-456.0
 10
60.0
 20
-491.0
 10
0.0
 20
-491.0
 10
0.0
 20
-456.0
  0
INSERT
  5
197
330
17
100
AcDbEntity
  8
SIMBOLOS_DGE
100
AcDbBlockReference
  2
DGE_09_93_09_CAJA_DERIVACION
 10
15.0
 20
-473.5
 30
0.0
 41
45.0
 42
45.0
 43
45.0
  0
TEXT
  5
199
330
17
100
AcDbEntity
  8
TEXTOS_CODIGOS
100
AcDbText
 10
30.0
 20
-464.0
 30
0.0
 40
1.8
  1
COD: 09-93-09
 11
30.0
 21
-464.0
 31
0.0
100
AcDbText
 73
2
  0
TEXT
  5
19A
330
17
100
AcDbEntity
  8
TEXTOS_NOMBRES
100
AcDbText
 10
30.0
 20
-471.0
 30
0.0
 40
1.4
  1
Caja de
 11
30.0
 21
-471.0
 31
0.0
100
AcDbText
 73
2
  0
TEXT
  5
19B
330
17
100
AcDbEntity
  8
TEXTOS_NOMBRES
100
AcDbText
 10
30.0
 20
-476.0
 30
0.0
 40
1.4
  1
conexion o derivacion
 11
30.0
 21
-476.0
 31
0.0
100
AcDbText
 73
2
  0
TEXT
  5
19C
330
17
100
AcDbEntity
  8
OBSERVACIONES
100
AcDbText
 10
30.0
 20
-482.0
 30
0.0
 40
1.0
  1
* Muy usado en residencias.
 11
30.0
 21
-482.0
 31
0.0
100
AcDbText
 73
2
  0
LWPOLYLINE
  5
19D
330
17
100
AcDbEntity
  8
CELDAS_GUIA
100
AcDbPolyline
 90
5
 70
0
 10
70.0
 20
-456.0
 10
130.0
 20
-456.0
 10
130.0
 20
-491.0
 10
70.0
 20
-491.0
 10
70.0
 20
-456.0
  0
INSERT
  5
1A8
330
17
100
AcDbEntity
  8
SIMBOLOS_DGE
100
AcDbBlockReference
  2
DGE_09_93_11_CENTRO_DISTRIBUCION
 10
85.0
 20
-473.5
 30
0.0
 41
45.0
 42
45.0
 43
45.0
  0
TEXT
  5
1AA
330
17
100
AcDbEntity
  8
TEXTOS_CODIGOS
100
AcDbText
 10
100.0
 20
-464.0
 30
0.0
 40
1.8
  1
COD: 09-93-11
 11
100.0
 21
-464.0
 31
0.0
100
AcDbText
 73
2
  0
TEXT
  5
1AB
330
17
100
AcDbEntity
  8
TEXTOS_NOMBRES
100
AcDbText
 10
100.0
 20
-471.0
 30
0.0
 40
1.4
  1
Centro de
 11
100.0
 21
-471.0
 31
0.0
100
AcDbText
 73
2
  0
TEXT
  5
1AC
330
17
100
AcDbEntity
  8
TEXTOS_NOMBRES
100
AcDbText
 10
100.0
 20
-476.0
 30
0.0
 40
1.4
  1
distribucion (Tablero)
 11
100.0
 21
-476.0
 31
0.0
100
AcDbText
 73
2
  0
TEXT
  5
1AD
330
17
100
AcDbEntity
  8
OBSERVACIONES
100
AcDbText
 10
100.0
 20
-482.0
 30
0.0
 40
1.0
  1
* Variante del tablero empotra...
 11
100.0
 21
-482.0
 31
0.0
100
AcDbText
 73
2
  0
TEXT
  5
1AE
330
17
100
AcDbEntity
  8
TITULOS
100
AcDbText
 10
0.0
 20
-526.0
 30
0.0
 40
3.5
  1
=== CATEGORIA: ATENUADORES Y DISPOSITIVOS ===
 11
0.0
 21
-526.0
 31
0.0
100
AcDbText
 73
2
  0
LWPOLYLINE
  5
1AF
330
17
100
AcDbEntity
  8
CELDAS_GUIA
100
AcDbPolyline
 90
5
 70
0
 10
0.0
 20
-538.0
 10
60.0
 20
-538.0
 10
60.0
 20
-573.0
 10
0.0
 20
-573.0
 10
0.0
 20
-538.0
  0
INSERT
  5
1B8
330
17
100
AcDbEntity
  8
SIMBOLOS_DGE
100
AcDbBlockReference
  2
DGE_09_92_01_ATENUADOR
 10
15.0
 20
-555.5
 30
0.0
 41
45.0
 42
45.0
 43
45.0
  0
TEXT
  5
1BA
330
17
100
AcDbEntity
  8
TEXTOS_CODIGOS
100
AcDbText
 10
30.0
 20
-546.0
 30
0.0
 40
1.8
  1
COD: 09-92-01
 11
30.0
 21
-546.0
 31
0.0
100
AcDbText
 73
2
  0
TEXT
  5
1BB
330
17
100
AcDbEntity
  8
TEXTOS_NOMBRES
100
AcDbText
 10
30.0
 20
-554.0
 30
0.0
 40
1.5
  1
Atenuador
 11
30.0
 21
-554.0
 31
0.0
100
AcDbText
 73
2
  0
TEXT
  5
1BC
330
17
100
AcDbEntity
  8
OBSERVACIONES
100
AcDbText
 10
30.0
 20
-562.0
 30
0.0
 40
1.0
  1
* Simbolo utilizable en esquem...
 11
30.0
 21
-562.0
 31
0.0
100
AcDbText
 73
2
  0
TEXT
  5
1BD
330
17
100
AcDbEntity
  8
TITULOS
100
AcDbText
 10
0.0
 20
-608.0
 30
0.0
 40
3.5
  1
=== CATEGORIA: CONDUCTORES ===
 11
0.0
 21
-608.0
 31
0.0
100
AcDbText
 73
2
  0
LWPOLYLINE
  5
1BE
330
17
100
AcDbEntity
  8
CELDAS_GUIA
100
AcDbPolyline
 90
5
 70
0
 10
0.0
 20
-620.0
 10
60.0
 20
-620.0
 10
60.0
 20
-655.0
 10
0.0
 20
-655.0
 10
0.0
 20
-620.0
  0
INSERT
  5
1C5
330
17
100
AcDbEntity
  8
SIMBOLOS_DGE
100
AcDbBlockReference
  2
DGE_09_93_01_NEUTRO
 10
15.0
 20
-637.5
 30
0.0
 41
45.0
 42
45.0
 43
45.0
  0
TEXT
  5
1C7
330
17
100
AcDbEntity
  8
TEXTOS_CODIGOS
100
AcDbText
 10
30.0
 20
-628.0
 30
0.0
 40
1.8
  1
COD: 09-93-01
 11
30.0
 21
-628.0
 31
0.0
100
AcDbText
 73
2
  0
TEXT
  5
1C8
330
17
100
AcDbEntity
  8
TEXTOS_NOMBRES
100
AcDbText
 10
30.0
 20
-636.0
 30
0.0
 40
1.5
  1
Conductor neutro
 11
30.0
 21
-636.0
 31
0.0
100
AcDbText
 73
2
  0
TEXT
  5
1C9
330
17
100
AcDbEntity
  8
OBSERVACIONES
100
AcDbText
 10
30.0
 20
-644.0
 30
0.0
 40
1.0
  1
* Simbolo residencial esencial.
 11
30.0
 21
-644.0
 31
0.0
100
AcDbText
 73
2
  0
LWPOLYLINE
  5
1CA
330
17
100
AcDbEntity
  8
CELDAS_GUIA
100
AcDbPolyline
 90
5
 70
0
 10
70.0
 20
-620.0
 10
130.0
 20
-620.0
 10
130.0
 20
-655.0
 10
70.0
 20
-655.0
 10
70.0
 20
-620.0
  0
INSERT
  5
1D0
330
17
100
AcDbEntity
  8
SIMBOLOS_DGE
100
AcDbBlockReference
  2
DGE_09_93_02_TIERRA_CONDUCTOR
 10
85.0
 20
-637.5
 30
0.0
 41
45.0
 42
45.0
 43
45.0
  0
TEXT
  5
1D2
330
17
100
AcDbEntity
  8
TEXTOS_CODIGOS
100
AcDbText
 10
100.0
 20
-628.0
 30
0.0
 40
1.8
  1
COD: 09-93-02
 11
100.0
 21
-628.0
 31
0.0
100
AcDbText
 73
2
  0
TEXT
  5
1D3
330
17
100
AcDbEntity
  8
TEXTOS_NOMBRES
100
AcDbText
 10
100.0
 20
-635.0
 30
0.0
 40
1.4
  1
Conductor de
 11
100.0
 21
-635.0
 31
0.0
100
AcDbText
 73
2
  0
TEXT
  5
1D4
330
17
100
AcDbEntity
  8
TEXTOS_NOMBRES
100
AcDbText
 10
100.0
 20
-640.0
 30
0.0
 40
1.4
  1
proteccion (Tierra)
 11
100.0
 21
-640.0
 31
0.0
100
AcDbText
 73
2
  0
TEXT
  5
1D5
330
17
100
AcDbEntity
  8
OBSERVACIONES
100
AcDbText
 10
100.0
 20
-646.0
 30
0.0
 40
1.0
  1
* Indica presencia de cable de...
 11
100.0
 21
-646.0
 31
0.0
100
AcDbText
 73
2
  0
LWPOLYLINE
  5
1D6
330
17
100
AcDbEntity
  8
CELDAS_GUIA
100
AcDbPolyline
 90
5
 70
0
 10
140.0
 20
-620.0
 10
200.0
 20
-620.0
 10
200.0
 20
-655.0
 10
140.0
 20
-655.0
 10
140.0
 20
-620.0
  0
INSERT
  5
1DE
330
17
100
AcDbEntity
  8
SIMBOLOS_DGE
100
AcDbBlockReference
  2
DGE_09_93_03_CONDUCTOR_COMBINADO
 10
155.0
 20
-637.5
 30
0.0
 41
45.0
 42
45.0
 43
45.0
  0
TEXT
  5
1E0
330
17
100
AcDbEntity
  8
TEXTOS_CODIGOS
100
AcDbText
 10
170.0
 20
-628.0
 30
0.0
 40
1.8
  1
COD: 09-93-03
 11
170.0
 21
-628.0
 31
0.0
100
AcDbText
 73
2
  0
TEXT
  5
1E1
330
17
100
AcDbEntity
  8
TEXTOS_NOMBRES
100
AcDbText
 10
170.0
 20
-635.0
 30
0.0
 40
1.4
  1
Conductor de proteccion
 11
170.0
 21
-635.0
 31
0.0
100
AcDbText
 73
2
  0
TEXT
  5
1E2
330
17
100
AcDbEntity
  8
TEXTOS_NOMBRES
100
AcDbText
 10
170.0
 20
-640.0
 30
0.0
 40
1.4
  1
y neutro combinado
 11
170.0
 21
-640.0
 31
0.0
100
AcDbText
 73
2
  0
TEXT
  5
1E3
330
17
100
AcDbEntity
  8
OBSERVACIONES
100
AcDbText
 10
170.0
 20
-646.0
 30
0.0
 40
1.0
  1
* Poco comun dentro de la vivi...
 11
170.0
 21
-646.0
 31
0.0
100
AcDbText
 73
2
  0
TEXT
  5
1E4
330
17
100
AcDbEntity
  8
TITULOS
100
AcDbText
 10
0.0
 20
-690.0
 30
0.0
 40
3.5
  1
=== CATEGORIA: CANALIZACIONES ===
 11
0.0
 21
-690.0
 31
0.0
100
AcDbText
 73
2
  0
LWPOLYLINE
  5
1E5
330
17
100
AcDbEntity
  8
CELDAS_GUIA
100
AcDbPolyline
 90
5
 70
0
 10
0.0
 20
-702.0
 10
60.0
 20
-702.0
 10
60.0
 20
-737.0
 10
0.0
 20
-737.0
 10
0.0
 20
-702.0
  0
INSERT
  5
1ED
330
17
100
AcDbEntity
  8
SIMBOLOS_DGE
100
AcDbBlockReference
  2
DGE_09_93_05_CANALIZACION_SUBE
 10
15.0
 20
-719.5
 30
0.0
 41
45.0
 42
45.0
 43
45.0
  0
TEXT
  5
1EF
330
17
100
AcDbEntity
  8
TEXTOS_CODIGOS
100
AcDbText
 10
30.0
 20
-710.0
 30
0.0
 40
1.8
  1
COD: 09-93-05
 11
30.0
 21
-710.0
 31
0.0
100
AcDbText
 73
2
  0
TEXT
  5
1F0
330
17
100
AcDbEntity
  8
TEXTOS_NOMBRES
100
AcDbText
 10
30.0
 20
-717.0
 30
0.0
 40
1.4
  1
Canalizacion hacia
 11
30.0
 21
-717.0
 31
0.0
100
AcDbText
 73
2
  0
TEXT
  5
1F1
330
17
100
AcDbEntity
  8
TEXTOS_NOMBRES
100
AcDbText
 10
30.0
 20
-722.0
 30
0.0
 40
1.4
  1
arriba (Subida)
 11
30.0
 21
-722.0
 31
0.0
100
AcDbText
 73
2
  0
TEXT
  5
1F2
330
17
100
AcDbEntity
  8
OBSERVACIONES
100
AcDbText
 10
30.0
 20
-728.0
 30
0.0
 40
1.0
  1
* Critico para planos multipiso.
 11
30.0
 21
-728.0
 31
0.0
100
AcDbText
 73
2
  0
LWPOLYLINE
  5
1F3
330
17
100
AcDbEntity
  8
CELDAS_GUIA
100
AcDbPolyline
 90
5
 70
0
 10
70.0
 20
-702.0
 10
130.0
 20
-702.0
 10
130.0
 20
-737.0
 10
70.0
 20
-737.0
 10
70.0
 20
-702.0
  0
INSERT
  5
1FB
330
17
100
AcDbEntity
  8
SIMBOLOS_DGE
100
AcDbBlockReference
  2
DGE_09_93_06_CANALIZACION_BAJA
 10
85.0
 20
-719.5
 30
0.0
 41
45.0
 42
45.0
 43
45.0
  0
TEXT
  5
1FD
330
17
100
AcDbEntity
  8
TEXTOS_CODIGOS
100
AcDbText
 10
100.0
 20
-710.0
 30
0.0
 40
1.8
  1
COD: 09-93-06
 11
100.0
 21
-710.0
 31
0.0
100
AcDbText
 73
2
  0
TEXT
  5
1FE
330
17
100
AcDbEntity
  8
TEXTOS_NOMBRES
100
AcDbText
 10
100.0
 20
-717.0
 30
0.0
 40
1.4
  1
Canalizacion hacia
 11
100.0
 21
-717.0
 31
0.0
100
AcDbText
 73
2
  0
TEXT
  5
1FF
330
17
100
AcDbEntity
  8
TEXTOS_NOMBRES
100
AcDbText
 10
100.0
 20
-722.0
 30
0.0
 40
1.4
  1
abajo (Bajada)
 11
100.0
 21
-722.0
 31
0.0
100
AcDbText
 73
2
  0
TEXT
  5
200
330
17
100
AcDbEntity
  8
OBSERVACIONES
100
AcDbText
 10
100.0
 20
-728.0
 30
0.0
 40
1.0
  1
* Indica cambio de cota descen...
 11
100.0
 21
-728.0
 31
0.0
100
AcDbText
 73
2
  0
TEXT
  5
201
330
17
100
AcDbEntity
  8
TITULOS
100
AcDbText
 10
0.0
 20
-772.0
 30
0.0
 40
3.5
  1
=== CATEGORIA: TOMACORRIENTES ===
 11
0.0
 21
-772.0
 31
0.0
100
AcDbText
 73
2
  0
LWPOLYLINE
  5
202
330
17
100
AcDbEntity
  8
CELDAS_GUIA
100
AcDbPolyline
 90
5
 70
0
 10
0.0
 20
-784.0
 10
60.0
 20
-784.0
 10
60.0
 20
-819.0
 10
0.0
 20
-819.0
 10
0.0
 20
-784.0
  0
INSERT
  5
209
330
17
100
AcDbEntity
  8
SIMBOLOS_DGE
100
AcDbBlockReference
  2
DGE_09_93_13_TOMACORRIENTE_MONOFASICO
 10
15.0
 20
-801.5
 30
0.0
 41
45.0
 42
45.0
 43
45.0
  0
TEXT
  5
20B
330
17
100
AcDbEntity
  8
TEXTOS_CODIGOS
100
AcDbText
 10
30.0
 20
-792.0
 30
0.0
 40
1.8
  1
COD: 09-93-13
 11
30.0
 21
-792.0
 31
0.0
100
AcDbText
 73
2
  0
TEXT
  5
20C
330
17
100
AcDbEntity
  8
TEXTOS_NOMBRES
100
AcDbText
 10
30.0
 20
-800.0
 30
0.0
 40
1.5
  1
Tomacorriente monofasico
 11
30.0
 21
-800.0
 31
0.0
100
AcDbText
 73
2
  0
TEXT
  5
20D
330
17
100
AcDbEntity
  8
OBSERVACIONES
100
AcDbText
 10
30.0
 20
-808.0
 30
0.0
 40
1.0
  1
* Simbolo de uso masivo.
 11
30.0
 21
-808.0
 31
0.0
100
AcDbText
 73
2
  0
LWPOLYLINE
  5
20E
330
17
100
AcDbEntity
  8
CELDAS_GUIA
100
AcDbPolyline
 90
5
 70
0
 10
70.0
 20
-784.0
 10
130.0
 20
-784.0
 10
130.0
 20
-819.0
 10
70.0
 20
-819.0
 10
70.0
 20
-784.0
  0
INSERT
  5
216
330
17
100
AcDbEntity
  8
SIMBOLOS_DGE
100
AcDbBlockReference
  2
DGE_09_93_14_TOMACORRIENTE_PISO
 10
85.0
 20
-801.5
 30
0.0
 41
45.0
 42
45.0
 43
45.0
  0
TEXT
  5
218
330
17
100
AcDbEntity
  8
TEXTOS_CODIGOS
100
AcDbText
 10
100.0
 20
-792.0
 30
0.0
 40
1.8
  1
COD: 09-93-14
 11
100.0
 21
-792.0
 31
0.0
100
AcDbText
 73
2
  0
TEXT
  5
219
330
17
100
AcDbEntity
  8
TEXTOS_NOMBRES
100
AcDbText
 10
100.0
 20
-799.0
 30
0.0
 40
1.4
  1
Tomacorriente monofasico
 11
100.0
 21
-799.0
 31
0.0
100
AcDbText
 73
2
  0
TEXT
  5
21A
330
17
100
AcDbEntity
  8
TEXTOS_NOMBRES
100
AcDbText
 10
100.0
 20
-804.0
 30
0.0
 40
1.4
  1
en el piso
 11
100.0
 21
-804.0
 31
0.0
100
AcDbText
 73
2
  0
TEXT
  5
21B
330
17
100
AcDbEntity
  8
OBSERVACIONES
100
AcDbText
 10
100.0
 20
-810.0
 30
0.0
 40
1.0
  1
* Indica montaje en caja de pi...
 11
100.0
 21
-810.0
 31
0.0
100
AcDbText
 73
2
  0
LWPOLYLINE
  5
21C
330
17
100
AcDbEntity
  8
CELDAS_GUIA
100
AcDbPolyline
 90
5
 70
0
 10
140.0
 20
-784.0
 10
200.0
 20
-784.0
 10
200.0
 20
-819.0
 10
140.0
 20
-819.0
 10
140.0
 20
-784.0
  0
INSERT
  5
224
330
17
100
AcDbEntity
  8
SIMBOLOS_DGE
100
AcDbBlockReference
  2
DGE_09_93_15_TOMACORRIENTE_TRIFASICO
 10
155.0
 20
-801.5
 30
0.0
 41
45.0
 42
45.0
 43
45.0
  0
TEXT
  5
226
330
17
100
AcDbEntity
  8
TEXTOS_CODIGOS
100
AcDbText
 10
170.0
 20
-792.0
 30
0.0
 40
1.8
  1
COD: 09-93-15
 11
170.0
 21
-792.0
 31
0.0
100
AcDbText
 73
2
  0
TEXT
  5
227
330
17
100
AcDbEntity
  8
TEXTOS_NOMBRES
100
AcDbText
 10
170.0
 20
-800.0
 30
0.0
 40
1.5
  1
Tomacorriente trifasico
 11
170.0
 21
-800.0
 31
0.0
100
AcDbText
 73
2
  0
TEXT
  5
228
330
17
100
AcDbEntity
  8
OBSERVACIONES
100
AcDbText
 10
170.0
 20
-808.0
 30
0.0
 40
1.0
  1
* Requiere 3 fases y tierra.
 11
170.0
 21
-808.0
 31
0.0
100
AcDbText
 73
2
  0
LWPOLYLINE
  5
229
330
17
100
AcDbEntity
  8
CELDAS_GUIA
100
AcDbPolyline
 90
5
 70
0
 10
0.0
 20
-829.0
 10
60.0
 20
-829.0
 10
60.0
 20
-864.0
 10
0.0
 20
-864.0
 10
0.0
 20
-829.0
  0
INSERT
  5
231
330
17
100
AcDbEntity
  8
SIMBOLOS_DGE
100
AcDbBlockReference
  2
DGE_09_93_17_TOMACORRIENTE_TIERRA
 10
15.0
 20
-846.5
 30
0.0
 41
45.0
 42
45.0
 43
45.0
  0
TEXT
  5
233
330
17
100
AcDbEntity
  8
TEXTOS_CODIGOS
100
AcDbText
 10
30.0
 20
-837.0
 30
0.0
 40
1.8
  1
COD: 09-93-17
 11
30.0
 21
-837.0
 31
0.0
100
AcDbText
 73
2
  0
TEXT
  5
234
330
17
100
AcDbEntity
  8
TEXTOS_NOMBRES
100
AcDbText
 10
30.0
 20
-844.0
 30
0.0
 40
1.4
  1
Tomacorriente monofasico
 11
30.0
 21
-844.0
 31
0.0
100
AcDbText
 73
2
  0
TEXT
  5
235
330
17
100
AcDbEntity
  8
TEXTOS_NOMBRES
100
AcDbText
 10
30.0
 20
-849.0
 30
0.0
 40
1.4
  1
puesto a tierra
 11
30.0
 21
-849.0
 31
0.0
100
AcDbText
 73
2
  0
TEXT
  5
236
330
17
100
AcDbEntity
  8
OBSERVACIONES
100
AcDbText
 10
30.0
 20
-855.0
 30
0.0
 40
1.0
  1
* Norma exigible en edificacio...
 11
30.0
 21
-855.0
 31
0.0
100
AcDbText
 73
2
  0
LWPOLYLINE
  5
237
330
17
100
AcDbEntity
  8
CELDAS_GUIA
100
AcDbPolyline
 90
5
 70
0
 10
70.0
 20
-829.0
 10
130.0
 20
-829.0
 10
130.0
 20
-864.0
 10
70.0
 20
-864.0
 10
70.0
 20
-829.0
  0
INSERT
  5
240
330
17
100
AcDbEntity
  8
SIMBOLOS_DGE
100
AcDbBlockReference
  2
DGE_09_93_18_SALIDA_COCINA
 10
85.0
 20
-846.5
 30
0.0
 41
45.0
 42
45.0
 43
45.0
  0
TEXT
  5
242
330
17
100
AcDbEntity
  8
TEXTOS_CODIGOS
100
AcDbText
 10
100.0
 20
-837.0
 30
0.0
 40
1.8
  1
COD: 09-93-18
 11
100.0
 21
-837.0
 31
0.0
100
AcDbText
 73
2
  0
TEXT
  5
243
330
17
100
AcDbEntity
  8
TEXTOS_NOMBRES
100
AcDbText
 10
100.0
 20
-845.0
 30
0.0
 40
1.5
  1
Salida trifasica para cocina
 11
100.0
 21
-845.0
 31
0.0
100
AcDbText
 73
2
  0
TEXT
  5
244
330
17
100
AcDbEntity
  8
OBSERVACIONES
100
AcDbText
 10
100.0
 20
-853.0
 30
0.0
 40
1.0
  1
* Normalmente circuito indepen...
 11
100.0
 21
-853.0
 31
0.0
100
AcDbText
 73
2
  0
LWPOLYLINE
  5
245
330
17
100
AcDbEntity
  8
CELDAS_GUIA
100
AcDbPolyline
 90
5
 70
0
 10
140.0
 20
-829.0
 10
200.0
 20
-829.0
 10
200.0
 20
-864.0
 10
140.0
 20
-864.0
 10
140.0
 20
-829.0
  0
INSERT
  5
24D
330
17
100
AcDbEntity
  8
SIMBOLOS_DGE
100
AcDbBlockReference
  2
DGE_09_93_19_TOMACORRIENTE_AGUA
 10
155.0
 20
-846.5
 30
0.0
 41
45.0
 42
45.0
 43
45.0
  0
TEXT
  5
24F
330
17
100
AcDbEntity
  8
TEXTOS_CODIGOS
100
AcDbText
 10
170.0
 20
-837.0
 30
0.0
 40
1.8
  1
COD: 09-93-19
 11
170.0
 21
-837.0
 31
0.0
100
AcDbText
 73
2
  0
TEXT
  5
250
330
17
100
AcDbEntity
  8
TEXTOS_NOMBRES
100
AcDbText
 10
170.0
 20
-844.0
 30
0.0
 40
1.4
  1
Tomacorriente a prueba
 11
170.0
 21
-844.0
 31
0.0
100
AcDbText
 73
2
  0
TEXT
  5
251
330
17
100
AcDbEntity
  8
TEXTOS_NOMBRES
100
AcDbText
 10
170.0
 20
-849.0
 30
0.0
 40
1.4
  1
de agua (PA)
 11
170.0
 21
-849.0
 31
0.0
100
AcDbText
 73
2
  0
TEXT
  5
252
330
17
100
AcDbEntity
  8
OBSERVACIONES
100
AcDbText
 10
170.0
 20
-855.0
 30
0.0
 40
1.0
  1
* Requiere tapa protectora bas...
 11
170.0
 21
-855.0
 31
0.0
100
AcDbText
 73
2
  0
LWPOLYLINE
  5
253
330
17
100
AcDbEntity
  8
CELDAS_GUIA
100
AcDbPolyline
 90
5
 70
0
 10
0.0
 20
-874.0
 10
60.0
 20
-874.0
 10
60.0
 20
-909.0
 10
0.0
 20
-909.0
 10
0.0
 20
-874.0
  0
INSERT
  5
25C
330
17
100
AcDbEntity
  8
SIMBOLOS_DGE
100
AcDbBlockReference
  2
DGE_09_93_20_TOMACORRIENTE_MULTIPLE
 10
15.0
 20
-891.5
 30
0.0
 41
45.0
 42
45.0
 43
45.0
  0
TEXT
  5
25E
330
17
100
AcDbEntity
  8
TEXTOS_CODIGOS
100
AcDbText
 10
30.0
 20
-882.0
 30
0.0
 40
1.8
  1
COD: 09-93-20
 11
30.0
 21
-882.0
 31
0.0
100
AcDbText
 73
2
  0
TEXT
  5
25F
330
17
100
AcDbEntity
  8
TEXTOS_NOMBRES
100
AcDbText
 10
30.0
 20
-889.0
 30
0.0
 40
1.4
  1
Tomacorriente
 11
30.0
 21
-889.0
 31
0.0
100
AcDbText
 73
2
  0
TEXT
  5
260
330
17
100
AcDbEntity
  8
TEXTOS_NOMBRES
100
AcDbText
 10
30.0
 20
-894.0
 30
0.0
 40
1.4
  1
multiple (Potencia)
 11
30.0
 21
-894.0
 31
0.0
100
AcDbText
 73
2
  0
TEXT
  5
261
330
17
100
AcDbEntity
  8
OBSERVACIONES
100
AcDbText
 10
30.0
 20
-900.0
 30
0.0
 40
1.0
  1
* Indica agrupacion de tomas.
 11
30.0
 21
-900.0
 31
0.0
100
AcDbText
 73
2
  0
LWPOLYLINE
  5
262
330
17
100
AcDbEntity
  8
CELDAS_GUIA
100
AcDbPolyline
 90
5
 70
0
 10
70.0
 20
-874.0
 10
130.0
 20
-874.0
 10
130.0
 20
-909.0
 10
70.0
 20
-909.0
 10
70.0
 20
-874.0
  0
INSERT
  5
26A
330
17
100
AcDbEntity
  8
SIMBOLOS_DGE
100
AcDbBlockReference
  2
DGE_09_93_22_TOMACORRIENTE_PROTECCION
 10
85.0
 20
-891.5
 30
0.0
 41
45.0
 42
45.0
 43
45.0
  0
TEXT
  5
26C
330
17
100
AcDbEntity
  8
TEXTOS_CODIGOS
100
AcDbText
 10
100.0
 20
-882.0
 30
0.0
 40
1.8
  1
COD: 09-93-22
 11
100.0
 21
-882.0
 31
0.0
100
AcDbText
 73
2
  0
TEXT
  5
26D
330
17
100
AcDbEntity
  8
TEXTOS_NOMBRES
100
AcDbText
 10
100.0
 20
-889.0
 30
0.0
 40
1.4
  1
Tomacorriente con
 11
100.0
 21
-889.0
 31
0.0
100
AcDbText
 73
2
  0
TEXT
  5
26E
330
17
100
AcDbEntity
  8
TEXTOS_NOMBRES
100
AcDbText
 10
100.0
 20
-894.0
 30
0.0
 40
1.4
  1
contacto de proteccion
 11
100.0
 21
-894.0
 31
0.0
100
AcDbText
 73
2
  0
TEXT
  5
26F
330
17
100
AcDbEntity
  8
OBSERVACIONES
100
AcDbText
 10
100.0
 20
-900.0
 30
0.0
 40
1.0
  1
* Variacion grafica homologada.
 11
100.0
 21
-900.0
 31
0.0
100
AcDbText
 73
2
  0
LWPOLYLINE
  5
270
330
17
100
AcDbEntity
  8
CELDAS_GUIA
100
AcDbPolyline
 90
5
 70
0
 10
140.0
 20
-874.0
 10
200.0
 20
-874.0
 10
200.0
 20
-909.0
 10
140.0
 20
-909.0
 10
140.0
 20
-874.0
  0
INSERT
  5
278
330
17
100
AcDbEntity
  8
SIMBOLOS_DGE
100
AcDbBlockReference
  2
DGE_09_93_24_TOMACORRIENTE_INTERRUPTOR
 10
155.0
 20
-891.5
 30
0.0
 41
45.0
 42
45.0
 43
45.0
  0
TEXT
  5
27A
330
17
100
AcDbEntity
  8
TEXTOS_CODIGOS
100
AcDbText
 10
170.0
 20
-882.0
 30
0.0
 40
1.8
  1
COD: 09-93-24
 11
170.0
 21
-882.0
 31
0.0
100
AcDbText
 73
2
  0
TEXT
  5
27B
330
17
100
AcDbEntity
  8
TEXTOS_NOMBRES
100
AcDbText
 10
170.0
 20
-889.0
 30
0.0
 40
1.4
  1
Tomacorriente con
 11
170.0
 21
-889.0
 31
0.0
100
AcDbText
 73
2
  0
TEXT
  5
27C
330
17
100
AcDbEntity
  8
TEXTOS_NOMBRES
100
AcDbText
 10
170.0
 20
-894.0
 30
0.0
 40
1.4
  1
interruptor unipolar
 11
170.0
 21
-894.0
 31
0.0
100
AcDbText
 73
2
  0
TEXT
  5
27D
330
17
100
AcDbEntity
  8
OBSERVACIONES
100
AcDbText
 10
170.0
 20
-900.0
 30
0.0
 40
1.0
  1
* Ahorra espacio en paredes.
 11
170.0
 21
-900.0
 31
0.0
100
AcDbText
 73
2
  0
LWPOLYLINE
  5
27E
330
17
100
AcDbEntity
  8
CELDAS_GUIA
100
AcDbPolyline
 90
5
 70
0
 10
0.0
 20
-919.0
 10
60.0
 20
-919.0
 10
60.0
 20
-954.0
 10
0.0
 20
-954.0
 10
0.0
 20
-919.0
  0
INSERT
  5
287
330
17
100
AcDbEntity
  8
SIMBOLOS_DGE
100
AcDbBlockReference
  2
DGE_09_93_26_TOMACORRIENTE_TRANSFORMADOR
 10
15.0
 20
-936.5
 30
0.0
 41
45.0
 42
45.0
 43
45.0
  0
TEXT
  5
289
330
17
100
AcDbEntity
  8
TEXTOS_CODIGOS
100
AcDbText
 10
30.0
 20
-927.0
 30
0.0
 40
1.8
  1
COD: 09-93-26
 11
30.0
 21
-927.0
 31
0.0
100
AcDbText
 73
2
  0
TEXT
  5
28A
330
17
100
AcDbEntity
  8
TEXTOS_NOMBRES
100
AcDbText
 10
30.0
 20
-934.0
 30
0.0
 40
1.4
  1
Tomacorriente con
 11
30.0
 21
-934.0
 31
0.0
100
AcDbText
 73
2
  0
TEXT
  5
28B
330
17
100
AcDbEntity
  8
TEXTOS_NOMBRES
100
AcDbText
 10
30.0
 20
-939.0
 30
0.0
 40
1.4
  1
transformador aislante
 11
30.0
 21
-939.0
 31
0.0
100
AcDbText
 73
2
  0
TEXT
  5
28C
330
17
100
AcDbEntity
  8
OBSERVACIONES
100
AcDbText
 10
30.0
 20
-945.0
 30
0.0
 40
1.0
  1
* Previene choques electricos ...
 11
30.0
 21
-945.0
 31
0.0
100
AcDbText
 73
2
  0
TEXT
  5
28D
330
17
100
AcDbEntity
  8
TITULOS
100
AcDbText
 10
0.0
 20
-989.0
 30
0.0
 40
3.5
  1
=== CATEGORIA: COMUNICACIONES ===
 11
0.0
 21
-989.0
 31
0.0
100
AcDbText
 73
2
  0
LWPOLYLINE
  5
28E
330
17
100
AcDbEntity
  8
CELDAS_GUIA
100
AcDbPolyline
 90
5
 70
0
 10
0.0
 20
-1001.0
 10
60.0
 20
-1001.0
 10
60.0
 20
-1036.0
 10
0.0
 20
-1036.0
 10
0.0
 20
-1001.0
  0
INSERT
  5
297
330
17
100
AcDbEntity
  8
SIMBOLOS_DGE
100
AcDbBlockReference
  2
DGE_09_93_27_TELEFONO
 10
15.0
 20
-1018.5
 30
0.0
 41
45.0
 42
45.0
 43
45.0
  0
TEXT
  5
299
330
17
100
AcDbEntity
  8
TEXTOS_CODIGOS
100
AcDbText
 10
30.0
 20
-1009.0
 30
0.0
 40
1.8
  1
COD: 09-93-27
 11
30.0
 21
-1009.0
 31
0.0
100
AcDbText
 73
2
  0
TEXT
  5
29A
330
17
100
AcDbEntity
  8
TEXTOS_NOMBRES
100
AcDbText
 10
30.0
 20
-1016.0
 30
0.0
 40
1.4
  1
Tomacorriente de
 11
30.0
 21
-1016.0
 31
0.0
100
AcDbText
 73
2
  0
TEXT
  5
29B
330
17
100
AcDbEntity
  8
TEXTOS_NOMBRES
100
AcDbText
 10
30.0
 20
-1021.0
 30
0.0
 40
1.4
  1
telecomunicaciones (Telefono)
 11
30.0
 21
-1021.0
 31
0.0
100
AcDbText
 73
2
  0
TEXT
  5
29C
330
17
100
AcDbEntity
  8
OBSERVACIONES
100
AcDbText
 10
30.0
 20
-1027.0
 30
0.0
 40
1.0
  1
* Uso decreciente por telefoni...
 11
30.0
 21
-1027.0
 31
0.0
100
AcDbText
 73
2
  0
LWPOLYLINE
  5
29D
330
17
100
AcDbEntity
  8
CELDAS_GUIA
100
AcDbPolyline
 90
5
 70
0
 10
70.0
 20
-1001.0
 10
130.0
 20
-1001.0
 10
130.0
 20
-1036.0
 10
70.0
 20
-1036.0
 10
70.0
 20
-1001.0
  0
INSERT
  5
2A6
330
17
100
AcDbEntity
  8
SIMBOLOS_DGE
100
AcDbBlockReference
  2
DGE_09_93_27_TV
 10
85.0
 20
-1018.5
 30
0.0
 41
45.0
 42
45.0
 43
45.0
  0
TEXT
  5
2A8
330
17
100
AcDbEntity
  8
TEXTOS_CODIGOS
100
AcDbText
 10
100.0
 20
-1009.0
 30
0.0
 40
1.8
  1
COD: 09-93-27-TV
 11
100.0
 21
-1009.0
 31
0.0
100
AcDbText
 73
2
  0
TEXT
  5
2A9
330
17
100
AcDbEntity
  8
TEXTOS_NOMBRES
100
AcDbText
 10
100.0
 20
-1016.0
 30
0.0
 40
1.4
  1
Tomacorriente de
 11
100.0
 21
-1016.0
 31
0.0
100
AcDbText
 73
2
  0
TEXT
  5
2AA
330
17
100
AcDbEntity
  8
TEXTOS_NOMBRES
100
AcDbText
 10
100.0
 20
-1021.0
 30
0.0
 40
1.4
  1
television (TV)
 11
100.0
 21
-1021.0
 31
0.0
100
AcDbText
 73
2
  0
TEXT
  5
2AB
330
17
100
AcDbEntity
  8
OBSERVACIONES
100
AcDbText
 10
100.0
 20
-1027.0
 30
0.0
 40
1.0
  1
* Muy frecuente en viviendas.
 11
100.0
 21
-1027.0
 31
0.0
100
AcDbText
 73
2
  0
LWPOLYLINE
  5
2AC
330
17
100
AcDbEntity
  8
CELDAS_GUIA
100
AcDbPolyline
 90
5
 70
0
 10
140.0
 20
-1001.0
 10
200.0
 20
-1001.0
 10
200.0
 20
-1036.0
 10
140.0
 20
-1036.0
 10
140.0
 20
-1001.0
  0
INSERT
  5
2B8
330
17
100
AcDbEntity
  8
SIMBOLOS_DGE
100
AcDbBlockReference
  2
DGE_09_93_73_INTERFONO
 10
155.0
 20
-1018.5
 30
0.0
 41
45.0
 42
45.0
 43
45.0
  0
TEXT
  5
2BA
330
17
100
AcDbEntity
  8
TEXTOS_CODIGOS
100
AcDbText
 10
170.0
 20
-1009.0
 30
0.0
 40
1.8
  1
COD: 09-93-73
 11
170.0
 21
-1009.0
 31
0.0
100
AcDbText
 73
2
  0
TEXT
  5
2BB
330
17
100
AcDbEntity
  8
TEXTOS_NOMBRES
100
AcDbText
 10
170.0
 20
-1017.0
 30
0.0
 40
1.5
  1
Interfono (Intercomunicador)
 11
170.0
 21
-1017.0
 31
0.0
100
AcDbText
 73
2
  0
TEXT
  5
2BC
330
17
100
AcDbEntity
  8
OBSERVACIONES
100
AcDbText
 10
170.0
 20
-1025.0
 30
0.0
 40
1.0
  1
* Indica terminal de comunicac...
 11
170.0
 21
-1025.0
 31
0.0
100
AcDbText
 73
2
  0
TEXT
  5
2BD
330
17
100
AcDbEntity
  8
TITULOS
100
AcDbText
 10
0.0
 20
-1071.0
 30
0.0
 40
3.5
  1
=== CATEGORIA: INTERRUPTORES ===
 11
0.0
 21
-1071.0
 31
0.0
100
AcDbText
 73
2
  0
LWPOLYLINE
  5
2BE
330
17
100
AcDbEntity
  8
CELDAS_GUIA
100
AcDbPolyline
 90
5
 70
0
 10
0.0
 20
-1083.0
 10
60.0
 20
-1083.0
 10
60.0
 20
-1118.0
 10
0.0
 20
-1118.0
 10
0.0
 20
-1083.0
  0
INSERT
  5
2C4
330
17
100
AcDbEntity
  8
SIMBOLOS_DGE
100
AcDbBlockReference
  2
DGE_09_93_28_INTERRUPTOR
 10
15.0
 20
-1100.5
 30
0.0
 41
45.0
 42
45.0
 43
45.0
  0
TEXT
  5
2C6
330
17
100
AcDbEntity
  8
TEXTOS_CODIGOS
100
AcDbText
 10
30.0
 20
-1091.0
 30
0.0
 40
1.8
  1
COD: 09-93-28
 11
30.0
 21
-1091.0
 31
0.0
100
AcDbText
 73
2
  0
TEXT
  5
2C7
330
17
100
AcDbEntity
  8
TEXTOS_NOMBRES
100
AcDbText
 10
30.0
 20
-1098.0
 30
0.0
 40
1.4
  1
Interruptor
 11
30.0
 21
-1098.0
 31
0.0
100
AcDbText
 73
2
  0
TEXT
  5
2C8
330
17
100
AcDbEntity
  8
TEXTOS_NOMBRES
100
AcDbText
 10
30.0
 20
-1103.0
 30
0.0
 40
1.4
  1
(Simbolo general)
 11
30.0
 21
-1103.0
 31
0.0
100
AcDbText
 73
2
  0
TEXT
  5
2C9
330
17
100
AcDbEntity
  8
OBSERVACIONES
100
AcDbText
 10
30.0
 20
-1109.0
 30
0.0
 40
1.0
  1
* Bloque base de interruptores.
 11
30.0
 21
-1109.0
 31
0.0
100
AcDbText
 73
2
  0
LWPOLYLINE
  5
2CA
330
17
100
AcDbEntity
  8
CELDAS_GUIA
100
AcDbPolyline
 90
5
 70
0
 10
70.0
 20
-1083.0
 10
130.0
 20
-1083.0
 10
130.0
 20
-1118.0
 10
70.0
 20
-1118.0
 10
70.0
 20
-1083.0
  0
INSERT
  5
2D2
330
17
100
AcDbEntity
  8
SIMBOLOS_DGE
100
AcDbBlockReference
  2
DGE_09_93_29_INTERRUPTOR_PILOTO
 10
85.0
 20
-1100.5
 30
0.0
 41
45.0
 42
45.0
 43
45.0
  0
TEXT
  5
2D4
330
17
100
AcDbEntity
  8
TEXTOS_CODIGOS
100
AcDbText
 10
100.0
 20
-1091.0
 30
0.0
 40
1.8
  1
COD: 09-93-29
 11
100.0
 21
-1091.0
 31
0.0
100
AcDbText
 73
2
  0
TEXT
  5
2D5
330
17
100
AcDbEntity
  8
TEXTOS_NOMBRES
100
AcDbText
 10
100.0
 20
-1099.0
 30
0.0
 40
1.5
  1
Interruptor con luz piloto
 11
100.0
 21
-1099.0
 31
0.0
100
AcDbText
 73
2
  0
TEXT
  5
2D6
330
17
100
AcDbEntity
  8
OBSERVACIONES
100
AcDbText
 10
100.0
 20
-1107.0
 30
0.0
 40
1.0
  1
* La X indica la lampara indic...
 11
100.0
 21
-1107.0
 31
0.0
100
AcDbText
 73
2
  0
LWPOLYLINE
  5
2D7
330
17
100
AcDbEntity
  8
CELDAS_GUIA
100
AcDbPolyline
 90
5
 70
0
 10
140.0
 20
-1083.0
 10
200.0
 20
-1083.0
 10
200.0
 20
-1118.0
 10
140.0
 20
-1118.0
 10
140.0
 20
-1083.0
  0
INSERT
  5
2DE
330
17
100
AcDbEntity
  8
SIMBOLOS_DGE
100
AcDbBlockReference
  2
DGE_09_93_30_INTERRUPTOR_UNIPOLAR
 10
155.0
 20
-1100.5
 30
0.0
 41
45.0
 42
45.0
 43
45.0
  0
TEXT
  5
2E0
330
17
100
AcDbEntity
  8
TEXTOS_CODIGOS
100
AcDbText
 10
170.0
 20
-1091.0
 30
0.0
 40
1.8
  1
COD: 09-93-30
 11
170.0
 21
-1091.0
 31
0.0
100
AcDbText
 73
2
  0
TEXT
  5
2E1
330
17
100
AcDbEntity
  8
TEXTOS_NOMBRES
100
AcDbText
 10
170.0
 20
-1098.0
 30
0.0
 40
1.4
  1
Interruptor
 11
170.0
 21
-1098.0
 31
0.0
100
AcDbText
 73
2
  0
TEXT
  5
2E2
330
17
100
AcDbEntity
  8
TEXTOS_NOMBRES
100
AcDbText
 10
170.0
 20
-1103.0
 30
0.0
 40
1.4
  1
unipolar (Simple)
 11
170.0
 21
-1103.0
 31
0.0
100
AcDbText
 73
2
  0
TEXT
  5
2E3
330
17
100
AcDbEntity
  8
OBSERVACIONES
100
AcDbText
 10
170.0
 20
-1109.0
 30
0.0
 40
1.0
  1
* El simbolo mas usado de inte...
 11
170.0
 21
-1109.0
 31
0.0
100
AcDbText
 73
2
  0
LWPOLYLINE
  5
2E4
330
17
100
AcDbEntity
  8
CELDAS_GUIA
100
AcDbPolyline
 90
5
 70
0
 10
0.0
 20
-1128.0
 10
60.0
 20
-1128.0
 10
60.0
 20
-1163.0
 10
0.0
 20
-1163.0
 10
0.0
 20
-1128.0
  0
INSERT
  5
2EC
330
17
100
AcDbEntity
  8
SIMBOLOS_DGE
100
AcDbBlockReference
  2
DGE_09_93_31_INTERRUPTOR_BIPOLAR
 10
15.0
 20
-1145.5
 30
0.0
 41
45.0
 42
45.0
 43
45.0
  0
TEXT
  5
2EE
330
17
100
AcDbEntity
  8
TEXTOS_CODIGOS
100
AcDbText
 10
30.0
 20
-1136.0
 30
0.0
 40
1.8
  1
COD: 09-93-31
 11
30.0
 21
-1136.0
 31
0.0
100
AcDbText
 73
2
  0
TEXT
  5
2EF
330
17
100
AcDbEntity
  8
TEXTOS_NOMBRES
100
AcDbText
 10
30.0
 20
-1144.0
 30
0.0
 40
1.5
  1
Interruptor bipolar
 11
30.0
 21
-1144.0
 31
0.0
100
AcDbText
 73
2
  0
TEXT
  5
2F0
330
17
100
AcDbEntity
  8
OBSERVACIONES
100
AcDbText
 10
30.0
 20
-1152.0
 30
0.0
 40
1.0
  1
* Corta ambas fases.
 11
30.0
 21
-1152.0
 31
0.0
100
AcDbText
 73
2
  0
LWPOLYLINE
  5
2F1
330
17
100
AcDbEntity
  8
CELDAS_GUIA
100
AcDbPolyline
 90
5
 70
0
 10
70.0
 20
-1128.0
 10
130.0
 20
-1128.0
 10
130.0
 20
-1163.0
 10
70.0
 20
-1163.0
 10
70.0
 20
-1128.0
  0
INSERT
  5
2F8
330
17
100
AcDbEntity
  8
SIMBOLOS_DGE
100
AcDbBlockReference
  2
DGE_09_93_32_INTERRUPTOR_CONMUTADO
 10
85.0
 20
-1145.5
 30
0.0
 41
45.0
 42
45.0
 43
45.0
  0
TEXT
  5
2FA
330
17
100
AcDbEntity
  8
TEXTOS_CODIGOS
100
AcDbText
 10
100.0
 20
-1136.0
 30
0.0
 40
1.8
  1
COD: 09-93-32
 11
100.0
 21
-1136.0
 31
0.0
100
AcDbText
 73
2
  0
TEXT
  5
2FB
330
17
100
AcDbEntity
  8
TEXTOS_NOMBRES
100
AcDbText
 10
100.0
 20
-1143.0
 30
0.0
 40
1.4
  1
Interruptor de tres
 11
100.0
 21
-1143.0
 31
0.0
100
AcDbText
 73
2
  0
TEXT
  5
2FC
330
17
100
AcDbEntity
  8
TEXTOS_NOMBRES
100
AcDbText
 10
100.0
 20
-1148.0
 30
0.0
 40
1.4
  1
vias (Conmutador S3)
 11
100.0
 21
-1148.0
 31
0.0
100
AcDbText
 73
2
  0
TEXT
  5
2FD
330
17
100
AcDbEntity
  8
OBSERVACIONES
100
AcDbText
 10
100.0
 20
-1154.0
 30
0.0
 40
1.0
  1
* Usado por pares.
 11
100.0
 21
-1154.0
 31
0.0
100
AcDbText
 73
2
  0
LWPOLYLINE
  5
2FE
330
17
100
AcDbEntity
  8
CELDAS_GUIA
100
AcDbPolyline
 90
5
 70
0
 10
140.0
 20
-1128.0
 10
200.0
 20
-1128.0
 10
200.0
 20
-1163.0
 10
140.0
 20
-1163.0
 10
140.0
 20
-1128.0
  0
INSERT
  5
305
330
17
100
AcDbEntity
  8
SIMBOLOS_DGE
100
AcDbBlockReference
  2
DGE_09_93_34_CONMUTADOR_UNIPOLAR
 10
155.0
 20
-1145.5
 30
0.0
 41
45.0
 42
45.0
 43
45.0
  0
TEXT
  5
307
330
17
100
AcDbEntity
  8
TEXTOS_CODIGOS
100
AcDbText
 10
170.0
 20
-1136.0
 30
0.0
 40
1.8
  1
COD: 09-93-34
 11
170.0
 21
-1136.0
 31
0.0
100
AcDbText
 73
2
  0
TEXT
  5
308
330
17
100
AcDbEntity
  8
TEXTOS_NOMBRES
100
AcDbText
 10
170.0
 20
-1143.0
 30
0.0
 40
1.4
  1
Conmutador unipolar
 11
170.0
 21
-1143.0
 31
0.0
100
AcDbText
 73
2
  0
TEXT
  5
309
330
17
100
AcDbEntity
  8
TEXTOS_NOMBRES
100
AcDbText
 10
170.0
 20
-1148.0
 30
0.0
 40
1.4
  1
(Doble palanca)
 11
170.0
 21
-1148.0
 31
0.0
100
AcDbText
 73
2
  0
TEXT
  5
30A
330
17
100
AcDbEntity
  8
OBSERVACIONES
100
AcDbText
 10
170.0
 20
-1154.0
 30
0.0
 40
1.0
  1
* Controla dos zonas independi...
 11
170.0
 21
-1154.0
 31
0.0
100
AcDbText
 73
2
  0
LWPOLYLINE
  5
30B
330
17
100
AcDbEntity
  8
CELDAS_GUIA
100
AcDbPolyline
 90
5
 70
0
 10
0.0
 20
-1173.0
 10
60.0
 20
-1173.0
 10
60.0
 20
-1208.0
 10
0.0
 20
-1208.0
 10
0.0
 20
-1173.0
  0
INSERT
  5
318
330
17
100
AcDbEntity
  8
SIMBOLOS_DGE
100
AcDbBlockReference
  2
DGE_09_93_36_CONMUTADOR_INTERMEDIO
 10
15.0
 20
-1190.5
 30
0.0
 41
45.0
 42
45.0
 43
45.0
  0
TEXT
  5
31A
330
17
100
AcDbEntity
  8
TEXTOS_CODIGOS
100
AcDbText
 10
30.0
 20
-1181.0
 30
0.0
 40
1.8
  1
COD: 09-93-36
 11
30.0
 21
-1181.0
 31
0.0
100
AcDbText
 73
2
  0
TEXT
  5
31B
330
17
100
AcDbEntity
  8
TEXTOS_NOMBRES
100
AcDbText
 10
30.0
 20
-1188.0
 30
0.0
 40
1.4
  1
Conmutador intermedio (De
 11
30.0
 21
-1188.0
 31
0.0
100
AcDbText
 73
2
  0
TEXT
  5
31C
330
17
100
AcDbEntity
  8
TEXTOS_NOMBRES
100
AcDbText
 10
30.0
 20
-1193.0
 30
0.0
 40
1.4
  1
cruzamiento S4 grafico)
 11
30.0
 21
-1193.0
 31
0.0
100
AcDbText
 73
2
  0
TEXT
  5
31D
330
17
100
AcDbEntity
  8
OBSERVACIONES
100
AcDbText
 10
30.0
 20
-1199.0
 30
0.0
 40
1.0
  1
* Se coloca entre dos interrup...
 11
30.0
 21
-1199.0
 31
0.0
100
AcDbText
 73
2
  0
LWPOLYLINE
  5
31E
330
17
100
AcDbEntity
  8
CELDAS_GUIA
100
AcDbPolyline
 90
5
 70
0
 10
70.0
 20
-1173.0
 10
130.0
 20
-1173.0
 10
130.0
 20
-1208.0
 10
70.0
 20
-1208.0
 10
70.0
 20
-1173.0
  0
INSERT
  5
325
330
17
100
AcDbEntity
  8
SIMBOLOS_DGE
100
AcDbBlockReference
  2
DGE_09_93_37_DIMMER
 10
85.0
 20
-1190.5
 30
0.0
 41
45.0
 42
45.0
 43
45.0
  0
TEXT
  5
327
330
17
100
AcDbEntity
  8
TEXTOS_CODIGOS
100
AcDbText
 10
100.0
 20
-1181.0
 30
0.0
 40
1.8
  1
COD: 09-93-37
 11
100.0
 21
-1181.0
 31
0.0
100
AcDbText
 73
2
  0
TEXT
  5
328
330
17
100
AcDbEntity
  8
TEXTOS_NOMBRES
100
AcDbText
 10
100.0
 20
-1188.0
 30
0.0
 40
1.4
  1
Interruptor
 11
100.0
 21
-1188.0
 31
0.0
100
AcDbText
 73
2
  0
TEXT
  5
329
330
17
100
AcDbEntity
  8
TEXTOS_NOMBRES
100
AcDbText
 10
100.0
 20
-1193.0
 30
0.0
 40
1.4
  1
graduador (Dimmer)
 11
100.0
 21
-1193.0
 31
0.0
100
AcDbText
 73
2
  0
TEXT
  5
32A
330
17
100
AcDbEntity
  8
OBSERVACIONES
100
AcDbText
 10
100.0
 20
-1199.0
 30
0.0
 40
1.0
  1
* Adecuado para lamparas dimer...
 11
100.0
 21
-1199.0
 31
0.0
100
AcDbText
 73
2
  0
LWPOLYLINE
  5
32B
330
17
100
AcDbEntity
  8
CELDAS_GUIA
100
AcDbPolyline
 90
5
 70
0
 10
140.0
 20
-1173.0
 10
200.0
 20
-1173.0
 10
200.0
 20
-1208.0
 10
140.0
 20
-1208.0
 10
140.0
 20
-1173.0
  0
INSERT
  5
334
330
17
100
AcDbEntity
  8
SIMBOLOS_DGE
100
AcDbBlockReference
  2
DGE_09_93_38_INTERRUPTOR_TIRADOR
 10
155.0
 20
-1190.5
 30
0.0
 41
45.0
 42
45.0
 43
45.0
  0
TEXT
  5
336
330
17
100
AcDbEntity
  8
TEXTOS_CODIGOS
100
AcDbText
 10
170.0
 20
-1181.0
 30
0.0
 40
1.8
  1
COD: 09-93-38
 11
170.0
 21
-1181.0
 31
0.0
100
AcDbText
 73
2
  0
TEXT
  5
337
330
17
100
AcDbEntity
  8
TEXTOS_NOMBRES
100
AcDbText
 10
170.0
 20
-1188.0
 30
0.0
 40
1.4
  1
Interruptor unipolar
 11
170.0
 21
-1188.0
 31
0.0
100
AcDbText
 73
2
  0
TEXT
  5
338
330
17
100
AcDbEntity
  8
TEXTOS_NOMBRES
100
AcDbText
 10
170.0
 20
-1193.0
 30
0.0
 40
1.4
  1
con tirador
 11
170.0
 21
-1193.0
 31
0.0
100
AcDbText
 73
2
  0
TEXT
  5
339
330
17
100
AcDbEntity
  8
OBSERVACIONES
100
AcDbText
 10
170.0
 20
-1199.0
 30
0.0
 40
1.0
  1
* Accionamiento mediante cordon.
 11
170.0
 21
-1199.0
 31
0.0
100
AcDbText
 73
2
  0
LWPOLYLINE
  5
33A
330
17
100
AcDbEntity
  8
CELDAS_GUIA
100
AcDbPolyline
 90
5
 70
0
 10
0.0
 20
-1218.0
 10
60.0
 20
-1218.0
 10
60.0
 20
-1253.0
 10
0.0
 20
-1253.0
 10
0.0
 20
-1218.0
  0
INSERT
  5
346
330
17
100
AcDbEntity
  8
SIMBOLOS_DGE
100
AcDbBlockReference
  2
DGE_09_93_47_INTERRUPTOR_HORARIO
 10
15.0
 20
-1235.5
 30
0.0
 41
45.0
 42
45.0
 43
45.0
  0
TEXT
  5
348
330
17
100
AcDbEntity
  8
TEXTOS_CODIGOS
100
AcDbText
 10
30.0
 20
-1226.0
 30
0.0
 40
1.8
  1
COD: 09-93-47
 11
30.0
 21
-1226.0
 31
0.0
100
AcDbText
 73
2
  0
TEXT
  5
349
330
17
100
AcDbEntity
  8
TEXTOS_NOMBRES
100
AcDbText
 10
30.0
 20
-1233.0
 30
0.0
 40
1.4
  1
Interruptor horario
 11
30.0
 21
-1233.0
 31
0.0
100
AcDbText
 73
2
  0
TEXT
  5
34A
330
17
100
AcDbEntity
  8
TEXTOS_NOMBRES
100
AcDbText
 10
30.0
 20
-1238.0
 30
0.0
 40
1.4
  1
(Reloj horario)
 11
30.0
 21
-1238.0
 31
0.0
100
AcDbText
 73
2
  0
TEXT
  5
34B
330
17
100
AcDbEntity
  8
OBSERVACIONES
100
AcDbText
 10
30.0
 20
-1244.0
 30
0.0
 40
1.0
  1
* Instalacion en tablero elect...
 11
30.0
 21
-1244.0
 31
0.0
100
AcDbText
 73
2
  0
TEXT
  5
34C
330
17
100
AcDbEntity
  8
TITULOS
100
AcDbText
 10
0.0
 20
-1288.0
 30
0.0
 40
3.5
  1
=== CATEGORIA: ILUMINACION ===
 11
0.0
 21
-1288.0
 31
0.0
100
AcDbText
 73
2
  0
LWPOLYLINE
  5
34D
330
17
100
AcDbEntity
  8
CELDAS_GUIA
100
AcDbPolyline
 90
5
 70
0
 10
0.0
 20
-1300.0
 10
60.0
 20
-1300.0
 10
60.0
 20
-1335.0
 10
0.0
 20
-1335.0
 10
0.0
 20
-1300.0
  0
INSERT
  5
354
330
17
100
AcDbEntity
  8
SIMBOLOS_DGE
100
AcDbBlockReference
  2
DGE_09_93_49_TOMA_ILUMINACION_TECHO
 10
15.0
 20
-1317.5
 30
0.0
 41
45.0
 42
45.0
 43
45.0
  0
TEXT
  5
356
330
17
100
AcDbEntity
  8
TEXTOS_CODIGOS
100
AcDbText
 10
30.0
 20
-1308.0
 30
0.0
 40
1.8
  1
COD: 09-93-49
 11
30.0
 21
-1308.0
 31
0.0
100
AcDbText
 73
2
  0
TEXT
  5
357
330
17
100
AcDbEntity
  8
TEXTOS_NOMBRES
100
AcDbText
 10
30.0
 20
-1315.0
 30
0.0
 40
1.4
  1
Posicion de la
 11
30.0
 21
-1315.0
 31
0.0
100
AcDbText
 73
2
  0
TEXT
  5
358
330
17
100
AcDbEntity
  8
TEXTOS_NOMBRES
100
AcDbText
 10
30.0
 20
-1320.0
 30
0.0
 40
1.4
  1
toma de iluminacion (Techo)
 11
30.0
 21
-1320.0
 31
0.0
100
AcDbText
 73
2
  0
TEXT
  5
359
330
17
100
AcDbEntity
  8
OBSERVACIONES
100
AcDbText
 10
30.0
 20
-1326.0
 30
0.0
 40
1.0
  1
* Indica conexion con canaliza...
 11
30.0
 21
-1326.0
 31
0.0
100
AcDbText
 73
2
  0
LWPOLYLINE
  5
35A
330
17
100
AcDbEntity
  8
CELDAS_GUIA
100
AcDbPolyline
 90
5
 70
0
 10
70.0
 20
-1300.0
 10
130.0
 20
-1300.0
 10
130.0
 20
-1335.0
 10
70.0
 20
-1335.0
 10
70.0
 20
-1300.0
  0
INSERT
  5
362
330
17
100
AcDbEntity
  8
SIMBOLOS_DGE
100
AcDbBlockReference
  2
DGE_09_93_50_TOMA_ILUMINACION_PARED
 10
85.0
 20
-1317.5
 30
0.0
 41
45.0
 42
45.0
 43
45.0
  0
TEXT
  5
364
330
17
100
AcDbEntity
  8
TEXTOS_CODIGOS
100
AcDbText
 10
100.0
 20
-1308.0
 30
0.0
 40
1.8
  1
COD: 09-93-50
 11
100.0
 21
-1308.0
 31
0.0
100
AcDbText
 73
2
  0
TEXT
  5
365
330
17
100
AcDbEntity
  8
TEXTOS_NOMBRES
100
AcDbText
 10
100.0
 20
-1316.0
 30
0.0
 40
1.5
  1
Toma de iluminacion en pared
 11
100.0
 21
-1316.0
 31
0.0
100
AcDbText
 73
2
  0
TEXT
  5
366
330
17
100
AcDbEntity
  8
OBSERVACIONES
100
AcDbText
 10
100.0
 20
-1324.0
 30
0.0
 40
1.0
  1
* Indica tramo empotrado en mu...
 11
100.0
 21
-1324.0
 31
0.0
100
AcDbText
 73
2
  0
LWPOLYLINE
  5
367
330
17
100
AcDbEntity
  8
CELDAS_GUIA
100
AcDbPolyline
 90
5
 70
0
 10
140.0
 20
-1300.0
 10
200.0
 20
-1300.0
 10
200.0
 20
-1335.0
 10
140.0
 20
-1335.0
 10
140.0
 20
-1300.0
  0
INSERT
  5
372
330
17
100
AcDbEntity
  8
SIMBOLOS_DGE
100
AcDbBlockReference
  2
DGE_09_93_51_SALIDA_TECHO
 10
155.0
 20
-1317.5
 30
0.0
 41
45.0
 42
45.0
 43
45.0
  0
TEXT
  5
374
330
17
100
AcDbEntity
  8
TEXTOS_CODIGOS
100
AcDbText
 10
170.0
 20
-1308.0
 30
0.0
 40
1.8
  1
COD: 09-93-51
 11
170.0
 21
-1308.0
 31
0.0
100
AcDbText
 73
2
  0
TEXT
  5
375
330
17
100
AcDbEntity
  8
TEXTOS_NOMBRES
100
AcDbText
 10
170.0
 20
-1315.0
 30
0.0
 40
1.4
  1
Salida para lampara
 11
170.0
 21
-1315.0
 31
0.0
100
AcDbText
 73
2
  0
TEXT
  5
376
330
17
100
AcDbEntity
  8
TEXTOS_NOMBRES
100
AcDbText
 10
170.0
 20
-1320.0
 30
0.0
 40
1.4
  1
incandescente en techo
 11
170.0
 21
-1320.0
 31
0.0
100
AcDbText
 73
2
  0
TEXT
  5
377
330
17
100
AcDbEntity
  8
OBSERVACIONES
100
AcDbText
 10
170.0
 20
-1326.0
 30
0.0
 40
1.0
  1
* Símbolo estándar en instalac...
 11
170.0
 21
-1326.0
 31
0.0
100
AcDbText
 73
2
  0
LWPOLYLINE
  5
378
330
17
100
AcDbEntity
  8
CELDAS_GUIA
100
AcDbPolyline
 90
5
 70
0
 10
0.0
 20
-1345.0
 10
60.0
 20
-1345.0
 10
60.0
 20
-1380.0
 10
0.0
 20
-1380.0
 10
0.0
 20
-1345.0
  0
INSERT
  5
385
330
17
100
AcDbEntity
  8
SIMBOLOS_DGE
100
AcDbBlockReference
  2
DGE_09_93_52_SALIDA_PARED
 10
15.0
 20
-1362.5
 30
0.0
 41
45.0
 42
45.0
 43
45.0
  0
TEXT
  5
387
330
17
100
AcDbEntity
  8
TEXTOS_CODIGOS
100
AcDbText
 10
30.0
 20
-1353.0
 30
0.0
 40
1.8
  1
COD: 09-93-52
 11
30.0
 21
-1353.0
 31
0.0
100
AcDbText
 73
2
  0
TEXT
  5
388
330
17
100
AcDbEntity
  8
TEXTOS_NOMBRES
100
AcDbText
 10
30.0
 20
-1360.0
 30
0.0
 40
1.4
  1
Salida para lampara
 11
30.0
 21
-1360.0
 31
0.0
100
AcDbText
 73
2
  0
TEXT
  5
389
330
17
100
AcDbEntity
  8
TEXTOS_NOMBRES
100
AcDbText
 10
30.0
 20
-1365.0
 30
0.0
 40
1.4
  1
incandescente adosada en pared
 11
30.0
 21
-1365.0
 31
0.0
100
AcDbText
 73
2
  0
TEXT
  5
38A
330
17
100
AcDbEntity
  8
OBSERVACIONES
100
AcDbText
 10
30.0
 20
-1371.0
 30
0.0
 40
1.0
  1
* Representa aplique o braquete.
 11
30.0
 21
-1371.0
 31
0.0
100
AcDbText
 73
2
  0
LWPOLYLINE
  5
38B
330
17
100
AcDbEntity
  8
CELDAS_GUIA
100
AcDbPolyline
 90
5
 70
0
 10
70.0
 20
-1345.0
 10
130.0
 20
-1345.0
 10
130.0
 20
-1380.0
 10
70.0
 20
-1380.0
 10
70.0
 20
-1345.0
  0
INSERT
  5
395
330
17
100
AcDbEntity
  8
SIMBOLOS_DGE
100
AcDbBlockReference
  2
DGE_09_93_53_SPOT_EMPOTRADO
 10
85.0
 20
-1362.5
 30
0.0
 41
45.0
 42
45.0
 43
45.0
  0
TEXT
  5
397
330
17
100
AcDbEntity
  8
TEXTOS_CODIGOS
100
AcDbText
 10
100.0
 20
-1353.0
 30
0.0
 40
1.8
  1
COD: 09-93-53
 11
100.0
 21
-1353.0
 31
0.0
100
AcDbText
 73
2
  0
TEXT
  5
398
330
17
100
AcDbEntity
  8
TEXTOS_NOMBRES
100
AcDbText
 10
100.0
 20
-1361.0
 30
0.0
 40
1.5
  1
Salida empotrada en techo
 11
100.0
 21
-1361.0
 31
0.0
100
AcDbText
 73
2
  0
TEXT
  5
399
330
17
100
AcDbEntity
  8
OBSERVACIONES
100
AcDbText
 10
100.0
 20
-1369.0
 30
0.0
 40
1.0
  1
* Indica dicroico o spot.
 11
100.0
 21
-1369.0
 31
0.0
100
AcDbText
 73
2
  0
LWPOLYLINE
  5
39A
330
17
100
AcDbEntity
  8
CELDAS_GUIA
100
AcDbPolyline
 90
5
 70
0
 10
140.0
 20
-1345.0
 10
200.0
 20
-1345.0
 10
200.0
 20
-1380.0
 10
140.0
 20
-1380.0
 10
140.0
 20
-1345.0
  0
INSERT
  5
3A0
330
17
100
AcDbEntity
  8
SIMBOLOS_DGE
100
AcDbBlockReference
  2
DGE_09_93_55_FLUORESCENTE_TECHO
 10
155.0
 20
-1362.5
 30
0.0
 41
45.0
 42
45.0
 43
45.0
  0
TEXT
  5
3A2
330
17
100
AcDbEntity
  8
TEXTOS_CODIGOS
100
AcDbText
 10
170.0
 20
-1353.0
 30
0.0
 40
1.8
  1
COD: 09-93-55
 11
170.0
 21
-1353.0
 31
0.0
100
AcDbText
 73
2
  0
TEXT
  5
3A3
330
17
100
AcDbEntity
  8
TEXTOS_NOMBRES
100
AcDbText
 10
170.0
 20
-1360.0
 30
0.0
 40
1.4
  1
Salida para artefacto
 11
170.0
 21
-1360.0
 31
0.0
100
AcDbText
 73
2
  0
TEXT
  5
3A4
330
17
100
AcDbEntity
  8
TEXTOS_NOMBRES
100
AcDbText
 10
170.0
 20
-1365.0
 30
0.0
 40
1.4
  1
fluorescente en el techo
 11
170.0
 21
-1365.0
 31
0.0
100
AcDbText
 73
2
  0
TEXT
  5
3A5
330
17
100
AcDbEntity
  8
OBSERVACIONES
100
AcDbText
 10
170.0
 20
-1371.0
 30
0.0
 40
1.0
  1
* Representa equipo fluorescen...
 11
170.0
 21
-1371.0
 31
0.0
100
AcDbText
 73
2
  0
LWPOLYLINE
  5
3A6
330
17
100
AcDbEntity
  8
CELDAS_GUIA
100
AcDbPolyline
 90
5
 70
0
 10
0.0
 20
-1390.0
 10
60.0
 20
-1390.0
 10
60.0
 20
-1425.0
 10
0.0
 20
-1425.0
 10
0.0
 20
-1390.0
  0
INSERT
  5
3AD
330
17
100
AcDbEntity
  8
SIMBOLOS_DGE
100
AcDbBlockReference
  2
DGE_09_93_56_FLUORESCENTE_EMPOTRADO
 10
15.0
 20
-1407.5
 30
0.0
 41
45.0
 42
45.0
 43
45.0
  0
TEXT
  5
3AF
330
17
100
AcDbEntity
  8
TEXTOS_CODIGOS
100
AcDbText
 10
30.0
 20
-1398.0
 30
0.0
 40
1.8
  1
COD: 09-93-56
 11
30.0
 21
-1398.0
 31
0.0
100
AcDbText
 73
2
  0
TEXT
  5
3B0
330
17
100
AcDbEntity
  8
TEXTOS_NOMBRES
100
AcDbText
 10
30.0
 20
-1405.0
 30
0.0
 40
1.4
  1
Salida para
 11
30.0
 21
-1405.0
 31
0.0
100
AcDbText
 73
2
  0
TEXT
  5
3B1
330
17
100
AcDbEntity
  8
TEXTOS_NOMBRES
100
AcDbText
 10
30.0
 20
-1410.0
 30
0.0
 40
1.4
  1
artefacto fluorescente empotrado
 11
30.0
 21
-1410.0
 31
0.0
100
AcDbText
 73
2
  0
TEXT
  5
3B2
330
17
100
AcDbEntity
  8
OBSERVACIONES
100
AcDbText
 10
30.0
 20
-1416.0
 30
0.0
 40
1.0
  1
* Indica luminaria lineal empo...
 11
30.0
 21
-1416.0
 31
0.0
100
AcDbText
 73
2
  0
LWPOLYLINE
  5
3B3
330
17
100
AcDbEntity
  8
CELDAS_GUIA
100
AcDbPolyline
 90
5
 70
0
 10
70.0
 20
-1390.0
 10
130.0
 20
-1390.0
 10
130.0
 20
-1425.0
 10
70.0
 20
-1425.0
 10
70.0
 20
-1390.0
  0
INSERT
  5
3BA
330
17
100
AcDbEntity
  8
SIMBOLOS_DGE
100
AcDbBlockReference
  2
DGE_09_93_59_LAMPARA
 10
85.0
 20
-1407.5
 30
0.0
 41
45.0
 42
45.0
 43
45.0
  0
TEXT
  5
3BC
330
17
100
AcDbEntity
  8
TEXTOS_CODIGOS
100
AcDbText
 10
100.0
 20
-1398.0
 30
0.0
 40
1.8
  1
COD: 09-93-59
 11
100.0
 21
-1398.0
 31
0.0
100
AcDbText
 73
2
  0
TEXT
  5
3BD
330
17
100
AcDbEntity
  8
TEXTOS_NOMBRES
100
AcDbText
 10
100.0
 20
-1406.0
 30
0.0
 40
1.5
  1
Lampara (Simbolo general)
 11
100.0
 21
-1406.0
 31
0.0
100
AcDbText
 73
2
  0
TEXT
  5
3BE
330
17
100
AcDbEntity
  8
OBSERVACIONES
100
AcDbText
 10
100.0
 20
-1414.0
 30
0.0
 40
1.0
  1
* Símbolo fundamental y el más...
 11
100.0
 21
-1414.0
 31
0.0
100
AcDbText
 73
2
  0
LWPOLYLINE
  5
3BF
330
17
100
AcDbEntity
  8
CELDAS_GUIA
100
AcDbPolyline
 90
5
 70
0
 10
140.0
 20
-1390.0
 10
200.0
 20
-1390.0
 10
200.0
 20
-1425.0
 10
140.0
 20
-1425.0
 10
140.0
 20
-1390.0
  0
INSERT
  5
3C6
330
17
100
AcDbEntity
  8
SIMBOLOS_DGE
100
AcDbBlockReference
  2
DGE_09_93_60_LUMINARIA_G
 10
155.0
 20
-1407.5
 30
0.0
 41
45.0
 42
45.0
 43
45.0
  0
TEXT
  5
3C8
330
17
100
AcDbEntity
  8
TEXTOS_CODIGOS
100
AcDbText
 10
170.0
 20
-1398.0
 30
0.0
 40
1.8
  1
COD: 09-93-60
 11
170.0
 21
-1398.0
 31
0.0
100
AcDbText
 73
2
  0
TEXT
  5
3C9
330
17
100
AcDbEntity
  8
TEXTOS_NOMBRES
100
AcDbText
 10
170.0
 20
-1406.0
 30
0.0
 40
1.5
  1
Luminaria (Simbolo general)
 11
170.0
 21
-1406.0
 31
0.0
100
AcDbText
 73
2
  0
TEXT
  5
3CA
330
17
100
AcDbEntity
  8
OBSERVACIONES
100
AcDbText
 10
170.0
 20
-1414.0
 30
0.0
 40
1.0
  1
* Representa armadura de lampa...
 11
170.0
 21
-1414.0
 31
0.0
100
AcDbText
 73
2
  0
LWPOLYLINE
  5
3CB
330
17
100
AcDbEntity
  8
CELDAS_GUIA
100
AcDbPolyline
 90
5
 70
0
 10
0.0
 20
-1435.0
 10
60.0
 20
-1435.0
 10
60.0
 20
-1470.0
 10
0.0
 20
-1470.0
 10
0.0
 20
-1435.0
  0
INSERT
  5
3D4
330
17
100
AcDbEntity
  8
SIMBOLOS_DGE
100
AcDbBlockReference
  2
DGE_09_93_61_LUMINARIA_TRIPLE
 10
15.0
 20
-1452.5
 30
0.0
 41
45.0
 42
45.0
 43
45.0
  0
TEXT
  5
3D6
330
17
100
AcDbEntity
  8
TEXTOS_CODIGOS
100
AcDbText
 10
30.0
 20
-1443.0
 30
0.0
 40
1.8
  1
COD: 09-93-61
 11
30.0
 21
-1443.0
 31
0.0
100
AcDbText
 73
2
  0
TEXT
  5
3D7
330
17
100
AcDbEntity
  8
TEXTOS_NOMBRES
100
AcDbText
 10
30.0
 20
-1450.0
 30
0.0
 40
1.4
  1
Luminaria con
 11
30.0
 21
-1450.0
 31
0.0
100
AcDbText
 73
2
  0
TEXT
  5
3D8
330
17
100
AcDbEntity
  8
TEXTOS_NOMBRES
100
AcDbText
 10
30.0
 20
-1455.0
 30
0.0
 40
1.4
  1
tres tubos fluorescentes
 11
30.0
 21
-1455.0
 31
0.0
100
AcDbText
 73
2
  0
TEXT
  5
3D9
330
17
100
AcDbEntity
  8
OBSERVACIONES
100
AcDbText
 10
30.0
 20
-1461.0
 30
0.0
 40
1.0
  1
* Indica tres lamparas en una ...
 11
30.0
 21
-1461.0
 31
0.0
100
AcDbText
 73
2
  0
LWPOLYLINE
  5
3DA
330
17
100
AcDbEntity
  8
CELDAS_GUIA
100
AcDbPolyline
 90
5
 70
0
 10
70.0
 20
-1435.0
 10
130.0
 20
-1435.0
 10
130.0
 20
-1470.0
 10
70.0
 20
-1470.0
 10
70.0
 20
-1435.0
  0
INSERT
  5
3E2
330
17
100
AcDbEntity
  8
SIMBOLOS_DGE
100
AcDbBlockReference
  2
DGE_09_93_63_REFLECTOR
 10
85.0
 20
-1452.5
 30
0.0
 41
45.0
 42
45.0
 43
45.0
  0
TEXT
  5
3E4
330
17
100
AcDbEntity
  8
TEXTOS_CODIGOS
100
AcDbText
 10
100.0
 20
-1443.0
 30
0.0
 40
1.8
  1
COD: 09-93-63
 11
100.0
 21
-1443.0
 31
0.0
100
AcDbText
 73
2
  0
TEXT
  5
3E5
330
17
100
AcDbEntity
  8
TEXTOS_NOMBRES
100
AcDbText
 10
100.0
 20
-1451.0
 30
0.0
 40
1.5
  1
Proyector (Simbolo general)
 11
100.0
 21
-1451.0
 31
0.0
100
AcDbText
 73
2
  0
TEXT
  5
3E6
330
17
100
AcDbEntity
  8
OBSERVACIONES
100
AcDbText
 10
100.0
 20
-1459.0
 30
0.0
 40
1.0
  1
* Indica luz dirigida.
 11
100.0
 21
-1459.0
 31
0.0
100
AcDbText
 73
2
  0
LWPOLYLINE
  5
3E7
330
17
100
AcDbEntity
  8
CELDAS_GUIA
100
AcDbPolyline
 90
5
 70
0
 10
140.0
 20
-1435.0
 10
200.0
 20
-1435.0
 10
200.0
 20
-1470.0
 10
140.0
 20
-1470.0
 10
140.0
 20
-1435.0
  0
INSERT
  5
3ED
330
17
100
AcDbEntity
  8
SIMBOLOS_DGE
100
AcDbBlockReference
  2
DGE_09_93_67_LUZ_EMERGENCIA
 10
155.0
 20
-1452.5
 30
0.0
 41
45.0
 42
45.0
 43
45.0
  0
TEXT
  5
3EF
330
17
100
AcDbEntity
  8
TEXTOS_CODIGOS
100
AcDbText
 10
170.0
 20
-1443.0
 30
0.0
 40
1.8
  1
COD: 09-93-67
 11
170.0
 21
-1443.0
 31
0.0
100
AcDbText
 73
2
  0
TEXT
  5
3F0
330
17
100
AcDbEntity
  8
TEXTOS_NOMBRES
100
AcDbText
 10
170.0
 20
-1450.0
 30
0.0
 40
1.4
  1
Luminaria de
 11
170.0
 21
-1450.0
 31
0.0
100
AcDbText
 73
2
  0
TEXT
  5
3F1
330
17
100
AcDbEntity
  8
TEXTOS_NOMBRES
100
AcDbText
 10
170.0
 20
-1455.0
 30
0.0
 40
1.4
  1
alumbrado de emergencia
 11
170.0
 21
-1455.0
 31
0.0
100
AcDbText
 73
2
  0
TEXT
  5
3F2
330
17
100
AcDbEntity
  8
OBSERVACIONES
100
AcDbText
 10
170.0
 20
-1461.0
 30
0.0
 40
1.0
  1
* Indica proyector de emergenc...
 11
170.0
 21
-1461.0
 31
0.0
100
AcDbText
 73
2
  0
LWPOLYLINE
  5
3F3
330
17
100
AcDbEntity
  8
CELDAS_GUIA
100
AcDbPolyline
 90
5
 70
0
 10
0.0
 20
-1480.0
 10
60.0
 20
-1480.0
 10
60.0
 20
-1515.0
 10
0.0
 20
-1515.0
 10
0.0
 20
-1480.0
  0
INSERT
  5
3FA
330
17
100
AcDbEntity
  8
SIMBOLOS_DGE
100
AcDbBlockReference
  2
DGE_09_93_68_BLOQUE_EMERGENCIA
 10
15.0
 20
-1497.5
 30
0.0
 41
45.0
 42
45.0
 43
45.0
  0
TEXT
  5
3FC
330
17
100
AcDbEntity
  8
TEXTOS_CODIGOS
100
AcDbText
 10
30.0
 20
-1488.0
 30
0.0
 40
1.8
  1
COD: 09-93-68
 11
30.0
 21
-1488.0
 31
0.0
100
AcDbText
 73
2
  0
TEXT
  5
3FD
330
17
100
AcDbEntity
  8
TEXTOS_NOMBRES
100
AcDbText
 10
30.0
 20
-1495.0
 30
0.0
 40
1.4
  1
Bloque autonomo de
 11
30.0
 21
-1495.0
 31
0.0
100
AcDbText
 73
2
  0
TEXT
  5
3FE
330
17
100
AcDbEntity
  8
TEXTOS_NOMBRES
100
AcDbText
 10
30.0
 20
-1500.0
 30
0.0
 40
1.4
  1
iluminacion de emergencia
 11
30.0
 21
-1500.0
 31
0.0
100
AcDbText
 73
2
  0
TEXT
  5
3FF
330
17
100
AcDbEntity
  8
OBSERVACIONES
100
AcDbText
 10
30.0
 20
-1506.0
 30
0.0
 40
1.0
  1
* Muy comun en escaleras de ed...
 11
30.0
 21
-1506.0
 31
0.0
100
AcDbText
 73
2
  0
TEXT
  5
400
330
17
100
AcDbEntity
  8
TITULOS
100
AcDbText
 10
0.0
 20
-1550.0
 30
0.0
 40
3.5
  1
=== CATEGORIA: EQUIPOS ESPECIALES ===
 11
0.0
 21
-1550.0
 31
0.0
100
AcDbText
 73
2
  0
LWPOLYLINE
  5
401
330
17
100
AcDbEntity
  8
CELDAS_GUIA
100
AcDbPolyline
 90
5
 70
0
 10
0.0
 20
-1562.0
 10
60.0
 20
-1562.0
 10
60.0
 20
-1597.0
 10
0.0
 20
-1597.0
 10
0.0
 20
-1562.0
  0
INSERT
  5
40B
330
17
100
AcDbEntity
  8
SIMBOLOS_DGE
100
AcDbBlockReference
  2
DGE_09_93_69_TERMA
 10
15.0
 20
-1579.5
 30
0.0
 41
45.0
 42
45.0
 43
45.0
  0
TEXT
  5
40D
330
17
100
AcDbEntity
  8
TEXTOS_CODIGOS
100
AcDbText
 10
30.0
 20
-1570.0
 30
0.0
 40
1.8
  1
COD: 09-93-69
 11
30.0
 21
-1570.0
 31
0.0
100
AcDbText
 73
2
  0
TEXT
  5
40E
330
17
100
AcDbEntity
  8
TEXTOS_NOMBRES
100
AcDbText
 10
30.0
 20
-1577.0
 30
0.0
 40
1.4
  1
Calentador de
 11
30.0
 21
-1577.0
 31
0.0
100
AcDbText
 73
2
  0
TEXT
  5
40F
330
17
100
AcDbEntity
  8
TEXTOS_NOMBRES
100
AcDbText
 10
30.0
 20
-1582.0
 30
0.0
 40
1.4
  1
agua (Terma electrica)
 11
30.0
 21
-1582.0
 31
0.0
100
AcDbText
 73
2
  0
TEXT
  5
410
330
17
100
AcDbEntity
  8
OBSERVACIONES
100
AcDbText
 10
30.0
 20
-1588.0
 30
0.0
 40
1.0
  1
* Requiere circuito independie...
 11
30.0
 21
-1588.0
 31
0.0
100
AcDbText
 73
2
  0
LWPOLYLINE
  5
411
330
17
100
AcDbEntity
  8
CELDAS_GUIA
100
AcDbPolyline
 90
5
 70
0
 10
70.0
 20
-1562.0
 10
130.0
 20
-1562.0
 10
130.0
 20
-1597.0
 10
70.0
 20
-1597.0
 10
70.0
 20
-1562.0
  0
INSERT
  5
418
330
17
100
AcDbEntity
  8
SIMBOLOS_DGE
100
AcDbBlockReference
  2
DGE_09_93_70_VENTILADOR
 10
85.0
 20
-1579.5
 30
0.0
 41
45.0
 42
45.0
 43
45.0
  0
TEXT
  5
41A
330
17
100
AcDbEntity
  8
TEXTOS_CODIGOS
100
AcDbText
 10
100.0
 20
-1570.0
 30
0.0
 40
1.8
  1
COD: 09-93-70
 11
100.0
 21
-1570.0
 31
0.0
100
AcDbText
 73
2
  0
TEXT
  5
41B
330
17
100
AcDbEntity
  8
TEXTOS_NOMBRES
100
AcDbText
 10
100.0
 20
-1578.0
 30
0.0
 40
1.5
  1
Ventilador (Extractor)
 11
100.0
 21
-1578.0
 31
0.0
100
AcDbText
 73
2
  0
TEXT
  5
41C
330
17
100
AcDbEntity
  8
OBSERVACIONES
100
AcDbText
 10
100.0
 20
-1586.0
 30
0.0
 40
1.0
  1
* Indica extractor mecanico.
 11
100.0
 21
-1586.0
 31
0.0
100
AcDbText
 73
2
  0
LWPOLYLINE
  5
41D
330
17
100
AcDbEntity
  8
CELDAS_GUIA
100
AcDbPolyline
 90
5
 70
0
 10
140.0
 20
-1562.0
 10
200.0
 20
-1562.0
 10
200.0
 20
-1597.0
 10
140.0
 20
-1597.0
 10
140.0
 20
-1562.0
  0
INSERT
  5
427
330
17
100
AcDbEntity
  8
SIMBOLOS_DGE
100
AcDbBlockReference
  2
DGE_09_93_72_CERRADURA
 10
155.0
 20
-1579.5
 30
0.0
 41
45.0
 42
45.0
 43
45.0
  0
TEXT
  5
429
330
17
100
AcDbEntity
  8
TEXTOS_CODIGOS
100
AcDbText
 10
170.0
 20
-1570.0
 30
0.0
 40
1.8
  1
COD: 09-93-72
 11
170.0
 21
-1570.0
 31
0.0
100
AcDbText
 73
2
  0
TEXT
  5
42A
330
17
100
AcDbEntity
  8
TEXTOS_NOMBRES
100
AcDbText
 10
170.0
 20
-1578.0
 30
0.0
 40
1.5
  1
Cerradura electrica
 11
170.0
 21
-1578.0
 31
0.0
100
AcDbText
 73
2
  0
TEXT
  5
42B
330
17
100
AcDbEntity
  8
OBSERVACIONES
100
AcDbText
 10
170.0
 20
-1586.0
 30
0.0
 40
1.0
  1
* Se alimenta normalmente a ba...
 11
170.0
 21
-1586.0
 31
0.0
100
AcDbText
 73
2
  0
LWPOLYLINE
  5
42C
330
17
100
AcDbEntity
  8
MARCOS
100
AcDbPolyline
 90
5
 70
0
 10
-5.0
 20
10.0
 10
210.0
 20
10.0
 10
210.0
 20
-1607.0
 10
-5.0
 20
-1607.0
 10
-5.0
 20
10.0
  0
TEXT
  5
42D
330
17
100
AcDbEntity
  8
TITULOS
100
AcDbText
 10
10.0
 20
5.0
 30
0.0
 40
4.5
  1
BIBLIOTECA COMPLETA DE SIMBOLOGIA ELECTRICA - NORMA DGE (SECCION 9)
 11
10.0
 21
5.0
 31
0.0
100
AcDbText
 73
2
  0
ENDSEC
  0
SECTION
  2
OBJECTS
  0
DICTIONARY
  5
A
330
0
100
AcDbDictionary
281
1
  3
ACAD_COLOR
350
B
  3
ACAD_GROUP
350
C
  3
ACAD_LAYOUT
350
D
  3
ACAD_MATERIAL
350
E
  3
ACAD_MLEADERSTYLE
350
F
  3
ACAD_MLINESTYLE
350
10
  3
ACAD_PLOTSETTINGS
350
11
  3
ACAD_PLOTSTYLENAME
350
12
  3
ACAD_SCALELIST
350
14
  3
ACAD_TABLESTYLE
350
15
  3
ACAD_VISUALSTYLE
350
16
  3
EZDXF_META
350
2D
  0
DICTIONARY
  5
B
330
A
100
AcDbDictionary
281
1
  0
DICTIONARY
  5
C
330
A
100
AcDbDictionary
281
1
  0
DICTIONARY
  5
D
330
A
100
AcDbDictionary
281
1
  3
Model
350
1A
  3
Layout1
350
1E
  0
DICTIONARY
  5
E
330
A
100
AcDbDictionary
281
1
  3
ByBlock
350
1F
  3
ByLayer
350
20
  3
Global
350
21
  0
DICTIONARY
  5
F
330
A
100
AcDbDictionary
281
1
  3
Standard
350
2C
  0
DICTIONARY
  5
10
330
A
100
AcDbDictionary
281
1
  3
Standard
350
22
  0
DICTIONARY
  5
11
330
A
100
AcDbDictionary
281
1
  0
ACDBDICTIONARYWDFLT
  5
12
330
A
100
AcDbDictionary
281
1
  3
Normal
350
13
100
AcDbDictionaryWithDefault
340
13
  0
ACDBPLACEHOLDER
  5
13
330
12
  0
DICTIONARY
  5
14
330
A
100
AcDbDictionary
281
1
  0
DICTIONARY
  5
15
330
A
100
AcDbDictionary
281
1
  0
DICTIONARY
  5
16
330
A
100
AcDbDictionary
281
1
  0
LAYOUT
  5
1A
330
D
100
AcDbPlotSettings
  1

  4
A3
  6

 40
7.5
 41
20.0
 42
7.5
 43
20.0
 44
420.0
 45
297.0
 46
0.0
 47
0.0
 48
0.0
 49
0.0
140
0.0
141
0.0
142
1.0
143
1.0
 70
1024
 72
1
 73
0
 74
5
  7

 75
16
 76
0
 77
2
 78
300
147
1.0
148
0.0
149
0.0
100
AcDbLayout
  1
Model
 70
1
 71
0
 10
0.0
 20
0.0
 11
420.0
 21
297.0
 12
0.0
 22
0.0
 32
0.0
 14
1e+20
 24
1e+20
 34
1e+20
 15
-1e+20
 25
-1e+20
 35
-1e+20
146
0.0
 13
0.0
 23
0.0
 33
0.0
 16
1.0
 26
0.0
 36
0.0
 17
0.0
 27
1.0
 37
0.0
 76
1
330
17
  0
LAYOUT
  5
1E
330
D
100
AcDbPlotSettings
  1

  4
A3
  6

 40
7.5
 41
20.0
 42
7.5
 43
20.0
 44
420.0
 45
297.0
 46
0.0
 47
0.0
 48
0.0
 49
0.0
140
0.0
141
0.0
142
1.0
143
1.0
 70
0
 72
1
 73
0
 74
5
  7

 75
16
 76
0
 77
2
 78
300
147
1.0
148
0.0
149
0.0
100
AcDbLayout
  1
Layout1
 70
1
 71
1
 10
0.0
 20
0.0
 11
420.0
 21
297.0
 12
0.0
 22
0.0
 32
0.0
 14
1e+20
 24
1e+20
 34
1e+20
 15
-1e+20
 25
-1e+20
 35
-1e+20
146
0.0
 13
0.0
 23
0.0
 33
0.0
 16
1.0
 26
0.0
 36
0.0
 17
0.0
 27
1.0
 37
0.0
 76
1
330
1B
  0
MATERIAL
  5
1F
102
{ACAD_REACTORS
330
E
102
}
330
E
100
AcDbMaterial
  1
ByBlock
  2

 70
0
 40
1.0
 71
1
 41
1.0
 91
-1023410177
 42
1.0
 72
1
  3

 73
1
 74
1
 75
1
 44
0.5
 73
0
 45
1.0
 46
1.0
 77
1
  4

 78
1
 79
1
170
1
 48
1.0
171
1
  6

172
1
173
1
174
1
140
1.0
141
1.0
175
1
  7

176
1
177
1
178
1
143
1.0
179
1
  8

270
1
271
1
272
1
145
1.0
146
1.0
273
1
  9

274
1
275
1
276
1
 42
1.0
 72
1
  3

 73
1
 74
1
 75
1
 94
63
  0
MATERIAL
  5
20
102
{ACAD_REACTORS
330
E
102
}
330
E
100
AcDbMaterial
  1
ByLayer
  2

 70
0
 40
1.0
 71
1
 41
1.0
 91
-1023410177
 42
1.0
 72
1
  3

 73
1
 74
1
 75
1
 44
0.5
 73
0
 45
1.0
 46
1.0
 77
1
  4

 78
1
 79
1
170
1
 48
1.0
171
1
  6

172
1
173
1
174
1
140
1.0
141
1.0
175
1
  7

176
1
177
1
178
1
143
1.0
179
1
  8

270
1
271
1
272
1
145
1.0
146
1.0
273
1
  9

274
1
275
1
276
1
 42
1.0
 72
1
  3

 73
1
 74
1
 75
1
 94
63
  0
MATERIAL
  5
21
102
{ACAD_REACTORS
330
E
102
}
330
E
100
AcDbMaterial
  1
Global
  2

 70
0
 40
1.0
 71
1
 41
1.0
 91
-1023410177
 42
1.0
 72
1
  3

 73
1
 74
1
 75
1
 44
0.5
 73
0
 45
1.0
 46
1.0
 77
1
  4

 78
1
 79
1
170
1
 48
1.0
171
1
  6

172
1
173
1
174
1
140
1.0
141
1.0
175
1
  7

176
1
177
1
178
1
143
1.0
179
1
  8

270
1
271
1
272
1
145
1.0
146
1.0
273
1
  9

274
1
275
1
276
1
 42
1.0
 72
1
  3

 73
1
 74
1
 75
1
 94
63
  0
MLINESTYLE
  5
22
102
{ACAD_REACTORS
330
10
102
}
330
10
100
AcDbMlineStyle
  2
Standard
 70
0
  3

 62
256
 51
90.0
 52
90.0
 71
2
 49
0.5
 62
256
  6
BYLAYER
 49
-0.5
 62
256
  6
BYLAYER
  0
MLEADERSTYLE
  5
2C
102
{ACAD_REACTORS
330
F
102
}
330
F
100
AcDbMLeaderStyle
179
2
170
2
171
1
172
0
 90
2
 40
0.0
 41
0.0
173
1
 91
-1056964608
 92
-2
290
1
 42
2.0
291
1
 43
8.0
  3
Standard
 44
4.0
300

342
29
174
1
175
1
176
0
178
1
 93
-1056964608
 45
4.0
292
0
297
0
 46
4.0
 94
-1056964608
 47
1.0
 49
1.0
140
1.0
294
1
141
0.0
177
0
142
1.0
295
0
296
0
143
3.75
271
0
272
9
273
9
  0
DICTIONARY
  5
2D
330
A
100
AcDbDictionary
280
1
281
1
  3
CREATED_BY_EZDXF
350
2E
  3
WRITTEN_BY_EZDXF
350
430
  0
DICTIONARYVAR
  5
2E
330
2D
100
DictionaryVariables
280
0
  1
1.4.4 @ 2026-06-03T17:22:38.651627+00:00
  0
DICTIONARYVAR
  5
430
330
2D
100
DictionaryVariables
280
0
  1
1.4.4 @ 2026-06-03T17:22:38.729963+00:00
  0
ENDSEC
  0
EOF
