999
dxfrw 0.6.3
  0
SECTION
  2
HEADER
  9
$ACADVER
  1
AC1021
  9
$DWGCODEPAGE
  3
ANSI_1252
  9
$INSBASE
 10
0
 20
0
 30
0
  9
$EXTMIN
 10
-1.44
 20
-1.440000000000011
 30
0
  9
$EXTMAX
 10
22.05
 20
10.99000000000002
 30
0
  9
$LIMMIN
 10
0
 20
0
  9
$LIMMAX
 10
420
 20
297
  9
$ORTHOMODE
 70
    0
  9
$REGENMODE
 70
    1
  9
$FILLMODE
 70
    1
  9
$QTEXTMODE
 70
    0
  9
$MIRRTEXT
 70
    1
  9
$LTSCALE
 40
1
  9
$ATTMODE
 70
    1
  9
$TEXTSIZE
 40
2.5
  9
$TRACEWID
 40
1
  9
$TEXTSTYLE
  7
OpenSans
  9
$CLAYER
  8
0
  9
$CELTYPE
  6
BYLAYER
  9
$CECOLOR
 62
  256
  9
$CELTSCALE
 40
1
  9
$DISPSILH
 70
    0
  9
$DIMSCALE
 40
1
  9
$DIMASZ
 40
0.175
  9
$DIMEXO
 40
0.125
  9
$DIMDLI
 40
3.75
  9
$DIMRND
 40
0
  9
$DIMDLE
 40
0
  9
$DIMEXE
 40
0.375
  9
$DIMTP
 40
0
  9
$DIMTM
 40
0
  9
$DIMTXT
 40
0.25
  9
$DIMCEN
 40
2.5
  9
$DIMTSZ
 40
0
  9
$DIMTOL
 70
    0
  9
$DIMLIM
 70
    0
  9
$DIMTIH
 70
    0
  9
$DIMTOH
 70
    0
  9
$DIMSE1
 70
    0
  9
$DIMSE2
 70
    0
  9
$DIMTAD
 70
    1
  9
$DIMZIN
 70
   12
  9
$DIMBLK
  1
0
  9
$DIMASO
 70
    1
  9
$DIMSHO
 70
    1
  9
$DIMPOST
  1

  9
$DIMAPOST
  1

  9
$DIMALT
 70
    0
  9
$DIMALTD
 70
    3
  9
$DIMALTF
 40
0.03937007874
  9
$DIMLFAC
 40
100
  9
$DIMTOFL
 70
    1
  9
$DIMTVP
 40
0
  9
$DIMTIX
 70
    0
  9
$DIMSOXD
 70
    0
  9
$DIMSAH
 70
    0
  9
$DIMBLK1
  1
0
  9
$DIMBLK2
  1
0
  9
$DIMSTYLE
  2
Standard
  9
$DIMCLRD
 70
    0
  9
$DIMCLRE
 70
    0
  9
$DIMCLRT
 70
    0
  9
$DIMTFAC
 40
0.5
  9
$DIMGAP
 40
0.1
  9
$DIMJUST
 70
    0
  9
$DIMSD1
 70
    0
  9
$DIMSD2
 70
    0
  9
$DIMTOLJ
 70
    0
  9
$DIMTZIN
 70
    8
  9
$DIMALTZ
 70
    0
  9
$DIMALTTZ
 70
    0
  9
$DIMUPT
 70
    1
  9
$DIMDEC
 70
    2
  9
$DIMTDEC
 70
    2
  9
$DIMALTU
 70
    2
  9
$DIMALTTD
 70
    3
  9
$DIMTXSTY
  7
standard
  9
$DIMAUNIT
 70
    0
  9
$DIMADEC
 70
    0
  9
$DIMALTRND
 40
0
  9
$DIMAZIN
 70
    3
  9
$DIMDSEP
 70
    0
  9
$DIMATFIT
 70
    3
  9
$DIMFRAC
 70
    0
  9
$DIMLDRBLK
  1

  9
$DIMLUNIT
 70
    2
  9
$DIMLWD
 70
   -2
  9
$DIMLWE
 70
   -2
  9
$DIMTMOVE
 70
    0
  9
$DIMFXL
 40
1
  9
$DIMFXLON
 70
    0
  9
$DIMJOGANG
 40
0.7854
  9
$DIMTFILL
 70
    0
  9
$DIMTFILLCLR
 70
    0
  9
$DIMARCSYM
 70
    0
  9
$DIMLTYPE
  6

  9
$DIMLTEX1
  6

  9
$DIMLTEX2
  6

  9
$LUNITS
 70
    2
  9
$LUPREC
 70
    4
  9
$SKETCHINC
 40
1
  9
$FILLETRAD
 40
10
  9
$AUNITS
 70
    0
  9
$AUPREC
 70
    2
  9
$MENU
  1
.
  9
$ELEVATION
 40
0
  9
$PELEVATION
 40
0
  9
$THICKNESS
 40
0
  9
$LIMCHECK
 70
    0
  9
$CHAMFERA
 40
0
  9
$CHAMFERB
 40
0
  9
$CHAMFERC
 40
0
  9
$CHAMFERD
 40
0
  9
$SKPOLY
 70
    0
  9
$USRTIMER
 70
    1
  9
$ANGBASE
 50
0
  9
$ANGDIR
 70
    0
  9
$PDMODE
 70
    0
  9
$PDSIZE
 40
0
  9
$PLINEWID
 40
0
  9
$SPLFRAME
 70
    0
  9
$SPLINETYPE
 70
    6
  9
$SPLINESEGS
 70
    8
  9
$HANDSEED
  5
20000
  9
$SURFTAB1
 70
    6
  9
$SURFTAB2
 70
    6
  9
$SURFTYPE
 70
    6
  9
$SURFU
 70
    6
  9
$SURFV
 70
    6
  9
$UCSBASE
  2

  9
$UCSNAME
  2

  9
$UCSORG
 10
0
 20
0
 30
0
  9
$UCSXDIR
 10
1
 20
0
 30
0
  9
$UCSYDIR
 10
0
 20
1
 30
0
  9
$UCSORTHOREF
  2

  9
$UCSORTHOVIEW
 70
    0
  9
$UCSORGTOP
 10
0
 20
0
 30
0
  9
$UCSORGBOTTOM
 10
0
 20
0
 30
0
  9
$UCSORGLEFT
 10
0
 20
0
 30
0
  9
$UCSORGRIGHT
 10
0
 20
0
 30
0
  9
$UCSORGFRONT
 10
0
 20
0
 30
0
  9
$UCSORGBACK
 10
0
 20
0
 30
0
  9
$PUCSBASE
  2

  9
$PUCSNAME
  2

  9
$PUCSORG
 10
0
 20
0
 30
0
  9
$PUCSXDIR
 10
1
 20
0
 30
0
  9
$PUCSYDIR
 10
0
 20
1
 30
0
  9
$PUCSORTHOREF
  2

  9
$PUCSORTHOVIEW
 70
    0
  9
$PUCSORGTOP
 10
0
 20
0
 30
0
  9
$PUCSORGBOTTOM
 10
0
 20
0
 30
0
  9
$PUCSORGLEFT
 10
0
 20
0
 30
0
  9
$PUCSORGRIGHT
 10
0
 20
0
 30
0
  9
$PUCSORGFRONT
 10
0
 20
0
 30
0
  9
$PUCSORGBACK
 10
0
 20
0
 30
0
  9
$USERI1
 70
    0
  9
$USERI2
 70
    0
  9
$USERI3
 70
    0
  9
$USERI4
 70
    0
  9
$USERI5
 70
    0
  9
$USERR1
 40
0
  9
$USERR2
 40
0
  9
$USERR3
 40
0
  9
$USERR4
 40
0
  9
$USERR5
 40
0
  9
$WORLDVIEW
 70
    1
  9
$SHADEDGE
 70
    3
  9
$SHADEDIF
 70
   70
  9
$TILEMODE
 70
    1
  9
$MAXACTVP
 70
   64
  9
$PINSBASE
 10
0
 20
0
 30
0
  9
$PLIMCHECK
 70
    0
  9
$PEXTMIN
 10
0
 20
0
 30
0
  9
$PEXTMAX
 10
0
 20
0
 30
0
  9
$GRIDMODE
 70
    1
  9
$SNAPSTYLE
 70
    0
  9
$PLIMMIN
 10
0
 20
0
  9
$PLIMMAX
 10
460000
 20
270000
  9
$UNITMODE
 70
    0
  9
$VISRETAIN
 70
    1
  9
$PLINEGEN
 70
    0
  9
$PSLTSCALE
 70
    1
  9
$TREEDEPTH
 70
 3020
  9
$CMLSTYLE
  2
Standard
  9
$CMLJUST
 70
    0
  9
$CMLSCALE
 40
20
  9
$PROXYGRAPHICS
 70
    1
  9
$MEASUREMENT
 70
    1
  9
$CELWEIGHT
370
   -1
  9
$ENDCAPS
280
    0
  9
$JOINSTYLE
280
    0
  9
$LWDISPLAY
290
    0
  9
$INSUNITS
 70
    6
  9
$HYPERLINKBASE
  1

  9
$STYLESHEET
  1

  9
$XEDIT
290
    1
  9
$CEPSNTYPE
380
    0
  9
$PSTYLEMODE
290
    1
  9
$EXTNAMES
290
    1
  9
$PSVPSCALE
 40
1
  9
$OLESTARTUP
290
    0
  9
$SORTENTS
280
  127
  9
$INDEXCTL
280
    0
  9
$HIDETEXT
280
    1
  9
$XCLIPFRAME
290
    0
  9
$HALOGAP
280
    0
  9
$OBSCOLOR
 70
  257
  9
$OBSLTYPE
280
    0
  9
$INTERSECTIONDISPLAY
280
    0
  9
$INTERSECTIONCOLOR
 70
  257
  9
$DIMASSOC
280
    1
  9
$PROJECTNAME
  1

  9
$CAMERADISPLAY
290
    0
  9
$LENSLENGTH
 40
50
  9
$CAMERAHEIGHT
 40
0
  9
$STEPSPERSEC
 40
2
  9
$STEPSIZE
 40
50
  9
$3DDWFPREC
 40
2
  9
$PSOLWIDTH
 40
5
  9
$PSOLHEIGHT
 40
80
  9
$LOFTANG1
 40
1.570796326794897
  9
$LOFTANG2
 40
1.570796326794897
  9
$LOFTMAG1
 40
0
  9
$LOFTMAG2
 40
0
  9
$LOFTPARAM
 70
    7
  9
$LOFTNORMALS
280
    1
  9
$LATITUDE
 40
1
  9
$LONGITUDE
 40
1
  9
$NORTHDIRECTION
 40
0
  9
$TIMEZONE
 70
-8000
  9
$LIGHTGLYPHDISPLAY
280
    1
  9
$TILEMODELIGHTSYNCH
280
    1
  9
$SOLIDHIST
280
    1
  9
$SHOWHIST
280
    1
  9
$DWFFRAME
280
    2
  9
$DGNFRAME
280
    0
  9
$REALWORLDSCALE
290
    1
  9
$INTERFERECOLOR
 62
    1
  9
$CSHADOW
280
    0
  9
$SHADOWPLANELOCATION
 40
0
  0
ENDSEC
  0
SECTION
  2
CLASSES
  0
ENDSEC
  0
SECTION
  2
TABLES
  0
TABLE
  2
VPORT
  5
8
330
0
100
AcDbSymbolTable
 70
    1
  0
VPORT
  5
31
330
2
100
AcDbSymbolTableRecord
100
AcDbViewportTableRecord
  2
*ACTIVE
 70
    0
 10
0
 20
0
 11
1
 21
1
 12
10.83177200607862
 22
3.286043192855312
 13
0
 23
0
 14
10
 24
10
 15
10
 25
10
 16
0
 26
0
 36
1
 17
0
 27
0
 37
0
 40
6.226600363044833
 41
2.204287515762926
 42
50
 43
0
 44
0
 50
0
 51
0
 71
    0
 72
  100
 73
    1
 74
    3
 75
    0
 76
    1
 77
    0
 78
    0
281
    0
 65
    1
110
0
120
0
130
0
111
1
121
0
131
0
112
0
122
1
132
0
 79
    0
146
0
348
10020
 60
    7
 61
    5
292
1
282
    1
141
0
142
0
 63
  250
421
3358443
  0
ENDTAB
  0
TABLE
  2
LTYPE
  5
5
330
0
100
AcDbSymbolTable
 70
    4
  0
LTYPE
  5
14
330
5
100
AcDbSymbolTableRecord
100
AcDbLinetypeTableRecord
  2
ByBlock
 70
    0
  3

 72
   65
 73
    0
 40
0
  0
LTYPE
  5
15
330
5
100
AcDbSymbolTableRecord
100
AcDbLinetypeTableRecord
  2
ByLayer
 70
    0
  3

 72
   65
 73
    0
 40
0
  0
LTYPE
  5
16
330
5
100
AcDbSymbolTableRecord
100
AcDbLinetypeTableRecord
  2
Continuous
 70
    0
  3
Solid line
 72
   65
 73
    0
 40
0
  0
LTYPE
  5
32
330
5
100
AcDbSymbolTableRecord
100
AcDbLinetypeTableRecord
  2
DOT
 70
    0
  3
Dot . . . . . . . . . . . . . . . . . . . . . .
 72
   65
 73
    2
 40
6.35
 49
0
 74
    0
 49
-6.35
 74
    0
  0
LTYPE
  5
33
330
5
100
AcDbSymbolTableRecord
100
AcDbLinetypeTableRecord
  2
DOTTINY
 70
    0
  3
Dot (.15x) .....................................
 72
   65
 73
    2
 40
0.9525
 49
0
 74
    0
 49
-0.9525
 74
    0
  0
LTYPE
  5
34
330
5
100
AcDbSymbolTableRecord
100
AcDbLinetypeTableRecord
  2
DOT2
 70
    0
  3
Dot (.5x) .....................................
 72
   65
 73
    2
 40
3.175
 49
0
 74
    0
 49
-3.175
 74
    0
  0
LTYPE
  5
35
330
5
100
AcDbSymbolTableRecord
100
AcDbLinetypeTableRecord
  2
DOTX2
 70
    0
  3
Dot (2x) .  .  .  .  .  .  .  .  .  .  .  .  .
 72
   65
 73
    2
 40
12.7
 49
0
 74
    0
 49
-12.7
 74
    0
  0
LTYPE
  5
36
330
5
100
AcDbSymbolTableRecord
100
AcDbLinetypeTableRecord
  2
DASHED
 70
    0
  3
Dashed _ _ _ _ _ _ _ _ _ _ _ _ _ _ _ _ _
 72
   65
 73
    2
 40
19.05
 49
12.7
 74
    0
 49
-6.35
 74
    0
  0
LTYPE
  5
37
330
5
100
AcDbSymbolTableRecord
100
AcDbLinetypeTableRecord
  2
DASHEDTINY
 70
    0
  3
Dashed (.15x) _ _ _ _ _ _ _ _ _ _ _ _ _ _ _ _ _
 72
   65
 73
    2
 40
2.8575
 49
1.905
 74
    0
 49
-0.9525
 74
    0
  0
LTYPE
  5
38
330
5
100
AcDbSymbolTableRecord
100
AcDbLinetypeTableRecord
  2
DASHED2
 70
    0
  3
Dashed (.5x) _ _ _ _ _ _ _ _ _ _ _ _ _ _ _ _ _
 72
   65
 73
    2
 40
9.524999999999999
 49
6.35
 74
    0
 49
-3.175
 74
    0
  0
LTYPE
  5
39
330
5
100
AcDbSymbolTableRecord
100
AcDbLinetypeTableRecord
  2
DASHEDX2
 70
    0
  3
Dashed (2x) ____  ____  ____  ____  ____  ___
 72
   65
 73
    2
 40
38.09999999999999
 49
25.4
 74
    0
 49
-12.7
 74
    0
  0
LTYPE
  5
3A
330
5
100
AcDbSymbolTableRecord
100
AcDbLinetypeTableRecord
  2
DASHDOT
 70
    0
  3
Dash dot __ . __ . __ . __ . __ . __ . __ . __
 72
   65
 73
    4
 40
25.4
 49
12.7
 74
    0
 49
-6.35
 74
    0
 49
0
 74
    0
 49
-6.35
 74
    0
  0
LTYPE
  5
3B
330
5
100
AcDbSymbolTableRecord
100
AcDbLinetypeTableRecord
  2
DASHDOTTINY
 70
    0
  3
Dash dot (.15x) _._._._._._._._._._._._._._._.
 72
   65
 73
    4
 40
3.81
 49
1.905
 74
    0
 49
-0.9525
 74
    0
 49
0
 74
    0
 49
-0.9525
 74
    0
  0
LTYPE
  5
3C
330
5
100
AcDbSymbolTableRecord
100
AcDbLinetypeTableRecord
  2
DASHDOT2
 70
    0
  3
Dash dot (.5x) _._._._._._._._._._._._._._._.
 72
   65
 73
    4
 40
12.7
 49
6.35
 74
    0
 49
-3.175
 74
    0
 49
0
 74
    0
 49
-3.175
 74
    0
  0
LTYPE
  5
3D
330
5
100
AcDbSymbolTableRecord
100
AcDbLinetypeTableRecord
  2
DASHDOTX2
 70
    0
  3
Dash dot (2x) ____  .  ____  .  ____  .  ___
 72
   65
 73
    4
 40
50.8
 49
25.4
 74
    0
 49
-12.7
 74
    0
 49
0
 74
    0
 49
-12.7
 74
    0
  0
LTYPE
  5
3E
330
5
100
AcDbSymbolTableRecord
100
AcDbLinetypeTableRecord
  2
DIVIDE
 70
    0
  3
Divide ____ . . ____ . . ____ . . ____ . . ____
 72
   65
 73
    6
 40
31.75
 49
12.7
 74
    0
 49
-6.35
 74
    0
 49
0
 74
    0
 49
-6.35
 74
    0
 49
0
 74
    0
 49
-6.35
 74
    0
  0
LTYPE
  5
3F
330
5
100
AcDbSymbolTableRecord
100
AcDbLinetypeTableRecord
  2
DIVIDETINY
 70
    0
  3
Divide (.15x) __..__..__..__..__..__..__..__.._
 72
   65
 73
    6
 40
4.7625
 49
1.905
 74
    0
 49
-0.9525
 74
    0
 49
0
 74
    0
 49
-0.9525
 74
    0
 49
0
 74
    0
 49
-0.9525
 74
    0
  0
LTYPE
  5
40
330
5
100
AcDbSymbolTableRecord
100
AcDbLinetypeTableRecord
  2
DIVIDE2
 70
    0
  3
Divide (.5x) __..__..__..__..__..__..__..__.._
 72
   65
 73
    6
 40
15.875
 49
6.35
 74
    0
 49
-3.175
 74
    0
 49
0
 74
    0
 49
-3.175
 74
    0
 49
0
 74
    0
 49
-3.175
 74
    0
  0
LTYPE
  5
41
330
5
100
AcDbSymbolTableRecord
100
AcDbLinetypeTableRecord
  2
DIVIDEX2
 70
    0
  3
Divide (2x) ________  .  .  ________  .  .  _
 72
   65
 73
    6
 40
63.5
 49
25.4
 74
    0
 49
-12.7
 74
    0
 49
0
 74
    0
 49
-12.7
 74
    0
 49
0
 74
    0
 49
-12.7
 74
    0
  0
LTYPE
  5
42
330
5
100
AcDbSymbolTableRecord
100
AcDbLinetypeTableRecord
  2
BORDER
 70
    0
  3
Border __ __ . __ __ . __ __ . __ __ . __ __ .
 72
   65
 73
    6
 40
44.45
 49
12.7
 74
    0
 49
-6.35
 74
    0
 49
12.7
 74
    0
 49
-6.35
 74
    0
 49
0
 74
    0
 49
-6.35
 74
    0
  0
LTYPE
  5
43
330
5
100
AcDbSymbolTableRecord
100
AcDbLinetypeTableRecord
  2
BORDERTINY
 70
    0
  3
Border (.15x) __.__.__.__.__.__.__.__.__.__.__.
 72
   65
 73
    6
 40
6.6675
 49
1.905
 74
    0
 49
-0.9525
 74
    0
 49
1.905
 74
    0
 49
-0.9525
 74
    0
 49
0
 74
    0
 49
-0.9525
 74
    0
  0
LTYPE
  5
44
330
5
100
AcDbSymbolTableRecord
100
AcDbLinetypeTableRecord
  2
BORDER2
 70
    0
  3
Border (.5x) __.__.__.__.__.__.__.__.__.__.__.
 72
   65
 73
    6
 40
22.225
 49
6.35
 74
    0
 49
-3.175
 74
    0
 49
6.35
 74
    0
 49
-3.175
 74
    0
 49
0
 74
    0
 49
-3.175
 74
    0
  0
LTYPE
  5
45
330
5
100
AcDbSymbolTableRecord
100
AcDbLinetypeTableRecord
  2
BORDERX2
 70
    0
  3
Border (2x) ____  ____  .  ____  ____  .  ___
 72
   65
 73
    6
 40
88.89999999999999
 49
25.4
 74
    0
 49
-12.7
 74
    0
 49
25.4
 74
    0
 49
-12.7
 74
    0
 49
0
 74
    0
 49
-12.7
 74
    0
  0
LTYPE
  5
46
330
5
100
AcDbSymbolTableRecord
100
AcDbLinetypeTableRecord
  2
CENTER
 70
    0
  3
Center ____ _ ____ _ ____ _ ____ _ ____ _ ____
 72
   65
 73
    4
 40
50.8
 49
31.75
 74
    0
 49
-6.35
 74
    0
 49
6.35
 74
    0
 49
-6.35
 74
    0
  0
LTYPE
  5
47
330
5
100
AcDbSymbolTableRecord
100
AcDbLinetypeTableRecord
  2
CENTERTINY
 70
    0
  3
Center (.15x) ___ _ ___ _ ___ _ ___ _ ___ _ ___
 72
   65
 73
    4
 40
7.619999999999999
 49
4.7625
 74
    0
 49
-0.9525
 74
    0
 49
0.9525
 74
    0
 49
-0.9525
 74
    0
  0
LTYPE
  5
48
330
5
100
AcDbSymbolTableRecord
100
AcDbLinetypeTableRecord
  2
CENTER2
 70
    0
  3
Center (.5x) ___ _ ___ _ ___ _ ___ _ ___ _ ___
 72
   65
 73
    4
 40
28.575
 49
19.05
 74
    0
 49
-3.175
 74
    0
 49
3.175
 74
    0
 49
-3.175
 74
    0
  0
LTYPE
  5
49
330
5
100
AcDbSymbolTableRecord
100
AcDbLinetypeTableRecord
  2
CENTERX2
 70
    0
  3
Center (2x) ________  __  ________  __  _____
 72
   65
 73
    4
 40
101.6
 49
63.5
 74
    0
 49
-12.7
 74
    0
 49
12.7
 74
    0
 49
-12.7
 74
    0
  0
ENDTAB
  0
TABLE
  2
LAYER
  5
2
330
0
100
AcDbSymbolTable
 70
    1
  0
LAYER
  5
10
330
2
100
AcDbSymbolTableRecord
100
AcDbLayerTableRecord
  2
0
 70
    0
 62
  255
  6
CONTINUOUS
370
   -3
390
F
  0
LAYER
  5
4A
330
2
100
AcDbSymbolTableRecord
100
AcDbLayerTableRecord
  2
ANOTACIONES
 70
    0
 62
  251
420
6710886
  6
CONTINUOUS
370
   -3
390
F
  0
LAYER
  5
4B
330
2
100
AcDbSymbolTableRecord
100
AcDbLayerTableRecord
  2
ARQ_ANOTACIONES
 70
    0
 62
  251
420
5592405
  6
CONTINUOUS
370
    9
390
F
  0
LAYER
  5
4C
330
2
100
AcDbSymbolTableRecord
100
AcDbLayerTableRecord
  2
ARQ_ESCALERAS
 70
    0
 62
  251
420
5592405
  6
CONTINUOUS
370
   13
390
F
  0
LAYER
  5
4D
330
2
100
AcDbSymbolTableRecord
100
AcDbLayerTableRecord
  2
ARQ_MOBILIARIO
 70
    0
 62
    8
420
7829367
  6
CONTINUOUS
370
    9
390
F
  0
LAYER
  5
4E
330
2
100
AcDbSymbolTableRecord
100
AcDbLayerTableRecord
  2
ARQ_MUROS
 70
    0
 62
  255
  6
CONTINUOUS
370
   30
390
F
  0
LAYER
  5
4F
330
2
100
AcDbSymbolTableRecord
100
AcDbLayerTableRecord
  2
ARQ_PUERTAS
 70
    0
 62
  255
  6
CONTINUOUS
370
   18
390
F
  0
LAYER
  5
50
330
2
100
AcDbSymbolTableRecord
100
AcDbLayerTableRecord
  2
ARQ_TEXTOS
 70
    0
 62
   49
420
4473924
  6
CONTINUOUS
370
   13
390
F
  0
LAYER
  5
51
330
2
100
AcDbSymbolTableRecord
100
AcDbLayerTableRecord
  2
ARQ_TRAMAS
 70
    0
 62
  253
420
10066329
  6
CONTINUOUS
370
    9
390
F
  0
LAYER
  5
52
330
2
100
AcDbSymbolTableRecord
100
AcDbLayerTableRecord
  2
ARQ_VENTANAS
 70
    0
 62
  255
  6
CONTINUOUS
370
   18
390
F
  0
LAYER
  5
53
330
2
100
AcDbSymbolTableRecord
100
AcDbLayerTableRecord
  2
COTAS
 70
    0
 62
  251
420
6710886
  6
CONTINUOUS
370
   -3
390
F
  0
LAYER
  5
54
330
2
100
AcDbSymbolTableRecord
100
AcDbLayerTableRecord
  2
Defpoints
 70
    0
 62
  255
  6
CONTINUOUS
290
0
370
   -3
390
F
  0
LAYER
  5
55
330
2
100
AcDbSymbolTableRecord
100
AcDbLayerTableRecord
  2
ELEC_CANALIZACION
 70
    0
 62
  136
  6
CONTINUOUS
370
   13
390
F
  0
LAYER
  5
56
330
2
100
AcDbSymbolTableRecord
100
AcDbLayerTableRecord
  2
ELEC_CIRCUITO_C1
 70
    0
 62
   42
420
13404672
  6
CONTINUOUS
370
   18
390
F
  0
LAYER
  5
57
330
2
100
AcDbSymbolTableRecord
100
AcDbLayerTableRecord
  2
ELEC_CIRCUITO_C2
 70
    0
 62
  156
  6
CONTINUOUS
370
   18
390
F
  0
LAYER
  5
58
330
2
100
AcDbSymbolTableRecord
100
AcDbLayerTableRecord
  2
ELEC_CIRCUITO_C3
 70
    0
 62
  142
420
36026
  6
CONTINUOUS
370
   18
390
F
  0
LAYER
  5
59
330
2
100
AcDbSymbolTableRecord
100
AcDbLayerTableRecord
  2
ELEC_CIRCUITO_C4
 70
    0
 62
   42
420
13933056
  6
CONTINUOUS
370
   18
390
F
  0
LAYER
  5
5A
330
2
100
AcDbSymbolTableRecord
100
AcDbLayerTableRecord
  2
ELEC_CIRCUITO_C5
 70
    0
 62
  156
  6
CONTINUOUS
370
   18
390
F
  0
LAYER
  5
5B
330
2
100
AcDbSymbolTableRecord
100
AcDbLayerTableRecord
  2
ELEC_CIRCUITO_C6
 70
    0
 62
   14
420
10813440
  6
CONTINUOUS
370
   18
390
F
  0
LAYER
  5
5C
330
2
100
AcDbSymbolTableRecord
100
AcDbLayerTableRecord
  2
ELEC_CIRCUITO_C7
 70
    0
 62
  202
420
9055202
  6
CONTINUOUS
370
   18
390
F
  0
LAYER
  5
5D
330
2
100
AcDbSymbolTableRecord
100
AcDbLayerTableRecord
  2
ELEC_CIRCUITO_C8
 70
    0
 62
   96
420
32768
  6
CONTINUOUS
370
   18
390
F
  0
LAYER
  5
5E
330
2
100
AcDbSymbolTableRecord
100
AcDbLayerTableRecord
  2
ELEC_COTAS_REF
 70
    0
 62
    8
420
7829367
  6
CONTINUOUS
370
    9
390
F
  0
LAYER
  5
5F
330
2
100
AcDbSymbolTableRecord
100
AcDbLayerTableRecord
  2
ELEC_INTERRUPTORES
 70
    0
 62
  114
420
42577
  6
CONTINUOUS
370
   25
390
F
  0
LAYER
  5
60
330
2
100
AcDbSymbolTableRecord
100
AcDbLayerTableRecord
  2
ELEC_LEYENDA
 70
    0
 62
  255
  6
CONTINUOUS
370
   18
390
F
  0
LAYER
  5
61
330
2
100
AcDbSymbolTableRecord
100
AcDbLayerTableRecord
  2
ELEC_LUMINARIAS
 70
    0
 62
   40
420
16756736
  6
CONTINUOUS
370
   25
390
F
  0
LAYER
  5
62
330
2
100
AcDbSymbolTableRecord
100
AcDbLayerTableRecord
  2
ELEC_MEDIDOR
 70
    0
 62
  202
420
9055202
  6
CONTINUOUS
370
   30
390
F
  0
LAYER
  5
63
330
2
100
AcDbSymbolTableRecord
100
AcDbLayerTableRecord
  2
ELEC_PUESTA_TIERRA
 70
    0
 62
    3
  6
CONTINUOUS
370
   25
390
F
  0
LAYER
  5
64
330
2
100
AcDbSymbolTableRecord
100
AcDbLayerTableRecord
  2
ELEC_TABLERO
 70
    0
 62
   14
420
10813440
  6
CONTINUOUS
370
   35
390
F
  0
LAYER
  5
65
330
2
100
AcDbSymbolTableRecord
100
AcDbLayerTableRecord
  2
ELEC_TEXTOS
 70
    0
 62
  255
  6
CONTINUOUS
370
   13
390
F
  0
LAYER
  5
66
330
2
100
AcDbSymbolTableRecord
100
AcDbLayerTableRecord
  2
ELEC_TOMACORRIENTES
 70
    0
 62
  154
420
21157
  6
CONTINUOUS
370
   25
390
F
  0
LAYER
  5
67
330
2
100
AcDbSymbolTableRecord
100
AcDbLayerTableRecord
  2
ESCALERAS
 70
    0
 62
  255
  6
CONTINUOUS
370
   -3
390
F
  0
LAYER
  5
68
330
2
100
AcDbSymbolTableRecord
100
AcDbLayerTableRecord
  2
MARCO
 70
    0
 62
  255
  6
CONTINUOUS
370
   50
390
F
  0
LAYER
  5
69
330
2
100
AcDbSymbolTableRecord
100
AcDbLayerTableRecord
  2
MOBILIARIO
 70
    0
 62
  251
420
6710886
  6
CONTINUOUS
370
   -3
390
F
  0
LAYER
  5
6A
330
2
100
AcDbSymbolTableRecord
100
AcDbLayerTableRecord
  2
MUROS
 70
    0
 62
  255
  6
CONTINUOUS
370
   35
390
F
  0
LAYER
  5
6B
330
2
100
AcDbSymbolTableRecord
100
AcDbLayerTableRecord
  2
PUERTAS
 70
    0
 62
  255
  6
CONTINUOUS
370
   -3
390
F
  0
LAYER
  5
6C
330
2
100
AcDbSymbolTableRecord
100
AcDbLayerTableRecord
  2
TEXTOS
 70
    0
 62
  255
  6
CONTINUOUS
370
   -3
390
F
  0
LAYER
  5
6D
330
2
100
AcDbSymbolTableRecord
100
AcDbLayerTableRecord
  2
TRAMAS
 70
    0
 62
  253
420
10066329
  6
CONTINUOUS
370
   -3
390
F
  0
LAYER
  5
6E
330
2
100
AcDbSymbolTableRecord
100
AcDbLayerTableRecord
  2
VENTANAS
 70
    0
 62
  255
  6
CONTINUOUS
370
   -3
390
F
  0
ENDTAB
  0
TABLE
  2
STYLE
  5
3
330
0
100
AcDbSymbolTable
 70
    3
  0
STYLE
  5
6F
330
2
100
AcDbSymbolTableRecord
100
AcDbTextStyleTableRecord
  2
textstyle71
 70
    0
 40
0
 41
1
 50
0
 71
    0
 42
1
  3
textstyle71
  4

  0
STYLE
  5
70
330
2
100
AcDbSymbolTableRecord
100
AcDbTextStyleTableRecord
  2
textstyle55
 70
    0
 40
0
 41
1
 50
0
 71
    0
 42
1
  3
textstyle55
  4

  0
STYLE
  5
71
330
2
100
AcDbSymbolTableRecord
100
AcDbTextStyleTableRecord
  2
textstyle26
 70
    0
 40
0
 41
1
 50
0
 71
    0
 42
1
  3
textstyle26
  4

  0
STYLE
  5
72
330
2
100
AcDbSymbolTableRecord
100
AcDbTextStyleTableRecord
  2
textstyle18
 70
    0
 40
0
 41
1
 50
0
 71
    0
 42
1
  3
textstyle18
  4

  0
STYLE
  5
73
330
2
100
AcDbSymbolTableRecord
100
AcDbTextStyleTableRecord
  2
textstyle4
 70
    0
 40
0
 41
1
 50
0
 71
    0
 42
1
  3
textstyle4
  4

  0
STYLE
  5
74
330
2
100
AcDbSymbolTableRecord
100
AcDbTextStyleTableRecord
  2
textstyle10
 70
    0
 40
0
 41
1
 50
0
 71
    0
 42
1
  3
textstyle10
  4

  0
STYLE
  5
75
330
2
100
AcDbSymbolTableRecord
100
AcDbTextStyleTableRecord
  2
textstyle8
 70
    0
 40
0
 41
1
 50
0
 71
    0
 42
1
  3
textstyle8
  4

  0
STYLE
  5
76
330
2
100
AcDbSymbolTableRecord
100
AcDbTextStyleTableRecord
  2
textstyle64
 70
    0
 40
0
 41
1
 50
0
 71
    0
 42
1
  3
textstyle64
  4

  0
STYLE
  5
77
330
2
100
AcDbSymbolTableRecord
100
AcDbTextStyleTableRecord
  2
textstyle38
 70
    0
 40
0
 41
1
 50
0
 71
    0
 42
1
  3
textstyle38
  4

  0
STYLE
  5
78
330
2
100
AcDbSymbolTableRecord
100
AcDbTextStyleTableRecord
  2
textstyle7
 70
    0
 40
0
 41
1
 50
0
 71
    0
 42
1
  3
textstyle7
  4

  0
STYLE
  5
79
330
2
100
AcDbSymbolTableRecord
100
AcDbTextStyleTableRecord
  2
textstyle63
 70
    0
 40
0
 41
1
 50
0
 71
    0
 42
1
  3
textstyle63
  4

  0
STYLE
  5
7A
330
2
100
AcDbSymbolTableRecord
100
AcDbTextStyleTableRecord
  2
textstyle69
 70
    0
 40
0
 41
1
 50
0
 71
    0
 42
1
  3
textstyle69
  4

  0
STYLE
  5
7B
330
2
100
AcDbSymbolTableRecord
100
AcDbTextStyleTableRecord
  2
textstyle16
 70
    0
 40
0
 41
1
 50
0
 71
    0
 42
1
  3
textstyle16
  4

  0
STYLE
  5
7C
330
2
100
AcDbSymbolTableRecord
100
AcDbTextStyleTableRecord
  2
textstyle37
 70
    0
 40
0
 41
1
 50
0
 71
    0
 42
1
  3
textstyle37
  4

  0
STYLE
  5
7D
330
2
100
AcDbSymbolTableRecord
100
AcDbTextStyleTableRecord
  2
textstyle14
 70
    0
 40
0
 41
1
 50
0
 71
    0
 42
1
  3
textstyle14
  4

  0
STYLE
  5
7E
330
2
100
AcDbSymbolTableRecord
100
AcDbTextStyleTableRecord
  2
textstyle36
 70
    0
 40
0
 41
1
 50
0
 71
    0
 42
1
  3
textstyle36
  4

  0
STYLE
  5
7F
330
2
100
AcDbSymbolTableRecord
100
AcDbTextStyleTableRecord
  2
textstyle27
 70
    0
 40
0
 41
1
 50
0
 71
    0
 42
1
  3
textstyle27
  4

  0
STYLE
  5
80
330
2
100
AcDbSymbolTableRecord
100
AcDbTextStyleTableRecord
  2
textstyle41
 70
    0
 40
0
 41
1
 50
0
 71
    0
 42
1
  3
textstyle41
  4

  0
STYLE
  5
81
330
2
100
AcDbSymbolTableRecord
100
AcDbTextStyleTableRecord
  2
textstyle0
 70
    0
 40
0
 41
1
 50
0
 71
    0
 42
1
  3
textstyle0
  4

  0
STYLE
  5
82
330
2
100
AcDbSymbolTableRecord
100
AcDbTextStyleTableRecord
  2
textstyle34
 70
    0
 40
0
 41
1
 50
0
 71
    0
 42
1
  3
textstyle34
  4

  0
STYLE
  5
83
330
2
100
AcDbSymbolTableRecord
100
AcDbTextStyleTableRecord
  2
textstyle23
 70
    0
 40
0
 41
1
 50
0
 71
    0
 42
1
  3
textstyle23
  4

  0
STYLE
  5
84
330
2
100
AcDbSymbolTableRecord
100
AcDbTextStyleTableRecord
  2
textstyle52
 70
    0
 40
0
 41
1
 50
0
 71
    0
 42
1
  3
textstyle52
  4

  0
STYLE
  5
85
330
2
100
AcDbSymbolTableRecord
100
AcDbTextStyleTableRecord
  2
textstyle5
 70
    0
 40
0
 41
1
 50
0
 71
    0
 42
1
  3
textstyle5
  4

  0
STYLE
  5
86
330
2
100
AcDbSymbolTableRecord
100
AcDbTextStyleTableRecord
  2
textstyle68
 70
    0
 40
0
 41
1
 50
0
 71
    0
 42
1
  3
textstyle68
  4

  0
STYLE
  5
87
330
2
100
AcDbSymbolTableRecord
100
AcDbTextStyleTableRecord
  2
textstyle56
 70
    0
 40
0
 41
1
 50
0
 71
    0
 42
1
  3
textstyle56
  4

  0
STYLE
  5
88
330
2
100
AcDbSymbolTableRecord
100
AcDbTextStyleTableRecord
  2
textstyle9
 70
    0
 40
0
 41
1
 50
0
 71
    0
 42
1
  3
textstyle9
  4

  0
STYLE
  5
89
330
2
100
AcDbSymbolTableRecord
100
AcDbTextStyleTableRecord
  2
textstyle2
 70
    0
 40
0
 41
1
 50
0
 71
    0
 42
1
  3
textstyle2
  4

  0
STYLE
  5
8A
330
2
100
AcDbSymbolTableRecord
100
AcDbTextStyleTableRecord
  2
textstyle45
 70
    0
 40
0
 41
1
 50
0
 71
    0
 42
1
  3
textstyle45
  4

  0
STYLE
  5
8B
330
2
100
AcDbSymbolTableRecord
100
AcDbTextStyleTableRecord
  2
textstyle47
 70
    0
 40
0
 41
1
 50
0
 71
    0
 42
1
  3
textstyle47
  4

  0
STYLE
  5
8C
330
2
100
AcDbSymbolTableRecord
100
AcDbTextStyleTableRecord
  2
textstyle20
 70
    0
 40
0
 41
1
 50
0
 71
    0
 42
1
  3
textstyle20
  4

  0
STYLE
  5
8D
330
2
100
AcDbSymbolTableRecord
100
AcDbTextStyleTableRecord
  2
textstyle46
 70
    0
 40
0
 41
1
 50
0
 71
    0
 42
1
  3
textstyle46
  4

  0
STYLE
  5
8E
330
2
100
AcDbSymbolTableRecord
100
AcDbTextStyleTableRecord
  2
textstyle35
 70
    0
 40
0
 41
1
 50
0
 71
    0
 42
1
  3
textstyle35
  4

  0
STYLE
  5
8F
330
2
100
AcDbSymbolTableRecord
100
AcDbTextStyleTableRecord
  2
textstyle62
 70
    0
 40
0
 41
1
 50
0
 71
    0
 42
1
  3
textstyle62
  4

  0
STYLE
  5
90
330
2
100
AcDbSymbolTableRecord
100
AcDbTextStyleTableRecord
  2
textstyle11
 70
    0
 40
0
 41
1
 50
0
 71
    0
 42
1
  3
textstyle11
  4

  0
STYLE
  5
91
330
2
100
AcDbSymbolTableRecord
100
AcDbTextStyleTableRecord
  2
textstyle30
 70
    0
 40
0
 41
1
 50
0
 71
    0
 42
1
  3
textstyle30
  4

  0
STYLE
  5
92
330
2
100
AcDbSymbolTableRecord
100
AcDbTextStyleTableRecord
  2
textstyle40
 70
    0
 40
0
 41
1
 50
0
 71
    0
 42
1
  3
textstyle40
  4

  0
STYLE
  5
93
330
2
100
AcDbSymbolTableRecord
100
AcDbTextStyleTableRecord
  2
textstyle58
 70
    0
 40
0
 41
1
 50
0
 71
    0
 42
1
  3
textstyle58
  4

  0
STYLE
  5
94
330
2
100
AcDbSymbolTableRecord
100
AcDbTextStyleTableRecord
  2
textstyle43
 70
    0
 40
0
 41
1
 50
0
 71
    0
 42
1
  3
textstyle43
  4

  0
STYLE
  5
95
330
2
100
AcDbSymbolTableRecord
100
AcDbTextStyleTableRecord
  2
textstyle61
 70
    0
 40
0
 41
1
 50
0
 71
    0
 42
1
  3
textstyle61
  4

  0
STYLE
  5
96
330
2
100
AcDbSymbolTableRecord
100
AcDbTextStyleTableRecord
  2
textstyle15
 70
    0
 40
0
 41
1
 50
0
 71
    0
 42
1
  3
textstyle15
  4

  0
STYLE
  5
97
330
2
100
AcDbSymbolTableRecord
100
AcDbTextStyleTableRecord
  2
textstyle59
 70
    0
 40
0
 41
1
 50
0
 71
    0
 42
1
  3
textstyle59
  4

  0
STYLE
  5
98
330
2
100
AcDbSymbolTableRecord
100
AcDbTextStyleTableRecord
  2
textstyle49
 70
    0
 40
0
 41
1
 50
0
 71
    0
 42
1
  3
textstyle49
  4

  0
STYLE
  5
99
330
2
100
AcDbSymbolTableRecord
100
AcDbTextStyleTableRecord
  2
textstyle25
 70
    0
 40
0
 41
1
 50
0
 71
    0
 42
1
  3
textstyle25
  4

  0
STYLE
  5
9A
330
2
100
AcDbSymbolTableRecord
100
AcDbTextStyleTableRecord
  2
textstyle1
 70
    0
 40
0
 41
1
 50
0
 71
    0
 42
1
  3
textstyle1
  4

  0
STYLE
  5
9B
330
2
100
AcDbSymbolTableRecord
100
AcDbTextStyleTableRecord
  2
textstyle17
 70
    0
 40
0
 41
1
 50
0
 71
    0
 42
1
  3
textstyle17
  4

  0
STYLE
  5
9C
330
2
100
AcDbSymbolTableRecord
100
AcDbTextStyleTableRecord
  2
textstyle24
 70
    0
 40
0
 41
1
 50
0
 71
    0
 42
1
  3
textstyle24
  4

  0
STYLE
  5
9D
330
2
100
AcDbSymbolTableRecord
100
AcDbTextStyleTableRecord
  2
textstyle57
 70
    0
 40
0
 41
1
 50
0
 71
    0
 42
1
  3
textstyle57
  4

  0
STYLE
  5
9E
330
2
100
AcDbSymbolTableRecord
100
AcDbTextStyleTableRecord
  2
textstyle29
 70
    0
 40
0
 41
1
 50
0
 71
    0
 42
1
  3
textstyle29
  4

  0
STYLE
  5
9F
330
2
100
AcDbSymbolTableRecord
100
AcDbTextStyleTableRecord
  2
textstyle72
 70
    0
 40
0
 41
1
 50
0
 71
    0
 42
1
  3
textstyle72
  4

  0
STYLE
  5
A0
330
2
100
AcDbSymbolTableRecord
100
AcDbTextStyleTableRecord
  2
textstyle66
 70
    0
 40
0
 41
1
 50
0
 71
    0
 42
1
  3
textstyle66
  4

  0
STYLE
  5
A1
330
2
100
AcDbSymbolTableRecord
100
AcDbTextStyleTableRecord
  2
textstyle42
 70
    0
 40
0
 41
1
 50
0
 71
    0
 42
1
  3
textstyle42
  4

  0
STYLE
  5
A2
330
2
100
AcDbSymbolTableRecord
100
AcDbTextStyleTableRecord
  2
textstyle22
 70
    0
 40
0
 41
1
 50
0
 71
    0
 42
1
  3
textstyle22
  4

  0
STYLE
  5
A3
330
2
100
AcDbSymbolTableRecord
100
AcDbTextStyleTableRecord
  2
textstyle13
 70
    0
 40
0
 41
1
 50
0
 71
    0
 42
1
  3
textstyle13
  4

  0
STYLE
  5
A4
330
2
100
AcDbSymbolTableRecord
100
AcDbTextStyleTableRecord
  2
textstyle31
 70
    0
 40
0
 41
1
 50
0
 71
    0
 42
1
  3
textstyle31
  4

  0
STYLE
  5
A5
330
2
100
AcDbSymbolTableRecord
100
AcDbTextStyleTableRecord
  2
textstyle54
 70
    0
 40
0
 41
1
 50
0
 71
    0
 42
1
  3
textstyle54
  4

  0
STYLE
  5
A6
330
2
100
AcDbSymbolTableRecord
100
AcDbTextStyleTableRecord
  2
textstyle44
 70
    0
 40
0
 41
1
 50
0
 71
    0
 42
1
  3
textstyle44
  4

  0
STYLE
  5
A7
330
2
100
AcDbSymbolTableRecord
100
AcDbTextStyleTableRecord
  2
textstyle28
 70
    0
 40
0
 41
1
 50
0
 71
    0
 42
1
  3
textstyle28
  4

  0
STYLE
  5
A8
330
2
100
AcDbSymbolTableRecord
100
AcDbTextStyleTableRecord
  2
textstyle60
 70
    0
 40
0
 41
1
 50
0
 71
    0
 42
1
  3
textstyle60
  4

  0
STYLE
  5
A9
330
2
100
AcDbSymbolTableRecord
100
AcDbTextStyleTableRecord
  2
textstyle33
 70
    0
 40
0
 41
1
 50
0
 71
    0
 42
1
  3
textstyle33
  4

  0
STYLE
  5
AA
330
2
100
AcDbSymbolTableRecord
100
AcDbTextStyleTableRecord
  2
textstyle32
 70
    0
 40
0
 41
1
 50
0
 71
    0
 42
1
  3
textstyle32
  4

  0
STYLE
  5
AB
330
2
100
AcDbSymbolTableRecord
100
AcDbTextStyleTableRecord
  2
textstyle51
 70
    0
 40
0
 41
1
 50
0
 71
    0
 42
1
  3
textstyle51
  4

  0
STYLE
  5
AC
330
2
100
AcDbSymbolTableRecord
100
AcDbTextStyleTableRecord
  2
textstyle48
 70
    0
 40
0
 41
1
 50
0
 71
    0
 42
1
  3
textstyle48
  4

  0
STYLE
  5
AD
330
2
100
AcDbSymbolTableRecord
100
AcDbTextStyleTableRecord
  2
textstyle50
 70
    0
 40
0
 41
1
 50
0
 71
    0
 42
1
  3
textstyle50
  4

  0
STYLE
  5
AE
330
2
100
AcDbSymbolTableRecord
100
AcDbTextStyleTableRecord
  2
textstyle12
 70
    0
 40
0
 41
1
 50
0
 71
    0
 42
1
  3
textstyle12
  4

  0
STYLE
  5
AF
330
2
100
AcDbSymbolTableRecord
100
AcDbTextStyleTableRecord
  2
textstyle21
 70
    0
 40
0
 41
1
 50
0
 71
    0
 42
1
  3
textstyle21
  4

  0
STYLE
  5
B0
330
2
100
AcDbSymbolTableRecord
100
AcDbTextStyleTableRecord
  2
textstyle6
 70
    0
 40
0
 41
1
 50
0
 71
    0
 42
1
  3
textstyle6
  4

  0
STYLE
  5
B1
330
2
100
AcDbSymbolTableRecord
100
AcDbTextStyleTableRecord
  2
textstyle19
 70
    0
 40
0
 41
1
 50
0
 71
    0
 42
1
  3
textstyle19
  4

  0
STYLE
  5
B2
330
2
100
AcDbSymbolTableRecord
100
AcDbTextStyleTableRecord
  2
textstyle70
 70
    0
 40
0
 41
1
 50
0
 71
    0
 42
1
  3
textstyle70
  4

  0
STYLE
  5
B3
330
2
100
AcDbSymbolTableRecord
100
AcDbTextStyleTableRecord
  2
textstyle65
 70
    0
 40
0
 41
1
 50
0
 71
    0
 42
1
  3
textstyle65
  4

  0
STYLE
  5
B4
330
2
100
AcDbSymbolTableRecord
100
AcDbTextStyleTableRecord
  2
textstyle39
 70
    0
 40
0
 41
1
 50
0
 71
    0
 42
1
  3
textstyle39
  4

  0
STYLE
  5
B5
330
2
100
AcDbSymbolTableRecord
100
AcDbTextStyleTableRecord
  2
textstyle53
 70
    0
 40
0
 41
1
 50
0
 71
    0
 42
1
  3
textstyle53
  4

  0
STYLE
  5
B6
330
2
100
AcDbSymbolTableRecord
100
AcDbTextStyleTableRecord
  2
textstyle3
 70
    0
 40
0
 41
1
 50
0
 71
    0
 42
1
  3
textstyle3
  4

  0
STYLE
  5
B7
330
2
100
AcDbSymbolTableRecord
100
AcDbTextStyleTableRecord
  2
textstyle67
 70
    0
 40
0
 41
1
 50
0
 71
    0
 42
1
  3
textstyle67
  4

  0
STYLE
  5
B8
330
2
100
AcDbSymbolTableRecord
100
AcDbTextStyleTableRecord
  2
textstyle73
 70
    0
 40
0
 41
1
 50
0
 71
    0
 42
1
  3
textstyle73
  4

  0
STYLE
  5
B9
330
2
100
AcDbSymbolTableRecord
100
AcDbTextStyleTableRecord
  2
Standard
 70
    0
 40
0
 41
1
 50
0
 71
    0
 42
1
  3
txt
  4

  0
ENDTAB
  0
TABLE
  2
VIEW
  5
6
330
0
100
AcDbSymbolTable
 70
    0
  0
ENDTAB
  0
TABLE
  2
UCS
  5
7
330
0
100
AcDbSymbolTable
 70
    0
  0
ENDTAB
  0
TABLE
  2
APPID
  5
9
330
0
100
AcDbSymbolTable
 70
    1
  0
APPID
  5
12
330
9
100
AcDbSymbolTableRecord
100
AcDbRegAppTableRecord
  2
ACAD
 70
    0
  0
APPID
  5
BA
330
9
100
AcDbSymbolTableRecord
100
AcDbRegAppTableRecord
  2
LibreCad
 70
    0
  0
ENDTAB
  0
TABLE
  2
DIMSTYLE
  5
A
330
0
100
AcDbSymbolTable
 70
    1
100
AcDbDimStyleTable
 71
    1
  0
DIMSTYLE
105
BB
330
A
100
AcDbSymbolTableRecord
100
AcDbDimStyleTableRecord
  2
Standard
 70
    0
 40
1
 41
0.175
 42
0.125
 43
0.38
 44
0.375
 45
0
 46
0
 47
0
 48
0
 49
1
140
0.25
141
0.09
142
0
143
25.4
144
100
145
0
146
1
147
0.1
148
0
 71
    0
 72
    0
 73
    0
 74
    1
 75
    0
 76
    0
 77
    0
 78
   12
 79
    3
170
    0
171
    2
172
    0
173
    0
174
    0
175
    0
176
    0
177
    0
178
    0
179
    0
271
    2
272
    4
273
    2
274
    2
275
    0
276
    0
277
    2
278
    0
279
    0
280
    0
281
    0
282
    0
283
    1
284
    0
285
    0
286
    0
288
    0
289
    3
340
B9
  0
ENDTAB
  0
TABLE
  2
BLOCK_RECORD
  5
1
330
0
100
AcDbSymbolTable
 70
    2
  0
BLOCK_RECORD
  5
1F
330
1
100
AcDbSymbolTableRecord
100
AcDbBlockTableRecord
  2
*Model_Space
 70
    0
280
    1
281
    0
  0
BLOCK_RECORD
  5
1E
330
1
100
AcDbSymbolTableRecord
100
AcDbBlockTableRecord
  2
*Paper_Space
 70
    0
280
    1
281
    0
  0
BLOCK_RECORD
  5
BC
330
1
100
AcDbSymbolTableRecord
100
AcDbBlockTableRecord
  2
_CLOSEDBLANK
 70
    0
280
    1
281
    0
  0
BLOCK_RECORD
  5
BF
330
1
100
AcDbSymbolTableRecord
100
AcDbBlockTableRecord
  2
_ARCHTICK
 70
    0
280
    1
281
    0
  0
BLOCK_RECORD
  5
C2
330
1
100
AcDbSymbolTableRecord
100
AcDbBlockTableRecord
  2
_CLOSEDFILLED
 70
    0
280
    1
281
    0
  0
ENDTAB
  0
ENDSEC
  0
SECTION
  2
BLOCKS
  0
BLOCK
  5
20
330
1F
100
AcDbEntity
  8
0
100
AcDbBlockBegin
  2
*Model_Space
 70
    0
 10
0
 20
0
 30
0
  3
*Model_Space
  1

  0
ENDBLK
  5
21
330
1F
100
AcDbEntity
  8
0
100
AcDbBlockEnd
  0
BLOCK
  5
1C
330
1B
100
AcDbEntity
  8
0
100
AcDbBlockBegin
  2
*Paper_Space
 70
    0
 10
0
 20
0
 30
0
  3
*Paper_Space
  1

  0
ENDBLK
  5
1D
330
1F
100
AcDbEntity
  8
0
100
AcDbBlockEnd
  0
BLOCK
  5
BD
330
BC
100
AcDbEntity
  8
0
100
AcDbBlockBegin
  2
_CLOSEDBLANK
 70
    0
 10
0
 20
0
  3
_CLOSEDBLANK
  1

  0
LWPOLYLINE
  5
C5
100
AcDbEntity
  8
0
  6
ByBlock
 62
    0
370
   -1
100
AcDbPolyline
 90
    3
 70
    1
 43
0
 10
-1
 20
0.1643989837240254
 10
0
 20
0
 10
-1
 20
-0.1643989837240254
  0
ENDBLK
  5
BE
330
BC
100
AcDbEntity
  8
0
100
AcDbBlockEnd
  0
BLOCK
  5
C0
330
BF
100
AcDbEntity
  8
0
100
AcDbBlockBegin
  2
_ARCHTICK
 70
    0
 10
0
 20
0
  3
_ARCHTICK
  1

  0
LWPOLYLINE
  5
C6
100
AcDbEntity
  8
0
  6
ByBlock
 62
    0
370
   -1
100
AcDbPolyline
 90
    2
 70
    0
 43
0
 10
-0.5
 20
-0.5
 10
0.5
 20
0.5
  0
ENDBLK
  5
C1
330
BF
100
AcDbEntity
  8
0
100
AcDbBlockEnd
  0
BLOCK
  5
C3
330
C2
100
AcDbEntity
  8
0
100
AcDbBlockBegin
  2
_CLOSEDFILLED
 70
    0
 10
0
 20
0
  3
_CLOSEDFILLED
  1

  0
SOLID
  5
C7
100
AcDbEntity
  8
0
  6
ByBlock
 62
    0
370
   -1
100
AcDbTrace
 10
-1
 20
0.1643989837240254
 30
0
 11
0
 21
0
 31
0
 12
-1
 22
-0.1643989837240254
 32
0
 13
-1
 23
-0.1643989837240254
 33
0
  0
ENDBLK
  5
C4
330
C2
100
AcDbEntity
  8
0
100
AcDbBlockEnd
  0
ENDSEC
  0
SECTION
  2
ENTITIES
  0
TEXT
  5
C8
100
AcDbEntity
  8
ARQ_TEXTOS
  6
ByLayer
 62
  256
370
   -1
100
AcDbText
 10
6
 20
6.90525
 30
0
 40
0.23
  1
AMBIENTE
 50
0
 41
1
 51
0
  7
textstyle67
 71
    0
 72
    1
 11
6
 21
6.90525
 31
0
210
0
220
0
230
1
100
AcDbText
 73
    2
  0
TEXT
  5
C9
100
AcDbEntity
  8
ARQ_TEXTOS
  6
ByLayer
 62
  256
370
   -1
100
AcDbText
 10
6
 20
6.594749999999999
 30
0
 40
0.23
  1
SUPERIOR 1
 50
0
 41
1
 51
0
  7
textstyle69
 71
    0
 72
    1
 11
6
 21
6.594749999999999
 31
0
210
0
220
0
230
1
100
AcDbText
 73
    2
  0
TEXT
  5
CA
100
AcDbEntity
  8
ARQ_TEXTOS
  6
ByLayer
 62
  256
370
   -1
100
AcDbText
 10
12
 20
6.90525
 30
0
 40
0.23
  1
AMBIENTE
 50
0
 41
1
 51
0
  7
textstyle71
 71
    0
 72
    1
 11
12
 21
6.90525
 31
0
210
0
220
0
230
1
100
AcDbText
 73
    2
  0
TEXT
  5
CB
100
AcDbEntity
  8
ARQ_TEXTOS
  6
ByLayer
 62
  256
370
   -1
100
AcDbText
 10
12
 20
6.594749999999999
 30
0
 40
0.23
  1
SUPERIOR 2
 50
0
 41
1
 51
0
  7
textstyle51
 71
    0
 72
    1
 11
12
 21
6.594749999999999
 31
0
210
0
220
0
230
1
100
AcDbText
 73
    2
  0
TEXT
  5
CC
100
AcDbEntity
  8
ARQ_TEXTOS
  6
ByLayer
 62
  256
370
   -1
100
AcDbText
 10
9
 20
2.25
 30
0
 40
0.32
  1
GARAGE
 50
0
 41
1
 51
0
  7
textstyle31
 71
    0
 72
    1
 11
9
 21
2.25
 31
0
210
0
220
0
230
1
100
AcDbText
 73
    2
  0
LINE
  5
CD
100
AcDbEntity
  8
ARQ_MUROS
  6
ByLayer
 62
  256
370
   -1
100
AcDbLine
 10
0
 20
-0.075
 11
15
 21
-0.075
  0
LINE
  5
CE
100
AcDbEntity
  8
ARQ_MUROS
  6
ByLayer
 62
  256
370
   -1
100
AcDbLine
 10
0
 20
0.075
 11
15
 21
0.075
  0
LINE
  5
CF
100
AcDbEntity
  8
ARQ_MUROS
  6
ByLayer
 62
  256
370
   -1
100
AcDbLine
 10
14.925
 20
0
 11
14.925
 21
9
  0
LINE
  5
D0
100
AcDbEntity
  8
ARQ_MUROS
  6
ByLayer
 62
  256
370
   -1
100
AcDbLine
 10
15.075
 20
0
 11
15.075
 21
9
  0
LINE
  5
D1
100
AcDbEntity
  8
ARQ_MUROS
  6
ByLayer
 62
  256
370
   -1
100
AcDbLine
 10
15
 20
8.925000000000001
 11
0
 21
8.925000000000001
  0
LINE
  5
D2
100
AcDbEntity
  8
ARQ_MUROS
  6
ByLayer
 62
  256
370
   -1
100
AcDbLine
 10
15
 20
9.074999999999999
 11
0
 21
9.074999999999999
  0
LINE
  5
D3
100
AcDbEntity
  8
ARQ_MUROS
  6
ByLayer
 62
  256
370
   -1
100
AcDbLine
 10
-0.075
 20
9
 11
-0.075
 21
0
  0
LINE
  5
D4
100
AcDbEntity
  8
ARQ_MUROS
  6
ByLayer
 62
  256
370
   -1
100
AcDbLine
 10
0.075
 20
9
 11
0.075
 21
0
  0
LINE
  5
D5
100
AcDbEntity
  8
ARQ_MUROS
  6
ByLayer
 62
  256
370
   -1
100
AcDbLine
 10
0
 20
4.425
 11
1.7
 21
4.425
  0
LINE
  5
D6
100
AcDbEntity
  8
ARQ_MUROS
  6
ByLayer
 62
  256
370
   -1
100
AcDbLine
 10
0
 20
4.575
 11
1.7
 21
4.575
  0
LINE
  5
D7
100
AcDbEntity
  8
ARQ_MUROS
  6
ByLayer
 62
  256
370
   -1
100
AcDbLine
 10
2.5
 20
4.575
 11
3
 21
4.575
  0
LINE
  5
D8
100
AcDbEntity
  8
ARQ_MUROS
  6
ByLayer
 62
  256
370
   -1
100
AcDbLine
 10
4.1
 20
4.425
 11
11.8
 21
4.425
  0
LINE
  5
D9
100
AcDbEntity
  8
ARQ_MUROS
  6
ByLayer
 62
  256
370
   -1
100
AcDbLine
 10
4.1
 20
4.575
 11
11.8
 21
4.575
  0
LINE
  5
DA
100
AcDbEntity
  8
ARQ_MUROS
  6
ByLayer
 62
  256
370
   -1
100
AcDbLine
 10
12.7
 20
4.425
 11
15
 21
4.425
  0
LINE
  5
DB
100
AcDbEntity
  8
ARQ_MUROS
  6
ByLayer
 62
  256
370
   -1
100
AcDbLine
 10
12.7
 20
4.575
 11
15
 21
4.575
  0
LINE
  5
DC
100
AcDbEntity
  8
ARQ_MUROS
  6
ByLayer
 62
  256
370
   -1
100
AcDbLine
 10
2.925
 20
4.5
 11
2.925
 21
9
  0
LINE
  5
DD
100
AcDbEntity
  8
ARQ_MUROS
  6
ByLayer
 62
  256
370
   -1
100
AcDbLine
 10
3.075
 20
4.5
 11
3.075
 21
9
  0
LINE
  5
DE
100
AcDbEntity
  8
ARQ_MUROS
  6
ByLayer
 62
  256
370
   -1
100
AcDbLine
 10
8.925000000000001
 20
4.5
 11
8.925000000000001
 21
9
  0
LINE
  5
DF
100
AcDbEntity
  8
ARQ_MUROS
  6
ByLayer
 62
  256
370
   -1
100
AcDbLine
 10
9.074999999999999
 20
4.5
 11
9.074999999999999
 21
9
  0
LINE
  5
E0
100
AcDbEntity
  8
ARQ_MUROS
  6
ByLayer
 62
  256
370
   -1
100
AcDbLine
 10
0
 20
6.925
 11
3
 21
6.925
  0
LINE
  5
E1
100
AcDbEntity
  8
ARQ_MUROS
  6
ByLayer
 62
  256
370
   -1
100
AcDbLine
 10
0
 20
7.075
 11
3
 21
7.075
  0
LINE
  5
E2
100
AcDbEntity
  8
ARQ_MUROS
  6
ByLayer
 62
  256
370
   -1
100
AcDbLine
 10
1.325
 20
4.5
 11
1.325
 21
7
  0
LINE
  5
E3
100
AcDbEntity
  8
ARQ_MUROS
  6
ByLayer
 62
  256
370
   -1
100
AcDbLine
 10
1.475
 20
4.5
 11
1.475
 21
7
  0
LINE
  5
E4
100
AcDbEntity
  8
ARQ_PUERTAS
  6
ByLayer
 62
  256
370
   -1
100
AcDbLine
 10
2.5
 20
4.5
 11
2.5
 21
5.3
  0
ARC
  5
E5
100
AcDbEntity
  8
ARQ_PUERTAS
  6
ByLayer
 62
  256
370
   -1
100
AcDbCircle
 10
2.5
 20
4.5
 40
0.8
100
AcDbArc
 50
90
 51
180
  0
LINE
  5
E6
100
AcDbEntity
  8
ARQ_PUERTAS
  6
ByLayer
 62
  256
370
   -1
100
AcDbLine
 10
3.2
 20
4.5
 11
3.2
 21
5.4
  0
ARC
  5
E7
100
AcDbEntity
  8
ARQ_PUERTAS
  6
ByLayer
 62
  256
370
   -1
100
AcDbCircle
 10
3.2
 20
4.5
 40
0.9
100
AcDbArc
 50
0
 51
90
  0
LINE
  5
E8
100
AcDbEntity
  8
ARQ_PUERTAS
  6
ByLayer
 62
  256
370
   -1
100
AcDbLine
 10
11.8
 20
4.5
 11
11.8
 21
5.4
  0
ARC
  5
E9
100
AcDbEntity
  8
ARQ_PUERTAS
  6
ByLayer
 62
  256
370
   -1
100
AcDbCircle
 10
11.8
 20
4.5
 40
0.9
100
AcDbArc
 50
0
 51
90
  0
LINE
  5
EA
100
AcDbEntity
  8
ARQ_TRAMAS
  6
ByLayer
 62
  256
370
   -1
100
AcDbLine
 10
0.1499999999999999
 20
4.050000000000001
 11
0.4499999999999997
 21
4.350000000000001
  0
LINE
  5
EB
100
AcDbEntity
  8
ARQ_TRAMAS
  6
ByLayer
 62
  256
370
   -1
100
AcDbLine
 10
0.1499999999999999
 20
3.75
 11
0.7499999999999996
 21
4.350000000000001
  0
LINE
  5
EC
100
AcDbEntity
  8
ARQ_TRAMAS
  6
ByLayer
 62
  256
370
   -1
100
AcDbLine
 10
0.1499999999999999
 20
3.450000000000001
 11
1.049999999999999
 21
4.350000000000001
  0
LINE
  5
ED
100
AcDbEntity
  8
ARQ_TRAMAS
  6
ByLayer
 62
  256
370
   -1
100
AcDbLine
 10
0.1499999999999999
 20
3.150000000000001
 11
1.349999999999999
 21
4.350000000000001
  0
LINE
  5
EE
100
AcDbEntity
  8
ARQ_TRAMAS
  6
ByLayer
 62
  256
370
   -1
100
AcDbLine
 10
0.1499999999999999
 20
2.850000000000001
 11
1.649999999999999
 21
4.350000000000001
  0
LINE
  5
EF
100
AcDbEntity
  8
ARQ_TRAMAS
  6
ByLayer
 62
  256
370
   -1
100
AcDbLine
 10
0.1499999999999999
 20
2.550000000000001
 11
1.949999999999999
 21
4.350000000000001
  0
LINE
  5
F0
100
AcDbEntity
  8
ARQ_TRAMAS
  6
ByLayer
 62
  256
370
   -1
100
AcDbLine
 10
0.1499999999999999
 20
2.250000000000001
 11
2.249999999999999
 21
4.350000000000001
  0
LINE
  5
F1
100
AcDbEntity
  8
ARQ_TRAMAS
  6
ByLayer
 62
  256
370
   -1
100
AcDbLine
 10
0.1499999999999999
 20
1.950000000000001
 11
2.549999999999999
 21
4.350000000000001
  0
LINE
  5
F2
100
AcDbEntity
  8
ARQ_TRAMAS
  6
ByLayer
 62
  256
370
   -1
100
AcDbLine
 10
0.1499999999999999
 20
1.650000000000001
 11
2.849999999999999
 21
4.350000000000001
  0
LINE
  5
F3
100
AcDbEntity
  8
ARQ_TRAMAS
  6
ByLayer
 62
  256
370
   -1
100
AcDbLine
 10
0.1499999999999999
 20
1.350000000000001
 11
2.85
 21
4.050000000000002
  0
LINE
  5
F4
100
AcDbEntity
  8
ARQ_TRAMAS
  6
ByLayer
 62
  256
370
   -1
100
AcDbLine
 10
0.15
 20
1.050000000000001
 11
2.85
 21
3.750000000000001
  0
LINE
  5
F5
100
AcDbEntity
  8
ARQ_TRAMAS
  6
ByLayer
 62
  256
370
   -1
100
AcDbLine
 10
0.15
 20
0.7500000000000012
 11
2.850000000000001
 21
3.450000000000002
  0
LINE
  5
F6
100
AcDbEntity
  8
ARQ_TRAMAS
  6
ByLayer
 62
  256
370
   -1
100
AcDbLine
 10
0.15
 20
0.4500000000000012
 11
2.85
 21
3.150000000000001
  0
LINE
  5
F7
100
AcDbEntity
  8
ARQ_TRAMAS
  6
ByLayer
 62
  256
370
   -1
100
AcDbLine
 10
0.15
 20
0.1500000000000012
 11
2.85
 21
2.850000000000001
  0
LINE
  5
F8
100
AcDbEntity
  8
ARQ_TRAMAS
  6
ByLayer
 62
  256
370
   -1
100
AcDbLine
 10
0.4499999999999987
 20
0.15
 11
2.85
 21
2.550000000000001
  0
LINE
  5
F9
100
AcDbEntity
  8
ARQ_TRAMAS
  6
ByLayer
 62
  256
370
   -1
100
AcDbLine
 10
0.7499999999999988
 20
0.15
 11
2.85
 21
2.250000000000001
  0
LINE
  5
FA
100
AcDbEntity
  8
ARQ_TRAMAS
  6
ByLayer
 62
  256
370
   -1
100
AcDbLine
 10
1.049999999999999
 20
0.15
 11
2.85
 21
1.950000000000001
  0
LINE
  5
FB
100
AcDbEntity
  8
ARQ_TRAMAS
  6
ByLayer
 62
  256
370
   -1
100
AcDbLine
 10
1.349999999999999
 20
0.15
 11
2.85
 21
1.650000000000001
  0
LINE
  5
FC
100
AcDbEntity
  8
ARQ_TRAMAS
  6
ByLayer
 62
  256
370
   -1
100
AcDbLine
 10
1.649999999999999
 20
0.15
 11
2.85
 21
1.350000000000001
  0
LINE
  5
FD
100
AcDbEntity
  8
ARQ_TRAMAS
  6
ByLayer
 62
  256
370
   -1
100
AcDbLine
 10
1.949999999999999
 20
0.15
 11
2.85
 21
1.050000000000001
  0
LINE
  5
FE
100
AcDbEntity
  8
ARQ_TRAMAS
  6
ByLayer
 62
  256
370
   -1
100
AcDbLine
 10
2.249999999999999
 20
0.15
 11
2.85
 21
0.7500000000000014
  0
LINE
  5
FF
100
AcDbEntity
  8
ARQ_TRAMAS
  6
ByLayer
 62
  256
370
   -1
100
AcDbLine
 10
2.549999999999998
 20
0.15
 11
2.85
 21
0.4500000000000016
  0
LINE
  5
100
100
AcDbEntity
  8
ARQ_TRAMAS
  6
ByLayer
 62
  256
370
   -1
100
AcDbLine
 10
2.849999999999998
 20
0.15
 11
2.85
 21
0.1500000000000018
  0
LINE
  5
101
100
AcDbEntity
  8
ARQ_ESCALERAS
  6
ByLayer
 62
  256
370
   -1
100
AcDbLine
 10
0.25
 20
4.85
 11
1.35
 21
4.85
  0
LINE
  5
102
100
AcDbEntity
  8
ARQ_ESCALERAS
  6
ByLayer
 62
  256
370
   -1
100
AcDbLine
 10
0.25
 20
5.25
 11
1.35
 21
5.25
  0
LINE
  5
103
100
AcDbEntity
  8
ARQ_ESCALERAS
  6
ByLayer
 62
  256
370
   -1
100
AcDbLine
 10
0.25
 20
5.65
 11
1.35
 21
5.65
  0
LINE
  5
104
100
AcDbEntity
  8
ARQ_ESCALERAS
  6
ByLayer
 62
  256
370
   -1
100
AcDbLine
 10
0.25
 20
6.05
 11
1.35
 21
6.05
  0
LINE
  5
105
100
AcDbEntity
  8
ARQ_ESCALERAS
  6
ByLayer
 62
  256
370
   -1
100
AcDbLine
 10
0.25
 20
6.45
 11
1.35
 21
6.45
  0
LINE
  5
106
100
AcDbEntity
  8
ARQ_ESCALERAS
  6
ByLayer
 62
  256
370
   -1
100
AcDbLine
 10
0.25
 20
4.65
 11
0.25
 21
6.85
  0
LINE
  5
107
100
AcDbEntity
  8
ARQ_ESCALERAS
  6
ByLayer
 62
  256
370
   -1
100
AcDbLine
 10
1.35
 20
4.65
 11
1.35
 21
6.85
  0
LINE
  5
108
100
AcDbEntity
  8
ARQ_ESCALERAS
  6
ByLayer
 62
  256
370
   -1
100
AcDbLine
 10
0.72
 20
4.85
 11
0.72
 21
6.45
  0
LINE
  5
109
100
AcDbEntity
  8
ARQ_ESCALERAS
  6
ByLayer
 62
  256
370
   -1
100
AcDbLine
 10
0.62
 20
6.3
 11
0.72
 21
6.45
  0
LINE
  5
10A
100
AcDbEntity
  8
ARQ_ESCALERAS
  6
ByLayer
 62
  256
370
   -1
100
AcDbLine
 10
0.82
 20
6.3
 11
0.72
 21
6.45
  0
LINE
  5
10B
100
AcDbEntity
  8
ELEC_COTAS_REF
  6
ByLayer
 62
  256
370
   -1
100
AcDbLine
 10
0
 20
-1
 11
15
 21
-1
  0
LINE
  5
10C
100
AcDbEntity
  8
ELEC_COTAS_REF
  6
ByLayer
 62
  256
370
   -1
100
AcDbLine
 10
0
 20
0
 11
0
 21
-1.1
  0
LINE
  5
10D
100
AcDbEntity
  8
ELEC_COTAS_REF
  6
ByLayer
 62
  256
370
   -1
100
AcDbLine
 10
15
 20
0
 11
15
 21
-1.1
  0
LINE
  5
10E
100
AcDbEntity
  8
ELEC_COTAS_REF
  6
ByLayer
 62
  256
370
   -1
100
AcDbLine
 10
-0.12
 20
-1.12
 11
0.12
 21
-0.88
  0
LINE
  5
10F
100
AcDbEntity
  8
ELEC_COTAS_REF
  6
ByLayer
 62
  256
370
   -1
100
AcDbLine
 10
14.88
 20
-1.12
 11
15.12
 21
-0.88
  0
TEXT
  5
110
100
AcDbEntity
  8
ELEC_COTAS_REF
  6
ByLayer
 62
  256
370
   -1
100
AcDbText
 10
7.5
 20
-1.35
 30
0
 40
0.18
  1
ANCHO TOTAL: 15.00 m
 50
0
 41
1
 51
0
  7
textstyle21
 71
    0
 72
    1
 11
7.5
 21
-1.35
 31
0
210
0
220
0
230
1
100
AcDbText
 73
    2
  0
LINE
  5
111
100
AcDbEntity
  8
ELEC_COTAS_REF
  6
ByLayer
 62
  256
370
   -1
100
AcDbLine
 10
-1
 20
0
 11
-1
 21
9
  0
LINE
  5
112
100
AcDbEntity
  8
ELEC_COTAS_REF
  6
ByLayer
 62
  256
370
   -1
100
AcDbLine
 10
0
 20
0
 11
-1.1
 21
0
  0
LINE
  5
113
100
AcDbEntity
  8
ELEC_COTAS_REF
  6
ByLayer
 62
  256
370
   -1
100
AcDbLine
 10
0
 20
9
 11
-1.1
 21
9
  0
LINE
  5
114
100
AcDbEntity
  8
ELEC_COTAS_REF
  6
ByLayer
 62
  256
370
   -1
100
AcDbLine
 10
-1.12
 20
-0.12
 11
-0.88
 21
0.12
  0
LINE
  5
115
100
AcDbEntity
  8
ELEC_COTAS_REF
  6
ByLayer
 62
  256
370
   -1
100
AcDbLine
 10
-1.12
 20
8.880000000000001
 11
-0.88
 21
9.119999999999999
  0
TEXT
  5
116
100
AcDbEntity
  8
ELEC_COTAS_REF
  6
ByLayer
 62
  256
370
   -1
100
AcDbText
 10
-1.35
 20
4.5
 30
0
 40
0.18
  1
ALTO TOTAL: 9.00 m
 50
90
 41
1
 51
0
  7
textstyle1
 71
    0
 72
    1
 11
-1.35
 21
4.5
 31
0
210
0
220
0
230
1
100
AcDbText
 73
    2
  0
LINE
  5
117
100
AcDbEntity
  8
ELEC_COTAS_REF
  6
ByLayer
 62
  256
370
   -1
100
AcDbLine
 10
-1
 20
4.5
 11
-1
 21
9
  0
LINE
  5
118
100
AcDbEntity
  8
ELEC_COTAS_REF
  6
ByLayer
 62
  256
370
   -1
100
AcDbLine
 10
0
 20
4.5
 11
-1.1
 21
4.5
  0
LINE
  5
119
100
AcDbEntity
  8
ELEC_COTAS_REF
  6
ByLayer
 62
  256
370
   -1
100
AcDbLine
 10
0
 20
9
 11
-1.1
 21
9
  0
LINE
  5
11A
100
AcDbEntity
  8
ELEC_COTAS_REF
  6
ByLayer
 62
  256
370
   -1
100
AcDbLine
 10
-1.12
 20
4.38
 11
-0.88
 21
4.62
  0
LINE
  5
11B
100
AcDbEntity
  8
ELEC_COTAS_REF
  6
ByLayer
 62
  256
370
   -1
100
AcDbLine
 10
-1.12
 20
8.880000000000001
 11
-0.88
 21
9.119999999999999
  0
TEXT
  5
11C
100
AcDbEntity
  8
ELEC_COTAS_REF
  6
ByLayer
 62
  256
370
   -1
100
AcDbText
 10
-1.35
 20
6.75
 30
0
 40
0.18
  1
4.50 m
 50
90
 41
1
 51
0
  7
textstyle57
 71
    0
 72
    1
 11
-1.35
 21
6.75
 31
0
210
0
220
0
230
1
100
AcDbText
 73
    2
  0
TEXT
  5
11D
100
AcDbEntity
  8
ARQ_ANOTACIONES
  6
ByLayer
 62
  256
370
   -1
100
AcDbText
 10
1.5
 20
2.3215
 30
0
 40
0.18
  1
AREA SIN
 50
0
 41
1
 51
0
  7
textstyle7
 71
    0
 72
    1
 11
1.5
 21
2.3215
 31
0
210
0
220
0
230
1
100
AcDbText
 73
    2
  0
TEXT
  5
11E
100
AcDbEntity
  8
ARQ_ANOTACIONES
  6
ByLayer
 62
  256
370
   -1
100
AcDbText
 10
1.5
 20
2.0785
 30
0
 40
0.18
  1
TECHO
 50
0
 41
1
 51
0
  7
textstyle42
 71
    0
 72
    1
 11
1.5
 21
2.0785
 31
0
210
0
220
0
230
1
100
AcDbText
 73
    2
  0
LINE
  5
11F
100
AcDbEntity
  8
MARCO
  6
ByLayer
 62
  256
370
   -1
100
AcDbLine
 10
-1.2
 20
-1.2
 11
16.2
 21
-1.2
  0
LINE
  5
120
100
AcDbEntity
  8
MARCO
  6
ByLayer
 62
  256
370
   -1
100
AcDbLine
 10
16.2
 20
-1.2
 11
16.2
 21
10.2
  0
LINE
  5
121
100
AcDbEntity
  8
MARCO
  6
ByLayer
 62
  256
370
   -1
100
AcDbLine
 10
16.2
 20
10.2
 11
-1.2
 21
10.2
  0
LINE
  5
122
100
AcDbEntity
  8
MARCO
  6
ByLayer
 62
  256
370
   -1
100
AcDbLine
 10
-1.2
 20
10.2
 11
-1.2
 21
-1.2
  0
LINE
  5
123
100
AcDbEntity
  8
MARCO
  6
ByLayer
 62
  256
370
   -1
100
AcDbLine
 10
-1.12
 20
-1.12
 11
16.12
 21
-1.12
  0
LINE
  5
124
100
AcDbEntity
  8
MARCO
  6
ByLayer
 62
  256
370
   -1
100
AcDbLine
 10
16.12
 20
-1.12
 11
16.12
 21
10.12
  0
LINE
  5
125
100
AcDbEntity
  8
MARCO
  6
ByLayer
 62
  256
370
   -1
100
AcDbLine
 10
16.12
 20
10.12
 11
-1.12
 21
10.12
  0
LINE
  5
126
100
AcDbEntity
  8
MARCO
  6
ByLayer
 62
  256
370
   -1
100
AcDbLine
 10
-1.12
 20
10.12
 11
-1.12
 21
-1.12
  0
TEXT
  5
127
100
AcDbEntity
  8
ELEC_TEXTOS
  6
ByLayer
 62
  256
370
   -1
100
AcDbText
 10
7.5
 20
10.85
 30
0
 40
0.28
  1
PLANO ELECTRICO - PISO 1 V4
 50
0
 41
1
 51
0
  7
textstyle46
 71
    0
 72
    1
 11
7.5
 21
10.85
 31
0
210
0
220
0
230
1
100
AcDbText
 73
    2
  0
TEXT
  5
128
100
AcDbEntity
  8
ELEC_TEXTOS
  6
ByLayer
 62
  256
370
   -1
100
AcDbText
 10
7.5
 20
10.49
 30
0
 40
0.16
  1
Casa de Aquiles - primer nivel
 50
0
 41
1
 51
0
  7
textstyle24
 71
    0
 72
    1
 11
7.5
 21
10.49
 31
0
210
0
220
0
230
1
100
AcDbText
 73
    2
  0
LWPOLYLINE
  5
129
100
AcDbEntity
  8
ELEC_CANALIZACION
  6
DASHED
 62
  256
370
   -1
100
AcDbPolyline
 90
    2
 70
    0
 43
0
 10
15.45
 20
4.75
 10
14.35
 20
4.75
  0
LWPOLYLINE
  5
12A
100
AcDbEntity
  8
ELEC_CIRCUITO_C1
  6
DASHED
 62
  256
370
   -1
100
AcDbPolyline
 90
    3
 70
    0
 43
0
 10
14.35
 20
4.75
 10
14.35
 20
2.25
 10
11
 20
2.25
  0
LWPOLYLINE
  5
12B
100
AcDbEntity
  8
ELEC_CIRCUITO_C2
  6
DASHED
 62
  256
370
   -1
100
AcDbPolyline
 90
    6
 70
    0
 43
0
 10
14.35
 20
4.75
 10
14.35
 20
8
 10
14.35
 20
8.6
 10
10
 20
8.6
 10
8.199999999999999
 20
8.6
 10
4
 20
8.6
  0
LWPOLYLINE
  5
12C
100
AcDbEntity
  8
ELEC_CIRCUITO_C2
  6
DASHED
 62
  256
370
   -1
100
AcDbPolyline
 90
    5
 70
    0
 43
0
 10
14.35
 20
4.75
 10
14.35
 20
2
 10
14.35
 20
0.35
 10
12
 20
0.35
 10
8
 20
0.35
  0
LWPOLYLINE
  5
12D
100
AcDbEntity
  8
ELEC_CIRCUITO_C3
  6
DASHED
 62
  256
370
   -1
100
AcDbPolyline
 90
    5
 70
    0
 43
0
 10
14.35
 20
4.75
 10
10
 20
4.75
 10
8
 20
4.75
 10
4.05
 20
4.75
 10
4.05
 20
4.85
  0
TEXT
  5
12E
100
AcDbEntity
  8
ELEC_TEXTOS
  6
ByLayer
 62
  256
370
   -1
100
AcDbText
 10
3
 20
1.03
 30
0
 40
0.12
  1
C8 bomba exterior
 50
0
 41
1
 51
0
  7
textstyle72
 71
    0
 72
    1
 11
3
 21
1.03
 31
0
210
0
220
0
230
1
100
AcDbText
 73
    2
  0
LWPOLYLINE
  5
12F
100
AcDbEntity
  8
ELEC_CANALIZACION
  6
DASHED
 62
  256
370
   -1
100
AcDbPolyline
 90
    2
 70
    0
 43
0
 10
7
 20
0
 10
7
 20
4.5
  0
TEXT
  5
130
100
AcDbEntity
  8
ELEC_TEXTOS
  6
ByLayer
 62
  256
370
   -1
100
AcDbText
 10
7.25
 20
2.35
 30
0
 40
0.12
  1
Limite de techo
 50
0
 41
1
 51
0
  7
textstyle36
 71
    0
 72
    1
 11
7.25
 21
2.35
 31
0
210
0
220
0
230
1
100
AcDbText
 73
    2
  0
TEXT
  5
131
100
AcDbEntity
  8
ELEC_TEXTOS
  6
ByLayer
 62
  256
370
   -1
100
AcDbText
 10
0.9
 20
5.54
 30
0
 40
0.14
  1
C1
 50
0
 41
1
 51
0
  7
textstyle70
 71
    0
 72
    1
 11
0.9
 21
5.54
 31
0
210
0
220
0
230
1
100
AcDbText
 73
    2
  0
CIRCLE
  5
132
100
AcDbEntity
  8
ELEC_LUMINARIAS
  6
ByLayer
 62
  256
370
   -1
100
AcDbCircle
 10
6
 20
6.8
 40
0.1
  0
CIRCLE
  5
133
100
AcDbEntity
  8
ELEC_LUMINARIAS
  6
ByLayer
 62
  256
370
   -1
100
AcDbCircle
 10
6
 20
6.8
 40
0.02
  0
TEXT
  5
134
100
AcDbEntity
  8
ELEC_TEXTOS
  6
ByLayer
 62
  256
370
   -1
100
AcDbText
 10
6
 20
6.44
 30
0
 40
0.14
  1
C1
 50
0
 41
1
 51
0
  7
textstyle41
 71
    0
 72
    1
 11
6
 21
6.44
 31
0
210
0
220
0
230
1
100
AcDbText
 73
    2
  0
CIRCLE
  5
135
100
AcDbEntity
  8
ELEC_LUMINARIAS
  6
ByLayer
 62
  256
370
   -1
100
AcDbCircle
 10
12
 20
6.8
 40
0.1
  0
CIRCLE
  5
136
100
AcDbEntity
  8
ELEC_LUMINARIAS
  6
ByLayer
 62
  256
370
   -1
100
AcDbCircle
 10
12
 20
6.8
 40
0.02
  0
TEXT
  5
137
100
AcDbEntity
  8
ELEC_TEXTOS
  6
ByLayer
 62
  256
370
   -1
100
AcDbText
 10
12
 20
6.44
 30
0
 40
0.14
  1
C1
 50
0
 41
1
 51
0
  7
textstyle49
 71
    0
 72
    1
 11
12
 21
6.44
 31
0
210
0
220
0
230
1
100
AcDbText
 73
    2
  0
CIRCLE
  5
138
100
AcDbEntity
  8
ELEC_LUMINARIAS
  6
ByLayer
 62
  256
370
   -1
100
AcDbCircle
 10
11
 20
2.25
 40
0.1
  0
CIRCLE
  5
139
100
AcDbEntity
  8
ELEC_LUMINARIAS
  6
ByLayer
 62
  256
370
   -1
100
AcDbCircle
 10
11
 20
2.25
 40
0.02
  0
TEXT
  5
13A
100
AcDbEntity
  8
ELEC_TEXTOS
  6
ByLayer
 62
  256
370
   -1
100
AcDbText
 10
11
 20
1.89
 30
0
 40
0.14
  1
C1
 50
0
 41
1
 51
0
  7
textstyle26
 71
    0
 72
    1
 11
11
 21
1.89
 31
0
210
0
220
0
230
1
100
AcDbText
 73
    2
  0
TEXT
  5
13B
100
AcDbEntity
  8
ELEC_TEXTOS
  6
ByLayer
 62
  256
370
   -1
100
AcDbText
 10
1.25
 20
4.68
 30
0
 40
0.14
  1
C1
 50
0
 41
1
 51
0
  7
textstyle16
 71
    0
 72
    1
 11
1.25
 21
4.68
 31
0
210
0
220
0
230
1
100
AcDbText
 73
    2
  0
TEXT
  5
13C
100
AcDbEntity
  8
ELEC_TEXTOS
  6
ByLayer
 62
  256
370
   -1
100
AcDbText
 10
3.75
 20
4.68
 30
0
 40
0.14
  1
C1
 50
0
 41
1
 51
0
  7
textstyle28
 71
    0
 72
    1
 11
3.75
 21
4.68
 31
0
210
0
220
0
230
1
100
AcDbText
 73
    2
  0
CIRCLE
  5
13D
100
AcDbEntity
  8
ELEC_INTERRUPTORES
  6
ByLayer
 62
  256
370
   -1
100
AcDbCircle
 10
13.25
 20
5.05
 40
0.12
  0
LINE
  5
13E
100
AcDbEntity
  8
ELEC_INTERRUPTORES
  6
ByLayer
 62
  256
370
   -1
100
AcDbLine
 10
13.33
 20
5.13
 11
13.49
 21
5.29
  0
TEXT
  5
13F
100
AcDbEntity
  8
ELEC_INTERRUPTORES
  6
ByLayer
 62
  256
370
   -1
100
AcDbText
 10
13.18333333333333
 20
4.73
 30
0
 40
0.1733333333333333
  1
S
 50
0
 41
1
 51
0
  7
textstyle56
 71
    0
 72
    1
 11
13.18333333333333
 21
4.73
 31
0
210
0
220
0
230
1
100
AcDbText
 73
    2
  0
TEXT
  5
140
100
AcDbEntity
  8
ELEC_TEXTOS
  6
ByLayer
 62
  256
370
   -1
100
AcDbText
 10
13.25
 20
4.529999999999999
 30
0
 40
0.14
  1
C1
 50
0
 41
1
 51
0
  7
textstyle53
 71
    0
 72
    1
 11
13.25
 21
4.529999999999999
 31
0
210
0
220
0
230
1
100
AcDbText
 73
    2
  0
CIRCLE
  5
141
100
AcDbEntity
  8
ELEC_INTERRUPTORES
  6
ByLayer
 62
  256
370
   -1
100
AcDbCircle
 10
13.8
 20
4.25
 40
0.12
  0
LINE
  5
142
100
AcDbEntity
  8
ELEC_INTERRUPTORES
  6
ByLayer
 62
  256
370
   -1
100
AcDbLine
 10
13.88
 20
4.33
 11
14.04
 21
4.49
  0
TEXT
  5
143
100
AcDbEntity
  8
ELEC_INTERRUPTORES
  6
ByLayer
 62
  256
370
   -1
100
AcDbText
 10
13.73333333333333
 20
3.93
 30
0
 40
0.1733333333333333
  1
S
 50
0
 41
1
 51
0
  7
textstyle60
 71
    0
 72
    1
 11
13.73333333333333
 21
3.93
 31
0
210
0
220
0
230
1
100
AcDbText
 73
    2
  0
TEXT
  5
144
100
AcDbEntity
  8
ELEC_TEXTOS
  6
ByLayer
 62
  256
370
   -1
100
AcDbText
 10
13.8
 20
3.73
 30
0
 40
0.14
  1
C1
 50
0
 41
1
 51
0
  7
textstyle65
 71
    0
 72
    1
 11
13.8
 21
3.73
 31
0
210
0
220
0
230
1
100
AcDbText
 73
    2
  0
CIRCLE
  5
145
100
AcDbEntity
  8
ELEC_TOMACORRIENTES
  6
ByLayer
 62
  256
370
   -1
100
AcDbCircle
 10
12
 20
0.35
 40
0.13
  0
LINE
  5
146
100
AcDbEntity
  8
ELEC_TOMACORRIENTES
  6
ByLayer
 62
  256
370
   -1
100
AcDbLine
 10
11.91
 20
0.31
 11
12.09
 21
0.31
  0
LINE
  5
147
100
AcDbEntity
  8
ELEC_TOMACORRIENTES
  6
ByLayer
 62
  256
370
   -1
100
AcDbLine
 10
11.91
 20
0.39
 11
12.09
 21
0.39
  0
TEXT
  5
148
100
AcDbEntity
  8
ELEC_TOMACORRIENTES
  6
ByLayer
 62
  256
370
   -1
100
AcDbText
 10
12.22
 20
0.2
 30
0
 40
0.14
  1
T
 50
0
 41
1
 51
0
  7
textstyle34
 71
    0
 72
    1
 11
12.22
 21
0.2
 31
0
210
0
220
0
230
1
100
AcDbText
 73
    2
  0
TEXT
  5
149
100
AcDbEntity
  8
ELEC_TEXTOS
  6
ByLayer
 62
  256
370
   -1
100
AcDbText
 10
12
 20
-0.01
 30
0
 40
0.14
  1
C2
 50
0
 41
1
 51
0
  7
textstyle17
 71
    0
 72
    1
 11
12
 21
-0.01
 31
0
210
0
220
0
230
1
100
AcDbText
 73
    2
  0
CIRCLE
  5
14A
100
AcDbEntity
  8
ELEC_TOMACORRIENTES
  6
ByLayer
 62
  256
370
   -1
100
AcDbCircle
 10
8
 20
0.35
 40
0.13
  0
LINE
  5
14B
100
AcDbEntity
  8
ELEC_TOMACORRIENTES
  6
ByLayer
 62
  256
370
   -1
100
AcDbLine
 10
7.91
 20
0.31
 11
8.09
 21
0.31
  0
LINE
  5
14C
100
AcDbEntity
  8
ELEC_TOMACORRIENTES
  6
ByLayer
 62
  256
370
   -1
100
AcDbLine
 10
7.91
 20
0.39
 11
8.09
 21
0.39
  0
TEXT
  5
14D
100
AcDbEntity
  8
ELEC_TOMACORRIENTES
  6
ByLayer
 62
  256
370
   -1
100
AcDbText
 10
8.220000000000001
 20
0.2
 30
0
 40
0.14
  1
T
 50
0
 41
1
 51
0
  7
textstyle64
 71
    0
 72
    1
 11
8.220000000000001
 21
0.2
 31
0
210
0
220
0
230
1
100
AcDbText
 73
    2
  0
TEXT
  5
14E
100
AcDbEntity
  8
ELEC_TEXTOS
  6
ByLayer
 62
  256
370
   -1
100
AcDbText
 10
8
 20
-0.01
 30
0
 40
0.14
  1
C2
 50
0
 41
1
 51
0
  7
textstyle47
 71
    0
 72
    1
 11
8
 21
-0.01
 31
0
210
0
220
0
230
1
100
AcDbText
 73
    2
  0
CIRCLE
  5
14F
100
AcDbEntity
  8
ELEC_TOMACORRIENTES
  6
ByLayer
 62
  256
370
   -1
100
AcDbCircle
 10
14.35
 20
2
 40
0.13
  0
LINE
  5
150
100
AcDbEntity
  8
ELEC_TOMACORRIENTES
  6
ByLayer
 62
  256
370
   -1
100
AcDbLine
 10
14.26
 20
1.96
 11
14.44
 21
1.96
  0
LINE
  5
151
100
AcDbEntity
  8
ELEC_TOMACORRIENTES
  6
ByLayer
 62
  256
370
   -1
100
AcDbLine
 10
14.26
 20
2.04
 11
14.44
 21
2.04
  0
TEXT
  5
152
100
AcDbEntity
  8
ELEC_TOMACORRIENTES
  6
ByLayer
 62
  256
370
   -1
100
AcDbText
 10
14.57
 20
1.85
 30
0
 40
0.14
  1
T
 50
0
 41
1
 51
0
  7
textstyle43
 71
    0
 72
    1
 11
14.57
 21
1.85
 31
0
210
0
220
0
230
1
100
AcDbText
 73
    2
  0
TEXT
  5
153
100
AcDbEntity
  8
ELEC_TEXTOS
  6
ByLayer
 62
  256
370
   -1
100
AcDbText
 10
14.35
 20
1.64
 30
0
 40
0.14
  1
C2
 50
0
 41
1
 51
0
  7
textstyle30
 71
    0
 72
    1
 11
14.35
 21
1.64
 31
0
210
0
220
0
230
1
100
AcDbText
 73
    2
  0
CIRCLE
  5
154
100
AcDbEntity
  8
ELEC_TOMACORRIENTES
  6
ByLayer
 62
  256
370
   -1
100
AcDbCircle
 10
4
 20
8.6
 40
0.13
  0
LINE
  5
155
100
AcDbEntity
  8
ELEC_TOMACORRIENTES
  6
ByLayer
 62
  256
370
   -1
100
AcDbLine
 10
3.91
 20
8.56
 11
4.09
 21
8.56
  0
LINE
  5
156
100
AcDbEntity
  8
ELEC_TOMACORRIENTES
  6
ByLayer
 62
  256
370
   -1
100
AcDbLine
 10
3.91
 20
8.639999999999999
 11
4.09
 21
8.639999999999999
  0
TEXT
  5
157
100
AcDbEntity
  8
ELEC_TOMACORRIENTES
  6
ByLayer
 62
  256
370
   -1
100
AcDbText
 10
4.22
 20
8.449999999999999
 30
0
 40
0.14
  1
T
 50
0
 41
1
 51
0
  7
textstyle54
 71
    0
 72
    1
 11
4.22
 21
8.449999999999999
 31
0
210
0
220
0
230
1
100
AcDbText
 73
    2
  0
TEXT
  5
158
100
AcDbEntity
  8
ELEC_TEXTOS
  6
ByLayer
 62
  256
370
   -1
100
AcDbText
 10
4
 20
8.24
 30
0
 40
0.14
  1
C2
 50
0
 41
1
 51
0
  7
textstyle40
 71
    0
 72
    1
 11
4
 21
8.24
 31
0
210
0
220
0
230
1
100
AcDbText
 73
    2
  0
CIRCLE
  5
159
100
AcDbEntity
  8
ELEC_TOMACORRIENTES
  6
ByLayer
 62
  256
370
   -1
100
AcDbCircle
 10
8.199999999999999
 20
8.6
 40
0.13
  0
LINE
  5
15A
100
AcDbEntity
  8
ELEC_TOMACORRIENTES
  6
ByLayer
 62
  256
370
   -1
100
AcDbLine
 10
8.109999999999999
 20
8.56
 11
8.289999999999999
 21
8.56
  0
LINE
  5
15B
100
AcDbEntity
  8
ELEC_TOMACORRIENTES
  6
ByLayer
 62
  256
370
   -1
100
AcDbLine
 10
8.109999999999999
 20
8.639999999999999
 11
8.289999999999999
 21
8.639999999999999
  0
TEXT
  5
15C
100
AcDbEntity
  8
ELEC_TOMACORRIENTES
  6
ByLayer
 62
  256
370
   -1
100
AcDbText
 10
8.42
 20
8.449999999999999
 30
0
 40
0.14
  1
T
 50
0
 41
1
 51
0
  7
textstyle12
 71
    0
 72
    1
 11
8.42
 21
8.449999999999999
 31
0
210
0
220
0
230
1
100
AcDbText
 73
    2
  0
TEXT
  5
15D
100
AcDbEntity
  8
ELEC_TEXTOS
  6
ByLayer
 62
  256
370
   -1
100
AcDbText
 10
8.199999999999999
 20
8.24
 30
0
 40
0.14
  1
C2
 50
0
 41
1
 51
0
  7
textstyle45
 71
    0
 72
    1
 11
8.199999999999999
 21
8.24
 31
0
210
0
220
0
230
1
100
AcDbText
 73
    2
  0
CIRCLE
  5
15E
100
AcDbEntity
  8
ELEC_TOMACORRIENTES
  6
ByLayer
 62
  256
370
   -1
100
AcDbCircle
 10
10
 20
8.6
 40
0.13
  0
LINE
  5
15F
100
AcDbEntity
  8
ELEC_TOMACORRIENTES
  6
ByLayer
 62
  256
370
   -1
100
AcDbLine
 10
9.91
 20
8.56
 11
10.09
 21
8.56
  0
LINE
  5
160
100
AcDbEntity
  8
ELEC_TOMACORRIENTES
  6
ByLayer
 62
  256
370
   -1
100
AcDbLine
 10
9.91
 20
8.639999999999999
 11
10.09
 21
8.639999999999999
  0
TEXT
  5
161
100
AcDbEntity
  8
ELEC_TOMACORRIENTES
  6
ByLayer
 62
  256
370
   -1
100
AcDbText
 10
10.22
 20
8.449999999999999
 30
0
 40
0.14
  1
T
 50
0
 41
1
 51
0
  7
textstyle2
 71
    0
 72
    1
 11
10.22
 21
8.449999999999999
 31
0
210
0
220
0
230
1
100
AcDbText
 73
    2
  0
TEXT
  5
162
100
AcDbEntity
  8
ELEC_TEXTOS
  6
ByLayer
 62
  256
370
   -1
100
AcDbText
 10
10
 20
8.24
 30
0
 40
0.14
  1
C2
 50
0
 41
1
 51
0
  7
textstyle68
 71
    0
 72
    1
 11
10
 21
8.24
 31
0
210
0
220
0
230
1
100
AcDbText
 73
    2
  0
CIRCLE
  5
163
100
AcDbEntity
  8
ELEC_TOMACORRIENTES
  6
ByLayer
 62
  256
370
   -1
100
AcDbCircle
 10
14.35
 20
8
 40
0.13
  0
LINE
  5
164
100
AcDbEntity
  8
ELEC_TOMACORRIENTES
  6
ByLayer
 62
  256
370
   -1
100
AcDbLine
 10
14.26
 20
7.96
 11
14.44
 21
7.96
  0
LINE
  5
165
100
AcDbEntity
  8
ELEC_TOMACORRIENTES
  6
ByLayer
 62
  256
370
   -1
100
AcDbLine
 10
14.26
 20
8.039999999999999
 11
14.44
 21
8.039999999999999
  0
TEXT
  5
166
100
AcDbEntity
  8
ELEC_TOMACORRIENTES
  6
ByLayer
 62
  256
370
   -1
100
AcDbText
 10
14.57
 20
7.85
 30
0
 40
0.14
  1
T
 50
0
 41
1
 51
0
  7
textstyle18
 71
    0
 72
    1
 11
14.57
 21
7.85
 31
0
210
0
220
0
230
1
100
AcDbText
 73
    2
  0
TEXT
  5
167
100
AcDbEntity
  8
ELEC_TEXTOS
  6
ByLayer
 62
  256
370
   -1
100
AcDbText
 10
14.35
 20
7.64
 30
0
 40
0.14
  1
C2
 50
0
 41
1
 51
0
  7
textstyle14
 71
    0
 72
    1
 11
14.35
 21
7.64
 31
0
210
0
220
0
230
1
100
AcDbText
 73
    2
  0
CIRCLE
  5
168
100
AcDbEntity
  8
ELEC_TOMACORRIENTES
  6
ByLayer
 62
  256
370
   -1
100
AcDbCircle
 10
4.05
 20
4.85
 40
0.13
  0
LINE
  5
169
100
AcDbEntity
  8
ELEC_TOMACORRIENTES
  6
ByLayer
 62
  256
370
   -1
100
AcDbLine
 10
3.96
 20
4.8
 11
4.14
 21
4.8
  0
LINE
  5
16A
100
AcDbEntity
  8
ELEC_TOMACORRIENTES
  6
ByLayer
 62
  256
370
   -1
100
AcDbLine
 10
3.96
 20
4.85
 11
4.14
 21
4.85
  0
LINE
  5
16B
100
AcDbEntity
  8
ELEC_TOMACORRIENTES
  6
ByLayer
 62
  256
370
   -1
100
AcDbLine
 10
3.96
 20
4.899999999999999
 11
4.14
 21
4.899999999999999
  0
TEXT
  5
16C
100
AcDbEntity
  8
ELEC_TOMACORRIENTES
  6
ByLayer
 62
  256
370
   -1
100
AcDbText
 10
4.27
 20
4.699999999999999
 30
0
 40
0.14
  1
C
 50
0
 41
1
 51
0
  7
textstyle38
 71
    0
 72
    1
 11
4.27
 21
4.699999999999999
 31
0
210
0
220
0
230
1
100
AcDbText
 73
    2
  0
TEXT
  5
16D
100
AcDbEntity
  8
ELEC_TEXTOS
  6
ByLayer
 62
  256
370
   -1
100
AcDbText
 10
4.5
 20
4.294499999999999
 30
0
 40
0.14
  1
C3
 50
0
 41
1
 51
0
  7
textstyle3
 71
    0
 72
    1
 11
4.5
 21
4.294499999999999
 31
0
210
0
220
0
230
1
100
AcDbText
 73
    2
  0
TEXT
  5
16E
100
AcDbEntity
  8
ELEC_TEXTOS
  6
ByLayer
 62
  256
370
   -1
100
AcDbText
 10
4.5
 20
4.105499999999999
 30
0
 40
0.14
  1
cocina
 50
0
 41
1
 51
0
  7
textstyle63
 71
    0
 72
    1
 11
4.5
 21
4.105499999999999
 31
0
210
0
220
0
230
1
100
AcDbText
 73
    2
  0
LWPOLYLINE
  5
16F
100
AcDbEntity
  8
ELEC_TABLERO
  6
ByLayer
 62
  256
370
   -1
100
AcDbPolyline
 90
    5
 70
    0
 43
0
 10
14.03333333333333
 20
4.56
 10
14.66666666666667
 20
4.56
 10
14.66666666666667
 20
4.94
 10
14.03333333333333
 20
4.94
 10
14.03333333333333
 20
4.56
  0
LINE
  5
170
100
AcDbEntity
  8
ELEC_TABLERO
  6
ByLayer
 62
  256
370
   -1
100
AcDbLine
 10
14.03333333333333
 20
4.56
 11
14.66666666666667
 21
4.94
  0
LINE
  5
171
100
AcDbEntity
  8
ELEC_TABLERO
  6
ByLayer
 62
  256
370
   -1
100
AcDbLine
 10
14.03333333333333
 20
4.56
 11
14.66666666666667
 21
4.56
  0
LINE
  5
172
100
AcDbEntity
  8
ELEC_TABLERO
  6
ByLayer
 62
  256
370
   -1
100
AcDbLine
 10
14.66666666666667
 20
4.56
 11
14.66666666666667
 21
4.94
  0
LINE
  5
173
100
AcDbEntity
  8
ELEC_TABLERO
  6
ByLayer
 62
  256
370
   -1
100
AcDbLine
 10
14.16
 20
4.56
 11
14.66666666666667
 21
4.864
  0
LINE
  5
174
100
AcDbEntity
  8
ELEC_TABLERO
  6
ByLayer
 62
  256
370
   -1
100
AcDbLine
 10
14.28666666666667
 20
4.56
 11
14.66666666666667
 21
4.788
  0
LINE
  5
175
100
AcDbEntity
  8
ELEC_TABLERO
  6
ByLayer
 62
  256
370
   -1
100
AcDbLine
 10
14.41333333333333
 20
4.56
 11
14.66666666666667
 21
4.712
  0
LINE
  5
176
100
AcDbEntity
  8
ELEC_TABLERO
  6
ByLayer
 62
  256
370
   -1
100
AcDbLine
 10
14.54
 20
4.56
 11
14.66666666666667
 21
4.636
  0
TEXT
  5
177
100
AcDbEntity
  8
ELEC_TEXTOS
  6
ByLayer
 62
  256
370
   -1
100
AcDbText
 10
14.35
 20
4.75
 30
0
 40
0.16
  1
TG
 50
0
 41
1
 51
0
  7
textstyle48
 71
    0
 72
    1
 11
14.35
 21
4.75
 31
0
210
0
220
0
230
1
100
AcDbText
 73
    2
  0
CIRCLE
  5
178
100
AcDbEntity
  8
ELEC_MEDIDOR
  6
ByLayer
 62
  256
370
   -1
100
AcDbCircle
 10
15.45
 20
4.75
 40
0.22
  0
TEXT
  5
179
100
AcDbEntity
  8
ELEC_TEXTOS
  6
ByLayer
 62
  256
370
   -1
100
AcDbText
 10
15.45
 20
4.75
 30
0
 40
0.16
  1
M
 50
0
 41
1
 51
0
  7
textstyle11
 71
    0
 72
    1
 11
15.45
 21
4.75
 31
0
210
0
220
0
230
1
100
AcDbText
 73
    2
  0
CIRCLE
  5
17A
100
AcDbEntity
  8
ELEC_TOMACORRIENTES
  6
ByLayer
 62
  256
370
   -1
100
AcDbCircle
 10
-0.55
 20
1
 40
0.18
  0
TEXT
  5
17B
100
AcDbEntity
  8
ELEC_TEXTOS
  6
ByLayer
 62
  256
370
   -1
100
AcDbText
 10
-0.55
 20
1
 30
0
 40
0.14
  1
B
 50
0
 41
1
 51
0
  7
textstyle32
 71
    0
 72
    1
 11
-0.55
 21
1
 31
0
210
0
220
0
230
1
100
AcDbText
 73
    2
  0
TEXT
  5
17C
100
AcDbEntity
  8
ELEC_TEXTOS
  6
ByLayer
 62
  256
370
   -1
100
AcDbText
 10
-0.2000000000000001
 20
0.7
 30
0
 40
0.14
  1
C8
 50
0
 41
1
 51
0
  7
textstyle66
 71
    0
 72
    1
 11
-0.2000000000000001
 21
0.7
 31
0
210
0
220
0
230
1
100
AcDbText
 73
    2
  0
CIRCLE
  5
17D
100
AcDbEntity
  8
ELEC_INTERRUPTORES
  6
ByLayer
 62
  256
370
   -1
100
AcDbCircle
 10
1.711708436283593
 20
5.649613859685381
 40
0.12
  0
LINE
  5
17E
100
AcDbEntity
  8
ELEC_INTERRUPTORES
  6
ByLayer
 62
  256
370
   -1
100
AcDbLine
 10
1.791708436283593
 20
5.729613859685381
 11
1.951708436283593
 21
5.889613859685381
  0
TEXT
  5
17F
100
AcDbEntity
  8
ELEC_INTERRUPTORES
  6
ByLayer
 62
  256
370
   -1
100
AcDbText
 10
1.645041769616926
 20
5.329613859685381
 30
0
 40
0.1733333333333333
  1
S3
 50
0
 41
1
 51
0
  7
textstyle29
 71
    0
 72
    1
 11
1.645041769616926
 21
5.329613859685381
 31
0
210
0
220
0
230
1
100
AcDbText
 73
    2
  0
CIRCLE
  5
180
100
AcDbEntity
  8
ELEC_LUMINARIAS
  6
ByLayer
 62
  256
370
   -1
100
AcDbCircle
 10
1.656114343620151
 20
8.141677259929606
 40
0.1
  0
CIRCLE
  5
181
100
AcDbEntity
  8
ELEC_LUMINARIAS
  6
ByLayer
 62
  256
370
   -1
100
AcDbCircle
 10
1.656114343620151
 20
8.141677259929606
 40
0.02
  0
TEXT
  5
182
100
AcDbEntity
  8
ARQ_TEXTOS
  6
ByLayer
 62
  256
370
   -1
100
AcDbText
 10
0.9690286296468393
 20
7.304037678148291
 30
0
 40
0.23
  1
ESCALERA
 50
0
 41
1
 51
0
  7
textstyle9
 71
    0
 72
    1
 11
0.9690286296468393
 21
7.304037678148291
 31
0
210
0
220
0
230
1
100
AcDbText
 73
    2
  0
LWPOLYLINE
  5
183
100
AcDbEntity
  8
ELEC_CIRCUITO_C1
  6
DASHED
 62
  256
370
   -1
100
AcDbPolyline
 90
    6
 70
    0
 43
0
 10
14.35
 20
4.75
 10
14.35
 20
6.8
 10
12
 20
6.8
 10
6
 20
6.8
 10
1.657153659115553
 20
6.821779786911265
 10
1.656509702013543
 20
8.14176864870679
  0
CIRCLE
  5
184
100
AcDbEntity
  8
ELEC_INTERRUPTORES
  6
ByLayer
 62
  256
370
   -1
100
AcDbCircle
 10
4.768847547693791
 20
5.055757211863074
 40
0.12
  0
LINE
  5
185
100
AcDbEntity
  8
ELEC_INTERRUPTORES
  6
ByLayer
 62
  256
370
   -1
100
AcDbLine
 10
4.848847547693791
 20
5.135757211863074
 11
5.008847547693791
 21
5.295757211863074
  0
TEXT
  5
186
100
AcDbEntity
  8
ELEC_INTERRUPTORES
  6
ByLayer
 62
  256
370
   -1
100
AcDbText
 10
4.702180881027124
 20
4.735757211863073
 30
0
 40
0.1733333333333333
  1
S
 50
0
 41
1
 51
0
  7
textstyle27
 71
    0
 72
    1
 11
4.702180881027124
 21
4.735757211863073
 31
0
210
0
220
0
230
1
100
AcDbText
 73
    2
  0
LINE
  5
187
100
AcDbEntity
  8
ARQ_MUROS
  6
ByLayer
 62
  256
370
   -1
100
AcDbLine
 10
2.5
 20
4.425
 11
3.199479650959717
 21
4.425
  0
LWPOLYLINE
  5
188
100
AcDbEntity
  8
ELEC_LEYENDA
  6
ByLayer
 62
  256
370
   -1
100
AcDbPolyline
 90
    5
 70
    0
 43
0
 10
16.65
 20
9.35
 10
22.05
 20
9.35
 10
22.05
 20
2.199999999999999
 10
16.65
 20
2.199999999999999
 10
16.65
 20
9.35
  0
LINE
  5
189
100
AcDbEntity
  8
ELEC_LEYENDA
  6
ByLayer
 62
  256
370
   -1
100
AcDbLine
 10
16.65
 20
8.869999999999999
 11
22.05
 21
8.869999999999999
  0
TEXT
  5
18A
100
AcDbEntity
  8
ELEC_TEXTOS
  6
ByLayer
 62
  256
370
   -1
100
AcDbText
 10
19.35
 20
9.07
 30
0
 40
0.18
  1
LEYENDA ELECTRICA
 50
0
 41
1
 51
0
  7
textstyle58
 71
    0
 72
    1
 11
19.35
 21
9.07
 31
0
210
0
220
0
230
1
100
AcDbText
 73
    2
  0
TEXT
  5
18B
100
AcDbEntity
  8
ELEC_TEXTOS
  6
ByLayer
 62
  256
370
   -1
100
AcDbText
 10
16.87
 20
8.629999999999999
 30
0
 40
0.115
  1
Simbolos:
 50
0
 41
1
 51
0
  7
textstyle4
 71
    0
 11
16.87
 21
8.629999999999999
 31
0
210
0
220
0
230
1
100
AcDbText
 73
    2
  0
CIRCLE
  5
18C
100
AcDbEntity
  8
ELEC_LUMINARIAS
  6
ByLayer
 62
  256
370
   -1
100
AcDbCircle
 10
17.03
 20
8.33
 40
0.105
  0
CIRCLE
  5
18D
100
AcDbEntity
  8
ELEC_LUMINARIAS
  6
ByLayer
 62
  256
370
   -1
100
AcDbCircle
 10
17.03
 20
8.33
 40
0.018
  0
TEXT
  5
18E
100
AcDbEntity
  8
ELEC_TEXTOS
  6
ByLayer
 62
  256
370
   -1
100
AcDbText
 10
17.43
 20
8.33
 30
0
 40
0.105
  1
Soquete para foco
 50
0
 41
1
 51
0
  7
textstyle52
 71
    0
 11
17.43
 21
8.33
 31
0
210
0
220
0
230
1
100
AcDbText
 73
    2
  0
CIRCLE
  5
18F
100
AcDbEntity
  8
ELEC_INTERRUPTORES
  6
ByLayer
 62
  256
370
   -1
100
AcDbCircle
 10
17.03
 20
7.97
 40
0.1
  0
LINE
  5
190
100
AcDbEntity
  8
ELEC_INTERRUPTORES
  6
ByLayer
 62
  256
370
   -1
100
AcDbLine
 10
17.09
 20
8.029999999999999
 11
17.23
 21
8.17
  0
TEXT
  5
191
100
AcDbEntity
  8
ELEC_INTERRUPTORES
  6
ByLayer
 62
  256
370
   -1
100
AcDbText
 10
16.95
 20
7.739999999999999
 30
0
 40
0.12
  1
S
 50
0
 41
1
 51
0
  7
textstyle73
 71
    0
 72
    1
 11
16.95
 21
7.739999999999999
 31
0
210
0
220
0
230
1
100
AcDbText
 73
    2
  0
TEXT
  5
192
100
AcDbEntity
  8
ELEC_TEXTOS
  6
ByLayer
 62
  256
370
   -1
100
AcDbText
 10
17.43
 20
7.97
 30
0
 40
0.105
  1
Interruptor simple
 50
0
 41
1
 51
0
  7
textstyle55
 71
    0
 11
17.43
 21
7.97
 31
0
210
0
220
0
230
1
100
AcDbText
 73
    2
  0
CIRCLE
  5
193
100
AcDbEntity
  8
ELEC_TOMACORRIENTES
  6
ByLayer
 62
  256
370
   -1
100
AcDbCircle
 10
17.03
 20
7.61
 40
0.11
  0
LINE
  5
194
100
AcDbEntity
  8
ELEC_TOMACORRIENTES
  6
ByLayer
 62
  256
370
   -1
100
AcDbLine
 10
16.95
 20
7.575
 11
17.11
 21
7.575
  0
LINE
  5
195
100
AcDbEntity
  8
ELEC_TOMACORRIENTES
  6
ByLayer
 62
  256
370
   -1
100
AcDbLine
 10
16.95
 20
7.645
 11
17.11
 21
7.645
  0
TEXT
  5
196
100
AcDbEntity
  8
ELEC_TOMACORRIENTES
  6
ByLayer
 62
  256
370
   -1
100
AcDbText
 10
17.23
 20
7.48
 30
0
 40
0.12
  1
T
 50
0
 41
1
 51
0
  7
textstyle50
 71
    0
 72
    1
 11
17.23
 21
7.48
 31
0
210
0
220
0
230
1
100
AcDbText
 73
    2
  0
TEXT
  5
197
100
AcDbEntity
  8
ELEC_TEXTOS
  6
ByLayer
 62
  256
370
   -1
100
AcDbText
 10
17.43
 20
7.61
 30
0
 40
0.105
  1
Tomacorriente con tierra
 50
0
 41
1
 51
0
  7
textstyle62
 71
    0
 11
17.43
 21
7.61
 31
0
210
0
220
0
230
1
100
AcDbText
 73
    2
  0
CIRCLE
  5
198
100
AcDbEntity
  8
ELEC_TOMACORRIENTES
  6
ByLayer
 62
  256
370
   -1
100
AcDbCircle
 10
17.03
 20
7.25
 40
0.11
  0
LINE
  5
199
100
AcDbEntity
  8
ELEC_TOMACORRIENTES
  6
ByLayer
 62
  256
370
   -1
100
AcDbLine
 10
16.95
 20
7.2
 11
17.11
 21
7.2
  0
LINE
  5
19A
100
AcDbEntity
  8
ELEC_TOMACORRIENTES
  6
ByLayer
 62
  256
370
   -1
100
AcDbLine
 10
16.95
 20
7.25
 11
17.11
 21
7.25
  0
LINE
  5
19B
100
AcDbEntity
  8
ELEC_TOMACORRIENTES
  6
ByLayer
 62
  256
370
   -1
100
AcDbLine
 10
16.95
 20
7.3
 11
17.11
 21
7.3
  0
TEXT
  5
19C
100
AcDbEntity
  8
ELEC_TOMACORRIENTES
  6
ByLayer
 62
  256
370
   -1
100
AcDbText
 10
17.23
 20
7.12
 30
0
 40
0.12
  1
C
 50
0
 41
1
 51
0
  7
textstyle37
 71
    0
 72
    1
 11
17.23
 21
7.12
 31
0
210
0
220
0
230
1
100
AcDbText
 73
    2
  0
TEXT
  5
19D
100
AcDbEntity
  8
ELEC_TEXTOS
  6
ByLayer
 62
  256
370
   -1
100
AcDbText
 10
17.43
 20
7.25
 30
0
 40
0.105
  1
Toma especial cocina
 50
0
 41
1
 51
0
  7
textstyle33
 71
    0
 11
17.43
 21
7.25
 31
0
210
0
220
0
230
1
100
AcDbText
 73
    2
  0
LWPOLYLINE
  5
19E
100
AcDbEntity
  8
ELEC_TABLERO
  6
ByLayer
 62
  256
370
   -1
100
AcDbPolyline
 90
    5
 70
    0
 43
0
 10
16.86
 20
6.790000000000001
 10
17.2
 20
6.790000000000001
 10
17.2
 20
6.99
 10
16.86
 20
6.99
 10
16.86
 20
6.790000000000001
  0
LINE
  5
19F
100
AcDbEntity
  8
ELEC_TABLERO
  6
ByLayer
 62
  256
370
   -1
100
AcDbLine
 10
16.86
 20
6.790000000000001
 11
17.2
 21
6.99
  0
LINE
  5
1A0
100
AcDbEntity
  8
ELEC_TABLERO
  6
ByLayer
 62
  256
370
   -1
100
AcDbLine
 10
16.95
 20
6.790000000000001
 11
17.2
 21
6.94
  0
TEXT
  5
1A1
100
AcDbEntity
  8
ELEC_TEXTOS
  6
ByLayer
 62
  256
370
   -1
100
AcDbText
 10
17.03
 20
6.890000000000001
 30
0
 40
0.105
  1
TG
 50
0
 41
1
 51
0
  7
textstyle25
 71
    0
 72
    1
 11
17.03
 21
6.890000000000001
 31
0
210
0
220
0
230
1
100
AcDbText
 73
    2
  0
TEXT
  5
1A2
100
AcDbEntity
  8
ELEC_TEXTOS
  6
ByLayer
 62
  256
370
   -1
100
AcDbText
 10
17.43
 20
6.890000000000001
 30
0
 40
0.105
  1
Tablero general TG
 50
0
 41
1
 51
0
  7
textstyle59
 71
    0
 11
17.43
 21
6.890000000000001
 31
0
210
0
220
0
230
1
100
AcDbText
 73
    2
  0
CIRCLE
  5
1A3
100
AcDbEntity
  8
ELEC_MEDIDOR
  6
ByLayer
 62
  256
370
   -1
100
AcDbCircle
 10
17.03
 20
6.53
 40
0.12
  0
TEXT
  5
1A4
100
AcDbEntity
  8
ELEC_TEXTOS
  6
ByLayer
 62
  256
370
   -1
100
AcDbText
 10
17.03
 20
6.53
 30
0
 40
0.105
  1
M
 50
0
 41
1
 51
0
  7
textstyle39
 71
    0
 72
    1
 11
17.03
 21
6.53
 31
0
210
0
220
0
230
1
100
AcDbText
 73
    2
  0
TEXT
  5
1A5
100
AcDbEntity
  8
ELEC_TEXTOS
  6
ByLayer
 62
  256
370
   -1
100
AcDbText
 10
17.43
 20
6.53
 30
0
 40
0.105
  1
Medidor M
 50
0
 41
1
 51
0
  7
textstyle44
 71
    0
 11
17.43
 21
6.53
 31
0
210
0
220
0
230
1
100
AcDbText
 73
    2
  0
CIRCLE
  5
1A6
100
AcDbEntity
  8
ELEC_TOMACORRIENTES
  6
ByLayer
 62
  256
370
   -1
100
AcDbCircle
 10
17.03
 20
6.17
 40
0.12
  0
TEXT
  5
1A7
100
AcDbEntity
  8
ELEC_TEXTOS
  6
ByLayer
 62
  256
370
   -1
100
AcDbText
 10
17.03
 20
6.17
 30
0
 40
0.105
  1
B
 50
0
 41
1
 51
0
  7
textstyle20
 71
    0
 72
    1
 11
17.03
 21
6.17
 31
0
210
0
220
0
230
1
100
AcDbText
 73
    2
  0
TEXT
  5
1A8
100
AcDbEntity
  8
ELEC_TEXTOS
  6
ByLayer
 62
  256
370
   -1
100
AcDbText
 10
17.43
 20
6.17
 30
0
 40
0.105
  1
Bomba exterior
 50
0
 41
1
 51
0
  7
textstyle10
 71
    0
 11
17.43
 21
6.17
 31
0
210
0
220
0
230
1
100
AcDbText
 73
    2
  0
TEXT
  5
1A9
100
AcDbEntity
  8
ELEC_TEXTOS
  6
ByLayer
 62
  256
370
   -1
100
AcDbText
 10
16.87
 20
5.760000000000001
 30
0
 40
0.115
  1
Lineas:
 50
0
 41
1
 51
0
  7
textstyle61
 71
    0
 11
16.87
 21
5.760000000000001
 31
0
210
0
220
0
230
1
100
AcDbText
 73
    2
  0
LINE
  5
1AA
100
AcDbEntity
  8
ELEC_CIRCUITO_C1
  6
DASHED
 62
  256
370
   -1
100
AcDbLine
 10
16.9
 20
5.44
 11
17.47
 21
5.44
  0
TEXT
  5
1AB
100
AcDbEntity
  8
ELEC_TEXTOS
  6
ByLayer
 62
  256
370
   -1
100
AcDbText
 10
17.6
 20
5.44
 30
0
 40
0.095
  1
C1 Alumbrado
 50
0
 41
1
 51
0
  7
textstyle22
 71
    0
 11
17.6
 21
5.44
 31
0
210
0
220
0
230
1
100
AcDbText
 73
    2
  0
LINE
  5
1AC
100
AcDbEntity
  8
ELEC_CIRCUITO_C2
  6
DASHED
 62
  256
370
   -1
100
AcDbLine
 10
16.9
 20
5.140000000000001
 11
17.47
 21
5.140000000000001
  0
TEXT
  5
1AD
100
AcDbEntity
  8
ELEC_TEXTOS
  6
ByLayer
 62
  256
370
   -1
100
AcDbText
 10
17.6
 20
5.140000000000001
 30
0
 40
0.095
  1
C2 Tomacorrientes
 50
0
 41
1
 51
0
  7
textstyle5
 71
    0
 11
17.6
 21
5.140000000000001
 31
0
210
0
220
0
230
1
100
AcDbText
 73
    2
  0
LINE
  5
1AE
100
AcDbEntity
  8
ELEC_CIRCUITO_C3
  6
DASHED
 62
  256
370
   -1
100
AcDbLine
 10
16.9
 20
4.840000000000001
 11
17.47
 21
4.840000000000001
  0
TEXT
  5
1AF
100
AcDbEntity
  8
ELEC_TEXTOS
  6
ByLayer
 62
  256
370
   -1
100
AcDbText
 10
17.6
 20
4.840000000000001
 30
0
 40
0.095
  1
C3 Cocina
 50
0
 41
1
 51
0
  7
textstyle8
 71
    0
 11
17.6
 21
4.840000000000001
 31
0
210
0
220
0
230
1
100
AcDbText
 73
    2
  0
LINE
  5
1B0
100
AcDbEntity
  8
ELEC_CIRCUITO_C8
  6
DASHED
 62
  256
370
   -1
100
AcDbLine
 10
16.9
 20
4.540000000000001
 11
17.47
 21
4.540000000000001
  0
TEXT
  5
1B1
100
AcDbEntity
  8
ELEC_TEXTOS
  6
ByLayer
 62
  256
370
   -1
100
AcDbText
 10
17.6
 20
4.540000000000001
 30
0
 40
0.095
  1
C8 Bomba exterior
 50
0
 41
1
 51
0
  7
textstyle23
 71
    0
 11
17.6
 21
4.540000000000001
 31
0
210
0
220
0
230
1
100
AcDbText
 73
    2
  0
LINE
  5
1B2
100
AcDbEntity
  8
ELEC_CANALIZACION
  6
ByLayer
 62
  256
370
   -1
100
AcDbLine
 10
16.9
 20
4.24
 11
17.47
 21
4.24
  0
TEXT
  5
1B3
100
AcDbEntity
  8
ELEC_TEXTOS
  6
ByLayer
 62
  256
370
   -1
100
AcDbText
 10
17.6
 20
4.24
 30
0
 40
0.095
  1
Alimentador M-TG
 50
0
 41
1
 51
0
  7
textstyle13
 71
    0
 11
17.6
 21
4.24
 31
0
210
0
220
0
230
1
100
AcDbText
 73
    2
  0
LINE
  5
1B4
100
AcDbEntity
  8
ELEC_CANALIZACION
  6
DASHED
 62
  256
370
   -1
100
AcDbLine
 10
16.9
 20
3.94
 11
17.47
 21
3.94
  0
TEXT
  5
1B5
100
AcDbEntity
  8
ELEC_TEXTOS
  6
ByLayer
 62
  256
370
   -1
100
AcDbText
 10
17.6
 20
3.94
 30
0
 40
0.095
  1
Limite de techo
 50
0
 41
1
 51
0
  7
textstyle35
 71
    0
 11
17.6
 21
3.94
 31
0
210
0
220
0
230
1
100
AcDbText
 73
    2
  0
TEXT
  5
1B6
100
AcDbEntity
  8
ELEC_TEXTOS
  6
ByLayer
 62
  256
370
   -1
100
AcDbText
 10
16.87
 20
2.429999999999999
 30
0
 40
0.08
  1
Lineas discontinuas: canalizacion empotrada
 50
0
 41
1
 51
0
  7
textstyle19
 71
    0
 11
16.87
 21
2.429999999999999
 31
0
210
0
220
0
230
1
100
AcDbText
 73
    2
  0
LINE
  5
1B7
100
AcDbEntity
  8
ELEC_LUMINARIAS
  6
ByLayer
 62
  256
370
   -1
100
AcDbLine
 10
5.9293
 20
6.729299999999999
 11
6.0707
 21
6.8707
  0
LINE
  5
1B8
100
AcDbEntity
  8
ELEC_LUMINARIAS
  6
ByLayer
 62
  256
370
   -1
100
AcDbLine
 10
5.9293
 20
6.8707
 11
6.0707
 21
6.729299999999999
  0
LINE
  5
1B9
100
AcDbEntity
  8
ELEC_LUMINARIAS
  6
ByLayer
 62
  256
370
   -1
100
AcDbLine
 10
5.98586
 20
6.78586
 11
6.01414
 21
6.81414
  0
LINE
  5
1BA
100
AcDbEntity
  8
ELEC_LUMINARIAS
  6
ByLayer
 62
  256
370
   -1
100
AcDbLine
 10
5.98586
 20
6.81414
 11
6.01414
 21
6.78586
  0
LINE
  5
1BB
100
AcDbEntity
  8
ELEC_LUMINARIAS
  6
ByLayer
 62
  256
370
   -1
100
AcDbLine
 10
11.9293
 20
6.729299999999999
 11
12.0707
 21
6.8707
  0
LINE
  5
1BC
100
AcDbEntity
  8
ELEC_LUMINARIAS
  6
ByLayer
 62
  256
370
   -1
100
AcDbLine
 10
11.9293
 20
6.8707
 11
12.0707
 21
6.729299999999999
  0
LINE
  5
1BD
100
AcDbEntity
  8
ELEC_LUMINARIAS
  6
ByLayer
 62
  256
370
   -1
100
AcDbLine
 10
11.98586
 20
6.78586
 11
12.01414
 21
6.81414
  0
LINE
  5
1BE
100
AcDbEntity
  8
ELEC_LUMINARIAS
  6
ByLayer
 62
  256
370
   -1
100
AcDbLine
 10
11.98586
 20
6.81414
 11
12.01414
 21
6.78586
  0
LINE
  5
1BF
100
AcDbEntity
  8
ELEC_LUMINARIAS
  6
ByLayer
 62
  256
370
   -1
100
AcDbLine
 10
10.9293
 20
2.1793
 11
11.0707
 21
2.3207
  0
LINE
  5
1C0
100
AcDbEntity
  8
ELEC_LUMINARIAS
  6
ByLayer
 62
  256
370
   -1
100
AcDbLine
 10
10.9293
 20
2.3207
 11
11.0707
 21
2.1793
  0
LINE
  5
1C1
100
AcDbEntity
  8
ELEC_LUMINARIAS
  6
ByLayer
 62
  256
370
   -1
100
AcDbLine
 10
10.98586
 20
2.23586
 11
11.01414
 21
2.26414
  0
LINE
  5
1C2
100
AcDbEntity
  8
ELEC_LUMINARIAS
  6
ByLayer
 62
  256
370
   -1
100
AcDbLine
 10
10.98586
 20
2.26414
 11
11.01414
 21
2.23586
  0
LINE
  5
1C3
100
AcDbEntity
  8
ELEC_LUMINARIAS
  6
ByLayer
 62
  256
370
   -1
100
AcDbLine
 10
1.585414343620151
 20
8.070977259929606
 11
1.726814343620151
 21
8.212377259929607
  0
LINE
  5
1C4
100
AcDbEntity
  8
ELEC_LUMINARIAS
  6
ByLayer
 62
  256
370
   -1
100
AcDbLine
 10
1.585414343620151
 20
8.212377259929607
 11
1.726814343620151
 21
8.070977259929606
  0
LINE
  5
1C5
100
AcDbEntity
  8
ELEC_LUMINARIAS
  6
ByLayer
 62
  256
370
   -1
100
AcDbLine
 10
1.641974343620151
 20
8.127537259929607
 11
1.670254343620151
 21
8.155817259929606
  0
LINE
  5
1C6
100
AcDbEntity
  8
ELEC_LUMINARIAS
  6
ByLayer
 62
  256
370
   -1
100
AcDbLine
 10
1.641974343620151
 20
8.155817259929606
 11
1.670254343620151
 21
8.127537259929607
  0
LINE
  5
1C7
100
AcDbEntity
  8
ELEC_LUMINARIAS
  6
ByLayer
 62
  256
370
   -1
100
AcDbLine
 10
16.955765
 20
8.255765
 11
17.104235
 21
8.404235
  0
LINE
  5
1C8
100
AcDbEntity
  8
ELEC_LUMINARIAS
  6
ByLayer
 62
  256
370
   -1
100
AcDbLine
 10
16.955765
 20
8.404235
 11
17.104235
 21
8.255765
  0
LINE
  5
1C9
100
AcDbEntity
  8
ELEC_LUMINARIAS
  6
ByLayer
 62
  256
370
   -1
100
AcDbLine
 10
17.017274
 20
8.317273999999999
 11
17.042726
 21
8.342726000000001
  0
LINE
  5
1CA
100
AcDbEntity
  8
ELEC_LUMINARIAS
  6
ByLayer
 62
  256
370
   -1
100
AcDbLine
 10
17.017274
 20
8.342726000000001
 11
17.042726
 21
8.317273999999999
  0
TEXT
  5
1CB
100
AcDbEntity
  8
ELEC_TEXTOS
  6
ByLayer
 62
  256
370
   -1
100
AcDbText
 10
15.45
 20
4.93
 30
0
 40
0.12
  1
PE
 50
0
 41
1
 51
0
  7
textstyle6
 71
    0
 72
    1
 11
15.45
 21
4.93
 31
0
210
0
220
0
230
1
100
AcDbText
 73
    2
  0
LWPOLYLINE
  5
1CC
100
AcDbEntity
  8
ELEC_CIRCUITO_C8
  6
DASHED
 62
  256
370
   -1
100
AcDbPolyline
 90
    6
 70
    0
 43
0
 10
14.35
 20
4.75
 10
14.35
 20
0.85
 10
8
 20
0.85
 10
3
 20
0.85
 10
-0.55
 20
0.85
 10
-0.55
 20
1
  0
LINE
  5
1CD
100
AcDbEntity
  8
ELEC_PUESTA_TIERRA
  6
ByLayer
 62
  256
370
   -1
100
AcDbLine
 10
14.02998405070447
 20
3.289902061308267
 11
14.02998405070447
 21
3.189902061308267
  0
LINE
  5
1CE
100
AcDbEntity
  8
ELEC_PUESTA_TIERRA
  6
ByLayer
 62
  256
370
   -1
100
AcDbLine
 10
13.82998405070447
 20
3.189902061308267
 11
14.22998405070447
 21
3.189902061308267
  0
LINE
  5
1CF
100
AcDbEntity
  8
ELEC_PUESTA_TIERRA
  6
ByLayer
 62
  256
370
   -1
100
AcDbLine
 10
13.96998405070447
 20
3.049902061308266
 11
14.08998405070447
 21
3.049902061308266
  0
TEXT
  5
1D0
100
AcDbEntity
  8
ELEC_PUESTA_TIERRA
  6
ByLayer
 62
  256
370
   -1
100
AcDbText
 10
14.02998405070447
 20
2.949902061308267
 30
0
 40
0.16
  1
SPAT
 50
0
 41
1
 51
0
  7
textstyle0
 71
    0
 72
    1
 11
14.02998405070447
 21
2.949902061308267
 31
0
210
0
220
0
230
1
100
AcDbText
 73
    2
  0
TEXT
  5
1D1
100
AcDbEntity
  8
ELEC_PUESTA_TIERRA
  6
ByLayer
 62
  256
370
   -1
100
AcDbText
 10
14.02998405070447
 20
2.849902061308267
 30
0
 40
0.1
  1
Puesta a tierra
 50
0
 41
1
 51
0
  7
textstyle15
 71
    0
 72
    1
 11
14.02998405070447
 21
2.849902061308267
 31
0
210
0
220
0
230
1
100
AcDbText
 73
    2
  0
LWPOLYLINE
  5
1D2
100
AcDbEntity
  8
ELEC_PUESTA_TIERRA
  6
DASHED
 62
  256
370
   -1
100
AcDbPolyline
 90
    3
 70
    0
 43
0
 10
14.02998405070447
 20
3.489902061308266
 10
14.02998405070447
 20
4.084899051252698
 10
14.34990790343819
 20
4.750041281402801
  0
LINE
  5
1D3
100
AcDbEntity
  8
ELEC_PUESTA_TIERRA
  6
ByLayer
 62
  256
370
   -1
100
AcDbLine
 10
14.16745321163217
 20
3.118616403393061
 11
13.89920568567253
 21
3.120298505013015
  0
ENDSEC
  0
SECTION
  2
OBJECTS
  0
DICTIONARY
  5
C
330
0
100
AcDbDictionary
281
    1
  3
ACAD_GROUP
350
D
  0
DICTIONARY
  5
D
330
C
100
AcDbDictionary
281
    1
  0
PLOTSETTINGS
  5
1D4
100
AcDbPlotSettings
  6
1x1
 40
0
 41
0
 42
0
 43
0
  0
ENDSEC
  0
EOF
