999
dxfrw 0.6.3
  0
SECTION
  2
HEADER
  9
$ACADVER
  1
AC1021
  9
$DWGCODEPAGE
  3
ANSI_1252
  9
$INSBASE
 10
0
 20
0
 30
0
  9
$EXTMIN
 10
-1.44
 20
-1.440000000000011
 30
0
  9
$EXTMAX
 10
22.3
 20
10.99000000000002
 30
0
  9
$LIMMIN
 10
0
 20
0
  9
$LIMMAX
 10
420
 20
297
  9
$ORTHOMODE
 70
    0
  9
$REGENMODE
 70
    1
  9
$FILLMODE
 70
    1
  9
$QTEXTMODE
 70
    0
  9
$MIRRTEXT
 70
    1
  9
$LTSCALE
 40
0.55
  9
$ATTMODE
 70
    1
  9
$TEXTSIZE
 40
2.5
  9
$TRACEWID
 40
1
  9
$TEXTSTYLE
  7
OpenSans
  9
$CLAYER
  8
0
  9
$CELTYPE
  6
ByLayer
  9
$CECOLOR
 62
  256
  9
$CELTSCALE
 40
1
  9
$DISPSILH
 70
    0
  9
$DIMSCALE
 40
1
  9
$DIMASZ
 40
0.175
  9
$DIMEXO
 40
0.125
  9
$DIMDLI
 40
3.75
  9
$DIMRND
 40
0
  9
$DIMDLE
 40
0
  9
$DIMEXE
 40
0.375
  9
$DIMTP
 40
0
  9
$DIMTM
 40
0
  9
$DIMTXT
 40
0.25
  9
$DIMCEN
 40
2.5
  9
$DIMTSZ
 40
0
  9
$DIMTOL
 70
    0
  9
$DIMLIM
 70
    0
  9
$DIMTIH
 70
    0
  9
$DIMTOH
 70
    0
  9
$DIMSE1
 70
    0
  9
$DIMSE2
 70
    0
  9
$DIMTAD
 70
    1
  9
$DIMZIN
 70
   12
  9
$DIMBLK
  1
ARCHTICK
  9
$DIMASO
 70
    1
  9
$DIMSHO
 70
    1
  9
$DIMPOST
  1

  9
$DIMAPOST
  1

  9
$DIMALT
 70
    0
  9
$DIMALTD
 70
    3
  9
$DIMALTF
 40
0.03937007874
  9
$DIMLFAC
 40
100
  9
$DIMTOFL
 70
    1
  9
$DIMTVP
 40
0
  9
$DIMTIX
 70
    0
  9
$DIMSOXD
 70
    0
  9
$DIMSAH
 70
    0
  9
$DIMBLK1
  1

  9
$DIMBLK2
  1

  9
$DIMSTYLE
  2
EZDXF
  9
$DIMCLRD
 70
    0
  9
$DIMCLRE
 70
    0
  9
$DIMCLRT
 70
    0
  9
$DIMTFAC
 40
0.5
  9
$DIMGAP
 40
0.1
  9
$DIMJUST
 70
    0
  9
$DIMSD1
 70
    0
  9
$DIMSD2
 70
    0
  9
$DIMTOLJ
 70
    0
  9
$DIMTZIN
 70
    8
  9
$DIMALTZ
 70
    0
  9
$DIMALTTZ
 70
    0
  9
$DIMUPT
 70
    1
  9
$DIMDEC
 70
    2
  9
$DIMTDEC
 70
    2
  9
$DIMALTU
 70
    2
  9
$DIMALTTD
 70
    3
  9
$DIMTXSTY
  7
OpenSansCondensed-Light
  9
$DIMAUNIT
 70
    0
  9
$DIMADEC
 70
    2
  9
$DIMALTRND
 40
0
  9
$DIMAZIN
 70
    3
  9
$DIMDSEP
 70
   46
  9
$DIMATFIT
 70
    3
  9
$DIMFRAC
 70
    0
  9
$DIMLDRBLK
  1

  9
$DIMLUNIT
 70
    2
  9
$DIMLWD
 70
   -2
  9
$DIMLWE
 70
   -2
  9
$DIMTMOVE
 70
    2
  9
$DIMFXL
 40
1
  9
$DIMFXLON
 70
    0
  9
$DIMJOGANG
 40
0.785398163397
  9
$DIMTFILL
 70
    0
  9
$DIMTFILLCLR
 70
    0
  9
$DIMARCSYM
 70
    0
  9
$DIMLTYPE
  6

  9
$DIMLTEX1
  6

  9
$DIMLTEX2
  6

  9
$LUNITS
 70
    2
  9
$LUPREC
 70
    4
  9
$SKETCHINC
 40
1
  9
$FILLETRAD
 40
10
  9
$AUNITS
 70
    0
  9
$AUPREC
 70
    2
  9
$MENU
  1
.
  9
$ELEVATION
 40
0
  9
$PELEVATION
 40
0
  9
$THICKNESS
 40
0
  9
$LIMCHECK
 70
    0
  9
$CHAMFERA
 40
0
  9
$CHAMFERB
 40
0
  9
$CHAMFERC
 40
0
  9
$CHAMFERD
 40
0
  9
$SKPOLY
 70
    0
  9
$USRTIMER
 70
    1
  9
$ANGBASE
 50
0
  9
$ANGDIR
 70
    0
  9
$PDMODE
 70
    0
  9
$PDSIZE
 40
0
  9
$PLINEWID
 40
0
  9
$SPLFRAME
 70
    0
  9
$SPLINETYPE
 70
    6
  9
$SPLINESEGS
 70
    8
  9
$HANDSEED
  5
20000
  9
$SURFTAB1
 70
    6
  9
$SURFTAB2
 70
    6
  9
$SURFTYPE
 70
    6
  9
$SURFU
 70
    6
  9
$SURFV
 70
    6
  9
$UCSBASE
  2

  9
$UCSNAME
  2

  9
$UCSORG
 10
0
 20
0
 30
0
  9
$UCSXDIR
 10
1
 20
0
 30
0
  9
$UCSYDIR
 10
0
 20
1
 30
0
  9
$UCSORTHOREF
  2

  9
$UCSORTHOVIEW
 70
    0
  9
$UCSORGTOP
 10
0
 20
0
 30
0
  9
$UCSORGBOTTOM
 10
0
 20
0
 30
0
  9
$UCSORGLEFT
 10
0
 20
0
 30
0
  9
$UCSORGRIGHT
 10
0
 20
0
 30
0
  9
$UCSORGFRONT
 10
0
 20
0
 30
0
  9
$UCSORGBACK
 10
0
 20
0
 30
0
  9
$PUCSBASE
  2

  9
$PUCSNAME
  2

  9
$PUCSORG
 10
0
 20
0
 30
0
  9
$PUCSXDIR
 10
1
 20
0
 30
0
  9
$PUCSYDIR
 10
0
 20
1
 30
0
  9
$PUCSORTHOREF
  2

  9
$PUCSORTHOVIEW
 70
    0
  9
$PUCSORGTOP
 10
0
 20
0
 30
0
  9
$PUCSORGBOTTOM
 10
0
 20
0
 30
0
  9
$PUCSORGLEFT
 10
0
 20
0
 30
0
  9
$PUCSORGRIGHT
 10
0
 20
0
 30
0
  9
$PUCSORGFRONT
 10
0
 20
0
 30
0
  9
$PUCSORGBACK
 10
0
 20
0
 30
0
  9
$USERI1
 70
    0
  9
$USERI2
 70
    0
  9
$USERI3
 70
    0
  9
$USERI4
 70
    0
  9
$USERI5
 70
    0
  9
$USERR1
 40
0
  9
$USERR2
 40
0
  9
$USERR3
 40
0
  9
$USERR4
 40
0
  9
$USERR5
 40
0
  9
$WORLDVIEW
 70
    1
  9
$SHADEDGE
 70
    3
  9
$SHADEDIF
 70
   70
  9
$TILEMODE
 70
    1
  9
$MAXACTVP
 70
   64
  9
$PINSBASE
 10
0
 20
0
 30
0
  9
$PLIMCHECK
 70
    0
  9
$PEXTMIN
 10
1e+20
 20
1e+20
 30
1e+20
  9
$PEXTMAX
 10
-1e+20
 20
-1e+20
 30
-1e+20
  9
$GRIDMODE
 70
    0
  9
$SNAPSTYLE
 70
    0
  9
$PLIMMIN
 10
0
 20
0
  9
$PLIMMAX
 10
420
 20
297
  9
$UNITMODE
 70
    0
  9
$VISRETAIN
 70
    1
  9
$PLINEGEN
 70
    0
  9
$PSLTSCALE
 70
    1
  9
$TREEDEPTH
 70
 3020
  9
$CMLSTYLE
  2
Standard
  9
$CMLJUST
 70
    0
  9
$CMLSCALE
 40
20
  9
$PROXYGRAPHICS
 70
    1
  9
$MEASUREMENT
 70
    1
  9
$CELWEIGHT
370
   -1
  9
$ENDCAPS
280
    0
  9
$JOINSTYLE
280
    0
  9
$LWDISPLAY
290
    0
  9
$INSUNITS
 70
    6
  9
$HYPERLINKBASE
  1

  9
$STYLESHEET
  1

  9
$XEDIT
290
    1
  9
$CEPSNTYPE
380
    0
  9
$PSTYLEMODE
290
    1
  9
$EXTNAMES
290
    1
  9
$PSVPSCALE
 40
0
  9
$OLESTARTUP
290
    0
  9
$SORTENTS
280
  127
  9
$INDEXCTL
280
    0
  9
$HIDETEXT
280
    1
  9
$XCLIPFRAME
290
    1
  9
$HALOGAP
280
    0
  9
$OBSCOLOR
 70
  257
  9
$OBSLTYPE
280
    0
  9
$INTERSECTIONDISPLAY
280
    0
  9
$INTERSECTIONCOLOR
 70
  257
  9
$DIMASSOC
280
    2
  9
$PROJECTNAME
  1

  9
$CAMERADISPLAY
290
    0
  9
$LENSLENGTH
 40
50
  9
$CAMERAHEIGHT
 40
0
  9
$STEPSPERSEC
 40
24
  9
$STEPSIZE
 40
100
  9
$3DDWFPREC
 40
2
  9
$PSOLWIDTH
 40
0.005
  9
$PSOLHEIGHT
 40
0.08
  9
$LOFTANG1
 40
1.570796326795
  9
$LOFTANG2
 40
1.570796326795
  9
$LOFTMAG1
 40
0
  9
$LOFTMAG2
 40
0
  9
$LOFTPARAM
 70
    7
  9
$LOFTNORMALS
280
    1
  9
$LATITUDE
 40
37.795
  9
$LONGITUDE
 40
-122.394
  9
$NORTHDIRECTION
 40
0
  9
$TIMEZONE
 70
-8000
  9
$LIGHTGLYPHDISPLAY
280
    1
  9
$TILEMODELIGHTSYNCH
280
    1
  9
$SOLIDHIST
280
    0
  9
$SHOWHIST
280
    1
  9
$DWFFRAME
280
    2
  9
$DGNFRAME
280
    2
  9
$REALWORLDSCALE
290
    1
  9
$INTERFERECOLOR
 62
  256
  9
$CSHADOW
280
    0
  9
$SHADOWPLANELOCATION
 40
0
  0
ENDSEC
  0
SECTION
  2
CLASSES
  0
ENDSEC
  0
SECTION
  2
TABLES
  0
TABLE
  2
VPORT
  5
8
330
0
100
AcDbSymbolTable
 70
    1
  0
VPORT
  5
31
330
2
100
AcDbSymbolTableRecord
100
AcDbViewportTableRecord
  2
*ACTIVE
 70
    0
 10
0
 20
0
 11
1
 21
1
 12
11.76994763742015
 22
5.188069024389146
 13
0
 23
0
 14
10
 24
10
 15
10
 25
10
 16
0
 26
0
 36
1
 17
0
 27
0
 37
0
 40
12.2810111532555
 41
2.204287515762926
 42
50
 43
0
 44
0
 50
0
 51
0
 71
    0
 72
  100
 73
    1
 74
    3
 75
    0
 76
    0
 77
    0
 78
    0
281
    0
 65
    1
110
0
120
0
130
0
111
1
121
0
131
0
112
0
122
1
132
0
 79
    0
146
0
348
10020
 60
    7
 61
    5
292
1
282
    1
141
0
142
0
 63
  250
421
3358443
  0
ENDTAB
  0
TABLE
  2
LTYPE
  5
5
330
0
100
AcDbSymbolTable
 70
    4
  0
LTYPE
  5
14
330
5
100
AcDbSymbolTableRecord
100
AcDbLinetypeTableRecord
  2
ByBlock
 70
    0
  3

 72
   65
 73
    0
 40
0
  0
LTYPE
  5
15
330
5
100
AcDbSymbolTableRecord
100
AcDbLinetypeTableRecord
  2
ByLayer
 70
    0
  3

 72
   65
 73
    0
 40
0
  0
LTYPE
  5
16
330
5
100
AcDbSymbolTableRecord
100
AcDbLinetypeTableRecord
  2
Continuous
 70
    0
  3
Solid line
 72
   65
 73
    0
 40
0
  0
LTYPE
  5
32
330
5
100
AcDbSymbolTableRecord
100
AcDbLinetypeTableRecord
  2
DOT
 70
    0
  3
Dot . . . . . . . . . . . . . . . . . . . . . .
 72
   65
 73
    2
 40
6.35
 49
0
 74
    0
 49
-6.35
 74
    0
  0
LTYPE
  5
33
330
5
100
AcDbSymbolTableRecord
100
AcDbLinetypeTableRecord
  2
DOTTINY
 70
    0
  3
Dot (.15x) .....................................
 72
   65
 73
    2
 40
0.9525
 49
0
 74
    0
 49
-0.9525
 74
    0
  0
LTYPE
  5
34
330
5
100
AcDbSymbolTableRecord
100
AcDbLinetypeTableRecord
  2
DOT2
 70
    0
  3
Dot (.5x) .....................................
 72
   65
 73
    2
 40
3.175
 49
0
 74
    0
 49
-3.175
 74
    0
  0
LTYPE
  5
35
330
5
100
AcDbSymbolTableRecord
100
AcDbLinetypeTableRecord
  2
DOTX2
 70
    0
  3
Dot (2x) .  .  .  .  .  .  .  .  .  .  .  .  .
 72
   65
 73
    2
 40
12.7
 49
0
 74
    0
 49
-12.7
 74
    0
  0
LTYPE
  5
36
330
5
100
AcDbSymbolTableRecord
100
AcDbLinetypeTableRecord
  2
DASHED
 70
    0
  3
Dashed _ _ _ _ _ _ _ _ _ _ _ _ _ _ _ _ _
 72
   65
 73
    2
 40
19.05
 49
12.7
 74
    0
 49
-6.35
 74
    0
  0
LTYPE
  5
37
330
5
100
AcDbSymbolTableRecord
100
AcDbLinetypeTableRecord
  2
DASHEDTINY
 70
    0
  3
Dashed (.15x) _ _ _ _ _ _ _ _ _ _ _ _ _ _ _ _ _
 72
   65
 73
    2
 40
2.8575
 49
1.905
 74
    0
 49
-0.9525
 74
    0
  0
LTYPE
  5
38
330
5
100
AcDbSymbolTableRecord
100
AcDbLinetypeTableRecord
  2
DASHED2
 70
    0
  3
Dashed (.5x) _ _ _ _ _ _ _ _ _ _ _ _ _ _ _ _ _
 72
   65
 73
    2
 40
9.524999999999999
 49
6.35
 74
    0
 49
-3.175
 74
    0
  0
LTYPE
  5
39
330
5
100
AcDbSymbolTableRecord
100
AcDbLinetypeTableRecord
  2
DASHEDX2
 70
    0
  3
Dashed (2x) ____  ____  ____  ____  ____  ___
 72
   65
 73
    2
 40
38.09999999999999
 49
25.4
 74
    0
 49
-12.7
 74
    0
  0
LTYPE
  5
3A
330
5
100
AcDbSymbolTableRecord
100
AcDbLinetypeTableRecord
  2
DASHDOT
 70
    0
  3
Dash dot __ . __ . __ . __ . __ . __ . __ . __
 72
   65
 73
    4
 40
25.4
 49
12.7
 74
    0
 49
-6.35
 74
    0
 49
0
 74
    0
 49
-6.35
 74
    0
  0
LTYPE
  5
3B
330
5
100
AcDbSymbolTableRecord
100
AcDbLinetypeTableRecord
  2
DASHDOTTINY
 70
    0
  3
Dash dot (.15x) _._._._._._._._._._._._._._._.
 72
   65
 73
    4
 40
3.81
 49
1.905
 74
    0
 49
-0.9525
 74
    0
 49
0
 74
    0
 49
-0.9525
 74
    0
  0
LTYPE
  5
3C
330
5
100
AcDbSymbolTableRecord
100
AcDbLinetypeTableRecord
  2
DASHDOT2
 70
    0
  3
Dash dot (.5x) _._._._._._._._._._._._._._._.
 72
   65
 73
    4
 40
12.7
 49
6.35
 74
    0
 49
-3.175
 74
    0
 49
0
 74
    0
 49
-3.175
 74
    0
  0
LTYPE
  5
3D
330
5
100
AcDbSymbolTableRecord
100
AcDbLinetypeTableRecord
  2
DASHDOTX2
 70
    0
  3
Dash dot (2x) ____  .  ____  .  ____  .  ___
 72
   65
 73
    4
 40
50.8
 49
25.4
 74
    0
 49
-12.7
 74
    0
 49
0
 74
    0
 49
-12.7
 74
    0
  0
LTYPE
  5
3E
330
5
100
AcDbSymbolTableRecord
100
AcDbLinetypeTableRecord
  2
DIVIDE
 70
    0
  3
Divide ____ . . ____ . . ____ . . ____ . . ____
 72
   65
 73
    6
 40
31.75
 49
12.7
 74
    0
 49
-6.35
 74
    0
 49
0
 74
    0
 49
-6.35
 74
    0
 49
0
 74
    0
 49
-6.35
 74
    0
  0
LTYPE
  5
3F
330
5
100
AcDbSymbolTableRecord
100
AcDbLinetypeTableRecord
  2
DIVIDETINY
 70
    0
  3
Divide (.15x) __..__..__..__..__..__..__..__.._
 72
   65
 73
    6
 40
4.7625
 49
1.905
 74
    0
 49
-0.9525
 74
    0
 49
0
 74
    0
 49
-0.9525
 74
    0
 49
0
 74
    0
 49
-0.9525
 74
    0
  0
LTYPE
  5
40
330
5
100
AcDbSymbolTableRecord
100
AcDbLinetypeTableRecord
  2
DIVIDE2
 70
    0
  3
Divide (.5x) __..__..__..__..__..__..__..__.._
 72
   65
 73
    6
 40
15.875
 49
6.35
 74
    0
 49
-3.175
 74
    0
 49
0
 74
    0
 49
-3.175
 74
    0
 49
0
 74
    0
 49
-3.175
 74
    0
  0
LTYPE
  5
41
330
5
100
AcDbSymbolTableRecord
100
AcDbLinetypeTableRecord
  2
DIVIDEX2
 70
    0
  3
Divide (2x) ________  .  .  ________  .  .  _
 72
   65
 73
    6
 40
63.5
 49
25.4
 74
    0
 49
-12.7
 74
    0
 49
0
 74
    0
 49
-12.7
 74
    0
 49
0
 74
    0
 49
-12.7
 74
    0
  0
LTYPE
  5
42
330
5
100
AcDbSymbolTableRecord
100
AcDbLinetypeTableRecord
  2
BORDER
 70
    0
  3
Border __ __ . __ __ . __ __ . __ __ . __ __ .
 72
   65
 73
    6
 40
44.45
 49
12.7
 74
    0
 49
-6.35
 74
    0
 49
12.7
 74
    0
 49
-6.35
 74
    0
 49
0
 74
    0
 49
-6.35
 74
    0
  0
LTYPE
  5
43
330
5
100
AcDbSymbolTableRecord
100
AcDbLinetypeTableRecord
  2
BORDERTINY
 70
    0
  3
Border (.15x) __.__.__.__.__.__.__.__.__.__.__.
 72
   65
 73
    6
 40
6.6675
 49
1.905
 74
    0
 49
-0.9525
 74
    0
 49
1.905
 74
    0
 49
-0.9525
 74
    0
 49
0
 74
    0
 49
-0.9525
 74
    0
  0
LTYPE
  5
44
330
5
100
AcDbSymbolTableRecord
100
AcDbLinetypeTableRecord
  2
BORDER2
 70
    0
  3
Border (.5x) __.__.__.__.__.__.__.__.__.__.__.
 72
   65
 73
    6
 40
22.225
 49
6.35
 74
    0
 49
-3.175
 74
    0
 49
6.35
 74
    0
 49
-3.175
 74
    0
 49
0
 74
    0
 49
-3.175
 74
    0
  0
LTYPE
  5
45
330
5
100
AcDbSymbolTableRecord
100
AcDbLinetypeTableRecord
  2
BORDERX2
 70
    0
  3
Border (2x) ____  ____  .  ____  ____  .  ___
 72
   65
 73
    6
 40
88.89999999999999
 49
25.4
 74
    0
 49
-12.7
 74
    0
 49
25.4
 74
    0
 49
-12.7
 74
    0
 49
0
 74
    0
 49
-12.7
 74
    0
  0
LTYPE
  5
46
330
5
100
AcDbSymbolTableRecord
100
AcDbLinetypeTableRecord
  2
CENTER
 70
    0
  3
Center ____ _ ____ _ ____ _ ____ _ ____ _ ____
 72
   65
 73
    4
 40
50.8
 49
31.75
 74
    0
 49
-6.35
 74
    0
 49
6.35
 74
    0
 49
-6.35
 74
    0
  0
LTYPE
  5
47
330
5
100
AcDbSymbolTableRecord
100
AcDbLinetypeTableRecord
  2
CENTERTINY
 70
    0
  3
Center (.15x) ___ _ ___ _ ___ _ ___ _ ___ _ ___
 72
   65
 73
    4
 40
7.619999999999999
 49
4.7625
 74
    0
 49
-0.9525
 74
    0
 49
0.9525
 74
    0
 49
-0.9525
 74
    0
  0
LTYPE
  5
48
330
5
100
AcDbSymbolTableRecord
100
AcDbLinetypeTableRecord
  2
CENTER2
 70
    0
  3
Center (.5x) ___ _ ___ _ ___ _ ___ _ ___ _ ___
 72
   65
 73
    4
 40
28.575
 49
19.05
 74
    0
 49
-3.175
 74
    0
 49
3.175
 74
    0
 49
-3.175
 74
    0
  0
LTYPE
  5
49
330
5
100
AcDbSymbolTableRecord
100
AcDbLinetypeTableRecord
  2
CENTERX2
 70
    0
  3
Center (2x) ________  __  ________  __  _____
 72
   65
 73
    4
 40
101.6
 49
63.5
 74
    0
 49
-12.7
 74
    0
 49
12.7
 74
    0
 49
-12.7
 74
    0
  0
ENDTAB
  0
TABLE
  2
LAYER
  5
2
330
0
100
AcDbSymbolTable
 70
    1
  0
LAYER
  5
10
330
2
100
AcDbSymbolTableRecord
100
AcDbLayerTableRecord
  2
0
 70
    0
 62
    7
  6
CONTINUOUS
370
   -3
390
F
  0
LAYER
  5
4A
330
2
100
AcDbSymbolTableRecord
100
AcDbLayerTableRecord
  2
ANOTACIONES
 70
    0
 62
  251
420
6710886
  6
CONTINUOUS
370
   -3
390
F
  0
LAYER
  5
4B
330
2
100
AcDbSymbolTableRecord
100
AcDbLayerTableRecord
  2
ARQ_ANOTACIONES
 70
    0
 62
  251
420
5592405
  6
CONTINUOUS
370
    9
390
F
  0
LAYER
  5
4C
330
2
100
AcDbSymbolTableRecord
100
AcDbLayerTableRecord
  2
ARQ_ESCALERAS
 70
    0
 62
  251
420
5592405
  6
CONTINUOUS
370
   13
390
F
  0
LAYER
  5
4D
330
2
100
AcDbSymbolTableRecord
100
AcDbLayerTableRecord
  2
ARQ_MOBILIARIO
 70
    0
 62
    8
420
7829367
  6
CONTINUOUS
370
    9
390
F
  0
LAYER
  5
4E
330
2
100
AcDbSymbolTableRecord
100
AcDbLayerTableRecord
  2
ARQ_MUROS
 70
    0
 62
    7
  6
CONTINUOUS
370
   30
390
F
  0
LAYER
  5
4F
330
2
100
AcDbSymbolTableRecord
100
AcDbLayerTableRecord
  2
ARQ_PUERTAS
 70
    0
 62
    7
  6
CONTINUOUS
370
   18
390
F
  0
LAYER
  5
50
330
2
100
AcDbSymbolTableRecord
100
AcDbLayerTableRecord
  2
ARQ_TEXTOS
 70
    0
 62
   49
420
4473924
  6
CONTINUOUS
370
   13
390
F
  0
LAYER
  5
51
330
2
100
AcDbSymbolTableRecord
100
AcDbLayerTableRecord
  2
ARQ_TRAMAS
 70
    0
 62
  253
420
10066329
  6
CONTINUOUS
370
    9
390
F
  0
LAYER
  5
52
330
2
100
AcDbSymbolTableRecord
100
AcDbLayerTableRecord
  2
ARQ_VENTANAS
 70
    0
 62
    7
  6
CONTINUOUS
370
   18
390
F
  0
LAYER
  5
53
330
2
100
AcDbSymbolTableRecord
100
AcDbLayerTableRecord
  2
COTAS
 70
    0
 62
  251
420
6710886
  6
CONTINUOUS
370
   -3
390
F
  0
LAYER
  5
54
330
2
100
AcDbSymbolTableRecord
100
AcDbLayerTableRecord
  2
Defpoints
 70
    0
 62
    7
  6
CONTINUOUS
290
0
370
   -3
390
F
  0
LAYER
  5
55
330
2
100
AcDbSymbolTableRecord
100
AcDbLayerTableRecord
  2
ELEC_CANALIZACION
 70
    0
 62
  134
420
35980
  6
CONTINUOUS
370
   18
390
F
  0
LAYER
  5
56
330
2
100
AcDbSymbolTableRecord
100
AcDbLayerTableRecord
  2
ELEC_CIRCUITO_C1
 70
    0
 62
   42
420
13404672
  6
CONTINUOUS
370
   18
390
F
  0
LAYER
  5
57
330
2
100
AcDbSymbolTableRecord
100
AcDbLayerTableRecord
  2
ELEC_CIRCUITO_C2
 70
    0
 62
  154
  6
CONTINUOUS
370
   18
390
F
  0
LAYER
  5
58
330
2
100
AcDbSymbolTableRecord
100
AcDbLayerTableRecord
  2
ELEC_CIRCUITO_C3
 70
    0
 62
  142
420
36026
  6
CONTINUOUS
370
   18
390
F
  0
LAYER
  5
59
330
2
100
AcDbSymbolTableRecord
100
AcDbLayerTableRecord
  2
ELEC_CIRCUITO_C4
 70
    0
 62
   40
420
15902976
  6
CONTINUOUS
370
   18
390
F
  0
LAYER
  5
5A
330
2
100
AcDbSymbolTableRecord
100
AcDbLayerTableRecord
  2
ELEC_CIRCUITO_C5
 70
    0
 62
  152
420
29390
  6
CONTINUOUS
370
   18
390
F
  0
LAYER
  5
5B
330
2
100
AcDbSymbolTableRecord
100
AcDbLayerTableRecord
  2
ELEC_CIRCUITO_C6
 70
    0
 62
   22
420
14230307
  6
CONTINUOUS
370
   18
390
F
  0
LAYER
  5
5C
330
2
100
AcDbSymbolTableRecord
100
AcDbLayerTableRecord
  2
ELEC_CIRCUITO_C7
 70
    0
 62
  193
420
10178521
  6
CONTINUOUS
370
   18
390
F
  0
LAYER
  5
5D
330
2
100
AcDbSymbolTableRecord
100
AcDbLayerTableRecord
  2
ELEC_CIRCUITO_C8
 70
    0
 62
   96
420
32768
  6
CONTINUOUS
370
   18
390
F
  0
LAYER
  5
5E
330
2
100
AcDbSymbolTableRecord
100
AcDbLayerTableRecord
  2
ELEC_COTAS_REF
 70
    0
 62
    8
420
7829367
  6
CONTINUOUS
370
    9
390
F
  0
LAYER
  5
5F
330
2
100
AcDbSymbolTableRecord
100
AcDbLayerTableRecord
  2
ELEC_INTERRUPTORES
 70
    0
 62
  124
420
42602
  6
CONTINUOUS
370
   18
390
F
  0
LAYER
  5
60
330
2
100
AcDbSymbolTableRecord
100
AcDbLayerTableRecord
  2
ELEC_LEYENDA
 70
    0
 62
    7
  6
CONTINUOUS
370
   18
390
F
  0
LAYER
  5
61
330
2
100
AcDbSymbolTableRecord
100
AcDbLayerTableRecord
  2
ELEC_LUMINARIAS
 70
    0
 62
   40
420
15902976
  6
CONTINUOUS
370
   18
390
F
  0
LAYER
  5
62
330
2
100
AcDbSymbolTableRecord
100
AcDbLayerTableRecord
  2
ELEC_MEDIDOR
 70
    0
 62
  202
420
9055202
  6
CONTINUOUS
370
   30
390
F
  0
LAYER
  5
63
330
2
100
AcDbSymbolTableRecord
100
AcDbLayerTableRecord
  2
ELEC_TABLERO
 70
    0
 62
   22
420
14230307
  6
CONTINUOUS
370
   18
390
F
  0
LAYER
  5
64
330
2
100
AcDbSymbolTableRecord
100
AcDbLayerTableRecord
  2
ELEC_TEXTOS
 70
    0
 62
    7
  6
CONTINUOUS
370
   13
390
F
  0
LAYER
  5
65
330
2
100
AcDbSymbolTableRecord
100
AcDbLayerTableRecord
  2
ELEC_TOMACORRIENTES
 70
    0
 62
  152
420
29390
  6
CONTINUOUS
370
   18
390
F
  0
LAYER
  5
66
330
2
100
AcDbSymbolTableRecord
100
AcDbLayerTableRecord
  2
ESCALERAS
 70
    0
 62
    7
  6
CONTINUOUS
370
   -3
390
F
  0
LAYER
  5
67
330
2
100
AcDbSymbolTableRecord
100
AcDbLayerTableRecord
  2
MARCO
 70
    0
 62
    7
  6
CONTINUOUS
370
   50
390
F
  0
LAYER
  5
68
330
2
100
AcDbSymbolTableRecord
100
AcDbLayerTableRecord
  2
MOBILIARIO
 70
    0
 62
  251
420
6710886
  6
CONTINUOUS
370
   -3
390
F
  0
LAYER
  5
69
330
2
100
AcDbSymbolTableRecord
100
AcDbLayerTableRecord
  2
MUROS
 70
    0
 62
    7
  6
CONTINUOUS
370
   35
390
F
  0
LAYER
  5
6A
330
2
100
AcDbSymbolTableRecord
100
AcDbLayerTableRecord
  2
PUERTAS
 70
    0
 62
    7
  6
CONTINUOUS
370
   -3
390
F
  0
LAYER
  5
6B
330
2
100
AcDbSymbolTableRecord
100
AcDbLayerTableRecord
  2
TEXTOS
 70
    0
 62
    7
  6
CONTINUOUS
370
   -3
390
F
  0
LAYER
  5
6C
330
2
100
AcDbSymbolTableRecord
100
AcDbLayerTableRecord
  2
TRAMAS
 70
    0
 62
  253
420
10066329
  6
CONTINUOUS
370
   -3
390
F
  0
LAYER
  5
6D
330
2
100
AcDbSymbolTableRecord
100
AcDbLayerTableRecord
  2
VENTANAS
 70
    0
 62
    7
  6
CONTINUOUS
370
   -3
390
F
  0
ENDTAB
  0
TABLE
  2
STYLE
  5
3
330
0
100
AcDbSymbolTable
 70
    3
  0
STYLE
  5
6E
330
2
100
AcDbSymbolTableRecord
100
AcDbTextStyleTableRecord
  2
STANDARD
 70
    0
 40
0
 41
1
 50
0
 71
    0
 42
1
  3
STANDARD
  4

  0
ENDTAB
  0
TABLE
  2
VIEW
  5
6
330
0
100
AcDbSymbolTable
 70
    0
  0
ENDTAB
  0
TABLE
  2
UCS
  5
7
330
0
100
AcDbSymbolTable
 70
    0
  0
ENDTAB
  0
TABLE
  2
APPID
  5
9
330
0
100
AcDbSymbolTable
 70
    1
  0
APPID
  5
12
330
9
100
AcDbSymbolTableRecord
100
AcDbRegAppTableRecord
  2
ACAD
 70
    0
  0
APPID
  5
6F
330
9
100
AcDbSymbolTableRecord
100
AcDbRegAppTableRecord
  2
LibreCad
 70
    0
  0
ENDTAB
  0
TABLE
  2
DIMSTYLE
  5
A
330
0
100
AcDbSymbolTable
 70
    1
100
AcDbDimStyleTable
 71
    1
  0
DIMSTYLE
105
70
330
A
100
AcDbSymbolTableRecord
100
AcDbDimStyleTableRecord
  2
Standard
 70
    0
 40
1
 41
0.175
 42
0.125
 43
0.38
 44
0.375
 45
0
 46
0
 47
0
 48
0
 49
1
140
0.25
141
0.09
142
0
143
25.4
144
100
145
0
146
1
147
0.1
148
0
 71
    0
 72
    0
 73
    0
 74
    1
 75
    0
 76
    0
 77
    0
 78
   12
 79
    3
170
    0
171
    2
172
    0
173
    0
174
    0
175
    0
176
    0
177
    0
178
    0
179
    2
271
    2
272
    4
273
    2
274
    2
275
    0
276
    0
277
    2
278
   46
279
    0
280
    0
281
    0
282
    0
283
    1
284
    0
285
    0
286
    0
288
    0
289
    3
  0
ENDTAB
  0
TABLE
  2
BLOCK_RECORD
  5
1
330
0
100
AcDbSymbolTable
 70
    2
  0
BLOCK_RECORD
  5
1F
330
1
100
AcDbSymbolTableRecord
100
AcDbBlockTableRecord
  2
*Model_Space
 70
    0
280
    1
281
    0
  0
BLOCK_RECORD
  5
1E
330
1
100
AcDbSymbolTableRecord
100
AcDbBlockTableRecord
  2
*Paper_Space
 70
    0
280
    1
281
    0
  0
BLOCK_RECORD
  5
71
330
1
100
AcDbSymbolTableRecord
100
AcDbBlockTableRecord
  2
_ARCHTICK
 70
    0
280
    1
281
    0
  0
BLOCK_RECORD
  5
74
330
1
100
AcDbSymbolTableRecord
100
AcDbBlockTableRecord
  2
_CLOSEDFILLED
 70
    0
280
    1
281
    0
  0
BLOCK_RECORD
  5
77
330
1
100
AcDbSymbolTableRecord
100
AcDbBlockTableRecord
  2
_CLOSEDBLANK
 70
    0
280
    1
281
    0
  0
ENDTAB
  0
ENDSEC
  0
SECTION
  2
BLOCKS
  0
BLOCK
  5
20
330
1F
100
AcDbEntity
  8
0
100
AcDbBlockBegin
  2
*Model_Space
 70
    0
 10
0
 20
0
 30
0
  3
*Model_Space
  1

  0
ENDBLK
  5
21
330
1F
100
AcDbEntity
  8
0
100
AcDbBlockEnd
  0
BLOCK
  5
1C
330
1B
100
AcDbEntity
  8
0
100
AcDbBlockBegin
  2
*Paper_Space
 70
    0
 10
0
 20
0
 30
0
  3
*Paper_Space
  1

  0
ENDBLK
  5
1D
330
1F
100
AcDbEntity
  8
0
100
AcDbBlockEnd
  0
BLOCK
  5
72
330
71
100
AcDbEntity
  8
0
100
AcDbBlockBegin
  2
_ARCHTICK
 70
    0
 10
0
 20
0
  3
_ARCHTICK
  1

  0
LWPOLYLINE
  5
7A
100
AcDbEntity
  8
0
  6
ByBlock
 62
    0
370
   -1
100
AcDbPolyline
 90
    2
 70
    0
 43
0
 10
-0.5
 20
-0.5
 10
0.5
 20
0.5
  0
ENDBLK
  5
73
330
71
100
AcDbEntity
  8
0
100
AcDbBlockEnd
  0
BLOCK
  5
75
330
74
100
AcDbEntity
  8
0
100
AcDbBlockBegin
  2
_CLOSEDFILLED
 70
    0
 10
0
 20
0
  3
_CLOSEDFILLED
  1

  0
SOLID
  5
7B
100
AcDbEntity
  8
0
  6
ByBlock
 62
    0
370
   -1
100
AcDbTrace
 10
-1
 20
0.1643989837240254
 30
0
 11
0
 21
0
 31
0
 12
-1
 22
-0.1643989837240254
 32
0
 13
-1
 23
-0.1643989837240254
 33
0
  0
ENDBLK
  5
76
330
74
100
AcDbEntity
  8
0
100
AcDbBlockEnd
  0
BLOCK
  5
78
330
77
100
AcDbEntity
  8
0
100
AcDbBlockBegin
  2
_CLOSEDBLANK
 70
    0
 10
0
 20
0
  3
_CLOSEDBLANK
  1

  0
LWPOLYLINE
  5
7C
100
AcDbEntity
  8
0
  6
ByBlock
 62
    0
370
   -1
100
AcDbPolyline
 90
    3
 70
    1
 43
0
 10
-1
 20
0.1643989837240254
 10
0
 20
0
 10
-1
 20
-0.1643989837240254
  0
ENDBLK
  5
79
330
77
100
AcDbEntity
  8
0
100
AcDbBlockEnd
  0
ENDSEC
  0
SECTION
  2
ENTITIES
  0
TEXT
  5
7D
100
AcDbEntity
  8
ARQ_TEXTOS
  6
ByLayer
 62
  256
370
   -1
100
AcDbText
 10
1.5
 20
6.75
 30
0
 40
0.21
  1
ESCALERA
 50
0
 41
1
 51
0
  7
STANDARD
 71
    0
 72
    1
 11
1.5
 21
6.75
 31
0
210
0
220
0
230
1
100
AcDbText
 73
    2
  0
TEXT
  5
7E
100
AcDbEntity
  8
ARQ_TEXTOS
  6
ByLayer
 62
  256
370
   -1
100
AcDbText
 10
4.5
 20
6.89175
 30
0
 40
0.21
  1
COCINA
 50
0
 41
1
 51
0
  7
STANDARD
 71
    0
 72
    1
 11
4.5
 21
6.89175
 31
0
210
0
220
0
230
1
100
AcDbText
 73
    2
  0
TEXT
  5
7F
100
AcDbEntity
  8
ARQ_TEXTOS
  6
ByLayer
 62
  256
370
   -1
100
AcDbText
 10
4.5
 20
6.60825
 30
0
 40
0.21
  1
GRANDE
 50
0
 41
1
 51
0
  7
STANDARD
 71
    0
 72
    1
 11
4.5
 21
6.60825
 31
0
210
0
220
0
230
1
100
AcDbText
 73
    2
  0
TEXT
  5
80
100
AcDbEntity
  8
ARQ_TEXTOS
  6
ByLayer
 62
  256
370
   -1
100
AcDbText
 10
7.5
 20
6.89175
 30
0
 40
0.21
  1
OFICINA
 50
0
 41
1
 51
0
  7
STANDARD
 71
    0
 72
    1
 11
7.5
 21
6.89175
 31
0
210
0
220
0
230
1
100
AcDbText
 73
    2
  0
TEXT
  5
81
100
AcDbEntity
  8
ARQ_TEXTOS
  6
ByLayer
 62
  256
370
   -1
100
AcDbText
 10
7.5
 20
6.60825
 30
0
 40
0.21
  1
VARIOS
 50
0
 41
1
 51
0
  7
STANDARD
 71
    0
 72
    1
 11
7.5
 21
6.60825
 31
0
210
0
220
0
230
1
100
AcDbText
 73
    2
  0
TEXT
  5
82
100
AcDbEntity
  8
ARQ_TEXTOS
  6
ByLayer
 62
  256
370
   -1
100
AcDbText
 10
10.5
 20
6.89175
 30
0
 40
0.21
  1
CUARTO CON
 50
0
 41
1
 51
0
  7
STANDARD
 71
    0
 72
    1
 11
10.5
 21
6.89175
 31
0
210
0
220
0
230
1
100
AcDbText
 73
    2
  0
TEXT
  5
83
100
AcDbEntity
  8
ARQ_TEXTOS
  6
ByLayer
 62
  256
370
   -1
100
AcDbText
 10
10.5
 20
6.60825
 30
0
 40
0.21
  1
CAMA
 50
0
 41
1
 51
0
  7
STANDARD
 71
    0
 72
    1
 11
10.5
 21
6.60825
 31
0
210
0
220
0
230
1
100
AcDbText
 73
    2
  0
TEXT
  5
84
100
AcDbEntity
  8
ARQ_TEXTOS
  6
ByLayer
 62
  256
370
   -1
100
AcDbText
 10
13.5
 20
6.75
 30
0
 40
0.21
  1
SALA
 50
0
 41
1
 51
0
  7
STANDARD
 71
    0
 72
    1
 11
13.5
 21
6.75
 31
0
210
0
220
0
230
1
100
AcDbText
 73
    2
  0
TEXT
  5
85
100
AcDbEntity
  8
ARQ_TEXTOS
  6
ByLayer
 62
  256
370
   -1
100
AcDbText
 10
3.75
 20
3.75
 30
0
 40
0.21
  1
PASADIZO
 50
0
 41
1
 51
0
  7
STANDARD
 71
    0
 72
    1
 11
3.75
 21
3.75
 31
0
210
0
220
0
230
1
100
AcDbText
 73
    2
  0
TEXT
  5
86
100
AcDbEntity
  8
ARQ_TEXTOS
  6
ByLayer
 62
  256
370
   -1
100
AcDbText
 10
8.25
 20
1.5
 30
0
 40
0.21
  1
BAÑO
 50
0
 41
1
 51
0
  7
STANDARD
 71
    0
 72
    1
 11
8.25
 21
1.5
 31
0
210
0
220
0
230
1
100
AcDbText
 73
    2
  0
TEXT
  5
87
100
AcDbEntity
  8
ARQ_TEXTOS
  6
ByLayer
 62
  256
370
   -1
100
AcDbText
 10
12
 20
1.64175
 30
0
 40
0.21
  1
CUARTO CON
 50
0
 41
1
 51
0
  7
STANDARD
 71
    0
 72
    1
 11
12
 21
1.64175
 31
0
210
0
220
0
230
1
100
AcDbText
 73
    2
  0
TEXT
  5
88
100
AcDbEntity
  8
ARQ_TEXTOS
  6
ByLayer
 62
  256
370
   -1
100
AcDbText
 10
12
 20
1.35825
 30
0
 40
0.21
  1
CAMA
 50
0
 41
1
 51
0
  7
STANDARD
 71
    0
 72
    1
 11
12
 21
1.35825
 31
0
210
0
220
0
230
1
100
AcDbText
 73
    2
  0
LINE
  5
89
100
AcDbEntity
  8
ARQ_MUROS
  6
ByLayer
 62
  256
370
   -1
100
AcDbLine
 10
-0.075
 20
3
 11
-0.075
 21
9
  0
LINE
  5
8A
100
AcDbEntity
  8
ARQ_MUROS
  6
ByLayer
 62
  256
370
   -1
100
AcDbLine
 10
0.075
 20
3
 11
0.075
 21
9
  0
LINE
  5
8B
100
AcDbEntity
  8
ARQ_MUROS
  6
ByLayer
 62
  256
370
   -1
100
AcDbLine
 10
0
 20
8.925000000000001
 11
15
 21
8.925000000000001
  0
LINE
  5
8C
100
AcDbEntity
  8
ARQ_MUROS
  6
ByLayer
 62
  256
370
   -1
100
AcDbLine
 10
0
 20
9.074999999999999
 11
15
 21
9.074999999999999
  0
LINE
  5
8D
100
AcDbEntity
  8
ARQ_MUROS
  6
ByLayer
 62
  256
370
   -1
100
AcDbLine
 10
14.925
 20
9
 11
14.925
 21
0
  0
LINE
  5
8E
100
AcDbEntity
  8
ARQ_MUROS
  6
ByLayer
 62
  256
370
   -1
100
AcDbLine
 10
15.075
 20
9
 11
15.075
 21
0
  0
LINE
  5
8F
100
AcDbEntity
  8
ARQ_MUROS
  6
ByLayer
 62
  256
370
   -1
100
AcDbLine
 10
15
 20
-0.075
 11
7.5
 21
-0.075
  0
LINE
  5
90
100
AcDbEntity
  8
ARQ_MUROS
  6
ByLayer
 62
  256
370
   -1
100
AcDbLine
 10
15
 20
0.075
 11
7.5
 21
0.075
  0
LINE
  5
91
100
AcDbEntity
  8
ARQ_MUROS
  6
ByLayer
 62
  256
370
   -1
100
AcDbLine
 10
7.425
 20
0
 11
7.425
 21
3
  0
LINE
  5
92
100
AcDbEntity
  8
ARQ_MUROS
  6
ByLayer
 62
  256
370
   -1
100
AcDbLine
 10
7.575
 20
0
 11
7.575
 21
3
  0
LINE
  5
93
100
AcDbEntity
  8
ARQ_MUROS
  6
ByLayer
 62
  256
370
   -1
100
AcDbLine
 10
7.5
 20
2.925
 11
0
 21
2.925
  0
LINE
  5
94
100
AcDbEntity
  8
ARQ_MUROS
  6
ByLayer
 62
  256
370
   -1
100
AcDbLine
 10
7.5
 20
3.075
 11
0
 21
3.075
  0
LINE
  5
95
100
AcDbEntity
  8
ARQ_MUROS
  6
ByLayer
 62
  256
370
   -1
100
AcDbLine
 10
2.925
 20
4.5
 11
2.925
 21
9
  0
LINE
  5
96
100
AcDbEntity
  8
ARQ_MUROS
  6
ByLayer
 62
  256
370
   -1
100
AcDbLine
 10
3.075
 20
4.5
 11
3.075
 21
9
  0
LINE
  5
97
100
AcDbEntity
  8
ARQ_MUROS
  6
ByLayer
 62
  256
370
   -1
100
AcDbLine
 10
5.925
 20
4.5
 11
5.925
 21
9
  0
LINE
  5
98
100
AcDbEntity
  8
ARQ_MUROS
  6
ByLayer
 62
  256
370
   -1
100
AcDbLine
 10
6.075
 20
4.5
 11
6.075
 21
9
  0
LINE
  5
99
100
AcDbEntity
  8
ARQ_MUROS
  6
ByLayer
 62
  256
370
   -1
100
AcDbLine
 10
8.925000000000001
 20
4.5
 11
8.925000000000001
 21
9
  0
LINE
  5
9A
100
AcDbEntity
  8
ARQ_MUROS
  6
ByLayer
 62
  256
370
   -1
100
AcDbLine
 10
9.074999999999999
 20
4.5
 11
9.074999999999999
 21
9
  0
LINE
  5
9B
100
AcDbEntity
  8
ARQ_MUROS
  6
ByLayer
 62
  256
370
   -1
100
AcDbLine
 10
11.925
 20
4.5
 11
11.925
 21
9
  0
LINE
  5
9C
100
AcDbEntity
  8
ARQ_MUROS
  6
ByLayer
 62
  256
370
   -1
100
AcDbLine
 10
12.075
 20
4.5
 11
12.075
 21
9
  0
LINE
  5
9D
100
AcDbEntity
  8
ARQ_MUROS
  6
ByLayer
 62
  256
370
   -1
100
AcDbLine
 10
0
 20
4.425
 11
5.2
 21
4.425
  0
LINE
  5
9E
100
AcDbEntity
  8
ARQ_MUROS
  6
ByLayer
 62
  256
370
   -1
100
AcDbLine
 10
0
 20
4.575
 11
5.2
 21
4.575
  0
LINE
  5
9F
100
AcDbEntity
  8
ARQ_MUROS
  6
ByLayer
 62
  256
370
   -1
100
AcDbLine
 10
6.8
 20
4.425
 11
9
 21
4.425
  0
LINE
  5
A0
100
AcDbEntity
  8
ARQ_MUROS
  6
ByLayer
 62
  256
370
   -1
100
AcDbLine
 10
6.8
 20
4.575
 11
9
 21
4.575
  0
LINE
  5
A1
100
AcDbEntity
  8
ARQ_MUROS
  6
ByLayer
 62
  256
370
   -1
100
AcDbLine
 10
9.800000000000001
 20
4.425
 11
12
 21
4.425
  0
LINE
  5
A2
100
AcDbEntity
  8
ARQ_MUROS
  6
ByLayer
 62
  256
370
   -1
100
AcDbLine
 10
9.800000000000001
 20
4.575
 11
12
 21
4.575
  0
LINE
  5
A3
100
AcDbEntity
  8
ARQ_MUROS
  6
ByLayer
 62
  256
370
   -1
100
AcDbLine
 10
12.8
 20
4.425
 11
15
 21
4.425
  0
LINE
  5
A4
100
AcDbEntity
  8
ARQ_MUROS
  6
ByLayer
 62
  256
370
   -1
100
AcDbLine
 10
12.8
 20
4.575
 11
15
 21
4.575
  0
LINE
  5
A5
100
AcDbEntity
  8
ARQ_MUROS
  6
ByLayer
 62
  256
370
   -1
100
AcDbLine
 10
8.925000000000001
 20
0
 11
8.925000000000001
 21
3
  0
LINE
  5
A6
100
AcDbEntity
  8
ARQ_MUROS
  6
ByLayer
 62
  256
370
   -1
100
AcDbLine
 10
9.074999999999999
 20
0
 11
9.074999999999999
 21
3
  0
LINE
  5
A7
100
AcDbEntity
  8
ARQ_MUROS
  6
ByLayer
 62
  256
370
   -1
100
AcDbLine
 10
7.5
 20
2.925
 11
7.7
 21
2.925
  0
LINE
  5
A8
100
AcDbEntity
  8
ARQ_MUROS
  6
ByLayer
 62
  256
370
   -1
100
AcDbLine
 10
7.5
 20
3.075
 11
7.7
 21
3.075
  0
LINE
  5
A9
100
AcDbEntity
  8
ARQ_MUROS
  6
ByLayer
 62
  256
370
   -1
100
AcDbLine
 10
8.4
 20
2.925
 11
9
 21
2.925
  0
LINE
  5
AA
100
AcDbEntity
  8
ARQ_MUROS
  6
ByLayer
 62
  256
370
   -1
100
AcDbLine
 10
8.4
 20
3.075
 11
9
 21
3.075
  0
LINE
  5
AB
100
AcDbEntity
  8
ARQ_MUROS
  6
ByLayer
 62
  256
370
   -1
100
AcDbLine
 10
10.2
 20
2.925
 11
12.8
 21
2.925
  0
LINE
  5
AC
100
AcDbEntity
  8
ARQ_MUROS
  6
ByLayer
 62
  256
370
   -1
100
AcDbLine
 10
10.2
 20
3.075
 11
12.8
 21
3.075
  0
LINE
  5
AD
100
AcDbEntity
  8
ARQ_MUROS
  6
ByLayer
 62
  256
370
   -1
100
AcDbLine
 10
12.725
 20
3
 11
12.725
 21
4.5
  0
LINE
  5
AE
100
AcDbEntity
  8
ARQ_MUROS
  6
ByLayer
 62
  256
370
   -1
100
AcDbLine
 10
12.875
 20
3
 11
12.875
 21
4.5
  0
LINE
  5
AF
100
AcDbEntity
  8
ARQ_PUERTAS
  6
ByLayer
 62
  256
370
   -1
100
AcDbLine
 10
6
 20
4.5
 11
6
 21
5.3
  0
ARC
  5
B0
100
AcDbEntity
  8
ARQ_PUERTAS
  6
ByLayer
 62
  256
370
   -1
100
AcDbCircle
 10
6
 20
4.5
 40
0.8
100
AcDbArc
 50
90
 51
180
  0
LINE
  5
B1
100
AcDbEntity
  8
ARQ_PUERTAS
  6
ByLayer
 62
  256
370
   -1
100
AcDbLine
 10
6
 20
4.5
 11
6
 21
5.3
  0
ARC
  5
B2
100
AcDbEntity
  8
ARQ_PUERTAS
  6
ByLayer
 62
  256
370
   -1
100
AcDbCircle
 10
6
 20
4.5
 40
0.8
100
AcDbArc
 50
0
 51
90
  0
LINE
  5
B3
100
AcDbEntity
  8
ARQ_PUERTAS
  6
ByLayer
 62
  256
370
   -1
100
AcDbLine
 10
9
 20
4.5
 11
9
 21
5.3
  0
ARC
  5
B4
100
AcDbEntity
  8
ARQ_PUERTAS
  6
ByLayer
 62
  256
370
   -1
100
AcDbCircle
 10
9
 20
4.5
 40
0.8
100
AcDbArc
 50
0
 51
90
  0
LINE
  5
B5
100
AcDbEntity
  8
ARQ_PUERTAS
  6
ByLayer
 62
  256
370
   -1
100
AcDbLine
 10
12
 20
4.5
 11
12
 21
5.3
  0
ARC
  5
B6
100
AcDbEntity
  8
ARQ_PUERTAS
  6
ByLayer
 62
  256
370
   -1
100
AcDbCircle
 10
12
 20
4.5
 40
0.8
100
AcDbArc
 50
0
 51
90
  0
LINE
  5
B7
100
AcDbEntity
  8
ARQ_PUERTAS
  6
ByLayer
 62
  256
370
   -1
100
AcDbLine
 10
8.4
 20
3
 11
8.4
 21
2.3
  0
ARC
  5
B8
100
AcDbEntity
  8
ARQ_PUERTAS
  6
ByLayer
 62
  256
370
   -1
100
AcDbCircle
 10
8.4
 20
3
 40
0.7
100
AcDbArc
 50
180
 51
270
  0
LINE
  5
B9
100
AcDbEntity
  8
ARQ_PUERTAS
  6
ByLayer
 62
  256
370
   -1
100
AcDbLine
 10
10.2
 20
3
 11
10.2
 21
2.2
  0
ARC
  5
BA
100
AcDbEntity
  8
ARQ_PUERTAS
  6
ByLayer
 62
  256
370
   -1
100
AcDbCircle
 10
10.2
 20
3
 40
0.8
100
AcDbArc
 50
180
 51
270
  0
LINE
  5
BB
100
AcDbEntity
  8
ARQ_VENTANAS
  6
ByLayer
 62
  256
370
   -1
100
AcDbLine
 10
4
 20
8.925000000000001
 11
5.2
 21
8.925000000000001
  0
LINE
  5
BC
100
AcDbEntity
  8
ARQ_VENTANAS
  6
ByLayer
 62
  256
370
   -1
100
AcDbLine
 10
5.2
 20
8.925000000000001
 11
5.2
 21
9.074999999999999
  0
LINE
  5
BD
100
AcDbEntity
  8
ARQ_VENTANAS
  6
ByLayer
 62
  256
370
   -1
100
AcDbLine
 10
5.2
 20
9.074999999999999
 11
4
 21
9.074999999999999
  0
LINE
  5
BE
100
AcDbEntity
  8
ARQ_VENTANAS
  6
ByLayer
 62
  256
370
   -1
100
AcDbLine
 10
4
 20
9.074999999999999
 11
4
 21
8.925000000000001
  0
LINE
  5
BF
100
AcDbEntity
  8
ARQ_VENTANAS
  6
ByLayer
 62
  256
370
   -1
100
AcDbLine
 10
4
 20
9
 11
5.2
 21
9
  0
LINE
  5
C0
100
AcDbEntity
  8
ARQ_VENTANAS
  6
ByLayer
 62
  256
370
   -1
100
AcDbLine
 10
14.925
 20
5.4
 11
15.075
 21
5.4
  0
LINE
  5
C1
100
AcDbEntity
  8
ARQ_VENTANAS
  6
ByLayer
 62
  256
370
   -1
100
AcDbLine
 10
15.075
 20
5.4
 11
15.075
 21
8
  0
LINE
  5
C2
100
AcDbEntity
  8
ARQ_VENTANAS
  6
ByLayer
 62
  256
370
   -1
100
AcDbLine
 10
15.075
 20
8
 11
14.925
 21
8
  0
LINE
  5
C3
100
AcDbEntity
  8
ARQ_VENTANAS
  6
ByLayer
 62
  256
370
   -1
100
AcDbLine
 10
14.925
 20
8
 11
14.925
 21
5.4
  0
LINE
  5
C4
100
AcDbEntity
  8
ARQ_VENTANAS
  6
ByLayer
 62
  256
370
   -1
100
AcDbLine
 10
15
 20
5.4
 11
15
 21
8
  0
LINE
  5
C5
100
AcDbEntity
  8
ARQ_VENTANAS
  6
ByLayer
 62
  256
370
   -1
100
AcDbLine
 10
14.925
 20
0.5
 11
15.075
 21
0.5
  0
LINE
  5
C6
100
AcDbEntity
  8
ARQ_VENTANAS
  6
ByLayer
 62
  256
370
   -1
100
AcDbLine
 10
15.075
 20
0.5
 11
15.075
 21
2.9
  0
LINE
  5
C7
100
AcDbEntity
  8
ARQ_VENTANAS
  6
ByLayer
 62
  256
370
   -1
100
AcDbLine
 10
15.075
 20
2.9
 11
14.925
 21
2.9
  0
LINE
  5
C8
100
AcDbEntity
  8
ARQ_VENTANAS
  6
ByLayer
 62
  256
370
   -1
100
AcDbLine
 10
14.925
 20
2.9
 11
14.925
 21
0.5
  0
LINE
  5
C9
100
AcDbEntity
  8
ARQ_VENTANAS
  6
ByLayer
 62
  256
370
   -1
100
AcDbLine
 10
15
 20
0.5
 11
15
 21
2.9
  0
LINE
  5
CA
100
AcDbEntity
  8
ARQ_VENTANAS
  6
ByLayer
 62
  256
370
   -1
100
AcDbLine
 10
9.5
 20
-0.075
 11
14.3
 21
-0.075
  0
LINE
  5
CB
100
AcDbEntity
  8
ARQ_VENTANAS
  6
ByLayer
 62
  256
370
   -1
100
AcDbLine
 10
14.3
 20
-0.075
 11
14.3
 21
0.075
  0
LINE
  5
CC
100
AcDbEntity
  8
ARQ_VENTANAS
  6
ByLayer
 62
  256
370
   -1
100
AcDbLine
 10
14.3
 20
0.075
 11
9.5
 21
0.075
  0
LINE
  5
CD
100
AcDbEntity
  8
ARQ_VENTANAS
  6
ByLayer
 62
  256
370
   -1
100
AcDbLine
 10
9.5
 20
0.075
 11
9.5
 21
-0.075
  0
LINE
  5
CE
100
AcDbEntity
  8
ARQ_VENTANAS
  6
ByLayer
 62
  256
370
   -1
100
AcDbLine
 10
9.5
 20
0
 11
14.3
 21
0
  0
LINE
  5
CF
100
AcDbEntity
  8
ARQ_VENTANAS
  6
ByLayer
 62
  256
370
   -1
100
AcDbLine
 10
8
 20
-0.075
 11
8.699999999999999
 21
-0.075
  0
LINE
  5
D0
100
AcDbEntity
  8
ARQ_VENTANAS
  6
ByLayer
 62
  256
370
   -1
100
AcDbLine
 10
8.699999999999999
 20
-0.075
 11
8.699999999999999
 21
0.075
  0
LINE
  5
D1
100
AcDbEntity
  8
ARQ_VENTANAS
  6
ByLayer
 62
  256
370
   -1
100
AcDbLine
 10
8.699999999999999
 20
0.075
 11
8
 21
0.075
  0
LINE
  5
D2
100
AcDbEntity
  8
ARQ_VENTANAS
  6
ByLayer
 62
  256
370
   -1
100
AcDbLine
 10
8
 20
0.075
 11
8
 21
-0.075
  0
LINE
  5
D3
100
AcDbEntity
  8
ARQ_VENTANAS
  6
ByLayer
 62
  256
370
   -1
100
AcDbLine
 10
8
 20
0
 11
8.699999999999999
 21
0
  0
LINE
  5
D4
100
AcDbEntity
  8
ARQ_ESCALERAS
  6
ByLayer
 62
  256
370
   -1
100
AcDbLine
 10
0.25
 20
4.85
 11
1.35
 21
4.85
  0
LINE
  5
D5
100
AcDbEntity
  8
ARQ_ESCALERAS
  6
ByLayer
 62
  256
370
   -1
100
AcDbLine
 10
0.25
 20
5.25
 11
1.35
 21
5.25
  0
LINE
  5
D6
100
AcDbEntity
  8
ARQ_ESCALERAS
  6
ByLayer
 62
  256
370
   -1
100
AcDbLine
 10
0.25
 20
5.65
 11
1.35
 21
5.65
  0
LINE
  5
D7
100
AcDbEntity
  8
ARQ_ESCALERAS
  6
ByLayer
 62
  256
370
   -1
100
AcDbLine
 10
0.25
 20
6.05
 11
1.35
 21
6.05
  0
LINE
  5
D8
100
AcDbEntity
  8
ARQ_ESCALERAS
  6
ByLayer
 62
  256
370
   -1
100
AcDbLine
 10
0.25
 20
6.45
 11
1.35
 21
6.45
  0
LINE
  5
D9
100
AcDbEntity
  8
ARQ_ESCALERAS
  6
ByLayer
 62
  256
370
   -1
100
AcDbLine
 10
0.25
 20
6.85
 11
1.35
 21
6.85
  0
LINE
  5
DA
100
AcDbEntity
  8
ARQ_ESCALERAS
  6
ByLayer
 62
  256
370
   -1
100
AcDbLine
 10
1.65
 20
4.85
 11
2.75
 21
4.85
  0
LINE
  5
DB
100
AcDbEntity
  8
ARQ_ESCALERAS
  6
ByLayer
 62
  256
370
   -1
100
AcDbLine
 10
1.65
 20
5.25
 11
2.75
 21
5.25
  0
LINE
  5
DC
100
AcDbEntity
  8
ARQ_ESCALERAS
  6
ByLayer
 62
  256
370
   -1
100
AcDbLine
 10
1.65
 20
5.65
 11
2.75
 21
5.65
  0
LINE
  5
DD
100
AcDbEntity
  8
ARQ_ESCALERAS
  6
ByLayer
 62
  256
370
   -1
100
AcDbLine
 10
1.65
 20
6.05
 11
2.75
 21
6.05
  0
LINE
  5
DE
100
AcDbEntity
  8
ARQ_ESCALERAS
  6
ByLayer
 62
  256
370
   -1
100
AcDbLine
 10
1.65
 20
6.45
 11
2.75
 21
6.45
  0
LINE
  5
DF
100
AcDbEntity
  8
ARQ_ESCALERAS
  6
ByLayer
 62
  256
370
   -1
100
AcDbLine
 10
0.72
 20
4.85
 11
0.72
 21
6.85
  0
LINE
  5
E0
100
AcDbEntity
  8
ARQ_ESCALERAS
  6
ByLayer
 62
  256
370
   -1
100
AcDbLine
 10
2.2
 20
6.85
 11
2.2
 21
4.85
  0
LINE
  5
E1
100
AcDbEntity
  8
ARQ_MOBILIARIO
  6
ByLayer
 62
  256
370
   -1
100
AcDbLine
 10
3.25
 20
5
 11
3.95
 21
5
  0
LINE
  5
E2
100
AcDbEntity
  8
ARQ_MOBILIARIO
  6
ByLayer
 62
  256
370
   -1
100
AcDbLine
 10
3.95
 20
5
 11
3.95
 21
8.199999999999999
  0
LINE
  5
E3
100
AcDbEntity
  8
ARQ_MOBILIARIO
  6
ByLayer
 62
  256
370
   -1
100
AcDbLine
 10
3.95
 20
8.199999999999999
 11
3.25
 21
8.199999999999999
  0
LINE
  5
E4
100
AcDbEntity
  8
ARQ_MOBILIARIO
  6
ByLayer
 62
  256
370
   -1
100
AcDbLine
 10
3.25
 20
8.199999999999999
 11
3.25
 21
5
  0
LINE
  5
E5
100
AcDbEntity
  8
ARQ_MOBILIARIO
  6
ByLayer
 62
  256
370
   -1
100
AcDbLine
 10
3.35
 20
5.5
 11
3.9
 21
5.5
  0
LINE
  5
E6
100
AcDbEntity
  8
ARQ_MOBILIARIO
  6
ByLayer
 62
  256
370
   -1
100
AcDbLine
 10
3.9
 20
5.5
 11
3.9
 21
6.05
  0
LINE
  5
E7
100
AcDbEntity
  8
ARQ_MOBILIARIO
  6
ByLayer
 62
  256
370
   -1
100
AcDbLine
 10
3.9
 20
6.05
 11
3.35
 21
6.05
  0
LINE
  5
E8
100
AcDbEntity
  8
ARQ_MOBILIARIO
  6
ByLayer
 62
  256
370
   -1
100
AcDbLine
 10
3.35
 20
6.05
 11
3.35
 21
5.5
  0
CIRCLE
  5
E9
100
AcDbEntity
  8
ARQ_MOBILIARIO
  6
ByLayer
 62
  256
370
   -1
100
AcDbCircle
 10
3.515
 20
5.665
 40
0.066
  0
CIRCLE
  5
EA
100
AcDbEntity
  8
ARQ_MOBILIARIO
  6
ByLayer
 62
  256
370
   -1
100
AcDbCircle
 10
3.735
 20
5.665
 40
0.066
  0
CIRCLE
  5
EB
100
AcDbEntity
  8
ARQ_MOBILIARIO
  6
ByLayer
 62
  256
370
   -1
100
AcDbCircle
 10
3.515
 20
5.885
 40
0.066
  0
CIRCLE
  5
EC
100
AcDbEntity
  8
ARQ_MOBILIARIO
  6
ByLayer
 62
  256
370
   -1
100
AcDbCircle
 10
3.735
 20
5.885
 40
0.066
  0
LINE
  5
ED
100
AcDbEntity
  8
ARQ_MOBILIARIO
  6
ByLayer
 62
  256
370
   -1
100
AcDbLine
 10
4.15
 20
8.050000000000001
 11
5.350000000000001
 21
8.050000000000001
  0
LINE
  5
EE
100
AcDbEntity
  8
ARQ_MOBILIARIO
  6
ByLayer
 62
  256
370
   -1
100
AcDbLine
 10
5.350000000000001
 20
8.050000000000001
 11
5.350000000000001
 21
8.5
  0
LINE
  5
EF
100
AcDbEntity
  8
ARQ_MOBILIARIO
  6
ByLayer
 62
  256
370
   -1
100
AcDbLine
 10
5.350000000000001
 20
8.5
 11
4.15
 21
8.5
  0
LINE
  5
F0
100
AcDbEntity
  8
ARQ_MOBILIARIO
  6
ByLayer
 62
  256
370
   -1
100
AcDbLine
 10
4.15
 20
8.5
 11
4.15
 21
8.050000000000001
  0
ELLIPSE
  5
F1
100
AcDbEntity
  8
ARQ_MOBILIARIO
  6
ByLayer
 62
  256
370
   -1
100
AcDbEllipse
 10
4.75
 20
8.275
 30
0
 11
0.384
 21
0
 31
0
 40
0.20625
 41
0
 42
6.283185307179586
  0
LINE
  5
F2
100
AcDbEntity
  8
ARQ_MOBILIARIO
  6
ByLayer
 62
  256
370
   -1
100
AcDbLine
 10
6.95
 20
5.5
 11
7.95
 21
5.5
  0
LINE
  5
F3
100
AcDbEntity
  8
ARQ_MOBILIARIO
  6
ByLayer
 62
  256
370
   -1
100
AcDbLine
 10
7.95
 20
5.5
 11
7.95
 21
6.5
  0
LINE
  5
F4
100
AcDbEntity
  8
ARQ_MOBILIARIO
  6
ByLayer
 62
  256
370
   -1
100
AcDbLine
 10
7.95
 20
6.5
 11
6.95
 21
6.5
  0
LINE
  5
F5
100
AcDbEntity
  8
ARQ_MOBILIARIO
  6
ByLayer
 62
  256
370
   -1
100
AcDbLine
 10
6.95
 20
6.5
 11
6.95
 21
5.5
  0
LINE
  5
F6
100
AcDbEntity
  8
ARQ_MOBILIARIO
  6
ByLayer
 62
  256
370
   -1
100
AcDbLine
 10
6.95
 20
7
 11
7.95
 21
7
  0
LINE
  5
F7
100
AcDbEntity
  8
ARQ_MOBILIARIO
  6
ByLayer
 62
  256
370
   -1
100
AcDbLine
 10
7.95
 20
7
 11
7.95
 21
8
  0
LINE
  5
F8
100
AcDbEntity
  8
ARQ_MOBILIARIO
  6
ByLayer
 62
  256
370
   -1
100
AcDbLine
 10
7.95
 20
8
 11
6.95
 21
8
  0
LINE
  5
F9
100
AcDbEntity
  8
ARQ_MOBILIARIO
  6
ByLayer
 62
  256
370
   -1
100
AcDbLine
 10
6.95
 20
8
 11
6.95
 21
7
  0
LINE
  5
FA
100
AcDbEntity
  8
ARQ_MOBILIARIO
  6
ByLayer
 62
  256
370
   -1
100
AcDbLine
 10
10.5
 20
6
 11
11.5
 21
6
  0
LINE
  5
FB
100
AcDbEntity
  8
ARQ_MOBILIARIO
  6
ByLayer
 62
  256
370
   -1
100
AcDbLine
 10
11.5
 20
6
 11
11.5
 21
8
  0
LINE
  5
FC
100
AcDbEntity
  8
ARQ_MOBILIARIO
  6
ByLayer
 62
  256
370
   -1
100
AcDbLine
 10
11.5
 20
8
 11
10.5
 21
8
  0
LINE
  5
FD
100
AcDbEntity
  8
ARQ_MOBILIARIO
  6
ByLayer
 62
  256
370
   -1
100
AcDbLine
 10
10.5
 20
8
 11
10.5
 21
6
  0
LINE
  5
FE
100
AcDbEntity
  8
ARQ_MOBILIARIO
  6
ByLayer
 62
  256
370
   -1
100
AcDbLine
 10
10.6
 20
7.55
 11
11.4
 21
7.55
  0
LINE
  5
FF
100
AcDbEntity
  8
ARQ_MOBILIARIO
  6
ByLayer
 62
  256
370
   -1
100
AcDbLine
 10
11.4
 20
7.55
 11
11.4
 21
7.899999999999999
  0
LINE
  5
100
100
AcDbEntity
  8
ARQ_MOBILIARIO
  6
ByLayer
 62
  256
370
   -1
100
AcDbLine
 10
11.4
 20
7.899999999999999
 11
10.6
 21
7.899999999999999
  0
LINE
  5
101
100
AcDbEntity
  8
ARQ_MOBILIARIO
  6
ByLayer
 62
  256
370
   -1
100
AcDbLine
 10
10.6
 20
7.899999999999999
 11
10.6
 21
7.55
  0
LINE
  5
102
100
AcDbEntity
  8
ARQ_MOBILIARIO
  6
ByLayer
 62
  256
370
   -1
100
AcDbLine
 10
10.65
 20
7.45
 11
11.35
 21
7.45
  0
LINE
  5
103
100
AcDbEntity
  8
ARQ_MOBILIARIO
  6
ByLayer
 62
  256
370
   -1
100
AcDbLine
 10
12.25
 20
7.85
 11
14.05
 21
7.85
  0
LINE
  5
104
100
AcDbEntity
  8
ARQ_MOBILIARIO
  6
ByLayer
 62
  256
370
   -1
100
AcDbLine
 10
14.05
 20
7.85
 11
14.05
 21
8.4
  0
LINE
  5
105
100
AcDbEntity
  8
ARQ_MOBILIARIO
  6
ByLayer
 62
  256
370
   -1
100
AcDbLine
 10
14.05
 20
8.4
 11
12.25
 21
8.4
  0
LINE
  5
106
100
AcDbEntity
  8
ARQ_MOBILIARIO
  6
ByLayer
 62
  256
370
   -1
100
AcDbLine
 10
12.25
 20
8.4
 11
12.25
 21
7.85
  0
LINE
  5
107
100
AcDbEntity
  8
ARQ_MOBILIARIO
  6
ByLayer
 62
  256
370
   -1
100
AcDbLine
 10
12.35
 20
7.949999999999999
 11
13.95
 21
7.949999999999999
  0
LINE
  5
108
100
AcDbEntity
  8
ARQ_MOBILIARIO
  6
ByLayer
 62
  256
370
   -1
100
AcDbLine
 10
13.95
 20
7.949999999999999
 11
13.95
 21
8.299999999999999
  0
LINE
  5
109
100
AcDbEntity
  8
ARQ_MOBILIARIO
  6
ByLayer
 62
  256
370
   -1
100
AcDbLine
 10
13.95
 20
8.299999999999999
 11
12.35
 21
8.299999999999999
  0
LINE
  5
10A
100
AcDbEntity
  8
ARQ_MOBILIARIO
  6
ByLayer
 62
  256
370
   -1
100
AcDbLine
 10
12.35
 20
8.299999999999999
 11
12.35
 21
7.949999999999999
  0
LINE
  5
10B
100
AcDbEntity
  8
ARQ_MOBILIARIO
  6
ByLayer
 62
  256
370
   -1
100
AcDbLine
 10
13.15
 20
7.949999999999999
 11
13.15
 21
8.300000000000001
  0
LINE
  5
10C
100
AcDbEntity
  8
ARQ_MOBILIARIO
  6
ByLayer
 62
  256
370
   -1
100
AcDbLine
 10
12.1
 20
5.65
 11
12.65
 21
5.65
  0
LINE
  5
10D
100
AcDbEntity
  8
ARQ_MOBILIARIO
  6
ByLayer
 62
  256
370
   -1
100
AcDbLine
 10
12.65
 20
5.65
 11
12.65
 21
6.850000000000001
  0
LINE
  5
10E
100
AcDbEntity
  8
ARQ_MOBILIARIO
  6
ByLayer
 62
  256
370
   -1
100
AcDbLine
 10
12.65
 20
6.850000000000001
 11
12.1
 21
6.850000000000001
  0
LINE
  5
10F
100
AcDbEntity
  8
ARQ_MOBILIARIO
  6
ByLayer
 62
  256
370
   -1
100
AcDbLine
 10
12.1
 20
6.850000000000001
 11
12.1
 21
5.65
  0
LINE
  5
110
100
AcDbEntity
  8
ARQ_MOBILIARIO
  6
ByLayer
 62
  256
370
   -1
100
AcDbLine
 10
12.2
 20
5.75
 11
12.55
 21
5.75
  0
LINE
  5
111
100
AcDbEntity
  8
ARQ_MOBILIARIO
  6
ByLayer
 62
  256
370
   -1
100
AcDbLine
 10
12.55
 20
5.75
 11
12.55
 21
6.75
  0
LINE
  5
112
100
AcDbEntity
  8
ARQ_MOBILIARIO
  6
ByLayer
 62
  256
370
   -1
100
AcDbLine
 10
12.55
 20
6.75
 11
12.2
 21
6.75
  0
LINE
  5
113
100
AcDbEntity
  8
ARQ_MOBILIARIO
  6
ByLayer
 62
  256
370
   -1
100
AcDbLine
 10
12.2
 20
6.75
 11
12.2
 21
5.75
  0
LINE
  5
114
100
AcDbEntity
  8
ARQ_MOBILIARIO
  6
ByLayer
 62
  256
370
   -1
100
AcDbLine
 10
12.2
 20
6.25
 11
12.55
 21
6.25
  0
LINE
  5
115
100
AcDbEntity
  8
ARQ_MOBILIARIO
  6
ByLayer
 62
  256
370
   -1
100
AcDbLine
 10
14.1
 20
5.65
 11
14.65
 21
5.65
  0
LINE
  5
116
100
AcDbEntity
  8
ARQ_MOBILIARIO
  6
ByLayer
 62
  256
370
   -1
100
AcDbLine
 10
14.65
 20
5.65
 11
14.65
 21
6.850000000000001
  0
LINE
  5
117
100
AcDbEntity
  8
ARQ_MOBILIARIO
  6
ByLayer
 62
  256
370
   -1
100
AcDbLine
 10
14.65
 20
6.850000000000001
 11
14.1
 21
6.850000000000001
  0
LINE
  5
118
100
AcDbEntity
  8
ARQ_MOBILIARIO
  6
ByLayer
 62
  256
370
   -1
100
AcDbLine
 10
14.1
 20
6.850000000000001
 11
14.1
 21
5.65
  0
LINE
  5
119
100
AcDbEntity
  8
ARQ_MOBILIARIO
  6
ByLayer
 62
  256
370
   -1
100
AcDbLine
 10
14.2
 20
5.75
 11
14.55
 21
5.75
  0
LINE
  5
11A
100
AcDbEntity
  8
ARQ_MOBILIARIO
  6
ByLayer
 62
  256
370
   -1
100
AcDbLine
 10
14.55
 20
5.75
 11
14.55
 21
6.75
  0
LINE
  5
11B
100
AcDbEntity
  8
ARQ_MOBILIARIO
  6
ByLayer
 62
  256
370
   -1
100
AcDbLine
 10
14.55
 20
6.75
 11
14.2
 21
6.75
  0
LINE
  5
11C
100
AcDbEntity
  8
ARQ_MOBILIARIO
  6
ByLayer
 62
  256
370
   -1
100
AcDbLine
 10
14.2
 20
6.75
 11
14.2
 21
5.75
  0
LINE
  5
11D
100
AcDbEntity
  8
ARQ_MOBILIARIO
  6
ByLayer
 62
  256
370
   -1
100
AcDbLine
 10
14.2
 20
6.25
 11
14.55
 21
6.25
  0
LINE
  5
11E
100
AcDbEntity
  8
ARQ_MOBILIARIO
  6
ByLayer
 62
  256
370
   -1
100
AcDbLine
 10
13.35
 20
5
 11
14
 21
5
  0
LINE
  5
11F
100
AcDbEntity
  8
ARQ_MOBILIARIO
  6
ByLayer
 62
  256
370
   -1
100
AcDbLine
 10
14
 20
5
 11
14
 21
5.65
  0
LINE
  5
120
100
AcDbEntity
  8
ARQ_MOBILIARIO
  6
ByLayer
 62
  256
370
   -1
100
AcDbLine
 10
14
 20
5.65
 11
13.35
 21
5.65
  0
LINE
  5
121
100
AcDbEntity
  8
ARQ_MOBILIARIO
  6
ByLayer
 62
  256
370
   -1
100
AcDbLine
 10
13.35
 20
5.65
 11
13.35
 21
5
  0
LINE
  5
122
100
AcDbEntity
  8
ARQ_MOBILIARIO
  6
ByLayer
 62
  256
370
   -1
100
AcDbLine
 10
8.25
 20
2
 11
8.800000000000001
 21
2
  0
LINE
  5
123
100
AcDbEntity
  8
ARQ_MOBILIARIO
  6
ByLayer
 62
  256
370
   -1
100
AcDbLine
 10
8.800000000000001
 20
2
 11
8.800000000000001
 21
2.45
  0
LINE
  5
124
100
AcDbEntity
  8
ARQ_MOBILIARIO
  6
ByLayer
 62
  256
370
   -1
100
AcDbLine
 10
8.800000000000001
 20
2.45
 11
8.25
 21
2.45
  0
LINE
  5
125
100
AcDbEntity
  8
ARQ_MOBILIARIO
  6
ByLayer
 62
  256
370
   -1
100
AcDbLine
 10
8.25
 20
2.45
 11
8.25
 21
2
  0
ELLIPSE
  5
126
100
AcDbEntity
  8
ARQ_MOBILIARIO
  6
ByLayer
 62
  256
370
   -1
100
AcDbEllipse
 10
8.525
 20
2.225
 30
0
 11
0.176
 21
0
 31
0
 40
0.45
 41
0
 42
6.283185307179586
  0
CIRCLE
  5
127
100
AcDbEntity
  8
ARQ_MOBILIARIO
  6
ByLayer
 62
  256
370
   -1
100
AcDbCircle
 10
7.925000000000001
 20
0.6475
 40
0.1375
  0
LINE
  5
128
100
AcDbEntity
  8
ARQ_MOBILIARIO
  6
ByLayer
 62
  256
370
   -1
100
AcDbLine
 10
7.760000000000001
 20
0.877
 11
8.09
 21
0.877
  0
LINE
  5
129
100
AcDbEntity
  8
ARQ_MOBILIARIO
  6
ByLayer
 62
  256
370
   -1
100
AcDbLine
 10
8.09
 20
0.877
 11
8.09
 21
1.064
  0
LINE
  5
12A
100
AcDbEntity
  8
ARQ_MOBILIARIO
  6
ByLayer
 62
  256
370
   -1
100
AcDbLine
 10
8.09
 20
1.064
 11
7.760000000000001
 21
1.064
  0
LINE
  5
12B
100
AcDbEntity
  8
ARQ_MOBILIARIO
  6
ByLayer
 62
  256
370
   -1
100
AcDbLine
 10
7.760000000000001
 20
1.064
 11
7.760000000000001
 21
0.877
  0
LINE
  5
12C
100
AcDbEntity
  8
ARQ_MOBILIARIO
  6
ByLayer
 62
  256
370
   -1
100
AcDbLine
 10
8.25
 20
0.45
 11
8.9
 21
0.45
  0
LINE
  5
12D
100
AcDbEntity
  8
ARQ_MOBILIARIO
  6
ByLayer
 62
  256
370
   -1
100
AcDbLine
 10
8.9
 20
0.45
 11
8.9
 21
1.4
  0
LINE
  5
12E
100
AcDbEntity
  8
ARQ_MOBILIARIO
  6
ByLayer
 62
  256
370
   -1
100
AcDbLine
 10
8.9
 20
1.4
 11
8.25
 21
1.4
  0
LINE
  5
12F
100
AcDbEntity
  8
ARQ_MOBILIARIO
  6
ByLayer
 62
  256
370
   -1
100
AcDbLine
 10
8.25
 20
1.4
 11
8.25
 21
0.45
  0
LINE
  5
130
100
AcDbEntity
  8
ARQ_MOBILIARIO
  6
ByLayer
 62
  256
370
   -1
100
AcDbLine
 10
8.327999999999999
 20
0.5640000000000001
 11
8.821999999999999
 21
1.286
  0
CIRCLE
  5
131
100
AcDbEntity
  8
ARQ_MOBILIARIO
  6
ByLayer
 62
  256
370
   -1
100
AcDbCircle
 10
8.757
 20
0.659
 40
0.039
  0
LINE
  5
132
100
AcDbEntity
  8
ARQ_MOBILIARIO
  6
ByLayer
 62
  256
370
   -1
100
AcDbLine
 10
13.8
 20
0.35
 11
14.8
 21
0.35
  0
LINE
  5
133
100
AcDbEntity
  8
ARQ_MOBILIARIO
  6
ByLayer
 62
  256
370
   -1
100
AcDbLine
 10
14.8
 20
0.35
 11
14.8
 21
2.15
  0
LINE
  5
134
100
AcDbEntity
  8
ARQ_MOBILIARIO
  6
ByLayer
 62
  256
370
   -1
100
AcDbLine
 10
14.8
 20
2.15
 11
13.8
 21
2.15
  0
LINE
  5
135
100
AcDbEntity
  8
ARQ_MOBILIARIO
  6
ByLayer
 62
  256
370
   -1
100
AcDbLine
 10
13.8
 20
2.15
 11
13.8
 21
0.35
  0
LINE
  5
136
100
AcDbEntity
  8
ARQ_MOBILIARIO
  6
ByLayer
 62
  256
370
   -1
100
AcDbLine
 10
13.9
 20
1.7
 11
14.7
 21
1.7
  0
LINE
  5
137
100
AcDbEntity
  8
ARQ_MOBILIARIO
  6
ByLayer
 62
  256
370
   -1
100
AcDbLine
 10
14.7
 20
1.7
 11
14.7
 21
2.05
  0
LINE
  5
138
100
AcDbEntity
  8
ARQ_MOBILIARIO
  6
ByLayer
 62
  256
370
   -1
100
AcDbLine
 10
14.7
 20
2.05
 11
13.9
 21
2.05
  0
LINE
  5
139
100
AcDbEntity
  8
ARQ_MOBILIARIO
  6
ByLayer
 62
  256
370
   -1
100
AcDbLine
 10
13.9
 20
2.05
 11
13.9
 21
1.7
  0
LINE
  5
13A
100
AcDbEntity
  8
ARQ_MOBILIARIO
  6
ByLayer
 62
  256
370
   -1
100
AcDbLine
 10
13.95
 20
1.6
 11
14.65
 21
1.6
  0
LINE
  5
13B
100
AcDbEntity
  8
ELEC_COTAS_REF
  6
ByLayer
 62
  256
370
   -1
100
AcDbLine
 10
0
 20
-1
 11
15
 21
-1
  0
LINE
  5
13C
100
AcDbEntity
  8
ELEC_COTAS_REF
  6
ByLayer
 62
  256
370
   -1
100
AcDbLine
 10
0
 20
0
 11
0
 21
-1.1
  0
LINE
  5
13D
100
AcDbEntity
  8
ELEC_COTAS_REF
  6
ByLayer
 62
  256
370
   -1
100
AcDbLine
 10
15
 20
0
 11
15
 21
-1.1
  0
LINE
  5
13E
100
AcDbEntity
  8
ELEC_COTAS_REF
  6
ByLayer
 62
  256
370
   -1
100
AcDbLine
 10
-0.12
 20
-1.12
 11
0.12
 21
-0.88
  0
LINE
  5
13F
100
AcDbEntity
  8
ELEC_COTAS_REF
  6
ByLayer
 62
  256
370
   -1
100
AcDbLine
 10
14.88
 20
-1.12
 11
15.12
 21
-0.88
  0
TEXT
  5
140
100
AcDbEntity
  8
ELEC_COTAS_REF
  6
ByLayer
 62
  256
370
   -1
100
AcDbText
 10
7.5
 20
-1.35
 30
0
 40
0.18
  1
ANCHO TOTAL: 15.00 m
 50
0
 41
1
 51
0
  7
STANDARD
 71
    0
 72
    1
 11
7.5
 21
-1.35
 31
0
210
0
220
0
230
1
100
AcDbText
 73
    2
  0
LINE
  5
141
100
AcDbEntity
  8
ELEC_COTAS_REF
  6
ByLayer
 62
  256
370
   -1
100
AcDbLine
 10
-1
 20
0
 11
-1
 21
9
  0
LINE
  5
142
100
AcDbEntity
  8
ELEC_COTAS_REF
  6
ByLayer
 62
  256
370
   -1
100
AcDbLine
 10
0
 20
0
 11
-1.1
 21
0
  0
LINE
  5
143
100
AcDbEntity
  8
ELEC_COTAS_REF
  6
ByLayer
 62
  256
370
   -1
100
AcDbLine
 10
0
 20
9
 11
-1.1
 21
9
  0
LINE
  5
144
100
AcDbEntity
  8
ELEC_COTAS_REF
  6
ByLayer
 62
  256
370
   -1
100
AcDbLine
 10
-1.12
 20
-0.12
 11
-0.88
 21
0.12
  0
LINE
  5
145
100
AcDbEntity
  8
ELEC_COTAS_REF
  6
ByLayer
 62
  256
370
   -1
100
AcDbLine
 10
-1.12
 20
8.880000000000001
 11
-0.88
 21
9.119999999999999
  0
TEXT
  5
146
100
AcDbEntity
  8
ELEC_COTAS_REF
  6
ByLayer
 62
  256
370
   -1
100
AcDbText
 10
-1.35
 20
4.5
 30
0
 40
0.18
  1
ALTO TOTAL: 9.00 m
 50
90
 41
1
 51
0
  7
STANDARD
 71
    0
 72
    1
 11
-1.35
 21
4.5
 31
0
210
0
220
0
230
1
100
AcDbText
 73
    2
  0
LINE
  5
147
100
AcDbEntity
  8
ELEC_COTAS_REF
  6
ByLayer
 62
  256
370
   -1
100
AcDbLine
 10
-1
 20
4.5
 11
-1
 21
9
  0
LINE
  5
148
100
AcDbEntity
  8
ELEC_COTAS_REF
  6
ByLayer
 62
  256
370
   -1
100
AcDbLine
 10
0
 20
4.5
 11
-1.1
 21
4.5
  0
LINE
  5
149
100
AcDbEntity
  8
ELEC_COTAS_REF
  6
ByLayer
 62
  256
370
   -1
100
AcDbLine
 10
0
 20
9
 11
-1.1
 21
9
  0
LINE
  5
14A
100
AcDbEntity
  8
ELEC_COTAS_REF
  6
ByLayer
 62
  256
370
   -1
100
AcDbLine
 10
-1.12
 20
4.38
 11
-0.88
 21
4.62
  0
LINE
  5
14B
100
AcDbEntity
  8
ELEC_COTAS_REF
  6
ByLayer
 62
  256
370
   -1
100
AcDbLine
 10
-1.12
 20
8.880000000000001
 11
-0.88
 21
9.119999999999999
  0
TEXT
  5
14C
100
AcDbEntity
  8
ELEC_COTAS_REF
  6
ByLayer
 62
  256
370
   -1
100
AcDbText
 10
-1.35
 20
6.75
 30
0
 40
0.18
  1
4.50 m
 50
90
 41
1
 51
0
  7
STANDARD
 71
    0
 72
    1
 11
-1.35
 21
6.75
 31
0
210
0
220
0
230
1
100
AcDbText
 73
    2
  0
LINE
  5
14D
100
AcDbEntity
  8
ELEC_COTAS_REF
  6
ByLayer
 62
  256
370
   -1
100
AcDbLine
 10
7.5
 20
-0.65
 11
15
 21
-0.65
  0
LINE
  5
14E
100
AcDbEntity
  8
ELEC_COTAS_REF
  6
ByLayer
 62
  256
370
   -1
100
AcDbLine
 10
7.5
 20
0
 11
7.5
 21
-0.75
  0
LINE
  5
14F
100
AcDbEntity
  8
ELEC_COTAS_REF
  6
ByLayer
 62
  256
370
   -1
100
AcDbLine
 10
15
 20
0
 11
15
 21
-0.75
  0
LINE
  5
150
100
AcDbEntity
  8
ELEC_COTAS_REF
  6
ByLayer
 62
  256
370
   -1
100
AcDbLine
 10
7.38
 20
-0.77
 11
7.62
 21
-0.53
  0
LINE
  5
151
100
AcDbEntity
  8
ELEC_COTAS_REF
  6
ByLayer
 62
  256
370
   -1
100
AcDbLine
 10
14.88
 20
-0.77
 11
15.12
 21
-0.53
  0
TEXT
  5
152
100
AcDbEntity
  8
ELEC_COTAS_REF
  6
ByLayer
 62
  256
370
   -1
100
AcDbText
 10
11.25
 20
-1
 30
0
 40
0.18
  1
8 m aprox.
 50
0
 41
1
 51
0
  7
STANDARD
 71
    0
 72
    1
 11
11.25
 21
-1
 31
0
210
0
220
0
230
1
100
AcDbText
 73
    2
  0
LINE
  5
153
100
AcDbEntity
  8
MARCO
  6
ByLayer
 62
  256
370
   -1
100
AcDbLine
 10
-1.2
 20
-1.2
 11
16.2
 21
-1.2
  0
LINE
  5
154
100
AcDbEntity
  8
MARCO
  6
ByLayer
 62
  256
370
   -1
100
AcDbLine
 10
16.2
 20
-1.2
 11
16.2
 21
10.2
  0
LINE
  5
155
100
AcDbEntity
  8
MARCO
  6
ByLayer
 62
  256
370
   -1
100
AcDbLine
 10
16.2
 20
10.2
 11
-1.2
 21
10.2
  0
LINE
  5
156
100
AcDbEntity
  8
MARCO
  6
ByLayer
 62
  256
370
   -1
100
AcDbLine
 10
-1.2
 20
10.2
 11
-1.2
 21
-1.2
  0
LINE
  5
157
100
AcDbEntity
  8
MARCO
  6
ByLayer
 62
  256
370
   -1
100
AcDbLine
 10
-1.12
 20
-1.12
 11
16.12
 21
-1.12
  0
LINE
  5
158
100
AcDbEntity
  8
MARCO
  6
ByLayer
 62
  256
370
   -1
100
AcDbLine
 10
16.12
 20
-1.12
 11
16.12
 21
10.12
  0
LINE
  5
159
100
AcDbEntity
  8
MARCO
  6
ByLayer
 62
  256
370
   -1
100
AcDbLine
 10
16.12
 20
10.12
 11
-1.12
 21
10.12
  0
LINE
  5
15A
100
AcDbEntity
  8
MARCO
  6
ByLayer
 62
  256
370
   -1
100
AcDbLine
 10
-1.12
 20
10.12
 11
-1.12
 21
-1.12
  0
TEXT
  5
15B
100
AcDbEntity
  8
ELEC_TEXTOS
  6
ByLayer
 62
  256
370
   -1
100
AcDbText
 10
7.5
 20
10.85
 30
0
 40
0.28
  1
PLANO ELECTRICO - PISO 2 V3
 50
0
 41
1
 51
0
  7
STANDARD
 71
    0
 72
    1
 11
7.5
 21
10.85
 31
0
210
0
220
0
230
1
100
AcDbText
 73
    2
  0
TEXT
  5
15C
100
AcDbEntity
  8
ELEC_TEXTOS
  6
ByLayer
 62
  256
370
   -1
100
AcDbText
 10
7.5
 20
10.49
 30
0
 40
0.16
  1
Casa de Aquiles - segundo nivel
 50
0
 41
1
 51
0
  7
STANDARD
 71
    0
 72
    1
 11
7.5
 21
10.49
 31
0
210
0
220
0
230
1
100
AcDbText
 73
    2
  0
CIRCLE
  5
15D
100
AcDbEntity
  8
ELEC_LUMINARIAS
  6
ByLayer
 62
  256
370
   -1
100
AcDbCircle
 10
1.5
 20
6.55
 40
0.18
  0
LINE
  5
15E
100
AcDbEntity
  8
ELEC_LUMINARIAS
  6
ByLayer
 62
  256
370
   -1
100
AcDbLine
 10
1.374
 20
6.55
 11
1.626
 21
6.55
  0
LINE
  5
15F
100
AcDbEntity
  8
ELEC_LUMINARIAS
  6
ByLayer
 62
  256
370
   -1
100
AcDbLine
 10
1.5
 20
6.423999999999999
 11
1.5
 21
6.676
  0
TEXT
  5
160
100
AcDbEntity
  8
ELEC_TEXTOS
  6
ByLayer
 62
  256
370
   -1
100
AcDbText
 10
1.5
 20
6.19
 30
0
 40
0.14
  1
C4
 50
0
 41
1
 51
0
  7
STANDARD
 71
    0
 72
    1
 11
1.5
 21
6.19
 31
0
210
0
220
0
230
1
100
AcDbText
 73
    2
  0
CIRCLE
  5
161
100
AcDbEntity
  8
ELEC_LUMINARIAS
  6
ByLayer
 62
  256
370
   -1
100
AcDbCircle
 10
3.95
 20
6.15
 40
0.18
  0
LINE
  5
162
100
AcDbEntity
  8
ELEC_LUMINARIAS
  6
ByLayer
 62
  256
370
   -1
100
AcDbLine
 10
3.824
 20
6.15
 11
4.076000000000001
 21
6.15
  0
LINE
  5
163
100
AcDbEntity
  8
ELEC_LUMINARIAS
  6
ByLayer
 62
  256
370
   -1
100
AcDbLine
 10
3.95
 20
6.024
 11
3.95
 21
6.276000000000001
  0
TEXT
  5
164
100
AcDbEntity
  8
ELEC_TEXTOS
  6
ByLayer
 62
  256
370
   -1
100
AcDbText
 10
3.95
 20
5.79
 30
0
 40
0.14
  1
C4
 50
0
 41
1
 51
0
  7
STANDARD
 71
    0
 72
    1
 11
3.95
 21
5.79
 31
0
210
0
220
0
230
1
100
AcDbText
 73
    2
  0
CIRCLE
  5
165
100
AcDbEntity
  8
ELEC_LUMINARIAS
  6
ByLayer
 62
  256
370
   -1
100
AcDbCircle
 10
5.15
 20
7.65
 40
0.18
  0
LINE
  5
166
100
AcDbEntity
  8
ELEC_LUMINARIAS
  6
ByLayer
 62
  256
370
   -1
100
AcDbLine
 10
5.024
 20
7.65
 11
5.276000000000001
 21
7.65
  0
LINE
  5
167
100
AcDbEntity
  8
ELEC_LUMINARIAS
  6
ByLayer
 62
  256
370
   -1
100
AcDbLine
 10
5.15
 20
7.524
 11
5.15
 21
7.776000000000001
  0
TEXT
  5
168
100
AcDbEntity
  8
ELEC_TEXTOS
  6
ByLayer
 62
  256
370
   -1
100
AcDbText
 10
5.15
 20
7.29
 30
0
 40
0.14
  1
C4
 50
0
 41
1
 51
0
  7
STANDARD
 71
    0
 72
    1
 11
5.15
 21
7.29
 31
0
210
0
220
0
230
1
100
AcDbText
 73
    2
  0
CIRCLE
  5
169
100
AcDbEntity
  8
ELEC_LUMINARIAS
  6
ByLayer
 62
  256
370
   -1
100
AcDbCircle
 10
7.5
 20
6.75
 40
0.18
  0
LINE
  5
16A
100
AcDbEntity
  8
ELEC_LUMINARIAS
  6
ByLayer
 62
  256
370
   -1
100
AcDbLine
 10
7.374
 20
6.75
 11
7.626
 21
6.75
  0
LINE
  5
16B
100
AcDbEntity
  8
ELEC_LUMINARIAS
  6
ByLayer
 62
  256
370
   -1
100
AcDbLine
 10
7.5
 20
6.624
 11
7.5
 21
6.876
  0
TEXT
  5
16C
100
AcDbEntity
  8
ELEC_TEXTOS
  6
ByLayer
 62
  256
370
   -1
100
AcDbText
 10
7.5
 20
6.39
 30
0
 40
0.14
  1
C4
 50
0
 41
1
 51
0
  7
STANDARD
 71
    0
 72
    1
 11
7.5
 21
6.39
 31
0
210
0
220
0
230
1
100
AcDbText
 73
    2
  0
CIRCLE
  5
16D
100
AcDbEntity
  8
ELEC_LUMINARIAS
  6
ByLayer
 62
  256
370
   -1
100
AcDbCircle
 10
10.5
 20
6.75
 40
0.18
  0
LINE
  5
16E
100
AcDbEntity
  8
ELEC_LUMINARIAS
  6
ByLayer
 62
  256
370
   -1
100
AcDbLine
 10
10.374
 20
6.75
 11
10.626
 21
6.75
  0
LINE
  5
16F
100
AcDbEntity
  8
ELEC_LUMINARIAS
  6
ByLayer
 62
  256
370
   -1
100
AcDbLine
 10
10.5
 20
6.624
 11
10.5
 21
6.876
  0
TEXT
  5
170
100
AcDbEntity
  8
ELEC_TEXTOS
  6
ByLayer
 62
  256
370
   -1
100
AcDbText
 10
10.5
 20
6.39
 30
0
 40
0.14
  1
C4
 50
0
 41
1
 51
0
  7
STANDARD
 71
    0
 72
    1
 11
10.5
 21
6.39
 31
0
210
0
220
0
230
1
100
AcDbText
 73
    2
  0
CIRCLE
  5
171
100
AcDbEntity
  8
ELEC_LUMINARIAS
  6
ByLayer
 62
  256
370
   -1
100
AcDbCircle
 10
13.1
 20
6.25
 40
0.18
  0
LINE
  5
172
100
AcDbEntity
  8
ELEC_LUMINARIAS
  6
ByLayer
 62
  256
370
   -1
100
AcDbLine
 10
12.974
 20
6.25
 11
13.226
 21
6.25
  0
LINE
  5
173
100
AcDbEntity
  8
ELEC_LUMINARIAS
  6
ByLayer
 62
  256
370
   -1
100
AcDbLine
 10
13.1
 20
6.124
 11
13.1
 21
6.376
  0
TEXT
  5
174
100
AcDbEntity
  8
ELEC_TEXTOS
  6
ByLayer
 62
  256
370
   -1
100
AcDbText
 10
13.1
 20
5.89
 30
0
 40
0.14
  1
C4
 50
0
 41
1
 51
0
  7
STANDARD
 71
    0
 72
    1
 11
13.1
 21
5.89
 31
0
210
0
220
0
230
1
100
AcDbText
 73
    2
  0
CIRCLE
  5
175
100
AcDbEntity
  8
ELEC_LUMINARIAS
  6
ByLayer
 62
  256
370
   -1
100
AcDbCircle
 10
14.1
 20
7.6
 40
0.18
  0
LINE
  5
176
100
AcDbEntity
  8
ELEC_LUMINARIAS
  6
ByLayer
 62
  256
370
   -1
100
AcDbLine
 10
13.974
 20
7.6
 11
14.226
 21
7.6
  0
LINE
  5
177
100
AcDbEntity
  8
ELEC_LUMINARIAS
  6
ByLayer
 62
  256
370
   -1
100
AcDbLine
 10
14.1
 20
7.473999999999999
 11
14.1
 21
7.726
  0
TEXT
  5
178
100
AcDbEntity
  8
ELEC_TEXTOS
  6
ByLayer
 62
  256
370
   -1
100
AcDbText
 10
14.1
 20
7.239999999999999
 30
0
 40
0.14
  1
C4
 50
0
 41
1
 51
0
  7
STANDARD
 71
    0
 72
    1
 11
14.1
 21
7.239999999999999
 31
0
210
0
220
0
230
1
100
AcDbText
 73
    2
  0
TEXT
  5
179
100
AcDbEntity
  8
ELEC_TEXTOS
  6
ByLayer
 62
  256
370
   -1
100
AcDbText
 10
3.75
 20
3.39
 30
0
 40
0.14
  1
C4
 50
0
 41
1
 51
0
  7
STANDARD
 71
    0
 72
    1
 11
3.75
 21
3.39
 31
0
210
0
220
0
230
1
100
AcDbText
 73
    2
  0
CIRCLE
  5
17A
100
AcDbEntity
  8
ELEC_LUMINARIAS
  6
ByLayer
 62
  256
370
   -1
100
AcDbCircle
 10
8.25
 20
1.55
 40
0.18
  0
LINE
  5
17B
100
AcDbEntity
  8
ELEC_LUMINARIAS
  6
ByLayer
 62
  256
370
   -1
100
AcDbLine
 10
8.124000000000001
 20
1.55
 11
8.375999999999999
 21
1.55
  0
LINE
  5
17C
100
AcDbEntity
  8
ELEC_LUMINARIAS
  6
ByLayer
 62
  256
370
   -1
100
AcDbLine
 10
8.25
 20
1.424
 11
8.25
 21
1.676
  0
TEXT
  5
17D
100
AcDbEntity
  8
ELEC_TEXTOS
  6
ByLayer
 62
  256
370
   -1
100
AcDbText
 10
8.25
 20
1.19
 30
0
 40
0.14
  1
C4
 50
0
 41
1
 51
0
  7
STANDARD
 71
    0
 72
    1
 11
8.25
 21
1.19
 31
0
210
0
220
0
230
1
100
AcDbText
 73
    2
  0
CIRCLE
  5
17E
100
AcDbEntity
  8
ELEC_LUMINARIAS
  6
ByLayer
 62
  256
370
   -1
100
AcDbCircle
 10
11.7
 20
1.55
 40
0.18
  0
LINE
  5
17F
100
AcDbEntity
  8
ELEC_LUMINARIAS
  6
ByLayer
 62
  256
370
   -1
100
AcDbLine
 10
11.574
 20
1.55
 11
11.826
 21
1.55
  0
LINE
  5
180
100
AcDbEntity
  8
ELEC_LUMINARIAS
  6
ByLayer
 62
  256
370
   -1
100
AcDbLine
 10
11.7
 20
1.424
 11
11.7
 21
1.676
  0
TEXT
  5
181
100
AcDbEntity
  8
ELEC_TEXTOS
  6
ByLayer
 62
  256
370
   -1
100
AcDbText
 10
11.7
 20
1.19
 30
0
 40
0.14
  1
C4
 50
0
 41
1
 51
0
  7
STANDARD
 71
    0
 72
    1
 11
11.7
 21
1.19
 31
0
210
0
220
0
230
1
100
AcDbText
 73
    2
  0
CIRCLE
  5
182
100
AcDbEntity
  8
ELEC_LUMINARIAS
  6
ByLayer
 62
  256
370
   -1
100
AcDbCircle
 10
14
 20
3.75
 40
0.18
  0
LINE
  5
183
100
AcDbEntity
  8
ELEC_LUMINARIAS
  6
ByLayer
 62
  256
370
   -1
100
AcDbLine
 10
13.874
 20
3.75
 11
14.126
 21
3.75
  0
LINE
  5
184
100
AcDbEntity
  8
ELEC_LUMINARIAS
  6
ByLayer
 62
  256
370
   -1
100
AcDbLine
 10
14
 20
3.624
 11
14
 21
3.876
  0
TEXT
  5
185
100
AcDbEntity
  8
ELEC_TEXTOS
  6
ByLayer
 62
  256
370
   -1
100
AcDbText
 10
14
 20
3.39
 30
0
 40
0.14
  1
C4
 50
0
 41
1
 51
0
  7
STANDARD
 71
    0
 72
    1
 11
14
 21
3.39
 31
0
210
0
220
0
230
1
100
AcDbText
 73
    2
  0
CIRCLE
  5
186
100
AcDbEntity
  8
ELEC_INTERRUPTORES
  6
ByLayer
 62
  256
370
   -1
100
AcDbCircle
 10
0.75
 20
4.75
 40
0.12
  0
LINE
  5
187
100
AcDbEntity
  8
ELEC_INTERRUPTORES
  6
ByLayer
 62
  256
370
   -1
100
AcDbLine
 10
0.75
 20
4.75
 11
0.9419999999999999
 21
4.882
  0
TEXT
  5
188
100
AcDbEntity
  8
ELEC_TEXTOS
  6
ByLayer
 62
  256
370
   -1
100
AcDbText
 10
0.75
 20
4.98
 30
0
 40
0.13
  1
S3
 50
0
 41
1
 51
0
  7
STANDARD
 71
    0
 72
    1
 11
0.75
 21
4.98
 31
0
210
0
220
0
230
1
100
AcDbText
 73
    2
  0
TEXT
  5
189
100
AcDbEntity
  8
ELEC_TEXTOS
  6
ByLayer
 62
  256
370
   -1
100
AcDbText
 10
0.75
 20
4.45
 30
0
 40
0.14
  1
C4
 50
0
 41
1
 51
0
  7
STANDARD
 71
    0
 72
    1
 11
0.75
 21
4.45
 31
0
210
0
220
0
230
1
100
AcDbText
 73
    2
  0
CIRCLE
  5
18A
100
AcDbEntity
  8
ELEC_TOMACORRIENTES
  6
ByLayer
 62
  256
370
   -1
100
AcDbCircle
 10
6.25
 20
6
 40
0.13
  0
LINE
  5
18B
100
AcDbEntity
  8
ELEC_TOMACORRIENTES
  6
ByLayer
 62
  256
370
   -1
100
AcDbLine
 10
6.1785
 20
5.9805
 11
6.3215
 21
5.9805
  0
LINE
  5
18C
100
AcDbEntity
  8
ELEC_TOMACORRIENTES
  6
ByLayer
 62
  256
370
   -1
100
AcDbLine
 10
6.1785
 20
6.026
 11
6.3215
 21
6.026
  0
LINE
  5
18D
100
AcDbEntity
  8
ELEC_TOMACORRIENTES
  6
ByLayer
 62
  256
370
   -1
100
AcDbLine
 10
6.25
 20
5.8765
 11
6.25
 21
5.9545
  0
TEXT
  5
18E
100
AcDbEntity
  8
ELEC_TEXTOS
  6
ByLayer
 62
  256
370
   -1
100
AcDbText
 10
6.25
 20
5.64
 30
0
 40
0.14
  1
C5
 50
0
 41
1
 51
0
  7
STANDARD
 71
    0
 72
    1
 11
6.25
 21
5.64
 31
0
210
0
220
0
230
1
100
AcDbText
 73
    2
  0
CIRCLE
  5
18F
100
AcDbEntity
  8
ELEC_TOMACORRIENTES
  6
ByLayer
 62
  256
370
   -1
100
AcDbCircle
 10
8.65
 20
8.5
 40
0.13
  0
LINE
  5
190
100
AcDbEntity
  8
ELEC_TOMACORRIENTES
  6
ByLayer
 62
  256
370
   -1
100
AcDbLine
 10
8.5785
 20
8.480499999999999
 11
8.721500000000001
 21
8.480499999999999
  0
LINE
  5
191
100
AcDbEntity
  8
ELEC_TOMACORRIENTES
  6
ByLayer
 62
  256
370
   -1
100
AcDbLine
 10
8.5785
 20
8.526
 11
8.721500000000001
 21
8.526
  0
LINE
  5
192
100
AcDbEntity
  8
ELEC_TOMACORRIENTES
  6
ByLayer
 62
  256
370
   -1
100
AcDbLine
 10
8.65
 20
8.3765
 11
8.65
 21
8.454499999999999
  0
TEXT
  5
193
100
AcDbEntity
  8
ELEC_TEXTOS
  6
ByLayer
 62
  256
370
   -1
100
AcDbText
 10
8.65
 20
8.140000000000001
 30
0
 40
0.14
  1
C5
 50
0
 41
1
 51
0
  7
STANDARD
 71
    0
 72
    1
 11
8.65
 21
8.140000000000001
 31
0
210
0
220
0
230
1
100
AcDbText
 73
    2
  0
CIRCLE
  5
194
100
AcDbEntity
  8
ELEC_TOMACORRIENTES
  6
ByLayer
 62
  256
370
   -1
100
AcDbCircle
 10
9.35
 20
6
 40
0.13
  0
LINE
  5
195
100
AcDbEntity
  8
ELEC_TOMACORRIENTES
  6
ByLayer
 62
  256
370
   -1
100
AcDbLine
 10
9.278499999999999
 20
5.9805
 11
9.4215
 21
5.9805
  0
LINE
  5
196
100
AcDbEntity
  8
ELEC_TOMACORRIENTES
  6
ByLayer
 62
  256
370
   -1
100
AcDbLine
 10
9.278499999999999
 20
6.026
 11
9.4215
 21
6.026
  0
LINE
  5
197
100
AcDbEntity
  8
ELEC_TOMACORRIENTES
  6
ByLayer
 62
  256
370
   -1
100
AcDbLine
 10
9.35
 20
5.8765
 11
9.35
 21
5.9545
  0
TEXT
  5
198
100
AcDbEntity
  8
ELEC_TEXTOS
  6
ByLayer
 62
  256
370
   -1
100
AcDbText
 10
9.35
 20
5.64
 30
0
 40
0.14
  1
C5
 50
0
 41
1
 51
0
  7
STANDARD
 71
    0
 72
    1
 11
9.35
 21
5.64
 31
0
210
0
220
0
230
1
100
AcDbText
 73
    2
  0
CIRCLE
  5
199
100
AcDbEntity
  8
ELEC_TOMACORRIENTES
  6
ByLayer
 62
  256
370
   -1
100
AcDbCircle
 10
11.65
 20
8.5
 40
0.13
  0
LINE
  5
19A
100
AcDbEntity
  8
ELEC_TOMACORRIENTES
  6
ByLayer
 62
  256
370
   -1
100
AcDbLine
 10
11.5785
 20
8.480499999999999
 11
11.7215
 21
8.480499999999999
  0
LINE
  5
19B
100
AcDbEntity
  8
ELEC_TOMACORRIENTES
  6
ByLayer
 62
  256
370
   -1
100
AcDbLine
 10
11.5785
 20
8.526
 11
11.7215
 21
8.526
  0
LINE
  5
19C
100
AcDbEntity
  8
ELEC_TOMACORRIENTES
  6
ByLayer
 62
  256
370
   -1
100
AcDbLine
 10
11.65
 20
8.3765
 11
11.65
 21
8.454499999999999
  0
TEXT
  5
19D
100
AcDbEntity
  8
ELEC_TEXTOS
  6
ByLayer
 62
  256
370
   -1
100
AcDbText
 10
11.65
 20
8.140000000000001
 30
0
 40
0.14
  1
C5
 50
0
 41
1
 51
0
  7
STANDARD
 71
    0
 72
    1
 11
11.65
 21
8.140000000000001
 31
0
210
0
220
0
230
1
100
AcDbText
 73
    2
  0
CIRCLE
  5
19E
100
AcDbEntity
  8
ELEC_TOMACORRIENTES
  6
ByLayer
 62
  256
370
   -1
100
AcDbCircle
 10
12.3
 20
5.35
 40
0.13
  0
LINE
  5
19F
100
AcDbEntity
  8
ELEC_TOMACORRIENTES
  6
ByLayer
 62
  256
370
   -1
100
AcDbLine
 10
12.2285
 20
5.3305
 11
12.3715
 21
5.3305
  0
LINE
  5
1A0
100
AcDbEntity
  8
ELEC_TOMACORRIENTES
  6
ByLayer
 62
  256
370
   -1
100
AcDbLine
 10
12.2285
 20
5.375999999999999
 11
12.3715
 21
5.375999999999999
  0
LINE
  5
1A1
100
AcDbEntity
  8
ELEC_TOMACORRIENTES
  6
ByLayer
 62
  256
370
   -1
100
AcDbLine
 10
12.3
 20
5.2265
 11
12.3
 21
5.3045
  0
TEXT
  5
1A2
100
AcDbEntity
  8
ELEC_TEXTOS
  6
ByLayer
 62
  256
370
   -1
100
AcDbText
 10
12.3
 20
4.989999999999999
 30
0
 40
0.14
  1
C5
 50
0
 41
1
 51
0
  7
STANDARD
 71
    0
 72
    1
 11
12.3
 21
4.989999999999999
 31
0
210
0
220
0
230
1
100
AcDbText
 73
    2
  0
CIRCLE
  5
1A3
100
AcDbEntity
  8
ELEC_TOMACORRIENTES
  6
ByLayer
 62
  256
370
   -1
100
AcDbCircle
 10
14.55
 20
5.5
 40
0.13
  0
LINE
  5
1A4
100
AcDbEntity
  8
ELEC_TOMACORRIENTES
  6
ByLayer
 62
  256
370
   -1
100
AcDbLine
 10
14.4785
 20
5.4805
 11
14.6215
 21
5.4805
  0
LINE
  5
1A5
100
AcDbEntity
  8
ELEC_TOMACORRIENTES
  6
ByLayer
 62
  256
370
   -1
100
AcDbLine
 10
14.4785
 20
5.526
 11
14.6215
 21
5.526
  0
LINE
  5
1A6
100
AcDbEntity
  8
ELEC_TOMACORRIENTES
  6
ByLayer
 62
  256
370
   -1
100
AcDbLine
 10
14.55
 20
5.3765
 11
14.55
 21
5.4545
  0
TEXT
  5
1A7
100
AcDbEntity
  8
ELEC_TEXTOS
  6
ByLayer
 62
  256
370
   -1
100
AcDbText
 10
14.55
 20
5.14
 30
0
 40
0.14
  1
C5
 50
0
 41
1
 51
0
  7
STANDARD
 71
    0
 72
    1
 11
14.55
 21
5.14
 31
0
210
0
220
0
230
1
100
AcDbText
 73
    2
  0
CIRCLE
  5
1A8
100
AcDbEntity
  8
ELEC_TOMACORRIENTES
  6
ByLayer
 62
  256
370
   -1
100
AcDbCircle
 10
14.55
 20
8.050000000000001
 40
0.13
  0
LINE
  5
1A9
100
AcDbEntity
  8
ELEC_TOMACORRIENTES
  6
ByLayer
 62
  256
370
   -1
100
AcDbLine
 10
14.4785
 20
8.0305
 11
14.6215
 21
8.0305
  0
LINE
  5
1AA
100
AcDbEntity
  8
ELEC_TOMACORRIENTES
  6
ByLayer
 62
  256
370
   -1
100
AcDbLine
 10
14.4785
 20
8.076000000000001
 11
14.6215
 21
8.076000000000001
  0
LINE
  5
1AB
100
AcDbEntity
  8
ELEC_TOMACORRIENTES
  6
ByLayer
 62
  256
370
   -1
100
AcDbLine
 10
14.55
 20
7.926500000000001
 11
14.55
 21
8.0045
  0
TEXT
  5
1AC
100
AcDbEntity
  8
ELEC_TEXTOS
  6
ByLayer
 62
  256
370
   -1
100
AcDbText
 10
14.55
 20
7.69
 30
0
 40
0.14
  1
C5
 50
0
 41
1
 51
0
  7
STANDARD
 71
    0
 72
    1
 11
14.55
 21
7.69
 31
0
210
0
220
0
230
1
100
AcDbText
 73
    2
  0
TEXT
  5
1AD
100
AcDbEntity
  8
ELEC_TEXTOS
  6
ByLayer
 62
  256
370
   -1
100
AcDbText
 10
9.35
 20
-0.01000000000000001
 30
0
 40
0.14
  1
C5
 50
0
 41
1
 51
0
  7
STANDARD
 71
    0
 72
    1
 11
9.35
 21
-0.01000000000000001
 31
0
210
0
220
0
230
1
100
AcDbText
 73
    2
  0
CIRCLE
  5
1AE
100
AcDbEntity
  8
ELEC_TOMACORRIENTES
  6
ByLayer
 62
  256
370
   -1
100
AcDbCircle
 10
11.8
 20
0.35
 40
0.13
  0
LINE
  5
1AF
100
AcDbEntity
  8
ELEC_TOMACORRIENTES
  6
ByLayer
 62
  256
370
   -1
100
AcDbLine
 10
11.7285
 20
0.3305
 11
11.8715
 21
0.3305
  0
LINE
  5
1B0
100
AcDbEntity
  8
ELEC_TOMACORRIENTES
  6
ByLayer
 62
  256
370
   -1
100
AcDbLine
 10
11.7285
 20
0.376
 11
11.8715
 21
0.376
  0
LINE
  5
1B1
100
AcDbEntity
  8
ELEC_TOMACORRIENTES
  6
ByLayer
 62
  256
370
   -1
100
AcDbLine
 10
11.8
 20
0.2265
 11
11.8
 21
0.3045
  0
TEXT
  5
1B2
100
AcDbEntity
  8
ELEC_TEXTOS
  6
ByLayer
 62
  256
370
   -1
100
AcDbText
 10
11.8
 20
-0.01000000000000001
 30
0
 40
0.14
  1
C5
 50
0
 41
1
 51
0
  7
STANDARD
 71
    0
 72
    1
 11
11.8
 21
-0.01000000000000001
 31
0
210
0
220
0
230
1
100
AcDbText
 73
    2
  0
CIRCLE
  5
1B3
100
AcDbEntity
  8
ELEC_TOMACORRIENTES
  6
ByLayer
 62
  256
370
   -1
100
AcDbCircle
 10
14.55
 20
1.35
 40
0.13
  0
LINE
  5
1B4
100
AcDbEntity
  8
ELEC_TOMACORRIENTES
  6
ByLayer
 62
  256
370
   -1
100
AcDbLine
 10
14.4785
 20
1.3305
 11
14.6215
 21
1.3305
  0
LINE
  5
1B5
100
AcDbEntity
  8
ELEC_TOMACORRIENTES
  6
ByLayer
 62
  256
370
   -1
100
AcDbLine
 10
14.4785
 20
1.376
 11
14.6215
 21
1.376
  0
LINE
  5
1B6
100
AcDbEntity
  8
ELEC_TOMACORRIENTES
  6
ByLayer
 62
  256
370
   -1
100
AcDbLine
 10
14.55
 20
1.2265
 11
14.55
 21
1.3045
  0
TEXT
  5
1B7
100
AcDbEntity
  8
ELEC_TEXTOS
  6
ByLayer
 62
  256
370
   -1
100
AcDbText
 10
14.55
 20
0.9900000000000001
 30
0
 40
0.14
  1
C5
 50
0
 41
1
 51
0
  7
STANDARD
 71
    0
 72
    1
 11
14.55
 21
0.9900000000000001
 31
0
210
0
220
0
230
1
100
AcDbText
 73
    2
  0
CIRCLE
  5
1B8
100
AcDbEntity
  8
ELEC_TOMACORRIENTES
  6
ByLayer
 62
  256
370
   -1
100
AcDbCircle
 10
14.55
 20
3.85
 40
0.13
  0
LINE
  5
1B9
100
AcDbEntity
  8
ELEC_TOMACORRIENTES
  6
ByLayer
 62
  256
370
   -1
100
AcDbLine
 10
14.4785
 20
3.8305
 11
14.6215
 21
3.8305
  0
LINE
  5
1BA
100
AcDbEntity
  8
ELEC_TOMACORRIENTES
  6
ByLayer
 62
  256
370
   -1
100
AcDbLine
 10
14.4785
 20
3.876
 11
14.6215
 21
3.876
  0
LINE
  5
1BB
100
AcDbEntity
  8
ELEC_TOMACORRIENTES
  6
ByLayer
 62
  256
370
   -1
100
AcDbLine
 10
14.55
 20
3.7265
 11
14.55
 21
3.8045
  0
TEXT
  5
1BC
100
AcDbEntity
  8
ELEC_TEXTOS
  6
ByLayer
 62
  256
370
   -1
100
AcDbText
 10
14.55
 20
3.49
 30
0
 40
0.14
  1
C5
 50
0
 41
1
 51
0
  7
STANDARD
 71
    0
 72
    1
 11
14.55
 21
3.49
 31
0
210
0
220
0
230
1
100
AcDbText
 73
    2
  0
TEXT
  5
1BD
100
AcDbEntity
  8
ELEC_TEXTOS
  6
ByLayer
 62
  256
370
   -1
100
AcDbText
 10
7.65
 20
1.3845
 30
0
 40
0.14
  1
C5
 50
0
 41
1
 51
0
  7
STANDARD
 71
    0
 72
    1
 11
7.65
 21
1.3845
 31
0
210
0
220
0
230
1
100
AcDbText
 73
    2
  0
TEXT
  5
1BE
100
AcDbEntity
  8
ELEC_TEXTOS
  6
ByLayer
 62
  256
370
   -1
100
AcDbText
 10
7.65
 20
1.1955
 30
0
 40
0.14
  1
protegido
 50
0
 41
1
 51
0
  7
STANDARD
 71
    0
 72
    1
 11
7.65
 21
1.1955
 31
0
210
0
220
0
230
1
100
AcDbText
 73
    2
  0
TEXT
  5
1BF
100
AcDbEntity
  8
ELEC_TEXTOS
  6
ByLayer
 62
  256
370
   -1
100
AcDbText
 10
3.35
 20
5.834499999999999
 30
0
 40
0.14
  1
C6
 50
0
 41
1
 51
0
  7
STANDARD
 71
    0
 72
    1
 11
3.35
 21
5.834499999999999
 31
0
210
0
220
0
230
1
100
AcDbText
 73
    2
  0
TEXT
  5
1C0
100
AcDbEntity
  8
ELEC_TEXTOS
  6
ByLayer
 62
  256
370
   -1
100
AcDbText
 10
3.35
 20
5.645499999999999
 30
0
 40
0.14
  1
servicio
 50
0
 41
1
 51
0
  7
STANDARD
 71
    0
 72
    1
 11
3.35
 21
5.645499999999999
 31
0
210
0
220
0
230
1
100
AcDbText
 73
    2
  0
TEXT
  5
1C1
100
AcDbEntity
  8
ELEC_TEXTOS
  6
ByLayer
 62
  256
370
   -1
100
AcDbText
 10
5.35
 20
7.7845
 30
0
 40
0.14
  1
C6
 50
0
 41
1
 51
0
  7
STANDARD
 71
    0
 72
    1
 11
5.35
 21
7.7845
 31
0
210
0
220
0
230
1
100
AcDbText
 73
    2
  0
TEXT
  5
1C2
100
AcDbEntity
  8
ELEC_TEXTOS
  6
ByLayer
 62
  256
370
   -1
100
AcDbText
 10
5.35
 20
7.5955
 30
0
 40
0.14
  1
servicio
 50
0
 41
1
 51
0
  7
STANDARD
 71
    0
 72
    1
 11
5.35
 21
7.5955
 31
0
210
0
220
0
230
1
100
AcDbText
 73
    2
  0
TEXT
  5
1C3
100
AcDbEntity
  8
ELEC_TEXTOS
  6
ByLayer
 62
  256
370
   -1
100
AcDbText
 10
3.1
 20
5.079
 30
0
 40
0.14
  1
C6
 50
0
 41
1
 51
0
  7
STANDARD
 71
    0
 72
    1
 11
3.1
 21
5.079
 31
0
210
0
220
0
230
1
100
AcDbText
 73
    2
  0
TEXT
  5
1C4
100
AcDbEntity
  8
ELEC_TEXTOS
  6
ByLayer
 62
  256
370
   -1
100
AcDbText
 10
3.1
 20
4.89
 30
0
 40
0.14
  1
cocina
 50
0
 41
1
 51
0
  7
STANDARD
 71
    0
 72
    1
 11
3.1
 21
4.89
 31
0
210
0
220
0
230
1
100
AcDbText
 73
    2
  0
TEXT
  5
1C5
100
AcDbEntity
  8
ELEC_TEXTOS
  6
ByLayer
 62
  256
370
   -1
100
AcDbText
 10
5.78
 20
4.88
 30
0
 40
0.14
  1
C7
 50
0
 41
1
 51
0
  7
STANDARD
 71
    0
 11
5.78
 21
4.88
 31
0
210
0
220
0
230
1
100
AcDbText
 73
    2
  0
TEXT
  5
1C6
100
AcDbEntity
  8
ELEC_TEXTOS
  6
ByLayer
 62
  256
370
   -1
100
AcDbText
 10
5.78
 20
4.68
 30
0
 40
0.14
  1
lavadora
 50
0
 41
1
 51
0
  7
STANDARD
 71
    0
 11
5.78
 21
4.68
 31
0
210
0
220
0
230
1
100
AcDbText
 73
    2
  0
LWPOLYLINE
  5
1C7
100
AcDbEntity
  8
ELEC_TABLERO
  6
ByLayer
 62
  256
370
   -1
100
AcDbPolyline
 90
    5
 70
    0
 43
0
 10
12.275
 20
4.06
 10
12.825
 20
4.06
 10
12.825
 20
4.44
 10
12.275
 20
4.44
 10
12.275
 20
4.06
  0
TEXT
  5
1C8
100
AcDbEntity
  8
ELEC_TEXTOS
  6
ByLayer
 62
  256
370
   -1
100
AcDbText
 10
12.55
 20
4.25
 30
0
 40
0.16
  1
T2
 50
0
 41
1
 51
0
  7
STANDARD
 71
    0
 72
    1
 11
12.55
 21
4.25
 31
0
210
0
220
0
230
1
100
AcDbText
 73
    2
  0
TEXT
  5
1C9
100
AcDbEntity
  8
ELEC_TEXTOS
  6
ByLayer
 62
  256
370
   -1
100
AcDbText
 10
12.55
 20
3.7
 30
0
 40
0.12
  1
Tablero T2
 50
0
 41
1
 51
0
  7
STANDARD
 71
    0
 72
    1
 11
12.55
 21
3.7
 31
0
210
0
220
0
230
1
100
AcDbText
 73
    2
  0
CIRCLE
  5
1CA
100
AcDbEntity
  8
ELEC_CANALIZACION
  6
ByLayer
 62
  256
370
   -1
100
AcDbCircle
 10
2.65
 20
4.8
 40
0.16
  0
LINE
  5
1CB
100
AcDbEntity
  8
ELEC_CANALIZACION
  6
ByLayer
 62
  256
370
   -1
100
AcDbLine
 10
2.53
 20
4.68
 11
2.77
 21
4.92
  0
LINE
  5
1CC
100
AcDbEntity
  8
ELEC_CANALIZACION
  6
ByLayer
 62
  256
370
   -1
100
AcDbLine
 10
2.53
 20
4.92
 11
2.77
 21
4.68
  0
TEXT
  5
1CD
100
AcDbEntity
  8
ELEC_TEXTOS
  6
ByLayer
 62
  256
370
   -1
100
AcDbText
 10
2.65
 20
4.5345
 30
0
 40
0.14
  1
VD
 50
0
 41
1
 51
0
  7
STANDARD
 71
    0
 72
    1
 11
2.65
 21
4.5345
 31
0
210
0
220
0
230
1
100
AcDbText
 73
    2
  0
TEXT
  5
1CE
100
AcDbEntity
  8
ELEC_TEXTOS
  6
ByLayer
 62
  256
370
   -1
100
AcDbText
 10
2.65
 20
4.345499999999999
 30
0
 40
0.14
  1
subida TG
 50
0
 41
1
 51
0
  7
STANDARD
 71
    0
 72
    1
 11
2.65
 21
4.345499999999999
 31
0
210
0
220
0
230
1
100
AcDbText
 73
    2
  0
CIRCLE
  5
1CF
100
AcDbEntity
  8
ELEC_LUMINARIAS
  6
ByLayer
 62
  256
370
   -1
100
AcDbCircle
 10
4.827099822809712
 20
3.786267618821277
 40
0.18
  0
LINE
  5
1D0
100
AcDbEntity
  8
ELEC_LUMINARIAS
  6
ByLayer
 62
  256
370
   -1
100
AcDbLine
 10
4.701099822809713
 20
3.786267618821277
 11
4.953099822809713
 21
3.786267618821277
  0
LINE
  5
1D1
100
AcDbEntity
  8
ELEC_LUMINARIAS
  6
ByLayer
 62
  256
370
   -1
100
AcDbLine
 10
4.827099822809712
 20
3.660267618821277
 11
4.827099822809712
 21
3.912267618821277
  0
CIRCLE
  5
1D2
100
AcDbEntity
  8
ELEC_TOMACORRIENTES
  6
ByLayer
 62
  256
370
   -1
100
AcDbCircle
 10
9.225922318796229
 20
1.272868205792448
 40
0.13
  0
LINE
  5
1D3
100
AcDbEntity
  8
ELEC_TOMACORRIENTES
  6
ByLayer
 62
  256
370
   -1
100
AcDbLine
 10
9.154422318796229
 20
1.253368205792448
 11
9.297422318796229
 21
1.253368205792448
  0
LINE
  5
1D4
100
AcDbEntity
  8
ELEC_TOMACORRIENTES
  6
ByLayer
 62
  256
370
   -1
100
AcDbLine
 10
9.154422318796229
 20
1.298868205792448
 11
9.297422318796229
 21
1.298868205792448
  0
LINE
  5
1D5
100
AcDbEntity
  8
ELEC_TOMACORRIENTES
  6
ByLayer
 62
  256
370
   -1
100
AcDbLine
 10
9.225922318796229
 20
1.149368205792448
 11
9.225922318796229
 21
1.227368205792448
  0
CIRCLE
  5
1D6
100
AcDbEntity
  8
ELEC_TOMACORRIENTES
  6
ByLayer
 62
  256
370
   -1
100
AcDbCircle
 10
8.661157502489463
 20
2.779714060545553
 40
0.13
  0
LINE
  5
1D7
100
AcDbEntity
  8
ELEC_TOMACORRIENTES
  6
ByLayer
 62
  256
370
   -1
100
AcDbLine
 10
8.589657502489462
 20
2.760214060545553
 11
8.732657502489463
 21
2.760214060545553
  0
LINE
  5
1D8
100
AcDbEntity
  8
ELEC_TOMACORRIENTES
  6
ByLayer
 62
  256
370
   -1
100
AcDbLine
 10
8.589657502489462
 20
2.805714060545553
 11
8.732657502489463
 21
2.805714060545553
  0
LINE
  5
1D9
100
AcDbEntity
  8
ELEC_TOMACORRIENTES
  6
ByLayer
 62
  256
370
   -1
100
AcDbLine
 10
8.661157502489463
 20
2.656214060545553
 11
8.661157502489463
 21
2.734214060545553
  0
CIRCLE
  5
1DA
100
AcDbEntity
  8
ELEC_INTERRUPTORES
  6
ByLayer
 62
  256
370
   -1
100
AcDbCircle
 10
9.274020465582257
 20
2.199841430583688
 40
0.12
  0
LINE
  5
1DB
100
AcDbEntity
  8
ELEC_INTERRUPTORES
  6
ByLayer
 62
  256
370
   -1
100
AcDbLine
 10
9.274020465582257
 20
2.199841430583688
 11
9.466020465582258
 21
2.331841430583689
  0
TEXT
  5
1DC
100
AcDbEntity
  8
ELEC_TEXTOS
  6
ByLayer
 62
  256
370
   -1
100
AcDbText
 10
9.274020465582257
 20
2.429841430583688
 30
0
 40
0.13
  1
S
 50
0
 41
1
 51
0
  7
STANDARD
 71
    0
 72
    1
 11
9.274020465582257
 21
2.429841430583688
 31
0
210
0
220
0
230
1
100
AcDbText
 73
    2
  0
CIRCLE
  5
1DD
100
AcDbEntity
  8
ELEC_INTERRUPTORES
  6
ByLayer
 62
  256
370
   -1
100
AcDbCircle
 10
7.731262816827518
 20
2.211010250532047
 40
0.12
  0
LINE
  5
1DE
100
AcDbEntity
  8
ELEC_INTERRUPTORES
  6
ByLayer
 62
  256
370
   -1
100
AcDbLine
 10
7.731262816827518
 20
2.211010250532047
 11
7.923262816827518
 21
2.343010250532047
  0
TEXT
  5
1DF
100
AcDbEntity
  8
ELEC_TEXTOS
  6
ByLayer
 62
  256
370
   -1
100
AcDbText
 10
7.731262816827518
 20
2.441010250532047
 30
0
 40
0.13
  1
S
 50
0
 41
1
 51
0
  7
STANDARD
 71
    0
 72
    1
 11
7.731262816827518
 21
2.441010250532047
 31
0
210
0
220
0
230
1
100
AcDbText
 73
    2
  0
CIRCLE
  5
1E0
100
AcDbEntity
  8
ELEC_INTERRUPTORES
  6
ByLayer
 62
  256
370
   -1
100
AcDbCircle
 10
4.990363513190671
 20
5.04192248742388
 40
0.12
  0
LINE
  5
1E1
100
AcDbEntity
  8
ELEC_INTERRUPTORES
  6
ByLayer
 62
  256
370
   -1
100
AcDbLine
 10
4.990363513190671
 20
5.04192248742388
 11
5.182363513190671
 21
5.17392248742388
  0
TEXT
  5
1E2
100
AcDbEntity
  8
ELEC_TEXTOS
  6
ByLayer
 62
  256
370
   -1
100
AcDbText
 10
4.990363513190671
 20
5.271922487423881
 30
0
 40
0.13
  1
S
 50
0
 41
1
 51
0
  7
STANDARD
 71
    0
 72
    1
 11
4.990363513190671
 21
5.271922487423881
 31
0
210
0
220
0
230
1
100
AcDbText
 73
    2
  0
TEXT
  5
1E3
100
AcDbEntity
  8
ELEC_TEXTOS
  6
ByLayer
 62
  256
370
   -1
100
AcDbText
 10
4.990363513190671
 20
4.741922487423881
 30
0
 40
0.14
  1
C4
 50
0
 41
1
 51
0
  7
STANDARD
 71
    0
 72
    1
 11
4.990363513190671
 21
4.741922487423881
 31
0
210
0
220
0
230
1
100
AcDbText
 73
    2
  0
CIRCLE
  5
1E4
100
AcDbEntity
  8
ELEC_INTERRUPTORES
  6
ByLayer
 62
  256
370
   -1
100
AcDbCircle
 10
7.053857278260741
 20
4.978220494153536
 40
0.12
  0
LINE
  5
1E5
100
AcDbEntity
  8
ELEC_INTERRUPTORES
  6
ByLayer
 62
  256
370
   -1
100
AcDbLine
 10
7.053857278260741
 20
4.978220494153536
 11
7.245857278260742
 21
5.110220494153536
  0
TEXT
  5
1E6
100
AcDbEntity
  8
ELEC_TEXTOS
  6
ByLayer
 62
  256
370
   -1
100
AcDbText
 10
7.053857278260741
 20
5.208220494153537
 30
0
 40
0.13
  1
S
 50
0
 41
1
 51
0
  7
STANDARD
 71
    0
 72
    1
 11
7.053857278260741
 21
5.208220494153537
 31
0
210
0
220
0
230
1
100
AcDbText
 73
    2
  0
TEXT
  5
1E7
100
AcDbEntity
  8
ELEC_TEXTOS
  6
ByLayer
 62
  256
370
   -1
100
AcDbText
 10
7.053857278260741
 20
4.678220494153536
 30
0
 40
0.14
  1
C4
 50
0
 41
1
 51
0
  7
STANDARD
 71
    0
 72
    1
 11
7.053857278260741
 21
4.678220494153536
 31
0
210
0
220
0
230
1
100
AcDbText
 73
    2
  0
CIRCLE
  5
1E8
100
AcDbEntity
  8
ELEC_INTERRUPTORES
  6
ByLayer
 62
  256
370
   -1
100
AcDbCircle
 10
13.07190611044776
 20
4.964905161381601
 40
0.12
  0
LINE
  5
1E9
100
AcDbEntity
  8
ELEC_INTERRUPTORES
  6
ByLayer
 62
  256
370
   -1
100
AcDbLine
 10
13.07190611044776
 20
4.964905161381601
 11
13.26390611044776
 21
5.096905161381601
  0
TEXT
  5
1EA
100
AcDbEntity
  8
ELEC_TEXTOS
  6
ByLayer
 62
  256
370
   -1
100
AcDbText
 10
13.07190611044776
 20
5.194905161381602
 30
0
 40
0.13
  1
S
 50
0
 41
1
 51
0
  7
STANDARD
 71
    0
 72
    1
 11
13.07190611044776
 21
5.194905161381602
 31
0
210
0
220
0
230
1
100
AcDbText
 73
    2
  0
TEXT
  5
1EB
100
AcDbEntity
  8
ELEC_TEXTOS
  6
ByLayer
 62
  256
370
   -1
100
AcDbText
 10
13.07190611044776
 20
4.664905161381601
 30
0
 40
0.14
  1
C4
 50
0
 41
1
 51
0
  7
STANDARD
 71
    0
 72
    1
 11
13.07190611044776
 21
4.664905161381601
 31
0
210
0
220
0
230
1
100
AcDbText
 73
    2
  0
CIRCLE
  5
1EC
100
AcDbEntity
  8
ELEC_INTERRUPTORES
  6
ByLayer
 62
  256
370
   -1
100
AcDbCircle
 10
10.06517652597844
 20
5.043125655535137
 40
0.12
  0
LINE
  5
1ED
100
AcDbEntity
  8
ELEC_INTERRUPTORES
  6
ByLayer
 62
  256
370
   -1
100
AcDbLine
 10
10.06517652597844
 20
5.043125655535137
 11
10.25717652597844
 21
5.175125655535137
  0
TEXT
  5
1EE
100
AcDbEntity
  8
ELEC_TEXTOS
  6
ByLayer
 62
  256
370
   -1
100
AcDbText
 10
10.06517652597844
 20
5.273125655535138
 30
0
 40
0.13
  1
S
 50
0
 41
1
 51
0
  7
STANDARD
 71
    0
 72
    1
 11
10.06517652597844
 21
5.273125655535138
 31
0
210
0
220
0
230
1
100
AcDbText
 73
    2
  0
TEXT
  5
1EF
100
AcDbEntity
  8
ELEC_TEXTOS
  6
ByLayer
 62
  256
370
   -1
100
AcDbText
 10
10.06517652597844
 20
4.743125655535137
 30
0
 40
0.14
  1
C4
 50
0
 41
1
 51
0
  7
STANDARD
 71
    0
 72
    1
 11
10.06517652597844
 21
4.743125655535137
 31
0
210
0
220
0
230
1
100
AcDbText
 73
    2
  0
TEXT
  5
1F0
100
AcDbEntity
  8
ELEC_TEXTOS
  6
ByLayer
 62
  256
370
   -1
100
AcDbText
 10
7.7243762220601
 20
1.946185120126446
 30
0
 40
0.14
  1
C4
 50
0
 41
1
 51
0
  7
STANDARD
 71
    0
 72
    1
 11
7.7243762220601
 21
1.946185120126446
 31
0
210
0
220
0
230
1
100
AcDbText
 73
    2
  0
TEXT
  5
1F1
100
AcDbEntity
  8
ELEC_TEXTOS
  6
ByLayer
 62
  256
370
   -1
100
AcDbText
 10
9.279845937036725
 20
1.908768322858966
 30
0
 40
0.14
  1
C4
 50
0
 41
1
 51
0
  7
STANDARD
 71
    0
 72
    1
 11
9.279845937036725
 21
1.908768322858966
 31
0
210
0
220
0
230
1
100
AcDbText
 73
    2
  0
CIRCLE
  5
1F2
100
AcDbEntity
  8
ELEC_TOMACORRIENTES
  6
ByLayer
 62
  256
370
   -1
100
AcDbCircle
 10
3.35
 20
6.1
 40
0.13
  0
LINE
  5
1F3
100
AcDbEntity
  8
ELEC_TOMACORRIENTES
  6
ByLayer
 62
  256
370
   -1
100
AcDbLine
 10
3.2694
 20
6.055
 11
3.4306
 21
6.055
  0
LINE
  5
1F4
100
AcDbEntity
  8
ELEC_TOMACORRIENTES
  6
ByLayer
 62
  256
370
   -1
100
AcDbLine
 10
3.2694
 20
6.1
 11
3.4306
 21
6.1
  0
LINE
  5
1F5
100
AcDbEntity
  8
ELEC_TOMACORRIENTES
  6
ByLayer
 62
  256
370
   -1
100
AcDbLine
 10
3.2694
 20
6.145
 11
3.4306
 21
6.145
  0
TEXT
  5
1F6
100
AcDbEntity
  8
ELEC_TEXTOS
  6
ByLayer
 62
  256
370
   -1
100
AcDbText
 10
3.493
 20
5.9635
 30
0
 40
0.075
  1
TE
 50
0
 41
1
 51
0
  7
STANDARD
 71
    0
 11
3.493
 21
5.9635
 31
0
210
0
220
0
230
1
100
AcDbText
 73
    2
  0
CIRCLE
  5
1F7
100
AcDbEntity
  8
ELEC_TOMACORRIENTES
  6
ByLayer
 62
  256
370
   -1
100
AcDbCircle
 10
5.35
 20
8.050000000000001
 40
0.13
  0
LINE
  5
1F8
100
AcDbEntity
  8
ELEC_TOMACORRIENTES
  6
ByLayer
 62
  256
370
   -1
100
AcDbLine
 10
5.269399999999999
 20
8.005000000000001
 11
5.4306
 21
8.005000000000001
  0
LINE
  5
1F9
100
AcDbEntity
  8
ELEC_TOMACORRIENTES
  6
ByLayer
 62
  256
370
   -1
100
AcDbLine
 10
5.269399999999999
 20
8.050000000000001
 11
5.4306
 21
8.050000000000001
  0
LINE
  5
1FA
100
AcDbEntity
  8
ELEC_TOMACORRIENTES
  6
ByLayer
 62
  256
370
   -1
100
AcDbLine
 10
5.269399999999999
 20
8.095000000000001
 11
5.4306
 21
8.095000000000001
  0
TEXT
  5
1FB
100
AcDbEntity
  8
ELEC_TEXTOS
  6
ByLayer
 62
  256
370
   -1
100
AcDbText
 10
5.492999999999999
 20
7.913500000000001
 30
0
 40
0.075
  1
TE
 50
0
 41
1
 51
0
  7
STANDARD
 71
    0
 11
5.492999999999999
 21
7.913500000000001
 31
0
210
0
220
0
230
1
100
AcDbText
 73
    2
  0
CIRCLE
  5
1FC
100
AcDbEntity
  8
ELEC_TOMACORRIENTES
  6
ByLayer
 62
  256
370
   -1
100
AcDbCircle
 10
3.1
 20
5.25
 40
0.13
  0
LINE
  5
1FD
100
AcDbEntity
  8
ELEC_TOMACORRIENTES
  6
ByLayer
 62
  256
370
   -1
100
AcDbLine
 10
3.0194
 20
5.205
 11
3.1806
 21
5.205
  0
LINE
  5
1FE
100
AcDbEntity
  8
ELEC_TOMACORRIENTES
  6
ByLayer
 62
  256
370
   -1
100
AcDbLine
 10
3.0194
 20
5.25
 11
3.1806
 21
5.25
  0
LINE
  5
1FF
100
AcDbEntity
  8
ELEC_TOMACORRIENTES
  6
ByLayer
 62
  256
370
   -1
100
AcDbLine
 10
3.0194
 20
5.295
 11
3.1806
 21
5.295
  0
TEXT
  5
200
100
AcDbEntity
  8
ELEC_TEXTOS
  6
ByLayer
 62
  256
370
   -1
100
AcDbText
 10
3.243
 20
5.1135
 30
0
 40
0.09
  1
C
 50
0
 41
1
 51
0
  7
STANDARD
 71
    0
 11
3.243
 21
5.1135
 31
0
210
0
220
0
230
1
100
AcDbText
 73
    2
  0
CIRCLE
  5
201
100
AcDbEntity
  8
ELEC_TOMACORRIENTES
  6
ByLayer
 62
  256
370
   -1
100
AcDbCircle
 10
5.55
 20
5.05
 40
0.13
  0
LINE
  5
202
100
AcDbEntity
  8
ELEC_TOMACORRIENTES
  6
ByLayer
 62
  256
370
   -1
100
AcDbLine
 10
5.4694
 20
5.005
 11
5.630599999999999
 21
5.005
  0
LINE
  5
203
100
AcDbEntity
  8
ELEC_TOMACORRIENTES
  6
ByLayer
 62
  256
370
   -1
100
AcDbLine
 10
5.4694
 20
5.05
 11
5.630599999999999
 21
5.05
  0
LINE
  5
204
100
AcDbEntity
  8
ELEC_TOMACORRIENTES
  6
ByLayer
 62
  256
370
   -1
100
AcDbLine
 10
5.4694
 20
5.095
 11
5.630599999999999
 21
5.095
  0
TEXT
  5
205
100
AcDbEntity
  8
ELEC_TEXTOS
  6
ByLayer
 62
  256
370
   -1
100
AcDbText
 10
5.693
 20
4.9135
 30
0
 40
0.09
  1
L
 50
0
 41
1
 51
0
  7
STANDARD
 71
    0
 11
5.693
 21
4.9135
 31
0
210
0
220
0
230
1
100
AcDbText
 73
    2
  0
LWPOLYLINE
  5
206
100
AcDbEntity
  8
ELEC_LEYENDA
  6
ByLayer
 62
  256
370
   -1
100
AcDbPolyline
 90
    5
 70
    0
 43
0
 10
16.65
 20
9.35
 10
22.3
 20
9.35
 10
22.3
 20
1.399999999999999
 10
16.65
 20
1.399999999999999
 10
16.65
 20
9.35
  0
LINE
  5
207
100
AcDbEntity
  8
ELEC_LEYENDA
  6
ByLayer
 62
  256
370
   -1
100
AcDbLine
 10
16.65
 20
8.869999999999999
 11
22.3
 21
8.869999999999999
  0
TEXT
  5
208
100
AcDbEntity
  8
ELEC_TEXTOS
  6
ByLayer
 62
  256
370
   -1
100
AcDbText
 10
19.475
 20
9.109999999999999
 30
0
 40
0.18
  1
LEYENDA ELECTRICA
 50
0
 41
1
 51
0
  7
STANDARD
 71
    0
 72
    1
 11
19.475
 21
9.109999999999999
 31
0
210
0
220
0
230
1
100
AcDbText
 73
    2
  0
TEXT
  5
209
100
AcDbEntity
  8
ELEC_TEXTOS
  6
ByLayer
 62
  256
370
   -1
100
AcDbText
 10
16.87
 20
8.609999999999999
 30
0
 40
0.12
  1
Simbolos
 50
0
 41
1
 51
0
  7
STANDARD
 71
    0
 11
16.87
 21
8.609999999999999
 31
0
210
0
220
0
230
1
100
AcDbText
 73
    2
  0
CIRCLE
  5
20A
100
AcDbEntity
  8
ELEC_LUMINARIAS
  6
ByLayer
 62
  256
370
   -1
100
AcDbCircle
 10
16.97
 20
8.300000000000001
 40
0.12
  0
LINE
  5
20B
100
AcDbEntity
  8
ELEC_LUMINARIAS
  6
ByLayer
 62
  256
370
   -1
100
AcDbLine
 10
16.844
 20
8.300000000000001
 11
17.096
 21
8.300000000000001
  0
LINE
  5
20C
100
AcDbEntity
  8
ELEC_LUMINARIAS
  6
ByLayer
 62
  256
370
   -1
100
AcDbLine
 10
16.97
 20
8.174000000000001
 11
16.97
 21
8.426
  0
TEXT
  5
20D
100
AcDbEntity
  8
ELEC_TEXTOS
  6
ByLayer
 62
  256
370
   -1
100
AcDbText
 10
17.43
 20
8.300000000000001
 30
0
 40
0.115
  1
Punto para foco
 50
0
 41
1
 51
0
  7
STANDARD
 71
    0
 11
17.43
 21
8.300000000000001
 31
0
210
0
220
0
230
1
100
AcDbText
 73
    2
  0
CIRCLE
  5
20E
100
AcDbEntity
  8
ELEC_INTERRUPTORES
  6
ByLayer
 62
  256
370
   -1
100
AcDbCircle
 10
16.97
 20
7.96
 40
0.11
  0
LINE
  5
20F
100
AcDbEntity
  8
ELEC_INTERRUPTORES
  6
ByLayer
 62
  256
370
   -1
100
AcDbLine
 10
16.9865
 20
7.9655
 11
17.1405
 21
8.0755
  0
TEXT
  5
210
100
AcDbEntity
  8
ELEC_TEXTOS
  6
ByLayer
 62
  256
370
   -1
100
AcDbText
 10
17.1075
 20
8.108499999999999
 30
0
 40
0.08
  1
S
 50
0
 41
1
 51
0
  7
STANDARD
 71
    0
 72
    1
 11
17.1075
 21
8.108499999999999
 31
0
210
0
220
0
230
1
100
AcDbText
 73
    2
  0
TEXT
  5
211
100
AcDbEntity
  8
ELEC_TEXTOS
  6
ByLayer
 62
  256
370
   -1
100
AcDbText
 10
17.43
 20
7.96
 30
0
 40
0.115
  1
Interruptor simple
 50
0
 41
1
 51
0
  7
STANDARD
 71
    0
 11
17.43
 21
7.96
 31
0
210
0
220
0
230
1
100
AcDbText
 73
    2
  0
CIRCLE
  5
212
100
AcDbEntity
  8
ELEC_TOMACORRIENTES
  6
ByLayer
 62
  256
370
   -1
100
AcDbCircle
 10
16.97
 20
7.62
 40
0.12
  0
LINE
  5
213
100
AcDbEntity
  8
ELEC_TOMACORRIENTES
  6
ByLayer
 62
  256
370
   -1
100
AcDbLine
 10
16.8956
 20
7.5984
 11
17.0444
 21
7.5984
  0
LINE
  5
214
100
AcDbEntity
  8
ELEC_TOMACORRIENTES
  6
ByLayer
 62
  256
370
   -1
100
AcDbLine
 10
16.8956
 20
7.644
 11
17.0444
 21
7.644
  0
LINE
  5
215
100
AcDbEntity
  8
ELEC_TOMACORRIENTES
  6
ByLayer
 62
  256
370
   -1
100
AcDbLine
 10
16.97
 20
7.5
 11
16.97
 21
7.5696
  0
TEXT
  5
216
100
AcDbEntity
  8
ELEC_TEXTOS
  6
ByLayer
 62
  256
370
   -1
100
AcDbText
 10
17.114
 20
7.53
 30
0
 40
0.08
  1
T
 50
0
 41
1
 51
0
  7
STANDARD
 71
    0
 11
17.114
 21
7.53
 31
0
210
0
220
0
230
1
100
AcDbText
 73
    2
  0
TEXT
  5
217
100
AcDbEntity
  8
ELEC_TEXTOS
  6
ByLayer
 62
  256
370
   -1
100
AcDbText
 10
17.43
 20
7.62
 30
0
 40
0.115
  1
Tomacorriente con tierra
 50
0
 41
1
 51
0
  7
STANDARD
 71
    0
 11
17.43
 21
7.62
 31
0
210
0
220
0
230
1
100
AcDbText
 73
    2
  0
CIRCLE
  5
218
100
AcDbEntity
  8
ELEC_TOMACORRIENTES
  6
ByLayer
 62
  256
370
   -1
100
AcDbCircle
 10
16.97
 20
7.28
 40
0.12
  0
LINE
  5
219
100
AcDbEntity
  8
ELEC_TOMACORRIENTES
  6
ByLayer
 62
  256
370
   -1
100
AcDbLine
 10
16.8956
 20
7.235
 11
17.0444
 21
7.235
  0
LINE
  5
21A
100
AcDbEntity
  8
ELEC_TOMACORRIENTES
  6
ByLayer
 62
  256
370
   -1
100
AcDbLine
 10
16.8956
 20
7.28
 11
17.0444
 21
7.28
  0
LINE
  5
21B
100
AcDbEntity
  8
ELEC_TOMACORRIENTES
  6
ByLayer
 62
  256
370
   -1
100
AcDbLine
 10
16.8956
 20
7.325
 11
17.0444
 21
7.325
  0
TEXT
  5
21C
100
AcDbEntity
  8
ELEC_TEXTOS
  6
ByLayer
 62
  256
370
   -1
100
AcDbText
 10
17.102
 20
7.154
 30
0
 40
0.075
  1
TE
 50
0
 41
1
 51
0
  7
STANDARD
 71
    0
 11
17.102
 21
7.154
 31
0
210
0
220
0
230
1
100
AcDbText
 73
    2
  0
TEXT
  5
21D
100
AcDbEntity
  8
ELEC_TEXTOS
  6
ByLayer
 62
  256
370
   -1
100
AcDbText
 10
17.43
 20
7.28
 30
0
 40
0.115
  1
Toma especial cocina/servicio
 50
0
 41
1
 51
0
  7
STANDARD
 71
    0
 11
17.43
 21
7.28
 31
0
210
0
220
0
230
1
100
AcDbText
 73
    2
  0
CIRCLE
  5
21E
100
AcDbEntity
  8
ELEC_TOMACORRIENTES
  6
ByLayer
 62
  256
370
   -1
100
AcDbCircle
 10
16.97
 20
6.94
 40
0.12
  0
LINE
  5
21F
100
AcDbEntity
  8
ELEC_TOMACORRIENTES
  6
ByLayer
 62
  256
370
   -1
100
AcDbLine
 10
16.8956
 20
6.895
 11
17.0444
 21
6.895
  0
LINE
  5
220
100
AcDbEntity
  8
ELEC_TOMACORRIENTES
  6
ByLayer
 62
  256
370
   -1
100
AcDbLine
 10
16.8956
 20
6.94
 11
17.0444
 21
6.94
  0
LINE
  5
221
100
AcDbEntity
  8
ELEC_TOMACORRIENTES
  6
ByLayer
 62
  256
370
   -1
100
AcDbLine
 10
16.8956
 20
6.985
 11
17.0444
 21
6.985
  0
TEXT
  5
222
100
AcDbEntity
  8
ELEC_TEXTOS
  6
ByLayer
 62
  256
370
   -1
100
AcDbText
 10
17.102
 20
6.814
 30
0
 40
0.09
  1
L
 50
0
 41
1
 51
0
  7
STANDARD
 71
    0
 11
17.102
 21
6.814
 31
0
210
0
220
0
230
1
100
AcDbText
 73
    2
  0
TEXT
  5
223
100
AcDbEntity
  8
ELEC_TEXTOS
  6
ByLayer
 62
  256
370
   -1
100
AcDbText
 10
17.43
 20
6.94
 30
0
 40
0.115
  1
Salida especial lavadora
 50
0
 41
1
 51
0
  7
STANDARD
 71
    0
 11
17.43
 21
6.94
 31
0
210
0
220
0
230
1
100
AcDbText
 73
    2
  0
LWPOLYLINE
  5
224
100
AcDbEntity
  8
ELEC_TABLERO
  6
ByLayer
 62
  256
370
   -1
100
AcDbPolyline
 90
    5
 70
    0
 43
0
 10
16.8
 20
6.489999999999999
 10
17.14
 20
6.489999999999999
 10
17.14
 20
6.71
 10
16.8
 20
6.71
 10
16.8
 20
6.489999999999999
  0
TEXT
  5
225
100
AcDbEntity
  8
ELEC_TEXTOS
  6
ByLayer
 62
  256
370
   -1
100
AcDbText
 10
16.97
 20
6.6
 30
0
 40
0.1
  1
T2
 50
0
 41
1
 51
0
  7
STANDARD
 71
    0
 72
    1
 11
16.97
 21
6.6
 31
0
210
0
220
0
230
1
100
AcDbText
 73
    2
  0
TEXT
  5
226
100
AcDbEntity
  8
ELEC_TEXTOS
  6
ByLayer
 62
  256
370
   -1
100
AcDbText
 10
17.43
 20
6.6
 30
0
 40
0.115
  1
Tablero segundo piso T2
 50
0
 41
1
 51
0
  7
STANDARD
 71
    0
 11
17.43
 21
6.6
 31
0
210
0
220
0
230
1
100
AcDbText
 73
    2
  0
CIRCLE
  5
227
100
AcDbEntity
  8
ELEC_CANALIZACION
  6
ByLayer
 62
  256
370
   -1
100
AcDbCircle
 10
16.97
 20
6.26
 40
0.13
  0
LINE
  5
228
100
AcDbEntity
  8
ELEC_CANALIZACION
  6
ByLayer
 62
  256
370
   -1
100
AcDbLine
 10
16.8764
 20
6.166399999999999
 11
17.0636
 21
6.3536
  0
LINE
  5
229
100
AcDbEntity
  8
ELEC_CANALIZACION
  6
ByLayer
 62
  256
370
   -1
100
AcDbLine
 10
16.8764
 20
6.3536
 11
17.0636
 21
6.166399999999999
  0
TEXT
  5
22A
100
AcDbEntity
  8
ELEC_TEXTOS
  6
ByLayer
 62
  256
370
   -1
100
AcDbText
 10
17.43
 20
6.26
 30
0
 40
0.115
  1
Ducto vertical VD
 50
0
 41
1
 51
0
  7
STANDARD
 71
    0
 11
17.43
 21
6.26
 31
0
210
0
220
0
230
1
100
AcDbText
 73
    2
  0
TEXT
  5
22B
100
AcDbEntity
  8
ELEC_TEXTOS
  6
ByLayer
 62
  256
370
   -1
100
AcDbText
 10
16.87
 20
5.82
 30
0
 40
0.12
  1
Lineas
 50
0
 41
1
 51
0
  7
STANDARD
 71
    0
 11
16.87
 21
5.82
 31
0
210
0
220
0
230
1
100
AcDbText
 73
    2
  0
LINE
  5
22C
100
AcDbEntity
  8
ELEC_CIRCUITO_C4
  6
DASHED
 62
  256
370
   18
100
AcDbLine
 10
16.87
 20
5.55
 11
17.5
 21
5.55
  0
TEXT
  5
22D
100
AcDbEntity
  8
ELEC_TEXTOS
  6
ByLayer
 62
  256
370
   -1
100
AcDbText
 10
17.67
 20
5.55
 30
0
 40
0.112
  1
C4 Alumbrado
 50
0
 41
1
 51
0
  7
STANDARD
 71
    0
 11
17.67
 21
5.55
 31
0
210
0
220
0
230
1
100
AcDbText
 73
    2
  0
LINE
  5
22E
100
AcDbEntity
  8
ELEC_CIRCUITO_C5
  6
DASHED
 62
  256
370
   18
100
AcDbLine
 10
16.87
 20
5.25
 11
17.5
 21
5.25
  0
TEXT
  5
22F
100
AcDbEntity
  8
ELEC_TEXTOS
  6
ByLayer
 62
  256
370
   -1
100
AcDbText
 10
17.67
 20
5.25
 30
0
 40
0.112
  1
C5 Tomacorrientes
 50
0
 41
1
 51
0
  7
STANDARD
 71
    0
 11
17.67
 21
5.25
 31
0
210
0
220
0
230
1
100
AcDbText
 73
    2
  0
LINE
  5
230
100
AcDbEntity
  8
ELEC_CIRCUITO_C6
  6
DASHED
 62
  256
370
   18
100
AcDbLine
 10
16.87
 20
4.95
 11
17.5
 21
4.95
  0
TEXT
  5
231
100
AcDbEntity
  8
ELEC_TEXTOS
  6
ByLayer
 62
  256
370
   -1
100
AcDbText
 10
17.67
 20
4.95
 30
0
 40
0.112
  1
C6 Cocina/servicio
 50
0
 41
1
 51
0
  7
STANDARD
 71
    0
 11
17.67
 21
4.95
 31
0
210
0
220
0
230
1
100
AcDbText
 73
    2
  0
LINE
  5
232
100
AcDbEntity
  8
ELEC_CIRCUITO_C7
  6
DASHED
 62
  256
370
   18
100
AcDbLine
 10
16.87
 20
4.65
 11
17.5
 21
4.65
  0
TEXT
  5
233
100
AcDbEntity
  8
ELEC_TEXTOS
  6
ByLayer
 62
  256
370
   -1
100
AcDbText
 10
17.67
 20
4.65
 30
0
 40
0.112
  1
C7 Lavadora
 50
0
 41
1
 51
0
  7
STANDARD
 71
    0
 11
17.67
 21
4.65
 31
0
210
0
220
0
230
1
100
AcDbText
 73
    2
  0
LINE
  5
234
100
AcDbEntity
  8
ELEC_CANALIZACION
  6
CONTINUOUS
 62
  256
370
   18
100
AcDbLine
 10
16.87
 20
4.35
 11
17.5
 21
4.35
  0
TEXT
  5
235
100
AcDbEntity
  8
ELEC_TEXTOS
  6
ByLayer
 62
  256
370
   -1
100
AcDbText
 10
17.67
 20
4.35
 30
0
 40
0.112
  1
Subida/bajada TG-T2
 50
0
 41
1
 51
0
  7
STANDARD
 71
    0
 11
17.67
 21
4.35
 31
0
210
0
220
0
230
1
100
AcDbText
 73
    2
  0
LINE
  5
236
100
AcDbEntity
  8
ELEC_CANALIZACION
  6
DASHED
 62
  256
370
   18
100
AcDbLine
 10
16.87
 20
4.05
 11
17.5
 21
4.05
  0
TEXT
  5
237
100
AcDbEntity
  8
ELEC_TEXTOS
  6
ByLayer
 62
  256
370
   -1
100
AcDbText
 10
17.67
 20
4.05
 30
0
 40
0.112
  1
Canalizacion empotrada
 50
0
 41
1
 51
0
  7
STANDARD
 71
    0
 11
17.67
 21
4.05
 31
0
210
0
220
0
230
1
100
AcDbText
 73
    2
  0
TEXT
  5
238
100
AcDbEntity
  8
ELEC_TEXTOS
  6
ByLayer
 62
  256
370
   -1
100
AcDbText
 10
16.87
 20
3.72
 30
0
 40
0.095
  1
Base: Seccion 9 DGE / ubicaciones manuales v2 preservadas
 50
0
 41
1
 51
0
  7
STANDARD
 71
    0
 11
16.87
 21
3.72
 31
0
210
0
220
0
230
1
100
AcDbText
 73
    2
  0
LWPOLYLINE
  5
239
100
AcDbEntity
  8
ELEC_CIRCUITO_C4
  6
DASHED
 62
  256
370
   18
100
AcDbPolyline
 90
    4
 70
    0
 43
0
 10
5.05
 20
4.88
 10
5.05
 20
5.62
 10
3.95
 20
5.62
 10
3.95
 20
6.15
  0
LWPOLYLINE
  5
23A
100
AcDbEntity
  8
ELEC_CIRCUITO_C4
  6
DASHED
 62
  256
370
   18
100
AcDbPolyline
 90
    3
 70
    0
 43
0
 10
5.05
 20
5.62
 10
5.15
 20
5.62
 10
5.15
 20
7.65
  0
LWPOLYLINE
  5
23B
100
AcDbEntity
  8
ELEC_CIRCUITO_C4
  6
DASHED
 62
  256
370
   18
100
AcDbPolyline
 90
    4
 70
    0
 43
0
 10
7.15
 20
4.88
 10
7.15
 20
5.3
 10
7.5
 20
5.3
 10
7.5
 20
6.75
  0
LWPOLYLINE
  5
23C
100
AcDbEntity
  8
ELEC_CIRCUITO_C4
  6
DASHED
 62
  256
370
   18
100
AcDbPolyline
 90
    4
 70
    0
 43
0
 10
10.15
 20
4.88
 10
10.15
 20
5.3
 10
10.5
 20
5.3
 10
10.5
 20
6.75
  0
LWPOLYLINE
  5
23D
100
AcDbEntity
  8
ELEC_CIRCUITO_C4
  6
DASHED
 62
  256
370
   18
100
AcDbPolyline
 90
    5
 70
    0
 43
0
 10
12.55
 20
4.88
 10
13.1
 20
4.88
 10
13.1
 20
6.25
 10
14.1
 20
6.25
 10
14.1
 20
7.6
  0
LWPOLYLINE
  5
23E
100
AcDbEntity
  8
ELEC_CIRCUITO_C4
  6
DASHED
 62
  256
370
   18
100
AcDbPolyline
 90
    6
 70
    0
 43
0
 10
12.55
 20
4.25
 10
12.55
 20
3.92
 10
9.35
 20
3.92
 10
9.35
 20
2.2
 10
8.25
 20
2.2
 10
8.25
 20
1.55
  0
LWPOLYLINE
  5
23F
100
AcDbEntity
  8
ELEC_CIRCUITO_C4
  6
DASHED
 62
  256
370
   18
100
AcDbPolyline
 90
    3
 70
    0
 43
0
 10
9.35
 20
2.2
 10
11.7
 20
2.2
 10
11.7
 20
1.55
  0
LWPOLYLINE
  5
240
100
AcDbEntity
  8
ELEC_CIRCUITO_C4
  6
DASHED
 62
  256
370
   18
100
AcDbPolyline
 90
    3
 70
    0
 43
0
 10
12.55
 20
4.25
 10
14
 20
4.25
 10
14
 20
3.75
  0
LWPOLYLINE
  5
241
100
AcDbEntity
  8
ELEC_CIRCUITO_C4
  6
DASHED
 62
  256
370
   18
100
AcDbPolyline
 90
    3
 70
    0
 43
0
 10
5.05
 20
4.88
 10
4.827
 20
4.88
 10
4.827
 20
3.786
  0
LWPOLYLINE
  5
242
100
AcDbEntity
  8
ELEC_CIRCUITO_C5
  6
DASHED
 62
  256
370
   18
100
AcDbPolyline
 90
    8
 70
    0
 43
0
 10
12.55
 20
4.25
 10
12.85
 20
4.25
 10
12.85
 20
5.5
 10
14.55
 20
5.5
 10
14.55
 20
8.050000000000001
 10
14.55
 20
8.42
 10
11.65
 20
8.42
 10
8.65
 20
8.42
  0
LWPOLYLINE
  5
243
100
AcDbEntity
  8
ELEC_CIRCUITO_C5
  6
DASHED
 62
  256
370
   18
100
AcDbPolyline
 90
    8
 70
    0
 43
0
 10
12.85
 20
5.5
 10
12.3
 20
5.5
 10
12.3
 20
5.72
 10
9.35
 20
5.72
 10
9.35
 20
6
 10
9.35
 20
5.72
 10
6.25
 20
5.72
 10
6.25
 20
6
  0
LWPOLYLINE
  5
244
100
AcDbEntity
  8
ELEC_CIRCUITO_C5
  6
DASHED
 62
  256
370
   18
100
AcDbPolyline
 90
   11
 70
    0
 43
0
 10
12.55
 20
4.25
 10
14.25
 20
4.25
 10
14.25
 20
3.85
 10
14.55
 20
3.85
 10
14.55
 20
1.35
 10
11.8
 20
1.35
 10
11.8
 20
0.35
 10
9.226000000000001
 20
0.35
 10
9.226000000000001
 20
1.273
 10
8.661
 20
1.273
 10
8.661
 20
2.78
  0
LWPOLYLINE
  5
245
100
AcDbEntity
  8
ELEC_CIRCUITO_C6
  6
DASHED
 62
  256
370
   18
100
AcDbPolyline
 90
    6
 70
    0
 43
0
 10
12.55
 20
4.25
 10
12.55
 20
4.62
 10
8.199999999999999
 20
4.62
 10
5.6
 20
4.62
 10
3.1
 20
4.62
 10
3.1
 20
5.25
  0
LWPOLYLINE
  5
246
100
AcDbEntity
  8
ELEC_CIRCUITO_C6
  6
DASHED
 62
  256
370
   18
100
AcDbPolyline
 90
    4
 70
    0
 43
0
 10
3.1
 20
5.25
 10
3.1
 20
5.72
 10
3.35
 20
5.72
 10
3.35
 20
6.1
  0
LWPOLYLINE
  5
247
100
AcDbEntity
  8
ELEC_CIRCUITO_C6
  6
DASHED
 62
  256
370
   18
100
AcDbPolyline
 90
    4
 70
    0
 43
0
 10
3.35
 20
6.1
 10
3.35
 20
7.95
 10
5.35
 20
7.95
 10
5.35
 20
8.050000000000001
  0
LWPOLYLINE
  5
248
100
AcDbEntity
  8
ELEC_CIRCUITO_C7
  6
DASHED
 62
  256
370
   18
100
AcDbPolyline
 90
    5
 70
    0
 43
0
 10
12.55
 20
4.25
 10
12.55
 20
4.32
 10
8.199999999999999
 20
4.32
 10
5.55
 20
4.32
 10
5.55
 20
5.05
  0
LWPOLYLINE
  5
249
100
AcDbEntity
  8
ELEC_CANALIZACION
  6
CONTINUOUS
 62
  256
370
   18
100
AcDbPolyline
 90
    4
 70
    0
 43
0
 10
2.65
 20
4.8
 10
2.65
 20
4.1
 10
12.55
 20
4.1
 10
12.55
 20
4.25
  0
LWPOLYLINE
  5
24A
100
AcDbEntity
  8
ELEC_CIRCUITO_C4
  6
DASHED
 62
  256
370
   18
100
AcDbPolyline
 90
    3
 70
    0
 43
0
 10
1.5
 20
4.88
 10
1.5
 20
4.88
 10
1.5
 20
6.55
  0
LWPOLYLINE
  5
24B
100
AcDbEntity
  8
ELEC_CIRCUITO_C4
  6
DASHED
 62
  256
370
   18
100
AcDbPolyline
 90
    6
 70
    0
 43
0
 10
12.55
 20
4.25
 10
12.55
 20
4.88
 10
10.15
 20
4.88
 10
7.15
 20
4.88
 10
5.05
 20
4.88
 10
1.5
 20
4.88
  0
ENDSEC
  0
SECTION
  2
OBJECTS
  0
DICTIONARY
  5
C
330
0
100
AcDbDictionary
281
    1
  3
ACAD_GROUP
350
D
  0
DICTIONARY
  5
D
330
C
100
AcDbDictionary
281
    1
  0
PLOTSETTINGS
  5
24C
100
AcDbPlotSettings
  6
1x1
 40
0
 41
0
 42
0
 43
0
  0
ENDSEC
  0
EOF
