999
dxfrw 0.6.3
  0
SECTION
  2
HEADER
  9
$ACADVER
  1
AC1021
  9
$DWGCODEPAGE
  3
ANSI_1252
  9
$INSBASE
 10
0
 20
0
 30
0
  9
$EXTMIN
 10
-0.9537117312573358
 20
9.867248296470128
 30
0
  9
$EXTMAX
 10
25.82357918481402
 20
30.51877540023474
 30
0
  9
$LIMMIN
 10
0
 20
0
  9
$LIMMAX
 10
420
 20
297
  9
$ORTHOMODE
 70
    0
  9
$REGENMODE
 70
    1
  9
$FILLMODE
 70
    1
  9
$QTEXTMODE
 70
    0
  9
$MIRRTEXT
 70
    1
  9
$LTSCALE
 40
1
  9
$ATTMODE
 70
    1
  9
$TEXTSIZE
 40
2.5
  9
$TRACEWID
 40
1
  9
$TEXTSTYLE
  7
OpenSans
  9
$CLAYER
  8
0
  9
$CELTYPE
  6
ByLayer
  9
$CECOLOR
 62
  256
  9
$CELTSCALE
 40
1
  9
$DISPSILH
 70
    0
  9
$DIMSCALE
 40
1
  9
$DIMASZ
 40
0.175
  9
$DIMEXO
 40
0.125
  9
$DIMDLI
 40
3.75
  9
$DIMRND
 40
0
  9
$DIMDLE
 40
0
  9
$DIMEXE
 40
0.375
  9
$DIMTP
 40
0
  9
$DIMTM
 40
0
  9
$DIMTXT
 40
0.25
  9
$DIMCEN
 40
2.5
  9
$DIMTSZ
 40
0
  9
$DIMTOL
 70
    0
  9
$DIMLIM
 70
    0
  9
$DIMTIH
 70
    0
  9
$DIMTOH
 70
    0
  9
$DIMSE1
 70
    0
  9
$DIMSE2
 70
    0
  9
$DIMTAD
 70
    1
  9
$DIMZIN
 70
   12
  9
$DIMBLK
  1
ARCHTICK
  9
$DIMASO
 70
    1
  9
$DIMSHO
 70
    1
  9
$DIMPOST
  1

  9
$DIMAPOST
  1

  9
$DIMALT
 70
    0
  9
$DIMALTD
 70
    3
  9
$DIMALTF
 40
0.03937007874
  9
$DIMLFAC
 40
100
  9
$DIMTOFL
 70
    1
  9
$DIMTVP
 40
0
  9
$DIMTIX
 70
    0
  9
$DIMSOXD
 70
    0
  9
$DIMSAH
 70
    0
  9
$DIMBLK1
  1

  9
$DIMBLK2
  1

  9
$DIMSTYLE
  2
EZDXF
  9
$DIMCLRD
 70
    0
  9
$DIMCLRE
 70
    0
  9
$DIMCLRT
 70
    0
  9
$DIMTFAC
 40
0.5
  9
$DIMGAP
 40
0.1
  9
$DIMJUST
 70
    0
  9
$DIMSD1
 70
    0
  9
$DIMSD2
 70
    0
  9
$DIMTOLJ
 70
    0
  9
$DIMTZIN
 70
    8
  9
$DIMALTZ
 70
    0
  9
$DIMALTTZ
 70
    0
  9
$DIMUPT
 70
    1
  9
$DIMDEC
 70
    2
  9
$DIMTDEC
 70
    2
  9
$DIMALTU
 70
    2
  9
$DIMALTTD
 70
    3
  9
$DIMTXSTY
  7
OpenSansCondensed-Light
  9
$DIMAUNIT
 70
    0
  9
$DIMADEC
 70
    2
  9
$DIMALTRND
 40
0
  9
$DIMAZIN
 70
    3
  9
$DIMDSEP
 70
   46
  9
$DIMATFIT
 70
    3
  9
$DIMFRAC
 70
    0
  9
$DIMLDRBLK
  1

  9
$DIMLUNIT
 70
    2
  9
$DIMLWD
 70
   -2
  9
$DIMLWE
 70
   -2
  9
$DIMTMOVE
 70
    2
  9
$DIMFXL
 40
1
  9
$DIMFXLON
 70
    0
  9
$DIMJOGANG
 40
0.785398163397
  9
$DIMTFILL
 70
    0
  9
$DIMTFILLCLR
 70
    0
  9
$DIMARCSYM
 70
    0
  9
$DIMLTYPE
  6

  9
$DIMLTEX1
  6

  9
$DIMLTEX2
  6

  9
$LUNITS
 70
    2
  9
$LUPREC
 70
    4
  9
$SKETCHINC
 40
1
  9
$FILLETRAD
 40
10
  9
$AUNITS
 70
    0
  9
$AUPREC
 70
    2
  9
$MENU
  1
.
  9
$ELEVATION
 40
0
  9
$PELEVATION
 40
0
  9
$THICKNESS
 40
0
  9
$LIMCHECK
 70
    0
  9
$CHAMFERA
 40
0
  9
$CHAMFERB
 40
0
  9
$CHAMFERC
 40
0
  9
$CHAMFERD
 40
0
  9
$SKPOLY
 70
    0
  9
$USRTIMER
 70
    1
  9
$ANGBASE
 50
0
  9
$ANGDIR
 70
    0
  9
$PDMODE
 70
    0
  9
$PDSIZE
 40
0
  9
$PLINEWID
 40
0
  9
$SPLFRAME
 70
    0
  9
$SPLINETYPE
 70
    6
  9
$SPLINESEGS
 70
    8
  9
$HANDSEED
  5
20000
  9
$SURFTAB1
 70
    6
  9
$SURFTAB2
 70
    6
  9
$SURFTYPE
 70
    6
  9
$SURFU
 70
    6
  9
$SURFV
 70
    6
  9
$UCSBASE
  2

  9
$UCSNAME
  2

  9
$UCSORG
 10
0
 20
0
 30
0
  9
$UCSXDIR
 10
1
 20
0
 30
0
  9
$UCSYDIR
 10
0
 20
1
 30
0
  9
$UCSORTHOREF
  2

  9
$UCSORTHOVIEW
 70
    0
  9
$UCSORGTOP
 10
0
 20
0
 30
0
  9
$UCSORGBOTTOM
 10
0
 20
0
 30
0
  9
$UCSORGLEFT
 10
0
 20
0
 30
0
  9
$UCSORGRIGHT
 10
0
 20
0
 30
0
  9
$UCSORGFRONT
 10
0
 20
0
 30
0
  9
$UCSORGBACK
 10
0
 20
0
 30
0
  9
$PUCSBASE
  2

  9
$PUCSNAME
  2

  9
$PUCSORG
 10
0
 20
0
 30
0
  9
$PUCSXDIR
 10
1
 20
0
 30
0
  9
$PUCSYDIR
 10
0
 20
1
 30
0
  9
$PUCSORTHOREF
  2

  9
$PUCSORTHOVIEW
 70
    0
  9
$PUCSORGTOP
 10
0
 20
0
 30
0
  9
$PUCSORGBOTTOM
 10
0
 20
0
 30
0
  9
$PUCSORGLEFT
 10
0
 20
0
 30
0
  9
$PUCSORGRIGHT
 10
0
 20
0
 30
0
  9
$PUCSORGFRONT
 10
0
 20
0
 30
0
  9
$PUCSORGBACK
 10
0
 20
0
 30
0
  9
$USERI1
 70
    0
  9
$USERI2
 70
    0
  9
$USERI3
 70
    0
  9
$USERI4
 70
    0
  9
$USERI5
 70
    0
  9
$USERR1
 40
0
  9
$USERR2
 40
0
  9
$USERR3
 40
0
  9
$USERR4
 40
0
  9
$USERR5
 40
0
  9
$WORLDVIEW
 70
    1
  9
$SHADEDGE
 70
    3
  9
$SHADEDIF
 70
   70
  9
$TILEMODE
 70
    1
  9
$MAXACTVP
 70
   64
  9
$PINSBASE
 10
31.16696269982235
 20
-141.9058614564832
 30
0
  9
$PLIMCHECK
 70
    0
  9
$PEXTMIN
 10
1e+20
 20
1e+20
 30
1e+20
  9
$PEXTMAX
 10
-1e+20
 20
-1e+20
 30
-1e+20
  9
$GRIDMODE
 70
    0
  9
$SNAPSTYLE
 70
    0
  9
$PLIMMIN
 10
0
 20
0
  9
$PLIMMAX
 10
420
 20
297
  9
$UNITMODE
 70
    0
  9
$VISRETAIN
 70
    1
  9
$PLINEGEN
 70
    0
  9
$PSLTSCALE
 70
    1
  9
$TREEDEPTH
 70
 3020
  9
$CMLSTYLE
  2
Standard
  9
$CMLJUST
 70
    0
  9
$CMLSCALE
 40
20
  9
$PROXYGRAPHICS
 70
    1
  9
$MEASUREMENT
 70
    1
  9
$CELWEIGHT
370
   -1
  9
$ENDCAPS
280
    0
  9
$JOINSTYLE
280
    0
  9
$LWDISPLAY
290
    0
  9
$INSUNITS
 70
    6
  9
$HYPERLINKBASE
  1

  9
$STYLESHEET
  1

  9
$XEDIT
290
    1
  9
$CEPSNTYPE
380
    0
  9
$PSTYLEMODE
290
    1
  9
$EXTNAMES
290
    1
  9
$PSVPSCALE
 40
14.38150304854982
  9
$OLESTARTUP
290
    0
  9
$SORTENTS
280
  127
  9
$INDEXCTL
280
    0
  9
$HIDETEXT
280
    1
  9
$XCLIPFRAME
290
    1
  9
$HALOGAP
280
    0
  9
$OBSCOLOR
 70
  257
  9
$OBSLTYPE
280
    0
  9
$INTERSECTIONDISPLAY
280
    0
  9
$INTERSECTIONCOLOR
 70
  257
  9
$DIMASSOC
280
    2
  9
$PROJECTNAME
  1

  9
$CAMERADISPLAY
290
    0
  9
$LENSLENGTH
 40
50
  9
$CAMERAHEIGHT
 40
0
  9
$STEPSPERSEC
 40
24
  9
$STEPSIZE
 40
100
  9
$3DDWFPREC
 40
2
  9
$PSOLWIDTH
 40
0.005
  9
$PSOLHEIGHT
 40
0.08
  9
$LOFTANG1
 40
1.570796326795
  9
$LOFTANG2
 40
1.570796326795
  9
$LOFTMAG1
 40
0
  9
$LOFTMAG2
 40
0
  9
$LOFTPARAM
 70
    7
  9
$LOFTNORMALS
280
    1
  9
$LATITUDE
 40
37.795
  9
$LONGITUDE
 40
-122.394
  9
$NORTHDIRECTION
 40
0
  9
$TIMEZONE
 70
-8000
  9
$LIGHTGLYPHDISPLAY
280
    1
  9
$TILEMODELIGHTSYNCH
280
    1
  9
$SOLIDHIST
280
    0
  9
$SHOWHIST
280
    1
  9
$DWFFRAME
280
    2
  9
$DGNFRAME
280
    2
  9
$REALWORLDSCALE
290
    1
  9
$INTERFERECOLOR
 62
  256
  9
$CSHADOW
280
    0
  9
$SHADOWPLANELOCATION
 40
0
  0
ENDSEC
  0
SECTION
  2
CLASSES
  0
ENDSEC
  0
SECTION
  2
TABLES
  0
TABLE
  2
VPORT
  5
8
330
0
100
AcDbSymbolTable
 70
    1
  0
VPORT
  5
31
330
2
100
AcDbSymbolTableRecord
100
AcDbViewportTableRecord
  2
*ACTIVE
 70
    0
 10
0
 20
0
 11
1
 21
1
 12
16.56157102548796
 22
17.00174567068366
 13
0
 23
0
 14
10
 24
10
 15
10
 25
10
 16
0
 26
0
 36
1
 17
0
 27
0
 37
0
 40
27.80436508819464
 41
1.920844327176781
 42
50
 43
0
 44
0
 50
0
 51
0
 71
    0
 72
  100
 73
    1
 74
    3
 75
    0
 76
    0
 77
    0
 78
    0
281
    0
 65
    1
110
0
120
0
130
0
111
1
121
0
131
0
112
0
122
1
132
0
 79
    0
146
0
348
10020
 60
    7
 61
    5
292
1
282
    1
141
0
142
0
 63
  250
421
3358443
  0
ENDTAB
  0
TABLE
  2
LTYPE
  5
5
330
0
100
AcDbSymbolTable
 70
    4
  0
LTYPE
  5
14
330
5
100
AcDbSymbolTableRecord
100
AcDbLinetypeTableRecord
  2
ByBlock
 70
    0
  3

 72
   65
 73
    0
 40
0
  0
LTYPE
  5
15
330
5
100
AcDbSymbolTableRecord
100
AcDbLinetypeTableRecord
  2
ByLayer
 70
    0
  3

 72
   65
 73
    0
 40
0
  0
LTYPE
  5
16
330
5
100
AcDbSymbolTableRecord
100
AcDbLinetypeTableRecord
  2
Continuous
 70
    0
  3
Solid line
 72
   65
 73
    0
 40
0
  0
LTYPE
  5
32
330
5
100
AcDbSymbolTableRecord
100
AcDbLinetypeTableRecord
  2
DOT
 70
    0
  3
Dot . . . . . . . . . . . . . . . . . . . . . .
 72
   65
 73
    2
 40
6.35
 49
0
 74
    0
 49
-6.35
 74
    0
  0
LTYPE
  5
33
330
5
100
AcDbSymbolTableRecord
100
AcDbLinetypeTableRecord
  2
DOTTINY
 70
    0
  3
Dot (.15x) .....................................
 72
   65
 73
    2
 40
0.9525
 49
0
 74
    0
 49
-0.9525
 74
    0
  0
LTYPE
  5
34
330
5
100
AcDbSymbolTableRecord
100
AcDbLinetypeTableRecord
  2
DOT2
 70
    0
  3
Dot (.5x) .....................................
 72
   65
 73
    2
 40
3.175
 49
0
 74
    0
 49
-3.175
 74
    0
  0
LTYPE
  5
35
330
5
100
AcDbSymbolTableRecord
100
AcDbLinetypeTableRecord
  2
DOTX2
 70
    0
  3
Dot (2x) .  .  .  .  .  .  .  .  .  .  .  .  .
 72
   65
 73
    2
 40
12.7
 49
0
 74
    0
 49
-12.7
 74
    0
  0
LTYPE
  5
36
330
5
100
AcDbSymbolTableRecord
100
AcDbLinetypeTableRecord
  2
DASHED
 70
    0
  3
Dashed _ _ _ _ _ _ _ _ _ _ _ _ _ _ _ _ _
 72
   65
 73
    2
 40
19.05
 49
12.7
 74
    0
 49
-6.35
 74
    0
  0
LTYPE
  5
37
330
5
100
AcDbSymbolTableRecord
100
AcDbLinetypeTableRecord
  2
DASHEDTINY
 70
    0
  3
Dashed (.15x) _ _ _ _ _ _ _ _ _ _ _ _ _ _ _ _ _
 72
   65
 73
    2
 40
2.8575
 49
1.905
 74
    0
 49
-0.9525
 74
    0
  0
LTYPE
  5
38
330
5
100
AcDbSymbolTableRecord
100
AcDbLinetypeTableRecord
  2
DASHED2
 70
    0
  3
Dashed (.5x) _ _ _ _ _ _ _ _ _ _ _ _ _ _ _ _ _
 72
   65
 73
    2
 40
9.524999999999999
 49
6.35
 74
    0
 49
-3.175
 74
    0
  0
LTYPE
  5
39
330
5
100
AcDbSymbolTableRecord
100
AcDbLinetypeTableRecord
  2
DASHEDX2
 70
    0
  3
Dashed (2x) ____  ____  ____  ____  ____  ___
 72
   65
 73
    2
 40
38.09999999999999
 49
25.4
 74
    0
 49
-12.7
 74
    0
  0
LTYPE
  5
3A
330
5
100
AcDbSymbolTableRecord
100
AcDbLinetypeTableRecord
  2
DASHDOT
 70
    0
  3
Dash dot __ . __ . __ . __ . __ . __ . __ . __
 72
   65
 73
    4
 40
25.4
 49
12.7
 74
    0
 49
-6.35
 74
    0
 49
0
 74
    0
 49
-6.35
 74
    0
  0
LTYPE
  5
3B
330
5
100
AcDbSymbolTableRecord
100
AcDbLinetypeTableRecord
  2
DASHDOTTINY
 70
    0
  3
Dash dot (.15x) _._._._._._._._._._._._._._._.
 72
   65
 73
    4
 40
3.81
 49
1.905
 74
    0
 49
-0.9525
 74
    0
 49
0
 74
    0
 49
-0.9525
 74
    0
  0
LTYPE
  5
3C
330
5
100
AcDbSymbolTableRecord
100
AcDbLinetypeTableRecord
  2
DASHDOT2
 70
    0
  3
Dash dot (.5x) _._._._._._._._._._._._._._._.
 72
   65
 73
    4
 40
12.7
 49
6.35
 74
    0
 49
-3.175
 74
    0
 49
0
 74
    0
 49
-3.175
 74
    0
  0
LTYPE
  5
3D
330
5
100
AcDbSymbolTableRecord
100
AcDbLinetypeTableRecord
  2
DASHDOTX2
 70
    0
  3
Dash dot (2x) ____  .  ____  .  ____  .  ___
 72
   65
 73
    4
 40
50.8
 49
25.4
 74
    0
 49
-12.7
 74
    0
 49
0
 74
    0
 49
-12.7
 74
    0
  0
LTYPE
  5
3E
330
5
100
AcDbSymbolTableRecord
100
AcDbLinetypeTableRecord
  2
DIVIDE
 70
    0
  3
Divide ____ . . ____ . . ____ . . ____ . . ____
 72
   65
 73
    6
 40
31.75
 49
12.7
 74
    0
 49
-6.35
 74
    0
 49
0
 74
    0
 49
-6.35
 74
    0
 49
0
 74
    0
 49
-6.35
 74
    0
  0
LTYPE
  5
3F
330
5
100
AcDbSymbolTableRecord
100
AcDbLinetypeTableRecord
  2
DIVIDETINY
 70
    0
  3
Divide (.15x) __..__..__..__..__..__..__..__.._
 72
   65
 73
    6
 40
4.7625
 49
1.905
 74
    0
 49
-0.9525
 74
    0
 49
0
 74
    0
 49
-0.9525
 74
    0
 49
0
 74
    0
 49
-0.9525
 74
    0
  0
LTYPE
  5
40
330
5
100
AcDbSymbolTableRecord
100
AcDbLinetypeTableRecord
  2
DIVIDE2
 70
    0
  3
Divide (.5x) __..__..__..__..__..__..__..__.._
 72
   65
 73
    6
 40
15.875
 49
6.35
 74
    0
 49
-3.175
 74
    0
 49
0
 74
    0
 49
-3.175
 74
    0
 49
0
 74
    0
 49
-3.175
 74
    0
  0
LTYPE
  5
41
330
5
100
AcDbSymbolTableRecord
100
AcDbLinetypeTableRecord
  2
DIVIDEX2
 70
    0
  3
Divide (2x) ________  .  .  ________  .  .  _
 72
   65
 73
    6
 40
63.5
 49
25.4
 74
    0
 49
-12.7
 74
    0
 49
0
 74
    0
 49
-12.7
 74
    0
 49
0
 74
    0
 49
-12.7
 74
    0
  0
LTYPE
  5
42
330
5
100
AcDbSymbolTableRecord
100
AcDbLinetypeTableRecord
  2
BORDER
 70
    0
  3
Border __ __ . __ __ . __ __ . __ __ . __ __ .
 72
   65
 73
    6
 40
44.45
 49
12.7
 74
    0
 49
-6.35
 74
    0
 49
12.7
 74
    0
 49
-6.35
 74
    0
 49
0
 74
    0
 49
-6.35
 74
    0
  0
LTYPE
  5
43
330
5
100
AcDbSymbolTableRecord
100
AcDbLinetypeTableRecord
  2
BORDERTINY
 70
    0
  3
Border (.15x) __.__.__.__.__.__.__.__.__.__.__.
 72
   65
 73
    6
 40
6.6675
 49
1.905
 74
    0
 49
-0.9525
 74
    0
 49
1.905
 74
    0
 49
-0.9525
 74
    0
 49
0
 74
    0
 49
-0.9525
 74
    0
  0
LTYPE
  5
44
330
5
100
AcDbSymbolTableRecord
100
AcDbLinetypeTableRecord
  2
BORDER2
 70
    0
  3
Border (.5x) __.__.__.__.__.__.__.__.__.__.__.
 72
   65
 73
    6
 40
22.225
 49
6.35
 74
    0
 49
-3.175
 74
    0
 49
6.35
 74
    0
 49
-3.175
 74
    0
 49
0
 74
    0
 49
-3.175
 74
    0
  0
LTYPE
  5
45
330
5
100
AcDbSymbolTableRecord
100
AcDbLinetypeTableRecord
  2
BORDERX2
 70
    0
  3
Border (2x) ____  ____  .  ____  ____  .  ___
 72
   65
 73
    6
 40
88.89999999999999
 49
25.4
 74
    0
 49
-12.7
 74
    0
 49
25.4
 74
    0
 49
-12.7
 74
    0
 49
0
 74
    0
 49
-12.7
 74
    0
  0
LTYPE
  5
46
330
5
100
AcDbSymbolTableRecord
100
AcDbLinetypeTableRecord
  2
CENTER
 70
    0
  3
Center ____ _ ____ _ ____ _ ____ _ ____ _ ____
 72
   65
 73
    4
 40
50.8
 49
31.75
 74
    0
 49
-6.35
 74
    0
 49
6.35
 74
    0
 49
-6.35
 74
    0
  0
LTYPE
  5
47
330
5
100
AcDbSymbolTableRecord
100
AcDbLinetypeTableRecord
  2
CENTERTINY
 70
    0
  3
Center (.15x) ___ _ ___ _ ___ _ ___ _ ___ _ ___
 72
   65
 73
    4
 40
7.619999999999999
 49
4.7625
 74
    0
 49
-0.9525
 74
    0
 49
0.9525
 74
    0
 49
-0.9525
 74
    0
  0
LTYPE
  5
48
330
5
100
AcDbSymbolTableRecord
100
AcDbLinetypeTableRecord
  2
CENTER2
 70
    0
  3
Center (.5x) ___ _ ___ _ ___ _ ___ _ ___ _ ___
 72
   65
 73
    4
 40
28.575
 49
19.05
 74
    0
 49
-3.175
 74
    0
 49
3.175
 74
    0
 49
-3.175
 74
    0
  0
LTYPE
  5
49
330
5
100
AcDbSymbolTableRecord
100
AcDbLinetypeTableRecord
  2
CENTERX2
 70
    0
  3
Center (2x) ________  __  ________  __  _____
 72
   65
 73
    4
 40
101.6
 49
63.5
 74
    0
 49
-12.7
 74
    0
 49
12.7
 74
    0
 49
-12.7
 74
    0
  0
ENDTAB
  0
TABLE
  2
LAYER
  5
2
330
0
100
AcDbSymbolTable
 70
    1
  0
LAYER
  5
10
330
2
100
AcDbSymbolTableRecord
100
AcDbLayerTableRecord
  2
0
 70
    0
 62
    7
  6
CONTINUOUS
370
   -3
390
F
  0
LAYER
  5
4A
330
2
100
AcDbSymbolTableRecord
100
AcDbLayerTableRecord
  2
Defpoints
 70
    0
 62
    7
  6
CONTINUOUS
290
0
370
   -3
390
F
  0
LAYER
  5
4B
330
2
100
AcDbSymbolTableRecord
100
AcDbLayerTableRecord
  2
UNIFILAR_CARGA
 70
    0
 62
    5
  6
CONTINUOUS
370
   25
390
F
  0
LAYER
  5
4C
330
2
100
AcDbSymbolTableRecord
100
AcDbLayerTableRecord
  2
UNIFILAR_COMPONENTES
 70
    0
 62
    7
  6
CONTINUOUS
370
   35
390
F
  0
LAYER
  5
4D
330
2
100
AcDbSymbolTableRecord
100
AcDbLayerTableRecord
  2
UNIFILAR_LINEAS
 70
    0
 62
    7
  6
CONTINUOUS
370
   25
390
F
  0
LAYER
  5
4E
330
2
100
AcDbSymbolTableRecord
100
AcDbLayerTableRecord
  2
UNIFILAR_MARCO
 70
    0
 62
    8
  6
CONTINUOUS
370
   18
390
F
  0
LAYER
  5
4F
330
2
100
AcDbSymbolTableRecord
100
AcDbLayerTableRecord
  2
UNIFILAR_MEDIDOR
 70
    0
 62
    6
  6
CONTINUOUS
370
   25
390
F
  0
LAYER
  5
50
330
2
100
AcDbSymbolTableRecord
100
AcDbLayerTableRecord
  2
UNIFILAR_PROTECCION
 70
    0
 62
    3
  6
CONTINUOUS
370
   25
390
F
  0
LAYER
  5
51
330
2
100
AcDbSymbolTableRecord
100
AcDbLayerTableRecord
  2
UNIFILAR_TABLERO
 70
    0
 62
    1
  6
CONTINUOUS
370
   35
390
F
  0
LAYER
  5
52
330
2
100
AcDbSymbolTableRecord
100
AcDbLayerTableRecord
  2
UNIFILAR_TEXTOS
 70
    0
 62
    7
  6
CONTINUOUS
370
   13
390
F
  0
LAYER
  5
53
330
2
100
AcDbSymbolTableRecord
100
AcDbLayerTableRecord
  2
UNIFILAR_TIERRA
 70
    0
 62
    4
  6
CONTINUOUS
370
   13
390
F
  0
ENDTAB
  0
TABLE
  2
STYLE
  5
3
330
0
100
AcDbSymbolTable
 70
    3
  0
STYLE
  5
54
330
2
100
AcDbSymbolTableRecord
100
AcDbTextStyleTableRecord
  2
STANDARD
 70
    0
 40
0
 41
1
 50
0
 71
    0
 42
1
  3
STANDARD
  4

  0
ENDTAB
  0
TABLE
  2
VIEW
  5
6
330
0
100
AcDbSymbolTable
 70
    0
  0
ENDTAB
  0
TABLE
  2
UCS
  5
7
330
0
100
AcDbSymbolTable
 70
    0
  0
ENDTAB
  0
TABLE
  2
APPID
  5
9
330
0
100
AcDbSymbolTable
 70
    1
  0
APPID
  5
12
330
9
100
AcDbSymbolTableRecord
100
AcDbRegAppTableRecord
  2
ACAD
 70
    0
  0
APPID
  5
55
330
9
100
AcDbSymbolTableRecord
100
AcDbRegAppTableRecord
  2
LibreCad
 70
    0
  0
ENDTAB
  0
TABLE
  2
DIMSTYLE
  5
A
330
0
100
AcDbSymbolTable
 70
    1
100
AcDbDimStyleTable
 71
    1
  0
DIMSTYLE
105
56
330
A
100
AcDbSymbolTableRecord
100
AcDbDimStyleTableRecord
  2
Standard
 70
    0
 40
1
 41
0.175
 42
0.125
 43
0.38
 44
0.375
 45
0
 46
0
 47
0
 48
0
 49
1
140
0.25
141
0.09
142
0
143
25.4
144
100
145
0
146
1
147
0.1
148
0
 71
    0
 72
    0
 73
    0
 74
    1
 75
    0
 76
    0
 77
    0
 78
   12
 79
    3
170
    0
171
    2
172
    0
173
    0
174
    0
175
    0
176
    0
177
    0
178
    0
179
    2
271
    2
272
    4
273
    2
274
    2
275
    0
276
    0
277
    2
278
   46
279
    0
280
    0
281
    0
282
    0
283
    1
284
    0
285
    0
286
    0
288
    0
289
    3
  0
ENDTAB
  0
TABLE
  2
BLOCK_RECORD
  5
1
330
0
100
AcDbSymbolTable
 70
    2
  0
BLOCK_RECORD
  5
1F
330
1
100
AcDbSymbolTableRecord
100
AcDbBlockTableRecord
  2
*Model_Space
 70
    0
280
    1
281
    0
  0
BLOCK_RECORD
  5
1E
330
1
100
AcDbSymbolTableRecord
100
AcDbBlockTableRecord
  2
*Paper_Space
 70
    0
280
    1
281
    0
  0
BLOCK_RECORD
  5
57
330
1
100
AcDbSymbolTableRecord
100
AcDbBlockTableRecord
  2
_ARCHTICK
 70
    0
280
    1
281
    0
  0
BLOCK_RECORD
  5
5A
330
1
100
AcDbSymbolTableRecord
100
AcDbBlockTableRecord
  2
_CLOSEDFILLED
 70
    0
280
    1
281
    0
  0
BLOCK_RECORD
  5
5D
330
1
100
AcDbSymbolTableRecord
100
AcDbBlockTableRecord
  2
_CLOSEDBLANK
 70
    0
280
    1
281
    0
  0
ENDTAB
  0
ENDSEC
  0
SECTION
  2
BLOCKS
  0
BLOCK
  5
20
330
1F
100
AcDbEntity
  8
0
100
AcDbBlockBegin
  2
*Model_Space
 70
    0
 10
0
 20
0
 30
0
  3
*Model_Space
  1

  0
ENDBLK
  5
21
330
1F
100
AcDbEntity
  8
0
100
AcDbBlockEnd
  0
BLOCK
  5
1C
330
1B
100
AcDbEntity
  8
0
100
AcDbBlockBegin
  2
*Paper_Space
 70
    0
 10
0
 20
0
 30
0
  3
*Paper_Space
  1

  0
ENDBLK
  5
1D
330
1F
100
AcDbEntity
  8
0
100
AcDbBlockEnd
  0
BLOCK
  5
58
330
57
100
AcDbEntity
  8
0
100
AcDbBlockBegin
  2
_ARCHTICK
 70
    0
 10
0
 20
0
  3
_ARCHTICK
  1

  0
LWPOLYLINE
  5
60
100
AcDbEntity
  8
0
  6
ByBlock
 62
    0
370
   -1
100
AcDbPolyline
 90
    2
 70
    0
 43
0
 10
-0.5
 20
-0.5
 10
0.5
 20
0.5
  0
ENDBLK
  5
59
330
57
100
AcDbEntity
  8
0
100
AcDbBlockEnd
  0
BLOCK
  5
5B
330
5A
100
AcDbEntity
  8
0
100
AcDbBlockBegin
  2
_CLOSEDFILLED
 70
    0
 10
0
 20
0
  3
_CLOSEDFILLED
  1

  0
SOLID
  5
61
100
AcDbEntity
  8
0
  6
ByBlock
 62
    0
370
   -1
100
AcDbTrace
 10
-1
 20
0.1643989837240254
 30
0
 11
0
 21
0
 31
0
 12
-1
 22
-0.1643989837240254
 32
0
 13
-1
 23
-0.1643989837240254
 33
0
  0
ENDBLK
  5
5C
330
5A
100
AcDbEntity
  8
0
100
AcDbBlockEnd
  0
BLOCK
  5
5E
330
5D
100
AcDbEntity
  8
0
100
AcDbBlockBegin
  2
_CLOSEDBLANK
 70
    0
 10
0
 20
0
  3
_CLOSEDBLANK
  1

  0
LWPOLYLINE
  5
62
100
AcDbEntity
  8
0
  6
ByBlock
 62
    0
370
   -1
100
AcDbPolyline
 90
    3
 70
    1
 43
0
 10
-1
 20
0.1643989837240254
 10
0
 20
0
 10
-1
 20
-0.1643989837240254
  0
ENDBLK
  5
5F
330
5D
100
AcDbEntity
  8
0
100
AcDbBlockEnd
  0
ENDSEC
  0
SECTION
  2
ENTITIES
  0
TEXT
  5
63
100
AcDbEntity
  8
UNIFILAR_TEXTOS
  6
ByLayer
 62
  256
370
   -1
100
AcDbText
 10
5.731102619323256
 20
22.26128999229653
 30
0
 40
0.35
  1
DIAGRAMA UNIFILAR
 50
90.301
 41
1
 51
0
  7
STANDARD
 71
    0
 72
    1
 11
5.731102619323256
 21
22.26128999229653
 31
0
210
0
220
0
230
1
100
AcDbText
 73
    2
  0
TEXT
  5
64
100
AcDbEntity
  8
UNIFILAR_TEXTOS
  6
ByLayer
 62
  256
370
   -1
100
AcDbText
 10
6.231095719678412
 20
22.26391670073848
 30
0
 40
0.18
  1
Vivienda Unifamiliar - Renzo Gabriel Mamani Galindo - General
 50
90.301
 41
1
 51
0
  7
STANDARD
 71
    0
 72
    1
 11
6.231095719678412
 21
22.26391670073848
 31
0
210
0
220
0
230
1
100
AcDbText
 73
    2
  0
TEXT
  5
65
100
AcDbEntity
  8
UNIFILAR_TEXTOS
  6
ByLayer
 62
  256
370
   -1
100
AcDbText
 10
6.778369571988629
 20
13.26666760278762
 30
0
 40
0.12
  1
Propietario: Renzo Gabriel Mamani Galindo
 50
90.301
 41
1
 51
0
  7
STANDARD
 71
    0
 72
    1
 11
6.778369571988629
 21
13.26666760278762
 31
0
210
0
220
0
230
1
100
AcDbText
 73
    2
  0
TEXT
  5
66
100
AcDbEntity
  8
UNIFILAR_TEXTOS
  6
ByLayer
 62
  256
370
   -1
100
AcDbText
 10
7.278362672343786
 20
13.26929431122957
 30
0
 40
0.12
  1
MD: 6100 W  |  Ib: 30.80 A  |  Alimentador: 10.0 mm2
 50
90.301
 41
1
 51
0
  7
STANDARD
 71
    0
 72
    1
 11
7.278362672343786
 21
13.26929431122957
 31
0
210
0
220
0
230
1
100
AcDbText
 73
    2
  0
LINE
  5
67
100
AcDbEntity
  8
UNIFILAR_LINEAS
  6
ByLayer
 62
  256
370
   -1
100
AcDbLine
 10
20.26767644781005
 20
15.33756113214083
 11
4.067899996302996
 21
15.25245577862172
  0
TEXT
  5
68
100
AcDbEntity
  8
UNIFILAR_TEXTOS
  6
ByLayer
 62
  256
370
   -1
100
AcDbText
 10
3.767904136089903
 20
15.25087975355656
 30
0
 40
0.1
  1
FASE
 50
90.301
 41
1
 51
0
  7
STANDARD
 71
    0
 72
    1
 11
3.767904136089903
 21
15.25087975355656
 31
0
210
0
220
0
230
1
100
AcDbText
 73
    2
  0
TEXT
  5
69
100
AcDbEntity
  8
UNIFILAR_TEXTOS
  6
ByLayer
 62
  256
370
   -1
100
AcDbText
 10
3.772106869597019
 20
14.45089079298831
 30
0
 40
0.1
  1
NEUTRO
 50
90.301
 41
1
 51
0
  7
STANDARD
 71
    0
 72
    1
 11
3.772106869597019
 21
14.45089079298831
 31
0
210
0
220
0
230
1
100
AcDbText
 73
    2
  0
LINE
  5
6A
100
AcDbEntity
  8
UNIFILAR_LINEAS
  6
ByLayer
 62
  256
370
   -1
100
AcDbLine
 10
20.27187918131716
 20
14.53757217157259
 11
4.072102729810114
 21
14.45246681805347
  0
CIRCLE
  5
6B
100
AcDbEntity
  8
UNIFILAR_MEDIDOR
  6
ByLayer
 62
  256
370
   -1
100
AcDbCircle
 10
5.5
 20
16.76
 40
0.25
  0
TEXT
  5
6C
100
AcDbEntity
  8
UNIFILAR_MEDIDOR
  6
ByLayer
 62
  256
370
   -1
100
AcDbText
 10
5.5
 20
16.76
 30
0
 40
0.18
  1
M
 50
90.301
 41
1
 51
0
  7
STANDARD
 71
    0
 72
    1
 11
5.5
 21
16.76
 31
0
210
0
220
0
230
1
100
AcDbText
 73
    2
  0
LINE
  5
6D
100
AcDbEntity
  8
UNIFILAR_LINEAS
  6
ByLayer
 62
  256
370
   -1
100
AcDbLine
 10
5.002108266398403
 20
16.35737881127393
 11
5.000006899644844
 21
16.75737329155805
  0
LINE
  5
6E
100
AcDbEntity
  8
UNIFILAR_LINEAS
  6
ByLayer
 62
  256
370
   -1
100
AcDbLine
 10
5.999993100355156
 20
16.76262670844195
 11
5.749996550177578
 21
16.76131335422097
  0
LINE
  5
6F
100
AcDbEntity
  8
UNIFILAR_LINEAS
  6
ByLayer
 62
  256
370
   -1
100
AcDbLine
 10
5.507880125325844
 20
15.26002069893453
 11
5.5
 21
16.76
  0
LINE
  5
70
100
AcDbEntity
  8
UNIFILAR_LINEAS
  6
ByLayer
 62
  256
370
   -1
100
AcDbLine
 10
5.000006899644844
 20
16.75737329155805
 11
4.000020698934533
 21
16.75211987467416
  0
TEXT
  5
71
100
AcDbEntity
  8
UNIFILAR_TEXTOS
  6
ByLayer
 62
  256
370
   -1
100
AcDbText
 10
3.800023458792471
 20
16.75106919129738
 30
0
 40
0.1
  1
RED
 50
90.301
 41
1
 51
0
  7
STANDARD
 71
    0
 72
    1
 11
3.800023458792471
 21
16.75106919129738
 31
0
210
0
220
0
230
1
100
AcDbText
 73
    2
  0
TEXT
  5
72
100
AcDbEntity
  8
UNIFILAR_TEXTOS
  6
ByLayer
 62
  256
370
   -1
100
AcDbText
 10
4.000020698934533
 20
16.75211987467416
 30
0
 40
0.09
  1
PUBLICA
 50
90.301
 41
1
 51
0
  7
STANDARD
 71
    0
 72
    1
 11
4.000020698934533
 21
16.75211987467416
 31
0
210
0
220
0
230
1
100
AcDbText
 73
    2
  0
LWPOLYLINE
  5
73
100
AcDbEntity
  8
UNIFILAR_PROTECCION
  6
ByLayer
 62
  256
370
   -1
100
AcDbPolyline
 90
    5
 70
    0
 43
0
 10
7.051291965321958
 20
16.51814624599246
 10
7.04866525688001
 20
17.01813934634762
 10
6.828668292723743
 20
17.01698359463316
 10
6.831295001165691
 20
16.51699049427801
 10
7.051291965321958
 20
16.51814624599246
  0
LINE
  5
74
100
AcDbEntity
  8
UNIFILAR_PROTECCION
  6
ByLayer
 62
  256
370
   -1
100
AcDbLine
 10
6.941293483243824
 20
16.51756837013523
 11
6.938666774801876
 21
17.01756147049039
  0
TEXT
  5
75
100
AcDbEntity
  8
UNIFILAR_PROTECCION
  6
ByLayer
 62
  256
370
   -1
100
AcDbText
 10
6.93998012902285
 20
16.76756492031281
 30
0
 40
0.1
  1
40.0A
 50
90.301
 41
1
 51
0
  7
STANDARD
 71
    0
 72
    1
 11
6.93998012902285
 21
16.76756492031281
 31
0
210
0
220
0
230
1
100
AcDbText
 73
    2
  0
LINE
  5
76
100
AcDbEntity
  8
UNIFILAR_LINEAS
  6
ByLayer
 62
  256
370
   -1
100
AcDbLine
 10
6.947860254348694
 20
15.26758561924734
 11
6.93998012902285
 21
16.76756492031281
  0
LWPOLYLINE
  5
77
100
AcDbEntity
  8
UNIFILAR_TABLERO
  6
ByLayer
 62
  256
370
   -1
100
AcDbPolyline
 90
    5
 70
    0
 43
0
 10
8.502585310572886
 20
16.27576715029653
 10
8.49733189368899
 20
17.27575335100684
 10
7.897340173262803
 20
17.27260130087651
 10
7.902593590146699
 20
16.2726151001662
 10
8.502585310572886
 20
16.27576715029653
  0
TEXT
  5
78
100
AcDbEntity
  8
UNIFILAR_TABLERO
  6
ByLayer
 62
  256
370
   -1
100
AcDbText
 10
8.179963017903637
 20
16.77407915724884
 30
0
 40
0.16
  1
TG
 50
90.301
 41
1
 51
0
  7
STANDARD
 71
    0
 72
    1
 11
8.179963017903637
 21
16.77407915724884
 31
0
210
0
220
0
230
1
100
AcDbText
 73
    2
  0
TEXT
  5
79
100
AcDbEntity
  8
UNIFILAR_TEXTOS
  6
ByLayer
 62
  256
370
   -1
100
AcDbText
 10
8.649956532237484
 20
16.77654826318427
 30
0
 40
0.1
  1
ITM: 2P-40A | Cond: 10.0mm2
 50
90.301
 41
1
 51
0
  7
STANDARD
 71
    0
 72
    1
 11
8.649956532237484
 21
16.77654826318427
 31
0
210
0
220
0
230
1
100
AcDbText
 73
    2
  0
LINE
  5
7A
100
AcDbEntity
  8
UNIFILAR_LINEAS
  6
ByLayer
 62
  256
370
   -1
100
AcDbLine
 10
8.207842867243686
 20
15.27420492452105
 11
8.199962741917844
 21
16.77418422558652
  0
LWPOLYLINE
  5
7B
100
AcDbEntity
  8
UNIFILAR_PROTECCION
  6
ByLayer
 62
  256
370
   -1
100
AcDbPolyline
 90
    5
 70
    0
 43
0
 10
9.251524277728841
 20
16.47970445310152
 10
9.248372227598502
 20
17.0796961735277
 10
8.948376367385409
 20
17.07812014846253
 10
8.951528417515746
 20
16.47812842803635
 10
9.251524277728841
 20
16.47970445310152
  0
TEXT
  5
7C
100
AcDbEntity
  8
UNIFILAR_PROTECCION
  6
ByLayer
 62
  256
370
   -1
100
AcDbText
 10
9.099950322557124
 20
16.77891230078203
 30
0
 40
0.09
  1
2P-40A-30mA
 50
90.301
 41
1
 51
0
  7
STANDARD
 71
    0
 72
    1
 11
9.099950322557124
 21
16.77891230078203
 31
0
210
0
220
0
230
1
100
AcDbText
 73
    2
  0
LINE
  5
7D
100
AcDbEntity
  8
UNIFILAR_LINEAS
  6
ByLayer
 62
  256
370
   -1
100
AcDbLine
 10
9.107830447882968
 20
15.27893299971656
 11
9.099950322557124
 21
16.77891230078203
  0
LWPOLYLINE
  5
7E
100
AcDbEntity
  8
UNIFILAR_PROTECCION
  6
ByLayer
 62
  256
370
   -1
100
AcDbPolyline
 90
    5
 70
    0
 43
0
 10
20.37110815878331
 20
16.58812175888595
 10
20.36848145034136
 20
17.08811485924111
 10
20.1484844861851
 20
17.08695910752665
 10
20.15111119462705
 20
16.5869660071715
 10
20.37110815878331
 20
16.58812175888595
  0
LINE
  5
7F
100
AcDbEntity
  8
UNIFILAR_PROTECCION
  6
ByLayer
 62
  256
370
   -1
100
AcDbLine
 10
20.26110967670518
 20
16.58754388302873
 11
20.25848296826323
 21
17.08753698338388
  0
TEXT
  5
80
100
AcDbEntity
  8
UNIFILAR_PROTECCION
  6
ByLayer
 62
  256
370
   -1
100
AcDbText
 10
20.25979632248421
 20
16.8375404332063
 30
0
 40
0.1
  1
10A
 50
90.301
 41
1
 51
0
  7
STANDARD
 71
    0
 72
    1
 11
20.25979632248421
 21
16.8375404332063
 31
0
210
0
220
0
230
1
100
AcDbText
 73
    2
  0
TEXT
  5
81
100
AcDbEntity
  8
UNIFILAR_PROTECCION
  6
ByLayer
 62
  256
370
   -1
100
AcDbText
 10
20.25034017209319
 20
18.63751559448486
 30
0
 40
0.07000000000000001
  1
2P-25A-30mA
 50
90.301
 41
1
 51
0
  7
STANDARD
 71
    0
 72
    1
 11
20.25034017209319
 21
18.63751559448486
 31
0
210
0
220
0
230
1
100
AcDbText
 73
    2
  0
TEXT
  5
82
100
AcDbEntity
  8
UNIFILAR_CARGA
  6
ByLayer
 62
  256
370
   -1
100
AcDbText
 10
21.06978514505956
 20
16.84179570088226
 30
0
 40
0.12
  1
C1: Alumbrado 1er Piso
 50
90.301
 41
1
 51
0
  7
STANDARD
 71
    0
 72
    1
 11
21.06978514505956
 21
16.84179570088226
 31
0
210
0
220
0
230
1
100
AcDbText
 73
    2
  0
TEXT
  5
83
100
AcDbEntity
  8
UNIFILAR_TEXTOS
  6
ByLayer
 62
  256
370
   -1
100
AcDbText
 10
21.26978238520162
 20
16.84284638425904
 30
0
 40
0.09
  1
500W
 50
90.301
 41
1
 51
0
  7
STANDARD
 71
    0
 72
    1
 11
21.26978238520162
 21
16.84284638425904
 31
0
210
0
220
0
230
1
100
AcDbText
 73
    2
  0
TEXT
  5
84
100
AcDbEntity
  8
UNIFILAR_TEXTOS
  6
ByLayer
 62
  256
370
   -1
100
AcDbText
 10
21.41978031530817
 20
16.84363439679162
 30
0
 40
0.08
  1
1.5mm2
 50
90.301
 41
1
 51
0
  7
STANDARD
 71
    0
 72
    1
 11
21.41978031530817
 21
16.84363439679162
 31
0
210
0
220
0
230
1
100
AcDbText
 73
    2
  0
TEXT
  5
85
100
AcDbEntity
  8
UNIFILAR_TEXTOS
  6
ByLayer
 62
  256
370
   -1
100
AcDbText
 10
21.56977824541471
 20
16.84442240932421
 30
0
 40
0.08
  1
dV=0.45%
 50
90.301
 41
1
 51
0
  7
STANDARD
 71
    0
 72
    1
 11
21.56977824541471
 21
16.84442240932421
 31
0
210
0
220
0
230
1
100
AcDbText
 73
    2
  0
TEXT
  5
86
100
AcDbEntity
  8
UNIFILAR_PROTECCION
  6
ByLayer
 62
  256
370
   -1
100
AcDbText
 10
21.05927831129176
 20
18.84176810230288
 30
0
 40
0.08
  1
OK
 50
90.301
 41
1
 51
0
  7
STANDARD
 71
    0
 72
    1
 11
21.05927831129176
 21
18.84176810230288
 31
0
210
0
220
0
230
1
100
AcDbText
 73
    2
  0
LINE
  5
87
100
AcDbEntity
  8
UNIFILAR_LINEAS
  6
ByLayer
 62
  256
370
   -1
100
AcDbLine
 10
20.26767644781005
 20
15.33756113214083
 11
20.25979632248421
 21
16.8375404332063
  0
LINE
  5
88
100
AcDbEntity
  8
UNIFILAR_LINEAS
  6
ByLayer
 62
  256
370
   -1
100
AcDbLine
 10
20.27187918131716
 20
14.53757217157259
 11
20.26767644781005
 21
15.33756113214083
  0
LWPOLYLINE
  5
89
100
AcDbEntity
  8
UNIFILAR_PROTECCION
  6
ByLayer
 62
  256
370
   -1
100
AcDbPolyline
 90
    5
 70
    0
 43
0
 10
18.57113299750475
 20
16.57866560849494
 10
18.5685062890628
 20
17.0786587088501
 10
18.34850932490654
 20
17.07750295713564
 10
18.35113603334848
 20
16.57750985678048
 10
18.57113299750475
 20
16.57866560849494
  0
LINE
  5
8A
100
AcDbEntity
  8
UNIFILAR_PROTECCION
  6
ByLayer
 62
  256
370
   -1
100
AcDbLine
 10
18.46113451542661
 20
16.57808773263771
 11
18.45850780698467
 21
17.07808083299287
  0
TEXT
  5
8B
100
AcDbEntity
  8
UNIFILAR_PROTECCION
  6
ByLayer
 62
  256
370
   -1
100
AcDbText
 10
18.45982116120564
 20
16.82808428281529
 30
0
 40
0.1
  1
16A
 50
90.301
 41
1
 51
0
  7
STANDARD
 71
    0
 72
    1
 11
18.45982116120564
 21
16.82808428281529
 31
0
210
0
220
0
230
1
100
AcDbText
 73
    2
  0
TEXT
  5
8C
100
AcDbEntity
  8
UNIFILAR_PROTECCION
  6
ByLayer
 62
  256
370
   -1
100
AcDbText
 10
18.45036501081463
 20
18.62805944409385
 30
0
 40
0.07000000000000001
  1
2P-25A-30mA
 50
90.301
 41
1
 51
0
  7
STANDARD
 71
    0
 72
    1
 11
18.45036501081463
 21
18.62805944409385
 31
0
210
0
220
0
230
1
100
AcDbText
 73
    2
  0
TEXT
  5
8D
100
AcDbEntity
  8
UNIFILAR_CARGA
  6
ByLayer
 62
  256
370
   -1
100
AcDbText
 10
19.26980998378099
 20
16.83233955049124
 30
0
 40
0.12
  1
C2: Tomacorrientes 1er Piso
 50
90.301
 41
1
 51
0
  7
STANDARD
 71
    0
 72
    1
 11
19.26980998378099
 21
16.83233955049124
 31
0
210
0
220
0
230
1
100
AcDbText
 73
    2
  0
TEXT
  5
8E
100
AcDbEntity
  8
UNIFILAR_TEXTOS
  6
ByLayer
 62
  256
370
   -1
100
AcDbText
 10
19.46980722392306
 20
16.83339023386803
 30
0
 40
0.09
  1
1000W
 50
90.301
 41
1
 51
0
  7
STANDARD
 71
    0
 72
    1
 11
19.46980722392306
 21
16.83339023386803
 31
0
210
0
220
0
230
1
100
AcDbText
 73
    2
  0
TEXT
  5
8F
100
AcDbEntity
  8
UNIFILAR_TEXTOS
  6
ByLayer
 62
  256
370
   -1
100
AcDbText
 10
19.61980515402961
 20
16.83417824640061
 30
0
 40
0.08
  1
2.5mm2
 50
90.301
 41
1
 51
0
  7
STANDARD
 71
    0
 72
    1
 11
19.61980515402961
 21
16.83417824640061
 31
0
210
0
220
0
230
1
100
AcDbText
 73
    2
  0
TEXT
  5
90
100
AcDbEntity
  8
UNIFILAR_TEXTOS
  6
ByLayer
 62
  256
370
   -1
100
AcDbText
 10
19.76980308413615
 20
16.83496625893319
 30
0
 40
0.08
  1
dV=0.82%
 50
90.301
 41
1
 51
0
  7
STANDARD
 71
    0
 72
    1
 11
19.76980308413615
 21
16.83496625893319
 31
0
210
0
220
0
230
1
100
AcDbText
 73
    2
  0
TEXT
  5
91
100
AcDbEntity
  8
UNIFILAR_PROTECCION
  6
ByLayer
 62
  256
370
   -1
100
AcDbText
 10
19.2593031500132
 20
18.83231195191187
 30
0
 40
0.08
  1
OK
 50
90.301
 41
1
 51
0
  7
STANDARD
 71
    0
 72
    1
 11
19.2593031500132
 21
18.83231195191187
 31
0
210
0
220
0
230
1
100
AcDbText
 73
    2
  0
LINE
  5
92
100
AcDbEntity
  8
UNIFILAR_LINEAS
  6
ByLayer
 62
  256
370
   -1
100
AcDbLine
 10
18.46770128653149
 20
15.32810498174982
 11
18.45982116120564
 21
16.82808428281529
  0
LINE
  5
93
100
AcDbEntity
  8
UNIFILAR_LINEAS
  6
ByLayer
 62
  256
370
   -1
100
AcDbLine
 10
18.4719040200386
 20
14.52811602118157
 11
18.46770128653149
 21
15.32810498174982
  0
LWPOLYLINE
  5
94
100
AcDbEntity
  8
UNIFILAR_PROTECCION
  6
ByLayer
 62
  256
370
   -1
100
AcDbPolyline
 90
    5
 70
    0
 43
0
 10
16.77115783622619
 20
16.56920945810393
 10
16.76853112778424
 20
17.06920255845909
 10
16.54853416362798
 20
17.06804680674463
 10
16.55116087206992
 20
16.56805370638947
 10
16.77115783622619
 20
16.56920945810393
  0
LINE
  5
95
100
AcDbEntity
  8
UNIFILAR_PROTECCION
  6
ByLayer
 62
  256
370
   -1
100
AcDbLine
 10
16.66115935414805
 20
16.5686315822467
 11
16.65853264570611
 21
17.06862468260186
  0
TEXT
  5
96
100
AcDbEntity
  8
UNIFILAR_PROTECCION
  6
ByLayer
 62
  256
370
   -1
100
AcDbText
 10
16.65984599992708
 20
16.81862813242428
 30
0
 40
0.1
  1
20A
 50
90.301
 41
1
 51
0
  7
STANDARD
 71
    0
 72
    1
 11
16.65984599992708
 21
16.81862813242428
 31
0
210
0
220
0
230
1
100
AcDbText
 73
    2
  0
TEXT
  5
97
100
AcDbEntity
  8
UNIFILAR_PROTECCION
  6
ByLayer
 62
  256
370
   -1
100
AcDbText
 10
16.65038984953607
 20
18.61860329370284
 30
0
 40
0.07000000000000001
  1
2P-25A-30mA
 50
90.301
 41
1
 51
0
  7
STANDARD
 71
    0
 72
    1
 11
16.65038984953607
 21
18.61860329370284
 31
0
210
0
220
0
230
1
100
AcDbText
 73
    2
  0
TEXT
  5
98
100
AcDbEntity
  8
UNIFILAR_CARGA
  6
ByLayer
 62
  256
370
   -1
100
AcDbText
 10
17.46983482250243
 20
16.82288340010023
 30
0
 40
0.12
  1
C3: Tomacorrientes Cocina
 50
90.301
 41
1
 51
0
  7
STANDARD
 71
    0
 72
    1
 11
17.46983482250243
 21
16.82288340010023
 31
0
210
0
220
0
230
1
100
AcDbText
 73
    2
  0
TEXT
  5
99
100
AcDbEntity
  8
UNIFILAR_TEXTOS
  6
ByLayer
 62
  256
370
   -1
100
AcDbText
 10
17.6698320626445
 20
16.82393408347701
 30
0
 40
0.09
  1
1500W
 50
90.301
 41
1
 51
0
  7
STANDARD
 71
    0
 72
    1
 11
17.6698320626445
 21
16.82393408347701
 31
0
210
0
220
0
230
1
100
AcDbText
 73
    2
  0
TEXT
  5
9A
100
AcDbEntity
  8
UNIFILAR_TEXTOS
  6
ByLayer
 62
  256
370
   -1
100
AcDbText
 10
17.81982999275104
 20
16.8247220960096
 30
0
 40
0.08
  1
2.5mm2
 50
90.301
 41
1
 51
0
  7
STANDARD
 71
    0
 72
    1
 11
17.81982999275104
 21
16.8247220960096
 31
0
210
0
220
0
230
1
100
AcDbText
 73
    2
  0
TEXT
  5
9B
100
AcDbEntity
  8
UNIFILAR_TEXTOS
  6
ByLayer
 62
  256
370
   -1
100
AcDbText
 10
17.96982792285759
 20
16.82551010854218
 30
0
 40
0.08
  1
dV=0.95%
 50
90.301
 41
1
 51
0
  7
STANDARD
 71
    0
 72
    1
 11
17.96982792285759
 21
16.82551010854218
 31
0
210
0
220
0
230
1
100
AcDbText
 73
    2
  0
TEXT
  5
9C
100
AcDbEntity
  8
UNIFILAR_PROTECCION
  6
ByLayer
 62
  256
370
   -1
100
AcDbText
 10
17.45932798873464
 20
18.82285580152086
 30
0
 40
0.08
  1
OK
 50
90.301
 41
1
 51
0
  7
STANDARD
 71
    0
 72
    1
 11
17.45932798873464
 21
18.82285580152086
 31
0
210
0
220
0
230
1
100
AcDbText
 73
    2
  0
LINE
  5
9D
100
AcDbEntity
  8
UNIFILAR_LINEAS
  6
ByLayer
 62
  256
370
   -1
100
AcDbLine
 10
16.66772612525293
 20
15.31864883135881
 11
16.65984599992708
 21
16.81862813242428
  0
LINE
  5
9E
100
AcDbEntity
  8
UNIFILAR_LINEAS
  6
ByLayer
 62
  256
370
   -1
100
AcDbLine
 10
16.67192885876004
 20
14.51865987079056
 11
16.66772612525293
 21
15.31864883135881
  0
LWPOLYLINE
  5
9F
100
AcDbEntity
  8
UNIFILAR_PROTECCION
  6
ByLayer
 62
  256
370
   -1
100
AcDbPolyline
 90
    5
 70
    0
 43
0
 10
14.97118267494763
 20
16.55975330771292
 10
14.96855596650568
 20
17.05974640806807
 10
14.74855900234942
 20
17.05859065635362
 10
14.75118571079136
 20
16.55859755599846
 10
14.97118267494763
 20
16.55975330771292
  0
LINE
  5
A0
100
AcDbEntity
  8
UNIFILAR_PROTECCION
  6
ByLayer
 62
  256
370
   -1
100
AcDbLine
 10
14.8611841928695
 20
16.55917543185569
 11
14.85855748442755
 21
17.05916853221084
  0
TEXT
  5
A1
100
AcDbEntity
  8
UNIFILAR_PROTECCION
  6
ByLayer
 62
  256
370
   -1
100
AcDbText
 10
14.85987083864852
 20
16.80917198203327
 30
0
 40
0.1
  1
10A
 50
90.301
 41
1
 51
0
  7
STANDARD
 71
    0
 72
    1
 11
14.85987083864852
 21
16.80917198203327
 31
0
210
0
220
0
230
1
100
AcDbText
 73
    2
  0
TEXT
  5
A2
100
AcDbEntity
  8
UNIFILAR_PROTECCION
  6
ByLayer
 62
  256
370
   -1
100
AcDbText
 10
14.85041468825751
 20
18.60914714331183
 30
0
 40
0.07000000000000001
  1
2P-25A-30mA
 50
90.301
 41
1
 51
0
  7
STANDARD
 71
    0
 72
    1
 11
14.85041468825751
 21
18.60914714331183
 31
0
210
0
220
0
230
1
100
AcDbText
 73
    2
  0
TEXT
  5
A3
100
AcDbEntity
  8
UNIFILAR_CARGA
  6
ByLayer
 62
  256
370
   -1
100
AcDbText
 10
15.66985966122387
 20
16.81342724970922
 30
0
 40
0.12
  1
C4: Alumbrado 2do Piso
 50
90.301
 41
1
 51
0
  7
STANDARD
 71
    0
 72
    1
 11
15.66985966122387
 21
16.81342724970922
 31
0
210
0
220
0
230
1
100
AcDbText
 73
    2
  0
TEXT
  5
A4
100
AcDbEntity
  8
UNIFILAR_TEXTOS
  6
ByLayer
 62
  256
370
   -1
100
AcDbText
 10
15.86985690136594
 20
16.814477933086
 30
0
 40
0.09
  1
500W
 50
90.301
 41
1
 51
0
  7
STANDARD
 71
    0
 72
    1
 11
15.86985690136594
 21
16.814477933086
 31
0
210
0
220
0
230
1
100
AcDbText
 73
    2
  0
TEXT
  5
A5
100
AcDbEntity
  8
UNIFILAR_TEXTOS
  6
ByLayer
 62
  256
370
   -1
100
AcDbText
 10
16.01985483147248
 20
16.81526594561858
 30
0
 40
0.08
  1
1.5mm2
 50
90.301
 41
1
 51
0
  7
STANDARD
 71
    0
 72
    1
 11
16.01985483147248
 21
16.81526594561858
 31
0
210
0
220
0
230
1
100
AcDbText
 73
    2
  0
TEXT
  5
A6
100
AcDbEntity
  8
UNIFILAR_TEXTOS
  6
ByLayer
 62
  256
370
   -1
100
AcDbText
 10
16.16985276157903
 20
16.81605395815117
 30
0
 40
0.08
  1
dV=0.61%
 50
90.301
 41
1
 51
0
  7
STANDARD
 71
    0
 72
    1
 11
16.16985276157903
 21
16.81605395815117
 31
0
210
0
220
0
230
1
100
AcDbText
 73
    2
  0
TEXT
  5
A7
100
AcDbEntity
  8
UNIFILAR_PROTECCION
  6
ByLayer
 62
  256
370
   -1
100
AcDbText
 10
15.65935282745608
 20
18.81339965112985
 30
0
 40
0.08
  1
OK
 50
90.301
 41
1
 51
0
  7
STANDARD
 71
    0
 72
    1
 11
15.65935282745608
 21
18.81339965112985
 31
0
210
0
220
0
230
1
100
AcDbText
 73
    2
  0
LINE
  5
A8
100
AcDbEntity
  8
UNIFILAR_LINEAS
  6
ByLayer
 62
  256
370
   -1
100
AcDbLine
 10
14.86775096397437
 20
15.3091926809678
 11
14.85987083864852
 21
16.80917198203327
  0
LINE
  5
A9
100
AcDbEntity
  8
UNIFILAR_LINEAS
  6
ByLayer
 62
  256
370
   -1
100
AcDbLine
 10
14.87195369748148
 20
14.50920372039955
 11
14.86775096397437
 21
15.3091926809678
  0
LWPOLYLINE
  5
AA
100
AcDbEntity
  8
UNIFILAR_PROTECCION
  6
ByLayer
 62
  256
370
   -1
100
AcDbPolyline
 90
    5
 70
    0
 43
0
 10
13.17120751366907
 20
16.5502971573219
 10
13.16858080522712
 20
17.05029025767706
 10
12.94858384107085
 20
17.0491345059626
 10
12.9512105495128
 20
16.54914140560745
 10
13.17120751366907
 20
16.5502971573219
  0
LINE
  5
AB
100
AcDbEntity
  8
UNIFILAR_PROTECCION
  6
ByLayer
 62
  256
370
   -1
100
AcDbLine
 10
13.06120903159093
 20
16.54971928146468
 11
13.05858232314899
 21
17.04971238181983
  0
TEXT
  5
AC
100
AcDbEntity
  8
UNIFILAR_PROTECCION
  6
ByLayer
 62
  256
370
   -1
100
AcDbText
 10
13.05989567736996
 20
16.79971583164225
 30
0
 40
0.1
  1
16A
 50
90.301
 41
1
 51
0
  7
STANDARD
 71
    0
 72
    1
 11
13.05989567736996
 21
16.79971583164225
 31
0
210
0
220
0
230
1
100
AcDbText
 73
    2
  0
TEXT
  5
AD
100
AcDbEntity
  8
UNIFILAR_PROTECCION
  6
ByLayer
 62
  256
370
   -1
100
AcDbText
 10
13.05043952697895
 20
18.59969099292081
 30
0
 40
0.07000000000000001
  1
2P-25A-30mA
 50
90.301
 41
1
 51
0
  7
STANDARD
 71
    0
 72
    1
 11
13.05043952697895
 21
18.59969099292081
 31
0
210
0
220
0
230
1
100
AcDbText
 73
    2
  0
TEXT
  5
AE
100
AcDbEntity
  8
UNIFILAR_CARGA
  6
ByLayer
 62
  256
370
   -1
100
AcDbText
 10
13.86988449994531
 20
16.80397109931821
 30
0
 40
0.12
  1
C5: Tomacorrientes 2do Piso
 50
90.301
 41
1
 51
0
  7
STANDARD
 71
    0
 72
    1
 11
13.86988449994531
 21
16.80397109931821
 31
0
210
0
220
0
230
1
100
AcDbText
 73
    2
  0
TEXT
  5
AF
100
AcDbEntity
  8
UNIFILAR_TEXTOS
  6
ByLayer
 62
  256
370
   -1
100
AcDbText
 10
14.06988174008738
 20
16.80502178269499
 30
0
 40
0.09
  1
1500W
 50
90.301
 41
1
 51
0
  7
STANDARD
 71
    0
 72
    1
 11
14.06988174008738
 21
16.80502178269499
 31
0
210
0
220
0
230
1
100
AcDbText
 73
    2
  0
TEXT
  5
B0
100
AcDbEntity
  8
UNIFILAR_TEXTOS
  6
ByLayer
 62
  256
370
   -1
100
AcDbText
 10
14.21987967019392
 20
16.80580979522757
 30
0
 40
0.08
  1
2.5mm2
 50
90.301
 41
1
 51
0
  7
STANDARD
 71
    0
 72
    1
 11
14.21987967019392
 21
16.80580979522757
 31
0
210
0
220
0
230
1
100
AcDbText
 73
    2
  0
TEXT
  5
B1
100
AcDbEntity
  8
UNIFILAR_TEXTOS
  6
ByLayer
 62
  256
370
   -1
100
AcDbText
 10
14.36987760030047
 20
16.80659780776016
 30
0
 40
0.08
  1
dV=1.15%
 50
90.301
 41
1
 51
0
  7
STANDARD
 71
    0
 72
    1
 11
14.36987760030047
 21
16.80659780776016
 31
0
210
0
220
0
230
1
100
AcDbText
 73
    2
  0
TEXT
  5
B2
100
AcDbEntity
  8
UNIFILAR_PROTECCION
  6
ByLayer
 62
  256
370
   -1
100
AcDbText
 10
13.85937766617752
 20
18.80394350073883
 30
0
 40
0.08
  1
OK
 50
90.301
 41
1
 51
0
  7
STANDARD
 71
    0
 72
    1
 11
13.85937766617752
 21
18.80394350073883
 31
0
210
0
220
0
230
1
100
AcDbText
 73
    2
  0
LINE
  5
B3
100
AcDbEntity
  8
UNIFILAR_LINEAS
  6
ByLayer
 62
  256
370
   -1
100
AcDbLine
 10
13.0677758026958
 20
15.29973653057679
 11
13.05989567736996
 21
16.79971583164225
  0
LINE
  5
B4
100
AcDbEntity
  8
UNIFILAR_LINEAS
  6
ByLayer
 62
  256
370
   -1
100
AcDbLine
 10
13.07197853620292
 20
14.49974757000854
 11
13.0677758026958
 21
15.29973653057679
  0
LWPOLYLINE
  5
B5
100
AcDbEntity
  8
UNIFILAR_PROTECCION
  6
ByLayer
 62
  256
370
   -1
100
AcDbPolyline
 90
    5
 70
    0
 43
0
 10
11.37123235239051
 20
16.54084100693089
 10
11.36860564394856
 20
17.04083410728605
 10
11.14860867979229
 20
17.03967835557159
 10
11.15123538823424
 20
16.53968525521643
 10
11.37123235239051
 20
16.54084100693089
  0
LINE
  5
B6
100
AcDbEntity
  8
UNIFILAR_PROTECCION
  6
ByLayer
 62
  256
370
   -1
100
AcDbLine
 10
11.26123387031237
 20
16.54026313107366
 11
11.25860716187042
 21
17.04025623142882
  0
TEXT
  5
B7
100
AcDbEntity
  8
UNIFILAR_PROTECCION
  6
ByLayer
 62
  256
370
   -1
100
AcDbText
 10
11.2599205160914
 20
16.79025968125124
 30
0
 40
0.1
  1
10A
 50
90.301
 41
1
 51
0
  7
STANDARD
 71
    0
 72
    1
 11
11.2599205160914
 21
16.79025968125124
 31
0
210
0
220
0
230
1
100
AcDbText
 73
    2
  0
TEXT
  5
B8
100
AcDbEntity
  8
UNIFILAR_PROTECCION
  6
ByLayer
 62
  256
370
   -1
100
AcDbText
 10
11.25046436570038
 20
18.5902348425298
 30
0
 40
0.07000000000000001
  1
2P-25A-30mA
 50
90.301
 41
1
 51
0
  7
STANDARD
 71
    0
 72
    1
 11
11.25046436570038
 21
18.5902348425298
 31
0
210
0
220
0
230
1
100
AcDbText
 73
    2
  0
TEXT
  5
B9
100
AcDbEntity
  8
UNIFILAR_CARGA
  6
ByLayer
 62
  256
370
   -1
100
AcDbText
 10
12.06990933866675
 20
16.7945149489272
 30
0
 40
0.12
  1
C6: Alumbrado 3er Piso
 50
90.301
 41
1
 51
0
  7
STANDARD
 71
    0
 72
    1
 11
12.06990933866675
 21
16.7945149489272
 31
0
210
0
220
0
230
1
100
AcDbText
 73
    2
  0
TEXT
  5
BA
100
AcDbEntity
  8
UNIFILAR_TEXTOS
  6
ByLayer
 62
  256
370
   -1
100
AcDbText
 10
12.26990657880881
 20
16.79556563230398
 30
0
 40
0.09
  1
500W
 50
90.301
 41
1
 51
0
  7
STANDARD
 71
    0
 72
    1
 11
12.26990657880881
 21
16.79556563230398
 31
0
210
0
220
0
230
1
100
AcDbText
 73
    2
  0
TEXT
  5
BB
100
AcDbEntity
  8
UNIFILAR_TEXTOS
  6
ByLayer
 62
  256
370
   -1
100
AcDbText
 10
12.41990450891536
 20
16.79635364483656
 30
0
 40
0.08
  1
1.5mm2
 50
90.301
 41
1
 51
0
  7
STANDARD
 71
    0
 72
    1
 11
12.41990450891536
 21
16.79635364483656
 31
0
210
0
220
0
230
1
100
AcDbText
 73
    2
  0
TEXT
  5
BC
100
AcDbEntity
  8
UNIFILAR_TEXTOS
  6
ByLayer
 62
  256
370
   -1
100
AcDbText
 10
12.56990243902191
 20
16.79714165736915
 30
0
 40
0.08
  1
dV=0.81%
 50
90.301
 41
1
 51
0
  7
STANDARD
 71
    0
 72
    1
 11
12.56990243902191
 21
16.79714165736915
 31
0
210
0
220
0
230
1
100
AcDbText
 73
    2
  0
TEXT
  5
BD
100
AcDbEntity
  8
UNIFILAR_PROTECCION
  6
ByLayer
 62
  256
370
   -1
100
AcDbText
 10
12.05940250489896
 20
18.79448735034782
 30
0
 40
0.08
  1
OK
 50
90.301
 41
1
 51
0
  7
STANDARD
 71
    0
 72
    1
 11
12.05940250489896
 21
18.79448735034782
 31
0
210
0
220
0
230
1
100
AcDbText
 73
    2
  0
LINE
  5
BE
100
AcDbEntity
  8
UNIFILAR_LINEAS
  6
ByLayer
 62
  256
370
   -1
100
AcDbLine
 10
11.26780064141724
 20
15.29028038018577
 11
11.2599205160914
 21
16.79025968125124
  0
LINE
  5
BF
100
AcDbEntity
  8
UNIFILAR_LINEAS
  6
ByLayer
 62
  256
370
   -1
100
AcDbLine
 10
11.27200337492436
 20
14.49029141961752
 11
11.26780064141724
 21
15.29028038018577
  0
LWPOLYLINE
  5
C0
100
AcDbEntity
  8
UNIFILAR_PROTECCION
  6
ByLayer
 62
  256
370
   -1
100
AcDbPolyline
 90
    5
 70
    0
 43
0
 10
9.571257191111945
 20
16.53138485653988
 10
9.568630482669997
 20
17.03137795689504
 10
9.348633518513727
 20
17.03022220518058
 10
9.351260226955675
 20
16.53022910482542
 10
9.571257191111945
 20
16.53138485653988
  0
LINE
  5
C1
100
AcDbEntity
  8
UNIFILAR_PROTECCION
  6
ByLayer
 62
  256
370
   -1
100
AcDbLine
 10
9.46125870903381
 20
16.53080698068265
 11
9.458632000591862
 21
17.03080008103781
  0
TEXT
  5
C2
100
AcDbEntity
  8
UNIFILAR_PROTECCION
  6
ByLayer
 62
  256
370
   -1
100
AcDbText
 10
9.459945354812836
 20
16.78080353086023
 30
0
 40
0.1
  1
16A
 50
90.301
 41
1
 51
0
  7
STANDARD
 71
    0
 72
    1
 11
9.459945354812836
 21
16.78080353086023
 31
0
210
0
220
0
230
1
100
AcDbText
 73
    2
  0
TEXT
  5
C3
100
AcDbEntity
  8
UNIFILAR_PROTECCION
  6
ByLayer
 62
  256
370
   -1
100
AcDbText
 10
9.450489204421824
 20
18.58077869213879
 30
0
 40
0.07000000000000001
  1
2P-25A-30mA
 50
90.301
 41
1
 51
0
  7
STANDARD
 71
    0
 72
    1
 11
9.450489204421824
 21
18.58077869213879
 31
0
210
0
220
0
230
1
100
AcDbText
 73
    2
  0
TEXT
  5
C4
100
AcDbEntity
  8
UNIFILAR_CARGA
  6
ByLayer
 62
  256
370
   -1
100
AcDbText
 10
10.26993417738819
 20
16.78505879853618
 30
0
 40
0.12
  1
C7: Tomacorrientes 3er Piso
 50
90.301
 41
1
 51
0
  7
STANDARD
 71
    0
 72
    1
 11
10.26993417738819
 21
16.78505879853618
 31
0
210
0
220
0
230
1
100
AcDbText
 73
    2
  0
TEXT
  5
C5
100
AcDbEntity
  8
UNIFILAR_TEXTOS
  6
ByLayer
 62
  256
370
   -1
100
AcDbText
 10
10.46993141753025
 20
16.78610948191296
 30
0
 40
0.09
  1
1500W
 50
90.301
 41
1
 51
0
  7
STANDARD
 71
    0
 72
    1
 11
10.46993141753025
 21
16.78610948191296
 31
0
210
0
220
0
230
1
100
AcDbText
 73
    2
  0
TEXT
  5
C6
100
AcDbEntity
  8
UNIFILAR_TEXTOS
  6
ByLayer
 62
  256
370
   -1
100
AcDbText
 10
10.6199293476368
 20
16.78689749444555
 30
0
 40
0.08
  1
2.5mm2
 50
90.301
 41
1
 51
0
  7
STANDARD
 71
    0
 72
    1
 11
10.6199293476368
 21
16.78689749444555
 31
0
210
0
220
0
230
1
100
AcDbText
 73
    2
  0
TEXT
  5
C7
100
AcDbEntity
  8
UNIFILAR_TEXTOS
  6
ByLayer
 62
  256
370
   -1
100
AcDbText
 10
10.76992727774335
 20
16.78768550697813
 30
0
 40
0.08
  1
dV=1.35%
 50
90.301
 41
1
 51
0
  7
STANDARD
 71
    0
 72
    1
 11
10.76992727774335
 21
16.78768550697813
 31
0
210
0
220
0
230
1
100
AcDbText
 73
    2
  0
TEXT
  5
C8
100
AcDbEntity
  8
UNIFILAR_PROTECCION
  6
ByLayer
 62
  256
370
   -1
100
AcDbText
 10
10.2594273436204
 20
18.78503119995681
 30
0
 40
0.08
  1
OK
 50
90.301
 41
1
 51
0
  7
STANDARD
 71
    0
 72
    1
 11
10.2594273436204
 21
18.78503119995681
 31
0
210
0
220
0
230
1
100
AcDbText
 73
    2
  0
LINE
  5
C9
100
AcDbEntity
  8
UNIFILAR_LINEAS
  6
ByLayer
 62
  256
370
   -1
100
AcDbLine
 10
9.467825480138679
 20
15.28082422979476
 11
9.459945354812836
 21
16.78080353086023
  0
LINE
  5
CA
100
AcDbEntity
  8
UNIFILAR_LINEAS
  6
ByLayer
 62
  256
370
   -1
100
AcDbLine
 10
9.472028213645796
 20
14.48083526922651
 11
9.467825480138679
 21
15.28082422979476
  0
LINE
  5
CB
100
AcDbEntity
  8
UNIFILAR_LINEAS
  6
ByLayer
 62
  256
370
   -1
100
AcDbLine
 10
21.17186676195644
 20
14.54230024676809
 11
20.27187918131716
 21
14.53757217157259
  0
LINE
  5
CC
100
AcDbEntity
  8
UNIFILAR_TIERRA
  6
ByLayer
 62
  256
370
   -1
100
AcDbLine
 10
21.17186676195644
 20
14.54230024676809
 11
21.47186262216954
 21
14.54387627183326
  0
LINE
  5
CD
100
AcDbEntity
  8
UNIFILAR_TIERRA
  6
ByLayer
 62
  256
370
   -1
100
AcDbLine
 10
21.47291330554632
 20
14.3438790316912
 11
21.47081193879276
 21
14.74387351197532
  0
LINE
  5
CE
100
AcDbEntity
  8
UNIFILAR_TIERRA
  6
ByLayer
 62
  256
370
   -1
100
AcDbLine
 10
21.62249096230216
 20
14.42466594028061
 11
21.62123014225002
 21
14.66466262845108
  0
LINE
  5
CF
100
AcDbEntity
  8
UNIFILAR_TIERRA
  6
ByLayer
 62
  256
370
   -1
100
AcDbLine
 10
21.77212115322683
 20
14.49545298686291
 11
21.77159581153844
 21
14.59545160693395
  0
TEXT
  5
D0
100
AcDbEntity
  8
UNIFILAR_TIERRA
  6
ByLayer
 62
  256
370
   -1
100
AcDbText
 10
21.92185641248918
 20
14.54624030943101
 30
0
 40
0.09
  1
SPAT
 50
90.301
 41
1
 51
0
  7
STANDARD
 71
    0
 72
    1
 11
21.92185641248918
 21
14.54624030943101
 31
0
210
0
220
0
230
1
100
AcDbText
 73
    2
  0
LWPOLYLINE
  5
D1
100
AcDbEntity
  8
UNIFILAR_MARCO
  6
ByLayer
 62
  256
370
   -1
100
AcDbPolyline
 90
    5
 70
    0
 43
0
 10
13.79914062875554
 20
22.27029557662505
 10
13.77287354433606
 20
27.27022658017661
 10
11.9728983830575
 20
27.2607704297856
 10
11.99916546747698
 20
22.26083942623404
 10
13.79914062875554
 20
22.27029557662505
  0
TEXT
  5
D2
100
AcDbEntity
  8
UNIFILAR_TEXTOS
  6
ByLayer
 62
  256
370
   -1
100
AcDbText
 10
12.18602916540931
 20
24.7618556113866
 30
0
 40
0.12
  1
SIMBOLOGIA
 50
90.301
 41
1
 51
0
  7
STANDARD
 71
    0
 72
    1
 11
12.18602916540931
 21
24.7618556113866
 31
0
210
0
220
0
230
1
100
AcDbText
 73
    2
  0
LINE
  5
D3
100
AcDbEntity
  8
UNIFILAR_MARCO
  6
ByLayer
 62
  256
370
   -1
100
AcDbLine
 10
12.39915994776111
 20
22.2629407929876
 11
12.37289286334163
 21
27.26287179653916
  0
TEXT
  5
D4
100
AcDbEntity
  8
UNIFILAR_TEXTOS
  6
ByLayer
 62
  256
370
   -1
100
AcDbText
 10
12.68602226576446
 20
24.76448231982855
 30
0
 40
0.09
  1
Medidor
 50
90.301
 41
1
 51
0
  7
STANDARD
 71
    0
 72
    1
 11
12.68602226576446
 21
24.76448231982855
 31
0
210
0
220
0
230
1
100
AcDbText
 73
    2
  0
TEXT
  5
D5
100
AcDbEntity
  8
UNIFILAR_TEXTOS
  6
ByLayer
 62
  256
370
   -1
100
AcDbText
 10
12.98601812597756
 20
24.76605834489371
 30
0
 40
0.09
  1
ITM / Proteccion
 50
90.301
 41
1
 51
0
  7
STANDARD
 71
    0
 72
    1
 11
12.98601812597756
 21
24.76605834489371
 31
0
210
0
220
0
230
1
100
AcDbText
 73
    2
  0
TEXT
  5
D6
100
AcDbEntity
  8
UNIFILAR_TEXTOS
  6
ByLayer
 62
  256
370
   -1
100
AcDbText
 10
13.28601398619065
 20
24.76763436995888
 30
0
 40
0.09
  1
Tablero general
 50
90.301
 41
1
 51
0
  7
STANDARD
 71
    0
 72
    1
 11
13.28601398619065
 21
24.76763436995888
 31
0
210
0
220
0
230
1
100
AcDbText
 73
    2
  0
TEXT
  5
D7
100
AcDbEntity
  8
UNIFILAR_TEXTOS
  6
ByLayer
 62
  256
370
   -1
100
AcDbText
 10
13.58600984640374
 20
24.76921039502405
 30
0
 40
0.09
  1
Carga / Circuito
 50
90.301
 41
1
 51
0
  7
STANDARD
 71
    0
 72
    1
 11
13.58600984640374
 21
24.76921039502405
 31
0
210
0
220
0
230
1
100
AcDbText
 73
    2
  0
LWPOLYLINE
  5
D8
100
AcDbEntity
  8
0
  6
ByLayer
 62
  256
370
   -1
100
AcDbPolyline
 90
    4
 70
    1
 43
0
 10
-0.9537117312573358
 20
30.51877540023474
 10
25.82357918481402
 20
30.51877540023474
 10
25.82357918481402
 20
9.867248296470128
 10
-0.9537117312573358
 20
9.867248296470128
  0
ENDSEC
  0
SECTION
  2
OBJECTS
  0
DICTIONARY
  5
C
330
0
100
AcDbDictionary
281
    1
  3
ACAD_GROUP
350
D
  0
DICTIONARY
  5
D
330
C
100
AcDbDictionary
281
    1
  0
PLOTSETTINGS
  5
D9
100
AcDbPlotSettings
  6
1x1
 40
0
 41
0
 42
0
 43
0
  0
ENDSEC
  0
EOF
