  0
SECTION
  2
HEADER
  9
$ACADVER
  1
AC1024
  9
$ACADMAINTVER
 70
6
  9
$DWGCODEPAGE
  3
ANSI_1252
  9
$LASTSAVEDBY
  1
ezdxf
  9
$INSBASE
 10
0.0
 20
0.0
 30
0.0
  9
$EXTMIN
 10
1e+20
 20
1e+20
 30
1e+20
  9
$EXTMAX
 10
-1e+20
 20
-1e+20
 30
-1e+20
  9
$LIMMIN
 10
0.0
 20
0.0
  9
$LIMMAX
 10
420.0
 20
297.0
  9
$ORTHOMODE
 70
0
  9
$REGENMODE
 70
1
  9
$FILLMODE
 70
1
  9
$QTEXTMODE
 70
0
  9
$MIRRTEXT
 70
1
  9
$LTSCALE
 40
1.0
  9
$ATTMODE
 70
1
  9
$TEXTSIZE
 40
2.5
  9
$TRACEWID
 40
1.0
  9
$TEXTSTYLE
  7
Standard
  9
$CLAYER
  8
0
  9
$CELTYPE
  6
ByLayer
  9
$CECOLOR
 62
256
  9
$CELTSCALE
 40
1.0
  9
$DISPSILH
 70
0
  9
$DIMSCALE
 40
1.0
  9
$DIMASZ
 40
2.5
  9
$DIMEXO
 40
0.625
  9
$DIMDLI
 40
3.75
  9
$DIMRND
 40
0.0
  9
$DIMDLE
 40
0.0
  9
$DIMEXE
 40
1.25
  9
$DIMTP
 40
0.0
  9
$DIMTM
 40
0.0
  9
$DIMTXT
 40
2.5
  9
$DIMCEN
 40
2.5
  9
$DIMTSZ
 40
0.0
  9
$DIMTOL
 70
0
  9
$DIMLIM
 70
0
  9
$DIMTIH
 70
0
  9
$DIMTOH
 70
0
  9
$DIMSE1
 70
0
  9
$DIMSE2
 70
0
  9
$DIMTAD
 70
1
  9
$DIMZIN
 70
8
  9
$DIMBLK
  1

  9
$DIMASO
 70
1
  9
$DIMSHO
 70
1
  9
$DIMPOST
  1

  9
$DIMAPOST
  1

  9
$DIMALT
 70
0
  9
$DIMALTD
 70
3
  9
$DIMALTF
 40
0.03937007874
  9
$DIMLFAC
 40
1.0
  9
$DIMTOFL
 70
1
  9
$DIMTVP
 40
0.0
  9
$DIMTIX
 70
0
  9
$DIMSOXD
 70
0
  9
$DIMSAH
 70
0
  9
$DIMBLK1
  1

  9
$DIMBLK2
  1

  9
$DIMSTYLE
  2
ISO-25
  9
$DIMCLRD
 70
0
  9
$DIMCLRE
 70
0
  9
$DIMCLRT
 70
0
  9
$DIMTFAC
 40
1.0
  9
$DIMGAP
 40
0.625
  9
$DIMJUST
 70
0
  9
$DIMSD1
 70
0
  9
$DIMSD2
 70
0
  9
$DIMTOLJ
 70
0
  9
$DIMTZIN
 70
8
  9
$DIMALTZ
 70
0
  9
$DIMALTTZ
 70
0
  9
$DIMUPT
 70
0
  9
$DIMDEC
 70
2
  9
$DIMTDEC
 70
2
  9
$DIMALTU
 70
2
  9
$DIMALTTD
 70
3
  9
$DIMTXSTY
  7
Standard
  9
$DIMAUNIT
 70
0
  9
$DIMADEC
 70
0
  9
$DIMALTRND
 40
0.0
  9
$DIMAZIN
 70
0
  9
$DIMDSEP
 70
44
  9
$DIMATFIT
 70
3
  9
$DIMFRAC
 70
0
  9
$DIMLDRBLK
  1

  9
$DIMLUNIT
 70
2
  9
$DIMLWD
 70
-2
  9
$DIMLWE
 70
-2
  9
$DIMTMOVE
 70
0
  9
$DIMFXL
 40
1.0
  9
$DIMFXLON
 70
0
  9
$DIMJOGANG
 40
0.785398163397
  9
$DIMTFILL
 70
0
  9
$DIMTFILLCLR
 70
0
  9
$DIMARCSYM
 70
0
  9
$DIMLTYPE
  6

  9
$DIMLTEX1
  6

  9
$DIMLTEX2
  6

  9
$DIMTXTDIRECTION
 70
0
  9
$LUNITS
 70
2
  9
$LUPREC
 70
4
  9
$SKETCHINC
 40
1.0
  9
$FILLETRAD
 40
10.0
  9
$AUNITS
 70
0
  9
$AUPREC
 70
2
  9
$MENU
  1
.
  9
$ELEVATION
 40
0.0
  9
$PELEVATION
 40
0.0
  9
$THICKNESS
 40
0.0
  9
$LIMCHECK
 70
0
  9
$CHAMFERA
 40
0.0
  9
$CHAMFERB
 40
0.0
  9
$CHAMFERC
 40
0.0
  9
$CHAMFERD
 40
0.0
  9
$SKPOLY
 70
0
  9
$TDCREATE
 40
2461195.6738541666
  9
$TDUCREATE
 40
2458532.153996898
  9
$TDUPDATE
 40
2461195.6738541666
  9
$TDUUPDATE
 40
2458532.1544311
  9
$TDINDWG
 40
0.0
  9
$TDUSRTIMER
 40
0.0
  9
$USRTIMER
 70
1
  9
$ANGBASE
 50
0.0
  9
$ANGDIR
 70
0
  9
$PDMODE
 70
0
  9
$PDSIZE
 40
0.0
  9
$PLINEWID
 40
0.0
  9
$SPLFRAME
 70
0
  9
$SPLINETYPE
 70
6
  9
$SPLINESEGS
 70
8
  9
$HANDSEED
  5
365
  9
$SURFTAB1
 70
6
  9
$SURFTAB2
 70
6
  9
$SURFTYPE
 70
6
  9
$SURFU
 70
6
  9
$SURFV
 70
6
  9
$UCSBASE
  2

  9
$UCSNAME
  2

  9
$UCSORG
 10
0.0
 20
0.0
 30
0.0
  9
$UCSXDIR
 10
1.0
 20
0.0
 30
0.0
  9
$UCSYDIR
 10
0.0
 20
1.0
 30
0.0
  9
$UCSORTHOREF
  2

  9
$UCSORTHOVIEW
 70
0
  9
$UCSORGTOP
 10
0.0
 20
0.0
 30
0.0
  9
$UCSORGBOTTOM
 10
0.0
 20
0.0
 30
0.0
  9
$UCSORGLEFT
 10
0.0
 20
0.0
 30
0.0
  9
$UCSORGRIGHT
 10
0.0
 20
0.0
 30
0.0
  9
$UCSORGFRONT
 10
0.0
 20
0.0
 30
0.0
  9
$UCSORGBACK
 10
0.0
 20
0.0
 30
0.0
  9
$PUCSBASE
  2

  9
$PUCSNAME
  2

  9
$PUCSORG
 10
0.0
 20
0.0
 30
0.0
  9
$PUCSXDIR
 10
1.0
 20
0.0
 30
0.0
  9
$PUCSYDIR
 10
0.0
 20
1.0
 30
0.0
  9
$PUCSORTHOREF
  2

  9
$PUCSORTHOVIEW
 70
0
  9
$PUCSORGTOP
 10
0.0
 20
0.0
 30
0.0
  9
$PUCSORGBOTTOM
 10
0.0
 20
0.0
 30
0.0
  9
$PUCSORGLEFT
 10
0.0
 20
0.0
 30
0.0
  9
$PUCSORGRIGHT
 10
0.0
 20
0.0
 30
0.0
  9
$PUCSORGFRONT
 10
0.0
 20
0.0
 30
0.0
  9
$PUCSORGBACK
 10
0.0
 20
0.0
 30
0.0
  9
$USERI1
 70
0
  9
$USERI2
 70
0
  9
$USERI3
 70
0
  9
$USERI4
 70
0
  9
$USERI5
 70
0
  9
$USERR1
 40
0.0
  9
$USERR2
 40
0.0
  9
$USERR3
 40
0.0
  9
$USERR4
 40
0.0
  9
$USERR5
 40
0.0
  9
$WORLDVIEW
 70
1
  9
$SHADEDGE
 70
3
  9
$SHADEDIF
 70
70
  9
$TILEMODE
 70
1
  9
$MAXACTVP
 70
64
  9
$PINSBASE
 10
0.0
 20
0.0
 30
0.0
  9
$PLIMCHECK
 70
0
  9
$PEXTMIN
 10
1e+20
 20
1e+20
 30
1e+20
  9
$PEXTMAX
 10
-1e+20
 20
-1e+20
 30
-1e+20
  9
$PLIMMIN
 10
0.0
 20
0.0
  9
$PLIMMAX
 10
420.0
 20
297.0
  9
$UNITMODE
 70
0
  9
$VISRETAIN
 70
1
  9
$PLINEGEN
 70
0
  9
$PSLTSCALE
 70
1
  9
$TREEDEPTH
 70
3020
  9
$CMLSTYLE
  2
Standard
  9
$CMLJUST
 70
0
  9
$CMLSCALE
 40
20.0
  9
$PROXYGRAPHICS
 70
1
  9
$MEASUREMENT
 70
1
  9
$CELWEIGHT
370
-1
  9
$ENDCAPS
280
0
  9
$JOINSTYLE
280
0
  9
$LWDISPLAY
290
0
  9
$INSUNITS
 70
6
  9
$HYPERLINKBASE
  1

  9
$STYLESHEET
  1

  9
$XEDIT
290
1
  9
$CEPSNTYPE
380
0
  9
$PSTYLEMODE
290
1
  9
$FINGERPRINTGUID
  2
{9AA1899C-5183-487D-A2AB-DB6586F28EE2}
  9
$VERSIONGUID
  2
{E06B796C-EBCB-409E-8E79-B358BFCE0279}
  9
$EXTNAMES
290
1
  9
$PSVPSCALE
 40
0.0
  9
$OLESTARTUP
290
0
  9
$SORTENTS
280
127
  9
$INDEXCTL
280
0
  9
$HIDETEXT
280
1
  9
$XCLIPFRAME
280
1
  9
$HALOGAP
280
0
  9
$OBSCOLOR
 70
257
  9
$OBSLTYPE
280
0
  9
$INTERSECTIONDISPLAY
280
0
  9
$INTERSECTIONCOLOR
 70
257
  9
$DIMASSOC
280
2
  9
$PROJECTNAME
  1

  9
$CAMERADISPLAY
290
0
  9
$LENSLENGTH
 40
50.0
  9
$CAMERAHEIGHT
 40
0.0
  9
$STEPSPERSEC
 40
24.0
  9
$STEPSIZE
 40
100.0
  9
$3DDWFPREC
 40
2.0
  9
$PSOLWIDTH
 40
0.005
  9
$PSOLHEIGHT
 40
0.08
  9
$LOFTANG1
 40
1.570796326795
  9
$LOFTANG2
 40
1.570796326795
  9
$LOFTMAG1
 40
0.0
  9
$LOFTMAG2
 40
0.0
  9
$LOFTPARAM
 70
7
  9
$LOFTNORMALS
280
1
  9
$LATITUDE
 40
37.795
  9
$LONGITUDE
 40
-122.394
  9
$NORTHDIRECTION
 40
0.0
  9
$TIMEZONE
 70
-8000
  9
$LIGHTGLYPHDISPLAY
280
1
  9
$TILEMODELIGHTSYNCH
280
1
  9
$CMATERIAL
347
20
  9
$SOLIDHIST
280
0
  9
$SHOWHIST
280
1
  9
$DWFFRAME
280
2
  9
$DGNFRAME
280
2
  9
$REALWORLDSCALE
290
1
  9
$INTERFERECOLOR
 62
256
  9
$CSHADOW
280
0
  9
$SHADOWPLANELOCATION
 40
0.0
  0
ENDSEC
  0
SECTION
  2
CLASSES
  0
CLASS
  1
ACDBDICTIONARYWDFLT
  2
AcDbDictionaryWithDefault
  3
ObjectDBX Classes
 90
0
 91
0
280
0
281
0
  0
CLASS
  1
SUN
  2
AcDbSun
  3
SCENEOE
 90
1153
 91
0
280
0
281
0
  0
CLASS
  1
VISUALSTYLE
  2
AcDbVisualStyle
  3
ObjectDBX Classes
 90
4095
 91
0
280
0
281
0
  0
CLASS
  1
MATERIAL
  2
AcDbMaterial
  3
ObjectDBX Classes
 90
1153
 91
0
280
0
281
0
  0
CLASS
  1
SCALE
  2
AcDbScale
  3
ObjectDBX Classes
 90
1153
 91
0
280
0
281
0
  0
CLASS
  1
TABLESTYLE
  2
AcDbTableStyle
  3
ObjectDBX Classes
 90
4095
 91
0
280
0
281
0
  0
CLASS
  1
MLEADERSTYLE
  2
AcDbMLeaderStyle
  3
ACDB_MLEADERSTYLE_CLASS
 90
4095
 91
0
280
0
281
0
  0
CLASS
  1
DICTIONARYVAR
  2
AcDbDictionaryVar
  3
ObjectDBX Classes
 90
0
 91
0
280
0
281
0
  0
CLASS
  1
CELLSTYLEMAP
  2
AcDbCellStyleMap
  3
ObjectDBX Classes
 90
1152
 91
0
280
0
281
0
  0
CLASS
  1
MENTALRAYRENDERSETTINGS
  2
AcDbMentalRayRenderSettings
  3
SCENEOE
 90
1024
 91
0
280
0
281
0
  0
CLASS
  1
ACDBDETAILVIEWSTYLE
  2
AcDbDetailViewStyle
  3
ObjectDBX Classes
 90
1025
 91
0
280
0
281
0
  0
CLASS
  1
ACDBSECTIONVIEWSTYLE
  2
AcDbSectionViewStyle
  3
ObjectDBX Classes
 90
1025
 91
0
280
0
281
0
  0
CLASS
  1
RASTERVARIABLES
  2
AcDbRasterVariables
  3
ISM
 90
0
 91
0
280
0
281
0
  0
CLASS
  1
ACDBPLACEHOLDER
  2
AcDbPlaceHolder
  3
ObjectDBX Classes
 90
0
 91
0
280
0
281
0
  0
CLASS
  1
LAYOUT
  2
AcDbLayout
  3
ObjectDBX Classes
 90
0
 91
0
280
0
281
0
  0
ENDSEC
  0
SECTION
  2
TABLES
  0
TABLE
  2
VPORT
  5
8
330
0
100
AcDbSymbolTable
 70
1
  0
VPORT
  5
23
330
8
100
AcDbSymbolTableRecord
100
AcDbViewportTableRecord
  2
*Active
 70
0
 10
0.0
 20
0.0
 11
1.0
 21
1.0
 12
0.0
 22
0.0
 13
0.0
 23
0.0
 14
0.5
 24
0.5
 15
0.5
 25
0.5
 16
0.0
 26
0.0
 36
1.0
 17
0.0
 27
0.0
 37
0.0
 40
1000.0
 41
1.34
 42
50.0
 43
0.0
 44
0.0
 50
0.0
 51
0.0
 71
0
 72
1000
 73
1
 74
3
 75
0
 76
0
 77
0
 78
0
281
0
 65
0
146
0.0
  0
ENDTAB
  0
TABLE
  2
LTYPE
  5
2
330
0
100
AcDbSymbolTable
 70
4
  0
LTYPE
  5
24
330
2
100
AcDbSymbolTableRecord
100
AcDbLinetypeTableRecord
  2
ByBlock
 70
0
  3

 72
65
 73
0
 40
0.0
  0
LTYPE
  5
25
330
2
100
AcDbSymbolTableRecord
100
AcDbLinetypeTableRecord
  2
ByLayer
 70
0
  3

 72
65
 73
0
 40
0.0
  0
LTYPE
  5
26
330
2
100
AcDbSymbolTableRecord
100
AcDbLinetypeTableRecord
  2
Continuous
 70
0
  3

 72
65
 73
0
 40
0.0
  0
LTYPE
  5
2F
330
2
100
AcDbSymbolTableRecord
100
AcDbLinetypeTableRecord
  2
DASHED
 70
0
  3

 72
65
 73
2
 40
0.5
 49
0.25
 74
0
 49
-0.15
 74
0
  0
ENDTAB
  0
TABLE
  2
LAYER
  5
1
330
0
100
AcDbSymbolTable
 70
27
  0
LAYER
  5
27
330
1
100
AcDbSymbolTableRecord
100
AcDbLayerTableRecord
  2
0
 70
0
 62
7
  6
Continuous
370
-3
390
13
347
21
  0
LAYER
  5
28
330
1
100
AcDbSymbolTableRecord
100
AcDbLayerTableRecord
  2
Defpoints
 70
0
 62
7
  6
Continuous
290
0
370
-3
390
13
347
21
  0
LAYER
  5
30
330
1
100
AcDbSymbolTableRecord
100
AcDbLayerTableRecord
  2
ARQ_MUROS
 70
0
 62
7
420
1315860
  6
CONTINUOUS
370
25
390
13
347
21
  0
LAYER
  5
31
330
1
100
AcDbSymbolTableRecord
100
AcDbLayerTableRecord
  2
ARQ_PUERTAS
 70
0
 62
7
420
7895160
  6
CONTINUOUS
370
15
390
13
347
21
  0
LAYER
  5
32
330
1
100
AcDbSymbolTableRecord
100
AcDbLayerTableRecord
  2
ARQ_VENTANAS
 70
0
 62
7
420
1349290
  6
CONTINUOUS
370
15
390
13
347
21
  0
LAYER
  5
33
330
1
100
AcDbSymbolTableRecord
100
AcDbLayerTableRecord
  2
ARQ_ESCALERAS
 70
0
 62
7
420
7895160
  6
CONTINUOUS
370
15
390
13
347
21
  0
LAYER
  5
34
330
1
100
AcDbSymbolTableRecord
100
AcDbLayerTableRecord
  2
ARQ_TEXTOS
 70
0
 62
7
420
7895160
  6
CONTINUOUS
370
13
390
13
347
21
  0
LAYER
  5
35
330
1
100
AcDbSymbolTableRecord
100
AcDbLayerTableRecord
  2
ELEC_LUMINARIAS
 70
0
 62
7
420
14449945
  6
CONTINUOUS
370
25
390
13
347
21
  0
LAYER
  5
36
330
1
100
AcDbSymbolTableRecord
100
AcDbLayerTableRecord
  2
ELEC_INTERRUPTORES
 70
0
 62
7
420
14449945
  6
CONTINUOUS
370
25
390
13
347
21
  0
LAYER
  5
37
330
1
100
AcDbSymbolTableRecord
100
AcDbLayerTableRecord
  2
ELEC_TOMACORRIENTES
 70
0
 62
7
420
2315700
  6
CONTINUOUS
370
25
390
13
347
21
  0
LAYER
  5
38
330
1
100
AcDbSymbolTableRecord
100
AcDbLayerTableRecord
  2
ELEC_TABLEROS
 70
0
 62
7
420
13114910
  6
CONTINUOUS
370
30
390
13
347
21
  0
LAYER
  5
39
330
1
100
AcDbSymbolTableRecord
100
AcDbLayerTableRecord
  2
ELEC_MEDIDOR
 70
0
 62
7
420
1999430
  6
CONTINUOUS
370
25
390
13
347
21
  0
LAYER
  5
3A
330
1
100
AcDbSymbolTableRecord
100
AcDbLayerTableRecord
  2
ELEC_PUESTA_TIERRA
 70
0
 62
7
420
1999430
  6
CONTINUOUS
370
25
390
13
347
21
  0
LAYER
  5
3B
330
1
100
AcDbSymbolTableRecord
100
AcDbLayerTableRecord
  2
ELEC_CANALIZACION
 70
0
 62
7
420
7895160
  6
CONTINUOUS
370
15
390
13
347
21
  0
LAYER
  5
3C
330
1
100
AcDbSymbolTableRecord
100
AcDbLayerTableRecord
  2
ELEC_TEXTOS
 70
0
 62
7
420
1315860
  6
CONTINUOUS
370
13
390
13
347
21
  0
LAYER
  5
3D
330
1
100
AcDbSymbolTableRecord
100
AcDbLayerTableRecord
  2
ELEC_LEYENDA
 70
0
 62
7
420
1315860
  6
CONTINUOUS
370
18
390
13
347
21
  0
LAYER
  5
3E
330
1
100
AcDbSymbolTableRecord
100
AcDbLayerTableRecord
  2
ELEC_ROTULO
 70
0
 62
7
420
1315860
  6
CONTINUOUS
370
20
390
13
347
21
  0
LAYER
  5
3F
330
1
100
AcDbSymbolTableRecord
100
AcDbLayerTableRecord
  2
MARCO
 70
0
 62
7
420
1315860
  6
CONTINUOUS
370
40
390
13
347
21
  0
LAYER
  5
40
330
1
100
AcDbSymbolTableRecord
100
AcDbLayerTableRecord
  2
ELEC_CIRCUITO_C1
 70
0
 62
7
420
14449945
  6
DASHED
370
20
390
13
347
21
  0
LAYER
  5
41
330
1
100
AcDbSymbolTableRecord
100
AcDbLayerTableRecord
  2
ELEC_CIRCUITO_C2
 70
0
 62
7
420
2315700
  6
DASHED
370
20
390
13
347
21
  0
LAYER
  5
42
330
1
100
AcDbSymbolTableRecord
100
AcDbLayerTableRecord
  2
ELEC_CIRCUITO_C3
 70
0
 62
7
420
13114910
  6
DASHED
370
20
390
13
347
21
  0
LAYER
  5
43
330
1
100
AcDbSymbolTableRecord
100
AcDbLayerTableRecord
  2
ELEC_CIRCUITO_C4
 70
0
 62
7
420
14449945
  6
DASHED
370
20
390
13
347
21
  0
LAYER
  5
44
330
1
100
AcDbSymbolTableRecord
100
AcDbLayerTableRecord
  2
ELEC_CIRCUITO_C5
 70
0
 62
7
420
2315700
  6
DASHED
370
20
390
13
347
21
  0
LAYER
  5
45
330
1
100
AcDbSymbolTableRecord
100
AcDbLayerTableRecord
  2
ELEC_CIRCUITO_C6
 70
0
 62
7
420
14449945
  6
DASHED
370
20
390
13
347
21
  0
LAYER
  5
46
330
1
100
AcDbSymbolTableRecord
100
AcDbLayerTableRecord
  2
ELEC_CIRCUITO_C7
 70
0
 62
7
420
2315700
  6
DASHED
370
20
390
13
347
21
  0
LAYER
  5
47
330
1
100
AcDbSymbolTableRecord
100
AcDbLayerTableRecord
  2
ELEC_CIRCUITO_C8
 70
0
 62
7
420
7879840
  6
DASHED
370
20
390
13
347
21
  0
LAYER
  5
48
330
1
100
AcDbSymbolTableRecord
100
AcDbLayerTableRecord
  2
ELEC_CIRCUITO_C9
 70
0
 62
7
420
1999430
  6
DASHED
370
20
390
13
347
21
  0
ENDTAB
  0
TABLE
  2
STYLE
  5
5
330
0
100
AcDbSymbolTable
 70
1
  0
STYLE
  5
29
330
5
100
AcDbSymbolTableRecord
100
AcDbTextStyleTableRecord
  2
Standard
 70
0
 40
0.0
 41
1.0
 50
0.0
 71
0
 42
2.5
  3
txt
  4

  0
ENDTAB
  0
TABLE
  2
VIEW
  5
7
330
0
100
AcDbSymbolTable
 70
0
  0
ENDTAB
  0
TABLE
  2
UCS
  5
6
330
0
100
AcDbSymbolTable
 70
0
  0
ENDTAB
  0
TABLE
  2
APPID
  5
3
330
0
100
AcDbSymbolTable
 70
3
  0
APPID
  5
2A
330
3
100
AcDbSymbolTableRecord
100
AcDbRegAppTableRecord
  2
ACAD
 70
0
  0
APPID
  5
362
330
3
100
AcDbSymbolTableRecord
100
AcDbRegAppTableRecord
  2
HATCHBACKGROUNDCOLOR
 70
0
  0
APPID
  5
363
330
3
100
AcDbSymbolTableRecord
100
AcDbRegAppTableRecord
  2
EZDXF
 70
0
  0
ENDTAB
  0
TABLE
  2
DIMSTYLE
  5
4
330
0
100
AcDbSymbolTable
 70
1
100
AcDbDimStyleTable
  0
DIMSTYLE
105
2B
330
4
100
AcDbSymbolTableRecord
100
AcDbDimStyleTableRecord
  2
Standard
 70
0
 40
1.0
 41
2.5
 42
0.625
 43
3.75
 44
1.25
 45
0.0
 46
0.0
 47
0.0
 48
0.0
 49
2.5
140
2.5
141
2.5
142
0.0
143
0.03937007874
144
1.0
145
0.0
146
1.0
147
0.625
148
0.0
 69
0
 70
0
 71
0
 72
0
 73
0
 74
0
 75
0
 76
0
 77
1
 78
8
 79
3
170
0
171
3
172
1
173
0
174
0
175
0
176
0
177
0
178
0
179
2
271
2
272
2
273
2
274
3
275
0
276
0
277
2
278
44
279
0
280
0
281
0
282
0
283
0
284
8
285
0
286
0
288
0
289
3
290
0
371
-2
372
-2
  0
ENDTAB
  0
TABLE
  2
BLOCK_RECORD
  5
9
330
0
100
AcDbSymbolTable
 70
2
  0
BLOCK_RECORD
  5
17
330
9
100
AcDbSymbolTableRecord
100
AcDbBlockTableRecord
  2
*Model_Space
340
1A
 70
0
280
1
281
0
  0
BLOCK_RECORD
  5
1B
330
9
100
AcDbSymbolTableRecord
100
AcDbBlockTableRecord
  2
*Paper_Space
340
1E
 70
0
280
1
281
0
  0
ENDTAB
  0
ENDSEC
  0
SECTION
  2
BLOCKS
  0
BLOCK
  5
18
330
17
100
AcDbEntity
  8
0
100
AcDbBlockBegin
  2
*Model_Space
 70
0
 10
0.0
 20
0.0
 30
0.0
  3
*Model_Space
  1

  0
ENDBLK
  5
19
330
17
100
AcDbEntity
  8
0
100
AcDbBlockEnd
  0
BLOCK
  5
1C
330
1B
100
AcDbEntity
  8
0
100
AcDbBlockBegin
  2
*Paper_Space
 70
0
 10
0.0
 20
0.0
 30
0.0
  3
*Paper_Space
  1

  0
ENDBLK
  5
1D
330
1B
100
AcDbEntity
  8
0
100
AcDbBlockEnd
  0
ENDSEC
  0
SECTION
  2
ENTITIES
  0
LINE
  5
49
330
17
100
AcDbEntity
  8
MARCO
420
1315860
100
AcDbLine
 10
-1.0
 20
-1.0
 30
0.0
 11
28.5
 21
-1.0
 31
0.0
  0
LINE
  5
4A
330
17
100
AcDbEntity
  8
MARCO
420
1315860
100
AcDbLine
 10
28.5
 20
-1.0
 30
0.0
 11
28.5
 21
13.8
 31
0.0
  0
LINE
  5
4B
330
17
100
AcDbEntity
  8
MARCO
420
1315860
100
AcDbLine
 10
28.5
 20
13.8
 30
0.0
 11
-1.0
 21
13.8
 31
0.0
  0
LINE
  5
4C
330
17
100
AcDbEntity
  8
MARCO
420
1315860
100
AcDbLine
 10
-1.0
 20
13.8
 30
0.0
 11
-1.0
 21
-1.0
 31
0.0
  0
TEXT
  5
4D
330
17
100
AcDbEntity
  8
ELEC_ROTULO
100
AcDbText
 10
13.5
 20
13.25
 30
0.0
 40
0.38
  1
IE-04 CIRCUITOS Y CANALIZACIONES
 72
1
 11
13.5
 21
13.25
 31
0.0
100
AcDbText
 73
2
  0
TEXT
  5
4E
330
17
100
AcDbEntity
  8
ELEC_TEXTOS
100
AcDbText
 10
2.25
 20
11.95
 30
0.0
 40
0.22
  1
PRIMER PISO
 72
1
 11
2.25
 21
11.95
 31
0.0
100
AcDbText
 73
2
  0
LINE
  5
4F
330
17
100
AcDbEntity
  8
ARQ_MUROS
100
AcDbLine
 10
1.25
 20
10.0
 30
0.0
 11
1.25
 21
10.3
 31
0.0
  0
LINE
  5
50
330
17
100
AcDbEntity
  8
ARQ_MUROS
100
AcDbLine
 10
0.0
 20
10.3
 30
0.0
 11
2.5
 21
10.3
 31
0.0
  0
LINE
  5
51
330
17
100
AcDbEntity
  8
ARQ_MUROS
100
AcDbLine
 10
0.0
 20
10.033333333333333
 30
0.0
 11
1.25
 21
10.033333333333333
 31
0.0
  0
LINE
  5
52
330
17
100
AcDbEntity
  8
ARQ_MUROS
100
AcDbLine
 10
1.25
 20
10.033333333333333
 30
0.0
 11
2.5
 21
10.033333333333333
 31
0.0
  0
LINE
  5
53
330
17
100
AcDbEntity
  8
ARQ_MUROS
100
AcDbLine
 10
0.0
 20
10.066666666666666
 30
0.0
 11
1.25
 21
10.066666666666666
 31
0.0
  0
LINE
  5
54
330
17
100
AcDbEntity
  8
ARQ_MUROS
100
AcDbLine
 10
1.25
 20
10.066666666666666
 30
0.0
 11
2.5
 21
10.066666666666666
 31
0.0
  0
LINE
  5
55
330
17
100
AcDbEntity
  8
ARQ_MUROS
100
AcDbLine
 10
0.0
 20
10.1
 30
0.0
 11
1.25
 21
10.1
 31
0.0
  0
LINE
  5
56
330
17
100
AcDbEntity
  8
ARQ_MUROS
100
AcDbLine
 10
1.25
 20
10.1
 30
0.0
 11
2.5
 21
10.1
 31
0.0
  0
LINE
  5
57
330
17
100
AcDbEntity
  8
ARQ_MUROS
100
AcDbLine
 10
0.0
 20
10.133333333333333
 30
0.0
 11
1.25
 21
10.133333333333333
 31
0.0
  0
LINE
  5
58
330
17
100
AcDbEntity
  8
ARQ_MUROS
100
AcDbLine
 10
1.25
 20
10.133333333333333
 30
0.0
 11
2.5
 21
10.133333333333333
 31
0.0
  0
LINE
  5
59
330
17
100
AcDbEntity
  8
ARQ_MUROS
100
AcDbLine
 10
0.0
 20
10.166666666666668
 30
0.0
 11
1.25
 21
10.166666666666668
 31
0.0
  0
LINE
  5
5A
330
17
100
AcDbEntity
  8
ARQ_MUROS
100
AcDbLine
 10
1.25
 20
10.166666666666668
 30
0.0
 11
2.5
 21
10.166666666666668
 31
0.0
  0
LINE
  5
5B
330
17
100
AcDbEntity
  8
ARQ_MUROS
100
AcDbLine
 10
0.0
 20
10.2
 30
0.0
 11
1.25
 21
10.2
 31
0.0
  0
LINE
  5
5C
330
17
100
AcDbEntity
  8
ARQ_MUROS
100
AcDbLine
 10
1.25
 20
10.2
 30
0.0
 11
2.5
 21
10.2
 31
0.0
  0
LINE
  5
5D
330
17
100
AcDbEntity
  8
ARQ_MUROS
100
AcDbLine
 10
0.0
 20
10.233333333333334
 30
0.0
 11
1.25
 21
10.233333333333334
 31
0.0
  0
LINE
  5
5E
330
17
100
AcDbEntity
  8
ARQ_MUROS
100
AcDbLine
 10
1.25
 20
10.233333333333334
 30
0.0
 11
2.5
 21
10.233333333333334
 31
0.0
  0
LINE
  5
5F
330
17
100
AcDbEntity
  8
ARQ_MUROS
100
AcDbLine
 10
0.0
 20
10.266666666666666
 30
0.0
 11
1.25
 21
10.266666666666666
 31
0.0
  0
LINE
  5
60
330
17
100
AcDbEntity
  8
ARQ_MUROS
100
AcDbLine
 10
1.25
 20
10.266666666666666
 30
0.0
 11
2.5
 21
10.266666666666666
 31
0.0
  0
LINE
  5
61
330
17
100
AcDbEntity
  8
ARQ_MUROS
100
AcDbLine
 10
0.0
 20
9.925
 30
0.0
 11
3.0
 21
9.925
 31
0.0
  0
LINE
  5
62
330
17
100
AcDbEntity
  8
ARQ_MUROS
100
AcDbLine
 10
0.0
 20
10.075
 30
0.0
 11
3.0
 21
10.075
 31
0.0
  0
LINE
  5
63
330
17
100
AcDbEntity
  8
ARQ_MUROS
100
AcDbLine
 10
-0.075
 20
10.0
 30
0.0
 11
-0.075
 21
11.5
 31
0.0
  0
LINE
  5
64
330
17
100
AcDbEntity
  8
ARQ_MUROS
100
AcDbLine
 10
0.075
 20
10.0
 30
0.0
 11
0.075
 21
11.5
 31
0.0
  0
LINE
  5
65
330
17
100
AcDbEntity
  8
ARQ_MUROS
100
AcDbLine
 10
2.925
 20
6.5
 30
0.0
 11
2.925
 21
10.0
 31
0.0
  0
LINE
  5
66
330
17
100
AcDbEntity
  8
ARQ_MUROS
100
AcDbLine
 10
3.075
 20
6.5
 30
0.0
 11
3.075
 21
10.0
 31
0.0
  0
LINE
  5
67
330
17
100
AcDbEntity
  8
ARQ_MUROS
100
AcDbLine
 10
2.925
 20
3.0
 30
0.0
 11
2.925
 21
6.5
 31
0.0
  0
LINE
  5
68
330
17
100
AcDbEntity
  8
ARQ_MUROS
100
AcDbLine
 10
3.075
 20
3.0
 30
0.0
 11
3.075
 21
6.5
 31
0.0
  0
LINE
  5
69
330
17
100
AcDbEntity
  8
ARQ_MUROS
100
AcDbLine
 10
2.925
 20
3.0
 30
0.0
 11
2.925
 21
10.0
 31
0.0
  0
LINE
  5
6A
330
17
100
AcDbEntity
  8
ARQ_MUROS
100
AcDbLine
 10
3.075
 20
3.0
 30
0.0
 11
3.075
 21
10.0
 31
0.0
  0
LINE
  5
6B
330
17
100
AcDbEntity
  8
ARQ_MUROS
100
AcDbLine
 10
0.0
 20
2.925
 30
0.0
 11
3.0
 21
2.925
 31
0.0
  0
LINE
  5
6C
330
17
100
AcDbEntity
  8
ARQ_MUROS
100
AcDbLine
 10
0.0
 20
3.075
 30
0.0
 11
3.0
 21
3.075
 31
0.0
  0
LINE
  5
6D
330
17
100
AcDbEntity
  8
ARQ_MUROS
100
AcDbLine
 10
-0.075
 20
3.0
 30
0.0
 11
-0.075
 21
6.5
 31
0.0
  0
LINE
  5
6E
330
17
100
AcDbEntity
  8
ARQ_MUROS
100
AcDbLine
 10
0.075
 20
3.0
 30
0.0
 11
0.075
 21
6.5
 31
0.0
  0
LINE
  5
6F
330
17
100
AcDbEntity
  8
ARQ_MUROS
100
AcDbLine
 10
3.0
 20
2.925
 30
0.0
 11
4.5
 21
2.925
 31
0.0
  0
LINE
  5
70
330
17
100
AcDbEntity
  8
ARQ_MUROS
100
AcDbLine
 10
3.0
 20
3.075
 30
0.0
 11
4.5
 21
3.075
 31
0.0
  0
LINE
  5
71
330
17
100
AcDbEntity
  8
ARQ_MUROS
100
AcDbLine
 10
0.0
 20
11.425
 30
0.0
 11
2.5
 21
11.425
 31
0.0
  0
LINE
  5
72
330
17
100
AcDbEntity
  8
ARQ_MUROS
100
AcDbLine
 10
0.0
 20
11.575
 30
0.0
 11
2.5
 21
11.575
 31
0.0
  0
LINE
  5
73
330
17
100
AcDbEntity
  8
ARQ_MUROS
100
AcDbLine
 10
4.425
 20
3.0
 30
0.0
 11
4.425
 21
10.0
 31
0.0
  0
LINE
  5
74
330
17
100
AcDbEntity
  8
ARQ_MUROS
100
AcDbLine
 10
4.575
 20
3.0
 30
0.0
 11
4.575
 21
10.0
 31
0.0
  0
LINE
  5
75
330
17
100
AcDbEntity
  8
ARQ_MUROS
100
AcDbLine
 10
-0.075
 20
6.5
 30
0.0
 11
-0.075
 21
10.0
 31
0.0
  0
LINE
  5
76
330
17
100
AcDbEntity
  8
ARQ_MUROS
100
AcDbLine
 10
0.075
 20
6.5
 30
0.0
 11
0.075
 21
10.0
 31
0.0
  0
LINE
  5
77
330
17
100
AcDbEntity
  8
ARQ_MUROS
100
AcDbLine
 10
0.0
 20
9.925
 30
0.0
 11
2.5
 21
9.925
 31
0.0
  0
LINE
  5
78
330
17
100
AcDbEntity
  8
ARQ_MUROS
100
AcDbLine
 10
0.0
 20
10.075
 30
0.0
 11
2.5
 21
10.075
 31
0.0
  0
LINE
  5
79
330
17
100
AcDbEntity
  8
ARQ_MUROS
100
AcDbLine
 10
0.0
 20
6.425
 30
0.0
 11
3.0
 21
6.425
 31
0.0
  0
LINE
  5
7A
330
17
100
AcDbEntity
  8
ARQ_MUROS
100
AcDbLine
 10
0.0
 20
6.575
 30
0.0
 11
3.0
 21
6.575
 31
0.0
  0
LINE
  5
7B
330
17
100
AcDbEntity
  8
ARQ_PUERTAS
100
AcDbLine
 10
3.0
 20
6.3
 30
0.0
 11
2.2
 21
6.3
 31
0.0
  0
ARC
  5
7C
330
17
100
AcDbEntity
  8
ARQ_PUERTAS
100
AcDbCircle
 10
3.0
 20
6.3
 30
0.0
 40
0.8
100
AcDbArc
 50
180.0
 51
-90.00000000000001
  0
LINE
  5
7D
330
17
100
AcDbEntity
  8
ARQ_PUERTAS
100
AcDbLine
 10
3.0
 20
9.8
 30
0.0
 11
2.2
 21
9.8
 31
0.0
  0
ARC
  5
7E
330
17
100
AcDbEntity
  8
ARQ_PUERTAS
100
AcDbCircle
 10
3.0
 20
9.8
 30
0.0
 40
0.8
100
AcDbArc
 50
180.0
 51
-90.00000000000001
  0
LINE
  5
7F
330
17
100
AcDbEntity
  8
ARQ_PUERTAS
100
AcDbLine
 10
0.3
 20
3.0
 30
0.0
 11
0.3
 21
3.9
 31
0.0
  0
ARC
  5
80
330
17
100
AcDbEntity
  8
ARQ_PUERTAS
100
AcDbCircle
 10
0.3
 20
3.0
 30
0.0
 40
0.9
100
AcDbArc
 50
0.0
 51
90.0
  0
LINE
  5
81
330
17
100
AcDbEntity
  8
ARQ_PUERTAS
100
AcDbLine
 10
3.3
 20
3.0
 30
0.0
 11
3.3
 21
3.9
 31
0.0
  0
ARC
  5
82
330
17
100
AcDbEntity
  8
ARQ_PUERTAS
100
AcDbCircle
 10
3.3
 20
3.0
 30
0.0
 40
0.9
100
AcDbArc
 50
0.0
 51
90.0
  0
LINE
  5
83
330
17
100
AcDbEntity
  8
ARQ_VENTANAS
100
AcDbLine
 10
1.5
 20
2.925
 30
0.0
 11
2.7
 21
2.925
 31
0.0
  0
LINE
  5
84
330
17
100
AcDbEntity
  8
ARQ_VENTANAS
100
AcDbLine
 10
2.7
 20
2.925
 30
0.0
 11
2.7
 21
3.075
 31
0.0
  0
LINE
  5
85
330
17
100
AcDbEntity
  8
ARQ_VENTANAS
100
AcDbLine
 10
2.7
 20
3.075
 30
0.0
 11
1.5
 21
3.075
 31
0.0
  0
LINE
  5
86
330
17
100
AcDbEntity
  8
ARQ_VENTANAS
100
AcDbLine
 10
1.5
 20
3.075
 30
0.0
 11
1.5
 21
2.925
 31
0.0
  0
LINE
  5
87
330
17
100
AcDbEntity
  8
ARQ_VENTANAS
100
AcDbLine
 10
1.5
 20
3.0
 30
0.0
 11
2.7
 21
3.0
 31
0.0
  0
LINE
  5
88
330
17
100
AcDbEntity
  8
ARQ_VENTANAS
100
AcDbLine
 10
-0.075
 20
4.75
 30
0.0
 11
0.075
 21
4.75
 31
0.0
  0
LINE
  5
89
330
17
100
AcDbEntity
  8
ARQ_VENTANAS
100
AcDbLine
 10
0.075
 20
4.75
 30
0.0
 11
0.075
 21
5.75
 31
0.0
  0
LINE
  5
8A
330
17
100
AcDbEntity
  8
ARQ_VENTANAS
100
AcDbLine
 10
0.075
 20
5.75
 30
0.0
 11
-0.075
 21
5.75
 31
0.0
  0
LINE
  5
8B
330
17
100
AcDbEntity
  8
ARQ_VENTANAS
100
AcDbLine
 10
-0.075
 20
5.75
 30
0.0
 11
-0.075
 21
4.75
 31
0.0
  0
LINE
  5
8C
330
17
100
AcDbEntity
  8
ARQ_VENTANAS
100
AcDbLine
 10
0.0
 20
4.75
 30
0.0
 11
0.0
 21
5.75
 31
0.0
  0
LINE
  5
8D
330
17
100
AcDbEntity
  8
ARQ_VENTANAS
100
AcDbLine
 10
-0.075
 20
8.25
 30
0.0
 11
0.075
 21
8.25
 31
0.0
  0
LINE
  5
8E
330
17
100
AcDbEntity
  8
ARQ_VENTANAS
100
AcDbLine
 10
0.075
 20
8.25
 30
0.0
 11
0.075
 21
9.25
 31
0.0
  0
LINE
  5
8F
330
17
100
AcDbEntity
  8
ARQ_VENTANAS
100
AcDbLine
 10
0.075
 20
9.25
 30
0.0
 11
-0.075
 21
9.25
 31
0.0
  0
LINE
  5
90
330
17
100
AcDbEntity
  8
ARQ_VENTANAS
100
AcDbLine
 10
-0.075
 20
9.25
 30
0.0
 11
-0.075
 21
8.25
 31
0.0
  0
LINE
  5
91
330
17
100
AcDbEntity
  8
ARQ_VENTANAS
100
AcDbLine
 10
0.0
 20
8.25
 30
0.0
 11
0.0
 21
9.25
 31
0.0
  0
LINE
  5
92
330
17
100
AcDbEntity
  8
ARQ_ESCALERAS
100
AcDbLine
 10
0.15
 20
10.0
 30
0.0
 11
0.15
 21
11.5
 31
0.0
  0
LINE
  5
93
330
17
100
AcDbEntity
  8
ARQ_ESCALERAS
100
AcDbLine
 10
2.5
 20
10.0
 30
0.0
 11
2.5
 21
11.5
 31
0.0
  0
LINE
  5
94
330
17
100
AcDbEntity
  8
ARQ_ESCALERAS
100
AcDbLine
 10
0.15
 20
10.0
 30
0.0
 11
2.5
 21
10.0
 31
0.0
  0
LINE
  5
95
330
17
100
AcDbEntity
  8
ARQ_ESCALERAS
100
AcDbLine
 10
0.15
 20
11.5
 30
0.0
 11
2.5
 21
11.5
 31
0.0
  0
LINE
  5
96
330
17
100
AcDbEntity
  8
ARQ_ESCALERAS
100
AcDbLine
 10
0.15
 20
10.1875
 30
0.0
 11
2.5
 21
10.1875
 31
0.0
  0
LINE
  5
97
330
17
100
AcDbEntity
  8
ARQ_ESCALERAS
100
AcDbLine
 10
0.15
 20
10.375
 30
0.0
 11
2.5
 21
10.375
 31
0.0
  0
LINE
  5
98
330
17
100
AcDbEntity
  8
ARQ_ESCALERAS
100
AcDbLine
 10
0.15
 20
10.5625
 30
0.0
 11
2.5
 21
10.5625
 31
0.0
  0
LINE
  5
99
330
17
100
AcDbEntity
  8
ARQ_ESCALERAS
100
AcDbLine
 10
0.15
 20
10.75
 30
0.0
 11
2.5
 21
10.75
 31
0.0
  0
LINE
  5
9A
330
17
100
AcDbEntity
  8
ARQ_ESCALERAS
100
AcDbLine
 10
0.15
 20
10.9375
 30
0.0
 11
2.5
 21
10.9375
 31
0.0
  0
LINE
  5
9B
330
17
100
AcDbEntity
  8
ARQ_ESCALERAS
100
AcDbLine
 10
0.15
 20
11.125
 30
0.0
 11
2.5
 21
11.125
 31
0.0
  0
LINE
  5
9C
330
17
100
AcDbEntity
  8
ARQ_ESCALERAS
100
AcDbLine
 10
0.15
 20
11.3125
 30
0.0
 11
2.5
 21
11.3125
 31
0.0
  0
TEXT
  5
9D
330
17
100
AcDbEntity
  8
ARQ_TEXTOS
100
AcDbText
 10
1.5
 20
4.75
 30
0.0
 40
0.16
  1
Tienda
 72
1
 11
1.5
 21
4.75
 31
0.0
100
AcDbText
 73
2
  0
TEXT
  5
9E
330
17
100
AcDbEntity
  8
ARQ_TEXTOS
100
AcDbText
 10
1.5
 20
8.25
 30
0.0
 40
0.16
  1
Cocina
 72
1
 11
1.5
 21
8.25
 31
0.0
100
AcDbText
 73
2
  0
TEXT
  5
9F
330
17
100
AcDbEntity
  8
ARQ_TEXTOS
100
AcDbText
 10
3.75
 20
6.5
 30
0.0
 40
0.16
  1
Pasadizo
 72
1
 11
3.75
 21
6.5
 31
0.0
100
AcDbText
 73
2
  0
TEXT
  5
A0
330
17
100
AcDbEntity
  8
ARQ_TEXTOS
100
AcDbText
 10
1.25
 20
10.75
 30
0.0
 40
0.16
  1
Escalera
 72
1
 11
1.25
 21
10.75
 31
0.0
100
AcDbText
 73
2
  0
CIRCLE
  5
A1
330
17
100
AcDbEntity
  8
ELEC_LUMINARIAS
420
14449945
100
AcDbCircle
 10
1.0
 20
4.35
 30
0.0
 40
0.1
  0
LINE
  5
A2
330
17
100
AcDbEntity
  8
ELEC_LUMINARIAS
420
14449945
100
AcDbLine
 10
1.0
 20
4.449999999999999
 30
0.0
 11
1.0
 21
4.529999999999999
 31
0.0
  0
LINE
  5
A3
330
17
100
AcDbEntity
  8
ELEC_LUMINARIAS
420
14449945
100
AcDbLine
 10
1.0
 20
4.25
 30
0.0
 11
1.0
 21
4.17
 31
0.0
  0
LINE
  5
A4
330
17
100
AcDbEntity
  8
ELEC_LUMINARIAS
420
14449945
100
AcDbLine
 10
1.1
 20
4.35
 30
0.0
 11
1.18
 21
4.35
 31
0.0
  0
LINE
  5
A5
330
17
100
AcDbEntity
  8
ELEC_LUMINARIAS
420
14449945
100
AcDbLine
 10
0.9
 20
4.35
 30
0.0
 11
0.8200000000000001
 21
4.35
 31
0.0
  0
CIRCLE
  5
A6
330
17
100
AcDbEntity
  8
ELEC_LUMINARIAS
420
14449945
100
AcDbCircle
 10
1.0
 20
4.35
 30
0.0
 40
0.02
  0
TEXT
  5
A7
330
17
100
AcDbEntity
  8
ELEC_TEXTOS
100
AcDbText
 10
1.28
 20
4.529999999999999
 30
0.0
 40
0.12
  1
C1
 72
1
 11
1.28
 21
4.529999999999999
 31
0.0
100
AcDbText
 73
2
  0
CIRCLE
  5
A8
330
17
100
AcDbEntity
  8
ELEC_LUMINARIAS
420
14449945
100
AcDbCircle
 10
2.15
 20
5.55
 30
0.0
 40
0.1
  0
LINE
  5
A9
330
17
100
AcDbEntity
  8
ELEC_LUMINARIAS
420
14449945
100
AcDbLine
 10
2.15
 20
5.6499999999999995
 30
0.0
 11
2.15
 21
5.7299999999999995
 31
0.0
  0
LINE
  5
AA
330
17
100
AcDbEntity
  8
ELEC_LUMINARIAS
420
14449945
100
AcDbLine
 10
2.15
 20
5.45
 30
0.0
 11
2.15
 21
5.37
 31
0.0
  0
LINE
  5
AB
330
17
100
AcDbEntity
  8
ELEC_LUMINARIAS
420
14449945
100
AcDbLine
 10
2.25
 20
5.55
 30
0.0
 11
2.33
 21
5.55
 31
0.0
  0
LINE
  5
AC
330
17
100
AcDbEntity
  8
ELEC_LUMINARIAS
420
14449945
100
AcDbLine
 10
2.05
 20
5.55
 30
0.0
 11
1.97
 21
5.55
 31
0.0
  0
CIRCLE
  5
AD
330
17
100
AcDbEntity
  8
ELEC_LUMINARIAS
420
14449945
100
AcDbCircle
 10
2.15
 20
5.55
 30
0.0
 40
0.02
  0
TEXT
  5
AE
330
17
100
AcDbEntity
  8
ELEC_TEXTOS
100
AcDbText
 10
2.4299999999999997
 20
5.7299999999999995
 30
0.0
 40
0.12
  1
C1
 72
1
 11
2.4299999999999997
 21
5.7299999999999995
 31
0.0
100
AcDbText
 73
2
  0
CIRCLE
  5
AF
330
17
100
AcDbEntity
  8
ELEC_LUMINARIAS
420
14449945
100
AcDbCircle
 10
1.0
 20
7.75
 30
0.0
 40
0.1
  0
LINE
  5
B0
330
17
100
AcDbEntity
  8
ELEC_LUMINARIAS
420
14449945
100
AcDbLine
 10
1.0
 20
7.85
 30
0.0
 11
1.0
 21
7.93
 31
0.0
  0
LINE
  5
B1
330
17
100
AcDbEntity
  8
ELEC_LUMINARIAS
420
14449945
100
AcDbLine
 10
1.0
 20
7.65
 30
0.0
 11
1.0
 21
7.57
 31
0.0
  0
LINE
  5
B2
330
17
100
AcDbEntity
  8
ELEC_LUMINARIAS
420
14449945
100
AcDbLine
 10
1.1
 20
7.75
 30
0.0
 11
1.18
 21
7.75
 31
0.0
  0
LINE
  5
B3
330
17
100
AcDbEntity
  8
ELEC_LUMINARIAS
420
14449945
100
AcDbLine
 10
0.9
 20
7.75
 30
0.0
 11
0.8200000000000001
 21
7.75
 31
0.0
  0
CIRCLE
  5
B4
330
17
100
AcDbEntity
  8
ELEC_LUMINARIAS
420
14449945
100
AcDbCircle
 10
1.0
 20
7.75
 30
0.0
 40
0.02
  0
TEXT
  5
B5
330
17
100
AcDbEntity
  8
ELEC_TEXTOS
100
AcDbText
 10
1.28
 20
7.93
 30
0.0
 40
0.12
  1
C1
 72
1
 11
1.28
 21
7.93
 31
0.0
100
AcDbText
 73
2
  0
CIRCLE
  5
B6
330
17
100
AcDbEntity
  8
ELEC_LUMINARIAS
420
14449945
100
AcDbCircle
 10
2.15
 20
9.05
 30
0.0
 40
0.1
  0
LINE
  5
B7
330
17
100
AcDbEntity
  8
ELEC_LUMINARIAS
420
14449945
100
AcDbLine
 10
2.15
 20
9.15
 30
0.0
 11
2.15
 21
9.23
 31
0.0
  0
LINE
  5
B8
330
17
100
AcDbEntity
  8
ELEC_LUMINARIAS
420
14449945
100
AcDbLine
 10
2.15
 20
8.950000000000001
 30
0.0
 11
2.15
 21
8.870000000000001
 31
0.0
  0
LINE
  5
B9
330
17
100
AcDbEntity
  8
ELEC_LUMINARIAS
420
14449945
100
AcDbLine
 10
2.25
 20
9.05
 30
0.0
 11
2.33
 21
9.05
 31
0.0
  0
LINE
  5
BA
330
17
100
AcDbEntity
  8
ELEC_LUMINARIAS
420
14449945
100
AcDbLine
 10
2.05
 20
9.05
 30
0.0
 11
1.97
 21
9.05
 31
0.0
  0
CIRCLE
  5
BB
330
17
100
AcDbEntity
  8
ELEC_LUMINARIAS
420
14449945
100
AcDbCircle
 10
2.15
 20
9.05
 30
0.0
 40
0.02
  0
TEXT
  5
BC
330
17
100
AcDbEntity
  8
ELEC_TEXTOS
100
AcDbText
 10
2.4299999999999997
 20
9.23
 30
0.0
 40
0.12
  1
C1
 72
1
 11
2.4299999999999997
 21
9.23
 31
0.0
100
AcDbText
 73
2
  0
CIRCLE
  5
BD
330
17
100
AcDbEntity
  8
ELEC_LUMINARIAS
420
14449945
100
AcDbCircle
 10
3.75
 20
6.45
 30
0.0
 40
0.1
  0
LINE
  5
BE
330
17
100
AcDbEntity
  8
ELEC_LUMINARIAS
420
14449945
100
AcDbLine
 10
3.75
 20
6.55
 30
0.0
 11
3.75
 21
6.63
 31
0.0
  0
LINE
  5
BF
330
17
100
AcDbEntity
  8
ELEC_LUMINARIAS
420
14449945
100
AcDbLine
 10
3.75
 20
6.3500000000000005
 30
0.0
 11
3.75
 21
6.2700000000000005
 31
0.0
  0
LINE
  5
C0
330
17
100
AcDbEntity
  8
ELEC_LUMINARIAS
420
14449945
100
AcDbLine
 10
3.85
 20
6.45
 30
0.0
 11
3.93
 21
6.45
 31
0.0
  0
LINE
  5
C1
330
17
100
AcDbEntity
  8
ELEC_LUMINARIAS
420
14449945
100
AcDbLine
 10
3.65
 20
6.45
 30
0.0
 11
3.57
 21
6.45
 31
0.0
  0
CIRCLE
  5
C2
330
17
100
AcDbEntity
  8
ELEC_LUMINARIAS
420
14449945
100
AcDbCircle
 10
3.75
 20
6.45
 30
0.0
 40
0.02
  0
TEXT
  5
C3
330
17
100
AcDbEntity
  8
ELEC_TEXTOS
100
AcDbText
 10
4.03
 20
6.63
 30
0.0
 40
0.12
  1
C1
 72
1
 11
4.03
 21
6.63
 31
0.0
100
AcDbText
 73
2
  0
CIRCLE
  5
C4
330
17
100
AcDbEntity
  8
ELEC_LUMINARIAS
420
14449945
100
AcDbCircle
 10
1.25
 20
10.75
 30
0.0
 40
0.1
  0
LINE
  5
C5
330
17
100
AcDbEntity
  8
ELEC_LUMINARIAS
420
14449945
100
AcDbLine
 10
1.25
 20
10.85
 30
0.0
 11
1.25
 21
10.93
 31
0.0
  0
LINE
  5
C6
330
17
100
AcDbEntity
  8
ELEC_LUMINARIAS
420
14449945
100
AcDbLine
 10
1.25
 20
10.65
 30
0.0
 11
1.25
 21
10.57
 31
0.0
  0
LINE
  5
C7
330
17
100
AcDbEntity
  8
ELEC_LUMINARIAS
420
14449945
100
AcDbLine
 10
1.35
 20
10.75
 30
0.0
 11
1.43
 21
10.75
 31
0.0
  0
LINE
  5
C8
330
17
100
AcDbEntity
  8
ELEC_LUMINARIAS
420
14449945
100
AcDbLine
 10
1.15
 20
10.75
 30
0.0
 11
1.07
 21
10.75
 31
0.0
  0
CIRCLE
  5
C9
330
17
100
AcDbEntity
  8
ELEC_LUMINARIAS
420
14449945
100
AcDbCircle
 10
1.25
 20
10.75
 30
0.0
 40
0.02
  0
TEXT
  5
CA
330
17
100
AcDbEntity
  8
ELEC_TEXTOS
100
AcDbText
 10
1.53
 20
10.93
 30
0.0
 40
0.12
  1
C1
 72
1
 11
1.53
 21
10.93
 31
0.0
100
AcDbText
 73
2
  0
CIRCLE
  5
CB
330
17
100
AcDbEntity
  8
ELEC_INTERRUPTORES
420
14449945
100
AcDbCircle
 10
2.75
 20
5.55
 30
0.0
 40
0.09
  0
LINE
  5
CC
330
17
100
AcDbEntity
  8
ELEC_INTERRUPTORES
420
14449945
100
AcDbLine
 10
2.81
 20
5.609999999999999
 30
0.0
 11
2.93
 21
5.7299999999999995
 31
0.0
  0
TEXT
  5
CD
330
17
100
AcDbEntity
  8
ELEC_INTERRUPTORES
100
AcDbText
 10
2.7
 20
5.31
 30
0.0
 40
0.13
  1
S
 11
2.7
 21
5.31
 31
0.0
100
AcDbText
 73
2
  0
CIRCLE
  5
CE
330
17
100
AcDbEntity
  8
ELEC_INTERRUPTORES
420
14449945
100
AcDbCircle
 10
2.75
 20
9.05
 30
0.0
 40
0.09
  0
LINE
  5
CF
330
17
100
AcDbEntity
  8
ELEC_INTERRUPTORES
420
14449945
100
AcDbLine
 10
2.81
 20
9.110000000000001
 30
0.0
 11
2.93
 21
9.23
 31
0.0
  0
TEXT
  5
D0
330
17
100
AcDbEntity
  8
ELEC_INTERRUPTORES
100
AcDbText
 10
2.7
 20
8.81
 30
0.0
 40
0.13
  1
S
 11
2.7
 21
8.81
 31
0.0
100
AcDbText
 73
2
  0
CIRCLE
  5
D1
330
17
100
AcDbEntity
  8
ELEC_INTERRUPTORES
420
14449945
100
AcDbCircle
 10
3.45
 20
3.45
 30
0.0
 40
0.09
  0
LINE
  5
D2
330
17
100
AcDbEntity
  8
ELEC_INTERRUPTORES
420
14449945
100
AcDbLine
 10
3.5100000000000002
 20
3.5100000000000002
 30
0.0
 11
3.6300000000000003
 21
3.6300000000000003
 31
0.0
  0
TEXT
  5
D3
330
17
100
AcDbEntity
  8
ELEC_INTERRUPTORES
100
AcDbText
 10
3.4000000000000004
 20
3.21
 30
0.0
 40
0.13
  1
S3
 11
3.4000000000000004
 21
3.21
 31
0.0
100
AcDbText
 73
2
  0
CIRCLE
  5
D4
330
17
100
AcDbEntity
  8
ELEC_INTERRUPTORES
420
14449945
100
AcDbCircle
 10
2.15
 20
10.25
 30
0.0
 40
0.09
  0
LINE
  5
D5
330
17
100
AcDbEntity
  8
ELEC_INTERRUPTORES
420
14449945
100
AcDbLine
 10
2.21
 20
10.31
 30
0.0
 11
2.33
 21
10.43
 31
0.0
  0
TEXT
  5
D6
330
17
100
AcDbEntity
  8
ELEC_INTERRUPTORES
100
AcDbText
 10
2.1
 20
10.01
 30
0.0
 40
0.13
  1
S3
 11
2.1
 21
10.01
 31
0.0
100
AcDbText
 73
2
  0
CIRCLE
  5
D7
330
17
100
AcDbEntity
  8
ELEC_TOMACORRIENTES
420
2315700
100
AcDbCircle
 10
1.5
 20
3.55
 30
0.0
 40
0.13
  0
LINE
  5
D8
330
17
100
AcDbEntity
  8
ELEC_TOMACORRIENTES
420
2315700
100
AcDbLine
 10
1.41
 20
3.51
 30
0.0
 11
1.59
 21
3.51
 31
0.0
  0
LINE
  5
D9
330
17
100
AcDbEntity
  8
ELEC_TOMACORRIENTES
420
2315700
100
AcDbLine
 10
1.41
 20
3.59
 30
0.0
 11
1.59
 21
3.59
 31
0.0
  0
TEXT
  5
DA
330
17
100
AcDbEntity
  8
ELEC_TOMACORRIENTES
100
AcDbText
 10
1.72
 20
3.4
 30
0.0
 40
0.14
  1
T
 11
1.72
 21
3.4
 31
0.0
100
AcDbText
 73
2
  0
TEXT
  5
DB
330
17
100
AcDbEntity
  8
ELEC_TEXTOS
100
AcDbText
 10
1.75
 20
3.3299999999999996
 30
0.0
 40
0.12
  1
C2
 72
1
 11
1.75
 21
3.3299999999999996
 31
0.0
100
AcDbText
 73
2
  0
CIRCLE
  5
DC
330
17
100
AcDbEntity
  8
ELEC_TOMACORRIENTES
420
2315700
100
AcDbCircle
 10
0.55
 20
4.75
 30
0.0
 40
0.13
  0
LINE
  5
DD
330
17
100
AcDbEntity
  8
ELEC_TOMACORRIENTES
420
2315700
100
AcDbLine
 10
0.4600000000000001
 20
4.71
 30
0.0
 11
0.64
 21
4.71
 31
0.0
  0
LINE
  5
DE
330
17
100
AcDbEntity
  8
ELEC_TOMACORRIENTES
420
2315700
100
AcDbLine
 10
0.4600000000000001
 20
4.79
 30
0.0
 11
0.64
 21
4.79
 31
0.0
  0
TEXT
  5
DF
330
17
100
AcDbEntity
  8
ELEC_TOMACORRIENTES
100
AcDbText
 10
0.77
 20
4.6
 30
0.0
 40
0.14
  1
T
 11
0.77
 21
4.6
 31
0.0
100
AcDbText
 73
2
  0
TEXT
  5
E0
330
17
100
AcDbEntity
  8
ELEC_TEXTOS
100
AcDbText
 10
0.8
 20
4.53
 30
0.0
 40
0.12
  1
C2
 72
1
 11
0.8
 21
4.53
 31
0.0
100
AcDbText
 73
2
  0
CIRCLE
  5
E1
330
17
100
AcDbEntity
  8
ELEC_TOMACORRIENTES
420
2315700
100
AcDbCircle
 10
2.45
 20
4.75
 30
0.0
 40
0.13
  0
LINE
  5
E2
330
17
100
AcDbEntity
  8
ELEC_TOMACORRIENTES
420
2315700
100
AcDbLine
 10
2.3600000000000003
 20
4.71
 30
0.0
 11
2.54
 21
4.71
 31
0.0
  0
LINE
  5
E3
330
17
100
AcDbEntity
  8
ELEC_TOMACORRIENTES
420
2315700
100
AcDbLine
 10
2.3600000000000003
 20
4.79
 30
0.0
 11
2.54
 21
4.79
 31
0.0
  0
TEXT
  5
E4
330
17
100
AcDbEntity
  8
ELEC_TOMACORRIENTES
100
AcDbText
 10
2.6700000000000004
 20
4.6
 30
0.0
 40
0.14
  1
T
 11
2.6700000000000004
 21
4.6
 31
0.0
100
AcDbText
 73
2
  0
TEXT
  5
E5
330
17
100
AcDbEntity
  8
ELEC_TEXTOS
100
AcDbText
 10
2.7
 20
4.53
 30
0.0
 40
0.12
  1
C2
 72
1
 11
2.7
 21
4.53
 31
0.0
100
AcDbText
 73
2
  0
CIRCLE
  5
E6
330
17
100
AcDbEntity
  8
ELEC_TOMACORRIENTES
420
2315700
100
AcDbCircle
 10
1.5
 20
6.05
 30
0.0
 40
0.13
  0
LINE
  5
E7
330
17
100
AcDbEntity
  8
ELEC_TOMACORRIENTES
420
2315700
100
AcDbLine
 10
1.41
 20
6.01
 30
0.0
 11
1.59
 21
6.01
 31
0.0
  0
LINE
  5
E8
330
17
100
AcDbEntity
  8
ELEC_TOMACORRIENTES
420
2315700
100
AcDbLine
 10
1.41
 20
6.09
 30
0.0
 11
1.59
 21
6.09
 31
0.0
  0
TEXT
  5
E9
330
17
100
AcDbEntity
  8
ELEC_TOMACORRIENTES
100
AcDbText
 10
1.72
 20
5.8999999999999995
 30
0.0
 40
0.14
  1
T
 11
1.72
 21
5.8999999999999995
 31
0.0
100
AcDbText
 73
2
  0
TEXT
  5
EA
330
17
100
AcDbEntity
  8
ELEC_TEXTOS
100
AcDbText
 10
1.75
 20
5.83
 30
0.0
 40
0.12
  1
C2
 72
1
 11
1.75
 21
5.83
 31
0.0
100
AcDbText
 73
2
  0
CIRCLE
  5
EB
330
17
100
AcDbEntity
  8
ELEC_TOMACORRIENTES
420
2315700
100
AcDbCircle
 10
4.2
 20
6.5
 30
0.0
 40
0.13
  0
LINE
  5
EC
330
17
100
AcDbEntity
  8
ELEC_TOMACORRIENTES
420
2315700
100
AcDbLine
 10
4.11
 20
6.46
 30
0.0
 11
4.29
 21
6.46
 31
0.0
  0
LINE
  5
ED
330
17
100
AcDbEntity
  8
ELEC_TOMACORRIENTES
420
2315700
100
AcDbLine
 10
4.11
 20
6.54
 30
0.0
 11
4.29
 21
6.54
 31
0.0
  0
TEXT
  5
EE
330
17
100
AcDbEntity
  8
ELEC_TOMACORRIENTES
100
AcDbText
 10
4.42
 20
6.35
 30
0.0
 40
0.14
  1
T
 11
4.42
 21
6.35
 31
0.0
100
AcDbText
 73
2
  0
TEXT
  5
EF
330
17
100
AcDbEntity
  8
ELEC_TEXTOS
100
AcDbText
 10
4.45
 20
6.28
 30
0.0
 40
0.12
  1
C2
 72
1
 11
4.45
 21
6.28
 31
0.0
100
AcDbText
 73
2
  0
CIRCLE
  5
F0
330
17
100
AcDbEntity
  8
ELEC_TOMACORRIENTES
420
13114910
100
AcDbCircle
 10
1.5
 20
7.0
 30
0.0
 40
0.13
  0
LINE
  5
F1
330
17
100
AcDbEntity
  8
ELEC_TOMACORRIENTES
420
13114910
100
AcDbLine
 10
1.41
 20
6.95
 30
0.0
 11
1.59
 21
6.95
 31
0.0
  0
LINE
  5
F2
330
17
100
AcDbEntity
  8
ELEC_TOMACORRIENTES
420
13114910
100
AcDbLine
 10
1.41
 20
7.0
 30
0.0
 11
1.59
 21
7.0
 31
0.0
  0
LINE
  5
F3
330
17
100
AcDbEntity
  8
ELEC_TOMACORRIENTES
420
13114910
100
AcDbLine
 10
1.41
 20
7.05
 30
0.0
 11
1.59
 21
7.05
 31
0.0
  0
TEXT
  5
F4
330
17
100
AcDbEntity
  8
ELEC_TOMACORRIENTES
100
AcDbText
 10
1.72
 20
6.85
 30
0.0
 40
0.14
  1
C
 11
1.72
 21
6.85
 31
0.0
100
AcDbText
 73
2
  0
TEXT
  5
F5
330
17
100
AcDbEntity
  8
ELEC_TEXTOS
100
AcDbText
 10
1.75
 20
6.78
 30
0.0
 40
0.12
  1
C3
 72
1
 11
1.75
 21
6.78
 31
0.0
100
AcDbText
 73
2
  0
CIRCLE
  5
F6
330
17
100
AcDbEntity
  8
ELEC_TOMACORRIENTES
420
13114910
100
AcDbCircle
 10
0.55
 20
8.25
 30
0.0
 40
0.13
  0
LINE
  5
F7
330
17
100
AcDbEntity
  8
ELEC_TOMACORRIENTES
420
13114910
100
AcDbLine
 10
0.4600000000000001
 20
8.2
 30
0.0
 11
0.64
 21
8.2
 31
0.0
  0
LINE
  5
F8
330
17
100
AcDbEntity
  8
ELEC_TOMACORRIENTES
420
13114910
100
AcDbLine
 10
0.4600000000000001
 20
8.25
 30
0.0
 11
0.64
 21
8.25
 31
0.0
  0
LINE
  5
F9
330
17
100
AcDbEntity
  8
ELEC_TOMACORRIENTES
420
13114910
100
AcDbLine
 10
0.4600000000000001
 20
8.3
 30
0.0
 11
0.64
 21
8.3
 31
0.0
  0
TEXT
  5
FA
330
17
100
AcDbEntity
  8
ELEC_TOMACORRIENTES
100
AcDbText
 10
0.77
 20
8.1
 30
0.0
 40
0.14
  1
C
 11
0.77
 21
8.1
 31
0.0
100
AcDbText
 73
2
  0
TEXT
  5
FB
330
17
100
AcDbEntity
  8
ELEC_TEXTOS
100
AcDbText
 10
0.8
 20
8.03
 30
0.0
 40
0.12
  1
C3
 72
1
 11
0.8
 21
8.03
 31
0.0
100
AcDbText
 73
2
  0
CIRCLE
  5
FC
330
17
100
AcDbEntity
  8
ELEC_TOMACORRIENTES
420
13114910
100
AcDbCircle
 10
2.45
 20
8.25
 30
0.0
 40
0.13
  0
LINE
  5
FD
330
17
100
AcDbEntity
  8
ELEC_TOMACORRIENTES
420
13114910
100
AcDbLine
 10
2.3600000000000003
 20
8.2
 30
0.0
 11
2.54
 21
8.2
 31
0.0
  0
LINE
  5
FE
330
17
100
AcDbEntity
  8
ELEC_TOMACORRIENTES
420
13114910
100
AcDbLine
 10
2.3600000000000003
 20
8.25
 30
0.0
 11
2.54
 21
8.25
 31
0.0
  0
LINE
  5
FF
330
17
100
AcDbEntity
  8
ELEC_TOMACORRIENTES
420
13114910
100
AcDbLine
 10
2.3600000000000003
 20
8.3
 30
0.0
 11
2.54
 21
8.3
 31
0.0
  0
TEXT
  5
100
330
17
100
AcDbEntity
  8
ELEC_TOMACORRIENTES
100
AcDbText
 10
2.6700000000000004
 20
8.1
 30
0.0
 40
0.14
  1
C
 11
2.6700000000000004
 21
8.1
 31
0.0
100
AcDbText
 73
2
  0
TEXT
  5
101
330
17
100
AcDbEntity
  8
ELEC_TEXTOS
100
AcDbText
 10
2.7
 20
8.03
 30
0.0
 40
0.12
  1
C3
 72
1
 11
2.7
 21
8.03
 31
0.0
100
AcDbText
 73
2
  0
CIRCLE
  5
102
330
17
100
AcDbEntity
  8
ELEC_TOMACORRIENTES
420
13114910
100
AcDbCircle
 10
1.5
 20
9.65
 30
0.0
 40
0.13
  0
LINE
  5
103
330
17
100
AcDbEntity
  8
ELEC_TOMACORRIENTES
420
13114910
100
AcDbLine
 10
1.41
 20
9.6
 30
0.0
 11
1.59
 21
9.6
 31
0.0
  0
LINE
  5
104
330
17
100
AcDbEntity
  8
ELEC_TOMACORRIENTES
420
13114910
100
AcDbLine
 10
1.41
 20
9.65
 30
0.0
 11
1.59
 21
9.65
 31
0.0
  0
LINE
  5
105
330
17
100
AcDbEntity
  8
ELEC_TOMACORRIENTES
420
13114910
100
AcDbLine
 10
1.41
 20
9.700000000000001
 30
0.0
 11
1.59
 21
9.700000000000001
 31
0.0
  0
TEXT
  5
106
330
17
100
AcDbEntity
  8
ELEC_TOMACORRIENTES
100
AcDbText
 10
1.72
 20
9.5
 30
0.0
 40
0.14
  1
C
 11
1.72
 21
9.5
 31
0.0
100
AcDbText
 73
2
  0
TEXT
  5
107
330
17
100
AcDbEntity
  8
ELEC_TEXTOS
100
AcDbText
 10
1.75
 20
9.43
 30
0.0
 40
0.12
  1
C3
 72
1
 11
1.75
 21
9.43
 31
0.0
100
AcDbText
 73
2
  0
LINE
  5
108
330
17
100
AcDbEntity
  8
ELEC_TABLEROS
420
13114910
100
AcDbLine
 10
3.6
 20
3.4
 30
0.0
 11
4.1
 21
3.4
 31
0.0
  0
LINE
  5
109
330
17
100
AcDbEntity
  8
ELEC_TABLEROS
420
13114910
100
AcDbLine
 10
4.1
 20
3.4
 30
0.0
 11
4.1
 21
3.6999999999999997
 31
0.0
  0
LINE
  5
10A
330
17
100
AcDbEntity
  8
ELEC_TABLEROS
420
13114910
100
AcDbLine
 10
4.1
 20
3.6999999999999997
 30
0.0
 11
3.6
 21
3.6999999999999997
 31
0.0
  0
LINE
  5
10B
330
17
100
AcDbEntity
  8
ELEC_TABLEROS
420
13114910
100
AcDbLine
 10
3.6
 20
3.6999999999999997
 30
0.0
 11
3.6
 21
3.4
 31
0.0
  0
LINE
  5
10C
330
17
100
AcDbEntity
  8
ELEC_TABLEROS
420
13114910
100
AcDbLine
 10
3.6
 20
3.4
 30
0.0
 11
4.1
 21
3.6999999999999997
 31
0.0
  0
LINE
  5
10D
330
17
100
AcDbEntity
  8
ELEC_TABLEROS
420
13114910
100
AcDbLine
 10
3.6
 20
3.4
 30
0.0
 11
4.1
 21
3.4
 31
0.0
  0
LINE
  5
10E
330
17
100
AcDbEntity
  8
ELEC_TABLEROS
420
13114910
100
AcDbLine
 10
4.1
 20
3.4
 30
0.0
 11
4.1
 21
3.6999999999999997
 31
0.0
  0
LINE
  5
10F
330
17
100
AcDbEntity
  8
ELEC_TABLEROS
420
13114910
100
AcDbLine
 10
3.7
 20
3.4
 30
0.0
 11
4.1
 21
3.6399999999999997
 31
0.0
  0
LINE
  5
110
330
17
100
AcDbEntity
  8
ELEC_TABLEROS
420
13114910
100
AcDbLine
 10
3.8000000000000003
 20
3.4
 30
0.0
 11
4.1
 21
3.5799999999999996
 31
0.0
  0
LINE
  5
111
330
17
100
AcDbEntity
  8
ELEC_TABLEROS
420
13114910
100
AcDbLine
 10
3.9
 20
3.4
 30
0.0
 11
4.1
 21
3.52
 31
0.0
  0
LINE
  5
112
330
17
100
AcDbEntity
  8
ELEC_TABLEROS
420
13114910
100
AcDbLine
 10
4.0
 20
3.4
 30
0.0
 11
4.1
 21
3.46
 31
0.0
  0
TEXT
  5
113
330
17
100
AcDbEntity
  8
ELEC_TABLEROS
100
AcDbText
 10
3.85
 20
3.21
 30
0.0
 40
0.12
  1
TG-01
 72
1
 11
3.85
 21
3.21
 31
0.0
100
AcDbText
 73
2
  0
CIRCLE
  5
114
330
17
100
AcDbEntity
  8
ELEC_MEDIDOR
420
1999430
100
AcDbCircle
 10
4.25
 20
3.2
 30
0.0
 40
0.18
  0
TEXT
  5
115
330
17
100
AcDbEntity
  8
ELEC_MEDIDOR
100
AcDbText
 10
4.25
 20
3.2
 30
0.0
 40
0.14
  1
M
 72
1
 11
4.25
 21
3.2
 31
0.0
100
AcDbText
 73
2
  0
LINE
  5
116
330
17
100
AcDbEntity
  8
ELEC_PUESTA_TIERRA
420
1999430
100
AcDbLine
 10
4.1
 20
11.0
 30
0.0
 11
4.1
 21
10.82
 31
0.0
  0
LINE
  5
117
330
17
100
AcDbEntity
  8
ELEC_PUESTA_TIERRA
420
1999430
100
AcDbLine
 10
3.9399999999999995
 20
10.82
 30
0.0
 11
4.26
 21
10.82
 31
0.0
  0
LINE
  5
118
330
17
100
AcDbEntity
  8
ELEC_PUESTA_TIERRA
420
1999430
100
AcDbLine
 10
3.9899999999999998
 20
10.75
 30
0.0
 11
4.21
 21
10.75
 31
0.0
  0
LINE
  5
119
330
17
100
AcDbEntity
  8
ELEC_PUESTA_TIERRA
420
1999430
100
AcDbLine
 10
4.04
 20
10.68
 30
0.0
 11
4.159999999999999
 21
10.68
 31
0.0
  0
LINE
  5
11A
330
17
100
AcDbEntity
  8
ELEC_CIRCUITO_C1
  6
DASHED
420
14449945
100
AcDbLine
 10
3.85
 20
3.55
 30
0.0
 11
3.85
 21
6.45
 31
0.0
  0
LINE
  5
11B
330
17
100
AcDbEntity
  8
ELEC_CIRCUITO_C1
  6
DASHED
420
14449945
100
AcDbLine
 10
3.85
 20
6.45
 30
0.0
 11
3.75
 21
6.45
 31
0.0
  0
LINE
  5
11C
330
17
100
AcDbEntity
  8
ELEC_CIRCUITO_C1
  6
DASHED
420
14449945
100
AcDbLine
 10
3.75
 20
6.45
 30
0.0
 11
3.75
 21
5.55
 31
0.0
  0
LINE
  5
11D
330
17
100
AcDbEntity
  8
ELEC_CIRCUITO_C1
  6
DASHED
420
14449945
100
AcDbLine
 10
3.75
 20
5.55
 30
0.0
 11
2.15
 21
5.55
 31
0.0
  0
LINE
  5
11E
330
17
100
AcDbEntity
  8
ELEC_CIRCUITO_C1
  6
DASHED
420
14449945
100
AcDbLine
 10
2.15
 20
5.55
 30
0.0
 11
2.15
 21
4.35
 31
0.0
  0
LINE
  5
11F
330
17
100
AcDbEntity
  8
ELEC_CIRCUITO_C1
  6
DASHED
420
14449945
100
AcDbLine
 10
2.15
 20
4.35
 30
0.0
 11
1.0
 21
4.35
 31
0.0
  0
LINE
  5
120
330
17
100
AcDbEntity
  8
ELEC_CIRCUITO_C1
  6
DASHED
420
14449945
100
AcDbLine
 10
1.0
 20
4.35
 30
0.0
 11
1.0
 21
5.55
 31
0.0
  0
LINE
  5
121
330
17
100
AcDbEntity
  8
ELEC_CIRCUITO_C1
  6
DASHED
420
14449945
100
AcDbLine
 10
1.0
 20
5.55
 30
0.0
 11
2.15
 21
5.55
 31
0.0
  0
LINE
  5
122
330
17
100
AcDbEntity
  8
ELEC_CIRCUITO_C1
  6
DASHED
420
14449945
100
AcDbLine
 10
2.15
 20
5.55
 30
0.0
 11
2.15
 21
9.05
 31
0.0
  0
LINE
  5
123
330
17
100
AcDbEntity
  8
ELEC_CIRCUITO_C1
  6
DASHED
420
14449945
100
AcDbLine
 10
2.15
 20
9.05
 30
0.0
 11
1.25
 21
9.05
 31
0.0
  0
LINE
  5
124
330
17
100
AcDbEntity
  8
ELEC_CIRCUITO_C1
  6
DASHED
420
14449945
100
AcDbLine
 10
1.25
 20
9.05
 30
0.0
 11
1.25
 21
10.75
 31
0.0
  0
TEXT
  5
125
330
17
100
AcDbEntity
  8
ELEC_TEXTOS
100
AcDbText
 10
1.55
 20
10.95
 30
0.0
 40
0.12
  1
C1
 72
1
 11
1.55
 21
10.95
 31
0.0
100
AcDbText
 73
2
  0
LINE
  5
126
330
17
100
AcDbEntity
  8
ELEC_CIRCUITO_C2
  6
DASHED
420
2315700
100
AcDbLine
 10
3.85
 20
3.55
 30
0.0
 11
1.5
 21
3.55
 31
0.0
  0
LINE
  5
127
330
17
100
AcDbEntity
  8
ELEC_CIRCUITO_C2
  6
DASHED
420
2315700
100
AcDbLine
 10
1.5
 20
3.55
 30
0.0
 11
0.55
 21
3.55
 31
0.0
  0
LINE
  5
128
330
17
100
AcDbEntity
  8
ELEC_CIRCUITO_C2
  6
DASHED
420
2315700
100
AcDbLine
 10
0.55
 20
3.55
 30
0.0
 11
0.55
 21
4.75
 31
0.0
  0
LINE
  5
129
330
17
100
AcDbEntity
  8
ELEC_CIRCUITO_C2
  6
DASHED
420
2315700
100
AcDbLine
 10
0.55
 20
4.75
 30
0.0
 11
1.5
 21
4.75
 31
0.0
  0
LINE
  5
12A
330
17
100
AcDbEntity
  8
ELEC_CIRCUITO_C2
  6
DASHED
420
2315700
100
AcDbLine
 10
1.5
 20
4.75
 30
0.0
 11
2.45
 21
4.75
 31
0.0
  0
LINE
  5
12B
330
17
100
AcDbEntity
  8
ELEC_CIRCUITO_C2
  6
DASHED
420
2315700
100
AcDbLine
 10
2.45
 20
4.75
 30
0.0
 11
2.45
 21
6.05
 31
0.0
  0
LINE
  5
12C
330
17
100
AcDbEntity
  8
ELEC_CIRCUITO_C2
  6
DASHED
420
2315700
100
AcDbLine
 10
2.45
 20
6.05
 30
0.0
 11
1.5
 21
6.05
 31
0.0
  0
LINE
  5
12D
330
17
100
AcDbEntity
  8
ELEC_CIRCUITO_C2
  6
DASHED
420
2315700
100
AcDbLine
 10
1.5
 20
6.05
 30
0.0
 11
4.2
 21
6.05
 31
0.0
  0
LINE
  5
12E
330
17
100
AcDbEntity
  8
ELEC_CIRCUITO_C2
  6
DASHED
420
2315700
100
AcDbLine
 10
4.2
 20
6.05
 30
0.0
 11
4.2
 21
6.5
 31
0.0
  0
TEXT
  5
12F
330
17
100
AcDbEntity
  8
ELEC_TEXTOS
100
AcDbText
 10
4.35
 20
6.720000000000001
 30
0.0
 40
0.12
  1
C2
 72
1
 11
4.35
 21
6.720000000000001
 31
0.0
100
AcDbText
 73
2
  0
LINE
  5
130
330
17
100
AcDbEntity
  8
ELEC_CIRCUITO_C3
  6
DASHED
420
13114910
100
AcDbLine
 10
3.85
 20
3.55
 30
0.0
 11
3.85
 21
7.0
 31
0.0
  0
LINE
  5
131
330
17
100
AcDbEntity
  8
ELEC_CIRCUITO_C3
  6
DASHED
420
13114910
100
AcDbLine
 10
3.85
 20
7.0
 30
0.0
 11
1.5
 21
7.0
 31
0.0
  0
LINE
  5
132
330
17
100
AcDbEntity
  8
ELEC_CIRCUITO_C3
  6
DASHED
420
13114910
100
AcDbLine
 10
1.5
 20
7.0
 30
0.0
 11
1.5
 21
8.25
 31
0.0
  0
LINE
  5
133
330
17
100
AcDbEntity
  8
ELEC_CIRCUITO_C3
  6
DASHED
420
13114910
100
AcDbLine
 10
1.5
 20
8.25
 30
0.0
 11
0.55
 21
8.25
 31
0.0
  0
LINE
  5
134
330
17
100
AcDbEntity
  8
ELEC_CIRCUITO_C3
  6
DASHED
420
13114910
100
AcDbLine
 10
0.55
 20
8.25
 30
0.0
 11
2.45
 21
8.25
 31
0.0
  0
LINE
  5
135
330
17
100
AcDbEntity
  8
ELEC_CIRCUITO_C3
  6
DASHED
420
13114910
100
AcDbLine
 10
2.45
 20
8.25
 30
0.0
 11
2.45
 21
9.65
 31
0.0
  0
LINE
  5
136
330
17
100
AcDbEntity
  8
ELEC_CIRCUITO_C3
  6
DASHED
420
13114910
100
AcDbLine
 10
2.45
 20
9.65
 30
0.0
 11
1.5
 21
9.65
 31
0.0
  0
TEXT
  5
137
330
17
100
AcDbEntity
  8
ELEC_TEXTOS
100
AcDbText
 10
2.72
 20
9.82
 30
0.0
 40
0.12
  1
C3
 72
1
 11
2.72
 21
9.82
 31
0.0
100
AcDbText
 73
2
  0
TEXT
  5
138
330
17
100
AcDbEntity
  8
ELEC_TEXTOS
100
AcDbText
 10
9.25
 20
11.95
 30
0.0
 40
0.22
  1
SEGUNDO PISO
 72
1
 11
9.25
 21
11.95
 31
0.0
100
AcDbText
 73
2
  0
LINE
  5
139
330
17
100
AcDbEntity
  8
ARQ_MUROS
100
AcDbLine
 10
8.25
 20
10.0
 30
0.0
 11
8.25
 21
10.3
 31
0.0
  0
LINE
  5
13A
330
17
100
AcDbEntity
  8
ARQ_MUROS
100
AcDbLine
 10
7.0
 20
10.3
 30
0.0
 11
9.5
 21
10.3
 31
0.0
  0
LINE
  5
13B
330
17
100
AcDbEntity
  8
ARQ_MUROS
100
AcDbLine
 10
7.0
 20
10.033333333333333
 30
0.0
 11
8.25
 21
10.033333333333333
 31
0.0
  0
LINE
  5
13C
330
17
100
AcDbEntity
  8
ARQ_MUROS
100
AcDbLine
 10
8.25
 20
10.033333333333333
 30
0.0
 11
9.5
 21
10.033333333333333
 31
0.0
  0
LINE
  5
13D
330
17
100
AcDbEntity
  8
ARQ_MUROS
100
AcDbLine
 10
7.0
 20
10.066666666666666
 30
0.0
 11
8.25
 21
10.066666666666666
 31
0.0
  0
LINE
  5
13E
330
17
100
AcDbEntity
  8
ARQ_MUROS
100
AcDbLine
 10
8.25
 20
10.066666666666666
 30
0.0
 11
9.5
 21
10.066666666666666
 31
0.0
  0
LINE
  5
13F
330
17
100
AcDbEntity
  8
ARQ_MUROS
100
AcDbLine
 10
7.0
 20
10.1
 30
0.0
 11
8.25
 21
10.1
 31
0.0
  0
LINE
  5
140
330
17
100
AcDbEntity
  8
ARQ_MUROS
100
AcDbLine
 10
8.25
 20
10.1
 30
0.0
 11
9.5
 21
10.1
 31
0.0
  0
LINE
  5
141
330
17
100
AcDbEntity
  8
ARQ_MUROS
100
AcDbLine
 10
7.0
 20
10.133333333333333
 30
0.0
 11
8.25
 21
10.133333333333333
 31
0.0
  0
LINE
  5
142
330
17
100
AcDbEntity
  8
ARQ_MUROS
100
AcDbLine
 10
8.25
 20
10.133333333333333
 30
0.0
 11
9.5
 21
10.133333333333333
 31
0.0
  0
LINE
  5
143
330
17
100
AcDbEntity
  8
ARQ_MUROS
100
AcDbLine
 10
7.0
 20
10.166666666666668
 30
0.0
 11
8.25
 21
10.166666666666668
 31
0.0
  0
LINE
  5
144
330
17
100
AcDbEntity
  8
ARQ_MUROS
100
AcDbLine
 10
8.25
 20
10.166666666666668
 30
0.0
 11
9.5
 21
10.166666666666668
 31
0.0
  0
LINE
  5
145
330
17
100
AcDbEntity
  8
ARQ_MUROS
100
AcDbLine
 10
7.0
 20
10.2
 30
0.0
 11
8.25
 21
10.2
 31
0.0
  0
LINE
  5
146
330
17
100
AcDbEntity
  8
ARQ_MUROS
100
AcDbLine
 10
8.25
 20
10.2
 30
0.0
 11
9.5
 21
10.2
 31
0.0
  0
LINE
  5
147
330
17
100
AcDbEntity
  8
ARQ_MUROS
100
AcDbLine
 10
7.0
 20
10.233333333333334
 30
0.0
 11
8.25
 21
10.233333333333334
 31
0.0
  0
LINE
  5
148
330
17
100
AcDbEntity
  8
ARQ_MUROS
100
AcDbLine
 10
8.25
 20
10.233333333333334
 30
0.0
 11
9.5
 21
10.233333333333334
 31
0.0
  0
LINE
  5
149
330
17
100
AcDbEntity
  8
ARQ_MUROS
100
AcDbLine
 10
7.0
 20
10.266666666666666
 30
0.0
 11
8.25
 21
10.266666666666666
 31
0.0
  0
LINE
  5
14A
330
17
100
AcDbEntity
  8
ARQ_MUROS
100
AcDbLine
 10
8.25
 20
10.266666666666666
 30
0.0
 11
9.5
 21
10.266666666666666
 31
0.0
  0
LINE
  5
14B
330
17
100
AcDbEntity
  8
ARQ_MUROS
100
AcDbLine
 10
6.925
 20
2.5
 30
0.0
 11
6.925
 21
6.5
 31
0.0
  0
LINE
  5
14C
330
17
100
AcDbEntity
  8
ARQ_MUROS
100
AcDbLine
 10
7.075
 20
2.5
 30
0.0
 11
7.075
 21
6.5
 31
0.0
  0
LINE
  5
14D
330
17
100
AcDbEntity
  8
ARQ_MUROS
100
AcDbLine
 10
7.0
 20
6.425
 30
0.0
 11
10.0
 21
6.425
 31
0.0
  0
LINE
  5
14E
330
17
100
AcDbEntity
  8
ARQ_MUROS
100
AcDbLine
 10
7.0
 20
6.575
 30
0.0
 11
10.0
 21
6.575
 31
0.0
  0
LINE
  5
14F
330
17
100
AcDbEntity
  8
ARQ_MUROS
100
AcDbLine
 10
10.0
 20
11.425
 30
0.0
 11
11.5
 21
11.425
 31
0.0
  0
LINE
  5
150
330
17
100
AcDbEntity
  8
ARQ_MUROS
100
AcDbLine
 10
10.0
 20
11.575
 30
0.0
 11
11.5
 21
11.575
 31
0.0
  0
LINE
  5
151
330
17
100
AcDbEntity
  8
ARQ_MUROS
100
AcDbLine
 10
6.925
 20
10.0
 30
0.0
 11
6.925
 21
11.5
 31
0.0
  0
LINE
  5
152
330
17
100
AcDbEntity
  8
ARQ_MUROS
100
AcDbLine
 10
7.075
 20
10.0
 30
0.0
 11
7.075
 21
11.5
 31
0.0
  0
LINE
  5
153
330
17
100
AcDbEntity
  8
ARQ_MUROS
100
AcDbLine
 10
7.0
 20
2.425
 30
0.0
 11
11.5
 21
2.425
 31
0.0
  0
LINE
  5
154
330
17
100
AcDbEntity
  8
ARQ_MUROS
100
AcDbLine
 10
7.0
 20
2.575
 30
0.0
 11
11.5
 21
2.575
 31
0.0
  0
LINE
  5
155
330
17
100
AcDbEntity
  8
ARQ_MUROS
100
AcDbLine
 10
7.0
 20
9.925
 30
0.0
 11
9.5
 21
9.925
 31
0.0
  0
LINE
  5
156
330
17
100
AcDbEntity
  8
ARQ_MUROS
100
AcDbLine
 10
7.0
 20
10.075
 30
0.0
 11
9.5
 21
10.075
 31
0.0
  0
LINE
  5
157
330
17
100
AcDbEntity
  8
ARQ_MUROS
100
AcDbLine
 10
7.0
 20
11.425
 30
0.0
 11
9.5
 21
11.425
 31
0.0
  0
LINE
  5
158
330
17
100
AcDbEntity
  8
ARQ_MUROS
100
AcDbLine
 10
7.0
 20
11.575
 30
0.0
 11
9.5
 21
11.575
 31
0.0
  0
LINE
  5
159
330
17
100
AcDbEntity
  8
ARQ_MUROS
100
AcDbLine
 10
7.0
 20
9.925
 30
0.0
 11
10.0
 21
9.925
 31
0.0
  0
LINE
  5
15A
330
17
100
AcDbEntity
  8
ARQ_MUROS
100
AcDbLine
 10
7.0
 20
10.075
 30
0.0
 11
10.0
 21
10.075
 31
0.0
  0
LINE
  5
15B
330
17
100
AcDbEntity
  8
ARQ_MUROS
100
AcDbLine
 10
11.425
 20
10.0
 30
0.0
 11
11.425
 21
11.5
 31
0.0
  0
LINE
  5
15C
330
17
100
AcDbEntity
  8
ARQ_MUROS
100
AcDbLine
 10
11.575
 20
10.0
 30
0.0
 11
11.575
 21
11.5
 31
0.0
  0
LINE
  5
15D
330
17
100
AcDbEntity
  8
ARQ_MUROS
100
AcDbLine
 10
11.425
 20
6.5
 30
0.0
 11
11.425
 21
10.0
 31
0.0
  0
LINE
  5
15E
330
17
100
AcDbEntity
  8
ARQ_MUROS
100
AcDbLine
 10
11.575
 20
6.5
 30
0.0
 11
11.575
 21
10.0
 31
0.0
  0
LINE
  5
15F
330
17
100
AcDbEntity
  8
ARQ_MUROS
100
AcDbLine
 10
11.425
 20
2.5
 30
0.0
 11
11.425
 21
6.5
 31
0.0
  0
LINE
  5
160
330
17
100
AcDbEntity
  8
ARQ_MUROS
100
AcDbLine
 10
11.575
 20
2.5
 30
0.0
 11
11.575
 21
6.5
 31
0.0
  0
LINE
  5
161
330
17
100
AcDbEntity
  8
ARQ_MUROS
100
AcDbLine
 10
10.0
 20
6.425
 30
0.0
 11
11.5
 21
6.425
 31
0.0
  0
LINE
  5
162
330
17
100
AcDbEntity
  8
ARQ_MUROS
100
AcDbLine
 10
10.0
 20
6.575
 30
0.0
 11
11.5
 21
6.575
 31
0.0
  0
LINE
  5
163
330
17
100
AcDbEntity
  8
ARQ_MUROS
100
AcDbLine
 10
10.0
 20
9.925
 30
0.0
 11
11.5
 21
9.925
 31
0.0
  0
LINE
  5
164
330
17
100
AcDbEntity
  8
ARQ_MUROS
100
AcDbLine
 10
10.0
 20
10.075
 30
0.0
 11
11.5
 21
10.075
 31
0.0
  0
LINE
  5
165
330
17
100
AcDbEntity
  8
ARQ_MUROS
100
AcDbLine
 10
6.925
 20
6.5
 30
0.0
 11
6.925
 21
10.0
 31
0.0
  0
LINE
  5
166
330
17
100
AcDbEntity
  8
ARQ_MUROS
100
AcDbLine
 10
7.075
 20
6.5
 30
0.0
 11
7.075
 21
10.0
 31
0.0
  0
LINE
  5
167
330
17
100
AcDbEntity
  8
ARQ_MUROS
100
AcDbLine
 10
7.0
 20
6.425
 30
0.0
 11
11.5
 21
6.425
 31
0.0
  0
LINE
  5
168
330
17
100
AcDbEntity
  8
ARQ_MUROS
100
AcDbLine
 10
7.0
 20
6.575
 30
0.0
 11
11.5
 21
6.575
 31
0.0
  0
LINE
  5
169
330
17
100
AcDbEntity
  8
ARQ_MUROS
100
AcDbLine
 10
9.925
 20
6.5
 30
0.0
 11
9.925
 21
10.0
 31
0.0
  0
LINE
  5
16A
330
17
100
AcDbEntity
  8
ARQ_MUROS
100
AcDbLine
 10
10.075
 20
6.5
 30
0.0
 11
10.075
 21
10.0
 31
0.0
  0
LINE
  5
16B
330
17
100
AcDbEntity
  8
ARQ_PUERTAS
100
AcDbLine
 10
9.3
 20
6.5
 30
0.0
 11
9.3
 21
5.7
 31
0.0
  0
ARC
  5
16C
330
17
100
AcDbEntity
  8
ARQ_PUERTAS
100
AcDbCircle
 10
9.3
 20
6.5
 30
0.0
 40
0.8
100
AcDbArc
 50
180.0
 51
-90.00000000000001
  0
LINE
  5
16D
330
17
100
AcDbEntity
  8
ARQ_PUERTAS
100
AcDbLine
 10
8.0
 20
6.5
 30
0.0
 11
8.0
 21
7.3
 31
0.0
  0
ARC
  5
16E
330
17
100
AcDbEntity
  8
ARQ_PUERTAS
100
AcDbCircle
 10
8.0
 20
6.5
 30
0.0
 40
0.8
100
AcDbArc
 50
0.0
 51
90.0
  0
LINE
  5
16F
330
17
100
AcDbEntity
  8
ARQ_PUERTAS
100
AcDbLine
 10
11.2
 20
10.0
 30
0.0
 11
11.2
 21
10.7
 31
0.0
  0
ARC
  5
170
330
17
100
AcDbEntity
  8
ARQ_PUERTAS
100
AcDbCircle
 10
11.2
 20
10.0
 30
0.0
 40
0.7
100
AcDbArc
 50
90.0
 51
180.0
  0
LINE
  5
171
330
17
100
AcDbEntity
  8
ARQ_VENTANAS
100
AcDbLine
 10
9.25
 20
2.425
 30
0.0
 11
10.75
 21
2.425
 31
0.0
  0
LINE
  5
172
330
17
100
AcDbEntity
  8
ARQ_VENTANAS
100
AcDbLine
 10
10.75
 20
2.425
 30
0.0
 11
10.75
 21
2.575
 31
0.0
  0
LINE
  5
173
330
17
100
AcDbEntity
  8
ARQ_VENTANAS
100
AcDbLine
 10
10.75
 20
2.575
 30
0.0
 11
9.25
 21
2.575
 31
0.0
  0
LINE
  5
174
330
17
100
AcDbEntity
  8
ARQ_VENTANAS
100
AcDbLine
 10
9.25
 20
2.575
 30
0.0
 11
9.25
 21
2.425
 31
0.0
  0
LINE
  5
175
330
17
100
AcDbEntity
  8
ARQ_VENTANAS
100
AcDbLine
 10
9.25
 20
2.5
 30
0.0
 11
10.75
 21
2.5
 31
0.0
  0
LINE
  5
176
330
17
100
AcDbEntity
  8
ARQ_VENTANAS
100
AcDbLine
 10
6.925
 20
8.25
 30
0.0
 11
7.075
 21
8.25
 31
0.0
  0
LINE
  5
177
330
17
100
AcDbEntity
  8
ARQ_VENTANAS
100
AcDbLine
 10
7.075
 20
8.25
 30
0.0
 11
7.075
 21
9.45
 31
0.0
  0
LINE
  5
178
330
17
100
AcDbEntity
  8
ARQ_VENTANAS
100
AcDbLine
 10
7.075
 20
9.45
 30
0.0
 11
6.925
 21
9.45
 31
0.0
  0
LINE
  5
179
330
17
100
AcDbEntity
  8
ARQ_VENTANAS
100
AcDbLine
 10
6.925
 20
9.45
 30
0.0
 11
6.925
 21
8.25
 31
0.0
  0
LINE
  5
17A
330
17
100
AcDbEntity
  8
ARQ_VENTANAS
100
AcDbLine
 10
7.0
 20
8.25
 30
0.0
 11
7.0
 21
9.45
 31
0.0
  0
LINE
  5
17B
330
17
100
AcDbEntity
  8
ARQ_VENTANAS
100
AcDbLine
 10
11.425
 20
8.25
 30
0.0
 11
11.575
 21
8.25
 31
0.0
  0
LINE
  5
17C
330
17
100
AcDbEntity
  8
ARQ_VENTANAS
100
AcDbLine
 10
11.575
 20
8.25
 30
0.0
 11
11.575
 21
9.25
 31
0.0
  0
LINE
  5
17D
330
17
100
AcDbEntity
  8
ARQ_VENTANAS
100
AcDbLine
 10
11.575
 20
9.25
 30
0.0
 11
11.425
 21
9.25
 31
0.0
  0
LINE
  5
17E
330
17
100
AcDbEntity
  8
ARQ_VENTANAS
100
AcDbLine
 10
11.425
 20
9.25
 30
0.0
 11
11.425
 21
8.25
 31
0.0
  0
LINE
  5
17F
330
17
100
AcDbEntity
  8
ARQ_VENTANAS
100
AcDbLine
 10
11.5
 20
8.25
 30
0.0
 11
11.5
 21
9.25
 31
0.0
  0
LINE
  5
180
330
17
100
AcDbEntity
  8
ARQ_ESCALERAS
100
AcDbLine
 10
7.15
 20
10.0
 30
0.0
 11
7.15
 21
11.5
 31
0.0
  0
LINE
  5
181
330
17
100
AcDbEntity
  8
ARQ_ESCALERAS
100
AcDbLine
 10
9.5
 20
10.0
 30
0.0
 11
9.5
 21
11.5
 31
0.0
  0
LINE
  5
182
330
17
100
AcDbEntity
  8
ARQ_ESCALERAS
100
AcDbLine
 10
7.15
 20
10.0
 30
0.0
 11
9.5
 21
10.0
 31
0.0
  0
LINE
  5
183
330
17
100
AcDbEntity
  8
ARQ_ESCALERAS
100
AcDbLine
 10
7.15
 20
11.5
 30
0.0
 11
9.5
 21
11.5
 31
0.0
  0
LINE
  5
184
330
17
100
AcDbEntity
  8
ARQ_ESCALERAS
100
AcDbLine
 10
7.15
 20
10.1875
 30
0.0
 11
9.5
 21
10.1875
 31
0.0
  0
LINE
  5
185
330
17
100
AcDbEntity
  8
ARQ_ESCALERAS
100
AcDbLine
 10
7.15
 20
10.375
 30
0.0
 11
9.5
 21
10.375
 31
0.0
  0
LINE
  5
186
330
17
100
AcDbEntity
  8
ARQ_ESCALERAS
100
AcDbLine
 10
7.15
 20
10.5625
 30
0.0
 11
9.5
 21
10.5625
 31
0.0
  0
LINE
  5
187
330
17
100
AcDbEntity
  8
ARQ_ESCALERAS
100
AcDbLine
 10
7.15
 20
10.75
 30
0.0
 11
9.5
 21
10.75
 31
0.0
  0
LINE
  5
188
330
17
100
AcDbEntity
  8
ARQ_ESCALERAS
100
AcDbLine
 10
7.15
 20
10.9375
 30
0.0
 11
9.5
 21
10.9375
 31
0.0
  0
LINE
  5
189
330
17
100
AcDbEntity
  8
ARQ_ESCALERAS
100
AcDbLine
 10
7.15
 20
11.125
 30
0.0
 11
9.5
 21
11.125
 31
0.0
  0
LINE
  5
18A
330
17
100
AcDbEntity
  8
ARQ_ESCALERAS
100
AcDbLine
 10
7.15
 20
11.3125
 30
0.0
 11
9.5
 21
11.3125
 31
0.0
  0
TEXT
  5
18B
330
17
100
AcDbEntity
  8
ARQ_TEXTOS
100
AcDbText
 10
9.25
 20
4.5
 30
0.0
 40
0.16
  1
Dormitorio Principal
 72
1
 11
9.25
 21
4.5
 31
0.0
100
AcDbText
 73
2
  0
TEXT
  5
18C
330
17
100
AcDbEntity
  8
ARQ_TEXTOS
100
AcDbText
 10
8.5
 20
8.25
 30
0.0
 40
0.16
  1
Dormitorio 3
 72
1
 11
8.5
 21
8.25
 31
0.0
100
AcDbText
 73
2
  0
TEXT
  5
18D
330
17
100
AcDbEntity
  8
ARQ_TEXTOS
100
AcDbText
 10
10.75
 20
8.25
 30
0.0
 40
0.16
  1
Sala / Hall
 72
1
 11
10.75
 21
8.25
 31
0.0
100
AcDbText
 73
2
  0
TEXT
  5
18E
330
17
100
AcDbEntity
  8
ARQ_TEXTOS
100
AcDbText
 10
10.75
 20
10.75
 30
0.0
 40
0.16
  1
Bano
 72
1
 11
10.75
 21
10.75
 31
0.0
100
AcDbText
 73
2
  0
TEXT
  5
18F
330
17
100
AcDbEntity
  8
ARQ_TEXTOS
100
AcDbText
 10
8.25
 20
10.75
 30
0.0
 40
0.16
  1
Escalera
 72
1
 11
8.25
 21
10.75
 31
0.0
100
AcDbText
 73
2
  0
CIRCLE
  5
190
330
17
100
AcDbEntity
  8
ELEC_LUMINARIAS
420
14449945
100
AcDbCircle
 10
8.55
 20
4.15
 30
0.0
 40
0.1
  0
LINE
  5
191
330
17
100
AcDbEntity
  8
ELEC_LUMINARIAS
420
14449945
100
AcDbLine
 10
8.55
 20
4.25
 30
0.0
 11
8.55
 21
4.33
 31
0.0
  0
LINE
  5
192
330
17
100
AcDbEntity
  8
ELEC_LUMINARIAS
420
14449945
100
AcDbLine
 10
8.55
 20
4.050000000000001
 30
0.0
 11
8.55
 21
3.97
 31
0.0
  0
LINE
  5
193
330
17
100
AcDbEntity
  8
ELEC_LUMINARIAS
420
14449945
100
AcDbLine
 10
8.65
 20
4.15
 30
0.0
 11
8.73
 21
4.15
 31
0.0
  0
LINE
  5
194
330
17
100
AcDbEntity
  8
ELEC_LUMINARIAS
420
14449945
100
AcDbLine
 10
8.450000000000001
 20
4.15
 30
0.0
 11
8.370000000000001
 21
4.15
 31
0.0
  0
CIRCLE
  5
195
330
17
100
AcDbEntity
  8
ELEC_LUMINARIAS
420
14449945
100
AcDbCircle
 10
8.55
 20
4.15
 30
0.0
 40
0.02
  0
TEXT
  5
196
330
17
100
AcDbEntity
  8
ELEC_TEXTOS
100
AcDbText
 10
8.83
 20
4.33
 30
0.0
 40
0.12
  1
C4
 72
1
 11
8.83
 21
4.33
 31
0.0
100
AcDbText
 73
2
  0
CIRCLE
  5
197
330
17
100
AcDbEntity
  8
ELEC_LUMINARIAS
420
14449945
100
AcDbCircle
 10
10.25
 20
5.15
 30
0.0
 40
0.1
  0
LINE
  5
198
330
17
100
AcDbEntity
  8
ELEC_LUMINARIAS
420
14449945
100
AcDbLine
 10
10.25
 20
5.25
 30
0.0
 11
10.25
 21
5.33
 31
0.0
  0
LINE
  5
199
330
17
100
AcDbEntity
  8
ELEC_LUMINARIAS
420
14449945
100
AcDbLine
 10
10.25
 20
5.050000000000001
 30
0.0
 11
10.25
 21
4.970000000000001
 31
0.0
  0
LINE
  5
19A
330
17
100
AcDbEntity
  8
ELEC_LUMINARIAS
420
14449945
100
AcDbLine
 10
10.35
 20
5.15
 30
0.0
 11
10.43
 21
5.15
 31
0.0
  0
LINE
  5
19B
330
17
100
AcDbEntity
  8
ELEC_LUMINARIAS
420
14449945
100
AcDbLine
 10
10.15
 20
5.15
 30
0.0
 11
10.07
 21
5.15
 31
0.0
  0
CIRCLE
  5
19C
330
17
100
AcDbEntity
  8
ELEC_LUMINARIAS
420
14449945
100
AcDbCircle
 10
10.25
 20
5.15
 30
0.0
 40
0.02
  0
TEXT
  5
19D
330
17
100
AcDbEntity
  8
ELEC_TEXTOS
100
AcDbText
 10
10.53
 20
5.33
 30
0.0
 40
0.12
  1
C4
 72
1
 11
10.53
 21
5.33
 31
0.0
100
AcDbText
 73
2
  0
CIRCLE
  5
19E
330
17
100
AcDbEntity
  8
ELEC_LUMINARIAS
420
14449945
100
AcDbCircle
 10
8.5
 20
8.25
 30
0.0
 40
0.1
  0
LINE
  5
19F
330
17
100
AcDbEntity
  8
ELEC_LUMINARIAS
420
14449945
100
AcDbLine
 10
8.5
 20
8.35
 30
0.0
 11
8.5
 21
8.43
 31
0.0
  0
LINE
  5
1A0
330
17
100
AcDbEntity
  8
ELEC_LUMINARIAS
420
14449945
100
AcDbLine
 10
8.5
 20
8.15
 30
0.0
 11
8.5
 21
8.07
 31
0.0
  0
LINE
  5
1A1
330
17
100
AcDbEntity
  8
ELEC_LUMINARIAS
420
14449945
100
AcDbLine
 10
8.6
 20
8.25
 30
0.0
 11
8.68
 21
8.25
 31
0.0
  0
LINE
  5
1A2
330
17
100
AcDbEntity
  8
ELEC_LUMINARIAS
420
14449945
100
AcDbLine
 10
8.4
 20
8.25
 30
0.0
 11
8.32
 21
8.25
 31
0.0
  0
CIRCLE
  5
1A3
330
17
100
AcDbEntity
  8
ELEC_LUMINARIAS
420
14449945
100
AcDbCircle
 10
8.5
 20
8.25
 30
0.0
 40
0.02
  0
TEXT
  5
1A4
330
17
100
AcDbEntity
  8
ELEC_TEXTOS
100
AcDbText
 10
8.78
 20
8.43
 30
0.0
 40
0.12
  1
C4
 72
1
 11
8.78
 21
8.43
 31
0.0
100
AcDbText
 73
2
  0
CIRCLE
  5
1A5
330
17
100
AcDbEntity
  8
ELEC_LUMINARIAS
420
14449945
100
AcDbCircle
 10
10.75
 20
8.25
 30
0.0
 40
0.1
  0
LINE
  5
1A6
330
17
100
AcDbEntity
  8
ELEC_LUMINARIAS
420
14449945
100
AcDbLine
 10
10.75
 20
8.35
 30
0.0
 11
10.75
 21
8.43
 31
0.0
  0
LINE
  5
1A7
330
17
100
AcDbEntity
  8
ELEC_LUMINARIAS
420
14449945
100
AcDbLine
 10
10.75
 20
8.15
 30
0.0
 11
10.75
 21
8.07
 31
0.0
  0
LINE
  5
1A8
330
17
100
AcDbEntity
  8
ELEC_LUMINARIAS
420
14449945
100
AcDbLine
 10
10.85
 20
8.25
 30
0.0
 11
10.93
 21
8.25
 31
0.0
  0
LINE
  5
1A9
330
17
100
AcDbEntity
  8
ELEC_LUMINARIAS
420
14449945
100
AcDbLine
 10
10.65
 20
8.25
 30
0.0
 11
10.57
 21
8.25
 31
0.0
  0
CIRCLE
  5
1AA
330
17
100
AcDbEntity
  8
ELEC_LUMINARIAS
420
14449945
100
AcDbCircle
 10
10.75
 20
8.25
 30
0.0
 40
0.02
  0
TEXT
  5
1AB
330
17
100
AcDbEntity
  8
ELEC_TEXTOS
100
AcDbText
 10
11.03
 20
8.43
 30
0.0
 40
0.12
  1
C4
 72
1
 11
11.03
 21
8.43
 31
0.0
100
AcDbText
 73
2
  0
CIRCLE
  5
1AC
330
17
100
AcDbEntity
  8
ELEC_LUMINARIAS
420
14449945
100
AcDbCircle
 10
10.75
 20
10.75
 30
0.0
 40
0.1
  0
LINE
  5
1AD
330
17
100
AcDbEntity
  8
ELEC_LUMINARIAS
420
14449945
100
AcDbLine
 10
10.75
 20
10.85
 30
0.0
 11
10.75
 21
10.93
 31
0.0
  0
LINE
  5
1AE
330
17
100
AcDbEntity
  8
ELEC_LUMINARIAS
420
14449945
100
AcDbLine
 10
10.75
 20
10.65
 30
0.0
 11
10.75
 21
10.57
 31
0.0
  0
LINE
  5
1AF
330
17
100
AcDbEntity
  8
ELEC_LUMINARIAS
420
14449945
100
AcDbLine
 10
10.85
 20
10.75
 30
0.0
 11
10.93
 21
10.75
 31
0.0
  0
LINE
  5
1B0
330
17
100
AcDbEntity
  8
ELEC_LUMINARIAS
420
14449945
100
AcDbLine
 10
10.65
 20
10.75
 30
0.0
 11
10.57
 21
10.75
 31
0.0
  0
CIRCLE
  5
1B1
330
17
100
AcDbEntity
  8
ELEC_LUMINARIAS
420
14449945
100
AcDbCircle
 10
10.75
 20
10.75
 30
0.0
 40
0.02
  0
TEXT
  5
1B2
330
17
100
AcDbEntity
  8
ELEC_TEXTOS
100
AcDbText
 10
11.03
 20
10.93
 30
0.0
 40
0.12
  1
C4
 72
1
 11
11.03
 21
10.93
 31
0.0
100
AcDbText
 73
2
  0
CIRCLE
  5
1B3
330
17
100
AcDbEntity
  8
ELEC_INTERRUPTORES
420
14449945
100
AcDbCircle
 10
9.15
 20
6.75
 30
0.0
 40
0.09
  0
LINE
  5
1B4
330
17
100
AcDbEntity
  8
ELEC_INTERRUPTORES
420
14449945
100
AcDbLine
 10
9.21
 20
6.81
 30
0.0
 11
9.33
 21
6.93
 31
0.0
  0
TEXT
  5
1B5
330
17
100
AcDbEntity
  8
ELEC_INTERRUPTORES
100
AcDbText
 10
9.1
 20
6.51
 30
0.0
 40
0.13
  1
S
 11
9.1
 21
6.51
 31
0.0
100
AcDbText
 73
2
  0
CIRCLE
  5
1B6
330
17
100
AcDbEntity
  8
ELEC_INTERRUPTORES
420
14449945
100
AcDbCircle
 10
9.65
 20
6.85
 30
0.0
 40
0.09
  0
LINE
  5
1B7
330
17
100
AcDbEntity
  8
ELEC_INTERRUPTORES
420
14449945
100
AcDbLine
 10
9.71
 20
6.909999999999999
 30
0.0
 11
9.83
 21
7.029999999999999
 31
0.0
  0
TEXT
  5
1B8
330
17
100
AcDbEntity
  8
ELEC_INTERRUPTORES
100
AcDbText
 10
9.6
 20
6.609999999999999
 30
0.0
 40
0.13
  1
S
 11
9.6
 21
6.609999999999999
 31
0.0
100
AcDbText
 73
2
  0
CIRCLE
  5
1B9
330
17
100
AcDbEntity
  8
ELEC_INTERRUPTORES
420
14449945
100
AcDbCircle
 10
10.25
 20
6.85
 30
0.0
 40
0.09
  0
LINE
  5
1BA
330
17
100
AcDbEntity
  8
ELEC_INTERRUPTORES
420
14449945
100
AcDbLine
 10
10.31
 20
6.909999999999999
 30
0.0
 11
10.43
 21
7.029999999999999
 31
0.0
  0
TEXT
  5
1BB
330
17
100
AcDbEntity
  8
ELEC_INTERRUPTORES
100
AcDbText
 10
10.2
 20
6.609999999999999
 30
0.0
 40
0.13
  1
S
 11
10.2
 21
6.609999999999999
 31
0.0
100
AcDbText
 73
2
  0
CIRCLE
  5
1BC
330
17
100
AcDbEntity
  8
ELEC_INTERRUPTORES
420
14449945
100
AcDbCircle
 10
10.25
 20
9.85
 30
0.0
 40
0.09
  0
LINE
  5
1BD
330
17
100
AcDbEntity
  8
ELEC_INTERRUPTORES
420
14449945
100
AcDbLine
 10
10.31
 20
9.91
 30
0.0
 11
10.43
 21
10.03
 31
0.0
  0
TEXT
  5
1BE
330
17
100
AcDbEntity
  8
ELEC_INTERRUPTORES
100
AcDbText
 10
10.2
 20
9.61
 30
0.0
 40
0.13
  1
S
 11
10.2
 21
9.61
 31
0.0
100
AcDbText
 73
2
  0
CIRCLE
  5
1BF
330
17
100
AcDbEntity
  8
ELEC_INTERRUPTORES
420
14449945
100
AcDbCircle
 10
9.15
 20
10.85
 30
0.0
 40
0.09
  0
LINE
  5
1C0
330
17
100
AcDbEntity
  8
ELEC_INTERRUPTORES
420
14449945
100
AcDbLine
 10
9.21
 20
10.91
 30
0.0
 11
9.33
 21
11.03
 31
0.0
  0
TEXT
  5
1C1
330
17
100
AcDbEntity
  8
ELEC_INTERRUPTORES
100
AcDbText
 10
9.1
 20
10.61
 30
0.0
 40
0.13
  1
S3
 11
9.1
 21
10.61
 31
0.0
100
AcDbText
 73
2
  0
CIRCLE
  5
1C2
330
17
100
AcDbEntity
  8
ELEC_TOMACORRIENTES
420
2315700
100
AcDbCircle
 10
9.25
 20
3.05
 30
0.0
 40
0.13
  0
LINE
  5
1C3
330
17
100
AcDbEntity
  8
ELEC_TOMACORRIENTES
420
2315700
100
AcDbLine
 10
9.16
 20
3.01
 30
0.0
 11
9.34
 21
3.01
 31
0.0
  0
LINE
  5
1C4
330
17
100
AcDbEntity
  8
ELEC_TOMACORRIENTES
420
2315700
100
AcDbLine
 10
9.16
 20
3.09
 30
0.0
 11
9.34
 21
3.09
 31
0.0
  0
TEXT
  5
1C5
330
17
100
AcDbEntity
  8
ELEC_TOMACORRIENTES
100
AcDbText
 10
9.47
 20
2.9
 30
0.0
 40
0.14
  1
T
 11
9.47
 21
2.9
 31
0.0
100
AcDbText
 73
2
  0
TEXT
  5
1C6
330
17
100
AcDbEntity
  8
ELEC_TEXTOS
100
AcDbText
 10
9.5
 20
2.8299999999999996
 30
0.0
 40
0.12
  1
C5
 72
1
 11
9.5
 21
2.8299999999999996
 31
0.0
100
AcDbText
 73
2
  0
CIRCLE
  5
1C7
330
17
100
AcDbEntity
  8
ELEC_TOMACORRIENTES
420
2315700
100
AcDbCircle
 10
7.55
 20
4.5
 30
0.0
 40
0.13
  0
LINE
  5
1C8
330
17
100
AcDbEntity
  8
ELEC_TOMACORRIENTES
420
2315700
100
AcDbLine
 10
7.46
 20
4.46
 30
0.0
 11
7.64
 21
4.46
 31
0.0
  0
LINE
  5
1C9
330
17
100
AcDbEntity
  8
ELEC_TOMACORRIENTES
420
2315700
100
AcDbLine
 10
7.46
 20
4.54
 30
0.0
 11
7.64
 21
4.54
 31
0.0
  0
TEXT
  5
1CA
330
17
100
AcDbEntity
  8
ELEC_TOMACORRIENTES
100
AcDbText
 10
7.77
 20
4.35
 30
0.0
 40
0.14
  1
T
 11
7.77
 21
4.35
 31
0.0
100
AcDbText
 73
2
  0
TEXT
  5
1CB
330
17
100
AcDbEntity
  8
ELEC_TEXTOS
100
AcDbText
 10
7.8
 20
4.28
 30
0.0
 40
0.12
  1
C5
 72
1
 11
7.8
 21
4.28
 31
0.0
100
AcDbText
 73
2
  0
CIRCLE
  5
1CC
330
17
100
AcDbEntity
  8
ELEC_TOMACORRIENTES
420
2315700
100
AcDbCircle
 10
11.0
 20
4.5
 30
0.0
 40
0.13
  0
LINE
  5
1CD
330
17
100
AcDbEntity
  8
ELEC_TOMACORRIENTES
420
2315700
100
AcDbLine
 10
10.91
 20
4.46
 30
0.0
 11
11.09
 21
4.46
 31
0.0
  0
LINE
  5
1CE
330
17
100
AcDbEntity
  8
ELEC_TOMACORRIENTES
420
2315700
100
AcDbLine
 10
10.91
 20
4.54
 30
0.0
 11
11.09
 21
4.54
 31
0.0
  0
TEXT
  5
1CF
330
17
100
AcDbEntity
  8
ELEC_TOMACORRIENTES
100
AcDbText
 10
11.22
 20
4.35
 30
0.0
 40
0.14
  1
T
 11
11.22
 21
4.35
 31
0.0
100
AcDbText
 73
2
  0
TEXT
  5
1D0
330
17
100
AcDbEntity
  8
ELEC_TEXTOS
100
AcDbText
 10
11.25
 20
4.28
 30
0.0
 40
0.12
  1
C5
 72
1
 11
11.25
 21
4.28
 31
0.0
100
AcDbText
 73
2
  0
CIRCLE
  5
1D1
330
17
100
AcDbEntity
  8
ELEC_TOMACORRIENTES
420
2315700
100
AcDbCircle
 10
9.25
 20
5.95
 30
0.0
 40
0.13
  0
LINE
  5
1D2
330
17
100
AcDbEntity
  8
ELEC_TOMACORRIENTES
420
2315700
100
AcDbLine
 10
9.16
 20
5.91
 30
0.0
 11
9.34
 21
5.91
 31
0.0
  0
LINE
  5
1D3
330
17
100
AcDbEntity
  8
ELEC_TOMACORRIENTES
420
2315700
100
AcDbLine
 10
9.16
 20
5.99
 30
0.0
 11
9.34
 21
5.99
 31
0.0
  0
TEXT
  5
1D4
330
17
100
AcDbEntity
  8
ELEC_TOMACORRIENTES
100
AcDbText
 10
9.47
 20
5.8
 30
0.0
 40
0.14
  1
T
 11
9.47
 21
5.8
 31
0.0
100
AcDbText
 73
2
  0
TEXT
  5
1D5
330
17
100
AcDbEntity
  8
ELEC_TEXTOS
100
AcDbText
 10
9.5
 20
5.73
 30
0.0
 40
0.12
  1
C5
 72
1
 11
9.5
 21
5.73
 31
0.0
100
AcDbText
 73
2
  0
CIRCLE
  5
1D6
330
17
100
AcDbEntity
  8
ELEC_TOMACORRIENTES
420
2315700
100
AcDbCircle
 10
8.5
 20
6.95
 30
0.0
 40
0.13
  0
LINE
  5
1D7
330
17
100
AcDbEntity
  8
ELEC_TOMACORRIENTES
420
2315700
100
AcDbLine
 10
8.41
 20
6.91
 30
0.0
 11
8.59
 21
6.91
 31
0.0
  0
LINE
  5
1D8
330
17
100
AcDbEntity
  8
ELEC_TOMACORRIENTES
420
2315700
100
AcDbLine
 10
8.41
 20
6.99
 30
0.0
 11
8.59
 21
6.99
 31
0.0
  0
TEXT
  5
1D9
330
17
100
AcDbEntity
  8
ELEC_TOMACORRIENTES
100
AcDbText
 10
8.72
 20
6.8
 30
0.0
 40
0.14
  1
T
 11
8.72
 21
6.8
 31
0.0
100
AcDbText
 73
2
  0
TEXT
  5
1DA
330
17
100
AcDbEntity
  8
ELEC_TEXTOS
100
AcDbText
 10
8.75
 20
6.73
 30
0.0
 40
0.12
  1
C5
 72
1
 11
8.75
 21
6.73
 31
0.0
100
AcDbText
 73
2
  0
CIRCLE
  5
1DB
330
17
100
AcDbEntity
  8
ELEC_TOMACORRIENTES
420
2315700
100
AcDbCircle
 10
7.55
 20
8.25
 30
0.0
 40
0.13
  0
LINE
  5
1DC
330
17
100
AcDbEntity
  8
ELEC_TOMACORRIENTES
420
2315700
100
AcDbLine
 10
7.46
 20
8.21
 30
0.0
 11
7.64
 21
8.21
 31
0.0
  0
LINE
  5
1DD
330
17
100
AcDbEntity
  8
ELEC_TOMACORRIENTES
420
2315700
100
AcDbLine
 10
7.46
 20
8.29
 30
0.0
 11
7.64
 21
8.29
 31
0.0
  0
TEXT
  5
1DE
330
17
100
AcDbEntity
  8
ELEC_TOMACORRIENTES
100
AcDbText
 10
7.77
 20
8.1
 30
0.0
 40
0.14
  1
T
 11
7.77
 21
8.1
 31
0.0
100
AcDbText
 73
2
  0
TEXT
  5
1DF
330
17
100
AcDbEntity
  8
ELEC_TEXTOS
100
AcDbText
 10
7.8
 20
8.03
 30
0.0
 40
0.12
  1
C5
 72
1
 11
7.8
 21
8.03
 31
0.0
100
AcDbText
 73
2
  0
CIRCLE
  5
1E0
330
17
100
AcDbEntity
  8
ELEC_TOMACORRIENTES
420
2315700
100
AcDbCircle
 10
8.5
 20
9.5
 30
0.0
 40
0.13
  0
LINE
  5
1E1
330
17
100
AcDbEntity
  8
ELEC_TOMACORRIENTES
420
2315700
100
AcDbLine
 10
8.41
 20
9.46
 30
0.0
 11
8.59
 21
9.46
 31
0.0
  0
LINE
  5
1E2
330
17
100
AcDbEntity
  8
ELEC_TOMACORRIENTES
420
2315700
100
AcDbLine
 10
8.41
 20
9.54
 30
0.0
 11
8.59
 21
9.54
 31
0.0
  0
TEXT
  5
1E3
330
17
100
AcDbEntity
  8
ELEC_TOMACORRIENTES
100
AcDbText
 10
8.72
 20
9.35
 30
0.0
 40
0.14
  1
T
 11
8.72
 21
9.35
 31
0.0
100
AcDbText
 73
2
  0
TEXT
  5
1E4
330
17
100
AcDbEntity
  8
ELEC_TEXTOS
100
AcDbText
 10
8.75
 20
9.28
 30
0.0
 40
0.12
  1
C5
 72
1
 11
8.75
 21
9.28
 31
0.0
100
AcDbText
 73
2
  0
CIRCLE
  5
1E5
330
17
100
AcDbEntity
  8
ELEC_TOMACORRIENTES
420
2315700
100
AcDbCircle
 10
11.05
 20
8.25
 30
0.0
 40
0.13
  0
LINE
  5
1E6
330
17
100
AcDbEntity
  8
ELEC_TOMACORRIENTES
420
2315700
100
AcDbLine
 10
10.96
 20
8.21
 30
0.0
 11
11.14
 21
8.21
 31
0.0
  0
LINE
  5
1E7
330
17
100
AcDbEntity
  8
ELEC_TOMACORRIENTES
420
2315700
100
AcDbLine
 10
10.96
 20
8.29
 30
0.0
 11
11.14
 21
8.29
 31
0.0
  0
TEXT
  5
1E8
330
17
100
AcDbEntity
  8
ELEC_TOMACORRIENTES
100
AcDbText
 10
11.270000000000001
 20
8.1
 30
0.0
 40
0.14
  1
T
 11
11.270000000000001
 21
8.1
 31
0.0
100
AcDbText
 73
2
  0
TEXT
  5
1E9
330
17
100
AcDbEntity
  8
ELEC_TEXTOS
100
AcDbText
 10
11.3
 20
8.03
 30
0.0
 40
0.12
  1
C5
 72
1
 11
11.3
 21
8.03
 31
0.0
100
AcDbText
 73
2
  0
LINE
  5
1EA
330
17
100
AcDbEntity
  8
ELEC_TOMACORRIENTES
420
2315700
100
AcDbLine
 10
10.850000000000001
 20
10.75
 30
0.0
 11
11.25
 21
10.75
 31
0.0
  0
ARC
  5
1EB
330
17
100
AcDbEntity
  8
ELEC_TOMACORRIENTES
420
2315700
100
AcDbCircle
 10
11.05
 20
10.75
 30
0.0
 40
0.1
100
AcDbArc
 50
0.0
 51
180.0
  0
LINE
  5
1EC
330
17
100
AcDbEntity
  8
ELEC_TOMACORRIENTES
420
2315700
100
AcDbLine
 10
11.05
 20
10.85
 30
0.0
 11
11.05
 21
10.97
 31
0.0
  0
LINE
  5
1ED
330
17
100
AcDbEntity
  8
ELEC_TOMACORRIENTES
420
2315700
100
AcDbLine
 10
10.99
 20
10.97
 30
0.0
 11
11.110000000000001
 21
10.97
 31
0.0
  0
TEXT
  5
1EE
330
17
100
AcDbEntity
  8
ELEC_TEXTOS
100
AcDbText
 10
11.3
 20
10.53
 30
0.0
 40
0.12
  1
C5
 72
1
 11
11.3
 21
10.53
 31
0.0
100
AcDbText
 73
2
  0
LINE
  5
1EF
330
17
100
AcDbEntity
  8
ELEC_TABLEROS
420
13114910
100
AcDbLine
 10
10.0
 20
7.0
 30
0.0
 11
10.5
 21
7.0
 31
0.0
  0
LINE
  5
1F0
330
17
100
AcDbEntity
  8
ELEC_TABLEROS
420
13114910
100
AcDbLine
 10
10.5
 20
7.0
 30
0.0
 11
10.5
 21
7.3
 31
0.0
  0
LINE
  5
1F1
330
17
100
AcDbEntity
  8
ELEC_TABLEROS
420
13114910
100
AcDbLine
 10
10.5
 20
7.3
 30
0.0
 11
10.0
 21
7.3
 31
0.0
  0
LINE
  5
1F2
330
17
100
AcDbEntity
  8
ELEC_TABLEROS
420
13114910
100
AcDbLine
 10
10.0
 20
7.3
 30
0.0
 11
10.0
 21
7.0
 31
0.0
  0
LINE
  5
1F3
330
17
100
AcDbEntity
  8
ELEC_TABLEROS
420
13114910
100
AcDbLine
 10
10.0
 20
7.0
 30
0.0
 11
10.5
 21
7.300000000000001
 31
0.0
  0
LINE
  5
1F4
330
17
100
AcDbEntity
  8
ELEC_TABLEROS
420
13114910
100
AcDbLine
 10
10.0
 20
7.0
 30
0.0
 11
10.5
 21
7.0
 31
0.0
  0
LINE
  5
1F5
330
17
100
AcDbEntity
  8
ELEC_TABLEROS
420
13114910
100
AcDbLine
 10
10.5
 20
7.0
 30
0.0
 11
10.5
 21
7.300000000000001
 31
0.0
  0
LINE
  5
1F6
330
17
100
AcDbEntity
  8
ELEC_TABLEROS
420
13114910
100
AcDbLine
 10
10.1
 20
7.0
 30
0.0
 11
10.5
 21
7.24
 31
0.0
  0
LINE
  5
1F7
330
17
100
AcDbEntity
  8
ELEC_TABLEROS
420
13114910
100
AcDbLine
 10
10.2
 20
7.0
 30
0.0
 11
10.5
 21
7.180000000000001
 31
0.0
  0
LINE
  5
1F8
330
17
100
AcDbEntity
  8
ELEC_TABLEROS
420
13114910
100
AcDbLine
 10
10.3
 20
7.0
 30
0.0
 11
10.5
 21
7.12
 31
0.0
  0
LINE
  5
1F9
330
17
100
AcDbEntity
  8
ELEC_TABLEROS
420
13114910
100
AcDbLine
 10
10.4
 20
7.0
 30
0.0
 11
10.5
 21
7.0600000000000005
 31
0.0
  0
TEXT
  5
1FA
330
17
100
AcDbEntity
  8
ELEC_TABLEROS
100
AcDbText
 10
10.25
 20
6.8100000000000005
 30
0.0
 40
0.12
  1
TD-01
 72
1
 11
10.25
 21
6.8100000000000005
 31
0.0
100
AcDbText
 73
2
  0
LINE
  5
1FB
330
17
100
AcDbEntity
  8
ELEC_CIRCUITO_C4
  6
DASHED
420
14449945
100
AcDbLine
 10
10.25
 20
7.15
 30
0.0
 11
10.75
 21
7.15
 31
0.0
  0
LINE
  5
1FC
330
17
100
AcDbEntity
  8
ELEC_CIRCUITO_C4
  6
DASHED
420
14449945
100
AcDbLine
 10
10.75
 20
7.15
 30
0.0
 11
10.75
 21
8.25
 31
0.0
  0
LINE
  5
1FD
330
17
100
AcDbEntity
  8
ELEC_CIRCUITO_C4
  6
DASHED
420
14449945
100
AcDbLine
 10
10.75
 20
8.25
 30
0.0
 11
8.5
 21
8.25
 31
0.0
  0
LINE
  5
1FE
330
17
100
AcDbEntity
  8
ELEC_CIRCUITO_C4
  6
DASHED
420
14449945
100
AcDbLine
 10
8.5
 20
8.25
 30
0.0
 11
8.5
 21
4.15
 31
0.0
  0
LINE
  5
1FF
330
17
100
AcDbEntity
  8
ELEC_CIRCUITO_C4
  6
DASHED
420
14449945
100
AcDbLine
 10
8.5
 20
4.15
 30
0.0
 11
8.55
 21
4.15
 31
0.0
  0
LINE
  5
200
330
17
100
AcDbEntity
  8
ELEC_CIRCUITO_C4
  6
DASHED
420
14449945
100
AcDbLine
 10
8.55
 20
4.15
 30
0.0
 11
10.25
 21
4.15
 31
0.0
  0
LINE
  5
201
330
17
100
AcDbEntity
  8
ELEC_CIRCUITO_C4
  6
DASHED
420
14449945
100
AcDbLine
 10
10.25
 20
4.15
 30
0.0
 11
10.25
 21
5.15
 31
0.0
  0
LINE
  5
202
330
17
100
AcDbEntity
  8
ELEC_CIRCUITO_C4
  6
DASHED
420
14449945
100
AcDbLine
 10
10.25
 20
5.15
 30
0.0
 11
10.75
 21
5.15
 31
0.0
  0
LINE
  5
203
330
17
100
AcDbEntity
  8
ELEC_CIRCUITO_C4
  6
DASHED
420
14449945
100
AcDbLine
 10
10.75
 20
5.15
 30
0.0
 11
10.75
 21
10.75
 31
0.0
  0
TEXT
  5
204
330
17
100
AcDbEntity
  8
ELEC_TEXTOS
100
AcDbText
 10
10.95
 20
10.95
 30
0.0
 40
0.12
  1
C4
 72
1
 11
10.95
 21
10.95
 31
0.0
100
AcDbText
 73
2
  0
LINE
  5
205
330
17
100
AcDbEntity
  8
ELEC_CIRCUITO_C5
  6
DASHED
420
2315700
100
AcDbLine
 10
10.25
 20
7.15
 30
0.0
 11
11.05
 21
7.15
 31
0.0
  0
LINE
  5
206
330
17
100
AcDbEntity
  8
ELEC_CIRCUITO_C5
  6
DASHED
420
2315700
100
AcDbLine
 10
11.05
 20
7.15
 30
0.0
 11
11.05
 21
4.5
 31
0.0
  0
LINE
  5
207
330
17
100
AcDbEntity
  8
ELEC_CIRCUITO_C5
  6
DASHED
420
2315700
100
AcDbLine
 10
11.05
 20
4.5
 30
0.0
 11
9.25
 21
4.5
 31
0.0
  0
LINE
  5
208
330
17
100
AcDbEntity
  8
ELEC_CIRCUITO_C5
  6
DASHED
420
2315700
100
AcDbLine
 10
9.25
 20
4.5
 30
0.0
 11
9.25
 21
3.05
 31
0.0
  0
LINE
  5
209
330
17
100
AcDbEntity
  8
ELEC_CIRCUITO_C5
  6
DASHED
420
2315700
100
AcDbLine
 10
9.25
 20
3.05
 30
0.0
 11
7.55
 21
3.05
 31
0.0
  0
LINE
  5
20A
330
17
100
AcDbEntity
  8
ELEC_CIRCUITO_C5
  6
DASHED
420
2315700
100
AcDbLine
 10
7.55
 20
3.05
 30
0.0
 11
7.55
 21
4.5
 31
0.0
  0
LINE
  5
20B
330
17
100
AcDbEntity
  8
ELEC_CIRCUITO_C5
  6
DASHED
420
2315700
100
AcDbLine
 10
7.55
 20
4.5
 30
0.0
 11
9.25
 21
5.95
 31
0.0
  0
LINE
  5
20C
330
17
100
AcDbEntity
  8
ELEC_CIRCUITO_C5
  6
DASHED
420
2315700
100
AcDbLine
 10
9.25
 20
5.95
 30
0.0
 11
8.5
 21
5.95
 31
0.0
  0
LINE
  5
20D
330
17
100
AcDbEntity
  8
ELEC_CIRCUITO_C5
  6
DASHED
420
2315700
100
AcDbLine
 10
8.5
 20
5.95
 30
0.0
 11
8.5
 21
6.95
 31
0.0
  0
LINE
  5
20E
330
17
100
AcDbEntity
  8
ELEC_CIRCUITO_C5
  6
DASHED
420
2315700
100
AcDbLine
 10
8.5
 20
6.95
 30
0.0
 11
7.55
 21
8.25
 31
0.0
  0
LINE
  5
20F
330
17
100
AcDbEntity
  8
ELEC_CIRCUITO_C5
  6
DASHED
420
2315700
100
AcDbLine
 10
7.55
 20
8.25
 30
0.0
 11
8.5
 21
8.25
 31
0.0
  0
LINE
  5
210
330
17
100
AcDbEntity
  8
ELEC_CIRCUITO_C5
  6
DASHED
420
2315700
100
AcDbLine
 10
8.5
 20
8.25
 30
0.0
 11
8.5
 21
9.5
 31
0.0
  0
LINE
  5
211
330
17
100
AcDbEntity
  8
ELEC_CIRCUITO_C5
  6
DASHED
420
2315700
100
AcDbLine
 10
8.5
 20
9.5
 30
0.0
 11
11.05
 21
9.5
 31
0.0
  0
LINE
  5
212
330
17
100
AcDbEntity
  8
ELEC_CIRCUITO_C5
  6
DASHED
420
2315700
100
AcDbLine
 10
11.05
 20
9.5
 30
0.0
 11
11.05
 21
8.25
 31
0.0
  0
LINE
  5
213
330
17
100
AcDbEntity
  8
ELEC_CIRCUITO_C5
  6
DASHED
420
2315700
100
AcDbLine
 10
11.05
 20
8.25
 30
0.0
 11
11.05
 21
10.75
 31
0.0
  0
TEXT
  5
214
330
17
100
AcDbEntity
  8
ELEC_TEXTOS
100
AcDbText
 10
11.35
 20
10.95
 30
0.0
 40
0.12
  1
C5
 72
1
 11
11.35
 21
10.95
 31
0.0
100
AcDbText
 73
2
  0
TEXT
  5
215
330
17
100
AcDbEntity
  8
ELEC_TEXTOS
100
AcDbText
 10
16.25
 20
11.95
 30
0.0
 40
0.22
  1
TERCER PISO
 72
1
 11
16.25
 21
11.95
 31
0.0
100
AcDbText
 73
2
  0
LINE
  5
216
330
17
100
AcDbEntity
  8
ARQ_MUROS
100
AcDbLine
 10
15.05
 20
10.0
 30
0.0
 11
15.05
 21
10.3
 31
0.0
  0
LINE
  5
217
330
17
100
AcDbEntity
  8
ARQ_MUROS
100
AcDbLine
 10
14.0
 20
10.3
 30
0.0
 11
16.1
 21
10.3
 31
0.0
  0
LINE
  5
218
330
17
100
AcDbEntity
  8
ARQ_MUROS
100
AcDbLine
 10
14.0
 20
10.033333333333333
 30
0.0
 11
15.05
 21
10.033333333333333
 31
0.0
  0
LINE
  5
219
330
17
100
AcDbEntity
  8
ARQ_MUROS
100
AcDbLine
 10
15.05
 20
10.033333333333333
 30
0.0
 11
16.1
 21
10.033333333333333
 31
0.0
  0
LINE
  5
21A
330
17
100
AcDbEntity
  8
ARQ_MUROS
100
AcDbLine
 10
14.0
 20
10.066666666666666
 30
0.0
 11
15.05
 21
10.066666666666666
 31
0.0
  0
LINE
  5
21B
330
17
100
AcDbEntity
  8
ARQ_MUROS
100
AcDbLine
 10
15.05
 20
10.066666666666666
 30
0.0
 11
16.1
 21
10.066666666666666
 31
0.0
  0
LINE
  5
21C
330
17
100
AcDbEntity
  8
ARQ_MUROS
100
AcDbLine
 10
14.0
 20
10.1
 30
0.0
 11
15.05
 21
10.1
 31
0.0
  0
LINE
  5
21D
330
17
100
AcDbEntity
  8
ARQ_MUROS
100
AcDbLine
 10
15.05
 20
10.1
 30
0.0
 11
16.1
 21
10.1
 31
0.0
  0
LINE
  5
21E
330
17
100
AcDbEntity
  8
ARQ_MUROS
100
AcDbLine
 10
14.0
 20
10.133333333333333
 30
0.0
 11
15.05
 21
10.133333333333333
 31
0.0
  0
LINE
  5
21F
330
17
100
AcDbEntity
  8
ARQ_MUROS
100
AcDbLine
 10
15.05
 20
10.133333333333333
 30
0.0
 11
16.1
 21
10.133333333333333
 31
0.0
  0
LINE
  5
220
330
17
100
AcDbEntity
  8
ARQ_MUROS
100
AcDbLine
 10
14.0
 20
10.166666666666668
 30
0.0
 11
15.05
 21
10.166666666666668
 31
0.0
  0
LINE
  5
221
330
17
100
AcDbEntity
  8
ARQ_MUROS
100
AcDbLine
 10
15.05
 20
10.166666666666668
 30
0.0
 11
16.1
 21
10.166666666666668
 31
0.0
  0
LINE
  5
222
330
17
100
AcDbEntity
  8
ARQ_MUROS
100
AcDbLine
 10
14.0
 20
10.2
 30
0.0
 11
15.05
 21
10.2
 31
0.0
  0
LINE
  5
223
330
17
100
AcDbEntity
  8
ARQ_MUROS
100
AcDbLine
 10
15.05
 20
10.2
 30
0.0
 11
16.1
 21
10.2
 31
0.0
  0
LINE
  5
224
330
17
100
AcDbEntity
  8
ARQ_MUROS
100
AcDbLine
 10
14.0
 20
10.233333333333334
 30
0.0
 11
15.05
 21
10.233333333333334
 31
0.0
  0
LINE
  5
225
330
17
100
AcDbEntity
  8
ARQ_MUROS
100
AcDbLine
 10
15.05
 20
10.233333333333334
 30
0.0
 11
16.1
 21
10.233333333333334
 31
0.0
  0
LINE
  5
226
330
17
100
AcDbEntity
  8
ARQ_MUROS
100
AcDbLine
 10
14.0
 20
10.266666666666666
 30
0.0
 11
15.05
 21
10.266666666666666
 31
0.0
  0
LINE
  5
227
330
17
100
AcDbEntity
  8
ARQ_MUROS
100
AcDbLine
 10
15.05
 20
10.266666666666666
 30
0.0
 11
16.1
 21
10.266666666666666
 31
0.0
  0
LINE
  5
228
330
17
100
AcDbEntity
  8
ARQ_MUROS
100
AcDbLine
 10
14.0
 20
2.425
 30
0.0
 11
16.25
 21
2.425
 31
0.0
  0
LINE
  5
229
330
17
100
AcDbEntity
  8
ARQ_MUROS
100
AcDbLine
 10
14.0
 20
2.575
 30
0.0
 11
16.25
 21
2.575
 31
0.0
  0
LINE
  5
22A
330
17
100
AcDbEntity
  8
ARQ_MUROS
100
AcDbLine
 10
14.0
 20
11.425
 30
0.0
 11
16.1
 21
11.425
 31
0.0
  0
LINE
  5
22B
330
17
100
AcDbEntity
  8
ARQ_MUROS
100
AcDbLine
 10
14.0
 20
11.575
 30
0.0
 11
16.1
 21
11.575
 31
0.0
  0
LINE
  5
22C
330
17
100
AcDbEntity
  8
ARQ_MUROS
100
AcDbLine
 10
18.425
 20
10.0
 30
0.0
 11
18.425
 21
11.5
 31
0.0
  0
LINE
  5
22D
330
17
100
AcDbEntity
  8
ARQ_MUROS
100
AcDbLine
 10
18.575
 20
10.0
 30
0.0
 11
18.575
 21
11.5
 31
0.0
  0
LINE
  5
22E
330
17
100
AcDbEntity
  8
ARQ_MUROS
100
AcDbLine
 10
13.925
 20
10.0
 30
0.0
 11
13.925
 21
11.5
 31
0.0
  0
LINE
  5
22F
330
17
100
AcDbEntity
  8
ARQ_MUROS
100
AcDbLine
 10
14.075
 20
10.0
 30
0.0
 11
14.075
 21
11.5
 31
0.0
  0
LINE
  5
230
330
17
100
AcDbEntity
  8
ARQ_MUROS
100
AcDbLine
 10
16.25
 20
2.425
 30
0.0
 11
18.5
 21
2.425
 31
0.0
  0
LINE
  5
231
330
17
100
AcDbEntity
  8
ARQ_MUROS
100
AcDbLine
 10
16.25
 20
2.575
 30
0.0
 11
18.5
 21
2.575
 31
0.0
  0
LINE
  5
232
330
17
100
AcDbEntity
  8
ARQ_MUROS
100
AcDbLine
 10
14.0
 20
9.925
 30
0.0
 11
16.25
 21
9.925
 31
0.0
  0
LINE
  5
233
330
17
100
AcDbEntity
  8
ARQ_MUROS
100
AcDbLine
 10
14.0
 20
10.075
 30
0.0
 11
16.25
 21
10.075
 31
0.0
  0
LINE
  5
234
330
17
100
AcDbEntity
  8
ARQ_MUROS
100
AcDbLine
 10
16.25
 20
11.425
 30
0.0
 11
18.5
 21
11.425
 31
0.0
  0
LINE
  5
235
330
17
100
AcDbEntity
  8
ARQ_MUROS
100
AcDbLine
 10
16.25
 20
11.575
 30
0.0
 11
18.5
 21
11.575
 31
0.0
  0
LINE
  5
236
330
17
100
AcDbEntity
  8
ARQ_MUROS
100
AcDbLine
 10
18.425
 20
2.5
 30
0.0
 11
18.425
 21
10.0
 31
0.0
  0
LINE
  5
237
330
17
100
AcDbEntity
  8
ARQ_MUROS
100
AcDbLine
 10
18.575
 20
2.5
 30
0.0
 11
18.575
 21
10.0
 31
0.0
  0
LINE
  5
238
330
17
100
AcDbEntity
  8
ARQ_MUROS
100
AcDbLine
 10
13.925
 20
2.5
 30
0.0
 11
13.925
 21
10.0
 31
0.0
  0
LINE
  5
239
330
17
100
AcDbEntity
  8
ARQ_MUROS
100
AcDbLine
 10
14.075
 20
2.5
 30
0.0
 11
14.075
 21
10.0
 31
0.0
  0
LINE
  5
23A
330
17
100
AcDbEntity
  8
ARQ_MUROS
100
AcDbLine
 10
16.175
 20
2.5
 30
0.0
 11
16.175
 21
10.0
 31
0.0
  0
LINE
  5
23B
330
17
100
AcDbEntity
  8
ARQ_MUROS
100
AcDbLine
 10
16.325
 20
2.5
 30
0.0
 11
16.325
 21
10.0
 31
0.0
  0
LINE
  5
23C
330
17
100
AcDbEntity
  8
ARQ_MUROS
100
AcDbLine
 10
16.25
 20
9.925
 30
0.0
 11
18.5
 21
9.925
 31
0.0
  0
LINE
  5
23D
330
17
100
AcDbEntity
  8
ARQ_MUROS
100
AcDbLine
 10
16.25
 20
10.075
 30
0.0
 11
18.5
 21
10.075
 31
0.0
  0
LINE
  5
23E
330
17
100
AcDbEntity
  8
ARQ_MUROS
100
AcDbLine
 10
14.0
 20
11.425
 30
0.0
 11
16.25
 21
11.425
 31
0.0
  0
LINE
  5
23F
330
17
100
AcDbEntity
  8
ARQ_MUROS
100
AcDbLine
 10
14.0
 20
11.575
 30
0.0
 11
16.25
 21
11.575
 31
0.0
  0
LINE
  5
240
330
17
100
AcDbEntity
  8
ARQ_MUROS
100
AcDbLine
 10
14.0
 20
9.925
 30
0.0
 11
16.1
 21
9.925
 31
0.0
  0
LINE
  5
241
330
17
100
AcDbEntity
  8
ARQ_MUROS
100
AcDbLine
 10
14.0
 20
10.075
 30
0.0
 11
16.1
 21
10.075
 31
0.0
  0
LINE
  5
242
330
17
100
AcDbEntity
  8
ARQ_PUERTAS
100
AcDbLine
 10
15.92
 20
10.0
 30
0.0
 11
15.92
 21
9.2
 31
0.0
  0
ARC
  5
243
330
17
100
AcDbEntity
  8
ARQ_PUERTAS
100
AcDbCircle
 10
15.92
 20
10.0
 30
0.0
 40
0.8
100
AcDbArc
 50
180.0
 51
-90.00000000000001
  0
LINE
  5
244
330
17
100
AcDbEntity
  8
ARQ_PUERTAS
100
AcDbLine
 10
16.25
 20
10.0
 30
0.0
 11
16.25
 21
9.2
 31
0.0
  0
ARC
  5
245
330
17
100
AcDbEntity
  8
ARQ_PUERTAS
100
AcDbCircle
 10
16.25
 20
10.0
 30
0.0
 40
0.8
100
AcDbArc
 50
-90.00000000000001
 51
-1.4033418597069752e-14
  0
LINE
  5
246
330
17
100
AcDbEntity
  8
ARQ_PUERTAS
100
AcDbLine
 10
17.37
 20
10.0
 30
0.0
 11
17.37
 21
10.7
 31
0.0
  0
ARC
  5
247
330
17
100
AcDbEntity
  8
ARQ_PUERTAS
100
AcDbCircle
 10
17.37
 20
10.0
 30
0.0
 40
0.7
100
AcDbArc
 50
0.0
 51
90.0
  0
LINE
  5
248
330
17
100
AcDbEntity
  8
ARQ_VENTANAS
100
AcDbLine
 10
15.120000000000001
 20
2.425
 30
0.0
 11
16.12
 21
2.425
 31
0.0
  0
LINE
  5
249
330
17
100
AcDbEntity
  8
ARQ_VENTANAS
100
AcDbLine
 10
16.12
 20
2.425
 30
0.0
 11
16.12
 21
2.575
 31
0.0
  0
LINE
  5
24A
330
17
100
AcDbEntity
  8
ARQ_VENTANAS
100
AcDbLine
 10
16.12
 20
2.575
 30
0.0
 11
15.120000000000001
 21
2.575
 31
0.0
  0
LINE
  5
24B
330
17
100
AcDbEntity
  8
ARQ_VENTANAS
100
AcDbLine
 10
15.120000000000001
 20
2.575
 30
0.0
 11
15.120000000000001
 21
2.425
 31
0.0
  0
LINE
  5
24C
330
17
100
AcDbEntity
  8
ARQ_VENTANAS
100
AcDbLine
 10
15.120000000000001
 20
2.5
 30
0.0
 11
16.12
 21
2.5
 31
0.0
  0
LINE
  5
24D
330
17
100
AcDbEntity
  8
ARQ_VENTANAS
100
AcDbLine
 10
17.37
 20
2.425
 30
0.0
 11
18.37
 21
2.425
 31
0.0
  0
LINE
  5
24E
330
17
100
AcDbEntity
  8
ARQ_VENTANAS
100
AcDbLine
 10
18.37
 20
2.425
 30
0.0
 11
18.37
 21
2.575
 31
0.0
  0
LINE
  5
24F
330
17
100
AcDbEntity
  8
ARQ_VENTANAS
100
AcDbLine
 10
18.37
 20
2.575
 30
0.0
 11
17.37
 21
2.575
 31
0.0
  0
LINE
  5
250
330
17
100
AcDbEntity
  8
ARQ_VENTANAS
100
AcDbLine
 10
17.37
 20
2.575
 30
0.0
 11
17.37
 21
2.425
 31
0.0
  0
LINE
  5
251
330
17
100
AcDbEntity
  8
ARQ_VENTANAS
100
AcDbLine
 10
17.37
 20
2.5
 30
0.0
 11
18.37
 21
2.5
 31
0.0
  0
LINE
  5
252
330
17
100
AcDbEntity
  8
ARQ_VENTANAS
100
AcDbLine
 10
18.425
 20
10.75
 30
0.0
 11
18.575
 21
10.75
 31
0.0
  0
LINE
  5
253
330
17
100
AcDbEntity
  8
ARQ_VENTANAS
100
AcDbLine
 10
18.575
 20
10.75
 30
0.0
 11
18.575
 21
11.55
 31
0.0
  0
LINE
  5
254
330
17
100
AcDbEntity
  8
ARQ_VENTANAS
100
AcDbLine
 10
18.575
 20
11.55
 30
0.0
 11
18.425
 21
11.55
 31
0.0
  0
LINE
  5
255
330
17
100
AcDbEntity
  8
ARQ_VENTANAS
100
AcDbLine
 10
18.425
 20
11.55
 30
0.0
 11
18.425
 21
10.75
 31
0.0
  0
LINE
  5
256
330
17
100
AcDbEntity
  8
ARQ_VENTANAS
100
AcDbLine
 10
18.5
 20
10.75
 30
0.0
 11
18.5
 21
11.55
 31
0.0
  0
LINE
  5
257
330
17
100
AcDbEntity
  8
ARQ_ESCALERAS
100
AcDbLine
 10
14.15
 20
10.0
 30
0.0
 11
14.15
 21
11.5
 31
0.0
  0
LINE
  5
258
330
17
100
AcDbEntity
  8
ARQ_ESCALERAS
100
AcDbLine
 10
16.1
 20
10.0
 30
0.0
 11
16.1
 21
11.5
 31
0.0
  0
LINE
  5
259
330
17
100
AcDbEntity
  8
ARQ_ESCALERAS
100
AcDbLine
 10
14.15
 20
10.0
 30
0.0
 11
16.1
 21
10.0
 31
0.0
  0
LINE
  5
25A
330
17
100
AcDbEntity
  8
ARQ_ESCALERAS
100
AcDbLine
 10
14.15
 20
11.5
 30
0.0
 11
16.1
 21
11.5
 31
0.0
  0
LINE
  5
25B
330
17
100
AcDbEntity
  8
ARQ_ESCALERAS
100
AcDbLine
 10
14.15
 20
10.1875
 30
0.0
 11
16.1
 21
10.1875
 31
0.0
  0
LINE
  5
25C
330
17
100
AcDbEntity
  8
ARQ_ESCALERAS
100
AcDbLine
 10
14.15
 20
10.375
 30
0.0
 11
16.1
 21
10.375
 31
0.0
  0
LINE
  5
25D
330
17
100
AcDbEntity
  8
ARQ_ESCALERAS
100
AcDbLine
 10
14.15
 20
10.5625
 30
0.0
 11
16.1
 21
10.5625
 31
0.0
  0
LINE
  5
25E
330
17
100
AcDbEntity
  8
ARQ_ESCALERAS
100
AcDbLine
 10
14.15
 20
10.75
 30
0.0
 11
16.1
 21
10.75
 31
0.0
  0
LINE
  5
25F
330
17
100
AcDbEntity
  8
ARQ_ESCALERAS
100
AcDbLine
 10
14.15
 20
10.9375
 30
0.0
 11
16.1
 21
10.9375
 31
0.0
  0
LINE
  5
260
330
17
100
AcDbEntity
  8
ARQ_ESCALERAS
100
AcDbLine
 10
14.15
 20
11.125
 30
0.0
 11
16.1
 21
11.125
 31
0.0
  0
LINE
  5
261
330
17
100
AcDbEntity
  8
ARQ_ESCALERAS
100
AcDbLine
 10
14.15
 20
11.3125
 30
0.0
 11
16.1
 21
11.3125
 31
0.0
  0
TEXT
  5
262
330
17
100
AcDbEntity
  8
ARQ_TEXTOS
100
AcDbText
 10
15.125
 20
6.25
 30
0.0
 40
0.16
  1
Dormitorio 4
 72
1
 11
15.125
 21
6.25
 31
0.0
100
AcDbText
 73
2
  0
TEXT
  5
263
330
17
100
AcDbEntity
  8
ARQ_TEXTOS
100
AcDbText
 10
17.375
 20
6.25
 30
0.0
 40
0.16
  1
Dormitorio 5
 72
1
 11
17.375
 21
6.25
 31
0.0
100
AcDbText
 73
2
  0
TEXT
  5
264
330
17
100
AcDbEntity
  8
ARQ_TEXTOS
100
AcDbText
 10
15.125
 20
10.75
 30
0.0
 40
0.16
  1
Pasadizo
 72
1
 11
15.125
 21
10.75
 31
0.0
100
AcDbText
 73
2
  0
TEXT
  5
265
330
17
100
AcDbEntity
  8
ARQ_TEXTOS
100
AcDbText
 10
17.375
 20
10.75
 30
0.0
 40
0.16
  1
Bano
 72
1
 11
17.375
 21
10.75
 31
0.0
100
AcDbText
 73
2
  0
TEXT
  5
266
330
17
100
AcDbEntity
  8
ARQ_TEXTOS
100
AcDbText
 10
15.05
 20
10.75
 30
0.0
 40
0.16
  1
Escalera
 72
1
 11
15.05
 21
10.75
 31
0.0
100
AcDbText
 73
2
  0
CIRCLE
  5
267
330
17
100
AcDbEntity
  8
ELEC_LUMINARIAS
420
14449945
100
AcDbCircle
 10
15.120000000000001
 20
4.3
 30
0.0
 40
0.1
  0
LINE
  5
268
330
17
100
AcDbEntity
  8
ELEC_LUMINARIAS
420
14449945
100
AcDbLine
 10
15.120000000000001
 20
4.3999999999999995
 30
0.0
 11
15.120000000000001
 21
4.4799999999999995
 31
0.0
  0
LINE
  5
269
330
17
100
AcDbEntity
  8
ELEC_LUMINARIAS
420
14449945
100
AcDbLine
 10
15.120000000000001
 20
4.2
 30
0.0
 11
15.120000000000001
 21
4.12
 31
0.0
  0
LINE
  5
26A
330
17
100
AcDbEntity
  8
ELEC_LUMINARIAS
420
14449945
100
AcDbLine
 10
15.22
 20
4.3
 30
0.0
 11
15.3
 21
4.3
 31
0.0
  0
LINE
  5
26B
330
17
100
AcDbEntity
  8
ELEC_LUMINARIAS
420
14449945
100
AcDbLine
 10
15.020000000000001
 20
4.3
 30
0.0
 11
14.940000000000001
 21
4.3
 31
0.0
  0
CIRCLE
  5
26C
330
17
100
AcDbEntity
  8
ELEC_LUMINARIAS
420
14449945
100
AcDbCircle
 10
15.120000000000001
 20
4.3
 30
0.0
 40
0.02
  0
TEXT
  5
26D
330
17
100
AcDbEntity
  8
ELEC_TEXTOS
100
AcDbText
 10
15.4
 20
4.4799999999999995
 30
0.0
 40
0.12
  1
C6
 72
1
 11
15.4
 21
4.4799999999999995
 31
0.0
100
AcDbText
 73
2
  0
CIRCLE
  5
26E
330
17
100
AcDbEntity
  8
ELEC_LUMINARIAS
420
14449945
100
AcDbCircle
 10
15.120000000000001
 20
7.9
 30
0.0
 40
0.1
  0
LINE
  5
26F
330
17
100
AcDbEntity
  8
ELEC_LUMINARIAS
420
14449945
100
AcDbLine
 10
15.120000000000001
 20
8.0
 30
0.0
 11
15.120000000000001
 21
8.08
 31
0.0
  0
LINE
  5
270
330
17
100
AcDbEntity
  8
ELEC_LUMINARIAS
420
14449945
100
AcDbLine
 10
15.120000000000001
 20
7.800000000000001
 30
0.0
 11
15.120000000000001
 21
7.720000000000001
 31
0.0
  0
LINE
  5
271
330
17
100
AcDbEntity
  8
ELEC_LUMINARIAS
420
14449945
100
AcDbLine
 10
15.22
 20
7.9
 30
0.0
 11
15.3
 21
7.9
 31
0.0
  0
LINE
  5
272
330
17
100
AcDbEntity
  8
ELEC_LUMINARIAS
420
14449945
100
AcDbLine
 10
15.020000000000001
 20
7.9
 30
0.0
 11
14.940000000000001
 21
7.9
 31
0.0
  0
CIRCLE
  5
273
330
17
100
AcDbEntity
  8
ELEC_LUMINARIAS
420
14449945
100
AcDbCircle
 10
15.120000000000001
 20
7.9
 30
0.0
 40
0.02
  0
TEXT
  5
274
330
17
100
AcDbEntity
  8
ELEC_TEXTOS
100
AcDbText
 10
15.4
 20
8.08
 30
0.0
 40
0.12
  1
C6
 72
1
 11
15.4
 21
8.08
 31
0.0
100
AcDbText
 73
2
  0
CIRCLE
  5
275
330
17
100
AcDbEntity
  8
ELEC_LUMINARIAS
420
14449945
100
AcDbCircle
 10
17.37
 20
4.3
 30
0.0
 40
0.1
  0
LINE
  5
276
330
17
100
AcDbEntity
  8
ELEC_LUMINARIAS
420
14449945
100
AcDbLine
 10
17.37
 20
4.3999999999999995
 30
0.0
 11
17.37
 21
4.4799999999999995
 31
0.0
  0
LINE
  5
277
330
17
100
AcDbEntity
  8
ELEC_LUMINARIAS
420
14449945
100
AcDbLine
 10
17.37
 20
4.2
 30
0.0
 11
17.37
 21
4.12
 31
0.0
  0
LINE
  5
278
330
17
100
AcDbEntity
  8
ELEC_LUMINARIAS
420
14449945
100
AcDbLine
 10
17.470000000000002
 20
4.3
 30
0.0
 11
17.55
 21
4.3
 31
0.0
  0
LINE
  5
279
330
17
100
AcDbEntity
  8
ELEC_LUMINARIAS
420
14449945
100
AcDbLine
 10
17.27
 20
4.3
 30
0.0
 11
17.19
 21
4.3
 31
0.0
  0
CIRCLE
  5
27A
330
17
100
AcDbEntity
  8
ELEC_LUMINARIAS
420
14449945
100
AcDbCircle
 10
17.37
 20
4.3
 30
0.0
 40
0.02
  0
TEXT
  5
27B
330
17
100
AcDbEntity
  8
ELEC_TEXTOS
100
AcDbText
 10
17.650000000000002
 20
4.4799999999999995
 30
0.0
 40
0.12
  1
C6
 72
1
 11
17.650000000000002
 21
4.4799999999999995
 31
0.0
100
AcDbText
 73
2
  0
CIRCLE
  5
27C
330
17
100
AcDbEntity
  8
ELEC_LUMINARIAS
420
14449945
100
AcDbCircle
 10
17.37
 20
7.9
 30
0.0
 40
0.1
  0
LINE
  5
27D
330
17
100
AcDbEntity
  8
ELEC_LUMINARIAS
420
14449945
100
AcDbLine
 10
17.37
 20
8.0
 30
0.0
 11
17.37
 21
8.08
 31
0.0
  0
LINE
  5
27E
330
17
100
AcDbEntity
  8
ELEC_LUMINARIAS
420
14449945
100
AcDbLine
 10
17.37
 20
7.800000000000001
 30
0.0
 11
17.37
 21
7.720000000000001
 31
0.0
  0
LINE
  5
27F
330
17
100
AcDbEntity
  8
ELEC_LUMINARIAS
420
14449945
100
AcDbLine
 10
17.470000000000002
 20
7.9
 30
0.0
 11
17.55
 21
7.9
 31
0.0
  0
LINE
  5
280
330
17
100
AcDbEntity
  8
ELEC_LUMINARIAS
420
14449945
100
AcDbLine
 10
17.27
 20
7.9
 30
0.0
 11
17.19
 21
7.9
 31
0.0
  0
CIRCLE
  5
281
330
17
100
AcDbEntity
  8
ELEC_LUMINARIAS
420
14449945
100
AcDbCircle
 10
17.37
 20
7.9
 30
0.0
 40
0.02
  0
TEXT
  5
282
330
17
100
AcDbEntity
  8
ELEC_TEXTOS
100
AcDbText
 10
17.650000000000002
 20
8.08
 30
0.0
 40
0.12
  1
C6
 72
1
 11
17.650000000000002
 21
8.08
 31
0.0
100
AcDbText
 73
2
  0
CIRCLE
  5
283
330
17
100
AcDbEntity
  8
ELEC_LUMINARIAS
420
14449945
100
AcDbCircle
 10
15.1
 20
10.75
 30
0.0
 40
0.1
  0
LINE
  5
284
330
17
100
AcDbEntity
  8
ELEC_LUMINARIAS
420
14449945
100
AcDbLine
 10
15.1
 20
10.85
 30
0.0
 11
15.1
 21
10.93
 31
0.0
  0
LINE
  5
285
330
17
100
AcDbEntity
  8
ELEC_LUMINARIAS
420
14449945
100
AcDbLine
 10
15.1
 20
10.65
 30
0.0
 11
15.1
 21
10.57
 31
0.0
  0
LINE
  5
286
330
17
100
AcDbEntity
  8
ELEC_LUMINARIAS
420
14449945
100
AcDbLine
 10
15.2
 20
10.75
 30
0.0
 11
15.28
 21
10.75
 31
0.0
  0
LINE
  5
287
330
17
100
AcDbEntity
  8
ELEC_LUMINARIAS
420
14449945
100
AcDbLine
 10
15.0
 20
10.75
 30
0.0
 11
14.92
 21
10.75
 31
0.0
  0
CIRCLE
  5
288
330
17
100
AcDbEntity
  8
ELEC_LUMINARIAS
420
14449945
100
AcDbCircle
 10
15.1
 20
10.75
 30
0.0
 40
0.02
  0
TEXT
  5
289
330
17
100
AcDbEntity
  8
ELEC_TEXTOS
100
AcDbText
 10
15.379999999999999
 20
10.93
 30
0.0
 40
0.12
  1
C6
 72
1
 11
15.379999999999999
 21
10.93
 31
0.0
100
AcDbText
 73
2
  0
CIRCLE
  5
28A
330
17
100
AcDbEntity
  8
ELEC_LUMINARIAS
420
14449945
100
AcDbCircle
 10
17.35
 20
10.75
 30
0.0
 40
0.1
  0
LINE
  5
28B
330
17
100
AcDbEntity
  8
ELEC_LUMINARIAS
420
14449945
100
AcDbLine
 10
17.35
 20
10.85
 30
0.0
 11
17.35
 21
10.93
 31
0.0
  0
LINE
  5
28C
330
17
100
AcDbEntity
  8
ELEC_LUMINARIAS
420
14449945
100
AcDbLine
 10
17.35
 20
10.65
 30
0.0
 11
17.35
 21
10.57
 31
0.0
  0
LINE
  5
28D
330
17
100
AcDbEntity
  8
ELEC_LUMINARIAS
420
14449945
100
AcDbLine
 10
17.450000000000003
 20
10.75
 30
0.0
 11
17.53
 21
10.75
 31
0.0
  0
LINE
  5
28E
330
17
100
AcDbEntity
  8
ELEC_LUMINARIAS
420
14449945
100
AcDbLine
 10
17.25
 20
10.75
 30
0.0
 11
17.17
 21
10.75
 31
0.0
  0
CIRCLE
  5
28F
330
17
100
AcDbEntity
  8
ELEC_LUMINARIAS
420
14449945
100
AcDbCircle
 10
17.35
 20
10.75
 30
0.0
 40
0.02
  0
TEXT
  5
290
330
17
100
AcDbEntity
  8
ELEC_TEXTOS
100
AcDbText
 10
17.55
 20
11.05
 30
0.0
 40
0.12
  1
C6
 72
1
 11
17.55
 21
11.05
 31
0.0
100
AcDbText
 73
2
  0
CIRCLE
  5
291
330
17
100
AcDbEntity
  8
ELEC_LUMINARIAS
420
14449945
100
AcDbCircle
 10
14.65
 20
11.05
 30
0.0
 40
0.1
  0
LINE
  5
292
330
17
100
AcDbEntity
  8
ELEC_LUMINARIAS
420
14449945
100
AcDbLine
 10
14.65
 20
11.15
 30
0.0
 11
14.65
 21
11.23
 31
0.0
  0
LINE
  5
293
330
17
100
AcDbEntity
  8
ELEC_LUMINARIAS
420
14449945
100
AcDbLine
 10
14.65
 20
10.950000000000001
 30
0.0
 11
14.65
 21
10.870000000000001
 31
0.0
  0
LINE
  5
294
330
17
100
AcDbEntity
  8
ELEC_LUMINARIAS
420
14449945
100
AcDbLine
 10
14.75
 20
11.05
 30
0.0
 11
14.83
 21
11.05
 31
0.0
  0
LINE
  5
295
330
17
100
AcDbEntity
  8
ELEC_LUMINARIAS
420
14449945
100
AcDbLine
 10
14.55
 20
11.05
 30
0.0
 11
14.47
 21
11.05
 31
0.0
  0
CIRCLE
  5
296
330
17
100
AcDbEntity
  8
ELEC_LUMINARIAS
420
14449945
100
AcDbCircle
 10
14.65
 20
11.05
 30
0.0
 40
0.02
  0
TEXT
  5
297
330
17
100
AcDbEntity
  8
ELEC_TEXTOS
100
AcDbText
 10
14.93
 20
11.23
 30
0.0
 40
0.12
  1
C6
 72
1
 11
14.93
 21
11.23
 31
0.0
100
AcDbText
 73
2
  0
CIRCLE
  5
298
330
17
100
AcDbEntity
  8
ELEC_LUMINARIAS
420
14449945
100
AcDbCircle
 10
18.05
 20
10.65
 30
0.0
 40
0.1
  0
LINE
  5
299
330
17
100
AcDbEntity
  8
ELEC_LUMINARIAS
420
14449945
100
AcDbLine
 10
18.05
 20
10.75
 30
0.0
 11
18.05
 21
10.83
 31
0.0
  0
LINE
  5
29A
330
17
100
AcDbEntity
  8
ELEC_LUMINARIAS
420
14449945
100
AcDbLine
 10
18.05
 20
10.55
 30
0.0
 11
18.05
 21
10.47
 31
0.0
  0
LINE
  5
29B
330
17
100
AcDbEntity
  8
ELEC_LUMINARIAS
420
14449945
100
AcDbLine
 10
18.150000000000002
 20
10.65
 30
0.0
 11
18.23
 21
10.65
 31
0.0
  0
LINE
  5
29C
330
17
100
AcDbEntity
  8
ELEC_LUMINARIAS
420
14449945
100
AcDbLine
 10
17.95
 20
10.65
 30
0.0
 11
17.87
 21
10.65
 31
0.0
  0
CIRCLE
  5
29D
330
17
100
AcDbEntity
  8
ELEC_LUMINARIAS
420
14449945
100
AcDbCircle
 10
18.05
 20
10.65
 30
0.0
 40
0.02
  0
TEXT
  5
29E
330
17
100
AcDbEntity
  8
ELEC_TEXTOS
100
AcDbText
 10
18.27
 20
10.35
 30
0.0
 40
0.12
  1
C6
 72
1
 11
18.27
 21
10.35
 31
0.0
100
AcDbText
 73
2
  0
CIRCLE
  5
29F
330
17
100
AcDbEntity
  8
ELEC_INTERRUPTORES
420
14449945
100
AcDbCircle
 10
15.8
 20
9.75
 30
0.0
 40
0.09
  0
LINE
  5
2A0
330
17
100
AcDbEntity
  8
ELEC_INTERRUPTORES
420
14449945
100
AcDbLine
 10
15.860000000000001
 20
9.81
 30
0.0
 11
15.98
 21
9.93
 31
0.0
  0
TEXT
  5
2A1
330
17
100
AcDbEntity
  8
ELEC_INTERRUPTORES
100
AcDbText
 10
15.75
 20
9.51
 30
0.0
 40
0.13
  1
S
 11
15.75
 21
9.51
 31
0.0
100
AcDbText
 73
2
  0
CIRCLE
  5
2A2
330
17
100
AcDbEntity
  8
ELEC_INTERRUPTORES
420
14449945
100
AcDbCircle
 10
16.55
 20
9.75
 30
0.0
 40
0.09
  0
LINE
  5
2A3
330
17
100
AcDbEntity
  8
ELEC_INTERRUPTORES
420
14449945
100
AcDbLine
 10
16.61
 20
9.81
 30
0.0
 11
16.73
 21
9.93
 31
0.0
  0
TEXT
  5
2A4
330
17
100
AcDbEntity
  8
ELEC_INTERRUPTORES
100
AcDbText
 10
16.5
 20
9.51
 30
0.0
 40
0.13
  1
S
 11
16.5
 21
9.51
 31
0.0
100
AcDbText
 73
2
  0
CIRCLE
  5
2A5
330
17
100
AcDbEntity
  8
ELEC_INTERRUPTORES
420
14449945
100
AcDbCircle
 10
17.15
 20
9.75
 30
0.0
 40
0.09
  0
LINE
  5
2A6
330
17
100
AcDbEntity
  8
ELEC_INTERRUPTORES
420
14449945
100
AcDbLine
 10
17.209999999999997
 20
9.81
 30
0.0
 11
17.33
 21
9.93
 31
0.0
  0
TEXT
  5
2A7
330
17
100
AcDbEntity
  8
ELEC_INTERRUPTORES
100
AcDbText
 10
17.099999999999998
 20
9.51
 30
0.0
 40
0.13
  1
S
 11
17.099999999999998
 21
9.51
 31
0.0
100
AcDbText
 73
2
  0
CIRCLE
  5
2A8
330
17
100
AcDbEntity
  8
ELEC_INTERRUPTORES
420
14449945
100
AcDbCircle
 10
15.9
 20
10.85
 30
0.0
 40
0.09
  0
LINE
  5
2A9
330
17
100
AcDbEntity
  8
ELEC_INTERRUPTORES
420
14449945
100
AcDbLine
 10
15.96
 20
10.91
 30
0.0
 11
16.080000000000002
 21
11.03
 31
0.0
  0
TEXT
  5
2AA
330
17
100
AcDbEntity
  8
ELEC_INTERRUPTORES
100
AcDbText
 10
15.85
 20
10.61
 30
0.0
 40
0.13
  1
S3
 11
15.85
 21
10.61
 31
0.0
100
AcDbText
 73
2
  0
CIRCLE
  5
2AB
330
17
100
AcDbEntity
  8
ELEC_TOMACORRIENTES
420
2315700
100
AcDbCircle
 10
15.120000000000001
 20
3.05
 30
0.0
 40
0.13
  0
LINE
  5
2AC
330
17
100
AcDbEntity
  8
ELEC_TOMACORRIENTES
420
2315700
100
AcDbLine
 10
15.030000000000001
 20
3.01
 30
0.0
 11
15.21
 21
3.01
 31
0.0
  0
LINE
  5
2AD
330
17
100
AcDbEntity
  8
ELEC_TOMACORRIENTES
420
2315700
100
AcDbLine
 10
15.030000000000001
 20
3.09
 30
0.0
 11
15.21
 21
3.09
 31
0.0
  0
TEXT
  5
2AE
330
17
100
AcDbEntity
  8
ELEC_TOMACORRIENTES
100
AcDbText
 10
15.340000000000002
 20
2.9
 30
0.0
 40
0.14
  1
T
 11
15.340000000000002
 21
2.9
 31
0.0
100
AcDbText
 73
2
  0
TEXT
  5
2AF
330
17
100
AcDbEntity
  8
ELEC_TEXTOS
100
AcDbText
 10
15.370000000000001
 20
2.8299999999999996
 30
0.0
 40
0.12
  1
C7
 72
1
 11
15.370000000000001
 21
2.8299999999999996
 31
0.0
100
AcDbText
 73
2
  0
CIRCLE
  5
2B0
330
17
100
AcDbEntity
  8
ELEC_TOMACORRIENTES
420
2315700
100
AcDbCircle
 10
14.55
 20
6.25
 30
0.0
 40
0.13
  0
LINE
  5
2B1
330
17
100
AcDbEntity
  8
ELEC_TOMACORRIENTES
420
2315700
100
AcDbLine
 10
14.46
 20
6.21
 30
0.0
 11
14.64
 21
6.21
 31
0.0
  0
LINE
  5
2B2
330
17
100
AcDbEntity
  8
ELEC_TOMACORRIENTES
420
2315700
100
AcDbLine
 10
14.46
 20
6.29
 30
0.0
 11
14.64
 21
6.29
 31
0.0
  0
TEXT
  5
2B3
330
17
100
AcDbEntity
  8
ELEC_TOMACORRIENTES
100
AcDbText
 10
14.770000000000001
 20
6.1
 30
0.0
 40
0.14
  1
T
 11
14.770000000000001
 21
6.1
 31
0.0
100
AcDbText
 73
2
  0
TEXT
  5
2B4
330
17
100
AcDbEntity
  8
ELEC_TEXTOS
100
AcDbText
 10
14.8
 20
6.03
 30
0.0
 40
0.12
  1
C7
 72
1
 11
14.8
 21
6.03
 31
0.0
100
AcDbText
 73
2
  0
CIRCLE
  5
2B5
330
17
100
AcDbEntity
  8
ELEC_TOMACORRIENTES
420
2315700
100
AcDbCircle
 10
16.0
 20
9.5
 30
0.0
 40
0.13
  0
LINE
  5
2B6
330
17
100
AcDbEntity
  8
ELEC_TOMACORRIENTES
420
2315700
100
AcDbLine
 10
15.91
 20
9.46
 30
0.0
 11
16.09
 21
9.46
 31
0.0
  0
LINE
  5
2B7
330
17
100
AcDbEntity
  8
ELEC_TOMACORRIENTES
420
2315700
100
AcDbLine
 10
15.91
 20
9.54
 30
0.0
 11
16.09
 21
9.54
 31
0.0
  0
TEXT
  5
2B8
330
17
100
AcDbEntity
  8
ELEC_TOMACORRIENTES
100
AcDbText
 10
16.22
 20
9.35
 30
0.0
 40
0.14
  1
T
 11
16.22
 21
9.35
 31
0.0
100
AcDbText
 73
2
  0
TEXT
  5
2B9
330
17
100
AcDbEntity
  8
ELEC_TEXTOS
100
AcDbText
 10
16.25
 20
9.28
 30
0.0
 40
0.12
  1
C7
 72
1
 11
16.25
 21
9.28
 31
0.0
100
AcDbText
 73
2
  0
CIRCLE
  5
2BA
330
17
100
AcDbEntity
  8
ELEC_TOMACORRIENTES
420
2315700
100
AcDbCircle
 10
17.37
 20
3.05
 30
0.0
 40
0.13
  0
LINE
  5
2BB
330
17
100
AcDbEntity
  8
ELEC_TOMACORRIENTES
420
2315700
100
AcDbLine
 10
17.28
 20
3.01
 30
0.0
 11
17.46
 21
3.01
 31
0.0
  0
LINE
  5
2BC
330
17
100
AcDbEntity
  8
ELEC_TOMACORRIENTES
420
2315700
100
AcDbLine
 10
17.28
 20
3.09
 30
0.0
 11
17.46
 21
3.09
 31
0.0
  0
TEXT
  5
2BD
330
17
100
AcDbEntity
  8
ELEC_TOMACORRIENTES
100
AcDbText
 10
17.59
 20
2.9
 30
0.0
 40
0.14
  1
T
 11
17.59
 21
2.9
 31
0.0
100
AcDbText
 73
2
  0
TEXT
  5
2BE
330
17
100
AcDbEntity
  8
ELEC_TEXTOS
100
AcDbText
 10
17.62
 20
2.8299999999999996
 30
0.0
 40
0.12
  1
C7
 72
1
 11
17.62
 21
2.8299999999999996
 31
0.0
100
AcDbText
 73
2
  0
CIRCLE
  5
2BF
330
17
100
AcDbEntity
  8
ELEC_TOMACORRIENTES
420
2315700
100
AcDbCircle
 10
18.05
 20
6.25
 30
0.0
 40
0.13
  0
LINE
  5
2C0
330
17
100
AcDbEntity
  8
ELEC_TOMACORRIENTES
420
2315700
100
AcDbLine
 10
17.96
 20
6.21
 30
0.0
 11
18.14
 21
6.21
 31
0.0
  0
LINE
  5
2C1
330
17
100
AcDbEntity
  8
ELEC_TOMACORRIENTES
420
2315700
100
AcDbLine
 10
17.96
 20
6.29
 30
0.0
 11
18.14
 21
6.29
 31
0.0
  0
TEXT
  5
2C2
330
17
100
AcDbEntity
  8
ELEC_TOMACORRIENTES
100
AcDbText
 10
18.27
 20
6.1
 30
0.0
 40
0.14
  1
T
 11
18.27
 21
6.1
 31
0.0
100
AcDbText
 73
2
  0
TEXT
  5
2C3
330
17
100
AcDbEntity
  8
ELEC_TEXTOS
100
AcDbText
 10
18.3
 20
6.03
 30
0.0
 40
0.12
  1
C7
 72
1
 11
18.3
 21
6.03
 31
0.0
100
AcDbText
 73
2
  0
CIRCLE
  5
2C4
330
17
100
AcDbEntity
  8
ELEC_TOMACORRIENTES
420
2315700
100
AcDbCircle
 10
18.15
 20
9.5
 30
0.0
 40
0.13
  0
LINE
  5
2C5
330
17
100
AcDbEntity
  8
ELEC_TOMACORRIENTES
420
2315700
100
AcDbLine
 10
18.06
 20
9.46
 30
0.0
 11
18.24
 21
9.46
 31
0.0
  0
LINE
  5
2C6
330
17
100
AcDbEntity
  8
ELEC_TOMACORRIENTES
420
2315700
100
AcDbLine
 10
18.06
 20
9.54
 30
0.0
 11
18.24
 21
9.54
 31
0.0
  0
TEXT
  5
2C7
330
17
100
AcDbEntity
  8
ELEC_TOMACORRIENTES
100
AcDbText
 10
18.369999999999997
 20
9.35
 30
0.0
 40
0.14
  1
T
 11
18.369999999999997
 21
9.35
 31
0.0
100
AcDbText
 73
2
  0
TEXT
  5
2C8
330
17
100
AcDbEntity
  8
ELEC_TEXTOS
100
AcDbText
 10
18.4
 20
9.28
 30
0.0
 40
0.12
  1
C7
 72
1
 11
18.4
 21
9.28
 31
0.0
100
AcDbText
 73
2
  0
LINE
  5
2C9
330
17
100
AcDbEntity
  8
ELEC_TOMACORRIENTES
420
2315700
100
AcDbLine
 10
17.85
 20
10.75
 30
0.0
 11
18.25
 21
10.75
 31
0.0
  0
ARC
  5
2CA
330
17
100
AcDbEntity
  8
ELEC_TOMACORRIENTES
420
2315700
100
AcDbCircle
 10
18.05
 20
10.75
 30
0.0
 40
0.1
100
AcDbArc
 50
0.0
 51
180.0
  0
LINE
  5
2CB
330
17
100
AcDbEntity
  8
ELEC_TOMACORRIENTES
420
2315700
100
AcDbLine
 10
18.05
 20
10.85
 30
0.0
 11
18.05
 21
10.97
 31
0.0
  0
LINE
  5
2CC
330
17
100
AcDbEntity
  8
ELEC_TOMACORRIENTES
420
2315700
100
AcDbLine
 10
17.990000000000002
 20
10.97
 30
0.0
 11
18.11
 21
10.97
 31
0.0
  0
TEXT
  5
2CD
330
17
100
AcDbEntity
  8
ELEC_TEXTOS
100
AcDbText
 10
17.63
 20
10.97
 30
0.0
 40
0.12
  1
C7
 72
1
 11
17.63
 21
10.97
 31
0.0
100
AcDbText
 73
2
  0
CIRCLE
  5
2CE
330
17
100
AcDbEntity
  8
ELEC_TOMACORRIENTES
420
7879840
100
AcDbCircle
 10
17.0
 20
10.75
 30
0.0
 40
0.13
  0
LINE
  5
2CF
330
17
100
AcDbEntity
  8
ELEC_TOMACORRIENTES
420
7879840
100
AcDbLine
 10
16.91
 20
10.71
 30
0.0
 11
17.09
 21
10.71
 31
0.0
  0
LINE
  5
2D0
330
17
100
AcDbEntity
  8
ELEC_TOMACORRIENTES
420
7879840
100
AcDbLine
 10
16.91
 20
10.79
 30
0.0
 11
17.09
 21
10.79
 31
0.0
  0
TEXT
  5
2D1
330
17
100
AcDbEntity
  8
ELEC_TOMACORRIENTES
100
AcDbText
 10
17.22
 20
10.6
 30
0.0
 40
0.14
  1
T
 11
17.22
 21
10.6
 31
0.0
100
AcDbText
 73
2
  0
TEXT
  5
2D2
330
17
100
AcDbEntity
  8
ELEC_TEXTOS
100
AcDbText
 10
16.64
 20
10.97
 30
0.0
 40
0.12
  1
C8
 72
1
 11
16.64
 21
10.97
 31
0.0
100
AcDbText
 73
2
  0
CIRCLE
  5
2D3
330
17
100
AcDbEntity
  8
ELEC_TOMACORRIENTES
420
7879840
100
AcDbCircle
 10
17.55
 20
10.75
 30
0.0
 40
0.13
  0
LINE
  5
2D4
330
17
100
AcDbEntity
  8
ELEC_TOMACORRIENTES
420
7879840
100
AcDbLine
 10
17.46
 20
10.71
 30
0.0
 11
17.64
 21
10.71
 31
0.0
  0
LINE
  5
2D5
330
17
100
AcDbEntity
  8
ELEC_TOMACORRIENTES
420
7879840
100
AcDbLine
 10
17.46
 20
10.79
 30
0.0
 11
17.64
 21
10.79
 31
0.0
  0
TEXT
  5
2D6
330
17
100
AcDbEntity
  8
ELEC_TOMACORRIENTES
100
AcDbText
 10
17.77
 20
10.6
 30
0.0
 40
0.14
  1
T
 11
17.77
 21
10.6
 31
0.0
100
AcDbText
 73
2
  0
TEXT
  5
2D7
330
17
100
AcDbEntity
  8
ELEC_TEXTOS
100
AcDbText
 10
17.73
 20
10.97
 30
0.0
 40
0.12
  1
C8
 72
1
 11
17.73
 21
10.97
 31
0.0
100
AcDbText
 73
2
  0
CIRCLE
  5
2D8
330
17
100
AcDbEntity
  8
ELEC_TOMACORRIENTES
420
1999430
100
AcDbCircle
 10
18.35
 20
10.55
 30
0.0
 40
0.13
  0
LINE
  5
2D9
330
17
100
AcDbEntity
  8
ELEC_TOMACORRIENTES
420
1999430
100
AcDbLine
 10
18.26
 20
10.510000000000002
 30
0.0
 11
18.44
 21
10.510000000000002
 31
0.0
  0
LINE
  5
2DA
330
17
100
AcDbEntity
  8
ELEC_TOMACORRIENTES
420
1999430
100
AcDbLine
 10
18.26
 20
10.59
 30
0.0
 11
18.44
 21
10.59
 31
0.0
  0
TEXT
  5
2DB
330
17
100
AcDbEntity
  8
ELEC_TOMACORRIENTES
100
AcDbText
 10
18.57
 20
10.4
 30
0.0
 40
0.14
  1
T
 11
18.57
 21
10.4
 31
0.0
100
AcDbText
 73
2
  0
TEXT
  5
2DC
330
17
100
AcDbEntity
  8
ELEC_TOMACORRIENTES
100
AcDbText
 10
18.610000000000003
 20
10.65
 30
0.0
 40
0.12
  1
B
 72
1
 11
18.610000000000003
 21
10.65
 31
0.0
100
AcDbText
 73
2
  0
TEXT
  5
2DD
330
17
100
AcDbEntity
  8
ELEC_TEXTOS
100
AcDbText
 10
18.59
 20
10.21
 30
0.0
 40
0.12
  1
C9
 72
1
 11
18.59
 21
10.21
 31
0.0
100
AcDbText
 73
2
  0
LINE
  5
2DE
330
17
100
AcDbEntity
  8
ELEC_TABLEROS
420
13114910
100
AcDbLine
 10
15.8
 20
10.6
 30
0.0
 11
16.3
 21
10.6
 31
0.0
  0
LINE
  5
2DF
330
17
100
AcDbEntity
  8
ELEC_TABLEROS
420
13114910
100
AcDbLine
 10
16.3
 20
10.6
 30
0.0
 11
16.3
 21
10.9
 31
0.0
  0
LINE
  5
2E0
330
17
100
AcDbEntity
  8
ELEC_TABLEROS
420
13114910
100
AcDbLine
 10
16.3
 20
10.9
 30
0.0
 11
15.8
 21
10.9
 31
0.0
  0
LINE
  5
2E1
330
17
100
AcDbEntity
  8
ELEC_TABLEROS
420
13114910
100
AcDbLine
 10
15.8
 20
10.9
 30
0.0
 11
15.8
 21
10.6
 31
0.0
  0
LINE
  5
2E2
330
17
100
AcDbEntity
  8
ELEC_TABLEROS
420
13114910
100
AcDbLine
 10
15.8
 20
10.6
 30
0.0
 11
16.3
 21
10.9
 31
0.0
  0
LINE
  5
2E3
330
17
100
AcDbEntity
  8
ELEC_TABLEROS
420
13114910
100
AcDbLine
 10
15.8
 20
10.6
 30
0.0
 11
16.3
 21
10.6
 31
0.0
  0
LINE
  5
2E4
330
17
100
AcDbEntity
  8
ELEC_TABLEROS
420
13114910
100
AcDbLine
 10
16.3
 20
10.6
 30
0.0
 11
16.3
 21
10.9
 31
0.0
  0
LINE
  5
2E5
330
17
100
AcDbEntity
  8
ELEC_TABLEROS
420
13114910
100
AcDbLine
 10
15.9
 20
10.6
 30
0.0
 11
16.3
 21
10.84
 31
0.0
  0
LINE
  5
2E6
330
17
100
AcDbEntity
  8
ELEC_TABLEROS
420
13114910
100
AcDbLine
 10
16.0
 20
10.6
 30
0.0
 11
16.3
 21
10.78
 31
0.0
  0
LINE
  5
2E7
330
17
100
AcDbEntity
  8
ELEC_TABLEROS
420
13114910
100
AcDbLine
 10
16.1
 20
10.6
 30
0.0
 11
16.3
 21
10.72
 31
0.0
  0
LINE
  5
2E8
330
17
100
AcDbEntity
  8
ELEC_TABLEROS
420
13114910
100
AcDbLine
 10
16.2
 20
10.6
 30
0.0
 11
16.3
 21
10.66
 31
0.0
  0
TEXT
  5
2E9
330
17
100
AcDbEntity
  8
ELEC_TABLEROS
100
AcDbText
 10
16.05
 20
10.41
 30
0.0
 40
0.12
  1
TD-02
 72
1
 11
16.05
 21
10.41
 31
0.0
100
AcDbText
 73
2
  0
LINE
  5
2EA
330
17
100
AcDbEntity
  8
ELEC_CIRCUITO_C6
  6
DASHED
420
14449945
100
AcDbLine
 10
16.05
 20
10.75
 30
0.0
 11
15.1
 21
10.75
 31
0.0
  0
LINE
  5
2EB
330
17
100
AcDbEntity
  8
ELEC_CIRCUITO_C6
  6
DASHED
420
14449945
100
AcDbLine
 10
15.1
 20
10.75
 30
0.0
 11
15.1
 21
7.9
 31
0.0
  0
LINE
  5
2EC
330
17
100
AcDbEntity
  8
ELEC_CIRCUITO_C6
  6
DASHED
420
14449945
100
AcDbLine
 10
15.1
 20
7.9
 30
0.0
 11
15.120000000000001
 21
7.9
 31
0.0
  0
LINE
  5
2ED
330
17
100
AcDbEntity
  8
ELEC_CIRCUITO_C6
  6
DASHED
420
14449945
100
AcDbLine
 10
15.120000000000001
 20
7.9
 30
0.0
 11
15.120000000000001
 21
4.3
 31
0.0
  0
LINE
  5
2EE
330
17
100
AcDbEntity
  8
ELEC_CIRCUITO_C6
  6
DASHED
420
14449945
100
AcDbLine
 10
15.120000000000001
 20
4.3
 30
0.0
 11
17.37
 21
4.3
 31
0.0
  0
LINE
  5
2EF
330
17
100
AcDbEntity
  8
ELEC_CIRCUITO_C6
  6
DASHED
420
14449945
100
AcDbLine
 10
17.37
 20
4.3
 30
0.0
 11
17.37
 21
7.9
 31
0.0
  0
LINE
  5
2F0
330
17
100
AcDbEntity
  8
ELEC_CIRCUITO_C6
  6
DASHED
420
14449945
100
AcDbLine
 10
17.37
 20
7.9
 30
0.0
 11
17.35
 21
7.9
 31
0.0
  0
LINE
  5
2F1
330
17
100
AcDbEntity
  8
ELEC_CIRCUITO_C6
  6
DASHED
420
14449945
100
AcDbLine
 10
17.35
 20
7.9
 30
0.0
 11
17.35
 21
10.75
 31
0.0
  0
LINE
  5
2F2
330
17
100
AcDbEntity
  8
ELEC_CIRCUITO_C6
  6
DASHED
420
14449945
100
AcDbLine
 10
17.35
 20
10.75
 30
0.0
 11
18.05
 21
10.75
 31
0.0
  0
LINE
  5
2F3
330
17
100
AcDbEntity
  8
ELEC_CIRCUITO_C6
  6
DASHED
420
14449945
100
AcDbLine
 10
18.05
 20
10.75
 30
0.0
 11
18.05
 21
10.65
 31
0.0
  0
LINE
  5
2F4
330
17
100
AcDbEntity
  8
ELEC_CIRCUITO_C6
  6
DASHED
420
14449945
100
AcDbLine
 10
18.05
 20
10.65
 30
0.0
 11
14.65
 21
10.65
 31
0.0
  0
LINE
  5
2F5
330
17
100
AcDbEntity
  8
ELEC_CIRCUITO_C6
  6
DASHED
420
14449945
100
AcDbLine
 10
14.65
 20
10.65
 30
0.0
 11
14.65
 21
11.05
 31
0.0
  0
TEXT
  5
2F6
330
17
100
AcDbEntity
  8
ELEC_TEXTOS
100
AcDbText
 10
14.85
 20
11.25
 30
0.0
 40
0.12
  1
C6
 72
1
 11
14.85
 21
11.25
 31
0.0
100
AcDbText
 73
2
  0
LINE
  5
2F7
330
17
100
AcDbEntity
  8
ELEC_CIRCUITO_C7
  6
DASHED
420
2315700
100
AcDbLine
 10
16.05
 20
10.75
 30
0.0
 11
16.0
 21
10.75
 31
0.0
  0
LINE
  5
2F8
330
17
100
AcDbEntity
  8
ELEC_CIRCUITO_C7
  6
DASHED
420
2315700
100
AcDbLine
 10
16.0
 20
10.75
 30
0.0
 11
16.0
 21
9.5
 31
0.0
  0
LINE
  5
2F9
330
17
100
AcDbEntity
  8
ELEC_CIRCUITO_C7
  6
DASHED
420
2315700
100
AcDbLine
 10
16.0
 20
9.5
 30
0.0
 11
14.55
 21
9.5
 31
0.0
  0
LINE
  5
2FA
330
17
100
AcDbEntity
  8
ELEC_CIRCUITO_C7
  6
DASHED
420
2315700
100
AcDbLine
 10
14.55
 20
9.5
 30
0.0
 11
14.55
 21
6.25
 31
0.0
  0
LINE
  5
2FB
330
17
100
AcDbEntity
  8
ELEC_CIRCUITO_C7
  6
DASHED
420
2315700
100
AcDbLine
 10
14.55
 20
6.25
 30
0.0
 11
15.120000000000001
 21
6.25
 31
0.0
  0
LINE
  5
2FC
330
17
100
AcDbEntity
  8
ELEC_CIRCUITO_C7
  6
DASHED
420
2315700
100
AcDbLine
 10
15.120000000000001
 20
6.25
 30
0.0
 11
15.120000000000001
 21
3.05
 31
0.0
  0
LINE
  5
2FD
330
17
100
AcDbEntity
  8
ELEC_CIRCUITO_C7
  6
DASHED
420
2315700
100
AcDbLine
 10
15.120000000000001
 20
3.05
 30
0.0
 11
17.37
 21
3.05
 31
0.0
  0
LINE
  5
2FE
330
17
100
AcDbEntity
  8
ELEC_CIRCUITO_C7
  6
DASHED
420
2315700
100
AcDbLine
 10
17.37
 20
3.05
 30
0.0
 11
18.05
 21
3.05
 31
0.0
  0
LINE
  5
2FF
330
17
100
AcDbEntity
  8
ELEC_CIRCUITO_C7
  6
DASHED
420
2315700
100
AcDbLine
 10
18.05
 20
3.05
 30
0.0
 11
18.05
 21
6.25
 31
0.0
  0
LINE
  5
300
330
17
100
AcDbEntity
  8
ELEC_CIRCUITO_C7
  6
DASHED
420
2315700
100
AcDbLine
 10
18.05
 20
6.25
 30
0.0
 11
18.05
 21
9.5
 31
0.0
  0
LINE
  5
301
330
17
100
AcDbEntity
  8
ELEC_CIRCUITO_C7
  6
DASHED
420
2315700
100
AcDbLine
 10
18.05
 20
9.5
 30
0.0
 11
18.05
 21
10.75
 31
0.0
  0
TEXT
  5
302
330
17
100
AcDbEntity
  8
ELEC_TEXTOS
100
AcDbText
 10
18.34
 20
11.42
 30
0.0
 40
0.12
  1
C7
 72
1
 11
18.34
 21
11.42
 31
0.0
100
AcDbText
 73
2
  0
LINE
  5
303
330
17
100
AcDbEntity
  8
ELEC_CIRCUITO_C8
  6
DASHED
420
7879840
100
AcDbLine
 10
16.05
 20
10.75
 30
0.0
 11
17.0
 21
10.75
 31
0.0
  0
LINE
  5
304
330
17
100
AcDbEntity
  8
ELEC_CIRCUITO_C8
  6
DASHED
420
7879840
100
AcDbLine
 10
17.0
 20
10.75
 30
0.0
 11
17.55
 21
10.75
 31
0.0
  0
TEXT
  5
305
330
17
100
AcDbEntity
  8
ELEC_TEXTOS
100
AcDbText
 10
17.25
 20
11.15
 30
0.0
 40
0.12
  1
C8
 72
1
 11
17.25
 21
11.15
 31
0.0
100
AcDbText
 73
2
  0
LINE
  5
306
330
17
100
AcDbEntity
  8
ELEC_CIRCUITO_C9
  6
DASHED
420
1999430
100
AcDbLine
 10
16.05
 20
10.75
 30
0.0
 11
18.35
 21
10.75
 31
0.0
  0
LINE
  5
307
330
17
100
AcDbEntity
  8
ELEC_CIRCUITO_C9
  6
DASHED
420
1999430
100
AcDbLine
 10
18.35
 20
10.75
 30
0.0
 11
18.35
 21
10.55
 31
0.0
  0
TEXT
  5
308
330
17
100
AcDbEntity
  8
ELEC_TEXTOS
100
AcDbText
 10
18.58
 20
10.62
 30
0.0
 40
0.12
  1
C9
 72
1
 11
18.58
 21
10.62
 31
0.0
100
AcDbText
 73
2
  0
LINE
  5
309
330
17
100
AcDbEntity
  8
ELEC_LEYENDA
420
1315860
100
AcDbLine
 10
19.7
 20
3.950000000000001
 30
0.0
 11
26.9
 21
3.950000000000001
 31
0.0
  0
LINE
  5
30A
330
17
100
AcDbEntity
  8
ELEC_LEYENDA
420
1315860
100
AcDbLine
 10
26.9
 20
3.950000000000001
 30
0.0
 11
26.9
 21
12.3
 31
0.0
  0
LINE
  5
30B
330
17
100
AcDbEntity
  8
ELEC_LEYENDA
420
1315860
100
AcDbLine
 10
26.9
 20
12.3
 30
0.0
 11
19.7
 21
12.3
 31
0.0
  0
LINE
  5
30C
330
17
100
AcDbEntity
  8
ELEC_LEYENDA
420
1315860
100
AcDbLine
 10
19.7
 20
12.3
 30
0.0
 11
19.7
 21
3.950000000000001
 31
0.0
  0
TEXT
  5
30D
330
17
100
AcDbEntity
  8
ELEC_LEYENDA
100
AcDbText
 10
23.3
 20
11.950000000000001
 30
0.0
 40
0.24
  1
LEYENDA ELECTRICA
 72
1
 11
23.3
 21
11.950000000000001
 31
0.0
100
AcDbText
 73
2
  0
CIRCLE
  5
30E
330
17
100
AcDbEntity
  8
ELEC_LUMINARIAS
420
14449945
100
AcDbCircle
 10
20.15
 20
11.4
 30
0.0
 40
0.1
  0
LINE
  5
30F
330
17
100
AcDbEntity
  8
ELEC_LUMINARIAS
420
14449945
100
AcDbLine
 10
20.15
 20
11.5
 30
0.0
 11
20.15
 21
11.58
 31
0.0
  0
LINE
  5
310
330
17
100
AcDbEntity
  8
ELEC_LUMINARIAS
420
14449945
100
AcDbLine
 10
20.15
 20
11.3
 30
0.0
 11
20.15
 21
11.22
 31
0.0
  0
LINE
  5
311
330
17
100
AcDbEntity
  8
ELEC_LUMINARIAS
420
14449945
100
AcDbLine
 10
20.25
 20
11.4
 30
0.0
 11
20.33
 21
11.4
 31
0.0
  0
LINE
  5
312
330
17
100
AcDbEntity
  8
ELEC_LUMINARIAS
420
14449945
100
AcDbLine
 10
20.049999999999997
 20
11.4
 30
0.0
 11
19.97
 21
11.4
 31
0.0
  0
CIRCLE
  5
313
330
17
100
AcDbEntity
  8
ELEC_LUMINARIAS
420
14449945
100
AcDbCircle
 10
20.15
 20
11.4
 30
0.0
 40
0.02
  0
TEXT
  5
314
330
17
100
AcDbEntity
  8
ELEC_LEYENDA
100
AcDbText
 10
20.599999999999998
 20
11.4
 30
0.0
 40
0.16
  1
Luminaria de techo
 11
20.599999999999998
 21
11.4
 31
0.0
100
AcDbText
 73
2
  0
CIRCLE
  5
315
330
17
100
AcDbEntity
  8
ELEC_INTERRUPTORES
420
14449945
100
AcDbCircle
 10
20.15
 20
10.85
 30
0.0
 40
0.09
  0
LINE
  5
316
330
17
100
AcDbEntity
  8
ELEC_INTERRUPTORES
420
14449945
100
AcDbLine
 10
20.209999999999997
 20
10.91
 30
0.0
 11
20.33
 21
11.03
 31
0.0
  0
TEXT
  5
317
330
17
100
AcDbEntity
  8
ELEC_INTERRUPTORES
100
AcDbText
 10
20.099999999999998
 20
10.61
 30
0.0
 40
0.13
  1
S
 11
20.099999999999998
 21
10.61
 31
0.0
100
AcDbText
 73
2
  0
TEXT
  5
318
330
17
100
AcDbEntity
  8
ELEC_LEYENDA
100
AcDbText
 10
20.599999999999998
 20
10.85
 30
0.0
 40
0.16
  1
Interruptor simple
 11
20.599999999999998
 21
10.85
 31
0.0
100
AcDbText
 73
2
  0
CIRCLE
  5
319
330
17
100
AcDbEntity
  8
ELEC_INTERRUPTORES
420
14449945
100
AcDbCircle
 10
20.15
 20
10.299999999999999
 30
0.0
 40
0.09
  0
LINE
  5
31A
330
17
100
AcDbEntity
  8
ELEC_INTERRUPTORES
420
14449945
100
AcDbLine
 10
20.209999999999997
 20
10.36
 30
0.0
 11
20.33
 21
10.479999999999999
 31
0.0
  0
TEXT
  5
31B
330
17
100
AcDbEntity
  8
ELEC_INTERRUPTORES
100
AcDbText
 10
20.099999999999998
 20
10.059999999999999
 30
0.0
 40
0.13
  1
S3
 11
20.099999999999998
 21
10.059999999999999
 31
0.0
100
AcDbText
 73
2
  0
TEXT
  5
31C
330
17
100
AcDbEntity
  8
ELEC_LEYENDA
100
AcDbText
 10
20.599999999999998
 20
10.299999999999999
 30
0.0
 40
0.16
  1
Interruptor conmutado
 11
20.599999999999998
 21
10.299999999999999
 31
0.0
100
AcDbText
 73
2
  0
CIRCLE
  5
31D
330
17
100
AcDbEntity
  8
ELEC_TOMACORRIENTES
420
2315700
100
AcDbCircle
 10
20.15
 20
9.749999999999998
 30
0.0
 40
0.13
  0
LINE
  5
31E
330
17
100
AcDbEntity
  8
ELEC_TOMACORRIENTES
420
2315700
100
AcDbLine
 10
20.06
 20
9.709999999999999
 30
0.0
 11
20.24
 21
9.709999999999999
 31
0.0
  0
LINE
  5
31F
330
17
100
AcDbEntity
  8
ELEC_TOMACORRIENTES
420
2315700
100
AcDbLine
 10
20.06
 20
9.789999999999997
 30
0.0
 11
20.24
 21
9.789999999999997
 31
0.0
  0
TEXT
  5
320
330
17
100
AcDbEntity
  8
ELEC_TOMACORRIENTES
100
AcDbText
 10
20.369999999999997
 20
9.599999999999998
 30
0.0
 40
0.14
  1
T
 11
20.369999999999997
 21
9.599999999999998
 31
0.0
100
AcDbText
 73
2
  0
TEXT
  5
321
330
17
100
AcDbEntity
  8
ELEC_LEYENDA
100
AcDbText
 10
20.599999999999998
 20
9.749999999999998
 30
0.0
 40
0.16
  1
Tomacorriente doble con tierra
 11
20.599999999999998
 21
9.749999999999998
 31
0.0
100
AcDbText
 73
2
  0
LINE
  5
322
330
17
100
AcDbEntity
  8
ELEC_TOMACORRIENTES
420
2315700
100
AcDbLine
 10
19.95
 20
9.199999999999998
 30
0.0
 11
20.349999999999998
 21
9.199999999999998
 31
0.0
  0
ARC
  5
323
330
17
100
AcDbEntity
  8
ELEC_TOMACORRIENTES
420
2315700
100
AcDbCircle
 10
20.15
 20
9.199999999999998
 30
0.0
 40
0.1
100
AcDbArc
 50
0.0
 51
180.0
  0
LINE
  5
324
330
17
100
AcDbEntity
  8
ELEC_TOMACORRIENTES
420
2315700
100
AcDbLine
 10
20.15
 20
9.299999999999997
 30
0.0
 11
20.15
 21
9.419999999999998
 31
0.0
  0
LINE
  5
325
330
17
100
AcDbEntity
  8
ELEC_TOMACORRIENTES
420
2315700
100
AcDbLine
 10
20.09
 20
9.419999999999998
 30
0.0
 11
20.209999999999997
 21
9.419999999999998
 31
0.0
  0
TEXT
  5
326
330
17
100
AcDbEntity
  8
ELEC_LEYENDA
100
AcDbText
 10
20.599999999999998
 20
9.199999999999998
 30
0.0
 40
0.16
  1
Tomacorriente protegido
 11
20.599999999999998
 21
9.199999999999998
 31
0.0
100
AcDbText
 73
2
  0
CIRCLE
  5
327
330
17
100
AcDbEntity
  8
ELEC_TOMACORRIENTES
420
13114910
100
AcDbCircle
 10
20.15
 20
8.649999999999997
 30
0.0
 40
0.13
  0
LINE
  5
328
330
17
100
AcDbEntity
  8
ELEC_TOMACORRIENTES
420
13114910
100
AcDbLine
 10
20.06
 20
8.599999999999996
 30
0.0
 11
20.24
 21
8.599999999999996
 31
0.0
  0
LINE
  5
329
330
17
100
AcDbEntity
  8
ELEC_TOMACORRIENTES
420
13114910
100
AcDbLine
 10
20.06
 20
8.649999999999997
 30
0.0
 11
20.24
 21
8.649999999999997
 31
0.0
  0
LINE
  5
32A
330
17
100
AcDbEntity
  8
ELEC_TOMACORRIENTES
420
13114910
100
AcDbLine
 10
20.06
 20
8.699999999999998
 30
0.0
 11
20.24
 21
8.699999999999998
 31
0.0
  0
TEXT
  5
32B
330
17
100
AcDbEntity
  8
ELEC_TOMACORRIENTES
100
AcDbText
 10
20.369999999999997
 20
8.499999999999996
 30
0.0
 40
0.14
  1
C
 11
20.369999999999997
 21
8.499999999999996
 31
0.0
100
AcDbText
 73
2
  0
TEXT
  5
32C
330
17
100
AcDbEntity
  8
ELEC_LEYENDA
100
AcDbText
 10
20.599999999999998
 20
8.649999999999997
 30
0.0
 40
0.16
  1
Tomacorriente especial con tierra
 11
20.599999999999998
 21
8.649999999999997
 31
0.0
100
AcDbText
 73
2
  0
LINE
  5
32D
330
17
100
AcDbEntity
  8
ELEC_TABLEROS
420
13114910
100
AcDbLine
 10
19.9
 20
7.949999999999996
 30
0.0
 11
20.4
 21
7.949999999999996
 31
0.0
  0
LINE
  5
32E
330
17
100
AcDbEntity
  8
ELEC_TABLEROS
420
13114910
100
AcDbLine
 10
20.4
 20
7.949999999999996
 30
0.0
 11
20.4
 21
8.249999999999996
 31
0.0
  0
LINE
  5
32F
330
17
100
AcDbEntity
  8
ELEC_TABLEROS
420
13114910
100
AcDbLine
 10
20.4
 20
8.249999999999996
 30
0.0
 11
19.9
 21
8.249999999999996
 31
0.0
  0
LINE
  5
330
330
17
100
AcDbEntity
  8
ELEC_TABLEROS
420
13114910
100
AcDbLine
 10
19.9
 20
8.249999999999996
 30
0.0
 11
19.9
 21
7.949999999999996
 31
0.0
  0
LINE
  5
331
330
17
100
AcDbEntity
  8
ELEC_TABLEROS
420
13114910
100
AcDbLine
 10
19.9
 20
7.949999999999996
 30
0.0
 11
20.4
 21
8.249999999999996
 31
0.0
  0
LINE
  5
332
330
17
100
AcDbEntity
  8
ELEC_TABLEROS
420
13114910
100
AcDbLine
 10
19.9
 20
7.949999999999996
 30
0.0
 11
20.4
 21
7.949999999999996
 31
0.0
  0
LINE
  5
333
330
17
100
AcDbEntity
  8
ELEC_TABLEROS
420
13114910
100
AcDbLine
 10
20.4
 20
7.949999999999996
 30
0.0
 11
20.4
 21
8.249999999999996
 31
0.0
  0
LINE
  5
334
330
17
100
AcDbEntity
  8
ELEC_TABLEROS
420
13114910
100
AcDbLine
 10
20.0
 20
7.949999999999996
 30
0.0
 11
20.4
 21
8.189999999999996
 31
0.0
  0
LINE
  5
335
330
17
100
AcDbEntity
  8
ELEC_TABLEROS
420
13114910
100
AcDbLine
 10
20.099999999999998
 20
7.949999999999996
 30
0.0
 11
20.4
 21
8.129999999999995
 31
0.0
  0
LINE
  5
336
330
17
100
AcDbEntity
  8
ELEC_TABLEROS
420
13114910
100
AcDbLine
 10
20.2
 20
7.949999999999996
 30
0.0
 11
20.4
 21
8.069999999999997
 31
0.0
  0
LINE
  5
337
330
17
100
AcDbEntity
  8
ELEC_TABLEROS
420
13114910
100
AcDbLine
 10
20.299999999999997
 20
7.949999999999996
 30
0.0
 11
20.4
 21
8.009999999999996
 31
0.0
  0
TEXT
  5
338
330
17
100
AcDbEntity
  8
ELEC_TABLEROS
100
AcDbText
 10
20.15
 20
7.759999999999996
 30
0.0
 40
0.12
  1
TG
 72
1
 11
20.15
 21
7.759999999999996
 31
0.0
100
AcDbText
 73
2
  0
TEXT
  5
339
330
17
100
AcDbEntity
  8
ELEC_LEYENDA
100
AcDbText
 10
20.599999999999998
 20
8.099999999999996
 30
0.0
 40
0.16
  1
Tablero general/subtablero
 11
20.599999999999998
 21
8.099999999999996
 31
0.0
100
AcDbText
 73
2
  0
CIRCLE
  5
33A
330
17
100
AcDbEntity
  8
ELEC_MEDIDOR
420
1999430
100
AcDbCircle
 10
20.15
 20
7.549999999999996
 30
0.0
 40
0.18
  0
TEXT
  5
33B
330
17
100
AcDbEntity
  8
ELEC_MEDIDOR
100
AcDbText
 10
20.15
 20
7.549999999999996
 30
0.0
 40
0.14
  1
M
 72
1
 11
20.15
 21
7.549999999999996
 31
0.0
100
AcDbText
 73
2
  0
TEXT
  5
33C
330
17
100
AcDbEntity
  8
ELEC_LEYENDA
100
AcDbText
 10
20.599999999999998
 20
7.549999999999996
 30
0.0
 40
0.16
  1
Medidor referencial
 11
20.599999999999998
 21
7.549999999999996
 31
0.0
100
AcDbText
 73
2
  0
TEXT
  5
33D
330
17
100
AcDbEntity
  8
ELEC_LEYENDA
100
AcDbText
 10
23.3
 20
6.799999999999996
 30
0.0
 40
0.2
  1
CIRCUITOS
 72
1
 11
23.3
 21
6.799999999999996
 31
0.0
100
AcDbText
 73
2
  0
LINE
  5
33E
330
17
100
AcDbEntity
  8
ELEC_CIRCUITO_C1
  6
DASHED
420
14449945
100
AcDbLine
 10
19.95
 20
6.449999999999997
 30
0.0
 11
20.45
 21
6.449999999999997
 31
0.0
  0
TEXT
  5
33F
330
17
100
AcDbEntity
  8
ELEC_LEYENDA
100
AcDbText
 10
20.599999999999998
 20
6.449999999999997
 30
0.0
 40
0.115
  1
C1: Alumbrado primer piso
 11
20.599999999999998
 21
6.449999999999997
 31
0.0
100
AcDbText
 73
2
  0
LINE
  5
340
330
17
100
AcDbEntity
  8
ELEC_CIRCUITO_C2
  6
DASHED
420
2315700
100
AcDbLine
 10
19.95
 20
6.199999999999997
 30
0.0
 11
20.45
 21
6.199999999999997
 31
0.0
  0
TEXT
  5
341
330
17
100
AcDbEntity
  8
ELEC_LEYENDA
100
AcDbText
 10
20.599999999999998
 20
6.199999999999997
 30
0.0
 40
0.115
  1
C2: Tomacorrientes generales primer piso
 11
20.599999999999998
 21
6.199999999999997
 31
0.0
100
AcDbText
 73
2
  0
LINE
  5
342
330
17
100
AcDbEntity
  8
ELEC_CIRCUITO_C3
  6
DASHED
420
13114910
100
AcDbLine
 10
19.95
 20
5.949999999999997
 30
0.0
 11
20.45
 21
5.949999999999997
 31
0.0
  0
TEXT
  5
343
330
17
100
AcDbEntity
  8
ELEC_LEYENDA
100
AcDbText
 10
20.599999999999998
 20
5.949999999999997
 30
0.0
 40
0.115
  1
C3: Cocina
 11
20.599999999999998
 21
5.949999999999997
 31
0.0
100
AcDbText
 73
2
  0
LINE
  5
344
330
17
100
AcDbEntity
  8
ELEC_CIRCUITO_C4
  6
DASHED
420
14449945
100
AcDbLine
 10
19.95
 20
5.699999999999997
 30
0.0
 11
20.45
 21
5.699999999999997
 31
0.0
  0
TEXT
  5
345
330
17
100
AcDbEntity
  8
ELEC_LEYENDA
100
AcDbText
 10
20.599999999999998
 20
5.699999999999997
 30
0.0
 40
0.115
  1
C4: Alumbrado segundo piso
 11
20.599999999999998
 21
5.699999999999997
 31
0.0
100
AcDbText
 73
2
  0
LINE
  5
346
330
17
100
AcDbEntity
  8
ELEC_CIRCUITO_C5
  6
DASHED
420
2315700
100
AcDbLine
 10
19.95
 20
5.449999999999997
 30
0.0
 11
20.45
 21
5.449999999999997
 31
0.0
  0
TEXT
  5
347
330
17
100
AcDbEntity
  8
ELEC_LEYENDA
100
AcDbText
 10
20.599999999999998
 20
5.449999999999997
 30
0.0
 40
0.115
  1
C5: Tomacorrientes generales segundo piso
 11
20.599999999999998
 21
5.449999999999997
 31
0.0
100
AcDbText
 73
2
  0
LINE
  5
348
330
17
100
AcDbEntity
  8
ELEC_CIRCUITO_C6
  6
DASHED
420
14449945
100
AcDbLine
 10
19.95
 20
5.199999999999997
 30
0.0
 11
20.45
 21
5.199999999999997
 31
0.0
  0
TEXT
  5
349
330
17
100
AcDbEntity
  8
ELEC_LEYENDA
100
AcDbText
 10
20.599999999999998
 20
5.199999999999997
 30
0.0
 40
0.115
  1
C6: Alumbrado tercer piso
 11
20.599999999999998
 21
5.199999999999997
 31
0.0
100
AcDbText
 73
2
  0
LINE
  5
34A
330
17
100
AcDbEntity
  8
ELEC_CIRCUITO_C7
  6
DASHED
420
2315700
100
AcDbLine
 10
19.95
 20
4.949999999999997
 30
0.0
 11
20.45
 21
4.949999999999997
 31
0.0
  0
TEXT
  5
34B
330
17
100
AcDbEntity
  8
ELEC_LEYENDA
100
AcDbText
 10
20.599999999999998
 20
4.949999999999997
 30
0.0
 40
0.115
  1
C7: Tomacorrientes generales tercer piso
 11
20.599999999999998
 21
4.949999999999997
 31
0.0
100
AcDbText
 73
2
  0
LINE
  5
34C
330
17
100
AcDbEntity
  8
ELEC_CIRCUITO_C8
  6
DASHED
420
7879840
100
AcDbLine
 10
19.95
 20
4.699999999999997
 30
0.0
 11
20.45
 21
4.699999999999997
 31
0.0
  0
TEXT
  5
34D
330
17
100
AcDbEntity
  8
ELEC_LEYENDA
100
AcDbText
 10
20.599999999999998
 20
4.699999999999997
 30
0.0
 40
0.115
  1
C8: Lavanderia
 11
20.599999999999998
 21
4.699999999999997
 31
0.0
100
AcDbText
 73
2
  0
LINE
  5
34E
330
17
100
AcDbEntity
  8
ELEC_CIRCUITO_C9
  6
DASHED
420
1999430
100
AcDbLine
 10
19.95
 20
4.449999999999997
 30
0.0
 11
20.45
 21
4.449999999999997
 31
0.0
  0
TEXT
  5
34F
330
17
100
AcDbEntity
  8
ELEC_LEYENDA
100
AcDbText
 10
20.599999999999998
 20
4.449999999999997
 30
0.0
 40
0.115
  1
C9: Bomba de agua
 11
20.599999999999998
 21
4.449999999999997
 31
0.0
100
AcDbText
 73
2
  0
LINE
  5
350
330
17
100
AcDbEntity
  8
ELEC_ROTULO
420
1315860
100
AcDbLine
 10
19.7
 20
-0.4
 30
0.0
 11
27.7
 21
-0.4
 31
0.0
  0
LINE
  5
351
330
17
100
AcDbEntity
  8
ELEC_ROTULO
420
1315860
100
AcDbLine
 10
27.7
 20
-0.4
 30
0.0
 11
27.7
 21
3.15
 31
0.0
  0
LINE
  5
352
330
17
100
AcDbEntity
  8
ELEC_ROTULO
420
1315860
100
AcDbLine
 10
27.7
 20
3.15
 30
0.0
 11
19.7
 21
3.15
 31
0.0
  0
LINE
  5
353
330
17
100
AcDbEntity
  8
ELEC_ROTULO
420
1315860
100
AcDbLine
 10
19.7
 20
3.15
 30
0.0
 11
19.7
 21
-0.4
 31
0.0
  0
LINE
  5
354
330
17
100
AcDbEntity
  8
ELEC_ROTULO
420
1315860
100
AcDbLine
 10
19.7
 20
2.5
 30
0.0
 11
27.7
 21
2.5
 31
0.0
  0
LINE
  5
355
330
17
100
AcDbEntity
  8
ELEC_ROTULO
420
1315860
100
AcDbLine
 10
19.7
 20
1.9
 30
0.0
 11
27.7
 21
1.9
 31
0.0
  0
LINE
  5
356
330
17
100
AcDbEntity
  8
ELEC_ROTULO
420
1315860
100
AcDbLine
 10
19.7
 20
1.2999999999999998
 30
0.0
 11
27.7
 21
1.2999999999999998
 31
0.0
  0
LINE
  5
357
330
17
100
AcDbEntity
  8
ELEC_ROTULO
420
1315860
100
AcDbLine
 10
19.7
 20
0.6999999999999996
 30
0.0
 11
27.7
 21
0.6999999999999996
 31
0.0
  0
LINE
  5
358
330
17
100
AcDbEntity
  8
ELEC_ROTULO
420
1315860
100
AcDbLine
 10
19.7
 20
0.09999999999999998
 30
0.0
 11
27.7
 21
0.09999999999999998
 31
0.0
  0
LINE
  5
359
330
17
100
AcDbEntity
  8
ELEC_ROTULO
420
1315860
100
AcDbLine
 10
23.95
 20
-0.4
 30
0.0
 11
23.95
 21
0.7999999999999999
 31
0.0
  0
TEXT
  5
35A
330
17
100
AcDbEntity
  8
ELEC_ROTULO
100
AcDbText
 10
19.95
 20
2.81
 30
0.0
 40
0.17
  1
PROYECTO: VIVIENDA UNIFAMILIAR
 11
19.95
 21
2.81
 31
0.0
100
AcDbText
 73
2
  0
TEXT
  5
35B
330
17
100
AcDbEntity
  8
ELEC_ROTULO
100
AcDbText
 10
19.95
 20
2.2
 30
0.0
 40
0.14
  1
PROPIETARIO: RENZO GABRIEL MAMANI GALINDO
 11
19.95
 21
2.2
 31
0.0
100
AcDbText
 73
2
  0
TEXT
  5
35C
330
17
100
AcDbEntity
  8
ELEC_ROTULO
100
AcDbText
 10
19.95
 20
1.5999999999999999
 30
0.0
 40
0.14
  1
UBICACION: JR. LIMA S/N - CAPACHICA - PUNO
 11
19.95
 21
1.5999999999999999
 31
0.0
100
AcDbText
 73
2
  0
TEXT
  5
35D
330
17
100
AcDbEntity
  8
ELEC_ROTULO
100
AcDbText
 10
19.95
 20
1.0
 30
0.0
 40
0.16
  1
PLANO: IE-04 CIRCUITOS Y CANALIZACIONES
 11
19.95
 21
1.0
 31
0.0
100
AcDbText
 73
2
  0
TEXT
  5
35E
330
17
100
AcDbEntity
  8
ELEC_ROTULO
100
AcDbText
 10
19.95
 20
0.3999999999999999
 30
0.0
 40
0.13
  1
VERSION: v1
 11
19.95
 21
0.3999999999999999
 31
0.0
100
AcDbText
 73
2
  0
TEXT
  5
35F
330
17
100
AcDbEntity
  8
ELEC_ROTULO
100
AcDbText
 10
24.15
 20
0.3999999999999999
 30
0.0
 40
0.13
  1
ESCALA: REFERENCIAL
 11
24.15
 21
0.3999999999999999
 31
0.0
100
AcDbText
 73
2
  0
TEXT
  5
360
330
17
100
AcDbEntity
  8
ELEC_ROTULO
100
AcDbText
 10
19.95
 20
-0.020000000000000018
 30
0.0
 40
0.13
  1
NORMA: CNE-U / RNE EM.010
 11
19.95
 21
-0.020000000000000018
 31
0.0
100
AcDbText
 73
2
  0
TEXT
  5
361
330
17
100
AcDbEntity
  8
ELEC_ROTULO
100
AcDbText
 10
24.15
 20
-0.020000000000000018
 30
0.0
 40
0.13
  1
FECHA: 2026-06-03
 11
24.15
 21
-0.020000000000000018
 31
0.0
100
AcDbText
 73
2
  0
ENDSEC
  0
SECTION
  2
OBJECTS
  0
DICTIONARY
  5
A
330
0
100
AcDbDictionary
281
1
  3
ACAD_COLOR
350
B
  3
ACAD_GROUP
350
C
  3
ACAD_LAYOUT
350
D
  3
ACAD_MATERIAL
350
E
  3
ACAD_MLEADERSTYLE
350
F
  3
ACAD_MLINESTYLE
350
10
  3
ACAD_PLOTSETTINGS
350
11
  3
ACAD_PLOTSTYLENAME
350
12
  3
ACAD_SCALELIST
350
14
  3
ACAD_TABLESTYLE
350
15
  3
ACAD_VISUALSTYLE
350
16
  3
EZDXF_META
350
2D
  0
DICTIONARY
  5
B
330
A
100
AcDbDictionary
281
1
  0
DICTIONARY
  5
C
330
A
100
AcDbDictionary
281
1
  0
DICTIONARY
  5
D
330
A
100
AcDbDictionary
281
1
  3
Model
350
1A
  3
Layout1
350
1E
  0
DICTIONARY
  5
E
330
A
100
AcDbDictionary
281
1
  3
ByBlock
350
1F
  3
ByLayer
350
20
  3
Global
350
21
  0
DICTIONARY
  5
F
330
A
100
AcDbDictionary
281
1
  3
Standard
350
2C
  0
DICTIONARY
  5
10
330
A
100
AcDbDictionary
281
1
  3
Standard
350
22
  0
DICTIONARY
  5
11
330
A
100
AcDbDictionary
281
1
  0
ACDBDICTIONARYWDFLT
  5
12
330
A
100
AcDbDictionary
281
1
  3
Normal
350
13
100
AcDbDictionaryWithDefault
340
13
  0
ACDBPLACEHOLDER
  5
13
330
12
  0
DICTIONARY
  5
14
330
A
100
AcDbDictionary
281
1
  0
DICTIONARY
  5
15
330
A
100
AcDbDictionary
281
1
  0
DICTIONARY
  5
16
330
A
100
AcDbDictionary
281
1
  0
LAYOUT
  5
1A
330
D
100
AcDbPlotSettings
  1

  4
A3
  6

 40
7.5
 41
20.0
 42
7.5
 43
20.0
 44
420.0
 45
297.0
 46
0.0
 47
0.0
 48
0.0
 49
0.0
140
0.0
141
0.0
142
1.0
143
1.0
 70
1024
 72
1
 73
0
 74
5
  7

 75
16
 76
0
 77
2
 78
300
147
1.0
148
0.0
149
0.0
100
AcDbLayout
  1
Model
 70
1
 71
0
 10
0.0
 20
0.0
 11
420.0
 21
297.0
 12
0.0
 22
0.0
 32
0.0
 14
1e+20
 24
1e+20
 34
1e+20
 15
-1e+20
 25
-1e+20
 35
-1e+20
146
0.0
 13
0.0
 23
0.0
 33
0.0
 16
1.0
 26
0.0
 36
0.0
 17
0.0
 27
1.0
 37
0.0
 76
1
330
17
  0
LAYOUT
  5
1E
330
D
100
AcDbPlotSettings
  1

  4
A3
  6

 40
7.5
 41
20.0
 42
7.5
 43
20.0
 44
420.0
 45
297.0
 46
0.0
 47
0.0
 48
0.0
 49
0.0
140
0.0
141
0.0
142
1.0
143
1.0
 70
0
 72
1
 73
0
 74
5
  7

 75
16
 76
0
 77
2
 78
300
147
1.0
148
0.0
149
0.0
100
AcDbLayout
  1
Layout1
 70
1
 71
1
 10
0.0
 20
0.0
 11
420.0
 21
297.0
 12
0.0
 22
0.0
 32
0.0
 14
1e+20
 24
1e+20
 34
1e+20
 15
-1e+20
 25
-1e+20
 35
-1e+20
146
0.0
 13
0.0
 23
0.0
 33
0.0
 16
1.0
 26
0.0
 36
0.0
 17
0.0
 27
1.0
 37
0.0
 76
1
330
1B
  0
MATERIAL
  5
1F
102
{ACAD_REACTORS
330
E
102
}
330
E
100
AcDbMaterial
  1
ByBlock
  2

 70
0
 40
1.0
 71
1
 41
1.0
 91
-1023410177
 42
1.0
 72
1
  3

 73
1
 74
1
 75
1
 44
0.5
 73
0
 45
1.0
 46
1.0
 77
1
  4

 78
1
 79
1
170
1
 48
1.0
171
1
  6

172
1
173
1
174
1
140
1.0
141
1.0
175
1
  7

176
1
177
1
178
1
143
1.0
179
1
  8

270
1
271
1
272
1
145
1.0
146
1.0
273
1
  9

274
1
275
1
276
1
 42
1.0
 72
1
  3

 73
1
 74
1
 75
1
 94
63
  0
MATERIAL
  5
20
102
{ACAD_REACTORS
330
E
102
}
330
E
100
AcDbMaterial
  1
ByLayer
  2

 70
0
 40
1.0
 71
1
 41
1.0
 91
-1023410177
 42
1.0
 72
1
  3

 73
1
 74
1
 75
1
 44
0.5
 73
0
 45
1.0
 46
1.0
 77
1
  4

 78
1
 79
1
170
1
 48
1.0
171
1
  6

172
1
173
1
174
1
140
1.0
141
1.0
175
1
  7

176
1
177
1
178
1
143
1.0
179
1
  8

270
1
271
1
272
1
145
1.0
146
1.0
273
1
  9

274
1
275
1
276
1
 42
1.0
 72
1
  3

 73
1
 74
1
 75
1
 94
63
  0
MATERIAL
  5
21
102
{ACAD_REACTORS
330
E
102
}
330
E
100
AcDbMaterial
  1
Global
  2

 70
0
 40
1.0
 71
1
 41
1.0
 91
-1023410177
 42
1.0
 72
1
  3

 73
1
 74
1
 75
1
 44
0.5
 73
0
 45
1.0
 46
1.0
 77
1
  4

 78
1
 79
1
170
1
 48
1.0
171
1
  6

172
1
173
1
174
1
140
1.0
141
1.0
175
1
  7

176
1
177
1
178
1
143
1.0
179
1
  8

270
1
271
1
272
1
145
1.0
146
1.0
273
1
  9

274
1
275
1
276
1
 42
1.0
 72
1
  3

 73
1
 74
1
 75
1
 94
63
  0
MLINESTYLE
  5
22
102
{ACAD_REACTORS
330
10
102
}
330
10
100
AcDbMlineStyle
  2
Standard
 70
0
  3

 62
256
 51
90.0
 52
90.0
 71
2
 49
0.5
 62
256
  6
BYLAYER
 49
-0.5
 62
256
  6
BYLAYER
  0
MLEADERSTYLE
  5
2C
102
{ACAD_REACTORS
330
F
102
}
330
F
100
AcDbMLeaderStyle
179
2
170
2
171
1
172
0
 90
2
 40
0.0
 41
0.0
173
1
 91
-1056964608
 92
-2
290
1
 42
2.0
291
1
 43
8.0
  3
Standard
 44
4.0
300

342
29
174
1
175
1
176
0
178
1
 93
-1056964608
 45
4.0
292
0
297
0
 46
4.0
 94
-1056964608
 47
1.0
 49
1.0
140
1.0
294
1
141
0.0
177
0
142
1.0
295
0
296
0
143
3.75
271
0
272
9
273
9
  0
DICTIONARY
  5
2D
330
A
100
AcDbDictionary
280
1
281
1
  3
CREATED_BY_EZDXF
350
2E
  3
WRITTEN_BY_EZDXF
350
364
  0
DICTIONARYVAR
  5
2E
330
2D
100
DictionaryVariables
280
0
  1
1.4.4 @ 2026-06-03T21:10:21.267156+00:00
  0
DICTIONARYVAR
  5
364
330
2D
100
DictionaryVariables
280
0
  1
1.4.4 @ 2026-06-03T21:10:21.350188+00:00
  0
ENDSEC
  0
EOF
