  0
SECTION
  2
HEADER
  9
$ACADVER
  1
AC1024
  9
$ACADMAINTVER
 70
6
  9
$DWGCODEPAGE
  3
ANSI_1252
  9
$LASTSAVEDBY
  1
ezdxf
  9
$INSBASE
 10
0.0
 20
0.0
 30
0.0
  9
$EXTMIN
 10
1e+20
 20
1e+20
 30
1e+20
  9
$EXTMAX
 10
-1e+20
 20
-1e+20
 30
-1e+20
  9
$LIMMIN
 10
0.0
 20
0.0
  9
$LIMMAX
 10
420.0
 20
297.0
  9
$ORTHOMODE
 70
0
  9
$REGENMODE
 70
1
  9
$FILLMODE
 70
1
  9
$QTEXTMODE
 70
0
  9
$MIRRTEXT
 70
1
  9
$LTSCALE
 40
1.0
  9
$ATTMODE
 70
1
  9
$TEXTSIZE
 40
2.5
  9
$TRACEWID
 40
1.0
  9
$TEXTSTYLE
  7
Standard
  9
$CLAYER
  8
0
  9
$CELTYPE
  6
ByLayer
  9
$CECOLOR
 62
256
  9
$CELTSCALE
 40
1.0
  9
$DISPSILH
 70
0
  9
$DIMSCALE
 40
1.0
  9
$DIMASZ
 40
2.5
  9
$DIMEXO
 40
0.625
  9
$DIMDLI
 40
3.75
  9
$DIMRND
 40
0.0
  9
$DIMDLE
 40
0.0
  9
$DIMEXE
 40
1.25
  9
$DIMTP
 40
0.0
  9
$DIMTM
 40
0.0
  9
$DIMTXT
 40
2.5
  9
$DIMCEN
 40
2.5
  9
$DIMTSZ
 40
0.0
  9
$DIMTOL
 70
0
  9
$DIMLIM
 70
0
  9
$DIMTIH
 70
0
  9
$DIMTOH
 70
0
  9
$DIMSE1
 70
0
  9
$DIMSE2
 70
0
  9
$DIMTAD
 70
1
  9
$DIMZIN
 70
8
  9
$DIMBLK
  1

  9
$DIMASO
 70
1
  9
$DIMSHO
 70
1
  9
$DIMPOST
  1

  9
$DIMAPOST
  1

  9
$DIMALT
 70
0
  9
$DIMALTD
 70
3
  9
$DIMALTF
 40
0.03937007874
  9
$DIMLFAC
 40
1.0
  9
$DIMTOFL
 70
1
  9
$DIMTVP
 40
0.0
  9
$DIMTIX
 70
0
  9
$DIMSOXD
 70
0
  9
$DIMSAH
 70
0
  9
$DIMBLK1
  1

  9
$DIMBLK2
  1

  9
$DIMSTYLE
  2
ISO-25
  9
$DIMCLRD
 70
0
  9
$DIMCLRE
 70
0
  9
$DIMCLRT
 70
0
  9
$DIMTFAC
 40
1.0
  9
$DIMGAP
 40
0.625
  9
$DIMJUST
 70
0
  9
$DIMSD1
 70
0
  9
$DIMSD2
 70
0
  9
$DIMTOLJ
 70
0
  9
$DIMTZIN
 70
8
  9
$DIMALTZ
 70
0
  9
$DIMALTTZ
 70
0
  9
$DIMUPT
 70
0
  9
$DIMDEC
 70
2
  9
$DIMTDEC
 70
2
  9
$DIMALTU
 70
2
  9
$DIMALTTD
 70
3
  9
$DIMTXSTY
  7
Standard
  9
$DIMAUNIT
 70
0
  9
$DIMADEC
 70
0
  9
$DIMALTRND
 40
0.0
  9
$DIMAZIN
 70
0
  9
$DIMDSEP
 70
44
  9
$DIMATFIT
 70
3
  9
$DIMFRAC
 70
0
  9
$DIMLDRBLK
  1

  9
$DIMLUNIT
 70
2
  9
$DIMLWD
 70
-2
  9
$DIMLWE
 70
-2
  9
$DIMTMOVE
 70
0
  9
$DIMFXL
 40
1.0
  9
$DIMFXLON
 70
0
  9
$DIMJOGANG
 40
0.785398163397
  9
$DIMTFILL
 70
0
  9
$DIMTFILLCLR
 70
0
  9
$DIMARCSYM
 70
0
  9
$DIMLTYPE
  6

  9
$DIMLTEX1
  6

  9
$DIMLTEX2
  6

  9
$DIMTXTDIRECTION
 70
0
  9
$LUNITS
 70
2
  9
$LUPREC
 70
4
  9
$SKETCHINC
 40
1.0
  9
$FILLETRAD
 40
10.0
  9
$AUNITS
 70
0
  9
$AUPREC
 70
2
  9
$MENU
  1
.
  9
$ELEVATION
 40
0.0
  9
$PELEVATION
 40
0.0
  9
$THICKNESS
 40
0.0
  9
$LIMCHECK
 70
0
  9
$CHAMFERA
 40
0.0
  9
$CHAMFERB
 40
0.0
  9
$CHAMFERC
 40
0.0
  9
$CHAMFERD
 40
0.0
  9
$SKPOLY
 70
0
  9
$TDCREATE
 40
2461195.470601852
  9
$TDUCREATE
 40
2458532.153996898
  9
$TDUPDATE
 40
2461195.470601852
  9
$TDUUPDATE
 40
2458532.1544311
  9
$TDINDWG
 40
0.0
  9
$TDUSRTIMER
 40
0.0
  9
$USRTIMER
 70
1
  9
$ANGBASE
 50
0.0
  9
$ANGDIR
 70
0
  9
$PDMODE
 70
0
  9
$PDSIZE
 40
0.0
  9
$PLINEWID
 40
0.0
  9
$SPLFRAME
 70
0
  9
$SPLINETYPE
 70
6
  9
$SPLINESEGS
 70
8
  9
$HANDSEED
  5
1F2
  9
$SURFTAB1
 70
6
  9
$SURFTAB2
 70
6
  9
$SURFTYPE
 70
6
  9
$SURFU
 70
6
  9
$SURFV
 70
6
  9
$UCSBASE
  2

  9
$UCSNAME
  2

  9
$UCSORG
 10
0.0
 20
0.0
 30
0.0
  9
$UCSXDIR
 10
1.0
 20
0.0
 30
0.0
  9
$UCSYDIR
 10
0.0
 20
1.0
 30
0.0
  9
$UCSORTHOREF
  2

  9
$UCSORTHOVIEW
 70
0
  9
$UCSORGTOP
 10
0.0
 20
0.0
 30
0.0
  9
$UCSORGBOTTOM
 10
0.0
 20
0.0
 30
0.0
  9
$UCSORGLEFT
 10
0.0
 20
0.0
 30
0.0
  9
$UCSORGRIGHT
 10
0.0
 20
0.0
 30
0.0
  9
$UCSORGFRONT
 10
0.0
 20
0.0
 30
0.0
  9
$UCSORGBACK
 10
0.0
 20
0.0
 30
0.0
  9
$PUCSBASE
  2

  9
$PUCSNAME
  2

  9
$PUCSORG
 10
0.0
 20
0.0
 30
0.0
  9
$PUCSXDIR
 10
1.0
 20
0.0
 30
0.0
  9
$PUCSYDIR
 10
0.0
 20
1.0
 30
0.0
  9
$PUCSORTHOREF
  2

  9
$PUCSORTHOVIEW
 70
0
  9
$PUCSORGTOP
 10
0.0
 20
0.0
 30
0.0
  9
$PUCSORGBOTTOM
 10
0.0
 20
0.0
 30
0.0
  9
$PUCSORGLEFT
 10
0.0
 20
0.0
 30
0.0
  9
$PUCSORGRIGHT
 10
0.0
 20
0.0
 30
0.0
  9
$PUCSORGFRONT
 10
0.0
 20
0.0
 30
0.0
  9
$PUCSORGBACK
 10
0.0
 20
0.0
 30
0.0
  9
$USERI1
 70
0
  9
$USERI2
 70
0
  9
$USERI3
 70
0
  9
$USERI4
 70
0
  9
$USERI5
 70
0
  9
$USERR1
 40
0.0
  9
$USERR2
 40
0.0
  9
$USERR3
 40
0.0
  9
$USERR4
 40
0.0
  9
$USERR5
 40
0.0
  9
$WORLDVIEW
 70
1
  9
$SHADEDGE
 70
3
  9
$SHADEDIF
 70
70
  9
$TILEMODE
 70
1
  9
$MAXACTVP
 70
64
  9
$PINSBASE
 10
0.0
 20
0.0
 30
0.0
  9
$PLIMCHECK
 70
0
  9
$PEXTMIN
 10
1e+20
 20
1e+20
 30
1e+20
  9
$PEXTMAX
 10
-1e+20
 20
-1e+20
 30
-1e+20
  9
$PLIMMIN
 10
0.0
 20
0.0
  9
$PLIMMAX
 10
420.0
 20
297.0
  9
$UNITMODE
 70
0
  9
$VISRETAIN
 70
1
  9
$PLINEGEN
 70
0
  9
$PSLTSCALE
 70
1
  9
$TREEDEPTH
 70
3020
  9
$CMLSTYLE
  2
Standard
  9
$CMLJUST
 70
0
  9
$CMLSCALE
 40
20.0
  9
$PROXYGRAPHICS
 70
1
  9
$MEASUREMENT
 70
1
  9
$CELWEIGHT
370
-1
  9
$ENDCAPS
280
0
  9
$JOINSTYLE
280
0
  9
$LWDISPLAY
290
0
  9
$INSUNITS
 70
6
  9
$HYPERLINKBASE
  1

  9
$STYLESHEET
  1

  9
$XEDIT
290
1
  9
$CEPSNTYPE
380
0
  9
$PSTYLEMODE
290
1
  9
$FINGERPRINTGUID
  2
{619F160C-2D7D-41FB-B7BF-1BA81C88025E}
  9
$VERSIONGUID
  2
{9ECA6390-79F7-4E67-9DA5-9A4EB7967169}
  9
$EXTNAMES
290
1
  9
$PSVPSCALE
 40
0.0
  9
$OLESTARTUP
290
0
  9
$SORTENTS
280
127
  9
$INDEXCTL
280
0
  9
$HIDETEXT
280
1
  9
$XCLIPFRAME
280
1
  9
$HALOGAP
280
0
  9
$OBSCOLOR
 70
257
  9
$OBSLTYPE
280
0
  9
$INTERSECTIONDISPLAY
280
0
  9
$INTERSECTIONCOLOR
 70
257
  9
$DIMASSOC
280
2
  9
$PROJECTNAME
  1

  9
$CAMERADISPLAY
290
0
  9
$LENSLENGTH
 40
50.0
  9
$CAMERAHEIGHT
 40
0.0
  9
$STEPSPERSEC
 40
24.0
  9
$STEPSIZE
 40
100.0
  9
$3DDWFPREC
 40
2.0
  9
$PSOLWIDTH
 40
0.005
  9
$PSOLHEIGHT
 40
0.08
  9
$LOFTANG1
 40
1.570796326795
  9
$LOFTANG2
 40
1.570796326795
  9
$LOFTMAG1
 40
0.0
  9
$LOFTMAG2
 40
0.0
  9
$LOFTPARAM
 70
7
  9
$LOFTNORMALS
280
1
  9
$LATITUDE
 40
37.795
  9
$LONGITUDE
 40
-122.394
  9
$NORTHDIRECTION
 40
0.0
  9
$TIMEZONE
 70
-8000
  9
$LIGHTGLYPHDISPLAY
280
1
  9
$TILEMODELIGHTSYNCH
280
1
  9
$CMATERIAL
347
20
  9
$SOLIDHIST
280
0
  9
$SHOWHIST
280
1
  9
$DWFFRAME
280
2
  9
$DGNFRAME
280
2
  9
$REALWORLDSCALE
290
1
  9
$INTERFERECOLOR
 62
256
  9
$CSHADOW
280
0
  9
$SHADOWPLANELOCATION
 40
0.0
  0
ENDSEC
  0
SECTION
  2
CLASSES
  0
CLASS
  1
ACDBDICTIONARYWDFLT
  2
AcDbDictionaryWithDefault
  3
ObjectDBX Classes
 90
0
 91
0
280
0
281
0
  0
CLASS
  1
SUN
  2
AcDbSun
  3
SCENEOE
 90
1153
 91
0
280
0
281
0
  0
CLASS
  1
VISUALSTYLE
  2
AcDbVisualStyle
  3
ObjectDBX Classes
 90
4095
 91
0
280
0
281
0
  0
CLASS
  1
MATERIAL
  2
AcDbMaterial
  3
ObjectDBX Classes
 90
1153
 91
0
280
0
281
0
  0
CLASS
  1
SCALE
  2
AcDbScale
  3
ObjectDBX Classes
 90
1153
 91
0
280
0
281
0
  0
CLASS
  1
TABLESTYLE
  2
AcDbTableStyle
  3
ObjectDBX Classes
 90
4095
 91
0
280
0
281
0
  0
CLASS
  1
MLEADERSTYLE
  2
AcDbMLeaderStyle
  3
ACDB_MLEADERSTYLE_CLASS
 90
4095
 91
0
280
0
281
0
  0
CLASS
  1
DICTIONARYVAR
  2
AcDbDictionaryVar
  3
ObjectDBX Classes
 90
0
 91
0
280
0
281
0
  0
CLASS
  1
CELLSTYLEMAP
  2
AcDbCellStyleMap
  3
ObjectDBX Classes
 90
1152
 91
0
280
0
281
0
  0
CLASS
  1
MENTALRAYRENDERSETTINGS
  2
AcDbMentalRayRenderSettings
  3
SCENEOE
 90
1024
 91
0
280
0
281
0
  0
CLASS
  1
ACDBDETAILVIEWSTYLE
  2
AcDbDetailViewStyle
  3
ObjectDBX Classes
 90
1025
 91
0
280
0
281
0
  0
CLASS
  1
ACDBSECTIONVIEWSTYLE
  2
AcDbSectionViewStyle
  3
ObjectDBX Classes
 90
1025
 91
0
280
0
281
0
  0
CLASS
  1
RASTERVARIABLES
  2
AcDbRasterVariables
  3
ISM
 90
0
 91
0
280
0
281
0
  0
CLASS
  1
LAYOUT
  2
AcDbLayout
  3
ObjectDBX Classes
 90
0
 91
0
280
0
281
0
  0
CLASS
  1
ACDBPLACEHOLDER
  2
AcDbPlaceHolder
  3
ObjectDBX Classes
 90
0
 91
0
280
0
281
0
  0
ENDSEC
  0
SECTION
  2
TABLES
  0
TABLE
  2
VPORT
  5
8
330
0
100
AcDbSymbolTable
 70
1
  0
VPORT
  5
23
330
8
100
AcDbSymbolTableRecord
100
AcDbViewportTableRecord
  2
*Active
 70
0
 10
0.0
 20
0.0
 11
1.0
 21
1.0
 12
0.0
 22
0.0
 13
0.0
 23
0.0
 14
0.5
 24
0.5
 15
0.5
 25
0.5
 16
0.0
 26
0.0
 36
1.0
 17
0.0
 27
0.0
 37
0.0
 40
1000.0
 41
1.34
 42
50.0
 43
0.0
 44
0.0
 50
0.0
 51
0.0
 71
0
 72
1000
 73
1
 74
3
 75
0
 76
0
 77
0
 78
0
281
0
 65
0
146
0.0
  0
ENDTAB
  0
TABLE
  2
LTYPE
  5
2
330
0
100
AcDbSymbolTable
 70
4
  0
LTYPE
  5
24
330
2
100
AcDbSymbolTableRecord
100
AcDbLinetypeTableRecord
  2
ByBlock
 70
0
  3

 72
65
 73
0
 40
0.0
  0
LTYPE
  5
25
330
2
100
AcDbSymbolTableRecord
100
AcDbLinetypeTableRecord
  2
ByLayer
 70
0
  3

 72
65
 73
0
 40
0.0
  0
LTYPE
  5
26
330
2
100
AcDbSymbolTableRecord
100
AcDbLinetypeTableRecord
  2
Continuous
 70
0
  3

 72
65
 73
0
 40
0.0
  0
LTYPE
  5
2F
330
2
100
AcDbSymbolTableRecord
100
AcDbLinetypeTableRecord
  2
DASHED
 70
0
  3

 72
65
 73
2
 40
0.5
 49
0.25
 74
0
 49
-0.15
 74
0
  0
ENDTAB
  0
TABLE
  2
LAYER
  5
1
330
0
100
AcDbSymbolTable
 70
27
  0
LAYER
  5
27
330
1
100
AcDbSymbolTableRecord
100
AcDbLayerTableRecord
  2
0
 70
0
 62
7
  6
Continuous
370
-3
390
13
347
21
  0
LAYER
  5
28
330
1
100
AcDbSymbolTableRecord
100
AcDbLayerTableRecord
  2
Defpoints
 70
0
 62
7
  6
Continuous
290
0
370
-3
390
13
347
21
  0
LAYER
  5
30
330
1
100
AcDbSymbolTableRecord
100
AcDbLayerTableRecord
  2
ARQ_MUROS
 70
0
 62
7
420
1315860
  6
CONTINUOUS
370
25
390
13
347
21
  0
LAYER
  5
31
330
1
100
AcDbSymbolTableRecord
100
AcDbLayerTableRecord
  2
ARQ_PUERTAS
 70
0
 62
7
420
7895160
  6
CONTINUOUS
370
15
390
13
347
21
  0
LAYER
  5
32
330
1
100
AcDbSymbolTableRecord
100
AcDbLayerTableRecord
  2
ARQ_VENTANAS
 70
0
 62
7
420
1349290
  6
CONTINUOUS
370
15
390
13
347
21
  0
LAYER
  5
33
330
1
100
AcDbSymbolTableRecord
100
AcDbLayerTableRecord
  2
ARQ_ESCALERAS
 70
0
 62
7
420
7895160
  6
CONTINUOUS
370
15
390
13
347
21
  0
LAYER
  5
34
330
1
100
AcDbSymbolTableRecord
100
AcDbLayerTableRecord
  2
ARQ_TEXTOS
 70
0
 62
7
420
7895160
  6
CONTINUOUS
370
13
390
13
347
21
  0
LAYER
  5
35
330
1
100
AcDbSymbolTableRecord
100
AcDbLayerTableRecord
  2
ELEC_LUMINARIAS
 70
0
 62
7
420
14449945
  6
CONTINUOUS
370
25
390
13
347
21
  0
LAYER
  5
36
330
1
100
AcDbSymbolTableRecord
100
AcDbLayerTableRecord
  2
ELEC_INTERRUPTORES
 70
0
 62
7
420
14449945
  6
CONTINUOUS
370
25
390
13
347
21
  0
LAYER
  5
37
330
1
100
AcDbSymbolTableRecord
100
AcDbLayerTableRecord
  2
ELEC_TOMACORRIENTES
 70
0
 62
7
420
2315700
  6
CONTINUOUS
370
25
390
13
347
21
  0
LAYER
  5
38
330
1
100
AcDbSymbolTableRecord
100
AcDbLayerTableRecord
  2
ELEC_TABLEROS
 70
0
 62
7
420
13114910
  6
CONTINUOUS
370
30
390
13
347
21
  0
LAYER
  5
39
330
1
100
AcDbSymbolTableRecord
100
AcDbLayerTableRecord
  2
ELEC_MEDIDOR
 70
0
 62
7
420
1999430
  6
CONTINUOUS
370
25
390
13
347
21
  0
LAYER
  5
3A
330
1
100
AcDbSymbolTableRecord
100
AcDbLayerTableRecord
  2
ELEC_PUESTA_TIERRA
 70
0
 62
7
420
1999430
  6
CONTINUOUS
370
25
390
13
347
21
  0
LAYER
  5
3B
330
1
100
AcDbSymbolTableRecord
100
AcDbLayerTableRecord
  2
ELEC_CANALIZACION
 70
0
 62
7
420
7895160
  6
CONTINUOUS
370
15
390
13
347
21
  0
LAYER
  5
3C
330
1
100
AcDbSymbolTableRecord
100
AcDbLayerTableRecord
  2
ELEC_TEXTOS
 70
0
 62
7
420
1315860
  6
CONTINUOUS
370
13
390
13
347
21
  0
LAYER
  5
3D
330
1
100
AcDbSymbolTableRecord
100
AcDbLayerTableRecord
  2
ELEC_LEYENDA
 70
0
 62
7
420
1315860
  6
CONTINUOUS
370
18
390
13
347
21
  0
LAYER
  5
3E
330
1
100
AcDbSymbolTableRecord
100
AcDbLayerTableRecord
  2
ELEC_ROTULO
 70
0
 62
7
420
1315860
  6
CONTINUOUS
370
20
390
13
347
21
  0
LAYER
  5
3F
330
1
100
AcDbSymbolTableRecord
100
AcDbLayerTableRecord
  2
MARCO
 70
0
 62
7
420
1315860
  6
CONTINUOUS
370
40
390
13
347
21
  0
LAYER
  5
40
330
1
100
AcDbSymbolTableRecord
100
AcDbLayerTableRecord
  2
ELEC_CIRCUITO_C1
 70
0
 62
7
420
14449945
  6
DASHED
370
20
390
13
347
21
  0
LAYER
  5
41
330
1
100
AcDbSymbolTableRecord
100
AcDbLayerTableRecord
  2
ELEC_CIRCUITO_C2
 70
0
 62
7
420
2315700
  6
DASHED
370
20
390
13
347
21
  0
LAYER
  5
42
330
1
100
AcDbSymbolTableRecord
100
AcDbLayerTableRecord
  2
ELEC_CIRCUITO_C3
 70
0
 62
7
420
13114910
  6
DASHED
370
20
390
13
347
21
  0
LAYER
  5
43
330
1
100
AcDbSymbolTableRecord
100
AcDbLayerTableRecord
  2
ELEC_CIRCUITO_C4
 70
0
 62
7
420
14449945
  6
DASHED
370
20
390
13
347
21
  0
LAYER
  5
44
330
1
100
AcDbSymbolTableRecord
100
AcDbLayerTableRecord
  2
ELEC_CIRCUITO_C5
 70
0
 62
7
420
2315700
  6
DASHED
370
20
390
13
347
21
  0
LAYER
  5
45
330
1
100
AcDbSymbolTableRecord
100
AcDbLayerTableRecord
  2
ELEC_CIRCUITO_C6
 70
0
 62
7
420
14449945
  6
DASHED
370
20
390
13
347
21
  0
LAYER
  5
46
330
1
100
AcDbSymbolTableRecord
100
AcDbLayerTableRecord
  2
ELEC_CIRCUITO_C7
 70
0
 62
7
420
2315700
  6
DASHED
370
20
390
13
347
21
  0
LAYER
  5
47
330
1
100
AcDbSymbolTableRecord
100
AcDbLayerTableRecord
  2
ELEC_CIRCUITO_C8
 70
0
 62
7
420
7879840
  6
DASHED
370
20
390
13
347
21
  0
LAYER
  5
48
330
1
100
AcDbSymbolTableRecord
100
AcDbLayerTableRecord
  2
ELEC_CIRCUITO_C9
 70
0
 62
7
420
1999430
  6
DASHED
370
20
390
13
347
21
  0
ENDTAB
  0
TABLE
  2
STYLE
  5
5
330
0
100
AcDbSymbolTable
 70
1
  0
STYLE
  5
29
330
5
100
AcDbSymbolTableRecord
100
AcDbTextStyleTableRecord
  2
Standard
 70
0
 40
0.0
 41
1.0
 50
0.0
 71
0
 42
2.5
  3
txt
  4

  0
ENDTAB
  0
TABLE
  2
VIEW
  5
7
330
0
100
AcDbSymbolTable
 70
0
  0
ENDTAB
  0
TABLE
  2
UCS
  5
6
330
0
100
AcDbSymbolTable
 70
0
  0
ENDTAB
  0
TABLE
  2
APPID
  5
3
330
0
100
AcDbSymbolTable
 70
3
  0
APPID
  5
2A
330
3
100
AcDbSymbolTableRecord
100
AcDbRegAppTableRecord
  2
ACAD
 70
0
  0
APPID
  5
1EF
330
3
100
AcDbSymbolTableRecord
100
AcDbRegAppTableRecord
  2
HATCHBACKGROUNDCOLOR
 70
0
  0
APPID
  5
1F0
330
3
100
AcDbSymbolTableRecord
100
AcDbRegAppTableRecord
  2
EZDXF
 70
0
  0
ENDTAB
  0
TABLE
  2
DIMSTYLE
  5
4
330
0
100
AcDbSymbolTable
 70
1
100
AcDbDimStyleTable
  0
DIMSTYLE
105
2B
330
4
100
AcDbSymbolTableRecord
100
AcDbDimStyleTableRecord
  2
Standard
 70
0
 40
1.0
 41
2.5
 42
0.625
 43
3.75
 44
1.25
 45
0.0
 46
0.0
 47
0.0
 48
0.0
 49
2.5
140
2.5
141
2.5
142
0.0
143
0.03937007874
144
1.0
145
0.0
146
1.0
147
0.625
148
0.0
 69
0
 70
0
 71
0
 72
0
 73
0
 74
0
 75
0
 76
0
 77
1
 78
8
 79
3
170
0
171
3
172
1
173
0
174
0
175
0
176
0
177
0
178
0
179
2
271
2
272
2
273
2
274
3
275
0
276
0
277
2
278
44
279
0
280
0
281
0
282
0
283
0
284
8
285
0
286
0
288
0
289
3
290
0
371
-2
372
-2
  0
ENDTAB
  0
TABLE
  2
BLOCK_RECORD
  5
9
330
0
100
AcDbSymbolTable
 70
2
  0
BLOCK_RECORD
  5
17
330
9
100
AcDbSymbolTableRecord
100
AcDbBlockTableRecord
  2
*Model_Space
340
1A
 70
0
280
1
281
0
  0
BLOCK_RECORD
  5
1B
330
9
100
AcDbSymbolTableRecord
100
AcDbBlockTableRecord
  2
*Paper_Space
340
1E
 70
0
280
1
281
0
  0
ENDTAB
  0
ENDSEC
  0
SECTION
  2
BLOCKS
  0
BLOCK
  5
18
330
17
100
AcDbEntity
  8
0
100
AcDbBlockBegin
  2
*Model_Space
 70
0
 10
0.0
 20
0.0
 30
0.0
  3
*Model_Space
  1

  0
ENDBLK
  5
19
330
17
100
AcDbEntity
  8
0
100
AcDbBlockEnd
  0
BLOCK
  5
1C
330
1B
100
AcDbEntity
  8
0
100
AcDbBlockBegin
  2
*Paper_Space
 70
0
 10
0.0
 20
0.0
 30
0.0
  3
*Paper_Space
  1

  0
ENDBLK
  5
1D
330
1B
100
AcDbEntity
  8
0
100
AcDbBlockEnd
  0
ENDSEC
  0
SECTION
  2
ENTITIES
  0
LINE
  5
49
330
17
100
AcDbEntity
  8
MARCO
420
1315860
100
AcDbLine
 10
-1.0
 20
-1.0
 30
0.0
 11
28.5
 21
-1.0
 31
0.0
  0
LINE
  5
4A
330
17
100
AcDbEntity
  8
MARCO
420
1315860
100
AcDbLine
 10
28.5
 20
-1.0
 30
0.0
 11
28.5
 21
13.8
 31
0.0
  0
LINE
  5
4B
330
17
100
AcDbEntity
  8
MARCO
420
1315860
100
AcDbLine
 10
28.5
 20
13.8
 30
0.0
 11
-1.0
 21
13.8
 31
0.0
  0
LINE
  5
4C
330
17
100
AcDbEntity
  8
MARCO
420
1315860
100
AcDbLine
 10
-1.0
 20
13.8
 30
0.0
 11
-1.0
 21
-1.0
 31
0.0
  0
TEXT
  5
4D
330
17
100
AcDbEntity
  8
ELEC_ROTULO
100
AcDbText
 10
13.5
 20
13.25
 30
0.0
 40
0.38
  1
IE-02 ALUMBRADO
 72
1
 11
13.5
 21
13.25
 31
0.0
100
AcDbText
 73
2
  0
TEXT
  5
4E
330
17
100
AcDbEntity
  8
ELEC_TEXTOS
100
AcDbText
 10
2.25
 20
11.95
 30
0.0
 40
0.22
  1
PRIMER PISO
 72
1
 11
2.25
 21
11.95
 31
0.0
100
AcDbText
 73
2
  0
LINE
  5
4F
330
17
100
AcDbEntity
  8
ARQ_MUROS
100
AcDbLine
 10
1.25
 20
10.0
 30
0.0
 11
1.25
 21
10.3
 31
0.0
  0
LINE
  5
50
330
17
100
AcDbEntity
  8
ARQ_MUROS
100
AcDbLine
 10
0.0
 20
10.3
 30
0.0
 11
2.5
 21
10.3
 31
0.0
  0
LINE
  5
51
330
17
100
AcDbEntity
  8
ARQ_MUROS
100
AcDbLine
 10
0.0
 20
10.033333333333333
 30
0.0
 11
1.25
 21
10.033333333333333
 31
0.0
  0
LINE
  5
52
330
17
100
AcDbEntity
  8
ARQ_MUROS
100
AcDbLine
 10
1.25
 20
10.033333333333333
 30
0.0
 11
2.5
 21
10.033333333333333
 31
0.0
  0
LINE
  5
53
330
17
100
AcDbEntity
  8
ARQ_MUROS
100
AcDbLine
 10
0.0
 20
10.066666666666666
 30
0.0
 11
1.25
 21
10.066666666666666
 31
0.0
  0
LINE
  5
54
330
17
100
AcDbEntity
  8
ARQ_MUROS
100
AcDbLine
 10
1.25
 20
10.066666666666666
 30
0.0
 11
2.5
 21
10.066666666666666
 31
0.0
  0
LINE
  5
55
330
17
100
AcDbEntity
  8
ARQ_MUROS
100
AcDbLine
 10
0.0
 20
10.1
 30
0.0
 11
1.25
 21
10.1
 31
0.0
  0
LINE
  5
56
330
17
100
AcDbEntity
  8
ARQ_MUROS
100
AcDbLine
 10
1.25
 20
10.1
 30
0.0
 11
2.5
 21
10.1
 31
0.0
  0
LINE
  5
57
330
17
100
AcDbEntity
  8
ARQ_MUROS
100
AcDbLine
 10
0.0
 20
10.133333333333333
 30
0.0
 11
1.25
 21
10.133333333333333
 31
0.0
  0
LINE
  5
58
330
17
100
AcDbEntity
  8
ARQ_MUROS
100
AcDbLine
 10
1.25
 20
10.133333333333333
 30
0.0
 11
2.5
 21
10.133333333333333
 31
0.0
  0
LINE
  5
59
330
17
100
AcDbEntity
  8
ARQ_MUROS
100
AcDbLine
 10
0.0
 20
10.166666666666668
 30
0.0
 11
1.25
 21
10.166666666666668
 31
0.0
  0
LINE
  5
5A
330
17
100
AcDbEntity
  8
ARQ_MUROS
100
AcDbLine
 10
1.25
 20
10.166666666666668
 30
0.0
 11
2.5
 21
10.166666666666668
 31
0.0
  0
LINE
  5
5B
330
17
100
AcDbEntity
  8
ARQ_MUROS
100
AcDbLine
 10
0.0
 20
10.2
 30
0.0
 11
1.25
 21
10.2
 31
0.0
  0
LINE
  5
5C
330
17
100
AcDbEntity
  8
ARQ_MUROS
100
AcDbLine
 10
1.25
 20
10.2
 30
0.0
 11
2.5
 21
10.2
 31
0.0
  0
LINE
  5
5D
330
17
100
AcDbEntity
  8
ARQ_MUROS
100
AcDbLine
 10
0.0
 20
10.233333333333334
 30
0.0
 11
1.25
 21
10.233333333333334
 31
0.0
  0
LINE
  5
5E
330
17
100
AcDbEntity
  8
ARQ_MUROS
100
AcDbLine
 10
1.25
 20
10.233333333333334
 30
0.0
 11
2.5
 21
10.233333333333334
 31
0.0
  0
LINE
  5
5F
330
17
100
AcDbEntity
  8
ARQ_MUROS
100
AcDbLine
 10
0.0
 20
10.266666666666666
 30
0.0
 11
1.25
 21
10.266666666666666
 31
0.0
  0
LINE
  5
60
330
17
100
AcDbEntity
  8
ARQ_MUROS
100
AcDbLine
 10
1.25
 20
10.266666666666666
 30
0.0
 11
2.5
 21
10.266666666666666
 31
0.0
  0
LINE
  5
61
330
17
100
AcDbEntity
  8
ARQ_MUROS
100
AcDbLine
 10
0.0
 20
9.925
 30
0.0
 11
3.0
 21
9.925
 31
0.0
  0
LINE
  5
62
330
17
100
AcDbEntity
  8
ARQ_MUROS
100
AcDbLine
 10
0.0
 20
10.075
 30
0.0
 11
3.0
 21
10.075
 31
0.0
  0
LINE
  5
63
330
17
100
AcDbEntity
  8
ARQ_MUROS
100
AcDbLine
 10
-0.075
 20
10.0
 30
0.0
 11
-0.075
 21
11.5
 31
0.0
  0
LINE
  5
64
330
17
100
AcDbEntity
  8
ARQ_MUROS
100
AcDbLine
 10
0.075
 20
10.0
 30
0.0
 11
0.075
 21
11.5
 31
0.0
  0
LINE
  5
65
330
17
100
AcDbEntity
  8
ARQ_MUROS
100
AcDbLine
 10
2.925
 20
6.5
 30
0.0
 11
2.925
 21
10.0
 31
0.0
  0
LINE
  5
66
330
17
100
AcDbEntity
  8
ARQ_MUROS
100
AcDbLine
 10
3.075
 20
6.5
 30
0.0
 11
3.075
 21
10.0
 31
0.0
  0
LINE
  5
67
330
17
100
AcDbEntity
  8
ARQ_MUROS
100
AcDbLine
 10
2.925
 20
3.0
 30
0.0
 11
2.925
 21
6.5
 31
0.0
  0
LINE
  5
68
330
17
100
AcDbEntity
  8
ARQ_MUROS
100
AcDbLine
 10
3.075
 20
3.0
 30
0.0
 11
3.075
 21
6.5
 31
0.0
  0
LINE
  5
69
330
17
100
AcDbEntity
  8
ARQ_MUROS
100
AcDbLine
 10
2.925
 20
3.0
 30
0.0
 11
2.925
 21
10.0
 31
0.0
  0
LINE
  5
6A
330
17
100
AcDbEntity
  8
ARQ_MUROS
100
AcDbLine
 10
3.075
 20
3.0
 30
0.0
 11
3.075
 21
10.0
 31
0.0
  0
LINE
  5
6B
330
17
100
AcDbEntity
  8
ARQ_MUROS
100
AcDbLine
 10
0.0
 20
2.925
 30
0.0
 11
3.0
 21
2.925
 31
0.0
  0
LINE
  5
6C
330
17
100
AcDbEntity
  8
ARQ_MUROS
100
AcDbLine
 10
0.0
 20
3.075
 30
0.0
 11
3.0
 21
3.075
 31
0.0
  0
LINE
  5
6D
330
17
100
AcDbEntity
  8
ARQ_MUROS
100
AcDbLine
 10
-0.075
 20
3.0
 30
0.0
 11
-0.075
 21
6.5
 31
0.0
  0
LINE
  5
6E
330
17
100
AcDbEntity
  8
ARQ_MUROS
100
AcDbLine
 10
0.075
 20
3.0
 30
0.0
 11
0.075
 21
6.5
 31
0.0
  0
LINE
  5
6F
330
17
100
AcDbEntity
  8
ARQ_MUROS
100
AcDbLine
 10
3.0
 20
2.925
 30
0.0
 11
4.5
 21
2.925
 31
0.0
  0
LINE
  5
70
330
17
100
AcDbEntity
  8
ARQ_MUROS
100
AcDbLine
 10
3.0
 20
3.075
 30
0.0
 11
4.5
 21
3.075
 31
0.0
  0
LINE
  5
71
330
17
100
AcDbEntity
  8
ARQ_MUROS
100
AcDbLine
 10
0.0
 20
11.425
 30
0.0
 11
2.5
 21
11.425
 31
0.0
  0
LINE
  5
72
330
17
100
AcDbEntity
  8
ARQ_MUROS
100
AcDbLine
 10
0.0
 20
11.575
 30
0.0
 11
2.5
 21
11.575
 31
0.0
  0
LINE
  5
73
330
17
100
AcDbEntity
  8
ARQ_MUROS
100
AcDbLine
 10
4.425
 20
3.0
 30
0.0
 11
4.425
 21
10.0
 31
0.0
  0
LINE
  5
74
330
17
100
AcDbEntity
  8
ARQ_MUROS
100
AcDbLine
 10
4.575
 20
3.0
 30
0.0
 11
4.575
 21
10.0
 31
0.0
  0
LINE
  5
75
330
17
100
AcDbEntity
  8
ARQ_MUROS
100
AcDbLine
 10
-0.075
 20
6.5
 30
0.0
 11
-0.075
 21
10.0
 31
0.0
  0
LINE
  5
76
330
17
100
AcDbEntity
  8
ARQ_MUROS
100
AcDbLine
 10
0.075
 20
6.5
 30
0.0
 11
0.075
 21
10.0
 31
0.0
  0
LINE
  5
77
330
17
100
AcDbEntity
  8
ARQ_MUROS
100
AcDbLine
 10
0.0
 20
9.925
 30
0.0
 11
2.5
 21
9.925
 31
0.0
  0
LINE
  5
78
330
17
100
AcDbEntity
  8
ARQ_MUROS
100
AcDbLine
 10
0.0
 20
10.075
 30
0.0
 11
2.5
 21
10.075
 31
0.0
  0
LINE
  5
79
330
17
100
AcDbEntity
  8
ARQ_MUROS
100
AcDbLine
 10
0.0
 20
6.425
 30
0.0
 11
3.0
 21
6.425
 31
0.0
  0
LINE
  5
7A
330
17
100
AcDbEntity
  8
ARQ_MUROS
100
AcDbLine
 10
0.0
 20
6.575
 30
0.0
 11
3.0
 21
6.575
 31
0.0
  0
LINE
  5
7B
330
17
100
AcDbEntity
  8
ARQ_PUERTAS
100
AcDbLine
 10
3.0
 20
6.3
 30
0.0
 11
2.2
 21
6.3
 31
0.0
  0
ARC
  5
7C
330
17
100
AcDbEntity
  8
ARQ_PUERTAS
100
AcDbCircle
 10
3.0
 20
6.3
 30
0.0
 40
0.8
100
AcDbArc
 50
180.0
 51
-90.00000000000001
  0
LINE
  5
7D
330
17
100
AcDbEntity
  8
ARQ_PUERTAS
100
AcDbLine
 10
3.0
 20
9.8
 30
0.0
 11
2.2
 21
9.8
 31
0.0
  0
ARC
  5
7E
330
17
100
AcDbEntity
  8
ARQ_PUERTAS
100
AcDbCircle
 10
3.0
 20
9.8
 30
0.0
 40
0.8
100
AcDbArc
 50
180.0
 51
-90.00000000000001
  0
LINE
  5
7F
330
17
100
AcDbEntity
  8
ARQ_PUERTAS
100
AcDbLine
 10
0.3
 20
3.0
 30
0.0
 11
0.3
 21
3.9
 31
0.0
  0
ARC
  5
80
330
17
100
AcDbEntity
  8
ARQ_PUERTAS
100
AcDbCircle
 10
0.3
 20
3.0
 30
0.0
 40
0.9
100
AcDbArc
 50
0.0
 51
90.0
  0
LINE
  5
81
330
17
100
AcDbEntity
  8
ARQ_PUERTAS
100
AcDbLine
 10
3.3
 20
3.0
 30
0.0
 11
3.3
 21
3.9
 31
0.0
  0
ARC
  5
82
330
17
100
AcDbEntity
  8
ARQ_PUERTAS
100
AcDbCircle
 10
3.3
 20
3.0
 30
0.0
 40
0.9
100
AcDbArc
 50
0.0
 51
90.0
  0
LINE
  5
83
330
17
100
AcDbEntity
  8
ARQ_VENTANAS
100
AcDbLine
 10
1.5
 20
2.925
 30
0.0
 11
2.7
 21
2.925
 31
0.0
  0
LINE
  5
84
330
17
100
AcDbEntity
  8
ARQ_VENTANAS
100
AcDbLine
 10
2.7
 20
2.925
 30
0.0
 11
2.7
 21
3.075
 31
0.0
  0
LINE
  5
85
330
17
100
AcDbEntity
  8
ARQ_VENTANAS
100
AcDbLine
 10
2.7
 20
3.075
 30
0.0
 11
1.5
 21
3.075
 31
0.0
  0
LINE
  5
86
330
17
100
AcDbEntity
  8
ARQ_VENTANAS
100
AcDbLine
 10
1.5
 20
3.075
 30
0.0
 11
1.5
 21
2.925
 31
0.0
  0
LINE
  5
87
330
17
100
AcDbEntity
  8
ARQ_VENTANAS
100
AcDbLine
 10
1.5
 20
3.0
 30
0.0
 11
2.7
 21
3.0
 31
0.0
  0
LINE
  5
88
330
17
100
AcDbEntity
  8
ARQ_VENTANAS
100
AcDbLine
 10
-0.075
 20
4.75
 30
0.0
 11
0.075
 21
4.75
 31
0.0
  0
LINE
  5
89
330
17
100
AcDbEntity
  8
ARQ_VENTANAS
100
AcDbLine
 10
0.075
 20
4.75
 30
0.0
 11
0.075
 21
5.75
 31
0.0
  0
LINE
  5
8A
330
17
100
AcDbEntity
  8
ARQ_VENTANAS
100
AcDbLine
 10
0.075
 20
5.75
 30
0.0
 11
-0.075
 21
5.75
 31
0.0
  0
LINE
  5
8B
330
17
100
AcDbEntity
  8
ARQ_VENTANAS
100
AcDbLine
 10
-0.075
 20
5.75
 30
0.0
 11
-0.075
 21
4.75
 31
0.0
  0
LINE
  5
8C
330
17
100
AcDbEntity
  8
ARQ_VENTANAS
100
AcDbLine
 10
0.0
 20
4.75
 30
0.0
 11
0.0
 21
5.75
 31
0.0
  0
LINE
  5
8D
330
17
100
AcDbEntity
  8
ARQ_VENTANAS
100
AcDbLine
 10
-0.075
 20
8.25
 30
0.0
 11
0.075
 21
8.25
 31
0.0
  0
LINE
  5
8E
330
17
100
AcDbEntity
  8
ARQ_VENTANAS
100
AcDbLine
 10
0.075
 20
8.25
 30
0.0
 11
0.075
 21
9.25
 31
0.0
  0
LINE
  5
8F
330
17
100
AcDbEntity
  8
ARQ_VENTANAS
100
AcDbLine
 10
0.075
 20
9.25
 30
0.0
 11
-0.075
 21
9.25
 31
0.0
  0
LINE
  5
90
330
17
100
AcDbEntity
  8
ARQ_VENTANAS
100
AcDbLine
 10
-0.075
 20
9.25
 30
0.0
 11
-0.075
 21
8.25
 31
0.0
  0
LINE
  5
91
330
17
100
AcDbEntity
  8
ARQ_VENTANAS
100
AcDbLine
 10
0.0
 20
8.25
 30
0.0
 11
0.0
 21
9.25
 31
0.0
  0
LINE
  5
92
330
17
100
AcDbEntity
  8
ARQ_ESCALERAS
100
AcDbLine
 10
0.15
 20
10.0
 30
0.0
 11
0.15
 21
11.5
 31
0.0
  0
LINE
  5
93
330
17
100
AcDbEntity
  8
ARQ_ESCALERAS
100
AcDbLine
 10
2.5
 20
10.0
 30
0.0
 11
2.5
 21
11.5
 31
0.0
  0
LINE
  5
94
330
17
100
AcDbEntity
  8
ARQ_ESCALERAS
100
AcDbLine
 10
0.15
 20
10.0
 30
0.0
 11
2.5
 21
10.0
 31
0.0
  0
LINE
  5
95
330
17
100
AcDbEntity
  8
ARQ_ESCALERAS
100
AcDbLine
 10
0.15
 20
11.5
 30
0.0
 11
2.5
 21
11.5
 31
0.0
  0
LINE
  5
96
330
17
100
AcDbEntity
  8
ARQ_ESCALERAS
100
AcDbLine
 10
0.15
 20
10.1875
 30
0.0
 11
2.5
 21
10.1875
 31
0.0
  0
LINE
  5
97
330
17
100
AcDbEntity
  8
ARQ_ESCALERAS
100
AcDbLine
 10
0.15
 20
10.375
 30
0.0
 11
2.5
 21
10.375
 31
0.0
  0
LINE
  5
98
330
17
100
AcDbEntity
  8
ARQ_ESCALERAS
100
AcDbLine
 10
0.15
 20
10.5625
 30
0.0
 11
2.5
 21
10.5625
 31
0.0
  0
LINE
  5
99
330
17
100
AcDbEntity
  8
ARQ_ESCALERAS
100
AcDbLine
 10
0.15
 20
10.75
 30
0.0
 11
2.5
 21
10.75
 31
0.0
  0
LINE
  5
9A
330
17
100
AcDbEntity
  8
ARQ_ESCALERAS
100
AcDbLine
 10
0.15
 20
10.9375
 30
0.0
 11
2.5
 21
10.9375
 31
0.0
  0
LINE
  5
9B
330
17
100
AcDbEntity
  8
ARQ_ESCALERAS
100
AcDbLine
 10
0.15
 20
11.125
 30
0.0
 11
2.5
 21
11.125
 31
0.0
  0
LINE
  5
9C
330
17
100
AcDbEntity
  8
ARQ_ESCALERAS
100
AcDbLine
 10
0.15
 20
11.3125
 30
0.0
 11
2.5
 21
11.3125
 31
0.0
  0
TEXT
  5
9D
330
17
100
AcDbEntity
  8
ARQ_TEXTOS
100
AcDbText
 10
1.5
 20
4.75
 30
0.0
 40
0.16
  1
Tienda
 72
1
 11
1.5
 21
4.75
 31
0.0
100
AcDbText
 73
2
  0
TEXT
  5
9E
330
17
100
AcDbEntity
  8
ARQ_TEXTOS
100
AcDbText
 10
1.5
 20
8.25
 30
0.0
 40
0.16
  1
Cocina
 72
1
 11
1.5
 21
8.25
 31
0.0
100
AcDbText
 73
2
  0
TEXT
  5
9F
330
17
100
AcDbEntity
  8
ARQ_TEXTOS
100
AcDbText
 10
3.75
 20
6.5
 30
0.0
 40
0.16
  1
Pasadizo
 72
1
 11
3.75
 21
6.5
 31
0.0
100
AcDbText
 73
2
  0
TEXT
  5
A0
330
17
100
AcDbEntity
  8
ARQ_TEXTOS
100
AcDbText
 10
1.25
 20
10.75
 30
0.0
 40
0.16
  1
Escalera
 72
1
 11
1.25
 21
10.75
 31
0.0
100
AcDbText
 73
2
  0
CIRCLE
  5
A1
330
17
100
AcDbEntity
  8
ELEC_LUMINARIAS
420
14449945
100
AcDbCircle
 10
1.0
 20
4.35
 30
0.0
 40
0.16
  0
LINE
  5
A2
330
17
100
AcDbEntity
  8
ELEC_LUMINARIAS
420
14449945
100
AcDbLine
 10
0.89
 20
4.239999999999999
 30
0.0
 11
1.11
 21
4.46
 31
0.0
  0
LINE
  5
A3
330
17
100
AcDbEntity
  8
ELEC_LUMINARIAS
420
14449945
100
AcDbLine
 10
0.89
 20
4.46
 30
0.0
 11
1.11
 21
4.239999999999999
 31
0.0
  0
TEXT
  5
A4
330
17
100
AcDbEntity
  8
ELEC_TEXTOS
100
AcDbText
 10
1.28
 20
4.529999999999999
 30
0.0
 40
0.12
  1
C1
 72
1
 11
1.28
 21
4.529999999999999
 31
0.0
100
AcDbText
 73
2
  0
CIRCLE
  5
A5
330
17
100
AcDbEntity
  8
ELEC_LUMINARIAS
420
14449945
100
AcDbCircle
 10
2.15
 20
5.55
 30
0.0
 40
0.16
  0
LINE
  5
A6
330
17
100
AcDbEntity
  8
ELEC_LUMINARIAS
420
14449945
100
AcDbLine
 10
2.04
 20
5.4399999999999995
 30
0.0
 11
2.26
 21
5.66
 31
0.0
  0
LINE
  5
A7
330
17
100
AcDbEntity
  8
ELEC_LUMINARIAS
420
14449945
100
AcDbLine
 10
2.04
 20
5.66
 30
0.0
 11
2.26
 21
5.4399999999999995
 31
0.0
  0
TEXT
  5
A8
330
17
100
AcDbEntity
  8
ELEC_TEXTOS
100
AcDbText
 10
2.4299999999999997
 20
5.7299999999999995
 30
0.0
 40
0.12
  1
C1
 72
1
 11
2.4299999999999997
 21
5.7299999999999995
 31
0.0
100
AcDbText
 73
2
  0
CIRCLE
  5
A9
330
17
100
AcDbEntity
  8
ELEC_LUMINARIAS
420
14449945
100
AcDbCircle
 10
1.0
 20
7.75
 30
0.0
 40
0.16
  0
LINE
  5
AA
330
17
100
AcDbEntity
  8
ELEC_LUMINARIAS
420
14449945
100
AcDbLine
 10
0.89
 20
7.64
 30
0.0
 11
1.11
 21
7.86
 31
0.0
  0
LINE
  5
AB
330
17
100
AcDbEntity
  8
ELEC_LUMINARIAS
420
14449945
100
AcDbLine
 10
0.89
 20
7.86
 30
0.0
 11
1.11
 21
7.64
 31
0.0
  0
TEXT
  5
AC
330
17
100
AcDbEntity
  8
ELEC_TEXTOS
100
AcDbText
 10
1.28
 20
7.93
 30
0.0
 40
0.12
  1
C1
 72
1
 11
1.28
 21
7.93
 31
0.0
100
AcDbText
 73
2
  0
CIRCLE
  5
AD
330
17
100
AcDbEntity
  8
ELEC_LUMINARIAS
420
14449945
100
AcDbCircle
 10
2.15
 20
9.05
 30
0.0
 40
0.16
  0
LINE
  5
AE
330
17
100
AcDbEntity
  8
ELEC_LUMINARIAS
420
14449945
100
AcDbLine
 10
2.04
 20
8.940000000000001
 30
0.0
 11
2.26
 21
9.16
 31
0.0
  0
LINE
  5
AF
330
17
100
AcDbEntity
  8
ELEC_LUMINARIAS
420
14449945
100
AcDbLine
 10
2.04
 20
9.16
 30
0.0
 11
2.26
 21
8.940000000000001
 31
0.0
  0
TEXT
  5
B0
330
17
100
AcDbEntity
  8
ELEC_TEXTOS
100
AcDbText
 10
2.4299999999999997
 20
9.23
 30
0.0
 40
0.12
  1
C1
 72
1
 11
2.4299999999999997
 21
9.23
 31
0.0
100
AcDbText
 73
2
  0
CIRCLE
  5
B1
330
17
100
AcDbEntity
  8
ELEC_LUMINARIAS
420
14449945
100
AcDbCircle
 10
3.75
 20
6.45
 30
0.0
 40
0.16
  0
LINE
  5
B2
330
17
100
AcDbEntity
  8
ELEC_LUMINARIAS
420
14449945
100
AcDbLine
 10
3.64
 20
6.34
 30
0.0
 11
3.86
 21
6.5600000000000005
 31
0.0
  0
LINE
  5
B3
330
17
100
AcDbEntity
  8
ELEC_LUMINARIAS
420
14449945
100
AcDbLine
 10
3.64
 20
6.5600000000000005
 30
0.0
 11
3.86
 21
6.34
 31
0.0
  0
TEXT
  5
B4
330
17
100
AcDbEntity
  8
ELEC_TEXTOS
100
AcDbText
 10
4.03
 20
6.63
 30
0.0
 40
0.12
  1
C1
 72
1
 11
4.03
 21
6.63
 31
0.0
100
AcDbText
 73
2
  0
CIRCLE
  5
B5
330
17
100
AcDbEntity
  8
ELEC_LUMINARIAS
420
14449945
100
AcDbCircle
 10
1.25
 20
10.75
 30
0.0
 40
0.16
  0
LINE
  5
B6
330
17
100
AcDbEntity
  8
ELEC_LUMINARIAS
420
14449945
100
AcDbLine
 10
1.14
 20
10.64
 30
0.0
 11
1.36
 21
10.86
 31
0.0
  0
LINE
  5
B7
330
17
100
AcDbEntity
  8
ELEC_LUMINARIAS
420
14449945
100
AcDbLine
 10
1.14
 20
10.86
 30
0.0
 11
1.36
 21
10.64
 31
0.0
  0
TEXT
  5
B8
330
17
100
AcDbEntity
  8
ELEC_TEXTOS
100
AcDbText
 10
1.53
 20
10.93
 30
0.0
 40
0.12
  1
C1
 72
1
 11
1.53
 21
10.93
 31
0.0
100
AcDbText
 73
2
  0
CIRCLE
  5
B9
330
17
100
AcDbEntity
  8
ELEC_INTERRUPTORES
420
14449945
100
AcDbCircle
 10
2.75
 20
5.55
 30
0.0
 40
0.1
  0
TEXT
  5
BA
330
17
100
AcDbEntity
  8
ELEC_INTERRUPTORES
100
AcDbText
 10
2.75
 20
5.319999999999999
 30
0.0
 40
0.12
  1
S
 72
1
 11
2.75
 21
5.319999999999999
 31
0.0
100
AcDbText
 73
2
  0
CIRCLE
  5
BB
330
17
100
AcDbEntity
  8
ELEC_INTERRUPTORES
420
14449945
100
AcDbCircle
 10
2.75
 20
9.05
 30
0.0
 40
0.1
  0
TEXT
  5
BC
330
17
100
AcDbEntity
  8
ELEC_INTERRUPTORES
100
AcDbText
 10
2.75
 20
8.82
 30
0.0
 40
0.12
  1
S
 72
1
 11
2.75
 21
8.82
 31
0.0
100
AcDbText
 73
2
  0
CIRCLE
  5
BD
330
17
100
AcDbEntity
  8
ELEC_INTERRUPTORES
420
14449945
100
AcDbCircle
 10
3.45
 20
3.45
 30
0.0
 40
0.1
  0
TEXT
  5
BE
330
17
100
AcDbEntity
  8
ELEC_INTERRUPTORES
100
AcDbText
 10
3.45
 20
3.22
 30
0.0
 40
0.12
  1
S3
 72
1
 11
3.45
 21
3.22
 31
0.0
100
AcDbText
 73
2
  0
CIRCLE
  5
BF
330
17
100
AcDbEntity
  8
ELEC_INTERRUPTORES
420
14449945
100
AcDbCircle
 10
2.15
 20
10.25
 30
0.0
 40
0.1
  0
TEXT
  5
C0
330
17
100
AcDbEntity
  8
ELEC_INTERRUPTORES
100
AcDbText
 10
2.15
 20
10.02
 30
0.0
 40
0.12
  1
S3
 72
1
 11
2.15
 21
10.02
 31
0.0
100
AcDbText
 73
2
  0
TEXT
  5
C1
330
17
100
AcDbEntity
  8
ELEC_TEXTOS
100
AcDbText
 10
9.25
 20
11.95
 30
0.0
 40
0.22
  1
SEGUNDO PISO
 72
1
 11
9.25
 21
11.95
 31
0.0
100
AcDbText
 73
2
  0
LINE
  5
C2
330
17
100
AcDbEntity
  8
ARQ_MUROS
100
AcDbLine
 10
8.25
 20
10.0
 30
0.0
 11
8.25
 21
10.3
 31
0.0
  0
LINE
  5
C3
330
17
100
AcDbEntity
  8
ARQ_MUROS
100
AcDbLine
 10
7.0
 20
10.3
 30
0.0
 11
9.5
 21
10.3
 31
0.0
  0
LINE
  5
C4
330
17
100
AcDbEntity
  8
ARQ_MUROS
100
AcDbLine
 10
7.0
 20
10.033333333333333
 30
0.0
 11
8.25
 21
10.033333333333333
 31
0.0
  0
LINE
  5
C5
330
17
100
AcDbEntity
  8
ARQ_MUROS
100
AcDbLine
 10
8.25
 20
10.033333333333333
 30
0.0
 11
9.5
 21
10.033333333333333
 31
0.0
  0
LINE
  5
C6
330
17
100
AcDbEntity
  8
ARQ_MUROS
100
AcDbLine
 10
7.0
 20
10.066666666666666
 30
0.0
 11
8.25
 21
10.066666666666666
 31
0.0
  0
LINE
  5
C7
330
17
100
AcDbEntity
  8
ARQ_MUROS
100
AcDbLine
 10
8.25
 20
10.066666666666666
 30
0.0
 11
9.5
 21
10.066666666666666
 31
0.0
  0
LINE
  5
C8
330
17
100
AcDbEntity
  8
ARQ_MUROS
100
AcDbLine
 10
7.0
 20
10.1
 30
0.0
 11
8.25
 21
10.1
 31
0.0
  0
LINE
  5
C9
330
17
100
AcDbEntity
  8
ARQ_MUROS
100
AcDbLine
 10
8.25
 20
10.1
 30
0.0
 11
9.5
 21
10.1
 31
0.0
  0
LINE
  5
CA
330
17
100
AcDbEntity
  8
ARQ_MUROS
100
AcDbLine
 10
7.0
 20
10.133333333333333
 30
0.0
 11
8.25
 21
10.133333333333333
 31
0.0
  0
LINE
  5
CB
330
17
100
AcDbEntity
  8
ARQ_MUROS
100
AcDbLine
 10
8.25
 20
10.133333333333333
 30
0.0
 11
9.5
 21
10.133333333333333
 31
0.0
  0
LINE
  5
CC
330
17
100
AcDbEntity
  8
ARQ_MUROS
100
AcDbLine
 10
7.0
 20
10.166666666666668
 30
0.0
 11
8.25
 21
10.166666666666668
 31
0.0
  0
LINE
  5
CD
330
17
100
AcDbEntity
  8
ARQ_MUROS
100
AcDbLine
 10
8.25
 20
10.166666666666668
 30
0.0
 11
9.5
 21
10.166666666666668
 31
0.0
  0
LINE
  5
CE
330
17
100
AcDbEntity
  8
ARQ_MUROS
100
AcDbLine
 10
7.0
 20
10.2
 30
0.0
 11
8.25
 21
10.2
 31
0.0
  0
LINE
  5
CF
330
17
100
AcDbEntity
  8
ARQ_MUROS
100
AcDbLine
 10
8.25
 20
10.2
 30
0.0
 11
9.5
 21
10.2
 31
0.0
  0
LINE
  5
D0
330
17
100
AcDbEntity
  8
ARQ_MUROS
100
AcDbLine
 10
7.0
 20
10.233333333333334
 30
0.0
 11
8.25
 21
10.233333333333334
 31
0.0
  0
LINE
  5
D1
330
17
100
AcDbEntity
  8
ARQ_MUROS
100
AcDbLine
 10
8.25
 20
10.233333333333334
 30
0.0
 11
9.5
 21
10.233333333333334
 31
0.0
  0
LINE
  5
D2
330
17
100
AcDbEntity
  8
ARQ_MUROS
100
AcDbLine
 10
7.0
 20
10.266666666666666
 30
0.0
 11
8.25
 21
10.266666666666666
 31
0.0
  0
LINE
  5
D3
330
17
100
AcDbEntity
  8
ARQ_MUROS
100
AcDbLine
 10
8.25
 20
10.266666666666666
 30
0.0
 11
9.5
 21
10.266666666666666
 31
0.0
  0
LINE
  5
D4
330
17
100
AcDbEntity
  8
ARQ_MUROS
100
AcDbLine
 10
6.925
 20
2.5
 30
0.0
 11
6.925
 21
6.5
 31
0.0
  0
LINE
  5
D5
330
17
100
AcDbEntity
  8
ARQ_MUROS
100
AcDbLine
 10
7.075
 20
2.5
 30
0.0
 11
7.075
 21
6.5
 31
0.0
  0
LINE
  5
D6
330
17
100
AcDbEntity
  8
ARQ_MUROS
100
AcDbLine
 10
7.0
 20
6.425
 30
0.0
 11
10.0
 21
6.425
 31
0.0
  0
LINE
  5
D7
330
17
100
AcDbEntity
  8
ARQ_MUROS
100
AcDbLine
 10
7.0
 20
6.575
 30
0.0
 11
10.0
 21
6.575
 31
0.0
  0
LINE
  5
D8
330
17
100
AcDbEntity
  8
ARQ_MUROS
100
AcDbLine
 10
10.0
 20
11.425
 30
0.0
 11
11.5
 21
11.425
 31
0.0
  0
LINE
  5
D9
330
17
100
AcDbEntity
  8
ARQ_MUROS
100
AcDbLine
 10
10.0
 20
11.575
 30
0.0
 11
11.5
 21
11.575
 31
0.0
  0
LINE
  5
DA
330
17
100
AcDbEntity
  8
ARQ_MUROS
100
AcDbLine
 10
6.925
 20
10.0
 30
0.0
 11
6.925
 21
11.5
 31
0.0
  0
LINE
  5
DB
330
17
100
AcDbEntity
  8
ARQ_MUROS
100
AcDbLine
 10
7.075
 20
10.0
 30
0.0
 11
7.075
 21
11.5
 31
0.0
  0
LINE
  5
DC
330
17
100
AcDbEntity
  8
ARQ_MUROS
100
AcDbLine
 10
7.0
 20
2.425
 30
0.0
 11
11.5
 21
2.425
 31
0.0
  0
LINE
  5
DD
330
17
100
AcDbEntity
  8
ARQ_MUROS
100
AcDbLine
 10
7.0
 20
2.575
 30
0.0
 11
11.5
 21
2.575
 31
0.0
  0
LINE
  5
DE
330
17
100
AcDbEntity
  8
ARQ_MUROS
100
AcDbLine
 10
7.0
 20
9.925
 30
0.0
 11
9.5
 21
9.925
 31
0.0
  0
LINE
  5
DF
330
17
100
AcDbEntity
  8
ARQ_MUROS
100
AcDbLine
 10
7.0
 20
10.075
 30
0.0
 11
9.5
 21
10.075
 31
0.0
  0
LINE
  5
E0
330
17
100
AcDbEntity
  8
ARQ_MUROS
100
AcDbLine
 10
7.0
 20
11.425
 30
0.0
 11
9.5
 21
11.425
 31
0.0
  0
LINE
  5
E1
330
17
100
AcDbEntity
  8
ARQ_MUROS
100
AcDbLine
 10
7.0
 20
11.575
 30
0.0
 11
9.5
 21
11.575
 31
0.0
  0
LINE
  5
E2
330
17
100
AcDbEntity
  8
ARQ_MUROS
100
AcDbLine
 10
7.0
 20
9.925
 30
0.0
 11
10.0
 21
9.925
 31
0.0
  0
LINE
  5
E3
330
17
100
AcDbEntity
  8
ARQ_MUROS
100
AcDbLine
 10
7.0
 20
10.075
 30
0.0
 11
10.0
 21
10.075
 31
0.0
  0
LINE
  5
E4
330
17
100
AcDbEntity
  8
ARQ_MUROS
100
AcDbLine
 10
11.425
 20
10.0
 30
0.0
 11
11.425
 21
11.5
 31
0.0
  0
LINE
  5
E5
330
17
100
AcDbEntity
  8
ARQ_MUROS
100
AcDbLine
 10
11.575
 20
10.0
 30
0.0
 11
11.575
 21
11.5
 31
0.0
  0
LINE
  5
E6
330
17
100
AcDbEntity
  8
ARQ_MUROS
100
AcDbLine
 10
11.425
 20
6.5
 30
0.0
 11
11.425
 21
10.0
 31
0.0
  0
LINE
  5
E7
330
17
100
AcDbEntity
  8
ARQ_MUROS
100
AcDbLine
 10
11.575
 20
6.5
 30
0.0
 11
11.575
 21
10.0
 31
0.0
  0
LINE
  5
E8
330
17
100
AcDbEntity
  8
ARQ_MUROS
100
AcDbLine
 10
11.425
 20
2.5
 30
0.0
 11
11.425
 21
6.5
 31
0.0
  0
LINE
  5
E9
330
17
100
AcDbEntity
  8
ARQ_MUROS
100
AcDbLine
 10
11.575
 20
2.5
 30
0.0
 11
11.575
 21
6.5
 31
0.0
  0
LINE
  5
EA
330
17
100
AcDbEntity
  8
ARQ_MUROS
100
AcDbLine
 10
10.0
 20
6.425
 30
0.0
 11
11.5
 21
6.425
 31
0.0
  0
LINE
  5
EB
330
17
100
AcDbEntity
  8
ARQ_MUROS
100
AcDbLine
 10
10.0
 20
6.575
 30
0.0
 11
11.5
 21
6.575
 31
0.0
  0
LINE
  5
EC
330
17
100
AcDbEntity
  8
ARQ_MUROS
100
AcDbLine
 10
10.0
 20
9.925
 30
0.0
 11
11.5
 21
9.925
 31
0.0
  0
LINE
  5
ED
330
17
100
AcDbEntity
  8
ARQ_MUROS
100
AcDbLine
 10
10.0
 20
10.075
 30
0.0
 11
11.5
 21
10.075
 31
0.0
  0
LINE
  5
EE
330
17
100
AcDbEntity
  8
ARQ_MUROS
100
AcDbLine
 10
6.925
 20
6.5
 30
0.0
 11
6.925
 21
10.0
 31
0.0
  0
LINE
  5
EF
330
17
100
AcDbEntity
  8
ARQ_MUROS
100
AcDbLine
 10
7.075
 20
6.5
 30
0.0
 11
7.075
 21
10.0
 31
0.0
  0
LINE
  5
F0
330
17
100
AcDbEntity
  8
ARQ_MUROS
100
AcDbLine
 10
7.0
 20
6.425
 30
0.0
 11
11.5
 21
6.425
 31
0.0
  0
LINE
  5
F1
330
17
100
AcDbEntity
  8
ARQ_MUROS
100
AcDbLine
 10
7.0
 20
6.575
 30
0.0
 11
11.5
 21
6.575
 31
0.0
  0
LINE
  5
F2
330
17
100
AcDbEntity
  8
ARQ_MUROS
100
AcDbLine
 10
9.925
 20
6.5
 30
0.0
 11
9.925
 21
10.0
 31
0.0
  0
LINE
  5
F3
330
17
100
AcDbEntity
  8
ARQ_MUROS
100
AcDbLine
 10
10.075
 20
6.5
 30
0.0
 11
10.075
 21
10.0
 31
0.0
  0
LINE
  5
F4
330
17
100
AcDbEntity
  8
ARQ_PUERTAS
100
AcDbLine
 10
9.3
 20
6.5
 30
0.0
 11
9.3
 21
5.7
 31
0.0
  0
ARC
  5
F5
330
17
100
AcDbEntity
  8
ARQ_PUERTAS
100
AcDbCircle
 10
9.3
 20
6.5
 30
0.0
 40
0.8
100
AcDbArc
 50
180.0
 51
-90.00000000000001
  0
LINE
  5
F6
330
17
100
AcDbEntity
  8
ARQ_PUERTAS
100
AcDbLine
 10
8.0
 20
6.5
 30
0.0
 11
8.0
 21
7.3
 31
0.0
  0
ARC
  5
F7
330
17
100
AcDbEntity
  8
ARQ_PUERTAS
100
AcDbCircle
 10
8.0
 20
6.5
 30
0.0
 40
0.8
100
AcDbArc
 50
0.0
 51
90.0
  0
LINE
  5
F8
330
17
100
AcDbEntity
  8
ARQ_PUERTAS
100
AcDbLine
 10
11.2
 20
10.0
 30
0.0
 11
11.2
 21
10.7
 31
0.0
  0
ARC
  5
F9
330
17
100
AcDbEntity
  8
ARQ_PUERTAS
100
AcDbCircle
 10
11.2
 20
10.0
 30
0.0
 40
0.7
100
AcDbArc
 50
90.0
 51
180.0
  0
LINE
  5
FA
330
17
100
AcDbEntity
  8
ARQ_VENTANAS
100
AcDbLine
 10
9.25
 20
2.425
 30
0.0
 11
10.75
 21
2.425
 31
0.0
  0
LINE
  5
FB
330
17
100
AcDbEntity
  8
ARQ_VENTANAS
100
AcDbLine
 10
10.75
 20
2.425
 30
0.0
 11
10.75
 21
2.575
 31
0.0
  0
LINE
  5
FC
330
17
100
AcDbEntity
  8
ARQ_VENTANAS
100
AcDbLine
 10
10.75
 20
2.575
 30
0.0
 11
9.25
 21
2.575
 31
0.0
  0
LINE
  5
FD
330
17
100
AcDbEntity
  8
ARQ_VENTANAS
100
AcDbLine
 10
9.25
 20
2.575
 30
0.0
 11
9.25
 21
2.425
 31
0.0
  0
LINE
  5
FE
330
17
100
AcDbEntity
  8
ARQ_VENTANAS
100
AcDbLine
 10
9.25
 20
2.5
 30
0.0
 11
10.75
 21
2.5
 31
0.0
  0
LINE
  5
FF
330
17
100
AcDbEntity
  8
ARQ_VENTANAS
100
AcDbLine
 10
6.925
 20
8.25
 30
0.0
 11
7.075
 21
8.25
 31
0.0
  0
LINE
  5
100
330
17
100
AcDbEntity
  8
ARQ_VENTANAS
100
AcDbLine
 10
7.075
 20
8.25
 30
0.0
 11
7.075
 21
9.45
 31
0.0
  0
LINE
  5
101
330
17
100
AcDbEntity
  8
ARQ_VENTANAS
100
AcDbLine
 10
7.075
 20
9.45
 30
0.0
 11
6.925
 21
9.45
 31
0.0
  0
LINE
  5
102
330
17
100
AcDbEntity
  8
ARQ_VENTANAS
100
AcDbLine
 10
6.925
 20
9.45
 30
0.0
 11
6.925
 21
8.25
 31
0.0
  0
LINE
  5
103
330
17
100
AcDbEntity
  8
ARQ_VENTANAS
100
AcDbLine
 10
7.0
 20
8.25
 30
0.0
 11
7.0
 21
9.45
 31
0.0
  0
LINE
  5
104
330
17
100
AcDbEntity
  8
ARQ_VENTANAS
100
AcDbLine
 10
11.425
 20
8.25
 30
0.0
 11
11.575
 21
8.25
 31
0.0
  0
LINE
  5
105
330
17
100
AcDbEntity
  8
ARQ_VENTANAS
100
AcDbLine
 10
11.575
 20
8.25
 30
0.0
 11
11.575
 21
9.25
 31
0.0
  0
LINE
  5
106
330
17
100
AcDbEntity
  8
ARQ_VENTANAS
100
AcDbLine
 10
11.575
 20
9.25
 30
0.0
 11
11.425
 21
9.25
 31
0.0
  0
LINE
  5
107
330
17
100
AcDbEntity
  8
ARQ_VENTANAS
100
AcDbLine
 10
11.425
 20
9.25
 30
0.0
 11
11.425
 21
8.25
 31
0.0
  0
LINE
  5
108
330
17
100
AcDbEntity
  8
ARQ_VENTANAS
100
AcDbLine
 10
11.5
 20
8.25
 30
0.0
 11
11.5
 21
9.25
 31
0.0
  0
LINE
  5
109
330
17
100
AcDbEntity
  8
ARQ_ESCALERAS
100
AcDbLine
 10
7.15
 20
10.0
 30
0.0
 11
7.15
 21
11.5
 31
0.0
  0
LINE
  5
10A
330
17
100
AcDbEntity
  8
ARQ_ESCALERAS
100
AcDbLine
 10
9.5
 20
10.0
 30
0.0
 11
9.5
 21
11.5
 31
0.0
  0
LINE
  5
10B
330
17
100
AcDbEntity
  8
ARQ_ESCALERAS
100
AcDbLine
 10
7.15
 20
10.0
 30
0.0
 11
9.5
 21
10.0
 31
0.0
  0
LINE
  5
10C
330
17
100
AcDbEntity
  8
ARQ_ESCALERAS
100
AcDbLine
 10
7.15
 20
11.5
 30
0.0
 11
9.5
 21
11.5
 31
0.0
  0
LINE
  5
10D
330
17
100
AcDbEntity
  8
ARQ_ESCALERAS
100
AcDbLine
 10
7.15
 20
10.1875
 30
0.0
 11
9.5
 21
10.1875
 31
0.0
  0
LINE
  5
10E
330
17
100
AcDbEntity
  8
ARQ_ESCALERAS
100
AcDbLine
 10
7.15
 20
10.375
 30
0.0
 11
9.5
 21
10.375
 31
0.0
  0
LINE
  5
10F
330
17
100
AcDbEntity
  8
ARQ_ESCALERAS
100
AcDbLine
 10
7.15
 20
10.5625
 30
0.0
 11
9.5
 21
10.5625
 31
0.0
  0
LINE
  5
110
330
17
100
AcDbEntity
  8
ARQ_ESCALERAS
100
AcDbLine
 10
7.15
 20
10.75
 30
0.0
 11
9.5
 21
10.75
 31
0.0
  0
LINE
  5
111
330
17
100
AcDbEntity
  8
ARQ_ESCALERAS
100
AcDbLine
 10
7.15
 20
10.9375
 30
0.0
 11
9.5
 21
10.9375
 31
0.0
  0
LINE
  5
112
330
17
100
AcDbEntity
  8
ARQ_ESCALERAS
100
AcDbLine
 10
7.15
 20
11.125
 30
0.0
 11
9.5
 21
11.125
 31
0.0
  0
LINE
  5
113
330
17
100
AcDbEntity
  8
ARQ_ESCALERAS
100
AcDbLine
 10
7.15
 20
11.3125
 30
0.0
 11
9.5
 21
11.3125
 31
0.0
  0
TEXT
  5
114
330
17
100
AcDbEntity
  8
ARQ_TEXTOS
100
AcDbText
 10
9.25
 20
4.5
 30
0.0
 40
0.16
  1
Dormitorio Principal
 72
1
 11
9.25
 21
4.5
 31
0.0
100
AcDbText
 73
2
  0
TEXT
  5
115
330
17
100
AcDbEntity
  8
ARQ_TEXTOS
100
AcDbText
 10
8.5
 20
8.25
 30
0.0
 40
0.16
  1
Dormitorio 3
 72
1
 11
8.5
 21
8.25
 31
0.0
100
AcDbText
 73
2
  0
TEXT
  5
116
330
17
100
AcDbEntity
  8
ARQ_TEXTOS
100
AcDbText
 10
10.75
 20
8.25
 30
0.0
 40
0.16
  1
Sala / Hall
 72
1
 11
10.75
 21
8.25
 31
0.0
100
AcDbText
 73
2
  0
TEXT
  5
117
330
17
100
AcDbEntity
  8
ARQ_TEXTOS
100
AcDbText
 10
10.75
 20
10.75
 30
0.0
 40
0.16
  1
Bano
 72
1
 11
10.75
 21
10.75
 31
0.0
100
AcDbText
 73
2
  0
TEXT
  5
118
330
17
100
AcDbEntity
  8
ARQ_TEXTOS
100
AcDbText
 10
8.25
 20
10.75
 30
0.0
 40
0.16
  1
Escalera
 72
1
 11
8.25
 21
10.75
 31
0.0
100
AcDbText
 73
2
  0
CIRCLE
  5
119
330
17
100
AcDbEntity
  8
ELEC_LUMINARIAS
420
14449945
100
AcDbCircle
 10
8.55
 20
4.15
 30
0.0
 40
0.16
  0
LINE
  5
11A
330
17
100
AcDbEntity
  8
ELEC_LUMINARIAS
420
14449945
100
AcDbLine
 10
8.440000000000001
 20
4.04
 30
0.0
 11
8.66
 21
4.260000000000001
 31
0.0
  0
LINE
  5
11B
330
17
100
AcDbEntity
  8
ELEC_LUMINARIAS
420
14449945
100
AcDbLine
 10
8.440000000000001
 20
4.260000000000001
 30
0.0
 11
8.66
 21
4.04
 31
0.0
  0
TEXT
  5
11C
330
17
100
AcDbEntity
  8
ELEC_TEXTOS
100
AcDbText
 10
8.83
 20
4.33
 30
0.0
 40
0.12
  1
C4
 72
1
 11
8.83
 21
4.33
 31
0.0
100
AcDbText
 73
2
  0
CIRCLE
  5
11D
330
17
100
AcDbEntity
  8
ELEC_LUMINARIAS
420
14449945
100
AcDbCircle
 10
10.25
 20
5.15
 30
0.0
 40
0.16
  0
LINE
  5
11E
330
17
100
AcDbEntity
  8
ELEC_LUMINARIAS
420
14449945
100
AcDbLine
 10
10.14
 20
5.04
 30
0.0
 11
10.36
 21
5.260000000000001
 31
0.0
  0
LINE
  5
11F
330
17
100
AcDbEntity
  8
ELEC_LUMINARIAS
420
14449945
100
AcDbLine
 10
10.14
 20
5.260000000000001
 30
0.0
 11
10.36
 21
5.04
 31
0.0
  0
TEXT
  5
120
330
17
100
AcDbEntity
  8
ELEC_TEXTOS
100
AcDbText
 10
10.53
 20
5.33
 30
0.0
 40
0.12
  1
C4
 72
1
 11
10.53
 21
5.33
 31
0.0
100
AcDbText
 73
2
  0
CIRCLE
  5
121
330
17
100
AcDbEntity
  8
ELEC_LUMINARIAS
420
14449945
100
AcDbCircle
 10
8.5
 20
8.25
 30
0.0
 40
0.16
  0
LINE
  5
122
330
17
100
AcDbEntity
  8
ELEC_LUMINARIAS
420
14449945
100
AcDbLine
 10
8.39
 20
8.14
 30
0.0
 11
8.61
 21
8.36
 31
0.0
  0
LINE
  5
123
330
17
100
AcDbEntity
  8
ELEC_LUMINARIAS
420
14449945
100
AcDbLine
 10
8.39
 20
8.36
 30
0.0
 11
8.61
 21
8.14
 31
0.0
  0
TEXT
  5
124
330
17
100
AcDbEntity
  8
ELEC_TEXTOS
100
AcDbText
 10
8.78
 20
8.43
 30
0.0
 40
0.12
  1
C4
 72
1
 11
8.78
 21
8.43
 31
0.0
100
AcDbText
 73
2
  0
CIRCLE
  5
125
330
17
100
AcDbEntity
  8
ELEC_LUMINARIAS
420
14449945
100
AcDbCircle
 10
10.75
 20
8.25
 30
0.0
 40
0.16
  0
LINE
  5
126
330
17
100
AcDbEntity
  8
ELEC_LUMINARIAS
420
14449945
100
AcDbLine
 10
10.64
 20
8.14
 30
0.0
 11
10.86
 21
8.36
 31
0.0
  0
LINE
  5
127
330
17
100
AcDbEntity
  8
ELEC_LUMINARIAS
420
14449945
100
AcDbLine
 10
10.64
 20
8.36
 30
0.0
 11
10.86
 21
8.14
 31
0.0
  0
TEXT
  5
128
330
17
100
AcDbEntity
  8
ELEC_TEXTOS
100
AcDbText
 10
11.03
 20
8.43
 30
0.0
 40
0.12
  1
C4
 72
1
 11
11.03
 21
8.43
 31
0.0
100
AcDbText
 73
2
  0
CIRCLE
  5
129
330
17
100
AcDbEntity
  8
ELEC_LUMINARIAS
420
14449945
100
AcDbCircle
 10
10.75
 20
10.75
 30
0.0
 40
0.16
  0
LINE
  5
12A
330
17
100
AcDbEntity
  8
ELEC_LUMINARIAS
420
14449945
100
AcDbLine
 10
10.64
 20
10.64
 30
0.0
 11
10.86
 21
10.86
 31
0.0
  0
LINE
  5
12B
330
17
100
AcDbEntity
  8
ELEC_LUMINARIAS
420
14449945
100
AcDbLine
 10
10.64
 20
10.86
 30
0.0
 11
10.86
 21
10.64
 31
0.0
  0
TEXT
  5
12C
330
17
100
AcDbEntity
  8
ELEC_TEXTOS
100
AcDbText
 10
11.03
 20
10.93
 30
0.0
 40
0.12
  1
C4
 72
1
 11
11.03
 21
10.93
 31
0.0
100
AcDbText
 73
2
  0
CIRCLE
  5
12D
330
17
100
AcDbEntity
  8
ELEC_INTERRUPTORES
420
14449945
100
AcDbCircle
 10
9.15
 20
6.75
 30
0.0
 40
0.1
  0
TEXT
  5
12E
330
17
100
AcDbEntity
  8
ELEC_INTERRUPTORES
100
AcDbText
 10
9.15
 20
6.52
 30
0.0
 40
0.12
  1
S
 72
1
 11
9.15
 21
6.52
 31
0.0
100
AcDbText
 73
2
  0
CIRCLE
  5
12F
330
17
100
AcDbEntity
  8
ELEC_INTERRUPTORES
420
14449945
100
AcDbCircle
 10
9.65
 20
6.85
 30
0.0
 40
0.1
  0
TEXT
  5
130
330
17
100
AcDbEntity
  8
ELEC_INTERRUPTORES
100
AcDbText
 10
9.65
 20
6.619999999999999
 30
0.0
 40
0.12
  1
S
 72
1
 11
9.65
 21
6.619999999999999
 31
0.0
100
AcDbText
 73
2
  0
CIRCLE
  5
131
330
17
100
AcDbEntity
  8
ELEC_INTERRUPTORES
420
14449945
100
AcDbCircle
 10
10.25
 20
6.85
 30
0.0
 40
0.1
  0
TEXT
  5
132
330
17
100
AcDbEntity
  8
ELEC_INTERRUPTORES
100
AcDbText
 10
10.25
 20
6.619999999999999
 30
0.0
 40
0.12
  1
S
 72
1
 11
10.25
 21
6.619999999999999
 31
0.0
100
AcDbText
 73
2
  0
CIRCLE
  5
133
330
17
100
AcDbEntity
  8
ELEC_INTERRUPTORES
420
14449945
100
AcDbCircle
 10
10.25
 20
9.85
 30
0.0
 40
0.1
  0
TEXT
  5
134
330
17
100
AcDbEntity
  8
ELEC_INTERRUPTORES
100
AcDbText
 10
10.25
 20
9.62
 30
0.0
 40
0.12
  1
S
 72
1
 11
10.25
 21
9.62
 31
0.0
100
AcDbText
 73
2
  0
CIRCLE
  5
135
330
17
100
AcDbEntity
  8
ELEC_INTERRUPTORES
420
14449945
100
AcDbCircle
 10
9.15
 20
10.85
 30
0.0
 40
0.1
  0
TEXT
  5
136
330
17
100
AcDbEntity
  8
ELEC_INTERRUPTORES
100
AcDbText
 10
9.15
 20
10.62
 30
0.0
 40
0.12
  1
S3
 72
1
 11
9.15
 21
10.62
 31
0.0
100
AcDbText
 73
2
  0
TEXT
  5
137
330
17
100
AcDbEntity
  8
ELEC_TEXTOS
100
AcDbText
 10
16.25
 20
11.95
 30
0.0
 40
0.22
  1
TERCER PISO
 72
1
 11
16.25
 21
11.95
 31
0.0
100
AcDbText
 73
2
  0
LINE
  5
138
330
17
100
AcDbEntity
  8
ARQ_MUROS
100
AcDbLine
 10
15.05
 20
10.0
 30
0.0
 11
15.05
 21
10.3
 31
0.0
  0
LINE
  5
139
330
17
100
AcDbEntity
  8
ARQ_MUROS
100
AcDbLine
 10
14.0
 20
10.3
 30
0.0
 11
16.1
 21
10.3
 31
0.0
  0
LINE
  5
13A
330
17
100
AcDbEntity
  8
ARQ_MUROS
100
AcDbLine
 10
14.0
 20
10.033333333333333
 30
0.0
 11
15.05
 21
10.033333333333333
 31
0.0
  0
LINE
  5
13B
330
17
100
AcDbEntity
  8
ARQ_MUROS
100
AcDbLine
 10
15.05
 20
10.033333333333333
 30
0.0
 11
16.1
 21
10.033333333333333
 31
0.0
  0
LINE
  5
13C
330
17
100
AcDbEntity
  8
ARQ_MUROS
100
AcDbLine
 10
14.0
 20
10.066666666666666
 30
0.0
 11
15.05
 21
10.066666666666666
 31
0.0
  0
LINE
  5
13D
330
17
100
AcDbEntity
  8
ARQ_MUROS
100
AcDbLine
 10
15.05
 20
10.066666666666666
 30
0.0
 11
16.1
 21
10.066666666666666
 31
0.0
  0
LINE
  5
13E
330
17
100
AcDbEntity
  8
ARQ_MUROS
100
AcDbLine
 10
14.0
 20
10.1
 30
0.0
 11
15.05
 21
10.1
 31
0.0
  0
LINE
  5
13F
330
17
100
AcDbEntity
  8
ARQ_MUROS
100
AcDbLine
 10
15.05
 20
10.1
 30
0.0
 11
16.1
 21
10.1
 31
0.0
  0
LINE
  5
140
330
17
100
AcDbEntity
  8
ARQ_MUROS
100
AcDbLine
 10
14.0
 20
10.133333333333333
 30
0.0
 11
15.05
 21
10.133333333333333
 31
0.0
  0
LINE
  5
141
330
17
100
AcDbEntity
  8
ARQ_MUROS
100
AcDbLine
 10
15.05
 20
10.133333333333333
 30
0.0
 11
16.1
 21
10.133333333333333
 31
0.0
  0
LINE
  5
142
330
17
100
AcDbEntity
  8
ARQ_MUROS
100
AcDbLine
 10
14.0
 20
10.166666666666668
 30
0.0
 11
15.05
 21
10.166666666666668
 31
0.0
  0
LINE
  5
143
330
17
100
AcDbEntity
  8
ARQ_MUROS
100
AcDbLine
 10
15.05
 20
10.166666666666668
 30
0.0
 11
16.1
 21
10.166666666666668
 31
0.0
  0
LINE
  5
144
330
17
100
AcDbEntity
  8
ARQ_MUROS
100
AcDbLine
 10
14.0
 20
10.2
 30
0.0
 11
15.05
 21
10.2
 31
0.0
  0
LINE
  5
145
330
17
100
AcDbEntity
  8
ARQ_MUROS
100
AcDbLine
 10
15.05
 20
10.2
 30
0.0
 11
16.1
 21
10.2
 31
0.0
  0
LINE
  5
146
330
17
100
AcDbEntity
  8
ARQ_MUROS
100
AcDbLine
 10
14.0
 20
10.233333333333334
 30
0.0
 11
15.05
 21
10.233333333333334
 31
0.0
  0
LINE
  5
147
330
17
100
AcDbEntity
  8
ARQ_MUROS
100
AcDbLine
 10
15.05
 20
10.233333333333334
 30
0.0
 11
16.1
 21
10.233333333333334
 31
0.0
  0
LINE
  5
148
330
17
100
AcDbEntity
  8
ARQ_MUROS
100
AcDbLine
 10
14.0
 20
10.266666666666666
 30
0.0
 11
15.05
 21
10.266666666666666
 31
0.0
  0
LINE
  5
149
330
17
100
AcDbEntity
  8
ARQ_MUROS
100
AcDbLine
 10
15.05
 20
10.266666666666666
 30
0.0
 11
16.1
 21
10.266666666666666
 31
0.0
  0
LINE
  5
14A
330
17
100
AcDbEntity
  8
ARQ_MUROS
100
AcDbLine
 10
14.0
 20
2.425
 30
0.0
 11
16.25
 21
2.425
 31
0.0
  0
LINE
  5
14B
330
17
100
AcDbEntity
  8
ARQ_MUROS
100
AcDbLine
 10
14.0
 20
2.575
 30
0.0
 11
16.25
 21
2.575
 31
0.0
  0
LINE
  5
14C
330
17
100
AcDbEntity
  8
ARQ_MUROS
100
AcDbLine
 10
14.0
 20
11.425
 30
0.0
 11
16.1
 21
11.425
 31
0.0
  0
LINE
  5
14D
330
17
100
AcDbEntity
  8
ARQ_MUROS
100
AcDbLine
 10
14.0
 20
11.575
 30
0.0
 11
16.1
 21
11.575
 31
0.0
  0
LINE
  5
14E
330
17
100
AcDbEntity
  8
ARQ_MUROS
100
AcDbLine
 10
18.425
 20
10.0
 30
0.0
 11
18.425
 21
11.5
 31
0.0
  0
LINE
  5
14F
330
17
100
AcDbEntity
  8
ARQ_MUROS
100
AcDbLine
 10
18.575
 20
10.0
 30
0.0
 11
18.575
 21
11.5
 31
0.0
  0
LINE
  5
150
330
17
100
AcDbEntity
  8
ARQ_MUROS
100
AcDbLine
 10
13.925
 20
10.0
 30
0.0
 11
13.925
 21
11.5
 31
0.0
  0
LINE
  5
151
330
17
100
AcDbEntity
  8
ARQ_MUROS
100
AcDbLine
 10
14.075
 20
10.0
 30
0.0
 11
14.075
 21
11.5
 31
0.0
  0
LINE
  5
152
330
17
100
AcDbEntity
  8
ARQ_MUROS
100
AcDbLine
 10
16.25
 20
2.425
 30
0.0
 11
18.5
 21
2.425
 31
0.0
  0
LINE
  5
153
330
17
100
AcDbEntity
  8
ARQ_MUROS
100
AcDbLine
 10
16.25
 20
2.575
 30
0.0
 11
18.5
 21
2.575
 31
0.0
  0
LINE
  5
154
330
17
100
AcDbEntity
  8
ARQ_MUROS
100
AcDbLine
 10
14.0
 20
9.925
 30
0.0
 11
16.25
 21
9.925
 31
0.0
  0
LINE
  5
155
330
17
100
AcDbEntity
  8
ARQ_MUROS
100
AcDbLine
 10
14.0
 20
10.075
 30
0.0
 11
16.25
 21
10.075
 31
0.0
  0
LINE
  5
156
330
17
100
AcDbEntity
  8
ARQ_MUROS
100
AcDbLine
 10
16.25
 20
11.425
 30
0.0
 11
18.5
 21
11.425
 31
0.0
  0
LINE
  5
157
330
17
100
AcDbEntity
  8
ARQ_MUROS
100
AcDbLine
 10
16.25
 20
11.575
 30
0.0
 11
18.5
 21
11.575
 31
0.0
  0
LINE
  5
158
330
17
100
AcDbEntity
  8
ARQ_MUROS
100
AcDbLine
 10
18.425
 20
2.5
 30
0.0
 11
18.425
 21
10.0
 31
0.0
  0
LINE
  5
159
330
17
100
AcDbEntity
  8
ARQ_MUROS
100
AcDbLine
 10
18.575
 20
2.5
 30
0.0
 11
18.575
 21
10.0
 31
0.0
  0
LINE
  5
15A
330
17
100
AcDbEntity
  8
ARQ_MUROS
100
AcDbLine
 10
13.925
 20
2.5
 30
0.0
 11
13.925
 21
10.0
 31
0.0
  0
LINE
  5
15B
330
17
100
AcDbEntity
  8
ARQ_MUROS
100
AcDbLine
 10
14.075
 20
2.5
 30
0.0
 11
14.075
 21
10.0
 31
0.0
  0
LINE
  5
15C
330
17
100
AcDbEntity
  8
ARQ_MUROS
100
AcDbLine
 10
16.175
 20
2.5
 30
0.0
 11
16.175
 21
10.0
 31
0.0
  0
LINE
  5
15D
330
17
100
AcDbEntity
  8
ARQ_MUROS
100
AcDbLine
 10
16.325
 20
2.5
 30
0.0
 11
16.325
 21
10.0
 31
0.0
  0
LINE
  5
15E
330
17
100
AcDbEntity
  8
ARQ_MUROS
100
AcDbLine
 10
16.25
 20
9.925
 30
0.0
 11
18.5
 21
9.925
 31
0.0
  0
LINE
  5
15F
330
17
100
AcDbEntity
  8
ARQ_MUROS
100
AcDbLine
 10
16.25
 20
10.075
 30
0.0
 11
18.5
 21
10.075
 31
0.0
  0
LINE
  5
160
330
17
100
AcDbEntity
  8
ARQ_MUROS
100
AcDbLine
 10
14.0
 20
11.425
 30
0.0
 11
16.25
 21
11.425
 31
0.0
  0
LINE
  5
161
330
17
100
AcDbEntity
  8
ARQ_MUROS
100
AcDbLine
 10
14.0
 20
11.575
 30
0.0
 11
16.25
 21
11.575
 31
0.0
  0
LINE
  5
162
330
17
100
AcDbEntity
  8
ARQ_MUROS
100
AcDbLine
 10
14.0
 20
9.925
 30
0.0
 11
16.1
 21
9.925
 31
0.0
  0
LINE
  5
163
330
17
100
AcDbEntity
  8
ARQ_MUROS
100
AcDbLine
 10
14.0
 20
10.075
 30
0.0
 11
16.1
 21
10.075
 31
0.0
  0
LINE
  5
164
330
17
100
AcDbEntity
  8
ARQ_PUERTAS
100
AcDbLine
 10
15.92
 20
10.0
 30
0.0
 11
15.92
 21
9.2
 31
0.0
  0
ARC
  5
165
330
17
100
AcDbEntity
  8
ARQ_PUERTAS
100
AcDbCircle
 10
15.92
 20
10.0
 30
0.0
 40
0.8
100
AcDbArc
 50
180.0
 51
-90.00000000000001
  0
LINE
  5
166
330
17
100
AcDbEntity
  8
ARQ_PUERTAS
100
AcDbLine
 10
16.25
 20
10.0
 30
0.0
 11
16.25
 21
9.2
 31
0.0
  0
ARC
  5
167
330
17
100
AcDbEntity
  8
ARQ_PUERTAS
100
AcDbCircle
 10
16.25
 20
10.0
 30
0.0
 40
0.8
100
AcDbArc
 50
-90.00000000000001
 51
-1.4033418597069752e-14
  0
LINE
  5
168
330
17
100
AcDbEntity
  8
ARQ_PUERTAS
100
AcDbLine
 10
17.37
 20
10.0
 30
0.0
 11
17.37
 21
10.7
 31
0.0
  0
ARC
  5
169
330
17
100
AcDbEntity
  8
ARQ_PUERTAS
100
AcDbCircle
 10
17.37
 20
10.0
 30
0.0
 40
0.7
100
AcDbArc
 50
0.0
 51
90.0
  0
LINE
  5
16A
330
17
100
AcDbEntity
  8
ARQ_VENTANAS
100
AcDbLine
 10
15.120000000000001
 20
2.425
 30
0.0
 11
16.12
 21
2.425
 31
0.0
  0
LINE
  5
16B
330
17
100
AcDbEntity
  8
ARQ_VENTANAS
100
AcDbLine
 10
16.12
 20
2.425
 30
0.0
 11
16.12
 21
2.575
 31
0.0
  0
LINE
  5
16C
330
17
100
AcDbEntity
  8
ARQ_VENTANAS
100
AcDbLine
 10
16.12
 20
2.575
 30
0.0
 11
15.120000000000001
 21
2.575
 31
0.0
  0
LINE
  5
16D
330
17
100
AcDbEntity
  8
ARQ_VENTANAS
100
AcDbLine
 10
15.120000000000001
 20
2.575
 30
0.0
 11
15.120000000000001
 21
2.425
 31
0.0
  0
LINE
  5
16E
330
17
100
AcDbEntity
  8
ARQ_VENTANAS
100
AcDbLine
 10
15.120000000000001
 20
2.5
 30
0.0
 11
16.12
 21
2.5
 31
0.0
  0
LINE
  5
16F
330
17
100
AcDbEntity
  8
ARQ_VENTANAS
100
AcDbLine
 10
17.37
 20
2.425
 30
0.0
 11
18.37
 21
2.425
 31
0.0
  0
LINE
  5
170
330
17
100
AcDbEntity
  8
ARQ_VENTANAS
100
AcDbLine
 10
18.37
 20
2.425
 30
0.0
 11
18.37
 21
2.575
 31
0.0
  0
LINE
  5
171
330
17
100
AcDbEntity
  8
ARQ_VENTANAS
100
AcDbLine
 10
18.37
 20
2.575
 30
0.0
 11
17.37
 21
2.575
 31
0.0
  0
LINE
  5
172
330
17
100
AcDbEntity
  8
ARQ_VENTANAS
100
AcDbLine
 10
17.37
 20
2.575
 30
0.0
 11
17.37
 21
2.425
 31
0.0
  0
LINE
  5
173
330
17
100
AcDbEntity
  8
ARQ_VENTANAS
100
AcDbLine
 10
17.37
 20
2.5
 30
0.0
 11
18.37
 21
2.5
 31
0.0
  0
LINE
  5
174
330
17
100
AcDbEntity
  8
ARQ_VENTANAS
100
AcDbLine
 10
18.425
 20
10.75
 30
0.0
 11
18.575
 21
10.75
 31
0.0
  0
LINE
  5
175
330
17
100
AcDbEntity
  8
ARQ_VENTANAS
100
AcDbLine
 10
18.575
 20
10.75
 30
0.0
 11
18.575
 21
11.55
 31
0.0
  0
LINE
  5
176
330
17
100
AcDbEntity
  8
ARQ_VENTANAS
100
AcDbLine
 10
18.575
 20
11.55
 30
0.0
 11
18.425
 21
11.55
 31
0.0
  0
LINE
  5
177
330
17
100
AcDbEntity
  8
ARQ_VENTANAS
100
AcDbLine
 10
18.425
 20
11.55
 30
0.0
 11
18.425
 21
10.75
 31
0.0
  0
LINE
  5
178
330
17
100
AcDbEntity
  8
ARQ_VENTANAS
100
AcDbLine
 10
18.5
 20
10.75
 30
0.0
 11
18.5
 21
11.55
 31
0.0
  0
LINE
  5
179
330
17
100
AcDbEntity
  8
ARQ_ESCALERAS
100
AcDbLine
 10
14.15
 20
10.0
 30
0.0
 11
14.15
 21
11.5
 31
0.0
  0
LINE
  5
17A
330
17
100
AcDbEntity
  8
ARQ_ESCALERAS
100
AcDbLine
 10
16.1
 20
10.0
 30
0.0
 11
16.1
 21
11.5
 31
0.0
  0
LINE
  5
17B
330
17
100
AcDbEntity
  8
ARQ_ESCALERAS
100
AcDbLine
 10
14.15
 20
10.0
 30
0.0
 11
16.1
 21
10.0
 31
0.0
  0
LINE
  5
17C
330
17
100
AcDbEntity
  8
ARQ_ESCALERAS
100
AcDbLine
 10
14.15
 20
11.5
 30
0.0
 11
16.1
 21
11.5
 31
0.0
  0
LINE
  5
17D
330
17
100
AcDbEntity
  8
ARQ_ESCALERAS
100
AcDbLine
 10
14.15
 20
10.1875
 30
0.0
 11
16.1
 21
10.1875
 31
0.0
  0
LINE
  5
17E
330
17
100
AcDbEntity
  8
ARQ_ESCALERAS
100
AcDbLine
 10
14.15
 20
10.375
 30
0.0
 11
16.1
 21
10.375
 31
0.0
  0
LINE
  5
17F
330
17
100
AcDbEntity
  8
ARQ_ESCALERAS
100
AcDbLine
 10
14.15
 20
10.5625
 30
0.0
 11
16.1
 21
10.5625
 31
0.0
  0
LINE
  5
180
330
17
100
AcDbEntity
  8
ARQ_ESCALERAS
100
AcDbLine
 10
14.15
 20
10.75
 30
0.0
 11
16.1
 21
10.75
 31
0.0
  0
LINE
  5
181
330
17
100
AcDbEntity
  8
ARQ_ESCALERAS
100
AcDbLine
 10
14.15
 20
10.9375
 30
0.0
 11
16.1
 21
10.9375
 31
0.0
  0
LINE
  5
182
330
17
100
AcDbEntity
  8
ARQ_ESCALERAS
100
AcDbLine
 10
14.15
 20
11.125
 30
0.0
 11
16.1
 21
11.125
 31
0.0
  0
LINE
  5
183
330
17
100
AcDbEntity
  8
ARQ_ESCALERAS
100
AcDbLine
 10
14.15
 20
11.3125
 30
0.0
 11
16.1
 21
11.3125
 31
0.0
  0
TEXT
  5
184
330
17
100
AcDbEntity
  8
ARQ_TEXTOS
100
AcDbText
 10
15.125
 20
6.25
 30
0.0
 40
0.16
  1
Dormitorio 4
 72
1
 11
15.125
 21
6.25
 31
0.0
100
AcDbText
 73
2
  0
TEXT
  5
185
330
17
100
AcDbEntity
  8
ARQ_TEXTOS
100
AcDbText
 10
17.375
 20
6.25
 30
0.0
 40
0.16
  1
Dormitorio 5
 72
1
 11
17.375
 21
6.25
 31
0.0
100
AcDbText
 73
2
  0
TEXT
  5
186
330
17
100
AcDbEntity
  8
ARQ_TEXTOS
100
AcDbText
 10
15.125
 20
10.75
 30
0.0
 40
0.16
  1
Pasadizo
 72
1
 11
15.125
 21
10.75
 31
0.0
100
AcDbText
 73
2
  0
TEXT
  5
187
330
17
100
AcDbEntity
  8
ARQ_TEXTOS
100
AcDbText
 10
17.375
 20
10.75
 30
0.0
 40
0.16
  1
Bano
 72
1
 11
17.375
 21
10.75
 31
0.0
100
AcDbText
 73
2
  0
TEXT
  5
188
330
17
100
AcDbEntity
  8
ARQ_TEXTOS
100
AcDbText
 10
15.05
 20
10.75
 30
0.0
 40
0.16
  1
Escalera
 72
1
 11
15.05
 21
10.75
 31
0.0
100
AcDbText
 73
2
  0
CIRCLE
  5
189
330
17
100
AcDbEntity
  8
ELEC_LUMINARIAS
420
14449945
100
AcDbCircle
 10
15.120000000000001
 20
4.3
 30
0.0
 40
0.16
  0
LINE
  5
18A
330
17
100
AcDbEntity
  8
ELEC_LUMINARIAS
420
14449945
100
AcDbLine
 10
15.010000000000002
 20
4.1899999999999995
 30
0.0
 11
15.23
 21
4.41
 31
0.0
  0
LINE
  5
18B
330
17
100
AcDbEntity
  8
ELEC_LUMINARIAS
420
14449945
100
AcDbLine
 10
15.010000000000002
 20
4.41
 30
0.0
 11
15.23
 21
4.1899999999999995
 31
0.0
  0
TEXT
  5
18C
330
17
100
AcDbEntity
  8
ELEC_TEXTOS
100
AcDbText
 10
15.4
 20
4.4799999999999995
 30
0.0
 40
0.12
  1
C6
 72
1
 11
15.4
 21
4.4799999999999995
 31
0.0
100
AcDbText
 73
2
  0
CIRCLE
  5
18D
330
17
100
AcDbEntity
  8
ELEC_LUMINARIAS
420
14449945
100
AcDbCircle
 10
15.120000000000001
 20
7.9
 30
0.0
 40
0.16
  0
LINE
  5
18E
330
17
100
AcDbEntity
  8
ELEC_LUMINARIAS
420
14449945
100
AcDbLine
 10
15.010000000000002
 20
7.79
 30
0.0
 11
15.23
 21
8.01
 31
0.0
  0
LINE
  5
18F
330
17
100
AcDbEntity
  8
ELEC_LUMINARIAS
420
14449945
100
AcDbLine
 10
15.010000000000002
 20
8.01
 30
0.0
 11
15.23
 21
7.79
 31
0.0
  0
TEXT
  5
190
330
17
100
AcDbEntity
  8
ELEC_TEXTOS
100
AcDbText
 10
15.4
 20
8.08
 30
0.0
 40
0.12
  1
C6
 72
1
 11
15.4
 21
8.08
 31
0.0
100
AcDbText
 73
2
  0
CIRCLE
  5
191
330
17
100
AcDbEntity
  8
ELEC_LUMINARIAS
420
14449945
100
AcDbCircle
 10
17.37
 20
4.3
 30
0.0
 40
0.16
  0
LINE
  5
192
330
17
100
AcDbEntity
  8
ELEC_LUMINARIAS
420
14449945
100
AcDbLine
 10
17.26
 20
4.1899999999999995
 30
0.0
 11
17.48
 21
4.41
 31
0.0
  0
LINE
  5
193
330
17
100
AcDbEntity
  8
ELEC_LUMINARIAS
420
14449945
100
AcDbLine
 10
17.26
 20
4.41
 30
0.0
 11
17.48
 21
4.1899999999999995
 31
0.0
  0
TEXT
  5
194
330
17
100
AcDbEntity
  8
ELEC_TEXTOS
100
AcDbText
 10
17.650000000000002
 20
4.4799999999999995
 30
0.0
 40
0.12
  1
C6
 72
1
 11
17.650000000000002
 21
4.4799999999999995
 31
0.0
100
AcDbText
 73
2
  0
CIRCLE
  5
195
330
17
100
AcDbEntity
  8
ELEC_LUMINARIAS
420
14449945
100
AcDbCircle
 10
17.37
 20
7.9
 30
0.0
 40
0.16
  0
LINE
  5
196
330
17
100
AcDbEntity
  8
ELEC_LUMINARIAS
420
14449945
100
AcDbLine
 10
17.26
 20
7.79
 30
0.0
 11
17.48
 21
8.01
 31
0.0
  0
LINE
  5
197
330
17
100
AcDbEntity
  8
ELEC_LUMINARIAS
420
14449945
100
AcDbLine
 10
17.26
 20
8.01
 30
0.0
 11
17.48
 21
7.79
 31
0.0
  0
TEXT
  5
198
330
17
100
AcDbEntity
  8
ELEC_TEXTOS
100
AcDbText
 10
17.650000000000002
 20
8.08
 30
0.0
 40
0.12
  1
C6
 72
1
 11
17.650000000000002
 21
8.08
 31
0.0
100
AcDbText
 73
2
  0
CIRCLE
  5
199
330
17
100
AcDbEntity
  8
ELEC_LUMINARIAS
420
14449945
100
AcDbCircle
 10
15.1
 20
10.75
 30
0.0
 40
0.16
  0
LINE
  5
19A
330
17
100
AcDbEntity
  8
ELEC_LUMINARIAS
420
14449945
100
AcDbLine
 10
14.99
 20
10.64
 30
0.0
 11
15.209999999999999
 21
10.86
 31
0.0
  0
LINE
  5
19B
330
17
100
AcDbEntity
  8
ELEC_LUMINARIAS
420
14449945
100
AcDbLine
 10
14.99
 20
10.86
 30
0.0
 11
15.209999999999999
 21
10.64
 31
0.0
  0
TEXT
  5
19C
330
17
100
AcDbEntity
  8
ELEC_TEXTOS
100
AcDbText
 10
15.379999999999999
 20
10.93
 30
0.0
 40
0.12
  1
C6
 72
1
 11
15.379999999999999
 21
10.93
 31
0.0
100
AcDbText
 73
2
  0
CIRCLE
  5
19D
330
17
100
AcDbEntity
  8
ELEC_LUMINARIAS
420
14449945
100
AcDbCircle
 10
17.35
 20
10.75
 30
0.0
 40
0.16
  0
LINE
  5
19E
330
17
100
AcDbEntity
  8
ELEC_LUMINARIAS
420
14449945
100
AcDbLine
 10
17.240000000000002
 20
10.64
 30
0.0
 11
17.46
 21
10.86
 31
0.0
  0
LINE
  5
19F
330
17
100
AcDbEntity
  8
ELEC_LUMINARIAS
420
14449945
100
AcDbLine
 10
17.240000000000002
 20
10.86
 30
0.0
 11
17.46
 21
10.64
 31
0.0
  0
TEXT
  5
1A0
330
17
100
AcDbEntity
  8
ELEC_TEXTOS
100
AcDbText
 10
17.630000000000003
 20
10.93
 30
0.0
 40
0.12
  1
C6
 72
1
 11
17.630000000000003
 21
10.93
 31
0.0
100
AcDbText
 73
2
  0
CIRCLE
  5
1A1
330
17
100
AcDbEntity
  8
ELEC_LUMINARIAS
420
14449945
100
AcDbCircle
 10
14.65
 20
11.05
 30
0.0
 40
0.16
  0
LINE
  5
1A2
330
17
100
AcDbEntity
  8
ELEC_LUMINARIAS
420
14449945
100
AcDbLine
 10
14.540000000000001
 20
10.940000000000001
 30
0.0
 11
14.76
 21
11.16
 31
0.0
  0
LINE
  5
1A3
330
17
100
AcDbEntity
  8
ELEC_LUMINARIAS
420
14449945
100
AcDbLine
 10
14.540000000000001
 20
11.16
 30
0.0
 11
14.76
 21
10.940000000000001
 31
0.0
  0
TEXT
  5
1A4
330
17
100
AcDbEntity
  8
ELEC_TEXTOS
100
AcDbText
 10
14.93
 20
11.23
 30
0.0
 40
0.12
  1
C6
 72
1
 11
14.93
 21
11.23
 31
0.0
100
AcDbText
 73
2
  0
CIRCLE
  5
1A5
330
17
100
AcDbEntity
  8
ELEC_LUMINARIAS
420
14449945
100
AcDbCircle
 10
18.05
 20
10.65
 30
0.0
 40
0.16
  0
LINE
  5
1A6
330
17
100
AcDbEntity
  8
ELEC_LUMINARIAS
420
14449945
100
AcDbLine
 10
17.94
 20
10.540000000000001
 30
0.0
 11
18.16
 21
10.76
 31
0.0
  0
LINE
  5
1A7
330
17
100
AcDbEntity
  8
ELEC_LUMINARIAS
420
14449945
100
AcDbLine
 10
17.94
 20
10.76
 30
0.0
 11
18.16
 21
10.540000000000001
 31
0.0
  0
TEXT
  5
1A8
330
17
100
AcDbEntity
  8
ELEC_TEXTOS
100
AcDbText
 10
18.330000000000002
 20
10.83
 30
0.0
 40
0.12
  1
C6
 72
1
 11
18.330000000000002
 21
10.83
 31
0.0
100
AcDbText
 73
2
  0
CIRCLE
  5
1A9
330
17
100
AcDbEntity
  8
ELEC_INTERRUPTORES
420
14449945
100
AcDbCircle
 10
15.8
 20
9.75
 30
0.0
 40
0.1
  0
TEXT
  5
1AA
330
17
100
AcDbEntity
  8
ELEC_INTERRUPTORES
100
AcDbText
 10
15.8
 20
9.52
 30
0.0
 40
0.12
  1
S
 72
1
 11
15.8
 21
9.52
 31
0.0
100
AcDbText
 73
2
  0
CIRCLE
  5
1AB
330
17
100
AcDbEntity
  8
ELEC_INTERRUPTORES
420
14449945
100
AcDbCircle
 10
16.55
 20
9.75
 30
0.0
 40
0.1
  0
TEXT
  5
1AC
330
17
100
AcDbEntity
  8
ELEC_INTERRUPTORES
100
AcDbText
 10
16.55
 20
9.52
 30
0.0
 40
0.12
  1
S
 72
1
 11
16.55
 21
9.52
 31
0.0
100
AcDbText
 73
2
  0
CIRCLE
  5
1AD
330
17
100
AcDbEntity
  8
ELEC_INTERRUPTORES
420
14449945
100
AcDbCircle
 10
17.15
 20
9.75
 30
0.0
 40
0.1
  0
TEXT
  5
1AE
330
17
100
AcDbEntity
  8
ELEC_INTERRUPTORES
100
AcDbText
 10
17.15
 20
9.52
 30
0.0
 40
0.12
  1
S
 72
1
 11
17.15
 21
9.52
 31
0.0
100
AcDbText
 73
2
  0
CIRCLE
  5
1AF
330
17
100
AcDbEntity
  8
ELEC_INTERRUPTORES
420
14449945
100
AcDbCircle
 10
15.9
 20
10.85
 30
0.0
 40
0.1
  0
TEXT
  5
1B0
330
17
100
AcDbEntity
  8
ELEC_INTERRUPTORES
100
AcDbText
 10
15.9
 20
10.62
 30
0.0
 40
0.12
  1
S3
 72
1
 11
15.9
 21
10.62
 31
0.0
100
AcDbText
 73
2
  0
LINE
  5
1B1
330
17
100
AcDbEntity
  8
ELEC_LEYENDA
420
1315860
100
AcDbLine
 10
20.1
 20
4.500000000000001
 30
0.0
 11
27.3
 21
4.500000000000001
 31
0.0
  0
LINE
  5
1B2
330
17
100
AcDbEntity
  8
ELEC_LEYENDA
420
1315860
100
AcDbLine
 10
27.3
 20
4.500000000000001
 30
0.0
 11
27.3
 21
12.3
 31
0.0
  0
LINE
  5
1B3
330
17
100
AcDbEntity
  8
ELEC_LEYENDA
420
1315860
100
AcDbLine
 10
27.3
 20
12.3
 30
0.0
 11
20.1
 21
12.3
 31
0.0
  0
LINE
  5
1B4
330
17
100
AcDbEntity
  8
ELEC_LEYENDA
420
1315860
100
AcDbLine
 10
20.1
 20
12.3
 30
0.0
 11
20.1
 21
4.500000000000001
 31
0.0
  0
TEXT
  5
1B5
330
17
100
AcDbEntity
  8
ELEC_LEYENDA
100
AcDbText
 10
23.700000000000003
 20
11.950000000000001
 30
0.0
 40
0.24
  1
LEYENDA ELECTRICA
 72
1
 11
23.700000000000003
 21
11.950000000000001
 31
0.0
100
AcDbText
 73
2
  0
CIRCLE
  5
1B6
330
17
100
AcDbEntity
  8
ELEC_LUMINARIAS
420
14449945
100
AcDbCircle
 10
20.55
 20
11.4
 30
0.0
 40
0.16
  0
LINE
  5
1B7
330
17
100
AcDbEntity
  8
ELEC_LUMINARIAS
420
14449945
100
AcDbLine
 10
20.44
 20
11.290000000000001
 30
0.0
 11
20.66
 21
11.51
 31
0.0
  0
LINE
  5
1B8
330
17
100
AcDbEntity
  8
ELEC_LUMINARIAS
420
14449945
100
AcDbLine
 10
20.44
 20
11.51
 30
0.0
 11
20.66
 21
11.290000000000001
 31
0.0
  0
TEXT
  5
1B9
330
17
100
AcDbEntity
  8
ELEC_LEYENDA
100
AcDbText
 10
21.0
 20
11.4
 30
0.0
 40
0.16
  1
Luminaria de techo
 11
21.0
 21
11.4
 31
0.0
100
AcDbText
 73
2
  0
CIRCLE
  5
1BA
330
17
100
AcDbEntity
  8
ELEC_INTERRUPTORES
420
14449945
100
AcDbCircle
 10
20.55
 20
10.85
 30
0.0
 40
0.1
  0
TEXT
  5
1BB
330
17
100
AcDbEntity
  8
ELEC_INTERRUPTORES
100
AcDbText
 10
20.55
 20
10.62
 30
0.0
 40
0.12
  1
S
 72
1
 11
20.55
 21
10.62
 31
0.0
100
AcDbText
 73
2
  0
TEXT
  5
1BC
330
17
100
AcDbEntity
  8
ELEC_LEYENDA
100
AcDbText
 10
21.0
 20
10.85
 30
0.0
 40
0.16
  1
Interruptor simple
 11
21.0
 21
10.85
 31
0.0
100
AcDbText
 73
2
  0
CIRCLE
  5
1BD
330
17
100
AcDbEntity
  8
ELEC_INTERRUPTORES
420
14449945
100
AcDbCircle
 10
20.55
 20
10.299999999999999
 30
0.0
 40
0.1
  0
TEXT
  5
1BE
330
17
100
AcDbEntity
  8
ELEC_INTERRUPTORES
100
AcDbText
 10
20.55
 20
10.069999999999999
 30
0.0
 40
0.12
  1
S3
 72
1
 11
20.55
 21
10.069999999999999
 31
0.0
100
AcDbText
 73
2
  0
TEXT
  5
1BF
330
17
100
AcDbEntity
  8
ELEC_LEYENDA
100
AcDbText
 10
21.0
 20
10.299999999999999
 30
0.0
 40
0.16
  1
Interruptor conmutado
 11
21.0
 21
10.299999999999999
 31
0.0
100
AcDbText
 73
2
  0
CIRCLE
  5
1C0
330
17
100
AcDbEntity
  8
ELEC_TOMACORRIENTES
420
2315700
100
AcDbCircle
 10
20.55
 20
9.749999999999998
 30
0.0
 40
0.13
  0
LINE
  5
1C1
330
17
100
AcDbEntity
  8
ELEC_TOMACORRIENTES
420
2315700
100
AcDbLine
 10
20.470000000000002
 20
9.749999999999998
 30
0.0
 11
20.63
 21
9.749999999999998
 31
0.0
  0
LINE
  5
1C2
330
17
100
AcDbEntity
  8
ELEC_TOMACORRIENTES
420
2315700
100
AcDbLine
 10
20.55
 20
9.649999999999999
 30
0.0
 11
20.55
 21
9.849999999999998
 31
0.0
  0
TEXT
  5
1C3
330
17
100
AcDbEntity
  8
ELEC_LEYENDA
100
AcDbText
 10
21.0
 20
9.749999999999998
 30
0.0
 40
0.16
  1
Tomacorriente doble con tierra
 11
21.0
 21
9.749999999999998
 31
0.0
100
AcDbText
 73
2
  0
CIRCLE
  5
1C4
330
17
100
AcDbEntity
  8
ELEC_TOMACORRIENTES
420
2315700
100
AcDbCircle
 10
20.55
 20
9.199999999999998
 30
0.0
 40
0.13
  0
LINE
  5
1C5
330
17
100
AcDbEntity
  8
ELEC_TOMACORRIENTES
420
2315700
100
AcDbLine
 10
20.470000000000002
 20
9.199999999999998
 30
0.0
 11
20.63
 21
9.199999999999998
 31
0.0
  0
LINE
  5
1C6
330
17
100
AcDbEntity
  8
ELEC_TOMACORRIENTES
420
2315700
100
AcDbLine
 10
20.55
 20
9.099999999999998
 30
0.0
 11
20.55
 21
9.299999999999997
 31
0.0
  0
TEXT
  5
1C7
330
17
100
AcDbEntity
  8
ELEC_TOMACORRIENTES
100
AcDbText
 10
20.77
 20
9.199999999999998
 30
0.0
 40
0.11
  1
P
 72
1
 11
20.77
 21
9.199999999999998
 31
0.0
100
AcDbText
 73
2
  0
TEXT
  5
1C8
330
17
100
AcDbEntity
  8
ELEC_LEYENDA
100
AcDbText
 10
21.0
 20
9.199999999999998
 30
0.0
 40
0.16
  1
Tomacorriente protegido
 11
21.0
 21
9.199999999999998
 31
0.0
100
AcDbText
 73
2
  0
LINE
  5
1C9
330
17
100
AcDbEntity
  8
ELEC_TABLEROS
420
13114910
100
AcDbLine
 10
20.330000000000002
 20
8.489999999999997
 30
0.0
 11
20.770000000000003
 21
8.489999999999997
 31
0.0
  0
LINE
  5
1CA
330
17
100
AcDbEntity
  8
ELEC_TABLEROS
420
13114910
100
AcDbLine
 10
20.770000000000003
 20
8.489999999999997
 30
0.0
 11
20.770000000000003
 21
8.809999999999997
 31
0.0
  0
LINE
  5
1CB
330
17
100
AcDbEntity
  8
ELEC_TABLEROS
420
13114910
100
AcDbLine
 10
20.770000000000003
 20
8.809999999999997
 30
0.0
 11
20.330000000000002
 21
8.809999999999997
 31
0.0
  0
LINE
  5
1CC
330
17
100
AcDbEntity
  8
ELEC_TABLEROS
420
13114910
100
AcDbLine
 10
20.330000000000002
 20
8.809999999999997
 30
0.0
 11
20.330000000000002
 21
8.489999999999997
 31
0.0
  0
TEXT
  5
1CD
330
17
100
AcDbEntity
  8
ELEC_TABLEROS
100
AcDbText
 10
20.55
 20
8.649999999999997
 30
0.0
 40
0.12
  1
TG
 72
1
 11
20.55
 21
8.649999999999997
 31
0.0
100
AcDbText
 73
2
  0
TEXT
  5
1CE
330
17
100
AcDbEntity
  8
ELEC_LEYENDA
100
AcDbText
 10
21.0
 20
8.649999999999997
 30
0.0
 40
0.16
  1
Tablero general/subtablero
 11
21.0
 21
8.649999999999997
 31
0.0
100
AcDbText
 73
2
  0
CIRCLE
  5
1CF
330
17
100
AcDbEntity
  8
ELEC_MEDIDOR
420
1999430
100
AcDbCircle
 10
20.55
 20
8.099999999999996
 30
0.0
 40
0.18
  0
TEXT
  5
1D0
330
17
100
AcDbEntity
  8
ELEC_MEDIDOR
100
AcDbText
 10
20.55
 20
8.099999999999996
 30
0.0
 40
0.14
  1
M
 72
1
 11
20.55
 21
8.099999999999996
 31
0.0
100
AcDbText
 73
2
  0
TEXT
  5
1D1
330
17
100
AcDbEntity
  8
ELEC_LEYENDA
100
AcDbText
 10
21.0
 20
8.099999999999996
 30
0.0
 40
0.16
  1
Medidor referencial
 11
21.0
 21
8.099999999999996
 31
0.0
100
AcDbText
 73
2
  0
TEXT
  5
1D2
330
17
100
AcDbEntity
  8
ELEC_LEYENDA
100
AcDbText
 10
23.700000000000003
 20
7.349999999999996
 30
0.0
 40
0.2
  1
CIRCUITOS
 72
1
 11
23.700000000000003
 21
7.349999999999996
 31
0.0
100
AcDbText
 73
2
  0
LINE
  5
1D3
330
17
100
AcDbEntity
  8
ELEC_CIRCUITO_C1
  6
DASHED
420
14449945
100
AcDbLine
 10
20.35
 20
6.9999999999999964
 30
0.0
 11
20.85
 21
6.9999999999999964
 31
0.0
  0
TEXT
  5
1D4
330
17
100
AcDbEntity
  8
ELEC_LEYENDA
100
AcDbText
 10
21.0
 20
6.9999999999999964
 30
0.0
 40
0.13
  1
C1: Alumbrado primer piso
 11
21.0
 21
6.9999999999999964
 31
0.0
100
AcDbText
 73
2
  0
LINE
  5
1D5
330
17
100
AcDbEntity
  8
ELEC_CIRCUITO_C2
  6
DASHED
420
2315700
100
AcDbLine
 10
20.35
 20
6.719999999999996
 30
0.0
 11
20.85
 21
6.719999999999996
 31
0.0
  0
TEXT
  5
1D6
330
17
100
AcDbEntity
  8
ELEC_LEYENDA
100
AcDbText
 10
21.0
 20
6.719999999999996
 30
0.0
 40
0.13
  1
C2: Tomacorrientes generales primer piso
 11
21.0
 21
6.719999999999996
 31
0.0
100
AcDbText
 73
2
  0
LINE
  5
1D7
330
17
100
AcDbEntity
  8
ELEC_CIRCUITO_C3
  6
DASHED
420
13114910
100
AcDbLine
 10
20.35
 20
6.439999999999996
 30
0.0
 11
20.85
 21
6.439999999999996
 31
0.0
  0
TEXT
  5
1D8
330
17
100
AcDbEntity
  8
ELEC_LEYENDA
100
AcDbText
 10
21.0
 20
6.439999999999996
 30
0.0
 40
0.13
  1
C3: Cocina
 11
21.0
 21
6.439999999999996
 31
0.0
100
AcDbText
 73
2
  0
LINE
  5
1D9
330
17
100
AcDbEntity
  8
ELEC_CIRCUITO_C4
  6
DASHED
420
14449945
100
AcDbLine
 10
20.35
 20
6.159999999999996
 30
0.0
 11
20.85
 21
6.159999999999996
 31
0.0
  0
TEXT
  5
1DA
330
17
100
AcDbEntity
  8
ELEC_LEYENDA
100
AcDbText
 10
21.0
 20
6.159999999999996
 30
0.0
 40
0.13
  1
C4: Alumbrado segundo piso
 11
21.0
 21
6.159999999999996
 31
0.0
100
AcDbText
 73
2
  0
LINE
  5
1DB
330
17
100
AcDbEntity
  8
ELEC_CIRCUITO_C5
  6
DASHED
420
2315700
100
AcDbLine
 10
20.35
 20
5.8799999999999955
 30
0.0
 11
20.85
 21
5.8799999999999955
 31
0.0
  0
TEXT
  5
1DC
330
17
100
AcDbEntity
  8
ELEC_LEYENDA
100
AcDbText
 10
21.0
 20
5.8799999999999955
 30
0.0
 40
0.13
  1
C5: Tomacorrientes generales segundo piso
 11
21.0
 21
5.8799999999999955
 31
0.0
100
AcDbText
 73
2
  0
LINE
  5
1DD
330
17
100
AcDbEntity
  8
ELEC_CIRCUITO_C6
  6
DASHED
420
14449945
100
AcDbLine
 10
20.35
 20
5.599999999999995
 30
0.0
 11
20.85
 21
5.599999999999995
 31
0.0
  0
TEXT
  5
1DE
330
17
100
AcDbEntity
  8
ELEC_LEYENDA
100
AcDbText
 10
21.0
 20
5.599999999999995
 30
0.0
 40
0.13
  1
C6: Alumbrado tercer piso
 11
21.0
 21
5.599999999999995
 31
0.0
100
AcDbText
 73
2
  0
LINE
  5
1DF
330
17
100
AcDbEntity
  8
ELEC_CIRCUITO_C7
  6
DASHED
420
2315700
100
AcDbLine
 10
20.35
 20
5.319999999999995
 30
0.0
 11
20.85
 21
5.319999999999995
 31
0.0
  0
TEXT
  5
1E0
330
17
100
AcDbEntity
  8
ELEC_LEYENDA
100
AcDbText
 10
21.0
 20
5.319999999999995
 30
0.0
 40
0.13
  1
C7: Tomacorrientes generales tercer piso
 11
21.0
 21
5.319999999999995
 31
0.0
100
AcDbText
 73
2
  0
LINE
  5
1E1
330
17
100
AcDbEntity
  8
ELEC_CIRCUITO_C8
  6
DASHED
420
7879840
100
AcDbLine
 10
20.35
 20
5.039999999999995
 30
0.0
 11
20.85
 21
5.039999999999995
 31
0.0
  0
TEXT
  5
1E2
330
17
100
AcDbEntity
  8
ELEC_LEYENDA
100
AcDbText
 10
21.0
 20
5.039999999999995
 30
0.0
 40
0.13
  1
C8: Lavanderia
 11
21.0
 21
5.039999999999995
 31
0.0
100
AcDbText
 73
2
  0
LINE
  5
1E3
330
17
100
AcDbEntity
  8
ELEC_CIRCUITO_C9
  6
DASHED
420
1999430
100
AcDbLine
 10
20.35
 20
4.7599999999999945
 30
0.0
 11
20.85
 21
4.7599999999999945
 31
0.0
  0
TEXT
  5
1E4
330
17
100
AcDbEntity
  8
ELEC_LEYENDA
100
AcDbText
 10
21.0
 20
4.7599999999999945
 30
0.0
 40
0.13
  1
C9: Bomba de agua
 11
21.0
 21
4.7599999999999945
 31
0.0
100
AcDbText
 73
2
  0
LINE
  5
1E5
330
17
100
AcDbEntity
  8
ELEC_ROTULO
420
1315860
100
AcDbLine
 10
20.1
 20
-0.4
 30
0.0
 11
27.3
 21
-0.4
 31
0.0
  0
LINE
  5
1E6
330
17
100
AcDbEntity
  8
ELEC_ROTULO
420
1315860
100
AcDbLine
 10
27.3
 20
-0.4
 30
0.0
 11
27.3
 21
2.4
 31
0.0
  0
LINE
  5
1E7
330
17
100
AcDbEntity
  8
ELEC_ROTULO
420
1315860
100
AcDbLine
 10
27.3
 20
2.4
 30
0.0
 11
20.1
 21
2.4
 31
0.0
  0
LINE
  5
1E8
330
17
100
AcDbEntity
  8
ELEC_ROTULO
420
1315860
100
AcDbLine
 10
20.1
 20
2.4
 30
0.0
 11
20.1
 21
-0.4
 31
0.0
  0
TEXT
  5
1E9
330
17
100
AcDbEntity
  8
ELEC_ROTULO
100
AcDbText
 10
20.35
 20
2.05
 30
0.0
 40
0.18
  1
PROYECTO: VIVIENDA UNIFAMILIAR
 11
20.35
 21
2.05
 31
0.0
100
AcDbText
 73
2
  0
TEXT
  5
1EA
330
17
100
AcDbEntity
  8
ELEC_ROTULO
100
AcDbText
 10
20.35
 20
1.65
 30
0.0
 40
0.14
  1
PROPIETARIO: RENZO GABRIEL MAMANI GALINDO
 11
20.35
 21
1.65
 31
0.0
100
AcDbText
 73
2
  0
TEXT
  5
1EB
330
17
100
AcDbEntity
  8
ELEC_ROTULO
100
AcDbText
 10
20.35
 20
1.2999999999999998
 30
0.0
 40
0.14
  1
UBICACION: JR. LIMA S/N - CAPACHICA - PUNO
 11
20.35
 21
1.2999999999999998
 31
0.0
100
AcDbText
 73
2
  0
TEXT
  5
1EC
330
17
100
AcDbEntity
  8
ELEC_ROTULO
100
AcDbText
 10
20.35
 20
0.8999999999999999
 30
0.0
 40
0.18
  1
PLANO: IE-02 ALUMBRADO
 11
20.35
 21
0.8999999999999999
 31
0.0
100
AcDbText
 73
2
  0
TEXT
  5
1ED
330
17
100
AcDbEntity
  8
ELEC_ROTULO
100
AcDbText
 10
20.35
 20
0.5
 30
0.0
 40
0.14
  1
VERSION: v1    ESCALA: REFERENCIAL    ESTADO: REVISION
 11
20.35
 21
0.5
 31
0.0
100
AcDbText
 73
2
  0
TEXT
  5
1EE
330
17
100
AcDbEntity
  8
ELEC_ROTULO
100
AcDbText
 10
20.35
 20
0.10000000000000009
 30
0.0
 40
0.14
  1
NORMA: CNE-U / RNE EM.010    FECHA: 2026-06-03
 11
20.35
 21
0.10000000000000009
 31
0.0
100
AcDbText
 73
2
  0
ENDSEC
  0
SECTION
  2
OBJECTS
  0
DICTIONARY
  5
A
330
0
100
AcDbDictionary
281
1
  3
ACAD_COLOR
350
B
  3
ACAD_GROUP
350
C
  3
ACAD_LAYOUT
350
D
  3
ACAD_MATERIAL
350
E
  3
ACAD_MLEADERSTYLE
350
F
  3
ACAD_MLINESTYLE
350
10
  3
ACAD_PLOTSETTINGS
350
11
  3
ACAD_PLOTSTYLENAME
350
12
  3
ACAD_SCALELIST
350
14
  3
ACAD_TABLESTYLE
350
15
  3
ACAD_VISUALSTYLE
350
16
  3
EZDXF_META
350
2D
  0
DICTIONARY
  5
B
330
A
100
AcDbDictionary
281
1
  0
DICTIONARY
  5
C
330
A
100
AcDbDictionary
281
1
  0
DICTIONARY
  5
D
330
A
100
AcDbDictionary
281
1
  3
Model
350
1A
  3
Layout1
350
1E
  0
DICTIONARY
  5
E
330
A
100
AcDbDictionary
281
1
  3
ByBlock
350
1F
  3
ByLayer
350
20
  3
Global
350
21
  0
DICTIONARY
  5
F
330
A
100
AcDbDictionary
281
1
  3
Standard
350
2C
  0
DICTIONARY
  5
10
330
A
100
AcDbDictionary
281
1
  3
Standard
350
22
  0
DICTIONARY
  5
11
330
A
100
AcDbDictionary
281
1
  0
ACDBDICTIONARYWDFLT
  5
12
330
A
100
AcDbDictionary
281
1
  3
Normal
350
13
100
AcDbDictionaryWithDefault
340
13
  0
ACDBPLACEHOLDER
  5
13
330
12
  0
DICTIONARY
  5
14
330
A
100
AcDbDictionary
281
1
  0
DICTIONARY
  5
15
330
A
100
AcDbDictionary
281
1
  0
DICTIONARY
  5
16
330
A
100
AcDbDictionary
281
1
  0
LAYOUT
  5
1A
330
D
100
AcDbPlotSettings
  1

  4
A3
  6

 40
7.5
 41
20.0
 42
7.5
 43
20.0
 44
420.0
 45
297.0
 46
0.0
 47
0.0
 48
0.0
 49
0.0
140
0.0
141
0.0
142
1.0
143
1.0
 70
1024
 72
1
 73
0
 74
5
  7

 75
16
 76
0
 77
2
 78
300
147
1.0
148
0.0
149
0.0
100
AcDbLayout
  1
Model
 70
1
 71
0
 10
0.0
 20
0.0
 11
420.0
 21
297.0
 12
0.0
 22
0.0
 32
0.0
 14
1e+20
 24
1e+20
 34
1e+20
 15
-1e+20
 25
-1e+20
 35
-1e+20
146
0.0
 13
0.0
 23
0.0
 33
0.0
 16
1.0
 26
0.0
 36
0.0
 17
0.0
 27
1.0
 37
0.0
 76
1
330
17
  0
LAYOUT
  5
1E
330
D
100
AcDbPlotSettings
  1

  4
A3
  6

 40
7.5
 41
20.0
 42
7.5
 43
20.0
 44
420.0
 45
297.0
 46
0.0
 47
0.0
 48
0.0
 49
0.0
140
0.0
141
0.0
142
1.0
143
1.0
 70
0
 72
1
 73
0
 74
5
  7

 75
16
 76
0
 77
2
 78
300
147
1.0
148
0.0
149
0.0
100
AcDbLayout
  1
Layout1
 70
1
 71
1
 10
0.0
 20
0.0
 11
420.0
 21
297.0
 12
0.0
 22
0.0
 32
0.0
 14
1e+20
 24
1e+20
 34
1e+20
 15
-1e+20
 25
-1e+20
 35
-1e+20
146
0.0
 13
0.0
 23
0.0
 33
0.0
 16
1.0
 26
0.0
 36
0.0
 17
0.0
 27
1.0
 37
0.0
 76
1
330
1B
  0
MATERIAL
  5
1F
102
{ACAD_REACTORS
330
E
102
}
330
E
100
AcDbMaterial
  1
ByBlock
  2

 70
0
 40
1.0
 71
1
 41
1.0
 91
-1023410177
 42
1.0
 72
1
  3

 73
1
 74
1
 75
1
 44
0.5
 73
0
 45
1.0
 46
1.0
 77
1
  4

 78
1
 79
1
170
1
 48
1.0
171
1
  6

172
1
173
1
174
1
140
1.0
141
1.0
175
1
  7

176
1
177
1
178
1
143
1.0
179
1
  8

270
1
271
1
272
1
145
1.0
146
1.0
273
1
  9

274
1
275
1
276
1
 42
1.0
 72
1
  3

 73
1
 74
1
 75
1
 94
63
  0
MATERIAL
  5
20
102
{ACAD_REACTORS
330
E
102
}
330
E
100
AcDbMaterial
  1
ByLayer
  2

 70
0
 40
1.0
 71
1
 41
1.0
 91
-1023410177
 42
1.0
 72
1
  3

 73
1
 74
1
 75
1
 44
0.5
 73
0
 45
1.0
 46
1.0
 77
1
  4

 78
1
 79
1
170
1
 48
1.0
171
1
  6

172
1
173
1
174
1
140
1.0
141
1.0
175
1
  7

176
1
177
1
178
1
143
1.0
179
1
  8

270
1
271
1
272
1
145
1.0
146
1.0
273
1
  9

274
1
275
1
276
1
 42
1.0
 72
1
  3

 73
1
 74
1
 75
1
 94
63
  0
MATERIAL
  5
21
102
{ACAD_REACTORS
330
E
102
}
330
E
100
AcDbMaterial
  1
Global
  2

 70
0
 40
1.0
 71
1
 41
1.0
 91
-1023410177
 42
1.0
 72
1
  3

 73
1
 74
1
 75
1
 44
0.5
 73
0
 45
1.0
 46
1.0
 77
1
  4

 78
1
 79
1
170
1
 48
1.0
171
1
  6

172
1
173
1
174
1
140
1.0
141
1.0
175
1
  7

176
1
177
1
178
1
143
1.0
179
1
  8

270
1
271
1
272
1
145
1.0
146
1.0
273
1
  9

274
1
275
1
276
1
 42
1.0
 72
1
  3

 73
1
 74
1
 75
1
 94
63
  0
MLINESTYLE
  5
22
102
{ACAD_REACTORS
330
10
102
}
330
10
100
AcDbMlineStyle
  2
Standard
 70
0
  3

 62
256
 51
90.0
 52
90.0
 71
2
 49
0.5
 62
256
  6
BYLAYER
 49
-0.5
 62
256
  6
BYLAYER
  0
MLEADERSTYLE
  5
2C
102
{ACAD_REACTORS
330
F
102
}
330
F
100
AcDbMLeaderStyle
179
2
170
2
171
1
172
0
 90
2
 40
0.0
 41
0.0
173
1
 91
-1056964608
 92
-2
290
1
 42
2.0
291
1
 43
8.0
  3
Standard
 44
4.0
300

342
29
174
1
175
1
176
0
178
1
 93
-1056964608
 45
4.0
292
0
297
0
 46
4.0
 94
-1056964608
 47
1.0
 49
1.0
140
1.0
294
1
141
0.0
177
0
142
1.0
295
0
296
0
143
3.75
271
0
272
9
273
9
  0
DICTIONARY
  5
2D
330
A
100
AcDbDictionary
280
1
281
1
  3
CREATED_BY_EZDXF
350
2E
  3
WRITTEN_BY_EZDXF
350
1F1
  0
DICTIONARYVAR
  5
2E
330
2D
100
DictionaryVariables
280
0
  1
1.4.4 @ 2026-06-03T16:17:40.308448+00:00
  0
DICTIONARYVAR
  5
1F1
330
2D
100
DictionaryVariables
280
0
  1
1.4.4 @ 2026-06-03T16:17:40.444509+00:00
  0
ENDSEC
  0
EOF
